<?xml version="1.0" encoding="utf-8" standalone="no"?>
<!DOCTYPE svg PUBLIC "-//W3C//DTD SVG 1.1//EN"
  "http://www.w3.org/Graphics/SVG/1.1/DTD/svg11.dtd">
<svg xmlns:xlink="http://www.w3.org/1999/xlink" width="921.6pt" height="633.6pt" viewBox="0 0 921.6 633.6" xmlns="http://www.w3.org/2000/svg" version="1.1">
 <metadata>
  <rdf:RDF xmlns:dc="http://purl.org/dc/elements/1.1/" xmlns:cc="http://creativecommons.org/ns#" xmlns:rdf="http://www.w3.org/1999/02/22-rdf-syntax-ns#">
   <cc:Work>
    <dc:type rdf:resource="http://purl.org/dc/dcmitype/StillImage"/>
    <dc:date>2022-11-02T00:33:43.681411</dc:date>
    <dc:format>image/svg+xml</dc:format>
    <dc:creator>
     <cc:Agent>
      <dc:title>Matplotlib v3.5.3, https://matplotlib.org/</dc:title>
     </cc:Agent>
    </dc:creator>
   </cc:Work>
  </rdf:RDF>
 </metadata>
 <defs>
  <style type="text/css">*{stroke-linejoin: round; stroke-linecap: butt}</style>
 </defs>
 <g id="figure_1">
  <g id="patch_1">
   <path d="M 0 633.6 
L 921.6 633.6 
L 921.6 0 
L 0 0 
z
" style="fill: #ffffff"/>
  </g>
  <g id="axes_1">
   <g id="patch_2">
    <path d="M 115.2 563.904 
L 829.44 563.904 
L 829.44 76.032 
L 115.2 76.032 
z
" style="fill: #ffffff"/>
   </g>
   <g id="PolyCollection_1">
    <defs>
     <path id="m28bb174c58" d="M 147.665455 -104.162163 
L 147.665455 -104.162163 
L 168.610909 -141.91366 
L 189.556364 -149.469069 
L 210.501818 -158.144144 
L 231.447273 -162.868675 
L 252.392727 -166.180005 
L 273.338182 -166.020776 
L 294.283636 -171.921882 
L 315.229091 -170.519959 
L 336.174545 -173.839089 
L 357.12 -172.718754 
L 378.065455 -175.293566 
L 399.010909 -173.478582 
L 419.956364 -173.450382 
L 440.901818 -176.266008 
L 461.847273 -177.717243 
L 482.792727 -176.161647 
L 503.738182 -174.614451 
L 524.683636 -175.221314 
L 545.629091 -175.102775 
L 566.574545 -175.553633 
L 587.52 -176.76608 
L 608.465455 -176.790554 
L 629.410909 -176.871912 
L 650.356364 -177.281692 
L 671.301818 -177.98943 
L 692.247273 -180.660999 
L 713.192727 -176.459477 
L 734.138182 -177.362948 
L 755.083636 -178.61259 
L 776.029091 -179.336237 
L 796.974545 -179.590616 
L 796.974545 -179.590616 
L 796.974545 -179.590616 
L 776.029091 -179.336237 
L 755.083636 -178.61259 
L 734.138182 -177.362948 
L 713.192727 -176.459477 
L 692.247273 -180.660999 
L 671.301818 -177.98943 
L 650.356364 -177.281692 
L 629.410909 -176.871912 
L 608.465455 -176.790554 
L 587.52 -176.76608 
L 566.574545 -175.553633 
L 545.629091 -175.102775 
L 524.683636 -175.221314 
L 503.738182 -174.614451 
L 482.792727 -176.161647 
L 461.847273 -177.717243 
L 440.901818 -176.266008 
L 419.956364 -173.450382 
L 399.010909 -173.478582 
L 378.065455 -175.293566 
L 357.12 -172.718754 
L 336.174545 -173.839089 
L 315.229091 -170.519959 
L 294.283636 -171.921882 
L 273.338182 -166.020776 
L 252.392727 -166.180005 
L 231.447273 -162.868675 
L 210.501818 -158.144144 
L 189.556364 -149.469069 
L 168.610909 -141.91366 
L 147.665455 -104.162163 
z
" style="stroke: #fff8dc; stroke-width: 0.48"/>
    </defs>
    <g clip-path="url(#pef1728feb5)">
     <use xlink:href="#m28bb174c58" x="0" y="633.6" style="fill: #fff8dc; stroke: #fff8dc; stroke-width: 0.48"/>
    </g>
   </g>
   <g id="PolyCollection_2">
    <defs>
     <path id="m89fd4314a0" d="M 147.665455 -103.661988 
L 147.665455 -103.661988 
L 168.610909 -127.20647 
L 189.556364 -132.737049 
L 210.501818 -135.448892 
L 231.447273 -137.254199 
L 252.392727 -138.487621 
L 273.338182 -138.94911 
L 294.283636 -139.505726 
L 315.229091 -139.334909 
L 336.174545 -140.356038 
L 357.12 -140.326865 
L 378.065455 -140.8978 
L 399.010909 -140.752923 
L 419.956364 -140.791059 
L 440.901818 -141.506319 
L 461.847273 -141.58874 
L 482.792727 -141.297093 
L 503.738182 -141.517391 
L 524.683636 -141.744164 
L 545.629091 -141.518271 
L 566.574545 -142.082883 
L 587.52 -141.870947 
L 608.465455 -141.571258 
L 629.410909 -141.508282 
L 650.356364 -141.891515 
L 671.301818 -141.763373 
L 692.247273 -141.716184 
L 713.192727 -141.748713 
L 734.138182 -141.537293 
L 755.083636 -141.966236 
L 776.029091 -142.114875 
L 796.974545 -142.247211 
L 796.974545 -142.247211 
L 796.974545 -142.247211 
L 776.029091 -142.114875 
L 755.083636 -141.966236 
L 734.138182 -141.537293 
L 713.192727 -141.748713 
L 692.247273 -141.716184 
L 671.301818 -141.763373 
L 650.356364 -141.891515 
L 629.410909 -141.508282 
L 608.465455 -141.571258 
L 587.52 -141.870947 
L 566.574545 -142.082883 
L 545.629091 -141.518271 
L 524.683636 -141.744164 
L 503.738182 -141.517391 
L 482.792727 -141.297093 
L 461.847273 -141.58874 
L 440.901818 -141.506319 
L 419.956364 -140.791059 
L 399.010909 -140.752923 
L 378.065455 -140.8978 
L 357.12 -140.326865 
L 336.174545 -140.356038 
L 315.229091 -139.334909 
L 294.283636 -139.505726 
L 273.338182 -138.94911 
L 252.392727 -138.487621 
L 231.447273 -137.254199 
L 210.501818 -135.448892 
L 189.556364 -132.737049 
L 168.610909 -127.20647 
L 147.665455 -103.661988 
z
" style="stroke: #fff8dc; stroke-width: 0.48"/>
    </defs>
    <g clip-path="url(#pef1728feb5)">
     <use xlink:href="#m89fd4314a0" x="0" y="633.6" style="fill: #fff8dc; stroke: #fff8dc; stroke-width: 0.48"/>
    </g>
   </g>
   <g id="PolyCollection_3">
    <defs>
     <path id="m617e0247e5" d="M 147.665455 -91.872 
L 147.665455 -91.872 
L 168.610909 -107.932902 
L 189.556364 -108.868767 
L 210.501818 -117.144065 
L 231.447273 -118.767337 
L 252.392727 -119.92015 
L 273.338182 -120.750644 
L 294.283636 -120.907875 
L 315.229091 -120.495782 
L 336.174545 -121.621623 
L 357.12 -121.736593 
L 378.065455 -122.266959 
L 399.010909 -122.483384 
L 419.956364 -122.361912 
L 440.901818 -122.9528 
L 461.847273 -122.715449 
L 482.792727 -122.469839 
L 503.738182 -123.107889 
L 524.683636 -123.186877 
L 545.629091 -123.023676 
L 566.574545 -123.562777 
L 587.52 -123.375103 
L 608.465455 -123.554801 
L 629.410909 -123.751579 
L 650.356364 -123.332661 
L 671.301818 -123.397954 
L 692.247273 -123.120316 
L 713.192727 -122.876065 
L 734.138182 -122.950503 
L 755.083636 -123.41502 
L 776.029091 -123.717488 
L 796.974545 -123.65339 
L 796.974545 -123.65339 
L 796.974545 -123.65339 
L 776.029091 -123.717488 
L 755.083636 -123.41502 
L 734.138182 -122.950503 
L 713.192727 -122.876065 
L 692.247273 -123.120316 
L 671.301818 -123.397954 
L 650.356364 -123.332661 
L 629.410909 -123.751579 
L 608.465455 -123.554801 
L 587.52 -123.375103 
L 566.574545 -123.562777 
L 545.629091 -123.023676 
L 524.683636 -123.186877 
L 503.738182 -123.107889 
L 482.792727 -122.469839 
L 461.847273 -122.715449 
L 440.901818 -122.9528 
L 419.956364 -122.361912 
L 399.010909 -122.483384 
L 378.065455 -122.266959 
L 357.12 -121.736593 
L 336.174545 -121.621623 
L 315.229091 -120.495782 
L 294.283636 -120.907875 
L 273.338182 -120.750644 
L 252.392727 -119.92015 
L 231.447273 -118.767337 
L 210.501818 -117.144065 
L 189.556364 -108.868767 
L 168.610909 -107.932902 
L 147.665455 -91.872 
z
" style="stroke: #fff8dc; stroke-width: 0.48"/>
    </defs>
    <g clip-path="url(#pef1728feb5)">
     <use xlink:href="#m617e0247e5" x="0" y="633.6" style="fill: #fff8dc; stroke: #fff8dc; stroke-width: 0.48"/>
    </g>
   </g>
   <g id="PolyCollection_4">
    <defs>
     <path id="m03e77674af" d="M 147.665455 -382.236473 
L 147.665455 -382.236473 
L 168.610909 -459.590585 
L 189.556364 -472.553174 
L 210.501818 -478.888988 
L 231.447273 -464.305522 
L 252.392727 -491.709377 
L 273.338182 -485.35956 
L 294.283636 -474.524047 
L 315.229091 -461.557929 
L 336.174545 -479.872405 
L 357.12 -472.163386 
L 378.065455 -474.680687 
L 399.010909 -464.610874 
L 419.956364 -477.342413 
L 440.901818 -487.831516 
L 461.847273 -423.12536 
L 482.792727 -465.718608 
L 503.738182 -489.923756 
L 524.683636 -454.972657 
L 545.629091 -495.414008 
L 566.574545 -497.662806 
L 587.52 -485.729011 
L 608.465455 -450.418309 
L 629.410909 -489.394599 
L 650.356364 -457.932956 
L 671.301818 -452.653621 
L 692.247273 -355.066338 
L 713.192727 -493.711912 
L 734.138182 -466.146884 
L 755.083636 -467.355237 
L 776.029091 -462.921226 
L 796.974545 -460.936458 
L 796.974545 -460.936458 
L 796.974545 -534.42104 
L 776.029091 -535.27519 
L 755.083636 -523.155496 
L 734.138182 -523.086183 
L 713.192727 -534.293104 
L 692.247273 -519.609062 
L 671.301818 -530.924172 
L 650.356364 -524.770845 
L 629.410909 -535.392 
L 608.465455 -524.025834 
L 587.52 -533.962855 
L 566.574545 -525.996022 
L 545.629091 -528.72181 
L 524.683636 -519.736248 
L 503.738182 -521.795411 
L 482.792727 -506.632442 
L 461.847273 -507.491764 
L 440.901818 -518.306681 
L 419.956364 -513.286351 
L 399.010909 -523.699801 
L 378.065455 -525.374788 
L 357.12 -525.642411 
L 336.174545 -532.592515 
L 315.229091 -529.105754 
L 294.283636 -517.200591 
L 273.338182 -516.039696 
L 252.392727 -506.989927 
L 231.447273 -510.61647 
L 210.501818 -499.241066 
L 189.556364 -497.914727 
L 168.610909 -483.689585 
L 147.665455 -426.48917 
z
" style="stroke: #fff8dc; stroke-width: 0.48"/>
    </defs>
    <g clip-path="url(#pef1728feb5)">
     <use xlink:href="#m03e77674af" x="0" y="633.6" style="fill: #fff8dc; stroke: #fff8dc; stroke-width: 0.48"/>
    </g>
   </g>
   <g id="PolyCollection_5">
    <defs>
     <path id="m241cb735f7" d="M 147.665455 -357.483879 
L 147.665455 -357.483879 
L 168.610909 -406.401093 
L 189.556364 -427.607257 
L 210.501818 -442.805247 
L 231.447273 -454.151118 
L 252.392727 -463.343234 
L 273.338182 -470.57461 
L 294.283636 -476.796968 
L 315.229091 -482.392747 
L 336.174545 -487.386441 
L 357.12 -491.88256 
L 378.065455 -495.845803 
L 399.010909 -499.52363 
L 419.956364 -503.071133 
L 440.901818 -506.009276 
L 461.847273 -509.138885 
L 482.792727 -511.922283 
L 503.738182 -514.565356 
L 524.683636 -517.021146 
L 545.629091 -517.993438 
L 566.574545 -517.838041 
L 587.52 -518.1629 
L 608.465455 -518.340721 
L 629.410909 -518.244314 
L 650.356364 -518.314991 
L 671.301818 -518.363898 
L 692.247273 -518.495226 
L 713.192727 -518.581506 
L 734.138182 -518.558617 
L 755.083636 -518.614124 
L 776.029091 -518.632481 
L 796.974545 -518.742307 
L 796.974545 -518.742307 
L 796.974545 -518.742307 
L 776.029091 -518.632481 
L 755.083636 -518.614124 
L 734.138182 -518.558617 
L 713.192727 -518.581506 
L 692.247273 -518.495226 
L 671.301818 -518.363898 
L 650.356364 -518.314991 
L 629.410909 -518.244314 
L 608.465455 -518.340721 
L 587.52 -518.1629 
L 566.574545 -517.838041 
L 545.629091 -517.993438 
L 524.683636 -517.021146 
L 503.738182 -514.565356 
L 482.792727 -511.922283 
L 461.847273 -509.138885 
L 440.901818 -506.009276 
L 419.956364 -503.071133 
L 399.010909 -499.52363 
L 378.065455 -495.845803 
L 357.12 -491.88256 
L 336.174545 -487.386441 
L 315.229091 -482.392747 
L 294.283636 -476.796968 
L 273.338182 -470.57461 
L 252.392727 -463.343234 
L 231.447273 -454.151118 
L 210.501818 -442.805247 
L 189.556364 -427.607257 
L 168.610909 -406.401093 
L 147.665455 -357.483879 
z
" style="stroke: #fff8dc; stroke-width: 0.48"/>
    </defs>
    <g clip-path="url(#pef1728feb5)">
     <use xlink:href="#m241cb735f7" x="0" y="633.6" style="fill: #fff8dc; stroke: #fff8dc; stroke-width: 0.48"/>
    </g>
   </g>
   <g id="matplotlib.axis_1">
    <g id="xtick_1">
     <g id="line2d_1">
      <defs>
       <path id="m51a6c682c9" d="M 0 0 
L 0 3.5 
" style="stroke: #000000; stroke-width: 1.6"/>
      </defs>
      <g>
       <use xlink:href="#m51a6c682c9" x="147.665455" y="563.904" style="stroke: #000000; stroke-width: 1.6"/>
      </g>
     </g>
     <g id="text_1">
      <!-- 1, 32 -->
      <g transform="translate(133.671392 586.962281)scale(0.11 -0.11)">
       <defs>
        <path id="DejaVuSans-31" d="M 794 531 
L 1825 531 
L 1825 4091 
L 703 3866 
L 703 4441 
L 1819 4666 
L 2450 4666 
L 2450 531 
L 3481 531 
L 3481 0 
L 794 0 
L 794 531 
z
" transform="scale(0.015625)"/>
        <path id="DejaVuSans-2c" d="M 750 794 
L 1409 794 
L 1409 256 
L 897 -744 
L 494 -744 
L 750 256 
L 750 794 
z
" transform="scale(0.015625)"/>
        <path id="DejaVuSans-20" transform="scale(0.015625)"/>
        <path id="DejaVuSans-33" d="M 2597 2516 
Q 3050 2419 3304 2112 
Q 3559 1806 3559 1356 
Q 3559 666 3084 287 
Q 2609 -91 1734 -91 
Q 1441 -91 1130 -33 
Q 819 25 488 141 
L 488 750 
Q 750 597 1062 519 
Q 1375 441 1716 441 
Q 2309 441 2620 675 
Q 2931 909 2931 1356 
Q 2931 1769 2642 2001 
Q 2353 2234 1838 2234 
L 1294 2234 
L 1294 2753 
L 1863 2753 
Q 2328 2753 2575 2939 
Q 2822 3125 2822 3475 
Q 2822 3834 2567 4026 
Q 2313 4219 1838 4219 
Q 1578 4219 1281 4162 
Q 984 4106 628 3988 
L 628 4550 
Q 988 4650 1302 4700 
Q 1616 4750 1894 4750 
Q 2613 4750 3031 4423 
Q 3450 4097 3450 3541 
Q 3450 3153 3228 2886 
Q 3006 2619 2597 2516 
z
" transform="scale(0.015625)"/>
        <path id="DejaVuSans-32" d="M 1228 531 
L 3431 531 
L 3431 0 
L 469 0 
L 469 531 
Q 828 903 1448 1529 
Q 2069 2156 2228 2338 
Q 2531 2678 2651 2914 
Q 2772 3150 2772 3378 
Q 2772 3750 2511 3984 
Q 2250 4219 1831 4219 
Q 1534 4219 1204 4116 
Q 875 4013 500 3803 
L 500 4441 
Q 881 4594 1212 4672 
Q 1544 4750 1819 4750 
Q 2544 4750 2975 4387 
Q 3406 4025 3406 3419 
Q 3406 3131 3298 2873 
Q 3191 2616 2906 2266 
Q 2828 2175 2409 1742 
Q 1991 1309 1228 531 
z
" transform="scale(0.015625)"/>
       </defs>
       <use xlink:href="#DejaVuSans-31"/>
       <use xlink:href="#DejaVuSans-2c" x="63.623047"/>
       <use xlink:href="#DejaVuSans-20" x="95.410156"/>
       <use xlink:href="#DejaVuSans-33" x="127.197266"/>
       <use xlink:href="#DejaVuSans-32" x="190.820312"/>
      </g>
     </g>
    </g>
    <g id="xtick_2">
     <g id="line2d_2">
      <g>
       <use xlink:href="#m51a6c682c9" x="273.338182" y="563.904" style="stroke: #000000; stroke-width: 1.6"/>
      </g>
     </g>
     <g id="text_2">
      <!-- 7, 224 -->
      <g transform="translate(255.844744 586.962281)scale(0.11 -0.11)">
       <defs>
        <path id="DejaVuSans-37" d="M 525 4666 
L 3525 4666 
L 3525 4397 
L 1831 0 
L 1172 0 
L 2766 4134 
L 525 4134 
L 525 4666 
z
" transform="scale(0.015625)"/>
        <path id="DejaVuSans-34" d="M 2419 4116 
L 825 1625 
L 2419 1625 
L 2419 4116 
z
M 2253 4666 
L 3047 4666 
L 3047 1625 
L 3713 1625 
L 3713 1100 
L 3047 1100 
L 3047 0 
L 2419 0 
L 2419 1100 
L 313 1100 
L 313 1709 
L 2253 4666 
z
" transform="scale(0.015625)"/>
       </defs>
       <use xlink:href="#DejaVuSans-37"/>
       <use xlink:href="#DejaVuSans-2c" x="63.623047"/>
       <use xlink:href="#DejaVuSans-20" x="95.410156"/>
       <use xlink:href="#DejaVuSans-32" x="127.197266"/>
       <use xlink:href="#DejaVuSans-32" x="190.820312"/>
       <use xlink:href="#DejaVuSans-34" x="254.443359"/>
      </g>
     </g>
    </g>
    <g id="xtick_3">
     <g id="line2d_3">
      <g>
       <use xlink:href="#m51a6c682c9" x="399.010909" y="563.904" style="stroke: #000000; stroke-width: 1.6"/>
      </g>
     </g>
     <g id="text_3">
      <!-- 13, 416 -->
      <g transform="translate(378.018097 586.962281)scale(0.11 -0.11)">
       <defs>
        <path id="DejaVuSans-36" d="M 2113 2584 
Q 1688 2584 1439 2293 
Q 1191 2003 1191 1497 
Q 1191 994 1439 701 
Q 1688 409 2113 409 
Q 2538 409 2786 701 
Q 3034 994 3034 1497 
Q 3034 2003 2786 2293 
Q 2538 2584 2113 2584 
z
M 3366 4563 
L 3366 3988 
Q 3128 4100 2886 4159 
Q 2644 4219 2406 4219 
Q 1781 4219 1451 3797 
Q 1122 3375 1075 2522 
Q 1259 2794 1537 2939 
Q 1816 3084 2150 3084 
Q 2853 3084 3261 2657 
Q 3669 2231 3669 1497 
Q 3669 778 3244 343 
Q 2819 -91 2113 -91 
Q 1303 -91 875 529 
Q 447 1150 447 2328 
Q 447 3434 972 4092 
Q 1497 4750 2381 4750 
Q 2619 4750 2861 4703 
Q 3103 4656 3366 4563 
z
" transform="scale(0.015625)"/>
       </defs>
       <use xlink:href="#DejaVuSans-31"/>
       <use xlink:href="#DejaVuSans-33" x="63.623047"/>
       <use xlink:href="#DejaVuSans-2c" x="127.246094"/>
       <use xlink:href="#DejaVuSans-20" x="159.033203"/>
       <use xlink:href="#DejaVuSans-34" x="190.820312"/>
       <use xlink:href="#DejaVuSans-31" x="254.443359"/>
       <use xlink:href="#DejaVuSans-36" x="318.066406"/>
      </g>
     </g>
    </g>
    <g id="xtick_4">
     <g id="line2d_4">
      <g>
       <use xlink:href="#m51a6c682c9" x="524.683636" y="563.904" style="stroke: #000000; stroke-width: 1.6"/>
      </g>
     </g>
     <g id="text_4">
      <!-- 19, 608 -->
      <g transform="translate(503.690824 586.962281)scale(0.11 -0.11)">
       <defs>
        <path id="DejaVuSans-39" d="M 703 97 
L 703 672 
Q 941 559 1184 500 
Q 1428 441 1663 441 
Q 2288 441 2617 861 
Q 2947 1281 2994 2138 
Q 2813 1869 2534 1725 
Q 2256 1581 1919 1581 
Q 1219 1581 811 2004 
Q 403 2428 403 3163 
Q 403 3881 828 4315 
Q 1253 4750 1959 4750 
Q 2769 4750 3195 4129 
Q 3622 3509 3622 2328 
Q 3622 1225 3098 567 
Q 2575 -91 1691 -91 
Q 1453 -91 1209 -44 
Q 966 3 703 97 
z
M 1959 2075 
Q 2384 2075 2632 2365 
Q 2881 2656 2881 3163 
Q 2881 3666 2632 3958 
Q 2384 4250 1959 4250 
Q 1534 4250 1286 3958 
Q 1038 3666 1038 3163 
Q 1038 2656 1286 2365 
Q 1534 2075 1959 2075 
z
" transform="scale(0.015625)"/>
        <path id="DejaVuSans-30" d="M 2034 4250 
Q 1547 4250 1301 3770 
Q 1056 3291 1056 2328 
Q 1056 1369 1301 889 
Q 1547 409 2034 409 
Q 2525 409 2770 889 
Q 3016 1369 3016 2328 
Q 3016 3291 2770 3770 
Q 2525 4250 2034 4250 
z
M 2034 4750 
Q 2819 4750 3233 4129 
Q 3647 3509 3647 2328 
Q 3647 1150 3233 529 
Q 2819 -91 2034 -91 
Q 1250 -91 836 529 
Q 422 1150 422 2328 
Q 422 3509 836 4129 
Q 1250 4750 2034 4750 
z
" transform="scale(0.015625)"/>
        <path id="DejaVuSans-38" d="M 2034 2216 
Q 1584 2216 1326 1975 
Q 1069 1734 1069 1313 
Q 1069 891 1326 650 
Q 1584 409 2034 409 
Q 2484 409 2743 651 
Q 3003 894 3003 1313 
Q 3003 1734 2745 1975 
Q 2488 2216 2034 2216 
z
M 1403 2484 
Q 997 2584 770 2862 
Q 544 3141 544 3541 
Q 544 4100 942 4425 
Q 1341 4750 2034 4750 
Q 2731 4750 3128 4425 
Q 3525 4100 3525 3541 
Q 3525 3141 3298 2862 
Q 3072 2584 2669 2484 
Q 3125 2378 3379 2068 
Q 3634 1759 3634 1313 
Q 3634 634 3220 271 
Q 2806 -91 2034 -91 
Q 1263 -91 848 271 
Q 434 634 434 1313 
Q 434 1759 690 2068 
Q 947 2378 1403 2484 
z
M 1172 3481 
Q 1172 3119 1398 2916 
Q 1625 2713 2034 2713 
Q 2441 2713 2670 2916 
Q 2900 3119 2900 3481 
Q 2900 3844 2670 4047 
Q 2441 4250 2034 4250 
Q 1625 4250 1398 4047 
Q 1172 3844 1172 3481 
z
" transform="scale(0.015625)"/>
       </defs>
       <use xlink:href="#DejaVuSans-31"/>
       <use xlink:href="#DejaVuSans-39" x="63.623047"/>
       <use xlink:href="#DejaVuSans-2c" x="127.246094"/>
       <use xlink:href="#DejaVuSans-20" x="159.033203"/>
       <use xlink:href="#DejaVuSans-36" x="190.820312"/>
       <use xlink:href="#DejaVuSans-30" x="254.443359"/>
       <use xlink:href="#DejaVuSans-38" x="318.066406"/>
      </g>
     </g>
    </g>
    <g id="xtick_5">
     <g id="line2d_5">
      <g>
       <use xlink:href="#m51a6c682c9" x="650.356364" y="563.904" style="stroke: #000000; stroke-width: 1.6"/>
      </g>
     </g>
     <g id="text_5">
      <!-- 25, 800 -->
      <g transform="translate(629.363551 586.962281)scale(0.11 -0.11)">
       <defs>
        <path id="DejaVuSans-35" d="M 691 4666 
L 3169 4666 
L 3169 4134 
L 1269 4134 
L 1269 2991 
Q 1406 3038 1543 3061 
Q 1681 3084 1819 3084 
Q 2600 3084 3056 2656 
Q 3513 2228 3513 1497 
Q 3513 744 3044 326 
Q 2575 -91 1722 -91 
Q 1428 -91 1123 -41 
Q 819 9 494 109 
L 494 744 
Q 775 591 1075 516 
Q 1375 441 1709 441 
Q 2250 441 2565 725 
Q 2881 1009 2881 1497 
Q 2881 1984 2565 2268 
Q 2250 2553 1709 2553 
Q 1456 2553 1204 2497 
Q 953 2441 691 2322 
L 691 4666 
z
" transform="scale(0.015625)"/>
       </defs>
       <use xlink:href="#DejaVuSans-32"/>
       <use xlink:href="#DejaVuSans-35" x="63.623047"/>
       <use xlink:href="#DejaVuSans-2c" x="127.246094"/>
       <use xlink:href="#DejaVuSans-20" x="159.033203"/>
       <use xlink:href="#DejaVuSans-38" x="190.820312"/>
       <use xlink:href="#DejaVuSans-30" x="254.443359"/>
       <use xlink:href="#DejaVuSans-30" x="318.066406"/>
      </g>
     </g>
    </g>
    <g id="xtick_6">
     <g id="line2d_6">
      <g>
       <use xlink:href="#m51a6c682c9" x="776.029091" y="563.904" style="stroke: #000000; stroke-width: 1.6"/>
      </g>
     </g>
     <g id="text_6">
      <!-- 31, 992 -->
      <g transform="translate(755.036278 586.962281)scale(0.11 -0.11)">
       <use xlink:href="#DejaVuSans-33"/>
       <use xlink:href="#DejaVuSans-31" x="63.623047"/>
       <use xlink:href="#DejaVuSans-2c" x="127.246094"/>
       <use xlink:href="#DejaVuSans-20" x="159.033203"/>
       <use xlink:href="#DejaVuSans-39" x="190.820312"/>
       <use xlink:href="#DejaVuSans-39" x="254.443359"/>
       <use xlink:href="#DejaVuSans-32" x="318.066406"/>
      </g>
     </g>
    </g>
    <g id="text_7">
     <!-- Bin number, maximum program size -->
     <g transform="translate(343.975 603.88775)scale(0.14 -0.14)">
      <defs>
       <path id="DejaVuSans-42" d="M 1259 2228 
L 1259 519 
L 2272 519 
Q 2781 519 3026 730 
Q 3272 941 3272 1375 
Q 3272 1813 3026 2020 
Q 2781 2228 2272 2228 
L 1259 2228 
z
M 1259 4147 
L 1259 2741 
L 2194 2741 
Q 2656 2741 2882 2914 
Q 3109 3088 3109 3444 
Q 3109 3797 2882 3972 
Q 2656 4147 2194 4147 
L 1259 4147 
z
M 628 4666 
L 2241 4666 
Q 2963 4666 3353 4366 
Q 3744 4066 3744 3513 
Q 3744 3084 3544 2831 
Q 3344 2578 2956 2516 
Q 3422 2416 3680 2098 
Q 3938 1781 3938 1306 
Q 3938 681 3513 340 
Q 3088 0 2303 0 
L 628 0 
L 628 4666 
z
" transform="scale(0.015625)"/>
       <path id="DejaVuSans-69" d="M 603 3500 
L 1178 3500 
L 1178 0 
L 603 0 
L 603 3500 
z
M 603 4863 
L 1178 4863 
L 1178 4134 
L 603 4134 
L 603 4863 
z
" transform="scale(0.015625)"/>
       <path id="DejaVuSans-6e" d="M 3513 2113 
L 3513 0 
L 2938 0 
L 2938 2094 
Q 2938 2591 2744 2837 
Q 2550 3084 2163 3084 
Q 1697 3084 1428 2787 
Q 1159 2491 1159 1978 
L 1159 0 
L 581 0 
L 581 3500 
L 1159 3500 
L 1159 2956 
Q 1366 3272 1645 3428 
Q 1925 3584 2291 3584 
Q 2894 3584 3203 3211 
Q 3513 2838 3513 2113 
z
" transform="scale(0.015625)"/>
       <path id="DejaVuSans-75" d="M 544 1381 
L 544 3500 
L 1119 3500 
L 1119 1403 
Q 1119 906 1312 657 
Q 1506 409 1894 409 
Q 2359 409 2629 706 
Q 2900 1003 2900 1516 
L 2900 3500 
L 3475 3500 
L 3475 0 
L 2900 0 
L 2900 538 
Q 2691 219 2414 64 
Q 2138 -91 1772 -91 
Q 1169 -91 856 284 
Q 544 659 544 1381 
z
M 1991 3584 
L 1991 3584 
z
" transform="scale(0.015625)"/>
       <path id="DejaVuSans-6d" d="M 3328 2828 
Q 3544 3216 3844 3400 
Q 4144 3584 4550 3584 
Q 5097 3584 5394 3201 
Q 5691 2819 5691 2113 
L 5691 0 
L 5113 0 
L 5113 2094 
Q 5113 2597 4934 2840 
Q 4756 3084 4391 3084 
Q 3944 3084 3684 2787 
Q 3425 2491 3425 1978 
L 3425 0 
L 2847 0 
L 2847 2094 
Q 2847 2600 2669 2842 
Q 2491 3084 2119 3084 
Q 1678 3084 1418 2786 
Q 1159 2488 1159 1978 
L 1159 0 
L 581 0 
L 581 3500 
L 1159 3500 
L 1159 2956 
Q 1356 3278 1631 3431 
Q 1906 3584 2284 3584 
Q 2666 3584 2933 3390 
Q 3200 3197 3328 2828 
z
" transform="scale(0.015625)"/>
       <path id="DejaVuSans-62" d="M 3116 1747 
Q 3116 2381 2855 2742 
Q 2594 3103 2138 3103 
Q 1681 3103 1420 2742 
Q 1159 2381 1159 1747 
Q 1159 1113 1420 752 
Q 1681 391 2138 391 
Q 2594 391 2855 752 
Q 3116 1113 3116 1747 
z
M 1159 2969 
Q 1341 3281 1617 3432 
Q 1894 3584 2278 3584 
Q 2916 3584 3314 3078 
Q 3713 2572 3713 1747 
Q 3713 922 3314 415 
Q 2916 -91 2278 -91 
Q 1894 -91 1617 61 
Q 1341 213 1159 525 
L 1159 0 
L 581 0 
L 581 4863 
L 1159 4863 
L 1159 2969 
z
" transform="scale(0.015625)"/>
       <path id="DejaVuSans-65" d="M 3597 1894 
L 3597 1613 
L 953 1613 
Q 991 1019 1311 708 
Q 1631 397 2203 397 
Q 2534 397 2845 478 
Q 3156 559 3463 722 
L 3463 178 
Q 3153 47 2828 -22 
Q 2503 -91 2169 -91 
Q 1331 -91 842 396 
Q 353 884 353 1716 
Q 353 2575 817 3079 
Q 1281 3584 2069 3584 
Q 2775 3584 3186 3129 
Q 3597 2675 3597 1894 
z
M 3022 2063 
Q 3016 2534 2758 2815 
Q 2500 3097 2075 3097 
Q 1594 3097 1305 2825 
Q 1016 2553 972 2059 
L 3022 2063 
z
" transform="scale(0.015625)"/>
       <path id="DejaVuSans-72" d="M 2631 2963 
Q 2534 3019 2420 3045 
Q 2306 3072 2169 3072 
Q 1681 3072 1420 2755 
Q 1159 2438 1159 1844 
L 1159 0 
L 581 0 
L 581 3500 
L 1159 3500 
L 1159 2956 
Q 1341 3275 1631 3429 
Q 1922 3584 2338 3584 
Q 2397 3584 2469 3576 
Q 2541 3569 2628 3553 
L 2631 2963 
z
" transform="scale(0.015625)"/>
       <path id="DejaVuSans-61" d="M 2194 1759 
Q 1497 1759 1228 1600 
Q 959 1441 959 1056 
Q 959 750 1161 570 
Q 1363 391 1709 391 
Q 2188 391 2477 730 
Q 2766 1069 2766 1631 
L 2766 1759 
L 2194 1759 
z
M 3341 1997 
L 3341 0 
L 2766 0 
L 2766 531 
Q 2569 213 2275 61 
Q 1981 -91 1556 -91 
Q 1019 -91 701 211 
Q 384 513 384 1019 
Q 384 1609 779 1909 
Q 1175 2209 1959 2209 
L 2766 2209 
L 2766 2266 
Q 2766 2663 2505 2880 
Q 2244 3097 1772 3097 
Q 1472 3097 1187 3025 
Q 903 2953 641 2809 
L 641 3341 
Q 956 3463 1253 3523 
Q 1550 3584 1831 3584 
Q 2591 3584 2966 3190 
Q 3341 2797 3341 1997 
z
" transform="scale(0.015625)"/>
       <path id="DejaVuSans-78" d="M 3513 3500 
L 2247 1797 
L 3578 0 
L 2900 0 
L 1881 1375 
L 863 0 
L 184 0 
L 1544 1831 
L 300 3500 
L 978 3500 
L 1906 2253 
L 2834 3500 
L 3513 3500 
z
" transform="scale(0.015625)"/>
       <path id="DejaVuSans-70" d="M 1159 525 
L 1159 -1331 
L 581 -1331 
L 581 3500 
L 1159 3500 
L 1159 2969 
Q 1341 3281 1617 3432 
Q 1894 3584 2278 3584 
Q 2916 3584 3314 3078 
Q 3713 2572 3713 1747 
Q 3713 922 3314 415 
Q 2916 -91 2278 -91 
Q 1894 -91 1617 61 
Q 1341 213 1159 525 
z
M 3116 1747 
Q 3116 2381 2855 2742 
Q 2594 3103 2138 3103 
Q 1681 3103 1420 2742 
Q 1159 2381 1159 1747 
Q 1159 1113 1420 752 
Q 1681 391 2138 391 
Q 2594 391 2855 752 
Q 3116 1113 3116 1747 
z
" transform="scale(0.015625)"/>
       <path id="DejaVuSans-6f" d="M 1959 3097 
Q 1497 3097 1228 2736 
Q 959 2375 959 1747 
Q 959 1119 1226 758 
Q 1494 397 1959 397 
Q 2419 397 2687 759 
Q 2956 1122 2956 1747 
Q 2956 2369 2687 2733 
Q 2419 3097 1959 3097 
z
M 1959 3584 
Q 2709 3584 3137 3096 
Q 3566 2609 3566 1747 
Q 3566 888 3137 398 
Q 2709 -91 1959 -91 
Q 1206 -91 779 398 
Q 353 888 353 1747 
Q 353 2609 779 3096 
Q 1206 3584 1959 3584 
z
" transform="scale(0.015625)"/>
       <path id="DejaVuSans-67" d="M 2906 1791 
Q 2906 2416 2648 2759 
Q 2391 3103 1925 3103 
Q 1463 3103 1205 2759 
Q 947 2416 947 1791 
Q 947 1169 1205 825 
Q 1463 481 1925 481 
Q 2391 481 2648 825 
Q 2906 1169 2906 1791 
z
M 3481 434 
Q 3481 -459 3084 -895 
Q 2688 -1331 1869 -1331 
Q 1566 -1331 1297 -1286 
Q 1028 -1241 775 -1147 
L 775 -588 
Q 1028 -725 1275 -790 
Q 1522 -856 1778 -856 
Q 2344 -856 2625 -561 
Q 2906 -266 2906 331 
L 2906 616 
Q 2728 306 2450 153 
Q 2172 0 1784 0 
Q 1141 0 747 490 
Q 353 981 353 1791 
Q 353 2603 747 3093 
Q 1141 3584 1784 3584 
Q 2172 3584 2450 3431 
Q 2728 3278 2906 2969 
L 2906 3500 
L 3481 3500 
L 3481 434 
z
" transform="scale(0.015625)"/>
       <path id="DejaVuSans-73" d="M 2834 3397 
L 2834 2853 
Q 2591 2978 2328 3040 
Q 2066 3103 1784 3103 
Q 1356 3103 1142 2972 
Q 928 2841 928 2578 
Q 928 2378 1081 2264 
Q 1234 2150 1697 2047 
L 1894 2003 
Q 2506 1872 2764 1633 
Q 3022 1394 3022 966 
Q 3022 478 2636 193 
Q 2250 -91 1575 -91 
Q 1294 -91 989 -36 
Q 684 19 347 128 
L 347 722 
Q 666 556 975 473 
Q 1284 391 1588 391 
Q 1994 391 2212 530 
Q 2431 669 2431 922 
Q 2431 1156 2273 1281 
Q 2116 1406 1581 1522 
L 1381 1569 
Q 847 1681 609 1914 
Q 372 2147 372 2553 
Q 372 3047 722 3315 
Q 1072 3584 1716 3584 
Q 2034 3584 2315 3537 
Q 2597 3491 2834 3397 
z
" transform="scale(0.015625)"/>
       <path id="DejaVuSans-7a" d="M 353 3500 
L 3084 3500 
L 3084 2975 
L 922 459 
L 3084 459 
L 3084 0 
L 275 0 
L 275 525 
L 2438 3041 
L 353 3041 
L 353 3500 
z
" transform="scale(0.015625)"/>
      </defs>
      <use xlink:href="#DejaVuSans-42"/>
      <use xlink:href="#DejaVuSans-69" x="68.603516"/>
      <use xlink:href="#DejaVuSans-6e" x="96.386719"/>
      <use xlink:href="#DejaVuSans-20" x="159.765625"/>
      <use xlink:href="#DejaVuSans-6e" x="191.552734"/>
      <use xlink:href="#DejaVuSans-75" x="254.931641"/>
      <use xlink:href="#DejaVuSans-6d" x="318.310547"/>
      <use xlink:href="#DejaVuSans-62" x="415.722656"/>
      <use xlink:href="#DejaVuSans-65" x="479.199219"/>
      <use xlink:href="#DejaVuSans-72" x="540.722656"/>
      <use xlink:href="#DejaVuSans-2c" x="581.835938"/>
      <use xlink:href="#DejaVuSans-20" x="613.623047"/>
      <use xlink:href="#DejaVuSans-6d" x="645.410156"/>
      <use xlink:href="#DejaVuSans-61" x="742.822266"/>
      <use xlink:href="#DejaVuSans-78" x="804.101562"/>
      <use xlink:href="#DejaVuSans-69" x="863.28125"/>
      <use xlink:href="#DejaVuSans-6d" x="891.064453"/>
      <use xlink:href="#DejaVuSans-75" x="988.476562"/>
      <use xlink:href="#DejaVuSans-6d" x="1051.855469"/>
      <use xlink:href="#DejaVuSans-20" x="1149.267578"/>
      <use xlink:href="#DejaVuSans-70" x="1181.054688"/>
      <use xlink:href="#DejaVuSans-72" x="1244.53125"/>
      <use xlink:href="#DejaVuSans-6f" x="1283.394531"/>
      <use xlink:href="#DejaVuSans-67" x="1344.576172"/>
      <use xlink:href="#DejaVuSans-72" x="1408.052734"/>
      <use xlink:href="#DejaVuSans-61" x="1449.166016"/>
      <use xlink:href="#DejaVuSans-6d" x="1510.445312"/>
      <use xlink:href="#DejaVuSans-20" x="1607.857422"/>
      <use xlink:href="#DejaVuSans-73" x="1639.644531"/>
      <use xlink:href="#DejaVuSans-69" x="1691.744141"/>
      <use xlink:href="#DejaVuSans-7a" x="1719.527344"/>
      <use xlink:href="#DejaVuSans-65" x="1772.017578"/>
     </g>
    </g>
   </g>
   <g id="matplotlib.axis_2">
    <g id="ytick_1">
     <g id="line2d_7">
      <defs>
       <path id="ma694937e2d" d="M 0 0 
L -3.5 0 
" style="stroke: #000000; stroke-width: 1.6"/>
      </defs>
      <g>
       <use xlink:href="#ma694937e2d" x="115.2" y="540.591115" style="stroke: #000000; stroke-width: 1.6"/>
      </g>
     </g>
     <g id="text_8">
      <!-- $\mathdefault{10^{7}}$ -->
      <g transform="translate(81.14 544.770255)scale(0.11 -0.11)">
       <use xlink:href="#DejaVuSans-31" transform="translate(0 0.684375)"/>
       <use xlink:href="#DejaVuSans-30" transform="translate(63.623047 0.684375)"/>
       <use xlink:href="#DejaVuSans-37" transform="translate(128.203125 38.965625)scale(0.7)"/>
      </g>
     </g>
    </g>
    <g id="ytick_2">
     <g id="line2d_8">
      <g>
       <use xlink:href="#ma694937e2d" x="115.2" y="437.126313" style="stroke: #000000; stroke-width: 1.6"/>
      </g>
     </g>
     <g id="text_9">
      <!-- $\mathdefault{10^{8}}$ -->
      <g transform="translate(81.14 441.305453)scale(0.11 -0.11)">
       <use xlink:href="#DejaVuSans-31" transform="translate(0 0.765625)"/>
       <use xlink:href="#DejaVuSans-30" transform="translate(63.623047 0.765625)"/>
       <use xlink:href="#DejaVuSans-38" transform="translate(128.203125 39.046875)scale(0.7)"/>
      </g>
     </g>
    </g>
    <g id="ytick_3">
     <g id="line2d_9">
      <g>
       <use xlink:href="#ma694937e2d" x="115.2" y="333.66151" style="stroke: #000000; stroke-width: 1.6"/>
      </g>
     </g>
     <g id="text_10">
      <!-- $\mathdefault{10^{9}}$ -->
      <g transform="translate(81.14 337.840651)scale(0.11 -0.11)">
       <use xlink:href="#DejaVuSans-31" transform="translate(0 0.765625)"/>
       <use xlink:href="#DejaVuSans-30" transform="translate(63.623047 0.765625)"/>
       <use xlink:href="#DejaVuSans-39" transform="translate(128.203125 39.046875)scale(0.7)"/>
      </g>
     </g>
    </g>
    <g id="ytick_4">
     <g id="line2d_10">
      <g>
       <use xlink:href="#ma694937e2d" x="115.2" y="230.196708" style="stroke: #000000; stroke-width: 1.6"/>
      </g>
     </g>
     <g id="text_11">
      <!-- $\mathdefault{10^{10}}$ -->
      <g transform="translate(76.19 234.375849)scale(0.11 -0.11)">
       <use xlink:href="#DejaVuSans-31" transform="translate(0 0.765625)"/>
       <use xlink:href="#DejaVuSans-30" transform="translate(63.623047 0.765625)"/>
       <use xlink:href="#DejaVuSans-31" transform="translate(128.203125 39.046875)scale(0.7)"/>
       <use xlink:href="#DejaVuSans-30" transform="translate(172.739258 39.046875)scale(0.7)"/>
      </g>
     </g>
    </g>
    <g id="ytick_5">
     <g id="line2d_11">
      <g>
       <use xlink:href="#ma694937e2d" x="115.2" y="126.731906" style="stroke: #000000; stroke-width: 1.6"/>
      </g>
     </g>
     <g id="text_12">
      <!-- $\mathdefault{10^{11}}$ -->
      <g transform="translate(76.19 130.911046)scale(0.11 -0.11)">
       <use xlink:href="#DejaVuSans-31" transform="translate(0 0.684375)"/>
       <use xlink:href="#DejaVuSans-30" transform="translate(63.623047 0.684375)"/>
       <use xlink:href="#DejaVuSans-31" transform="translate(128.203125 38.965625)scale(0.7)"/>
       <use xlink:href="#DejaVuSans-31" transform="translate(172.739258 38.965625)scale(0.7)"/>
      </g>
     </g>
    </g>
    <g id="ytick_6">
     <g id="line2d_12">
      <defs>
       <path id="m7e32c011e8" d="M 0 0 
L -2 0 
" style="stroke: #000000; stroke-width: 0.8"/>
      </defs>
      <g>
       <use xlink:href="#m7e32c011e8" x="115.2" y="563.544652" style="stroke: #000000; stroke-width: 0.8"/>
      </g>
     </g>
    </g>
    <g id="ytick_7">
     <g id="line2d_13">
      <g>
       <use xlink:href="#m7e32c011e8" x="115.2" y="556.618015" style="stroke: #000000; stroke-width: 0.8"/>
      </g>
     </g>
    </g>
    <g id="ytick_8">
     <g id="line2d_14">
      <g>
       <use xlink:href="#m7e32c011e8" x="115.2" y="550.61789" style="stroke: #000000; stroke-width: 0.8"/>
      </g>
     </g>
    </g>
    <g id="ytick_9">
     <g id="line2d_15">
      <g>
       <use xlink:href="#m7e32c011e8" x="115.2" y="545.325405" style="stroke: #000000; stroke-width: 0.8"/>
      </g>
     </g>
    </g>
    <g id="ytick_10">
     <g id="line2d_16">
      <g>
       <use xlink:href="#m7e32c011e8" x="115.2" y="509.445106" style="stroke: #000000; stroke-width: 0.8"/>
      </g>
     </g>
    </g>
    <g id="ytick_11">
     <g id="line2d_17">
      <g>
       <use xlink:href="#m7e32c011e8" x="115.2" y="491.225859" style="stroke: #000000; stroke-width: 0.8"/>
      </g>
     </g>
    </g>
    <g id="ytick_12">
     <g id="line2d_18">
      <g>
       <use xlink:href="#m7e32c011e8" x="115.2" y="478.299097" style="stroke: #000000; stroke-width: 0.8"/>
      </g>
     </g>
    </g>
    <g id="ytick_13">
     <g id="line2d_19">
      <g>
       <use xlink:href="#m7e32c011e8" x="115.2" y="468.272322" style="stroke: #000000; stroke-width: 0.8"/>
      </g>
     </g>
    </g>
    <g id="ytick_14">
     <g id="line2d_20">
      <g>
       <use xlink:href="#m7e32c011e8" x="115.2" y="460.07985" style="stroke: #000000; stroke-width: 0.8"/>
      </g>
     </g>
    </g>
    <g id="ytick_15">
     <g id="line2d_21">
      <g>
       <use xlink:href="#m7e32c011e8" x="115.2" y="453.153213" style="stroke: #000000; stroke-width: 0.8"/>
      </g>
     </g>
    </g>
    <g id="ytick_16">
     <g id="line2d_22">
      <g>
       <use xlink:href="#m7e32c011e8" x="115.2" y="447.153088" style="stroke: #000000; stroke-width: 0.8"/>
      </g>
     </g>
    </g>
    <g id="ytick_17">
     <g id="line2d_23">
      <g>
       <use xlink:href="#m7e32c011e8" x="115.2" y="441.860602" style="stroke: #000000; stroke-width: 0.8"/>
      </g>
     </g>
    </g>
    <g id="ytick_18">
     <g id="line2d_24">
      <g>
       <use xlink:href="#m7e32c011e8" x="115.2" y="405.980304" style="stroke: #000000; stroke-width: 0.8"/>
      </g>
     </g>
    </g>
    <g id="ytick_19">
     <g id="line2d_25">
      <g>
       <use xlink:href="#m7e32c011e8" x="115.2" y="387.761056" style="stroke: #000000; stroke-width: 0.8"/>
      </g>
     </g>
    </g>
    <g id="ytick_20">
     <g id="line2d_26">
      <g>
       <use xlink:href="#m7e32c011e8" x="115.2" y="374.834295" style="stroke: #000000; stroke-width: 0.8"/>
      </g>
     </g>
    </g>
    <g id="ytick_21">
     <g id="line2d_27">
      <g>
       <use xlink:href="#m7e32c011e8" x="115.2" y="364.807519" style="stroke: #000000; stroke-width: 0.8"/>
      </g>
     </g>
    </g>
    <g id="ytick_22">
     <g id="line2d_28">
      <g>
       <use xlink:href="#m7e32c011e8" x="115.2" y="356.615047" style="stroke: #000000; stroke-width: 0.8"/>
      </g>
     </g>
    </g>
    <g id="ytick_23">
     <g id="line2d_29">
      <g>
       <use xlink:href="#m7e32c011e8" x="115.2" y="349.688411" style="stroke: #000000; stroke-width: 0.8"/>
      </g>
     </g>
    </g>
    <g id="ytick_24">
     <g id="line2d_30">
      <g>
       <use xlink:href="#m7e32c011e8" x="115.2" y="343.688286" style="stroke: #000000; stroke-width: 0.8"/>
      </g>
     </g>
    </g>
    <g id="ytick_25">
     <g id="line2d_31">
      <g>
       <use xlink:href="#m7e32c011e8" x="115.2" y="338.3958" style="stroke: #000000; stroke-width: 0.8"/>
      </g>
     </g>
    </g>
    <g id="ytick_26">
     <g id="line2d_32">
      <g>
       <use xlink:href="#m7e32c011e8" x="115.2" y="302.515501" style="stroke: #000000; stroke-width: 0.8"/>
      </g>
     </g>
    </g>
    <g id="ytick_27">
     <g id="line2d_33">
      <g>
       <use xlink:href="#m7e32c011e8" x="115.2" y="284.296254" style="stroke: #000000; stroke-width: 0.8"/>
      </g>
     </g>
    </g>
    <g id="ytick_28">
     <g id="line2d_34">
      <g>
       <use xlink:href="#m7e32c011e8" x="115.2" y="271.369492" style="stroke: #000000; stroke-width: 0.8"/>
      </g>
     </g>
    </g>
    <g id="ytick_29">
     <g id="line2d_35">
      <g>
       <use xlink:href="#m7e32c011e8" x="115.2" y="261.342717" style="stroke: #000000; stroke-width: 0.8"/>
      </g>
     </g>
    </g>
    <g id="ytick_30">
     <g id="line2d_36">
      <g>
       <use xlink:href="#m7e32c011e8" x="115.2" y="253.150245" style="stroke: #000000; stroke-width: 0.8"/>
      </g>
     </g>
    </g>
    <g id="ytick_31">
     <g id="line2d_37">
      <g>
       <use xlink:href="#m7e32c011e8" x="115.2" y="246.223609" style="stroke: #000000; stroke-width: 0.8"/>
      </g>
     </g>
    </g>
    <g id="ytick_32">
     <g id="line2d_38">
      <g>
       <use xlink:href="#m7e32c011e8" x="115.2" y="240.223483" style="stroke: #000000; stroke-width: 0.8"/>
      </g>
     </g>
    </g>
    <g id="ytick_33">
     <g id="line2d_39">
      <g>
       <use xlink:href="#m7e32c011e8" x="115.2" y="234.930998" style="stroke: #000000; stroke-width: 0.8"/>
      </g>
     </g>
    </g>
    <g id="ytick_34">
     <g id="line2d_40">
      <g>
       <use xlink:href="#m7e32c011e8" x="115.2" y="199.050699" style="stroke: #000000; stroke-width: 0.8"/>
      </g>
     </g>
    </g>
    <g id="ytick_35">
     <g id="line2d_41">
      <g>
       <use xlink:href="#m7e32c011e8" x="115.2" y="180.831452" style="stroke: #000000; stroke-width: 0.8"/>
      </g>
     </g>
    </g>
    <g id="ytick_36">
     <g id="line2d_42">
      <g>
       <use xlink:href="#m7e32c011e8" x="115.2" y="167.90469" style="stroke: #000000; stroke-width: 0.8"/>
      </g>
     </g>
    </g>
    <g id="ytick_37">
     <g id="line2d_43">
      <g>
       <use xlink:href="#m7e32c011e8" x="115.2" y="157.877915" style="stroke: #000000; stroke-width: 0.8"/>
      </g>
     </g>
    </g>
    <g id="ytick_38">
     <g id="line2d_44">
      <g>
       <use xlink:href="#m7e32c011e8" x="115.2" y="149.685443" style="stroke: #000000; stroke-width: 0.8"/>
      </g>
     </g>
    </g>
    <g id="ytick_39">
     <g id="line2d_45">
      <g>
       <use xlink:href="#m7e32c011e8" x="115.2" y="142.758806" style="stroke: #000000; stroke-width: 0.8"/>
      </g>
     </g>
    </g>
    <g id="ytick_40">
     <g id="line2d_46">
      <g>
       <use xlink:href="#m7e32c011e8" x="115.2" y="136.758681" style="stroke: #000000; stroke-width: 0.8"/>
      </g>
     </g>
    </g>
    <g id="ytick_41">
     <g id="line2d_47">
      <g>
       <use xlink:href="#m7e32c011e8" x="115.2" y="131.466196" style="stroke: #000000; stroke-width: 0.8"/>
      </g>
     </g>
    </g>
    <g id="ytick_42">
     <g id="line2d_48">
      <g>
       <use xlink:href="#m7e32c011e8" x="115.2" y="95.585897" style="stroke: #000000; stroke-width: 0.8"/>
      </g>
     </g>
    </g>
    <g id="ytick_43">
     <g id="line2d_49">
      <g>
       <use xlink:href="#m7e32c011e8" x="115.2" y="77.36665" style="stroke: #000000; stroke-width: 0.8"/>
      </g>
     </g>
    </g>
    <g id="text_13">
     <!-- Node evaluations per second (NEPS) -->
     <g transform="translate(69.278437 447.984875)rotate(-90)scale(0.14 -0.14)">
      <defs>
       <path id="DejaVuSans-4e" d="M 628 4666 
L 1478 4666 
L 3547 763 
L 3547 4666 
L 4159 4666 
L 4159 0 
L 3309 0 
L 1241 3903 
L 1241 0 
L 628 0 
L 628 4666 
z
" transform="scale(0.015625)"/>
       <path id="DejaVuSans-64" d="M 2906 2969 
L 2906 4863 
L 3481 4863 
L 3481 0 
L 2906 0 
L 2906 525 
Q 2725 213 2448 61 
Q 2172 -91 1784 -91 
Q 1150 -91 751 415 
Q 353 922 353 1747 
Q 353 2572 751 3078 
Q 1150 3584 1784 3584 
Q 2172 3584 2448 3432 
Q 2725 3281 2906 2969 
z
M 947 1747 
Q 947 1113 1208 752 
Q 1469 391 1925 391 
Q 2381 391 2643 752 
Q 2906 1113 2906 1747 
Q 2906 2381 2643 2742 
Q 2381 3103 1925 3103 
Q 1469 3103 1208 2742 
Q 947 2381 947 1747 
z
" transform="scale(0.015625)"/>
       <path id="DejaVuSans-76" d="M 191 3500 
L 800 3500 
L 1894 563 
L 2988 3500 
L 3597 3500 
L 2284 0 
L 1503 0 
L 191 3500 
z
" transform="scale(0.015625)"/>
       <path id="DejaVuSans-6c" d="M 603 4863 
L 1178 4863 
L 1178 0 
L 603 0 
L 603 4863 
z
" transform="scale(0.015625)"/>
       <path id="DejaVuSans-74" d="M 1172 4494 
L 1172 3500 
L 2356 3500 
L 2356 3053 
L 1172 3053 
L 1172 1153 
Q 1172 725 1289 603 
Q 1406 481 1766 481 
L 2356 481 
L 2356 0 
L 1766 0 
Q 1100 0 847 248 
Q 594 497 594 1153 
L 594 3053 
L 172 3053 
L 172 3500 
L 594 3500 
L 594 4494 
L 1172 4494 
z
" transform="scale(0.015625)"/>
       <path id="DejaVuSans-63" d="M 3122 3366 
L 3122 2828 
Q 2878 2963 2633 3030 
Q 2388 3097 2138 3097 
Q 1578 3097 1268 2742 
Q 959 2388 959 1747 
Q 959 1106 1268 751 
Q 1578 397 2138 397 
Q 2388 397 2633 464 
Q 2878 531 3122 666 
L 3122 134 
Q 2881 22 2623 -34 
Q 2366 -91 2075 -91 
Q 1284 -91 818 406 
Q 353 903 353 1747 
Q 353 2603 823 3093 
Q 1294 3584 2113 3584 
Q 2378 3584 2631 3529 
Q 2884 3475 3122 3366 
z
" transform="scale(0.015625)"/>
       <path id="DejaVuSans-28" d="M 1984 4856 
Q 1566 4138 1362 3434 
Q 1159 2731 1159 2009 
Q 1159 1288 1364 580 
Q 1569 -128 1984 -844 
L 1484 -844 
Q 1016 -109 783 600 
Q 550 1309 550 2009 
Q 550 2706 781 3412 
Q 1013 4119 1484 4856 
L 1984 4856 
z
" transform="scale(0.015625)"/>
       <path id="DejaVuSans-45" d="M 628 4666 
L 3578 4666 
L 3578 4134 
L 1259 4134 
L 1259 2753 
L 3481 2753 
L 3481 2222 
L 1259 2222 
L 1259 531 
L 3634 531 
L 3634 0 
L 628 0 
L 628 4666 
z
" transform="scale(0.015625)"/>
       <path id="DejaVuSans-50" d="M 1259 4147 
L 1259 2394 
L 2053 2394 
Q 2494 2394 2734 2622 
Q 2975 2850 2975 3272 
Q 2975 3691 2734 3919 
Q 2494 4147 2053 4147 
L 1259 4147 
z
M 628 4666 
L 2053 4666 
Q 2838 4666 3239 4311 
Q 3641 3956 3641 3272 
Q 3641 2581 3239 2228 
Q 2838 1875 2053 1875 
L 1259 1875 
L 1259 0 
L 628 0 
L 628 4666 
z
" transform="scale(0.015625)"/>
       <path id="DejaVuSans-53" d="M 3425 4513 
L 3425 3897 
Q 3066 4069 2747 4153 
Q 2428 4238 2131 4238 
Q 1616 4238 1336 4038 
Q 1056 3838 1056 3469 
Q 1056 3159 1242 3001 
Q 1428 2844 1947 2747 
L 2328 2669 
Q 3034 2534 3370 2195 
Q 3706 1856 3706 1288 
Q 3706 609 3251 259 
Q 2797 -91 1919 -91 
Q 1588 -91 1214 -16 
Q 841 59 441 206 
L 441 856 
Q 825 641 1194 531 
Q 1563 422 1919 422 
Q 2459 422 2753 634 
Q 3047 847 3047 1241 
Q 3047 1584 2836 1778 
Q 2625 1972 2144 2069 
L 1759 2144 
Q 1053 2284 737 2584 
Q 422 2884 422 3419 
Q 422 4038 858 4394 
Q 1294 4750 2059 4750 
Q 2388 4750 2728 4690 
Q 3069 4631 3425 4513 
z
" transform="scale(0.015625)"/>
       <path id="DejaVuSans-29" d="M 513 4856 
L 1013 4856 
Q 1481 4119 1714 3412 
Q 1947 2706 1947 2009 
Q 1947 1309 1714 600 
Q 1481 -109 1013 -844 
L 513 -844 
Q 928 -128 1133 580 
Q 1338 1288 1338 2009 
Q 1338 2731 1133 3434 
Q 928 4138 513 4856 
z
" transform="scale(0.015625)"/>
      </defs>
      <use xlink:href="#DejaVuSans-4e"/>
      <use xlink:href="#DejaVuSans-6f" x="74.804688"/>
      <use xlink:href="#DejaVuSans-64" x="135.986328"/>
      <use xlink:href="#DejaVuSans-65" x="199.462891"/>
      <use xlink:href="#DejaVuSans-20" x="260.986328"/>
      <use xlink:href="#DejaVuSans-65" x="292.773438"/>
      <use xlink:href="#DejaVuSans-76" x="354.296875"/>
      <use xlink:href="#DejaVuSans-61" x="413.476562"/>
      <use xlink:href="#DejaVuSans-6c" x="474.755859"/>
      <use xlink:href="#DejaVuSans-75" x="502.539062"/>
      <use xlink:href="#DejaVuSans-61" x="565.917969"/>
      <use xlink:href="#DejaVuSans-74" x="627.197266"/>
      <use xlink:href="#DejaVuSans-69" x="666.40625"/>
      <use xlink:href="#DejaVuSans-6f" x="694.189453"/>
      <use xlink:href="#DejaVuSans-6e" x="755.371094"/>
      <use xlink:href="#DejaVuSans-73" x="818.75"/>
      <use xlink:href="#DejaVuSans-20" x="870.849609"/>
      <use xlink:href="#DejaVuSans-70" x="902.636719"/>
      <use xlink:href="#DejaVuSans-65" x="966.113281"/>
      <use xlink:href="#DejaVuSans-72" x="1027.636719"/>
      <use xlink:href="#DejaVuSans-20" x="1068.75"/>
      <use xlink:href="#DejaVuSans-73" x="1100.537109"/>
      <use xlink:href="#DejaVuSans-65" x="1152.636719"/>
      <use xlink:href="#DejaVuSans-63" x="1214.160156"/>
      <use xlink:href="#DejaVuSans-6f" x="1269.140625"/>
      <use xlink:href="#DejaVuSans-6e" x="1330.322266"/>
      <use xlink:href="#DejaVuSans-64" x="1393.701172"/>
      <use xlink:href="#DejaVuSans-20" x="1457.177734"/>
      <use xlink:href="#DejaVuSans-28" x="1488.964844"/>
      <use xlink:href="#DejaVuSans-4e" x="1527.978516"/>
      <use xlink:href="#DejaVuSans-45" x="1602.783203"/>
      <use xlink:href="#DejaVuSans-50" x="1665.966797"/>
      <use xlink:href="#DejaVuSans-53" x="1726.269531"/>
      <use xlink:href="#DejaVuSans-29" x="1789.746094"/>
     </g>
    </g>
   </g>
   <g id="line2d_50">
    <path d="M 147.665455 529.437837 
L 168.610909 491.68634 
L 189.556364 484.130931 
L 210.501818 475.455856 
L 231.447273 470.731325 
L 252.392727 467.419995 
L 273.338182 467.579224 
L 294.283636 461.678118 
L 315.229091 463.080041 
L 336.174545 459.760911 
L 357.12 460.881246 
L 378.065455 458.306434 
L 399.010909 460.121418 
L 419.956364 460.149618 
L 440.901818 457.333992 
L 461.847273 455.882757 
L 482.792727 457.438353 
L 503.738182 458.985549 
L 524.683636 458.378686 
L 545.629091 458.497225 
L 566.574545 458.046367 
L 587.52 456.83392 
L 608.465455 456.809446 
L 629.410909 456.728088 
L 650.356364 456.318308 
L 671.301818 455.61057 
L 692.247273 452.939001 
L 713.192727 457.140523 
L 734.138182 456.237052 
L 755.083636 454.98741 
L 776.029091 454.263763 
L 796.974545 454.009384 
" clip-path="url(#pef1728feb5)" style="fill: none; stroke: #000000; stroke-width: 0.1; stroke-linecap: square"/>
    <defs>
     <path id="m8d785a9297" d="M -3 6 
L 0 3 
L 3 6 
L 6 3 
L 3 0 
L 6 -3 
L 3 -6 
L 0 -3 
L -3 -6 
L -6 -3 
L -3 0 
L -6 3 
z
"/>
    </defs>
    <g clip-path="url(#pef1728feb5)">
     <use xlink:href="#m8d785a9297" x="147.665455" y="529.437837" style="fill: #17becf"/>
     <use xlink:href="#m8d785a9297" x="168.610909" y="491.68634" style="fill: #17becf"/>
     <use xlink:href="#m8d785a9297" x="189.556364" y="484.130931" style="fill: #17becf"/>
     <use xlink:href="#m8d785a9297" x="210.501818" y="475.455856" style="fill: #17becf"/>
     <use xlink:href="#m8d785a9297" x="231.447273" y="470.731325" style="fill: #17becf"/>
     <use xlink:href="#m8d785a9297" x="252.392727" y="467.419995" style="fill: #17becf"/>
     <use xlink:href="#m8d785a9297" x="273.338182" y="467.579224" style="fill: #17becf"/>
     <use xlink:href="#m8d785a9297" x="294.283636" y="461.678118" style="fill: #17becf"/>
     <use xlink:href="#m8d785a9297" x="315.229091" y="463.080041" style="fill: #17becf"/>
     <use xlink:href="#m8d785a9297" x="336.174545" y="459.760911" style="fill: #17becf"/>
     <use xlink:href="#m8d785a9297" x="357.12" y="460.881246" style="fill: #17becf"/>
     <use xlink:href="#m8d785a9297" x="378.065455" y="458.306434" style="fill: #17becf"/>
     <use xlink:href="#m8d785a9297" x="399.010909" y="460.121418" style="fill: #17becf"/>
     <use xlink:href="#m8d785a9297" x="419.956364" y="460.149618" style="fill: #17becf"/>
     <use xlink:href="#m8d785a9297" x="440.901818" y="457.333992" style="fill: #17becf"/>
     <use xlink:href="#m8d785a9297" x="461.847273" y="455.882757" style="fill: #17becf"/>
     <use xlink:href="#m8d785a9297" x="482.792727" y="457.438353" style="fill: #17becf"/>
     <use xlink:href="#m8d785a9297" x="503.738182" y="458.985549" style="fill: #17becf"/>
     <use xlink:href="#m8d785a9297" x="524.683636" y="458.378686" style="fill: #17becf"/>
     <use xlink:href="#m8d785a9297" x="545.629091" y="458.497225" style="fill: #17becf"/>
     <use xlink:href="#m8d785a9297" x="566.574545" y="458.046367" style="fill: #17becf"/>
     <use xlink:href="#m8d785a9297" x="587.52" y="456.83392" style="fill: #17becf"/>
     <use xlink:href="#m8d785a9297" x="608.465455" y="456.809446" style="fill: #17becf"/>
     <use xlink:href="#m8d785a9297" x="629.410909" y="456.728088" style="fill: #17becf"/>
     <use xlink:href="#m8d785a9297" x="650.356364" y="456.318308" style="fill: #17becf"/>
     <use xlink:href="#m8d785a9297" x="671.301818" y="455.61057" style="fill: #17becf"/>
     <use xlink:href="#m8d785a9297" x="692.247273" y="452.939001" style="fill: #17becf"/>
     <use xlink:href="#m8d785a9297" x="713.192727" y="457.140523" style="fill: #17becf"/>
     <use xlink:href="#m8d785a9297" x="734.138182" y="456.237052" style="fill: #17becf"/>
     <use xlink:href="#m8d785a9297" x="755.083636" y="454.98741" style="fill: #17becf"/>
     <use xlink:href="#m8d785a9297" x="776.029091" y="454.263763" style="fill: #17becf"/>
     <use xlink:href="#m8d785a9297" x="796.974545" y="454.009384" style="fill: #17becf"/>
    </g>
   </g>
   <g id="line2d_51">
    <path d="M 115.2 333.66151 
L 829.44 333.66151 
" clip-path="url(#pef1728feb5)" style="fill: none; stroke-dasharray: 10.36,4.48; stroke-dashoffset: 0; stroke: #808080; stroke-width: 2.8"/>
   </g>
   <g id="line2d_52">
    <path d="M 147.665455 529.938012 
L 168.610909 506.39353 
L 189.556364 500.862951 
L 210.501818 498.151108 
L 231.447273 496.345801 
L 252.392727 495.112379 
L 273.338182 494.65089 
L 294.283636 494.094274 
L 315.229091 494.265091 
L 336.174545 493.243962 
L 357.12 493.273135 
L 378.065455 492.7022 
L 399.010909 492.847077 
L 419.956364 492.808941 
L 440.901818 492.093681 
L 461.847273 492.01126 
L 482.792727 492.302907 
L 503.738182 492.082609 
L 524.683636 491.855836 
L 545.629091 492.081729 
L 566.574545 491.517117 
L 587.52 491.729053 
L 608.465455 492.028742 
L 629.410909 492.091718 
L 650.356364 491.708485 
L 671.301818 491.836627 
L 692.247273 491.883816 
L 713.192727 491.851287 
L 734.138182 492.062707 
L 755.083636 491.633764 
L 776.029091 491.485125 
L 796.974545 491.352789 
" clip-path="url(#pef1728feb5)" style="fill: none; stroke: #000000; stroke-width: 0.1; stroke-linecap: square"/>
    <defs>
     <path id="m36ab987169" d="M 0 -6 
L -6 6 
L 6 6 
z
"/>
    </defs>
    <g clip-path="url(#pef1728feb5)">
     <use xlink:href="#m36ab987169" x="147.665455" y="529.938012" style="fill: #9467bd"/>
     <use xlink:href="#m36ab987169" x="168.610909" y="506.39353" style="fill: #9467bd"/>
     <use xlink:href="#m36ab987169" x="189.556364" y="500.862951" style="fill: #9467bd"/>
     <use xlink:href="#m36ab987169" x="210.501818" y="498.151108" style="fill: #9467bd"/>
     <use xlink:href="#m36ab987169" x="231.447273" y="496.345801" style="fill: #9467bd"/>
     <use xlink:href="#m36ab987169" x="252.392727" y="495.112379" style="fill: #9467bd"/>
     <use xlink:href="#m36ab987169" x="273.338182" y="494.65089" style="fill: #9467bd"/>
     <use xlink:href="#m36ab987169" x="294.283636" y="494.094274" style="fill: #9467bd"/>
     <use xlink:href="#m36ab987169" x="315.229091" y="494.265091" style="fill: #9467bd"/>
     <use xlink:href="#m36ab987169" x="336.174545" y="493.243962" style="fill: #9467bd"/>
     <use xlink:href="#m36ab987169" x="357.12" y="493.273135" style="fill: #9467bd"/>
     <use xlink:href="#m36ab987169" x="378.065455" y="492.7022" style="fill: #9467bd"/>
     <use xlink:href="#m36ab987169" x="399.010909" y="492.847077" style="fill: #9467bd"/>
     <use xlink:href="#m36ab987169" x="419.956364" y="492.808941" style="fill: #9467bd"/>
     <use xlink:href="#m36ab987169" x="440.901818" y="492.093681" style="fill: #9467bd"/>
     <use xlink:href="#m36ab987169" x="461.847273" y="492.01126" style="fill: #9467bd"/>
     <use xlink:href="#m36ab987169" x="482.792727" y="492.302907" style="fill: #9467bd"/>
     <use xlink:href="#m36ab987169" x="503.738182" y="492.082609" style="fill: #9467bd"/>
     <use xlink:href="#m36ab987169" x="524.683636" y="491.855836" style="fill: #9467bd"/>
     <use xlink:href="#m36ab987169" x="545.629091" y="492.081729" style="fill: #9467bd"/>
     <use xlink:href="#m36ab987169" x="566.574545" y="491.517117" style="fill: #9467bd"/>
     <use xlink:href="#m36ab987169" x="587.52" y="491.729053" style="fill: #9467bd"/>
     <use xlink:href="#m36ab987169" x="608.465455" y="492.028742" style="fill: #9467bd"/>
     <use xlink:href="#m36ab987169" x="629.410909" y="492.091718" style="fill: #9467bd"/>
     <use xlink:href="#m36ab987169" x="650.356364" y="491.708485" style="fill: #9467bd"/>
     <use xlink:href="#m36ab987169" x="671.301818" y="491.836627" style="fill: #9467bd"/>
     <use xlink:href="#m36ab987169" x="692.247273" y="491.883816" style="fill: #9467bd"/>
     <use xlink:href="#m36ab987169" x="713.192727" y="491.851287" style="fill: #9467bd"/>
     <use xlink:href="#m36ab987169" x="734.138182" y="492.062707" style="fill: #9467bd"/>
     <use xlink:href="#m36ab987169" x="755.083636" y="491.633764" style="fill: #9467bd"/>
     <use xlink:href="#m36ab987169" x="776.029091" y="491.485125" style="fill: #9467bd"/>
     <use xlink:href="#m36ab987169" x="796.974545" y="491.352789" style="fill: #9467bd"/>
    </g>
   </g>
   <g id="line2d_53">
    <path d="M 115.2 333.66151 
L 829.44 333.66151 
" clip-path="url(#pef1728feb5)" style="fill: none; stroke-dasharray: 10.36,4.48; stroke-dashoffset: 0; stroke: #808080; stroke-width: 2.8"/>
   </g>
   <g id="line2d_54">
    <path d="M 147.665455 541.728 
L 168.610909 525.667098 
L 189.556364 524.731233 
L 210.501818 516.455935 
L 231.447273 514.832663 
L 252.392727 513.67985 
L 273.338182 512.849356 
L 294.283636 512.692125 
L 315.229091 513.104218 
L 336.174545 511.978377 
L 357.12 511.863407 
L 378.065455 511.333041 
L 399.010909 511.116616 
L 419.956364 511.238088 
L 440.901818 510.6472 
L 461.847273 510.884551 
L 482.792727 511.130161 
L 503.738182 510.492111 
L 524.683636 510.413123 
L 545.629091 510.576324 
L 566.574545 510.037223 
L 587.52 510.224897 
L 608.465455 510.045199 
L 629.410909 509.848421 
L 650.356364 510.267339 
L 671.301818 510.202046 
L 692.247273 510.479684 
L 713.192727 510.723935 
L 734.138182 510.649497 
L 755.083636 510.18498 
L 776.029091 509.882512 
L 796.974545 509.94661 
" clip-path="url(#pef1728feb5)" style="fill: none; stroke: #000000; stroke-width: 0.1; stroke-linecap: square"/>
    <defs>
     <path id="mbbbb0f8b0a" d="M 0 3 
C 0.795609 3 1.55874 2.683901 2.12132 2.12132 
C 2.683901 1.55874 3 0.795609 3 0 
C 3 -0.795609 2.683901 -1.55874 2.12132 -2.12132 
C 1.55874 -2.683901 0.795609 -3 0 -3 
C -0.795609 -3 -1.55874 -2.683901 -2.12132 -2.12132 
C -2.683901 -1.55874 -3 -0.795609 -3 0 
C -3 0.795609 -2.683901 1.55874 -2.12132 2.12132 
C -1.55874 2.683901 -0.795609 3 0 3 
z
"/>
    </defs>
    <g clip-path="url(#pef1728feb5)">
     <use xlink:href="#mbbbb0f8b0a" x="147.665455" y="541.728" style="fill: #1f77b4"/>
     <use xlink:href="#mbbbb0f8b0a" x="168.610909" y="525.667098" style="fill: #1f77b4"/>
     <use xlink:href="#mbbbb0f8b0a" x="189.556364" y="524.731233" style="fill: #1f77b4"/>
     <use xlink:href="#mbbbb0f8b0a" x="210.501818" y="516.455935" style="fill: #1f77b4"/>
     <use xlink:href="#mbbbb0f8b0a" x="231.447273" y="514.832663" style="fill: #1f77b4"/>
     <use xlink:href="#mbbbb0f8b0a" x="252.392727" y="513.67985" style="fill: #1f77b4"/>
     <use xlink:href="#mbbbb0f8b0a" x="273.338182" y="512.849356" style="fill: #1f77b4"/>
     <use xlink:href="#mbbbb0f8b0a" x="294.283636" y="512.692125" style="fill: #1f77b4"/>
     <use xlink:href="#mbbbb0f8b0a" x="315.229091" y="513.104218" style="fill: #1f77b4"/>
     <use xlink:href="#mbbbb0f8b0a" x="336.174545" y="511.978377" style="fill: #1f77b4"/>
     <use xlink:href="#mbbbb0f8b0a" x="357.12" y="511.863407" style="fill: #1f77b4"/>
     <use xlink:href="#mbbbb0f8b0a" x="378.065455" y="511.333041" style="fill: #1f77b4"/>
     <use xlink:href="#mbbbb0f8b0a" x="399.010909" y="511.116616" style="fill: #1f77b4"/>
     <use xlink:href="#mbbbb0f8b0a" x="419.956364" y="511.238088" style="fill: #1f77b4"/>
     <use xlink:href="#mbbbb0f8b0a" x="440.901818" y="510.6472" style="fill: #1f77b4"/>
     <use xlink:href="#mbbbb0f8b0a" x="461.847273" y="510.884551" style="fill: #1f77b4"/>
     <use xlink:href="#mbbbb0f8b0a" x="482.792727" y="511.130161" style="fill: #1f77b4"/>
     <use xlink:href="#mbbbb0f8b0a" x="503.738182" y="510.492111" style="fill: #1f77b4"/>
     <use xlink:href="#mbbbb0f8b0a" x="524.683636" y="510.413123" style="fill: #1f77b4"/>
     <use xlink:href="#mbbbb0f8b0a" x="545.629091" y="510.576324" style="fill: #1f77b4"/>
     <use xlink:href="#mbbbb0f8b0a" x="566.574545" y="510.037223" style="fill: #1f77b4"/>
     <use xlink:href="#mbbbb0f8b0a" x="587.52" y="510.224897" style="fill: #1f77b4"/>
     <use xlink:href="#mbbbb0f8b0a" x="608.465455" y="510.045199" style="fill: #1f77b4"/>
     <use xlink:href="#mbbbb0f8b0a" x="629.410909" y="509.848421" style="fill: #1f77b4"/>
     <use xlink:href="#mbbbb0f8b0a" x="650.356364" y="510.267339" style="fill: #1f77b4"/>
     <use xlink:href="#mbbbb0f8b0a" x="671.301818" y="510.202046" style="fill: #1f77b4"/>
     <use xlink:href="#mbbbb0f8b0a" x="692.247273" y="510.479684" style="fill: #1f77b4"/>
     <use xlink:href="#mbbbb0f8b0a" x="713.192727" y="510.723935" style="fill: #1f77b4"/>
     <use xlink:href="#mbbbb0f8b0a" x="734.138182" y="510.649497" style="fill: #1f77b4"/>
     <use xlink:href="#mbbbb0f8b0a" x="755.083636" y="510.18498" style="fill: #1f77b4"/>
     <use xlink:href="#mbbbb0f8b0a" x="776.029091" y="509.882512" style="fill: #1f77b4"/>
     <use xlink:href="#mbbbb0f8b0a" x="796.974545" y="509.94661" style="fill: #1f77b4"/>
    </g>
   </g>
   <g id="line2d_55">
    <path d="M 115.2 333.66151 
L 829.44 333.66151 
" clip-path="url(#pef1728feb5)" style="fill: none; stroke-dasharray: 10.36,4.48; stroke-dashoffset: 0; stroke: #808080; stroke-width: 2.8"/>
   </g>
   <g id="line2d_56">
    <path d="M 147.665455 223.996377 
L 168.610909 160.363324 
L 189.556364 146.600001 
L 210.501818 143.39243 
L 231.447273 140.419517 
L 252.392727 133.603906 
L 273.338182 130.331237 
L 294.283636 132.850844 
L 315.229091 126.616608 
L 336.174545 120.042257 
L 357.12 127.170512 
L 378.065455 126.773004 
L 399.010909 130.360288 
L 419.956364 134.78349 
L 440.901818 127.995351 
L 461.847273 150.858503 
L 482.792727 142.92032 
L 503.738182 124.971933 
L 524.683636 135.466544 
L 545.629091 118.514056 
L 566.574545 119.573444 
L 587.52 117.570858 
L 608.465455 132.739941 
L 629.410909 115.561325 
L 650.356364 130.821515 
L 671.301818 126.568176 
L 692.247273 143.997398 
L 713.192727 115.163974 
L 734.138182 130.51028 
L 755.083636 130.188184 
L 776.029091 121.284207 
L 796.974545 122.324707 
" clip-path="url(#pef1728feb5)" style="fill: none; stroke: #000000; stroke-width: 0.1; stroke-linecap: square"/>
    <defs>
     <path id="m4e78278afe" d="M -0 8.485281 
L 5.091169 0 
L 0 -8.485281 
L -5.091169 -0 
z
"/>
    </defs>
    <g clip-path="url(#pef1728feb5)">
     <use xlink:href="#m4e78278afe" x="147.665455" y="223.996377" style="fill: #2ca02c"/>
     <use xlink:href="#m4e78278afe" x="168.610909" y="160.363324" style="fill: #2ca02c"/>
     <use xlink:href="#m4e78278afe" x="189.556364" y="146.600001" style="fill: #2ca02c"/>
     <use xlink:href="#m4e78278afe" x="210.501818" y="143.39243" style="fill: #2ca02c"/>
     <use xlink:href="#m4e78278afe" x="231.447273" y="140.419517" style="fill: #2ca02c"/>
     <use xlink:href="#m4e78278afe" x="252.392727" y="133.603906" style="fill: #2ca02c"/>
     <use xlink:href="#m4e78278afe" x="273.338182" y="130.331237" style="fill: #2ca02c"/>
     <use xlink:href="#m4e78278afe" x="294.283636" y="132.850844" style="fill: #2ca02c"/>
     <use xlink:href="#m4e78278afe" x="315.229091" y="126.616608" style="fill: #2ca02c"/>
     <use xlink:href="#m4e78278afe" x="336.174545" y="120.042257" style="fill: #2ca02c"/>
     <use xlink:href="#m4e78278afe" x="357.12" y="127.170512" style="fill: #2ca02c"/>
     <use xlink:href="#m4e78278afe" x="378.065455" y="126.773004" style="fill: #2ca02c"/>
     <use xlink:href="#m4e78278afe" x="399.010909" y="130.360288" style="fill: #2ca02c"/>
     <use xlink:href="#m4e78278afe" x="419.956364" y="134.78349" style="fill: #2ca02c"/>
     <use xlink:href="#m4e78278afe" x="440.901818" y="127.995351" style="fill: #2ca02c"/>
     <use xlink:href="#m4e78278afe" x="461.847273" y="150.858503" style="fill: #2ca02c"/>
     <use xlink:href="#m4e78278afe" x="482.792727" y="142.92032" style="fill: #2ca02c"/>
     <use xlink:href="#m4e78278afe" x="503.738182" y="124.971933" style="fill: #2ca02c"/>
     <use xlink:href="#m4e78278afe" x="524.683636" y="135.466544" style="fill: #2ca02c"/>
     <use xlink:href="#m4e78278afe" x="545.629091" y="118.514056" style="fill: #2ca02c"/>
     <use xlink:href="#m4e78278afe" x="566.574545" y="119.573444" style="fill: #2ca02c"/>
     <use xlink:href="#m4e78278afe" x="587.52" y="117.570858" style="fill: #2ca02c"/>
     <use xlink:href="#m4e78278afe" x="608.465455" y="132.739941" style="fill: #2ca02c"/>
     <use xlink:href="#m4e78278afe" x="629.410909" y="115.561325" style="fill: #2ca02c"/>
     <use xlink:href="#m4e78278afe" x="650.356364" y="130.821515" style="fill: #2ca02c"/>
     <use xlink:href="#m4e78278afe" x="671.301818" y="126.568176" style="fill: #2ca02c"/>
     <use xlink:href="#m4e78278afe" x="692.247273" y="143.997398" style="fill: #2ca02c"/>
     <use xlink:href="#m4e78278afe" x="713.192727" y="115.163974" style="fill: #2ca02c"/>
     <use xlink:href="#m4e78278afe" x="734.138182" y="130.51028" style="fill: #2ca02c"/>
     <use xlink:href="#m4e78278afe" x="755.083636" y="130.188184" style="fill: #2ca02c"/>
     <use xlink:href="#m4e78278afe" x="776.029091" y="121.284207" style="fill: #2ca02c"/>
     <use xlink:href="#m4e78278afe" x="796.974545" y="122.324707" style="fill: #2ca02c"/>
    </g>
   </g>
   <g id="line2d_57">
    <path d="M 115.2 333.66151 
L 829.44 333.66151 
" clip-path="url(#pef1728feb5)" style="fill: none; stroke-dasharray: 10.36,4.48; stroke-dashoffset: 0; stroke: #808080; stroke-width: 2.8"/>
   </g>
   <g id="line2d_58">
    <path d="M 147.665455 276.116121 
L 168.610909 227.198907 
L 189.556364 205.992743 
L 210.501818 190.794753 
L 231.447273 179.448882 
L 252.392727 170.256766 
L 273.338182 163.02539 
L 294.283636 156.803032 
L 315.229091 151.207253 
L 336.174545 146.213559 
L 357.12 141.71744 
L 378.065455 137.754197 
L 399.010909 134.07637 
L 419.956364 130.528867 
L 440.901818 127.590724 
L 461.847273 124.461115 
L 482.792727 121.677717 
L 503.738182 119.034644 
L 524.683636 116.578854 
L 545.629091 115.606562 
L 566.574545 115.761959 
L 587.52 115.4371 
L 608.465455 115.259279 
L 629.410909 115.355686 
L 650.356364 115.285009 
L 671.301818 115.236102 
L 692.247273 115.104774 
L 713.192727 115.018494 
L 734.138182 115.041383 
L 755.083636 114.985876 
L 776.029091 114.967519 
L 796.974545 114.857693 
" clip-path="url(#pef1728feb5)" style="fill: none; stroke: #000000; stroke-width: 0.1; stroke-linecap: square"/>
    <defs>
     <path id="m576aa24271" d="M 0 -6 
L -1.347084 -1.854102 
L -5.706339 -1.854102 
L -2.179628 0.708204 
L -3.526712 4.854102 
L -0 2.291796 
L 3.526712 4.854102 
L 2.179628 0.708204 
L 5.706339 -1.854102 
L 1.347084 -1.854102 
z
"/>
    </defs>
    <g clip-path="url(#pef1728feb5)">
     <use xlink:href="#m576aa24271" x="147.665455" y="276.116121" style="fill: #d62728"/>
     <use xlink:href="#m576aa24271" x="168.610909" y="227.198907" style="fill: #d62728"/>
     <use xlink:href="#m576aa24271" x="189.556364" y="205.992743" style="fill: #d62728"/>
     <use xlink:href="#m576aa24271" x="210.501818" y="190.794753" style="fill: #d62728"/>
     <use xlink:href="#m576aa24271" x="231.447273" y="179.448882" style="fill: #d62728"/>
     <use xlink:href="#m576aa24271" x="252.392727" y="170.256766" style="fill: #d62728"/>
     <use xlink:href="#m576aa24271" x="273.338182" y="163.02539" style="fill: #d62728"/>
     <use xlink:href="#m576aa24271" x="294.283636" y="156.803032" style="fill: #d62728"/>
     <use xlink:href="#m576aa24271" x="315.229091" y="151.207253" style="fill: #d62728"/>
     <use xlink:href="#m576aa24271" x="336.174545" y="146.213559" style="fill: #d62728"/>
     <use xlink:href="#m576aa24271" x="357.12" y="141.71744" style="fill: #d62728"/>
     <use xlink:href="#m576aa24271" x="378.065455" y="137.754197" style="fill: #d62728"/>
     <use xlink:href="#m576aa24271" x="399.010909" y="134.07637" style="fill: #d62728"/>
     <use xlink:href="#m576aa24271" x="419.956364" y="130.528867" style="fill: #d62728"/>
     <use xlink:href="#m576aa24271" x="440.901818" y="127.590724" style="fill: #d62728"/>
     <use xlink:href="#m576aa24271" x="461.847273" y="124.461115" style="fill: #d62728"/>
     <use xlink:href="#m576aa24271" x="482.792727" y="121.677717" style="fill: #d62728"/>
     <use xlink:href="#m576aa24271" x="503.738182" y="119.034644" style="fill: #d62728"/>
     <use xlink:href="#m576aa24271" x="524.683636" y="116.578854" style="fill: #d62728"/>
     <use xlink:href="#m576aa24271" x="545.629091" y="115.606562" style="fill: #d62728"/>
     <use xlink:href="#m576aa24271" x="566.574545" y="115.761959" style="fill: #d62728"/>
     <use xlink:href="#m576aa24271" x="587.52" y="115.4371" style="fill: #d62728"/>
     <use xlink:href="#m576aa24271" x="608.465455" y="115.259279" style="fill: #d62728"/>
     <use xlink:href="#m576aa24271" x="629.410909" y="115.355686" style="fill: #d62728"/>
     <use xlink:href="#m576aa24271" x="650.356364" y="115.285009" style="fill: #d62728"/>
     <use xlink:href="#m576aa24271" x="671.301818" y="115.236102" style="fill: #d62728"/>
     <use xlink:href="#m576aa24271" x="692.247273" y="115.104774" style="fill: #d62728"/>
     <use xlink:href="#m576aa24271" x="713.192727" y="115.018494" style="fill: #d62728"/>
     <use xlink:href="#m576aa24271" x="734.138182" y="115.041383" style="fill: #d62728"/>
     <use xlink:href="#m576aa24271" x="755.083636" y="114.985876" style="fill: #d62728"/>
     <use xlink:href="#m576aa24271" x="776.029091" y="114.967519" style="fill: #d62728"/>
     <use xlink:href="#m576aa24271" x="796.974545" y="114.857693" style="fill: #d62728"/>
    </g>
   </g>
   <g id="line2d_59">
    <path d="M 115.2 333.66151 
L 829.44 333.66151 
" clip-path="url(#pef1728feb5)" style="fill: none; stroke-dasharray: 10.36,4.48; stroke-dashoffset: 0; stroke: #808080; stroke-width: 2.8"/>
   </g>
   <g id="patch_3">
    <path d="M 115.2 563.904 
L 115.2 76.032 
" style="fill: none; stroke: #000000; stroke-width: 0.8; stroke-linejoin: miter; stroke-linecap: square"/>
   </g>
   <g id="patch_4">
    <path d="M 829.44 563.904 
L 829.44 76.032 
" style="fill: none; stroke: #000000; stroke-width: 0.8; stroke-linejoin: miter; stroke-linecap: square"/>
   </g>
   <g id="patch_5">
    <path d="M 115.2 563.904 
L 829.44 563.904 
" style="fill: none; stroke: #000000; stroke-width: 0.8; stroke-linejoin: miter; stroke-linecap: square"/>
   </g>
   <g id="patch_6">
    <path d="M 115.2 76.032 
L 829.44 76.032 
" style="fill: none; stroke: #000000; stroke-width: 0.8; stroke-linejoin: miter; stroke-linecap: square"/>
   </g>
   <g id="text_14">
    <!-- $10^9$ for scale -->
    <g transform="translate(260.901818 364.807519)scale(0.11 -0.11)">
     <defs>
      <path id="DejaVuSans-66" d="M 2375 4863 
L 2375 4384 
L 1825 4384 
Q 1516 4384 1395 4259 
Q 1275 4134 1275 3809 
L 1275 3500 
L 2222 3500 
L 2222 3053 
L 1275 3053 
L 1275 0 
L 697 0 
L 697 3053 
L 147 3053 
L 147 3500 
L 697 3500 
L 697 3744 
Q 697 4328 969 4595 
Q 1241 4863 1831 4863 
L 2375 4863 
z
" transform="scale(0.015625)"/>
     </defs>
     <use xlink:href="#DejaVuSans-31" transform="translate(0 0.765625)"/>
     <use xlink:href="#DejaVuSans-30" transform="translate(63.623047 0.765625)"/>
     <use xlink:href="#DejaVuSans-39" transform="translate(128.203125 39.046875)scale(0.7)"/>
     <use xlink:href="#DejaVuSans-20" transform="translate(175.473633 0.765625)"/>
     <use xlink:href="#DejaVuSans-66" transform="translate(207.260742 0.765625)"/>
     <use xlink:href="#DejaVuSans-6f" transform="translate(242.46582 0.765625)"/>
     <use xlink:href="#DejaVuSans-72" transform="translate(303.647461 0.765625)"/>
     <use xlink:href="#DejaVuSans-20" transform="translate(344.760742 0.765625)"/>
     <use xlink:href="#DejaVuSans-73" transform="translate(376.547852 0.765625)"/>
     <use xlink:href="#DejaVuSans-63" transform="translate(428.647461 0.765625)"/>
     <use xlink:href="#DejaVuSans-61" transform="translate(483.62793 0.765625)"/>
     <use xlink:href="#DejaVuSans-6c" transform="translate(544.907227 0.765625)"/>
     <use xlink:href="#DejaVuSans-65" transform="translate(572.69043 0.765625)"/>
    </g>
   </g>
  </g>
 </g>
 <defs>
  <clipPath id="pef1728feb5">
   <rect x="115.2" y="76.032" width="714.24" height="487.872"/>
  </clipPath>
 </defs>
</svg>
