<?xml version="1.0" encoding="utf-8" standalone="no"?>
<!DOCTYPE svg PUBLIC "-//W3C//DTD SVG 1.1//EN"
  "http://www.w3.org/Graphics/SVG/1.1/DTD/svg11.dtd">
<svg xmlns:xlink="http://www.w3.org/1999/xlink" width="460.8pt" height="345.6pt" viewBox="0 0 460.8 345.6" xmlns="http://www.w3.org/2000/svg" version="1.1">
 <metadata>
  <rdf:RDF xmlns:dc="http://purl.org/dc/elements/1.1/" xmlns:cc="http://creativecommons.org/ns#" xmlns:rdf="http://www.w3.org/1999/02/22-rdf-syntax-ns#">
   <cc:Work>
    <dc:type rdf:resource="http://purl.org/dc/dcmitype/StillImage"/>
    <dc:date>2023-01-30T12:22:41.245249</dc:date>
    <dc:format>image/svg+xml</dc:format>
    <dc:creator>
     <cc:Agent>
      <dc:title>Matplotlib v3.5.3, https://matplotlib.org/</dc:title>
     </cc:Agent>
    </dc:creator>
   </cc:Work>
  </rdf:RDF>
 </metadata>
 <defs>
  <style type="text/css">*{stroke-linejoin: round; stroke-linecap: butt}</style>
 </defs>
 <g id="figure_1">
  <g id="patch_1">
   <path d="M 0 345.6 
L 460.8 345.6 
L 460.8 0 
L 0 0 
z
" style="fill: #ffffff"/>
  </g>
  <g id="axes_1">
   <g id="patch_2">
    <path d="M 57.6 293.76 
L 414.72 293.76 
L 414.72 41.472 
L 57.6 41.472 
z
" style="fill: #ffffff"/>
   </g>
   <g id="PolyCollection_1">
    <defs>
     <path id="md2ec2a6a89" d="M 73.832727 -164.811486 
L 73.832727 -164.811486 
L 84.316022 -172.847296 
L 94.799317 -176.080051 
L 105.282613 -177.883988 
L 115.765908 -177.918291 
L 126.249203 -178.6591 
L 136.732498 -179.461733 
L 147.215793 -179.256691 
L 157.699088 -179.736769 
L 168.182383 -179.838789 
L 178.665678 -179.595962 
L 189.148973 -180.013447 
L 199.632269 -179.852333 
L 210.115564 -180.190824 
L 220.598859 -180.035562 
L 231.082154 -179.872104 
L 241.565449 -179.795537 
L 252.048744 -179.932031 
L 262.532039 -179.523506 
L 273.015334 -180.267815 
L 283.498629 -180.924527 
L 293.981925 -180.680411 
L 304.46522 -180.269177 
L 314.948515 -180.308095 
L 325.43181 -180.783919 
L 335.915105 -180.490514 
L 346.3984 -180.462512 
L 356.881695 -180.745333 
L 367.36499 -180.559152 
L 377.848285 -180.339741 
L 388.331581 -179.819934 
L 398.487273 -180.528786 
L 398.487273 -180.528786 
L 398.487273 -181.13541 
L 388.331581 -180.947278 
L 377.848285 -181.014559 
L 367.36499 -181.017325 
L 356.881695 -180.980213 
L 346.3984 -180.971156 
L 335.915105 -181.059477 
L 325.43181 -180.960106 
L 314.948515 -180.916778 
L 304.46522 -180.807976 
L 293.981925 -180.900256 
L 283.498629 -181.052807 
L 273.015334 -180.743154 
L 262.532039 -180.470199 
L 252.048744 -180.716215 
L 241.565449 -180.500392 
L 231.082154 -180.43584 
L 220.598859 -180.518054 
L 210.115564 -180.483014 
L 199.632269 -180.202564 
L 189.148973 -180.185473 
L 178.665678 -180.203879 
L 168.182383 -180.077964 
L 157.699088 -180.021053 
L 147.215793 -179.82852 
L 136.732498 -179.621873 
L 126.249203 -179.036499 
L 115.765908 -178.692297 
L 105.282613 -178.304511 
L 94.799317 -177.15469 
L 84.316022 -173.807079 
L 73.832727 -165.420176 
z
" style="stroke: #ffdead"/>
    </defs>
    <g clip-path="url(#pfe86e22b6d)">
     <use xlink:href="#md2ec2a6a89" x="0" y="345.6" style="fill: #ffdead; stroke: #ffdead"/>
    </g>
   </g>
   <g id="PolyCollection_2">
    <defs>
     <path id="mbceff462da" d="M 73.832727 -187.259223 
L 73.832727 -187.259223 
L 84.316022 -197.197373 
L 94.799317 -199.961016 
L 105.282613 -201.615029 
L 115.765908 -202.468766 
L 126.249203 -202.943614 
L 136.732498 -204.375631 
L 147.215793 -205.920848 
L 157.699088 -206.349375 
L 168.182383 -205.047292 
L 178.665678 -205.852039 
L 189.148973 -205.327847 
L 199.632269 -205.689778 
L 210.115564 -205.884137 
L 220.598859 -205.814956 
L 231.082154 -205.734226 
L 241.565449 -205.763994 
L 252.048744 -206.371274 
L 262.532039 -206.07563 
L 273.015334 -206.302279 
L 283.498629 -206.266653 
L 293.981925 -206.15529 
L 304.46522 -205.019236 
L 314.948515 -206.159262 
L 325.43181 -203.689323 
L 335.915105 -204.974651 
L 346.3984 -205.047837 
L 356.881695 -205.216387 
L 367.36499 -205.354777 
L 377.848285 -205.166742 
L 388.331581 -208.326525 
L 398.487273 -208.236622 
L 398.487273 -208.236622 
L 398.487273 -208.322362 
L 388.331581 -208.423469 
L 377.848285 -205.319629 
L 367.36499 -205.524404 
L 356.881695 -205.28976 
L 346.3984 -205.151697 
L 335.915105 -205.443472 
L 325.43181 -206.321285 
L 314.948515 -208.092864 
L 304.46522 -206.582533 
L 293.981925 -206.332564 
L 283.498629 -206.557002 
L 273.015334 -206.953288 
L 262.532039 -206.78959 
L 252.048744 -206.536434 
L 241.565449 -205.95722 
L 231.082154 -205.80438 
L 220.598859 -206.151615 
L 210.115564 -206.039375 
L 199.632269 -205.890721 
L 189.148973 -207.330872 
L 178.665678 -205.946826 
L 168.182383 -205.281751 
L 157.699088 -206.855529 
L 147.215793 -206.756536 
L 136.732498 -205.822752 
L 126.249203 -203.738517 
L 115.765908 -202.529923 
L 105.282613 -201.663932 
L 94.799317 -200.005404 
L 84.316022 -198.491075 
L 73.832727 -187.907766 
z
" style="stroke: #ffdead"/>
    </defs>
    <g clip-path="url(#pfe86e22b6d)">
     <use xlink:href="#mbceff462da" x="0" y="345.6" style="fill: #ffdead; stroke: #ffdead"/>
    </g>
   </g>
   <g id="PolyCollection_3">
    <defs>
     <path id="m1b25116199" d="M 73.832727 -287.671771 
L 73.832727 -287.671771 
L 84.316022 -291.098383 
L 94.799317 -291.69129 
L 105.282613 -291.259185 
L 115.765908 -292.014724 
L 126.249203 -291.935778 
L 136.732498 -291.869152 
L 147.215793 -291.923267 
L 157.699088 -291.940299 
L 168.182383 -292.080677 
L 178.665678 -292.017341 
L 189.148973 -292.007875 
L 199.632269 -291.949109 
L 210.115564 -291.815218 
L 220.598859 -291.760087 
L 231.082154 -291.906557 
L 241.565449 -291.33734 
L 252.048744 -291.442707 
L 262.532039 -291.240553 
L 273.015334 -290.688631 
L 283.498629 -290.783089 
L 293.981925 -290.236545 
L 304.46522 -290.003094 
L 314.948515 -289.508085 
L 325.43181 -288.450426 
L 335.915105 -286.891225 
L 346.3984 -285.435431 
L 356.881695 -283.888211 
L 367.36499 -282.021713 
L 377.848285 -280.539353 
L 388.331581 -279.419432 
L 398.487273 -278.320103 
L 398.487273 -278.320103 
L 398.487273 -278.823545 
L 388.331581 -279.839535 
L 377.848285 -281.387766 
L 367.36499 -282.565143 
L 356.881695 -284.332126 
L 346.3984 -286.010853 
L 335.915105 -288.008352 
L 325.43181 -288.691561 
L 314.948515 -289.828421 
L 304.46522 -290.405819 
L 293.981925 -290.70406 
L 283.498629 -291.373998 
L 273.015334 -291.413725 
L 262.532039 -291.427415 
L 252.048744 -291.91741 
L 241.565449 -291.936438 
L 231.082154 -292.286343 
L 220.598859 -292.490222 
L 210.115564 -292.193427 
L 199.632269 -292.623335 
L 189.148973 -292.415689 
L 178.665678 -292.556805 
L 168.182383 -292.4701 
L 157.699088 -292.341492 
L 147.215793 -292.241571 
L 136.732498 -292.560572 
L 126.249203 -292.660364 
L 115.765908 -292.424058 
L 105.282613 -292.24978 
L 94.799317 -292.331329 
L 84.316022 -291.985029 
L 73.832727 -288.348942 
z
" style="stroke: #ffdead"/>
    </defs>
    <g clip-path="url(#pfe86e22b6d)">
     <use xlink:href="#m1b25116199" x="0" y="345.6" style="fill: #ffdead; stroke: #ffdead"/>
    </g>
   </g>
   <g id="matplotlib.axis_1">
    <g id="xtick_1">
     <g id="line2d_1">
      <defs>
       <path id="m315f28a6bd" d="M 0 0 
L 0 3.5 
" style="stroke: #000000; stroke-width: 0.8"/>
      </defs>
      <g>
       <use xlink:href="#m315f28a6bd" x="73.832727" y="293.76" style="stroke: #000000; stroke-width: 0.8"/>
      </g>
     </g>
     <g id="text_1">
      <!-- 1, 32 -->
      <g transform="translate(59.838665 309.118281)scale(0.11 -0.11)">
       <defs>
        <path id="DejaVuSans-31" d="M 794 531 
L 1825 531 
L 1825 4091 
L 703 3866 
L 703 4441 
L 1819 4666 
L 2450 4666 
L 2450 531 
L 3481 531 
L 3481 0 
L 794 0 
L 794 531 
z
" transform="scale(0.015625)"/>
        <path id="DejaVuSans-2c" d="M 750 794 
L 1409 794 
L 1409 256 
L 897 -744 
L 494 -744 
L 750 256 
L 750 794 
z
" transform="scale(0.015625)"/>
        <path id="DejaVuSans-20" transform="scale(0.015625)"/>
        <path id="DejaVuSans-33" d="M 2597 2516 
Q 3050 2419 3304 2112 
Q 3559 1806 3559 1356 
Q 3559 666 3084 287 
Q 2609 -91 1734 -91 
Q 1441 -91 1130 -33 
Q 819 25 488 141 
L 488 750 
Q 750 597 1062 519 
Q 1375 441 1716 441 
Q 2309 441 2620 675 
Q 2931 909 2931 1356 
Q 2931 1769 2642 2001 
Q 2353 2234 1838 2234 
L 1294 2234 
L 1294 2753 
L 1863 2753 
Q 2328 2753 2575 2939 
Q 2822 3125 2822 3475 
Q 2822 3834 2567 4026 
Q 2313 4219 1838 4219 
Q 1578 4219 1281 4162 
Q 984 4106 628 3988 
L 628 4550 
Q 988 4650 1302 4700 
Q 1616 4750 1894 4750 
Q 2613 4750 3031 4423 
Q 3450 4097 3450 3541 
Q 3450 3153 3228 2886 
Q 3006 2619 2597 2516 
z
" transform="scale(0.015625)"/>
        <path id="DejaVuSans-32" d="M 1228 531 
L 3431 531 
L 3431 0 
L 469 0 
L 469 531 
Q 828 903 1448 1529 
Q 2069 2156 2228 2338 
Q 2531 2678 2651 2914 
Q 2772 3150 2772 3378 
Q 2772 3750 2511 3984 
Q 2250 4219 1831 4219 
Q 1534 4219 1204 4116 
Q 875 4013 500 3803 
L 500 4441 
Q 881 4594 1212 4672 
Q 1544 4750 1819 4750 
Q 2544 4750 2975 4387 
Q 3406 4025 3406 3419 
Q 3406 3131 3298 2873 
Q 3191 2616 2906 2266 
Q 2828 2175 2409 1742 
Q 1991 1309 1228 531 
z
" transform="scale(0.015625)"/>
       </defs>
       <use xlink:href="#DejaVuSans-31"/>
       <use xlink:href="#DejaVuSans-2c" x="63.623047"/>
       <use xlink:href="#DejaVuSans-20" x="95.410156"/>
       <use xlink:href="#DejaVuSans-33" x="127.197266"/>
       <use xlink:href="#DejaVuSans-32" x="190.820312"/>
      </g>
     </g>
    </g>
    <g id="xtick_2">
     <g id="line2d_2">
      <g>
       <use xlink:href="#m315f28a6bd" x="136.732498" y="293.76" style="stroke: #000000; stroke-width: 0.8"/>
      </g>
     </g>
     <g id="text_2">
      <!-- 7, 224 -->
      <g transform="translate(119.23906 309.118281)scale(0.11 -0.11)">
       <defs>
        <path id="DejaVuSans-37" d="M 525 4666 
L 3525 4666 
L 3525 4397 
L 1831 0 
L 1172 0 
L 2766 4134 
L 525 4134 
L 525 4666 
z
" transform="scale(0.015625)"/>
        <path id="DejaVuSans-34" d="M 2419 4116 
L 825 1625 
L 2419 1625 
L 2419 4116 
z
M 2253 4666 
L 3047 4666 
L 3047 1625 
L 3713 1625 
L 3713 1100 
L 3047 1100 
L 3047 0 
L 2419 0 
L 2419 1100 
L 313 1100 
L 313 1709 
L 2253 4666 
z
" transform="scale(0.015625)"/>
       </defs>
       <use xlink:href="#DejaVuSans-37"/>
       <use xlink:href="#DejaVuSans-2c" x="63.623047"/>
       <use xlink:href="#DejaVuSans-20" x="95.410156"/>
       <use xlink:href="#DejaVuSans-32" x="127.197266"/>
       <use xlink:href="#DejaVuSans-32" x="190.820312"/>
       <use xlink:href="#DejaVuSans-34" x="254.443359"/>
      </g>
     </g>
    </g>
    <g id="xtick_3">
     <g id="line2d_3">
      <g>
       <use xlink:href="#m315f28a6bd" x="199.632269" y="293.76" style="stroke: #000000; stroke-width: 0.8"/>
      </g>
     </g>
     <g id="text_3">
      <!-- 13, 416 -->
      <g transform="translate(178.639456 309.118281)scale(0.11 -0.11)">
       <defs>
        <path id="DejaVuSans-36" d="M 2113 2584 
Q 1688 2584 1439 2293 
Q 1191 2003 1191 1497 
Q 1191 994 1439 701 
Q 1688 409 2113 409 
Q 2538 409 2786 701 
Q 3034 994 3034 1497 
Q 3034 2003 2786 2293 
Q 2538 2584 2113 2584 
z
M 3366 4563 
L 3366 3988 
Q 3128 4100 2886 4159 
Q 2644 4219 2406 4219 
Q 1781 4219 1451 3797 
Q 1122 3375 1075 2522 
Q 1259 2794 1537 2939 
Q 1816 3084 2150 3084 
Q 2853 3084 3261 2657 
Q 3669 2231 3669 1497 
Q 3669 778 3244 343 
Q 2819 -91 2113 -91 
Q 1303 -91 875 529 
Q 447 1150 447 2328 
Q 447 3434 972 4092 
Q 1497 4750 2381 4750 
Q 2619 4750 2861 4703 
Q 3103 4656 3366 4563 
z
" transform="scale(0.015625)"/>
       </defs>
       <use xlink:href="#DejaVuSans-31"/>
       <use xlink:href="#DejaVuSans-33" x="63.623047"/>
       <use xlink:href="#DejaVuSans-2c" x="127.246094"/>
       <use xlink:href="#DejaVuSans-20" x="159.033203"/>
       <use xlink:href="#DejaVuSans-34" x="190.820312"/>
       <use xlink:href="#DejaVuSans-31" x="254.443359"/>
       <use xlink:href="#DejaVuSans-36" x="318.066406"/>
      </g>
     </g>
    </g>
    <g id="xtick_4">
     <g id="line2d_4">
      <g>
       <use xlink:href="#m315f28a6bd" x="262.532039" y="293.76" style="stroke: #000000; stroke-width: 0.8"/>
      </g>
     </g>
     <g id="text_4">
      <!-- 19, 608 -->
      <g transform="translate(241.539227 309.118281)scale(0.11 -0.11)">
       <defs>
        <path id="DejaVuSans-39" d="M 703 97 
L 703 672 
Q 941 559 1184 500 
Q 1428 441 1663 441 
Q 2288 441 2617 861 
Q 2947 1281 2994 2138 
Q 2813 1869 2534 1725 
Q 2256 1581 1919 1581 
Q 1219 1581 811 2004 
Q 403 2428 403 3163 
Q 403 3881 828 4315 
Q 1253 4750 1959 4750 
Q 2769 4750 3195 4129 
Q 3622 3509 3622 2328 
Q 3622 1225 3098 567 
Q 2575 -91 1691 -91 
Q 1453 -91 1209 -44 
Q 966 3 703 97 
z
M 1959 2075 
Q 2384 2075 2632 2365 
Q 2881 2656 2881 3163 
Q 2881 3666 2632 3958 
Q 2384 4250 1959 4250 
Q 1534 4250 1286 3958 
Q 1038 3666 1038 3163 
Q 1038 2656 1286 2365 
Q 1534 2075 1959 2075 
z
" transform="scale(0.015625)"/>
        <path id="DejaVuSans-30" d="M 2034 4250 
Q 1547 4250 1301 3770 
Q 1056 3291 1056 2328 
Q 1056 1369 1301 889 
Q 1547 409 2034 409 
Q 2525 409 2770 889 
Q 3016 1369 3016 2328 
Q 3016 3291 2770 3770 
Q 2525 4250 2034 4250 
z
M 2034 4750 
Q 2819 4750 3233 4129 
Q 3647 3509 3647 2328 
Q 3647 1150 3233 529 
Q 2819 -91 2034 -91 
Q 1250 -91 836 529 
Q 422 1150 422 2328 
Q 422 3509 836 4129 
Q 1250 4750 2034 4750 
z
" transform="scale(0.015625)"/>
        <path id="DejaVuSans-38" d="M 2034 2216 
Q 1584 2216 1326 1975 
Q 1069 1734 1069 1313 
Q 1069 891 1326 650 
Q 1584 409 2034 409 
Q 2484 409 2743 651 
Q 3003 894 3003 1313 
Q 3003 1734 2745 1975 
Q 2488 2216 2034 2216 
z
M 1403 2484 
Q 997 2584 770 2862 
Q 544 3141 544 3541 
Q 544 4100 942 4425 
Q 1341 4750 2034 4750 
Q 2731 4750 3128 4425 
Q 3525 4100 3525 3541 
Q 3525 3141 3298 2862 
Q 3072 2584 2669 2484 
Q 3125 2378 3379 2068 
Q 3634 1759 3634 1313 
Q 3634 634 3220 271 
Q 2806 -91 2034 -91 
Q 1263 -91 848 271 
Q 434 634 434 1313 
Q 434 1759 690 2068 
Q 947 2378 1403 2484 
z
M 1172 3481 
Q 1172 3119 1398 2916 
Q 1625 2713 2034 2713 
Q 2441 2713 2670 2916 
Q 2900 3119 2900 3481 
Q 2900 3844 2670 4047 
Q 2441 4250 2034 4250 
Q 1625 4250 1398 4047 
Q 1172 3844 1172 3481 
z
" transform="scale(0.015625)"/>
       </defs>
       <use xlink:href="#DejaVuSans-31"/>
       <use xlink:href="#DejaVuSans-39" x="63.623047"/>
       <use xlink:href="#DejaVuSans-2c" x="127.246094"/>
       <use xlink:href="#DejaVuSans-20" x="159.033203"/>
       <use xlink:href="#DejaVuSans-36" x="190.820312"/>
       <use xlink:href="#DejaVuSans-30" x="254.443359"/>
       <use xlink:href="#DejaVuSans-38" x="318.066406"/>
      </g>
     </g>
    </g>
    <g id="xtick_5">
     <g id="line2d_5">
      <g>
       <use xlink:href="#m315f28a6bd" x="325.43181" y="293.76" style="stroke: #000000; stroke-width: 0.8"/>
      </g>
     </g>
     <g id="text_5">
      <!-- 25, 800 -->
      <g transform="translate(304.438997 309.118281)scale(0.11 -0.11)">
       <defs>
        <path id="DejaVuSans-35" d="M 691 4666 
L 3169 4666 
L 3169 4134 
L 1269 4134 
L 1269 2991 
Q 1406 3038 1543 3061 
Q 1681 3084 1819 3084 
Q 2600 3084 3056 2656 
Q 3513 2228 3513 1497 
Q 3513 744 3044 326 
Q 2575 -91 1722 -91 
Q 1428 -91 1123 -41 
Q 819 9 494 109 
L 494 744 
Q 775 591 1075 516 
Q 1375 441 1709 441 
Q 2250 441 2565 725 
Q 2881 1009 2881 1497 
Q 2881 1984 2565 2268 
Q 2250 2553 1709 2553 
Q 1456 2553 1204 2497 
Q 953 2441 691 2322 
L 691 4666 
z
" transform="scale(0.015625)"/>
       </defs>
       <use xlink:href="#DejaVuSans-32"/>
       <use xlink:href="#DejaVuSans-35" x="63.623047"/>
       <use xlink:href="#DejaVuSans-2c" x="127.246094"/>
       <use xlink:href="#DejaVuSans-20" x="159.033203"/>
       <use xlink:href="#DejaVuSans-38" x="190.820312"/>
       <use xlink:href="#DejaVuSans-30" x="254.443359"/>
       <use xlink:href="#DejaVuSans-30" x="318.066406"/>
      </g>
     </g>
    </g>
    <g id="xtick_6">
     <g id="line2d_6">
      <g>
       <use xlink:href="#m315f28a6bd" x="388.331581" y="293.76" style="stroke: #000000; stroke-width: 0.8"/>
      </g>
     </g>
     <g id="text_6">
      <!-- 31, 992 -->
      <g transform="translate(367.338768 309.118281)scale(0.11 -0.11)">
       <use xlink:href="#DejaVuSans-33"/>
       <use xlink:href="#DejaVuSans-31" x="63.623047"/>
       <use xlink:href="#DejaVuSans-2c" x="127.246094"/>
       <use xlink:href="#DejaVuSans-20" x="159.033203"/>
       <use xlink:href="#DejaVuSans-39" x="190.820312"/>
       <use xlink:href="#DejaVuSans-39" x="254.443359"/>
       <use xlink:href="#DejaVuSans-32" x="318.066406"/>
      </g>
     </g>
    </g>
    <g id="text_7">
     <!-- Bin number, maximum program size -->
     <g transform="translate(107.815 326.04375)scale(0.14 -0.14)">
      <defs>
       <path id="DejaVuSans-42" d="M 1259 2228 
L 1259 519 
L 2272 519 
Q 2781 519 3026 730 
Q 3272 941 3272 1375 
Q 3272 1813 3026 2020 
Q 2781 2228 2272 2228 
L 1259 2228 
z
M 1259 4147 
L 1259 2741 
L 2194 2741 
Q 2656 2741 2882 2914 
Q 3109 3088 3109 3444 
Q 3109 3797 2882 3972 
Q 2656 4147 2194 4147 
L 1259 4147 
z
M 628 4666 
L 2241 4666 
Q 2963 4666 3353 4366 
Q 3744 4066 3744 3513 
Q 3744 3084 3544 2831 
Q 3344 2578 2956 2516 
Q 3422 2416 3680 2098 
Q 3938 1781 3938 1306 
Q 3938 681 3513 340 
Q 3088 0 2303 0 
L 628 0 
L 628 4666 
z
" transform="scale(0.015625)"/>
       <path id="DejaVuSans-69" d="M 603 3500 
L 1178 3500 
L 1178 0 
L 603 0 
L 603 3500 
z
M 603 4863 
L 1178 4863 
L 1178 4134 
L 603 4134 
L 603 4863 
z
" transform="scale(0.015625)"/>
       <path id="DejaVuSans-6e" d="M 3513 2113 
L 3513 0 
L 2938 0 
L 2938 2094 
Q 2938 2591 2744 2837 
Q 2550 3084 2163 3084 
Q 1697 3084 1428 2787 
Q 1159 2491 1159 1978 
L 1159 0 
L 581 0 
L 581 3500 
L 1159 3500 
L 1159 2956 
Q 1366 3272 1645 3428 
Q 1925 3584 2291 3584 
Q 2894 3584 3203 3211 
Q 3513 2838 3513 2113 
z
" transform="scale(0.015625)"/>
       <path id="DejaVuSans-75" d="M 544 1381 
L 544 3500 
L 1119 3500 
L 1119 1403 
Q 1119 906 1312 657 
Q 1506 409 1894 409 
Q 2359 409 2629 706 
Q 2900 1003 2900 1516 
L 2900 3500 
L 3475 3500 
L 3475 0 
L 2900 0 
L 2900 538 
Q 2691 219 2414 64 
Q 2138 -91 1772 -91 
Q 1169 -91 856 284 
Q 544 659 544 1381 
z
M 1991 3584 
L 1991 3584 
z
" transform="scale(0.015625)"/>
       <path id="DejaVuSans-6d" d="M 3328 2828 
Q 3544 3216 3844 3400 
Q 4144 3584 4550 3584 
Q 5097 3584 5394 3201 
Q 5691 2819 5691 2113 
L 5691 0 
L 5113 0 
L 5113 2094 
Q 5113 2597 4934 2840 
Q 4756 3084 4391 3084 
Q 3944 3084 3684 2787 
Q 3425 2491 3425 1978 
L 3425 0 
L 2847 0 
L 2847 2094 
Q 2847 2600 2669 2842 
Q 2491 3084 2119 3084 
Q 1678 3084 1418 2786 
Q 1159 2488 1159 1978 
L 1159 0 
L 581 0 
L 581 3500 
L 1159 3500 
L 1159 2956 
Q 1356 3278 1631 3431 
Q 1906 3584 2284 3584 
Q 2666 3584 2933 3390 
Q 3200 3197 3328 2828 
z
" transform="scale(0.015625)"/>
       <path id="DejaVuSans-62" d="M 3116 1747 
Q 3116 2381 2855 2742 
Q 2594 3103 2138 3103 
Q 1681 3103 1420 2742 
Q 1159 2381 1159 1747 
Q 1159 1113 1420 752 
Q 1681 391 2138 391 
Q 2594 391 2855 752 
Q 3116 1113 3116 1747 
z
M 1159 2969 
Q 1341 3281 1617 3432 
Q 1894 3584 2278 3584 
Q 2916 3584 3314 3078 
Q 3713 2572 3713 1747 
Q 3713 922 3314 415 
Q 2916 -91 2278 -91 
Q 1894 -91 1617 61 
Q 1341 213 1159 525 
L 1159 0 
L 581 0 
L 581 4863 
L 1159 4863 
L 1159 2969 
z
" transform="scale(0.015625)"/>
       <path id="DejaVuSans-65" d="M 3597 1894 
L 3597 1613 
L 953 1613 
Q 991 1019 1311 708 
Q 1631 397 2203 397 
Q 2534 397 2845 478 
Q 3156 559 3463 722 
L 3463 178 
Q 3153 47 2828 -22 
Q 2503 -91 2169 -91 
Q 1331 -91 842 396 
Q 353 884 353 1716 
Q 353 2575 817 3079 
Q 1281 3584 2069 3584 
Q 2775 3584 3186 3129 
Q 3597 2675 3597 1894 
z
M 3022 2063 
Q 3016 2534 2758 2815 
Q 2500 3097 2075 3097 
Q 1594 3097 1305 2825 
Q 1016 2553 972 2059 
L 3022 2063 
z
" transform="scale(0.015625)"/>
       <path id="DejaVuSans-72" d="M 2631 2963 
Q 2534 3019 2420 3045 
Q 2306 3072 2169 3072 
Q 1681 3072 1420 2755 
Q 1159 2438 1159 1844 
L 1159 0 
L 581 0 
L 581 3500 
L 1159 3500 
L 1159 2956 
Q 1341 3275 1631 3429 
Q 1922 3584 2338 3584 
Q 2397 3584 2469 3576 
Q 2541 3569 2628 3553 
L 2631 2963 
z
" transform="scale(0.015625)"/>
       <path id="DejaVuSans-61" d="M 2194 1759 
Q 1497 1759 1228 1600 
Q 959 1441 959 1056 
Q 959 750 1161 570 
Q 1363 391 1709 391 
Q 2188 391 2477 730 
Q 2766 1069 2766 1631 
L 2766 1759 
L 2194 1759 
z
M 3341 1997 
L 3341 0 
L 2766 0 
L 2766 531 
Q 2569 213 2275 61 
Q 1981 -91 1556 -91 
Q 1019 -91 701 211 
Q 384 513 384 1019 
Q 384 1609 779 1909 
Q 1175 2209 1959 2209 
L 2766 2209 
L 2766 2266 
Q 2766 2663 2505 2880 
Q 2244 3097 1772 3097 
Q 1472 3097 1187 3025 
Q 903 2953 641 2809 
L 641 3341 
Q 956 3463 1253 3523 
Q 1550 3584 1831 3584 
Q 2591 3584 2966 3190 
Q 3341 2797 3341 1997 
z
" transform="scale(0.015625)"/>
       <path id="DejaVuSans-78" d="M 3513 3500 
L 2247 1797 
L 3578 0 
L 2900 0 
L 1881 1375 
L 863 0 
L 184 0 
L 1544 1831 
L 300 3500 
L 978 3500 
L 1906 2253 
L 2834 3500 
L 3513 3500 
z
" transform="scale(0.015625)"/>
       <path id="DejaVuSans-70" d="M 1159 525 
L 1159 -1331 
L 581 -1331 
L 581 3500 
L 1159 3500 
L 1159 2969 
Q 1341 3281 1617 3432 
Q 1894 3584 2278 3584 
Q 2916 3584 3314 3078 
Q 3713 2572 3713 1747 
Q 3713 922 3314 415 
Q 2916 -91 2278 -91 
Q 1894 -91 1617 61 
Q 1341 213 1159 525 
z
M 3116 1747 
Q 3116 2381 2855 2742 
Q 2594 3103 2138 3103 
Q 1681 3103 1420 2742 
Q 1159 2381 1159 1747 
Q 1159 1113 1420 752 
Q 1681 391 2138 391 
Q 2594 391 2855 752 
Q 3116 1113 3116 1747 
z
" transform="scale(0.015625)"/>
       <path id="DejaVuSans-6f" d="M 1959 3097 
Q 1497 3097 1228 2736 
Q 959 2375 959 1747 
Q 959 1119 1226 758 
Q 1494 397 1959 397 
Q 2419 397 2687 759 
Q 2956 1122 2956 1747 
Q 2956 2369 2687 2733 
Q 2419 3097 1959 3097 
z
M 1959 3584 
Q 2709 3584 3137 3096 
Q 3566 2609 3566 1747 
Q 3566 888 3137 398 
Q 2709 -91 1959 -91 
Q 1206 -91 779 398 
Q 353 888 353 1747 
Q 353 2609 779 3096 
Q 1206 3584 1959 3584 
z
" transform="scale(0.015625)"/>
       <path id="DejaVuSans-67" d="M 2906 1791 
Q 2906 2416 2648 2759 
Q 2391 3103 1925 3103 
Q 1463 3103 1205 2759 
Q 947 2416 947 1791 
Q 947 1169 1205 825 
Q 1463 481 1925 481 
Q 2391 481 2648 825 
Q 2906 1169 2906 1791 
z
M 3481 434 
Q 3481 -459 3084 -895 
Q 2688 -1331 1869 -1331 
Q 1566 -1331 1297 -1286 
Q 1028 -1241 775 -1147 
L 775 -588 
Q 1028 -725 1275 -790 
Q 1522 -856 1778 -856 
Q 2344 -856 2625 -561 
Q 2906 -266 2906 331 
L 2906 616 
Q 2728 306 2450 153 
Q 2172 0 1784 0 
Q 1141 0 747 490 
Q 353 981 353 1791 
Q 353 2603 747 3093 
Q 1141 3584 1784 3584 
Q 2172 3584 2450 3431 
Q 2728 3278 2906 2969 
L 2906 3500 
L 3481 3500 
L 3481 434 
z
" transform="scale(0.015625)"/>
       <path id="DejaVuSans-73" d="M 2834 3397 
L 2834 2853 
Q 2591 2978 2328 3040 
Q 2066 3103 1784 3103 
Q 1356 3103 1142 2972 
Q 928 2841 928 2578 
Q 928 2378 1081 2264 
Q 1234 2150 1697 2047 
L 1894 2003 
Q 2506 1872 2764 1633 
Q 3022 1394 3022 966 
Q 3022 478 2636 193 
Q 2250 -91 1575 -91 
Q 1294 -91 989 -36 
Q 684 19 347 128 
L 347 722 
Q 666 556 975 473 
Q 1284 391 1588 391 
Q 1994 391 2212 530 
Q 2431 669 2431 922 
Q 2431 1156 2273 1281 
Q 2116 1406 1581 1522 
L 1381 1569 
Q 847 1681 609 1914 
Q 372 2147 372 2553 
Q 372 3047 722 3315 
Q 1072 3584 1716 3584 
Q 2034 3584 2315 3537 
Q 2597 3491 2834 3397 
z
" transform="scale(0.015625)"/>
       <path id="DejaVuSans-7a" d="M 353 3500 
L 3084 3500 
L 3084 2975 
L 922 459 
L 3084 459 
L 3084 0 
L 275 0 
L 275 525 
L 2438 3041 
L 353 3041 
L 353 3500 
z
" transform="scale(0.015625)"/>
      </defs>
      <use xlink:href="#DejaVuSans-42"/>
      <use xlink:href="#DejaVuSans-69" x="68.603516"/>
      <use xlink:href="#DejaVuSans-6e" x="96.386719"/>
      <use xlink:href="#DejaVuSans-20" x="159.765625"/>
      <use xlink:href="#DejaVuSans-6e" x="191.552734"/>
      <use xlink:href="#DejaVuSans-75" x="254.931641"/>
      <use xlink:href="#DejaVuSans-6d" x="318.310547"/>
      <use xlink:href="#DejaVuSans-62" x="415.722656"/>
      <use xlink:href="#DejaVuSans-65" x="479.199219"/>
      <use xlink:href="#DejaVuSans-72" x="540.722656"/>
      <use xlink:href="#DejaVuSans-2c" x="581.835938"/>
      <use xlink:href="#DejaVuSans-20" x="613.623047"/>
      <use xlink:href="#DejaVuSans-6d" x="645.410156"/>
      <use xlink:href="#DejaVuSans-61" x="742.822266"/>
      <use xlink:href="#DejaVuSans-78" x="804.101562"/>
      <use xlink:href="#DejaVuSans-69" x="863.28125"/>
      <use xlink:href="#DejaVuSans-6d" x="891.064453"/>
      <use xlink:href="#DejaVuSans-75" x="988.476562"/>
      <use xlink:href="#DejaVuSans-6d" x="1051.855469"/>
      <use xlink:href="#DejaVuSans-20" x="1149.267578"/>
      <use xlink:href="#DejaVuSans-70" x="1181.054688"/>
      <use xlink:href="#DejaVuSans-72" x="1244.53125"/>
      <use xlink:href="#DejaVuSans-6f" x="1283.394531"/>
      <use xlink:href="#DejaVuSans-67" x="1344.576172"/>
      <use xlink:href="#DejaVuSans-72" x="1408.052734"/>
      <use xlink:href="#DejaVuSans-61" x="1449.166016"/>
      <use xlink:href="#DejaVuSans-6d" x="1510.445312"/>
      <use xlink:href="#DejaVuSans-20" x="1607.857422"/>
      <use xlink:href="#DejaVuSans-73" x="1639.644531"/>
      <use xlink:href="#DejaVuSans-69" x="1691.744141"/>
      <use xlink:href="#DejaVuSans-7a" x="1719.527344"/>
      <use xlink:href="#DejaVuSans-65" x="1772.017578"/>
     </g>
    </g>
   </g>
   <g id="matplotlib.axis_2">
    <g id="ytick_1">
     <g id="line2d_7">
      <defs>
       <path id="m6f2936a287" d="M 0 0 
L -3.5 0 
" style="stroke: #000000; stroke-width: 0.8"/>
      </defs>
      <g>
       <use xlink:href="#m6f2936a287" x="57.6" y="278.969841" style="stroke: #000000; stroke-width: 0.8"/>
      </g>
     </g>
     <g id="text_8">
      <!-- $\mathdefault{10^{7}}$ -->
      <g transform="translate(31.24 283.148982)scale(0.11 -0.11)">
       <use xlink:href="#DejaVuSans-31" transform="translate(0 0.684375)"/>
       <use xlink:href="#DejaVuSans-30" transform="translate(63.623047 0.684375)"/>
       <use xlink:href="#DejaVuSans-37" transform="translate(128.203125 38.965625)scale(0.7)"/>
      </g>
     </g>
    </g>
    <g id="ytick_2">
     <g id="line2d_8">
      <g>
       <use xlink:href="#m6f2936a287" x="57.6" y="226.407837" style="stroke: #000000; stroke-width: 0.8"/>
      </g>
     </g>
     <g id="text_9">
      <!-- $\mathdefault{10^{8}}$ -->
      <g transform="translate(31.24 230.586977)scale(0.11 -0.11)">
       <use xlink:href="#DejaVuSans-31" transform="translate(0 0.765625)"/>
       <use xlink:href="#DejaVuSans-30" transform="translate(63.623047 0.765625)"/>
       <use xlink:href="#DejaVuSans-38" transform="translate(128.203125 39.046875)scale(0.7)"/>
      </g>
     </g>
    </g>
    <g id="ytick_3">
     <g id="line2d_9">
      <g>
       <use xlink:href="#m6f2936a287" x="57.6" y="173.845832" style="stroke: #000000; stroke-width: 0.8"/>
      </g>
     </g>
     <g id="text_10">
      <!-- $\mathdefault{10^{9}}$ -->
      <g transform="translate(31.24 178.024973)scale(0.11 -0.11)">
       <use xlink:href="#DejaVuSans-31" transform="translate(0 0.765625)"/>
       <use xlink:href="#DejaVuSans-30" transform="translate(63.623047 0.765625)"/>
       <use xlink:href="#DejaVuSans-39" transform="translate(128.203125 39.046875)scale(0.7)"/>
      </g>
     </g>
    </g>
    <g id="ytick_4">
     <g id="line2d_10">
      <g>
       <use xlink:href="#m6f2936a287" x="57.6" y="121.283828" style="stroke: #000000; stroke-width: 0.8"/>
      </g>
     </g>
     <g id="text_11">
      <!-- $\mathdefault{10^{10}}$ -->
      <g transform="translate(26.29 125.462968)scale(0.11 -0.11)">
       <use xlink:href="#DejaVuSans-31" transform="translate(0 0.765625)"/>
       <use xlink:href="#DejaVuSans-30" transform="translate(63.623047 0.765625)"/>
       <use xlink:href="#DejaVuSans-31" transform="translate(128.203125 39.046875)scale(0.7)"/>
       <use xlink:href="#DejaVuSans-30" transform="translate(172.739258 39.046875)scale(0.7)"/>
      </g>
     </g>
    </g>
    <g id="ytick_5">
     <g id="line2d_11">
      <g>
       <use xlink:href="#m6f2936a287" x="57.6" y="68.721823" style="stroke: #000000; stroke-width: 0.8"/>
      </g>
     </g>
     <g id="text_12">
      <!-- $\mathdefault{10^{11}}$ -->
      <g transform="translate(26.29 72.900964)scale(0.11 -0.11)">
       <use xlink:href="#DejaVuSans-31" transform="translate(0 0.684375)"/>
       <use xlink:href="#DejaVuSans-30" transform="translate(63.623047 0.684375)"/>
       <use xlink:href="#DejaVuSans-31" transform="translate(128.203125 38.965625)scale(0.7)"/>
       <use xlink:href="#DejaVuSans-31" transform="translate(172.739258 38.965625)scale(0.7)"/>
      </g>
     </g>
    </g>
    <g id="ytick_6">
     <g id="line2d_12">
      <defs>
       <path id="m1bf5753129" d="M 0 0 
L -2 0 
" style="stroke: #000000; stroke-width: 0.6"/>
      </defs>
      <g>
       <use xlink:href="#m1bf5753129" x="57.6" y="290.630656" style="stroke: #000000; stroke-width: 0.6"/>
      </g>
     </g>
    </g>
    <g id="ytick_7">
     <g id="line2d_13">
      <g>
       <use xlink:href="#m1bf5753129" x="57.6" y="287.111799" style="stroke: #000000; stroke-width: 0.6"/>
      </g>
     </g>
    </g>
    <g id="ytick_8">
     <g id="line2d_14">
      <g>
       <use xlink:href="#m1bf5753129" x="57.6" y="284.063626" style="stroke: #000000; stroke-width: 0.6"/>
      </g>
     </g>
    </g>
    <g id="ytick_9">
     <g id="line2d_15">
      <g>
       <use xlink:href="#m1bf5753129" x="57.6" y="281.374946" style="stroke: #000000; stroke-width: 0.6"/>
      </g>
     </g>
    </g>
    <g id="ytick_10">
     <g id="line2d_16">
      <g>
       <use xlink:href="#m1bf5753129" x="57.6" y="263.147101" style="stroke: #000000; stroke-width: 0.6"/>
      </g>
     </g>
    </g>
    <g id="ytick_11">
     <g id="line2d_17">
      <g>
       <use xlink:href="#m1bf5753129" x="57.6" y="253.891392" style="stroke: #000000; stroke-width: 0.6"/>
      </g>
     </g>
    </g>
    <g id="ytick_12">
     <g id="line2d_18">
      <g>
       <use xlink:href="#m1bf5753129" x="57.6" y="247.324361" style="stroke: #000000; stroke-width: 0.6"/>
      </g>
     </g>
    </g>
    <g id="ytick_13">
     <g id="line2d_19">
      <g>
       <use xlink:href="#m1bf5753129" x="57.6" y="242.230577" style="stroke: #000000; stroke-width: 0.6"/>
      </g>
     </g>
    </g>
    <g id="ytick_14">
     <g id="line2d_20">
      <g>
       <use xlink:href="#m1bf5753129" x="57.6" y="238.068652" style="stroke: #000000; stroke-width: 0.6"/>
      </g>
     </g>
    </g>
    <g id="ytick_15">
     <g id="line2d_21">
      <g>
       <use xlink:href="#m1bf5753129" x="57.6" y="234.549794" style="stroke: #000000; stroke-width: 0.6"/>
      </g>
     </g>
    </g>
    <g id="ytick_16">
     <g id="line2d_22">
      <g>
       <use xlink:href="#m1bf5753129" x="57.6" y="231.501621" style="stroke: #000000; stroke-width: 0.6"/>
      </g>
     </g>
    </g>
    <g id="ytick_17">
     <g id="line2d_23">
      <g>
       <use xlink:href="#m1bf5753129" x="57.6" y="228.812942" style="stroke: #000000; stroke-width: 0.6"/>
      </g>
     </g>
    </g>
    <g id="ytick_18">
     <g id="line2d_24">
      <g>
       <use xlink:href="#m1bf5753129" x="57.6" y="210.585097" style="stroke: #000000; stroke-width: 0.6"/>
      </g>
     </g>
    </g>
    <g id="ytick_19">
     <g id="line2d_25">
      <g>
       <use xlink:href="#m1bf5753129" x="57.6" y="201.329387" style="stroke: #000000; stroke-width: 0.6"/>
      </g>
     </g>
    </g>
    <g id="ytick_20">
     <g id="line2d_26">
      <g>
       <use xlink:href="#m1bf5753129" x="57.6" y="194.762357" style="stroke: #000000; stroke-width: 0.6"/>
      </g>
     </g>
    </g>
    <g id="ytick_21">
     <g id="line2d_27">
      <g>
       <use xlink:href="#m1bf5753129" x="57.6" y="189.668572" style="stroke: #000000; stroke-width: 0.6"/>
      </g>
     </g>
    </g>
    <g id="ytick_22">
     <g id="line2d_28">
      <g>
       <use xlink:href="#m1bf5753129" x="57.6" y="185.506647" style="stroke: #000000; stroke-width: 0.6"/>
      </g>
     </g>
    </g>
    <g id="ytick_23">
     <g id="line2d_29">
      <g>
       <use xlink:href="#m1bf5753129" x="57.6" y="181.98779" style="stroke: #000000; stroke-width: 0.6"/>
      </g>
     </g>
    </g>
    <g id="ytick_24">
     <g id="line2d_30">
      <g>
       <use xlink:href="#m1bf5753129" x="57.6" y="178.939617" style="stroke: #000000; stroke-width: 0.6"/>
      </g>
     </g>
    </g>
    <g id="ytick_25">
     <g id="line2d_31">
      <g>
       <use xlink:href="#m1bf5753129" x="57.6" y="176.250938" style="stroke: #000000; stroke-width: 0.6"/>
      </g>
     </g>
    </g>
    <g id="ytick_26">
     <g id="line2d_32">
      <g>
       <use xlink:href="#m1bf5753129" x="57.6" y="158.023092" style="stroke: #000000; stroke-width: 0.6"/>
      </g>
     </g>
    </g>
    <g id="ytick_27">
     <g id="line2d_33">
      <g>
       <use xlink:href="#m1bf5753129" x="57.6" y="148.767383" style="stroke: #000000; stroke-width: 0.6"/>
      </g>
     </g>
    </g>
    <g id="ytick_28">
     <g id="line2d_34">
      <g>
       <use xlink:href="#m1bf5753129" x="57.6" y="142.200352" style="stroke: #000000; stroke-width: 0.6"/>
      </g>
     </g>
    </g>
    <g id="ytick_29">
     <g id="line2d_35">
      <g>
       <use xlink:href="#m1bf5753129" x="57.6" y="137.106568" style="stroke: #000000; stroke-width: 0.6"/>
      </g>
     </g>
    </g>
    <g id="ytick_30">
     <g id="line2d_36">
      <g>
       <use xlink:href="#m1bf5753129" x="57.6" y="132.944643" style="stroke: #000000; stroke-width: 0.6"/>
      </g>
     </g>
    </g>
    <g id="ytick_31">
     <g id="line2d_37">
      <g>
       <use xlink:href="#m1bf5753129" x="57.6" y="129.425785" style="stroke: #000000; stroke-width: 0.6"/>
      </g>
     </g>
    </g>
    <g id="ytick_32">
     <g id="line2d_38">
      <g>
       <use xlink:href="#m1bf5753129" x="57.6" y="126.377612" style="stroke: #000000; stroke-width: 0.6"/>
      </g>
     </g>
    </g>
    <g id="ytick_33">
     <g id="line2d_39">
      <g>
       <use xlink:href="#m1bf5753129" x="57.6" y="123.688933" style="stroke: #000000; stroke-width: 0.6"/>
      </g>
     </g>
    </g>
    <g id="ytick_34">
     <g id="line2d_40">
      <g>
       <use xlink:href="#m1bf5753129" x="57.6" y="105.461088" style="stroke: #000000; stroke-width: 0.6"/>
      </g>
     </g>
    </g>
    <g id="ytick_35">
     <g id="line2d_41">
      <g>
       <use xlink:href="#m1bf5753129" x="57.6" y="96.205378" style="stroke: #000000; stroke-width: 0.6"/>
      </g>
     </g>
    </g>
    <g id="ytick_36">
     <g id="line2d_42">
      <g>
       <use xlink:href="#m1bf5753129" x="57.6" y="89.638348" style="stroke: #000000; stroke-width: 0.6"/>
      </g>
     </g>
    </g>
    <g id="ytick_37">
     <g id="line2d_43">
      <g>
       <use xlink:href="#m1bf5753129" x="57.6" y="84.544563" style="stroke: #000000; stroke-width: 0.6"/>
      </g>
     </g>
    </g>
    <g id="ytick_38">
     <g id="line2d_44">
      <g>
       <use xlink:href="#m1bf5753129" x="57.6" y="80.382638" style="stroke: #000000; stroke-width: 0.6"/>
      </g>
     </g>
    </g>
    <g id="ytick_39">
     <g id="line2d_45">
      <g>
       <use xlink:href="#m1bf5753129" x="57.6" y="76.863781" style="stroke: #000000; stroke-width: 0.6"/>
      </g>
     </g>
    </g>
    <g id="ytick_40">
     <g id="line2d_46">
      <g>
       <use xlink:href="#m1bf5753129" x="57.6" y="73.815608" style="stroke: #000000; stroke-width: 0.6"/>
      </g>
     </g>
    </g>
    <g id="ytick_41">
     <g id="line2d_47">
      <g>
       <use xlink:href="#m1bf5753129" x="57.6" y="71.126929" style="stroke: #000000; stroke-width: 0.6"/>
      </g>
     </g>
    </g>
    <g id="ytick_42">
     <g id="line2d_48">
      <g>
       <use xlink:href="#m1bf5753129" x="57.6" y="52.899083" style="stroke: #000000; stroke-width: 0.6"/>
      </g>
     </g>
    </g>
    <g id="ytick_43">
     <g id="line2d_49">
      <g>
       <use xlink:href="#m1bf5753129" x="57.6" y="43.643374" style="stroke: #000000; stroke-width: 0.6"/>
      </g>
     </g>
    </g>
    <g id="text_13">
     <!-- Median NEPS -->
     <g transform="translate(19.378437 213.626781)rotate(-90)scale(0.14 -0.14)">
      <defs>
       <path id="DejaVuSans-4d" d="M 628 4666 
L 1569 4666 
L 2759 1491 
L 3956 4666 
L 4897 4666 
L 4897 0 
L 4281 0 
L 4281 4097 
L 3078 897 
L 2444 897 
L 1241 4097 
L 1241 0 
L 628 0 
L 628 4666 
z
" transform="scale(0.015625)"/>
       <path id="DejaVuSans-64" d="M 2906 2969 
L 2906 4863 
L 3481 4863 
L 3481 0 
L 2906 0 
L 2906 525 
Q 2725 213 2448 61 
Q 2172 -91 1784 -91 
Q 1150 -91 751 415 
Q 353 922 353 1747 
Q 353 2572 751 3078 
Q 1150 3584 1784 3584 
Q 2172 3584 2448 3432 
Q 2725 3281 2906 2969 
z
M 947 1747 
Q 947 1113 1208 752 
Q 1469 391 1925 391 
Q 2381 391 2643 752 
Q 2906 1113 2906 1747 
Q 2906 2381 2643 2742 
Q 2381 3103 1925 3103 
Q 1469 3103 1208 2742 
Q 947 2381 947 1747 
z
" transform="scale(0.015625)"/>
       <path id="DejaVuSans-4e" d="M 628 4666 
L 1478 4666 
L 3547 763 
L 3547 4666 
L 4159 4666 
L 4159 0 
L 3309 0 
L 1241 3903 
L 1241 0 
L 628 0 
L 628 4666 
z
" transform="scale(0.015625)"/>
       <path id="DejaVuSans-45" d="M 628 4666 
L 3578 4666 
L 3578 4134 
L 1259 4134 
L 1259 2753 
L 3481 2753 
L 3481 2222 
L 1259 2222 
L 1259 531 
L 3634 531 
L 3634 0 
L 628 0 
L 628 4666 
z
" transform="scale(0.015625)"/>
       <path id="DejaVuSans-50" d="M 1259 4147 
L 1259 2394 
L 2053 2394 
Q 2494 2394 2734 2622 
Q 2975 2850 2975 3272 
Q 2975 3691 2734 3919 
Q 2494 4147 2053 4147 
L 1259 4147 
z
M 628 4666 
L 2053 4666 
Q 2838 4666 3239 4311 
Q 3641 3956 3641 3272 
Q 3641 2581 3239 2228 
Q 2838 1875 2053 1875 
L 1259 1875 
L 1259 0 
L 628 0 
L 628 4666 
z
" transform="scale(0.015625)"/>
       <path id="DejaVuSans-53" d="M 3425 4513 
L 3425 3897 
Q 3066 4069 2747 4153 
Q 2428 4238 2131 4238 
Q 1616 4238 1336 4038 
Q 1056 3838 1056 3469 
Q 1056 3159 1242 3001 
Q 1428 2844 1947 2747 
L 2328 2669 
Q 3034 2534 3370 2195 
Q 3706 1856 3706 1288 
Q 3706 609 3251 259 
Q 2797 -91 1919 -91 
Q 1588 -91 1214 -16 
Q 841 59 441 206 
L 441 856 
Q 825 641 1194 531 
Q 1563 422 1919 422 
Q 2459 422 2753 634 
Q 3047 847 3047 1241 
Q 3047 1584 2836 1778 
Q 2625 1972 2144 2069 
L 1759 2144 
Q 1053 2284 737 2584 
Q 422 2884 422 3419 
Q 422 4038 858 4394 
Q 1294 4750 2059 4750 
Q 2388 4750 2728 4690 
Q 3069 4631 3425 4513 
z
" transform="scale(0.015625)"/>
      </defs>
      <use xlink:href="#DejaVuSans-4d"/>
      <use xlink:href="#DejaVuSans-65" x="86.279297"/>
      <use xlink:href="#DejaVuSans-64" x="147.802734"/>
      <use xlink:href="#DejaVuSans-69" x="211.279297"/>
      <use xlink:href="#DejaVuSans-61" x="239.0625"/>
      <use xlink:href="#DejaVuSans-6e" x="300.341797"/>
      <use xlink:href="#DejaVuSans-20" x="363.720703"/>
      <use xlink:href="#DejaVuSans-4e" x="395.507812"/>
      <use xlink:href="#DejaVuSans-45" x="470.3125"/>
      <use xlink:href="#DejaVuSans-50" x="533.496094"/>
      <use xlink:href="#DejaVuSans-53" x="593.798828"/>
     </g>
    </g>
   </g>
   <g id="line2d_50">
    <path d="M 73.832727 281.839729 
L 84.316022 281.161574 
L 94.799317 281.309708 
L 105.282613 282.005945 
L 115.765908 281.813398 
L 126.249203 281.942831 
L 136.732498 281.998202 
L 147.215793 282.130817 
L 157.699088 282.047617 
L 168.182383 282.259677 
L 178.665678 282.153728 
L 189.148973 282.276263 
L 199.632269 282.188709 
L 210.115564 282.151957 
L 220.598859 282.177437 
L 231.082154 282.209187 
L 241.565449 282.205474 
L 252.048744 282.188878 
L 262.532039 282.248863 
L 273.015334 282.160665 
L 283.498629 282.234146 
L 293.981925 282.207651 
L 304.46522 282.223408 
L 314.948515 282.292364 
L 325.43181 282.213629 
L 335.915105 282.271165 
L 346.3984 282.207116 
L 356.881695 282.236443 
L 367.36499 282.217242 
L 377.848285 282.213806 
L 388.331581 282.247539 
L 398.487273 282.170017 
" clip-path="url(#pfe86e22b6d)" style="fill: none; stroke: #000000; stroke-width: 0.1; stroke-linecap: square"/>
    <defs>
     <path id="m6550913147" d="M -2.5 5 
L 0 2.5 
L 2.5 5 
L 5 2.5 
L 2.5 0 
L 5 -2.5 
L 2.5 -5 
L 0 -2.5 
L -2.5 -5 
L -5 -2.5 
L -2.5 0 
L -5 2.5 
z
" style="stroke: #000000; stroke-linejoin: miter"/>
    </defs>
    <g clip-path="url(#pfe86e22b6d)">
     <use xlink:href="#m6550913147" x="73.832727" y="281.839729" style="fill: #17becf; stroke: #000000; stroke-linejoin: miter"/>
     <use xlink:href="#m6550913147" x="84.316022" y="281.161574" style="fill: #17becf; stroke: #000000; stroke-linejoin: miter"/>
     <use xlink:href="#m6550913147" x="94.799317" y="281.309708" style="fill: #17becf; stroke: #000000; stroke-linejoin: miter"/>
     <use xlink:href="#m6550913147" x="105.282613" y="282.005945" style="fill: #17becf; stroke: #000000; stroke-linejoin: miter"/>
     <use xlink:href="#m6550913147" x="115.765908" y="281.813398" style="fill: #17becf; stroke: #000000; stroke-linejoin: miter"/>
     <use xlink:href="#m6550913147" x="126.249203" y="281.942831" style="fill: #17becf; stroke: #000000; stroke-linejoin: miter"/>
     <use xlink:href="#m6550913147" x="136.732498" y="281.998202" style="fill: #17becf; stroke: #000000; stroke-linejoin: miter"/>
     <use xlink:href="#m6550913147" x="147.215793" y="282.130817" style="fill: #17becf; stroke: #000000; stroke-linejoin: miter"/>
     <use xlink:href="#m6550913147" x="157.699088" y="282.047617" style="fill: #17becf; stroke: #000000; stroke-linejoin: miter"/>
     <use xlink:href="#m6550913147" x="168.182383" y="282.259677" style="fill: #17becf; stroke: #000000; stroke-linejoin: miter"/>
     <use xlink:href="#m6550913147" x="178.665678" y="282.153728" style="fill: #17becf; stroke: #000000; stroke-linejoin: miter"/>
     <use xlink:href="#m6550913147" x="189.148973" y="282.276263" style="fill: #17becf; stroke: #000000; stroke-linejoin: miter"/>
     <use xlink:href="#m6550913147" x="199.632269" y="282.188709" style="fill: #17becf; stroke: #000000; stroke-linejoin: miter"/>
     <use xlink:href="#m6550913147" x="210.115564" y="282.151957" style="fill: #17becf; stroke: #000000; stroke-linejoin: miter"/>
     <use xlink:href="#m6550913147" x="220.598859" y="282.177437" style="fill: #17becf; stroke: #000000; stroke-linejoin: miter"/>
     <use xlink:href="#m6550913147" x="231.082154" y="282.209187" style="fill: #17becf; stroke: #000000; stroke-linejoin: miter"/>
     <use xlink:href="#m6550913147" x="241.565449" y="282.205474" style="fill: #17becf; stroke: #000000; stroke-linejoin: miter"/>
     <use xlink:href="#m6550913147" x="252.048744" y="282.188878" style="fill: #17becf; stroke: #000000; stroke-linejoin: miter"/>
     <use xlink:href="#m6550913147" x="262.532039" y="282.248863" style="fill: #17becf; stroke: #000000; stroke-linejoin: miter"/>
     <use xlink:href="#m6550913147" x="273.015334" y="282.160665" style="fill: #17becf; stroke: #000000; stroke-linejoin: miter"/>
     <use xlink:href="#m6550913147" x="283.498629" y="282.234146" style="fill: #17becf; stroke: #000000; stroke-linejoin: miter"/>
     <use xlink:href="#m6550913147" x="293.981925" y="282.207651" style="fill: #17becf; stroke: #000000; stroke-linejoin: miter"/>
     <use xlink:href="#m6550913147" x="304.46522" y="282.223408" style="fill: #17becf; stroke: #000000; stroke-linejoin: miter"/>
     <use xlink:href="#m6550913147" x="314.948515" y="282.292364" style="fill: #17becf; stroke: #000000; stroke-linejoin: miter"/>
     <use xlink:href="#m6550913147" x="325.43181" y="282.213629" style="fill: #17becf; stroke: #000000; stroke-linejoin: miter"/>
     <use xlink:href="#m6550913147" x="335.915105" y="282.271165" style="fill: #17becf; stroke: #000000; stroke-linejoin: miter"/>
     <use xlink:href="#m6550913147" x="346.3984" y="282.207116" style="fill: #17becf; stroke: #000000; stroke-linejoin: miter"/>
     <use xlink:href="#m6550913147" x="356.881695" y="282.236443" style="fill: #17becf; stroke: #000000; stroke-linejoin: miter"/>
     <use xlink:href="#m6550913147" x="367.36499" y="282.217242" style="fill: #17becf; stroke: #000000; stroke-linejoin: miter"/>
     <use xlink:href="#m6550913147" x="377.848285" y="282.213806" style="fill: #17becf; stroke: #000000; stroke-linejoin: miter"/>
     <use xlink:href="#m6550913147" x="388.331581" y="282.247539" style="fill: #17becf; stroke: #000000; stroke-linejoin: miter"/>
     <use xlink:href="#m6550913147" x="398.487273" y="282.170017" style="fill: #17becf; stroke: #000000; stroke-linejoin: miter"/>
    </g>
   </g>
   <g id="line2d_51">
    <path d="M 57.6 173.845832 
L 414.72 173.845832 
" clip-path="url(#pfe86e22b6d)" style="fill: none; stroke-dasharray: 5.55,2.4; stroke-dashoffset: 0; stroke: #808080; stroke-width: 1.5"/>
   </g>
   <g id="line2d_52">
    <path d="M 73.832727 180.403355 
L 84.316022 172.071286 
L 94.799317 168.636187 
L 105.282613 167.452804 
L 115.765908 167.089659 
L 126.249203 166.778113 
L 136.732498 166.050554 
L 147.215793 165.906164 
L 157.699088 165.656534 
L 168.182383 165.554999 
L 178.665678 165.44759 
L 189.148973 165.469945 
L 199.632269 165.611312 
L 210.115564 165.202023 
L 220.598859 165.329213 
L 231.082154 165.357972 
L 241.565449 165.236034 
L 252.048744 165.049967 
L 262.532039 165.445968 
L 273.015334 164.986688 
L 283.498629 164.603802 
L 293.981925 164.812741 
L 304.46522 164.966022 
L 314.948515 164.978546 
L 325.43181 164.690399 
L 335.915105 164.729755 
L 346.3984 164.965789 
L 356.881695 164.652898 
L 367.36499 164.616879 
L 377.848285 164.766612 
L 388.331581 164.876111 
L 398.487273 164.722067 
" clip-path="url(#pfe86e22b6d)" style="fill: none; stroke: #000000; stroke-width: 0.1; stroke-linecap: square"/>
    <defs>
     <path id="mb05fb88929" d="M -0 5.5 
L 5.5 -5.5 
L -5.5 -5.5 
z
" style="stroke: #000000; stroke-linejoin: miter"/>
    </defs>
    <g clip-path="url(#pfe86e22b6d)">
     <use xlink:href="#mb05fb88929" x="73.832727" y="180.403355" style="fill: #8a2be2; stroke: #000000; stroke-linejoin: miter"/>
     <use xlink:href="#mb05fb88929" x="84.316022" y="172.071286" style="fill: #8a2be2; stroke: #000000; stroke-linejoin: miter"/>
     <use xlink:href="#mb05fb88929" x="94.799317" y="168.636187" style="fill: #8a2be2; stroke: #000000; stroke-linejoin: miter"/>
     <use xlink:href="#mb05fb88929" x="105.282613" y="167.452804" style="fill: #8a2be2; stroke: #000000; stroke-linejoin: miter"/>
     <use xlink:href="#mb05fb88929" x="115.765908" y="167.089659" style="fill: #8a2be2; stroke: #000000; stroke-linejoin: miter"/>
     <use xlink:href="#mb05fb88929" x="126.249203" y="166.778113" style="fill: #8a2be2; stroke: #000000; stroke-linejoin: miter"/>
     <use xlink:href="#mb05fb88929" x="136.732498" y="166.050554" style="fill: #8a2be2; stroke: #000000; stroke-linejoin: miter"/>
     <use xlink:href="#mb05fb88929" x="147.215793" y="165.906164" style="fill: #8a2be2; stroke: #000000; stroke-linejoin: miter"/>
     <use xlink:href="#mb05fb88929" x="157.699088" y="165.656534" style="fill: #8a2be2; stroke: #000000; stroke-linejoin: miter"/>
     <use xlink:href="#mb05fb88929" x="168.182383" y="165.554999" style="fill: #8a2be2; stroke: #000000; stroke-linejoin: miter"/>
     <use xlink:href="#mb05fb88929" x="178.665678" y="165.44759" style="fill: #8a2be2; stroke: #000000; stroke-linejoin: miter"/>
     <use xlink:href="#mb05fb88929" x="189.148973" y="165.469945" style="fill: #8a2be2; stroke: #000000; stroke-linejoin: miter"/>
     <use xlink:href="#mb05fb88929" x="199.632269" y="165.611312" style="fill: #8a2be2; stroke: #000000; stroke-linejoin: miter"/>
     <use xlink:href="#mb05fb88929" x="210.115564" y="165.202023" style="fill: #8a2be2; stroke: #000000; stroke-linejoin: miter"/>
     <use xlink:href="#mb05fb88929" x="220.598859" y="165.329213" style="fill: #8a2be2; stroke: #000000; stroke-linejoin: miter"/>
     <use xlink:href="#mb05fb88929" x="231.082154" y="165.357972" style="fill: #8a2be2; stroke: #000000; stroke-linejoin: miter"/>
     <use xlink:href="#mb05fb88929" x="241.565449" y="165.236034" style="fill: #8a2be2; stroke: #000000; stroke-linejoin: miter"/>
     <use xlink:href="#mb05fb88929" x="252.048744" y="165.049967" style="fill: #8a2be2; stroke: #000000; stroke-linejoin: miter"/>
     <use xlink:href="#mb05fb88929" x="262.532039" y="165.445968" style="fill: #8a2be2; stroke: #000000; stroke-linejoin: miter"/>
     <use xlink:href="#mb05fb88929" x="273.015334" y="164.986688" style="fill: #8a2be2; stroke: #000000; stroke-linejoin: miter"/>
     <use xlink:href="#mb05fb88929" x="283.498629" y="164.603802" style="fill: #8a2be2; stroke: #000000; stroke-linejoin: miter"/>
     <use xlink:href="#mb05fb88929" x="293.981925" y="164.812741" style="fill: #8a2be2; stroke: #000000; stroke-linejoin: miter"/>
     <use xlink:href="#mb05fb88929" x="304.46522" y="164.966022" style="fill: #8a2be2; stroke: #000000; stroke-linejoin: miter"/>
     <use xlink:href="#mb05fb88929" x="314.948515" y="164.978546" style="fill: #8a2be2; stroke: #000000; stroke-linejoin: miter"/>
     <use xlink:href="#mb05fb88929" x="325.43181" y="164.690399" style="fill: #8a2be2; stroke: #000000; stroke-linejoin: miter"/>
     <use xlink:href="#mb05fb88929" x="335.915105" y="164.729755" style="fill: #8a2be2; stroke: #000000; stroke-linejoin: miter"/>
     <use xlink:href="#mb05fb88929" x="346.3984" y="164.965789" style="fill: #8a2be2; stroke: #000000; stroke-linejoin: miter"/>
     <use xlink:href="#mb05fb88929" x="356.881695" y="164.652898" style="fill: #8a2be2; stroke: #000000; stroke-linejoin: miter"/>
     <use xlink:href="#mb05fb88929" x="367.36499" y="164.616879" style="fill: #8a2be2; stroke: #000000; stroke-linejoin: miter"/>
     <use xlink:href="#mb05fb88929" x="377.848285" y="164.766612" style="fill: #8a2be2; stroke: #000000; stroke-linejoin: miter"/>
     <use xlink:href="#mb05fb88929" x="388.331581" y="164.876111" style="fill: #8a2be2; stroke: #000000; stroke-linejoin: miter"/>
     <use xlink:href="#mb05fb88929" x="398.487273" y="164.722067" style="fill: #8a2be2; stroke: #000000; stroke-linejoin: miter"/>
    </g>
   </g>
   <g id="line2d_53">
    <path d="M 57.6 173.845832 
L 414.72 173.845832 
" clip-path="url(#pfe86e22b6d)" style="fill: none; stroke-dasharray: 5.55,2.4; stroke-dashoffset: 0; stroke: #808080; stroke-width: 1.5"/>
   </g>
   <g id="line2d_54">
    <path d="M 73.832727 158.235464 
L 84.316022 147.469454 
L 94.799317 145.623807 
L 105.282613 143.943782 
L 115.765908 143.108796 
L 126.249203 142.583847 
L 136.732498 140.973818 
L 147.215793 138.897028 
L 157.699088 138.895496 
L 168.182383 140.481862 
L 178.665678 139.706372 
L 189.148973 140.045502 
L 199.632269 139.811182 
L 210.115564 139.668327 
L 220.598859 139.61276 
L 231.082154 139.837012 
L 241.565449 139.693238 
L 252.048744 139.113412 
L 262.532039 139.350448 
L 273.015334 139.230482 
L 283.498629 139.278811 
L 293.981925 139.350374 
L 304.46522 140.537619 
L 314.948515 139.365759 
L 325.43181 139.557124 
L 335.915105 140.499608 
L 346.3984 140.516227 
L 356.881695 140.348648 
L 367.36499 140.208935 
L 377.848285 140.314921 
L 388.331581 137.204656 
L 398.487273 137.324334 
" clip-path="url(#pfe86e22b6d)" style="fill: none; stroke: #000000; stroke-width: 0.1; stroke-linecap: square"/>
    <defs>
     <path id="m91e16f8f1e" d="M 0 3.75 
C 0.994512 3.75 1.948425 3.354876 2.65165 2.65165 
C 3.354876 1.948425 3.75 0.994512 3.75 0 
C 3.75 -0.994512 3.354876 -1.948425 2.65165 -2.65165 
C 1.948425 -3.354876 0.994512 -3.75 0 -3.75 
C -0.994512 -3.75 -1.948425 -3.354876 -2.65165 -2.65165 
C -3.354876 -1.948425 -3.75 -0.994512 -3.75 0 
C -3.75 0.994512 -3.354876 1.948425 -2.65165 2.65165 
C -1.948425 3.354876 -0.994512 3.75 0 3.75 
z
" style="stroke: #000000"/>
    </defs>
    <g clip-path="url(#pfe86e22b6d)">
     <use xlink:href="#m91e16f8f1e" x="73.832727" y="158.235464" style="fill: #1e90ff; stroke: #000000"/>
     <use xlink:href="#m91e16f8f1e" x="84.316022" y="147.469454" style="fill: #1e90ff; stroke: #000000"/>
     <use xlink:href="#m91e16f8f1e" x="94.799317" y="145.623807" style="fill: #1e90ff; stroke: #000000"/>
     <use xlink:href="#m91e16f8f1e" x="105.282613" y="143.943782" style="fill: #1e90ff; stroke: #000000"/>
     <use xlink:href="#m91e16f8f1e" x="115.765908" y="143.108796" style="fill: #1e90ff; stroke: #000000"/>
     <use xlink:href="#m91e16f8f1e" x="126.249203" y="142.583847" style="fill: #1e90ff; stroke: #000000"/>
     <use xlink:href="#m91e16f8f1e" x="136.732498" y="140.973818" style="fill: #1e90ff; stroke: #000000"/>
     <use xlink:href="#m91e16f8f1e" x="147.215793" y="138.897028" style="fill: #1e90ff; stroke: #000000"/>
     <use xlink:href="#m91e16f8f1e" x="157.699088" y="138.895496" style="fill: #1e90ff; stroke: #000000"/>
     <use xlink:href="#m91e16f8f1e" x="168.182383" y="140.481862" style="fill: #1e90ff; stroke: #000000"/>
     <use xlink:href="#m91e16f8f1e" x="178.665678" y="139.706372" style="fill: #1e90ff; stroke: #000000"/>
     <use xlink:href="#m91e16f8f1e" x="189.148973" y="140.045502" style="fill: #1e90ff; stroke: #000000"/>
     <use xlink:href="#m91e16f8f1e" x="199.632269" y="139.811182" style="fill: #1e90ff; stroke: #000000"/>
     <use xlink:href="#m91e16f8f1e" x="210.115564" y="139.668327" style="fill: #1e90ff; stroke: #000000"/>
     <use xlink:href="#m91e16f8f1e" x="220.598859" y="139.61276" style="fill: #1e90ff; stroke: #000000"/>
     <use xlink:href="#m91e16f8f1e" x="231.082154" y="139.837012" style="fill: #1e90ff; stroke: #000000"/>
     <use xlink:href="#m91e16f8f1e" x="241.565449" y="139.693238" style="fill: #1e90ff; stroke: #000000"/>
     <use xlink:href="#m91e16f8f1e" x="252.048744" y="139.113412" style="fill: #1e90ff; stroke: #000000"/>
     <use xlink:href="#m91e16f8f1e" x="262.532039" y="139.350448" style="fill: #1e90ff; stroke: #000000"/>
     <use xlink:href="#m91e16f8f1e" x="273.015334" y="139.230482" style="fill: #1e90ff; stroke: #000000"/>
     <use xlink:href="#m91e16f8f1e" x="283.498629" y="139.278811" style="fill: #1e90ff; stroke: #000000"/>
     <use xlink:href="#m91e16f8f1e" x="293.981925" y="139.350374" style="fill: #1e90ff; stroke: #000000"/>
     <use xlink:href="#m91e16f8f1e" x="304.46522" y="140.537619" style="fill: #1e90ff; stroke: #000000"/>
     <use xlink:href="#m91e16f8f1e" x="314.948515" y="139.365759" style="fill: #1e90ff; stroke: #000000"/>
     <use xlink:href="#m91e16f8f1e" x="325.43181" y="139.557124" style="fill: #1e90ff; stroke: #000000"/>
     <use xlink:href="#m91e16f8f1e" x="335.915105" y="140.499608" style="fill: #1e90ff; stroke: #000000"/>
     <use xlink:href="#m91e16f8f1e" x="346.3984" y="140.516227" style="fill: #1e90ff; stroke: #000000"/>
     <use xlink:href="#m91e16f8f1e" x="356.881695" y="140.348648" style="fill: #1e90ff; stroke: #000000"/>
     <use xlink:href="#m91e16f8f1e" x="367.36499" y="140.208935" style="fill: #1e90ff; stroke: #000000"/>
     <use xlink:href="#m91e16f8f1e" x="377.848285" y="140.314921" style="fill: #1e90ff; stroke: #000000"/>
     <use xlink:href="#m91e16f8f1e" x="388.331581" y="137.204656" style="fill: #1e90ff; stroke: #000000"/>
     <use xlink:href="#m91e16f8f1e" x="398.487273" y="137.324334" style="fill: #1e90ff; stroke: #000000"/>
    </g>
   </g>
   <g id="line2d_55">
    <path d="M 57.6 173.845832 
L 414.72 173.845832 
" clip-path="url(#pfe86e22b6d)" style="fill: none; stroke-dasharray: 5.55,2.4; stroke-dashoffset: 0; stroke: #808080; stroke-width: 1.5"/>
   </g>
   <g id="line2d_56">
    <path d="M 73.832727 57.326142 
L 84.316022 54.03008 
L 94.799317 53.596261 
L 105.282613 53.969971 
L 115.765908 53.414988 
L 126.249203 53.361436 
L 136.732498 53.379835 
L 147.215793 53.469037 
L 157.699088 53.43441 
L 168.182383 53.254629 
L 178.665678 53.306884 
L 189.148973 53.521237 
L 199.632269 53.33932 
L 210.115564 53.471801 
L 220.598859 53.391759 
L 231.082154 53.473349 
L 241.565449 54.067187 
L 252.048744 53.849177 
L 262.532039 54.199079 
L 273.015334 54.41054 
L 283.498629 54.675148 
L 293.981925 55.204088 
L 304.46522 55.431395 
L 314.948515 55.94418 
L 325.43181 57.124394 
L 335.915105 58.190505 
L 346.3984 59.802403 
L 356.881695 61.448758 
L 367.36499 63.429085 
L 377.848285 64.603145 
L 388.331581 65.891904 
L 398.487273 67.112109 
" clip-path="url(#pfe86e22b6d)" style="fill: none; stroke: #000000; stroke-width: 0.1; stroke-linecap: square"/>
    <defs>
     <path id="mf915d8d8fb" d="M 0 -4.5 
L -4.5 4.5 
L 4.5 4.5 
z
" style="stroke: #000000; stroke-linejoin: miter"/>
    </defs>
    <g clip-path="url(#pfe86e22b6d)">
     <use xlink:href="#mf915d8d8fb" x="73.832727" y="57.326142" style="fill: #ffd700; stroke: #000000; stroke-linejoin: miter"/>
     <use xlink:href="#mf915d8d8fb" x="84.316022" y="54.03008" style="fill: #ffd700; stroke: #000000; stroke-linejoin: miter"/>
     <use xlink:href="#mf915d8d8fb" x="94.799317" y="53.596261" style="fill: #ffd700; stroke: #000000; stroke-linejoin: miter"/>
     <use xlink:href="#mf915d8d8fb" x="105.282613" y="53.969971" style="fill: #ffd700; stroke: #000000; stroke-linejoin: miter"/>
     <use xlink:href="#mf915d8d8fb" x="115.765908" y="53.414988" style="fill: #ffd700; stroke: #000000; stroke-linejoin: miter"/>
     <use xlink:href="#mf915d8d8fb" x="126.249203" y="53.361436" style="fill: #ffd700; stroke: #000000; stroke-linejoin: miter"/>
     <use xlink:href="#mf915d8d8fb" x="136.732498" y="53.379835" style="fill: #ffd700; stroke: #000000; stroke-linejoin: miter"/>
     <use xlink:href="#mf915d8d8fb" x="147.215793" y="53.469037" style="fill: #ffd700; stroke: #000000; stroke-linejoin: miter"/>
     <use xlink:href="#mf915d8d8fb" x="157.699088" y="53.43441" style="fill: #ffd700; stroke: #000000; stroke-linejoin: miter"/>
     <use xlink:href="#mf915d8d8fb" x="168.182383" y="53.254629" style="fill: #ffd700; stroke: #000000; stroke-linejoin: miter"/>
     <use xlink:href="#mf915d8d8fb" x="178.665678" y="53.306884" style="fill: #ffd700; stroke: #000000; stroke-linejoin: miter"/>
     <use xlink:href="#mf915d8d8fb" x="189.148973" y="53.521237" style="fill: #ffd700; stroke: #000000; stroke-linejoin: miter"/>
     <use xlink:href="#mf915d8d8fb" x="199.632269" y="53.33932" style="fill: #ffd700; stroke: #000000; stroke-linejoin: miter"/>
     <use xlink:href="#mf915d8d8fb" x="210.115564" y="53.471801" style="fill: #ffd700; stroke: #000000; stroke-linejoin: miter"/>
     <use xlink:href="#mf915d8d8fb" x="220.598859" y="53.391759" style="fill: #ffd700; stroke: #000000; stroke-linejoin: miter"/>
     <use xlink:href="#mf915d8d8fb" x="231.082154" y="53.473349" style="fill: #ffd700; stroke: #000000; stroke-linejoin: miter"/>
     <use xlink:href="#mf915d8d8fb" x="241.565449" y="54.067187" style="fill: #ffd700; stroke: #000000; stroke-linejoin: miter"/>
     <use xlink:href="#mf915d8d8fb" x="252.048744" y="53.849177" style="fill: #ffd700; stroke: #000000; stroke-linejoin: miter"/>
     <use xlink:href="#mf915d8d8fb" x="262.532039" y="54.199079" style="fill: #ffd700; stroke: #000000; stroke-linejoin: miter"/>
     <use xlink:href="#mf915d8d8fb" x="273.015334" y="54.41054" style="fill: #ffd700; stroke: #000000; stroke-linejoin: miter"/>
     <use xlink:href="#mf915d8d8fb" x="283.498629" y="54.675148" style="fill: #ffd700; stroke: #000000; stroke-linejoin: miter"/>
     <use xlink:href="#mf915d8d8fb" x="293.981925" y="55.204088" style="fill: #ffd700; stroke: #000000; stroke-linejoin: miter"/>
     <use xlink:href="#mf915d8d8fb" x="304.46522" y="55.431395" style="fill: #ffd700; stroke: #000000; stroke-linejoin: miter"/>
     <use xlink:href="#mf915d8d8fb" x="314.948515" y="55.94418" style="fill: #ffd700; stroke: #000000; stroke-linejoin: miter"/>
     <use xlink:href="#mf915d8d8fb" x="325.43181" y="57.124394" style="fill: #ffd700; stroke: #000000; stroke-linejoin: miter"/>
     <use xlink:href="#mf915d8d8fb" x="335.915105" y="58.190505" style="fill: #ffd700; stroke: #000000; stroke-linejoin: miter"/>
     <use xlink:href="#mf915d8d8fb" x="346.3984" y="59.802403" style="fill: #ffd700; stroke: #000000; stroke-linejoin: miter"/>
     <use xlink:href="#mf915d8d8fb" x="356.881695" y="61.448758" style="fill: #ffd700; stroke: #000000; stroke-linejoin: miter"/>
     <use xlink:href="#mf915d8d8fb" x="367.36499" y="63.429085" style="fill: #ffd700; stroke: #000000; stroke-linejoin: miter"/>
     <use xlink:href="#mf915d8d8fb" x="377.848285" y="64.603145" style="fill: #ffd700; stroke: #000000; stroke-linejoin: miter"/>
     <use xlink:href="#mf915d8d8fb" x="388.331581" y="65.891904" style="fill: #ffd700; stroke: #000000; stroke-linejoin: miter"/>
     <use xlink:href="#mf915d8d8fb" x="398.487273" y="67.112109" style="fill: #ffd700; stroke: #000000; stroke-linejoin: miter"/>
    </g>
   </g>
   <g id="line2d_57">
    <path d="M 57.6 173.845832 
L 414.72 173.845832 
" clip-path="url(#pfe86e22b6d)" style="fill: none; stroke-dasharray: 5.55,2.4; stroke-dashoffset: 0; stroke: #808080; stroke-width: 1.5"/>
   </g>
   <g id="line2d_58">
    <path d="M 73.832727 149.416734 
L 84.316022 125.380703 
L 94.799317 114.142804 
L 105.282613 106.300294 
L 115.765908 100.714815 
L 126.249203 96.166697 
L 136.732498 92.372569 
L 147.215793 89.097857 
L 157.699088 86.362545 
L 168.182383 83.768527 
L 178.665678 81.422515 
L 189.148973 79.404159 
L 199.632269 77.493725 
L 210.115564 75.716894 
L 220.598859 74.096061 
L 231.082154 72.572304 
L 241.565449 71.160604 
L 252.048744 69.806851 
L 262.532039 68.541702 
L 273.015334 67.330857 
L 283.498629 66.200021 
L 293.981925 65.129552 
L 304.46522 64.066721 
L 314.948515 63.073793 
L 325.43181 62.142221 
L 335.915105 61.245696 
L 346.3984 60.343388 
L 356.881695 59.498891 
L 367.36499 58.677693 
L 377.848285 57.915305 
L 388.331581 57.141745 
L 398.487273 56.416091 
" clip-path="url(#pfe86e22b6d)" style="fill: none; stroke: #000000; stroke-width: 0.1; stroke-linecap: square"/>
    <defs>
     <path id="m564fd7e6ea" d="M 0 -6 
L -1.347084 -1.854102 
L -5.706339 -1.854102 
L -2.179628 0.708204 
L -3.526712 4.854102 
L -0 2.291796 
L 3.526712 4.854102 
L 2.179628 0.708204 
L 5.706339 -1.854102 
L 1.347084 -1.854102 
z
" style="stroke: #000000; stroke-linejoin: bevel"/>
    </defs>
    <g clip-path="url(#pfe86e22b6d)">
     <use xlink:href="#m564fd7e6ea" x="73.832727" y="149.416734" style="fill: #d62728; stroke: #000000; stroke-linejoin: bevel"/>
     <use xlink:href="#m564fd7e6ea" x="84.316022" y="125.380703" style="fill: #d62728; stroke: #000000; stroke-linejoin: bevel"/>
     <use xlink:href="#m564fd7e6ea" x="94.799317" y="114.142804" style="fill: #d62728; stroke: #000000; stroke-linejoin: bevel"/>
     <use xlink:href="#m564fd7e6ea" x="105.282613" y="106.300294" style="fill: #d62728; stroke: #000000; stroke-linejoin: bevel"/>
     <use xlink:href="#m564fd7e6ea" x="115.765908" y="100.714815" style="fill: #d62728; stroke: #000000; stroke-linejoin: bevel"/>
     <use xlink:href="#m564fd7e6ea" x="126.249203" y="96.166697" style="fill: #d62728; stroke: #000000; stroke-linejoin: bevel"/>
     <use xlink:href="#m564fd7e6ea" x="136.732498" y="92.372569" style="fill: #d62728; stroke: #000000; stroke-linejoin: bevel"/>
     <use xlink:href="#m564fd7e6ea" x="147.215793" y="89.097857" style="fill: #d62728; stroke: #000000; stroke-linejoin: bevel"/>
     <use xlink:href="#m564fd7e6ea" x="157.699088" y="86.362545" style="fill: #d62728; stroke: #000000; stroke-linejoin: bevel"/>
     <use xlink:href="#m564fd7e6ea" x="168.182383" y="83.768527" style="fill: #d62728; stroke: #000000; stroke-linejoin: bevel"/>
     <use xlink:href="#m564fd7e6ea" x="178.665678" y="81.422515" style="fill: #d62728; stroke: #000000; stroke-linejoin: bevel"/>
     <use xlink:href="#m564fd7e6ea" x="189.148973" y="79.404159" style="fill: #d62728; stroke: #000000; stroke-linejoin: bevel"/>
     <use xlink:href="#m564fd7e6ea" x="199.632269" y="77.493725" style="fill: #d62728; stroke: #000000; stroke-linejoin: bevel"/>
     <use xlink:href="#m564fd7e6ea" x="210.115564" y="75.716894" style="fill: #d62728; stroke: #000000; stroke-linejoin: bevel"/>
     <use xlink:href="#m564fd7e6ea" x="220.598859" y="74.096061" style="fill: #d62728; stroke: #000000; stroke-linejoin: bevel"/>
     <use xlink:href="#m564fd7e6ea" x="231.082154" y="72.572304" style="fill: #d62728; stroke: #000000; stroke-linejoin: bevel"/>
     <use xlink:href="#m564fd7e6ea" x="241.565449" y="71.160604" style="fill: #d62728; stroke: #000000; stroke-linejoin: bevel"/>
     <use xlink:href="#m564fd7e6ea" x="252.048744" y="69.806851" style="fill: #d62728; stroke: #000000; stroke-linejoin: bevel"/>
     <use xlink:href="#m564fd7e6ea" x="262.532039" y="68.541702" style="fill: #d62728; stroke: #000000; stroke-linejoin: bevel"/>
     <use xlink:href="#m564fd7e6ea" x="273.015334" y="67.330857" style="fill: #d62728; stroke: #000000; stroke-linejoin: bevel"/>
     <use xlink:href="#m564fd7e6ea" x="283.498629" y="66.200021" style="fill: #d62728; stroke: #000000; stroke-linejoin: bevel"/>
     <use xlink:href="#m564fd7e6ea" x="293.981925" y="65.129552" style="fill: #d62728; stroke: #000000; stroke-linejoin: bevel"/>
     <use xlink:href="#m564fd7e6ea" x="304.46522" y="64.066721" style="fill: #d62728; stroke: #000000; stroke-linejoin: bevel"/>
     <use xlink:href="#m564fd7e6ea" x="314.948515" y="63.073793" style="fill: #d62728; stroke: #000000; stroke-linejoin: bevel"/>
     <use xlink:href="#m564fd7e6ea" x="325.43181" y="62.142221" style="fill: #d62728; stroke: #000000; stroke-linejoin: bevel"/>
     <use xlink:href="#m564fd7e6ea" x="335.915105" y="61.245696" style="fill: #d62728; stroke: #000000; stroke-linejoin: bevel"/>
     <use xlink:href="#m564fd7e6ea" x="346.3984" y="60.343388" style="fill: #d62728; stroke: #000000; stroke-linejoin: bevel"/>
     <use xlink:href="#m564fd7e6ea" x="356.881695" y="59.498891" style="fill: #d62728; stroke: #000000; stroke-linejoin: bevel"/>
     <use xlink:href="#m564fd7e6ea" x="367.36499" y="58.677693" style="fill: #d62728; stroke: #000000; stroke-linejoin: bevel"/>
     <use xlink:href="#m564fd7e6ea" x="377.848285" y="57.915305" style="fill: #d62728; stroke: #000000; stroke-linejoin: bevel"/>
     <use xlink:href="#m564fd7e6ea" x="388.331581" y="57.141745" style="fill: #d62728; stroke: #000000; stroke-linejoin: bevel"/>
     <use xlink:href="#m564fd7e6ea" x="398.487273" y="56.416091" style="fill: #d62728; stroke: #000000; stroke-linejoin: bevel"/>
    </g>
   </g>
   <g id="line2d_59">
    <path d="M 57.6 173.845832 
L 414.72 173.845832 
" clip-path="url(#pfe86e22b6d)" style="fill: none; stroke-dasharray: 5.55,2.4; stroke-dashoffset: 0; stroke: #808080; stroke-width: 1.5"/>
   </g>
   <g id="patch_3">
    <path d="M 57.6 293.76 
L 57.6 41.472 
" style="fill: none; stroke: #000000; stroke-width: 0.8; stroke-linejoin: miter; stroke-linecap: square"/>
   </g>
   <g id="patch_4">
    <path d="M 414.72 293.76 
L 414.72 41.472 
" style="fill: none; stroke: #000000; stroke-width: 0.8; stroke-linejoin: miter; stroke-linecap: square"/>
   </g>
   <g id="patch_5">
    <path d="M 57.6 293.76 
L 414.72 293.76 
" style="fill: none; stroke: #000000; stroke-width: 0.8; stroke-linejoin: miter; stroke-linecap: square"/>
   </g>
   <g id="patch_6">
    <path d="M 57.6 41.472 
L 414.72 41.472 
" style="fill: none; stroke: #000000; stroke-width: 0.8; stroke-linejoin: miter; stroke-linecap: square"/>
   </g>
   <g id="text_14">
    <!-- $10^9$ for scale -->
    <g transform="translate(325.43181 189.668572)scale(0.11 -0.11)">
     <defs>
      <path id="DejaVuSans-66" d="M 2375 4863 
L 2375 4384 
L 1825 4384 
Q 1516 4384 1395 4259 
Q 1275 4134 1275 3809 
L 1275 3500 
L 2222 3500 
L 2222 3053 
L 1275 3053 
L 1275 0 
L 697 0 
L 697 3053 
L 147 3053 
L 147 3500 
L 697 3500 
L 697 3744 
Q 697 4328 969 4595 
Q 1241 4863 1831 4863 
L 2375 4863 
z
" transform="scale(0.015625)"/>
      <path id="DejaVuSans-63" d="M 3122 3366 
L 3122 2828 
Q 2878 2963 2633 3030 
Q 2388 3097 2138 3097 
Q 1578 3097 1268 2742 
Q 959 2388 959 1747 
Q 959 1106 1268 751 
Q 1578 397 2138 397 
Q 2388 397 2633 464 
Q 2878 531 3122 666 
L 3122 134 
Q 2881 22 2623 -34 
Q 2366 -91 2075 -91 
Q 1284 -91 818 406 
Q 353 903 353 1747 
Q 353 2603 823 3093 
Q 1294 3584 2113 3584 
Q 2378 3584 2631 3529 
Q 2884 3475 3122 3366 
z
" transform="scale(0.015625)"/>
      <path id="DejaVuSans-6c" d="M 603 4863 
L 1178 4863 
L 1178 0 
L 603 0 
L 603 4863 
z
" transform="scale(0.015625)"/>
     </defs>
     <use xlink:href="#DejaVuSans-31" transform="translate(0 0.765625)"/>
     <use xlink:href="#DejaVuSans-30" transform="translate(63.623047 0.765625)"/>
     <use xlink:href="#DejaVuSans-39" transform="translate(128.203125 39.046875)scale(0.7)"/>
     <use xlink:href="#DejaVuSans-20" transform="translate(175.473633 0.765625)"/>
     <use xlink:href="#DejaVuSans-66" transform="translate(207.260742 0.765625)"/>
     <use xlink:href="#DejaVuSans-6f" transform="translate(242.46582 0.765625)"/>
     <use xlink:href="#DejaVuSans-72" transform="translate(303.647461 0.765625)"/>
     <use xlink:href="#DejaVuSans-20" transform="translate(344.760742 0.765625)"/>
     <use xlink:href="#DejaVuSans-73" transform="translate(376.547852 0.765625)"/>
     <use xlink:href="#DejaVuSans-63" transform="translate(428.647461 0.765625)"/>
     <use xlink:href="#DejaVuSans-61" transform="translate(483.62793 0.765625)"/>
     <use xlink:href="#DejaVuSans-6c" transform="translate(544.907227 0.765625)"/>
     <use xlink:href="#DejaVuSans-65" transform="translate(572.69043 0.765625)"/>
    </g>
   </g>
  </g>
 </g>
 <defs>
  <clipPath id="pfe86e22b6d">
   <rect x="57.6" y="41.472" width="357.12" height="252.288"/>
  </clipPath>
 </defs>
</svg>
