<?xml version="1.0" encoding="utf-8" standalone="no"?>
<!DOCTYPE svg PUBLIC "-//W3C//DTD SVG 1.1//EN"
  "http://www.w3.org/Graphics/SVG/1.1/DTD/svg11.dtd">
<svg xmlns:xlink="http://www.w3.org/1999/xlink" width="921.6pt" height="633.6pt" viewBox="0 0 921.6 633.6" xmlns="http://www.w3.org/2000/svg" version="1.1">
 <metadata>
  <rdf:RDF xmlns:dc="http://purl.org/dc/elements/1.1/" xmlns:cc="http://creativecommons.org/ns#" xmlns:rdf="http://www.w3.org/1999/02/22-rdf-syntax-ns#">
   <cc:Work>
    <dc:type rdf:resource="http://purl.org/dc/dcmitype/StillImage"/>
    <dc:date>2022-11-02T20:32:05.507407</dc:date>
    <dc:format>image/svg+xml</dc:format>
    <dc:creator>
     <cc:Agent>
      <dc:title>Matplotlib v3.5.3, https://matplotlib.org/</dc:title>
     </cc:Agent>
    </dc:creator>
   </cc:Work>
  </rdf:RDF>
 </metadata>
 <defs>
  <style type="text/css">*{stroke-linejoin: round; stroke-linecap: butt}</style>
 </defs>
 <g id="figure_1">
  <g id="patch_1">
   <path d="M 0 633.6 
L 921.6 633.6 
L 921.6 0 
L 0 0 
z
" style="fill: #ffffff"/>
  </g>
  <g id="axes_1">
   <g id="patch_2">
    <path d="M 115.2 563.904 
L 829.44 563.904 
L 829.44 76.032 
L 115.2 76.032 
z
" style="fill: #ffffff"/>
   </g>
   <g id="PolyCollection_1">
    <defs>
     <path id="m342a2ada5e" d="M 147.665455 -91.872 
L 147.665455 -91.872 
L 168.610909 -124.50656 
L 189.556364 -136.655323 
L 210.501818 -141.950094 
L 231.447273 -144.921594 
L 252.392727 -148.258016 
L 273.338182 -150.975553 
L 294.283636 -152.568184 
L 315.229091 -153.576921 
L 336.174545 -152.551884 
L 357.12 -153.807696 
L 378.065455 -154.342731 
L 399.010909 -153.695299 
L 419.956364 -155.853977 
L 440.901818 -155.69278 
L 461.847273 -157.076863 
L 482.792727 -158.071053 
L 503.738182 -158.39528 
L 524.683636 -157.395214 
L 545.629091 -158.253985 
L 566.574545 -156.946993 
L 587.52 -159.131887 
L 608.465455 -159.007703 
L 629.410909 -160.177941 
L 650.356364 -159.588013 
L 671.301818 -160.131624 
L 692.247273 -159.093279 
L 713.192727 -159.709644 
L 734.138182 -160.367838 
L 755.083636 -160.020883 
L 776.029091 -159.131438 
L 796.974545 -160.500229 
L 796.974545 -160.500229 
L 796.974545 -160.500229 
L 776.029091 -159.131438 
L 755.083636 -160.020883 
L 734.138182 -160.367838 
L 713.192727 -159.709644 
L 692.247273 -159.093279 
L 671.301818 -160.131624 
L 650.356364 -159.588013 
L 629.410909 -160.177941 
L 608.465455 -159.007703 
L 587.52 -159.131887 
L 566.574545 -156.946993 
L 545.629091 -158.253985 
L 524.683636 -157.395214 
L 503.738182 -158.39528 
L 482.792727 -158.071053 
L 461.847273 -157.076863 
L 440.901818 -155.69278 
L 419.956364 -155.853977 
L 399.010909 -153.695299 
L 378.065455 -154.342731 
L 357.12 -153.807696 
L 336.174545 -152.551884 
L 315.229091 -153.576921 
L 294.283636 -152.568184 
L 273.338182 -150.975553 
L 252.392727 -148.258016 
L 231.447273 -144.921594 
L 210.501818 -141.950094 
L 189.556364 -136.655323 
L 168.610909 -124.50656 
L 147.665455 -91.872 
z
" style="stroke: #fff8dc; stroke-width: 0.48"/>
    </defs>
    <g clip-path="url(#p2b9ab43d66)">
     <use xlink:href="#m342a2ada5e" x="0" y="633.6" style="fill: #fff8dc; stroke: #fff8dc; stroke-width: 0.48"/>
    </g>
   </g>
   <g id="PolyCollection_2">
    <defs>
     <path id="m685b373d20" d="M 147.665455 -153.470193 
L 147.665455 -153.470193 
L 168.610909 -176.460559 
L 189.556364 -182.746889 
L 210.501818 -184.449671 
L 231.447273 -186.45385 
L 252.392727 -187.950182 
L 273.338182 -190.050334 
L 294.283636 -190.181037 
L 315.229091 -190.305228 
L 336.174545 -191.049336 
L 357.12 -191.048274 
L 378.065455 -191.979205 
L 399.010909 -191.46772 
L 419.956364 -192.158793 
L 440.901818 -192.932735 
L 461.847273 -192.438236 
L 482.792727 -192.287255 
L 503.738182 -191.283389 
L 524.683636 -191.788939 
L 545.629091 -191.838733 
L 566.574545 -192.676602 
L 587.52 -191.902259 
L 608.465455 -192.127505 
L 629.410909 -192.328378 
L 650.356364 -192.436849 
L 671.301818 -192.604982 
L 692.247273 -192.335223 
L 713.192727 -192.023561 
L 734.138182 -192.03318 
L 755.083636 -192.498292 
L 776.029091 -192.611497 
L 796.974545 -192.863783 
L 796.974545 -192.863783 
L 796.974545 -192.863783 
L 776.029091 -192.611497 
L 755.083636 -192.498292 
L 734.138182 -192.03318 
L 713.192727 -192.023561 
L 692.247273 -192.335223 
L 671.301818 -192.604982 
L 650.356364 -192.436849 
L 629.410909 -192.328378 
L 608.465455 -192.127505 
L 587.52 -191.902259 
L 566.574545 -192.676602 
L 545.629091 -191.838733 
L 524.683636 -191.788939 
L 503.738182 -191.283389 
L 482.792727 -192.287255 
L 461.847273 -192.438236 
L 440.901818 -192.932735 
L 419.956364 -192.158793 
L 399.010909 -191.46772 
L 378.065455 -191.979205 
L 357.12 -191.048274 
L 336.174545 -191.049336 
L 315.229091 -190.305228 
L 294.283636 -190.181037 
L 273.338182 -190.050334 
L 252.392727 -187.950182 
L 231.447273 -186.45385 
L 210.501818 -184.449671 
L 189.556364 -182.746889 
L 168.610909 -176.460559 
L 147.665455 -153.470193 
z
" style="stroke: #fff8dc; stroke-width: 0.48"/>
    </defs>
    <g clip-path="url(#p2b9ab43d66)">
     <use xlink:href="#m685b373d20" x="0" y="633.6" style="fill: #fff8dc; stroke: #fff8dc; stroke-width: 0.48"/>
    </g>
   </g>
   <g id="PolyCollection_3">
    <defs>
     <path id="mf50944c2d1" d="M 147.665455 -141.960368 
L 147.665455 -141.960368 
L 168.610909 -157.452796 
L 189.556364 -163.043591 
L 210.501818 -166.667137 
L 231.447273 -167.973049 
L 252.392727 -169.21925 
L 273.338182 -169.690434 
L 294.283636 -170.615053 
L 315.229091 -170.221773 
L 336.174545 -171.097678 
L 357.12 -170.972298 
L 378.065455 -171.584734 
L 399.010909 -171.576583 
L 419.956364 -171.444584 
L 440.901818 -172.371981 
L 461.847273 -172.269833 
L 482.792727 -171.885256 
L 503.738182 -172.081239 
L 524.683636 -172.368439 
L 545.629091 -172.296386 
L 566.574545 -172.652007 
L 587.52 -172.429622 
L 608.465455 -172.418084 
L 629.410909 -172.664288 
L 650.356364 -172.498469 
L 671.301818 -172.84781 
L 692.247273 -172.338591 
L 713.192727 -170.852194 
L 734.138182 -172.516287 
L 755.083636 -172.880969 
L 776.029091 -173.173675 
L 796.974545 -173.131426 
L 796.974545 -173.131426 
L 796.974545 -173.131426 
L 776.029091 -173.173675 
L 755.083636 -172.880969 
L 734.138182 -172.516287 
L 713.192727 -170.852194 
L 692.247273 -172.338591 
L 671.301818 -172.84781 
L 650.356364 -172.498469 
L 629.410909 -172.664288 
L 608.465455 -172.418084 
L 587.52 -172.429622 
L 566.574545 -172.652007 
L 545.629091 -172.296386 
L 524.683636 -172.368439 
L 503.738182 -172.081239 
L 482.792727 -171.885256 
L 461.847273 -172.269833 
L 440.901818 -172.371981 
L 419.956364 -171.444584 
L 399.010909 -171.576583 
L 378.065455 -171.584734 
L 357.12 -170.972298 
L 336.174545 -171.097678 
L 315.229091 -170.221773 
L 294.283636 -170.615053 
L 273.338182 -169.690434 
L 252.392727 -169.21925 
L 231.447273 -167.973049 
L 210.501818 -166.667137 
L 189.556364 -163.043591 
L 168.610909 -157.452796 
L 147.665455 -141.960368 
z
" style="stroke: #fff8dc; stroke-width: 0.48"/>
    </defs>
    <g clip-path="url(#p2b9ab43d66)">
     <use xlink:href="#mf50944c2d1" x="0" y="633.6" style="fill: #fff8dc; stroke: #fff8dc; stroke-width: 0.48"/>
    </g>
   </g>
   <g id="PolyCollection_4">
    <defs>
     <path id="m6dcd67fe14" d="M 147.665455 -418.387522 
L 147.665455 -418.387522 
L 168.610909 -442.960262 
L 189.556364 -465.276636 
L 210.501818 -484.220168 
L 231.447273 -491.063505 
L 252.392727 -493.185977 
L 273.338182 -497.543302 
L 294.283636 -490.490918 
L 315.229091 -508.904323 
L 336.174545 -493.287702 
L 357.12 -485.878104 
L 378.065455 -509.54435 
L 399.010909 -490.189357 
L 419.956364 -504.750149 
L 440.901818 -491.420325 
L 461.847273 -507.470516 
L 482.792727 -487.196592 
L 503.738182 -516.779085 
L 524.683636 -479.293159 
L 545.629091 -496.315087 
L 566.574545 -514.333126 
L 587.52 -520.257246 
L 608.465455 -486.203825 
L 629.410909 -495.323266 
L 650.356364 -519.305063 
L 671.301818 -498.428884 
L 692.247273 -491.888226 
L 713.192727 -513.736221 
L 734.138182 -517.440902 
L 755.083636 -490.809892 
L 776.029091 -501.657008 
L 796.974545 -450.340336 
L 796.974545 -450.340336 
L 796.974545 -514.097476 
L 776.029091 -526.13663 
L 755.083636 -515.348051 
L 734.138182 -529.158841 
L 713.192727 -535.392 
L 692.247273 -523.522748 
L 671.301818 -528.218248 
L 650.356364 -529.736569 
L 629.410909 -533.504211 
L 608.465455 -535.290097 
L 587.52 -531.835116 
L 566.574545 -524.9995 
L 545.629091 -522.093436 
L 524.683636 -523.931649 
L 503.738182 -524.760047 
L 482.792727 -522.828342 
L 461.847273 -532.924781 
L 440.901818 -523.993867 
L 419.956364 -525.263394 
L 399.010909 -519.480412 
L 378.065455 -514.134315 
L 357.12 -523.066273 
L 336.174545 -517.816343 
L 315.229091 -515.525592 
L 294.283636 -515.313541 
L 273.338182 -512.670692 
L 252.392727 -506.430601 
L 231.447273 -502.899106 
L 210.501818 -492.123398 
L 189.556364 -486.433978 
L 168.610909 -474.597523 
L 147.665455 -437.721863 
z
" style="stroke: #fff8dc; stroke-width: 0.48"/>
    </defs>
    <g clip-path="url(#p2b9ab43d66)">
     <use xlink:href="#m6dcd67fe14" x="0" y="633.6" style="fill: #fff8dc; stroke: #fff8dc; stroke-width: 0.48"/>
    </g>
   </g>
   <g id="PolyCollection_5">
    <defs>
     <path id="meb322af02d" d="M 147.665455 -377.445385 
L 147.665455 -377.445385 
L 168.610909 -387.512304 
L 189.556364 -390.013776 
L 210.501818 -391.152654 
L 231.447273 -391.804622 
L 252.392727 -392.14885 
L 273.338182 -392.468545 
L 294.283636 -392.671836 
L 315.229091 -392.823857 
L 336.174545 -392.852313 
L 357.12 -392.994759 
L 378.065455 -393.080695 
L 399.010909 -393.153655 
L 419.956364 -393.212541 
L 440.901818 -393.270469 
L 461.847273 -393.317326 
L 482.792727 -393.366006 
L 503.738182 -393.306652 
L 524.683636 -393.376994 
L 545.629091 -393.414665 
L 566.574545 -393.450652 
L 587.52 -393.461871 
L 608.465455 -393.495765 
L 629.410909 -393.5235 
L 650.356364 -393.556706 
L 671.301818 -393.545012 
L 692.247273 -393.575949 
L 713.192727 -393.59904 
L 734.138182 -393.634615 
L 755.083636 -393.645054 
L 776.029091 -393.683244 
L 796.974545 -393.714757 
L 796.974545 -393.714757 
L 796.974545 -393.714757 
L 776.029091 -393.683244 
L 755.083636 -393.645054 
L 734.138182 -393.634615 
L 713.192727 -393.59904 
L 692.247273 -393.575949 
L 671.301818 -393.545012 
L 650.356364 -393.556706 
L 629.410909 -393.5235 
L 608.465455 -393.495765 
L 587.52 -393.461871 
L 566.574545 -393.450652 
L 545.629091 -393.414665 
L 524.683636 -393.376994 
L 503.738182 -393.306652 
L 482.792727 -393.366006 
L 461.847273 -393.317326 
L 440.901818 -393.270469 
L 419.956364 -393.212541 
L 399.010909 -393.153655 
L 378.065455 -393.080695 
L 357.12 -392.994759 
L 336.174545 -392.852313 
L 315.229091 -392.823857 
L 294.283636 -392.671836 
L 273.338182 -392.468545 
L 252.392727 -392.14885 
L 231.447273 -391.804622 
L 210.501818 -391.152654 
L 189.556364 -390.013776 
L 168.610909 -387.512304 
L 147.665455 -377.445385 
z
" style="stroke: #fff8dc; stroke-width: 0.48"/>
    </defs>
    <g clip-path="url(#p2b9ab43d66)">
     <use xlink:href="#meb322af02d" x="0" y="633.6" style="fill: #fff8dc; stroke: #fff8dc; stroke-width: 0.48"/>
    </g>
   </g>
   <g id="matplotlib.axis_1">
    <g id="xtick_1">
     <g id="line2d_1">
      <defs>
       <path id="mb9b3081076" d="M 0 0 
L 0 3.5 
" style="stroke: #000000; stroke-width: 1.6"/>
      </defs>
      <g>
       <use xlink:href="#mb9b3081076" x="147.665455" y="563.904" style="stroke: #000000; stroke-width: 1.6"/>
      </g>
     </g>
     <g id="text_1">
      <!-- 1, 32 -->
      <g transform="translate(133.671392 586.962281)scale(0.11 -0.11)">
       <defs>
        <path id="DejaVuSans-31" d="M 794 531 
L 1825 531 
L 1825 4091 
L 703 3866 
L 703 4441 
L 1819 4666 
L 2450 4666 
L 2450 531 
L 3481 531 
L 3481 0 
L 794 0 
L 794 531 
z
" transform="scale(0.015625)"/>
        <path id="DejaVuSans-2c" d="M 750 794 
L 1409 794 
L 1409 256 
L 897 -744 
L 494 -744 
L 750 256 
L 750 794 
z
" transform="scale(0.015625)"/>
        <path id="DejaVuSans-20" transform="scale(0.015625)"/>
        <path id="DejaVuSans-33" d="M 2597 2516 
Q 3050 2419 3304 2112 
Q 3559 1806 3559 1356 
Q 3559 666 3084 287 
Q 2609 -91 1734 -91 
Q 1441 -91 1130 -33 
Q 819 25 488 141 
L 488 750 
Q 750 597 1062 519 
Q 1375 441 1716 441 
Q 2309 441 2620 675 
Q 2931 909 2931 1356 
Q 2931 1769 2642 2001 
Q 2353 2234 1838 2234 
L 1294 2234 
L 1294 2753 
L 1863 2753 
Q 2328 2753 2575 2939 
Q 2822 3125 2822 3475 
Q 2822 3834 2567 4026 
Q 2313 4219 1838 4219 
Q 1578 4219 1281 4162 
Q 984 4106 628 3988 
L 628 4550 
Q 988 4650 1302 4700 
Q 1616 4750 1894 4750 
Q 2613 4750 3031 4423 
Q 3450 4097 3450 3541 
Q 3450 3153 3228 2886 
Q 3006 2619 2597 2516 
z
" transform="scale(0.015625)"/>
        <path id="DejaVuSans-32" d="M 1228 531 
L 3431 531 
L 3431 0 
L 469 0 
L 469 531 
Q 828 903 1448 1529 
Q 2069 2156 2228 2338 
Q 2531 2678 2651 2914 
Q 2772 3150 2772 3378 
Q 2772 3750 2511 3984 
Q 2250 4219 1831 4219 
Q 1534 4219 1204 4116 
Q 875 4013 500 3803 
L 500 4441 
Q 881 4594 1212 4672 
Q 1544 4750 1819 4750 
Q 2544 4750 2975 4387 
Q 3406 4025 3406 3419 
Q 3406 3131 3298 2873 
Q 3191 2616 2906 2266 
Q 2828 2175 2409 1742 
Q 1991 1309 1228 531 
z
" transform="scale(0.015625)"/>
       </defs>
       <use xlink:href="#DejaVuSans-31"/>
       <use xlink:href="#DejaVuSans-2c" x="63.623047"/>
       <use xlink:href="#DejaVuSans-20" x="95.410156"/>
       <use xlink:href="#DejaVuSans-33" x="127.197266"/>
       <use xlink:href="#DejaVuSans-32" x="190.820312"/>
      </g>
     </g>
    </g>
    <g id="xtick_2">
     <g id="line2d_2">
      <g>
       <use xlink:href="#mb9b3081076" x="273.338182" y="563.904" style="stroke: #000000; stroke-width: 1.6"/>
      </g>
     </g>
     <g id="text_2">
      <!-- 7, 224 -->
      <g transform="translate(255.844744 586.962281)scale(0.11 -0.11)">
       <defs>
        <path id="DejaVuSans-37" d="M 525 4666 
L 3525 4666 
L 3525 4397 
L 1831 0 
L 1172 0 
L 2766 4134 
L 525 4134 
L 525 4666 
z
" transform="scale(0.015625)"/>
        <path id="DejaVuSans-34" d="M 2419 4116 
L 825 1625 
L 2419 1625 
L 2419 4116 
z
M 2253 4666 
L 3047 4666 
L 3047 1625 
L 3713 1625 
L 3713 1100 
L 3047 1100 
L 3047 0 
L 2419 0 
L 2419 1100 
L 313 1100 
L 313 1709 
L 2253 4666 
z
" transform="scale(0.015625)"/>
       </defs>
       <use xlink:href="#DejaVuSans-37"/>
       <use xlink:href="#DejaVuSans-2c" x="63.623047"/>
       <use xlink:href="#DejaVuSans-20" x="95.410156"/>
       <use xlink:href="#DejaVuSans-32" x="127.197266"/>
       <use xlink:href="#DejaVuSans-32" x="190.820312"/>
       <use xlink:href="#DejaVuSans-34" x="254.443359"/>
      </g>
     </g>
    </g>
    <g id="xtick_3">
     <g id="line2d_3">
      <g>
       <use xlink:href="#mb9b3081076" x="399.010909" y="563.904" style="stroke: #000000; stroke-width: 1.6"/>
      </g>
     </g>
     <g id="text_3">
      <!-- 13, 416 -->
      <g transform="translate(378.018097 586.962281)scale(0.11 -0.11)">
       <defs>
        <path id="DejaVuSans-36" d="M 2113 2584 
Q 1688 2584 1439 2293 
Q 1191 2003 1191 1497 
Q 1191 994 1439 701 
Q 1688 409 2113 409 
Q 2538 409 2786 701 
Q 3034 994 3034 1497 
Q 3034 2003 2786 2293 
Q 2538 2584 2113 2584 
z
M 3366 4563 
L 3366 3988 
Q 3128 4100 2886 4159 
Q 2644 4219 2406 4219 
Q 1781 4219 1451 3797 
Q 1122 3375 1075 2522 
Q 1259 2794 1537 2939 
Q 1816 3084 2150 3084 
Q 2853 3084 3261 2657 
Q 3669 2231 3669 1497 
Q 3669 778 3244 343 
Q 2819 -91 2113 -91 
Q 1303 -91 875 529 
Q 447 1150 447 2328 
Q 447 3434 972 4092 
Q 1497 4750 2381 4750 
Q 2619 4750 2861 4703 
Q 3103 4656 3366 4563 
z
" transform="scale(0.015625)"/>
       </defs>
       <use xlink:href="#DejaVuSans-31"/>
       <use xlink:href="#DejaVuSans-33" x="63.623047"/>
       <use xlink:href="#DejaVuSans-2c" x="127.246094"/>
       <use xlink:href="#DejaVuSans-20" x="159.033203"/>
       <use xlink:href="#DejaVuSans-34" x="190.820312"/>
       <use xlink:href="#DejaVuSans-31" x="254.443359"/>
       <use xlink:href="#DejaVuSans-36" x="318.066406"/>
      </g>
     </g>
    </g>
    <g id="xtick_4">
     <g id="line2d_4">
      <g>
       <use xlink:href="#mb9b3081076" x="524.683636" y="563.904" style="stroke: #000000; stroke-width: 1.6"/>
      </g>
     </g>
     <g id="text_4">
      <!-- 19, 608 -->
      <g transform="translate(503.690824 586.962281)scale(0.11 -0.11)">
       <defs>
        <path id="DejaVuSans-39" d="M 703 97 
L 703 672 
Q 941 559 1184 500 
Q 1428 441 1663 441 
Q 2288 441 2617 861 
Q 2947 1281 2994 2138 
Q 2813 1869 2534 1725 
Q 2256 1581 1919 1581 
Q 1219 1581 811 2004 
Q 403 2428 403 3163 
Q 403 3881 828 4315 
Q 1253 4750 1959 4750 
Q 2769 4750 3195 4129 
Q 3622 3509 3622 2328 
Q 3622 1225 3098 567 
Q 2575 -91 1691 -91 
Q 1453 -91 1209 -44 
Q 966 3 703 97 
z
M 1959 2075 
Q 2384 2075 2632 2365 
Q 2881 2656 2881 3163 
Q 2881 3666 2632 3958 
Q 2384 4250 1959 4250 
Q 1534 4250 1286 3958 
Q 1038 3666 1038 3163 
Q 1038 2656 1286 2365 
Q 1534 2075 1959 2075 
z
" transform="scale(0.015625)"/>
        <path id="DejaVuSans-30" d="M 2034 4250 
Q 1547 4250 1301 3770 
Q 1056 3291 1056 2328 
Q 1056 1369 1301 889 
Q 1547 409 2034 409 
Q 2525 409 2770 889 
Q 3016 1369 3016 2328 
Q 3016 3291 2770 3770 
Q 2525 4250 2034 4250 
z
M 2034 4750 
Q 2819 4750 3233 4129 
Q 3647 3509 3647 2328 
Q 3647 1150 3233 529 
Q 2819 -91 2034 -91 
Q 1250 -91 836 529 
Q 422 1150 422 2328 
Q 422 3509 836 4129 
Q 1250 4750 2034 4750 
z
" transform="scale(0.015625)"/>
        <path id="DejaVuSans-38" d="M 2034 2216 
Q 1584 2216 1326 1975 
Q 1069 1734 1069 1313 
Q 1069 891 1326 650 
Q 1584 409 2034 409 
Q 2484 409 2743 651 
Q 3003 894 3003 1313 
Q 3003 1734 2745 1975 
Q 2488 2216 2034 2216 
z
M 1403 2484 
Q 997 2584 770 2862 
Q 544 3141 544 3541 
Q 544 4100 942 4425 
Q 1341 4750 2034 4750 
Q 2731 4750 3128 4425 
Q 3525 4100 3525 3541 
Q 3525 3141 3298 2862 
Q 3072 2584 2669 2484 
Q 3125 2378 3379 2068 
Q 3634 1759 3634 1313 
Q 3634 634 3220 271 
Q 2806 -91 2034 -91 
Q 1263 -91 848 271 
Q 434 634 434 1313 
Q 434 1759 690 2068 
Q 947 2378 1403 2484 
z
M 1172 3481 
Q 1172 3119 1398 2916 
Q 1625 2713 2034 2713 
Q 2441 2713 2670 2916 
Q 2900 3119 2900 3481 
Q 2900 3844 2670 4047 
Q 2441 4250 2034 4250 
Q 1625 4250 1398 4047 
Q 1172 3844 1172 3481 
z
" transform="scale(0.015625)"/>
       </defs>
       <use xlink:href="#DejaVuSans-31"/>
       <use xlink:href="#DejaVuSans-39" x="63.623047"/>
       <use xlink:href="#DejaVuSans-2c" x="127.246094"/>
       <use xlink:href="#DejaVuSans-20" x="159.033203"/>
       <use xlink:href="#DejaVuSans-36" x="190.820312"/>
       <use xlink:href="#DejaVuSans-30" x="254.443359"/>
       <use xlink:href="#DejaVuSans-38" x="318.066406"/>
      </g>
     </g>
    </g>
    <g id="xtick_5">
     <g id="line2d_5">
      <g>
       <use xlink:href="#mb9b3081076" x="650.356364" y="563.904" style="stroke: #000000; stroke-width: 1.6"/>
      </g>
     </g>
     <g id="text_5">
      <!-- 25, 800 -->
      <g transform="translate(629.363551 586.962281)scale(0.11 -0.11)">
       <defs>
        <path id="DejaVuSans-35" d="M 691 4666 
L 3169 4666 
L 3169 4134 
L 1269 4134 
L 1269 2991 
Q 1406 3038 1543 3061 
Q 1681 3084 1819 3084 
Q 2600 3084 3056 2656 
Q 3513 2228 3513 1497 
Q 3513 744 3044 326 
Q 2575 -91 1722 -91 
Q 1428 -91 1123 -41 
Q 819 9 494 109 
L 494 744 
Q 775 591 1075 516 
Q 1375 441 1709 441 
Q 2250 441 2565 725 
Q 2881 1009 2881 1497 
Q 2881 1984 2565 2268 
Q 2250 2553 1709 2553 
Q 1456 2553 1204 2497 
Q 953 2441 691 2322 
L 691 4666 
z
" transform="scale(0.015625)"/>
       </defs>
       <use xlink:href="#DejaVuSans-32"/>
       <use xlink:href="#DejaVuSans-35" x="63.623047"/>
       <use xlink:href="#DejaVuSans-2c" x="127.246094"/>
       <use xlink:href="#DejaVuSans-20" x="159.033203"/>
       <use xlink:href="#DejaVuSans-38" x="190.820312"/>
       <use xlink:href="#DejaVuSans-30" x="254.443359"/>
       <use xlink:href="#DejaVuSans-30" x="318.066406"/>
      </g>
     </g>
    </g>
    <g id="xtick_6">
     <g id="line2d_6">
      <g>
       <use xlink:href="#mb9b3081076" x="776.029091" y="563.904" style="stroke: #000000; stroke-width: 1.6"/>
      </g>
     </g>
     <g id="text_6">
      <!-- 31, 992 -->
      <g transform="translate(755.036278 586.962281)scale(0.11 -0.11)">
       <use xlink:href="#DejaVuSans-33"/>
       <use xlink:href="#DejaVuSans-31" x="63.623047"/>
       <use xlink:href="#DejaVuSans-2c" x="127.246094"/>
       <use xlink:href="#DejaVuSans-20" x="159.033203"/>
       <use xlink:href="#DejaVuSans-39" x="190.820312"/>
       <use xlink:href="#DejaVuSans-39" x="254.443359"/>
       <use xlink:href="#DejaVuSans-32" x="318.066406"/>
      </g>
     </g>
    </g>
    <g id="text_7">
     <!-- Bin number, maximum program size -->
     <g transform="translate(343.975 603.88775)scale(0.14 -0.14)">
      <defs>
       <path id="DejaVuSans-42" d="M 1259 2228 
L 1259 519 
L 2272 519 
Q 2781 519 3026 730 
Q 3272 941 3272 1375 
Q 3272 1813 3026 2020 
Q 2781 2228 2272 2228 
L 1259 2228 
z
M 1259 4147 
L 1259 2741 
L 2194 2741 
Q 2656 2741 2882 2914 
Q 3109 3088 3109 3444 
Q 3109 3797 2882 3972 
Q 2656 4147 2194 4147 
L 1259 4147 
z
M 628 4666 
L 2241 4666 
Q 2963 4666 3353 4366 
Q 3744 4066 3744 3513 
Q 3744 3084 3544 2831 
Q 3344 2578 2956 2516 
Q 3422 2416 3680 2098 
Q 3938 1781 3938 1306 
Q 3938 681 3513 340 
Q 3088 0 2303 0 
L 628 0 
L 628 4666 
z
" transform="scale(0.015625)"/>
       <path id="DejaVuSans-69" d="M 603 3500 
L 1178 3500 
L 1178 0 
L 603 0 
L 603 3500 
z
M 603 4863 
L 1178 4863 
L 1178 4134 
L 603 4134 
L 603 4863 
z
" transform="scale(0.015625)"/>
       <path id="DejaVuSans-6e" d="M 3513 2113 
L 3513 0 
L 2938 0 
L 2938 2094 
Q 2938 2591 2744 2837 
Q 2550 3084 2163 3084 
Q 1697 3084 1428 2787 
Q 1159 2491 1159 1978 
L 1159 0 
L 581 0 
L 581 3500 
L 1159 3500 
L 1159 2956 
Q 1366 3272 1645 3428 
Q 1925 3584 2291 3584 
Q 2894 3584 3203 3211 
Q 3513 2838 3513 2113 
z
" transform="scale(0.015625)"/>
       <path id="DejaVuSans-75" d="M 544 1381 
L 544 3500 
L 1119 3500 
L 1119 1403 
Q 1119 906 1312 657 
Q 1506 409 1894 409 
Q 2359 409 2629 706 
Q 2900 1003 2900 1516 
L 2900 3500 
L 3475 3500 
L 3475 0 
L 2900 0 
L 2900 538 
Q 2691 219 2414 64 
Q 2138 -91 1772 -91 
Q 1169 -91 856 284 
Q 544 659 544 1381 
z
M 1991 3584 
L 1991 3584 
z
" transform="scale(0.015625)"/>
       <path id="DejaVuSans-6d" d="M 3328 2828 
Q 3544 3216 3844 3400 
Q 4144 3584 4550 3584 
Q 5097 3584 5394 3201 
Q 5691 2819 5691 2113 
L 5691 0 
L 5113 0 
L 5113 2094 
Q 5113 2597 4934 2840 
Q 4756 3084 4391 3084 
Q 3944 3084 3684 2787 
Q 3425 2491 3425 1978 
L 3425 0 
L 2847 0 
L 2847 2094 
Q 2847 2600 2669 2842 
Q 2491 3084 2119 3084 
Q 1678 3084 1418 2786 
Q 1159 2488 1159 1978 
L 1159 0 
L 581 0 
L 581 3500 
L 1159 3500 
L 1159 2956 
Q 1356 3278 1631 3431 
Q 1906 3584 2284 3584 
Q 2666 3584 2933 3390 
Q 3200 3197 3328 2828 
z
" transform="scale(0.015625)"/>
       <path id="DejaVuSans-62" d="M 3116 1747 
Q 3116 2381 2855 2742 
Q 2594 3103 2138 3103 
Q 1681 3103 1420 2742 
Q 1159 2381 1159 1747 
Q 1159 1113 1420 752 
Q 1681 391 2138 391 
Q 2594 391 2855 752 
Q 3116 1113 3116 1747 
z
M 1159 2969 
Q 1341 3281 1617 3432 
Q 1894 3584 2278 3584 
Q 2916 3584 3314 3078 
Q 3713 2572 3713 1747 
Q 3713 922 3314 415 
Q 2916 -91 2278 -91 
Q 1894 -91 1617 61 
Q 1341 213 1159 525 
L 1159 0 
L 581 0 
L 581 4863 
L 1159 4863 
L 1159 2969 
z
" transform="scale(0.015625)"/>
       <path id="DejaVuSans-65" d="M 3597 1894 
L 3597 1613 
L 953 1613 
Q 991 1019 1311 708 
Q 1631 397 2203 397 
Q 2534 397 2845 478 
Q 3156 559 3463 722 
L 3463 178 
Q 3153 47 2828 -22 
Q 2503 -91 2169 -91 
Q 1331 -91 842 396 
Q 353 884 353 1716 
Q 353 2575 817 3079 
Q 1281 3584 2069 3584 
Q 2775 3584 3186 3129 
Q 3597 2675 3597 1894 
z
M 3022 2063 
Q 3016 2534 2758 2815 
Q 2500 3097 2075 3097 
Q 1594 3097 1305 2825 
Q 1016 2553 972 2059 
L 3022 2063 
z
" transform="scale(0.015625)"/>
       <path id="DejaVuSans-72" d="M 2631 2963 
Q 2534 3019 2420 3045 
Q 2306 3072 2169 3072 
Q 1681 3072 1420 2755 
Q 1159 2438 1159 1844 
L 1159 0 
L 581 0 
L 581 3500 
L 1159 3500 
L 1159 2956 
Q 1341 3275 1631 3429 
Q 1922 3584 2338 3584 
Q 2397 3584 2469 3576 
Q 2541 3569 2628 3553 
L 2631 2963 
z
" transform="scale(0.015625)"/>
       <path id="DejaVuSans-61" d="M 2194 1759 
Q 1497 1759 1228 1600 
Q 959 1441 959 1056 
Q 959 750 1161 570 
Q 1363 391 1709 391 
Q 2188 391 2477 730 
Q 2766 1069 2766 1631 
L 2766 1759 
L 2194 1759 
z
M 3341 1997 
L 3341 0 
L 2766 0 
L 2766 531 
Q 2569 213 2275 61 
Q 1981 -91 1556 -91 
Q 1019 -91 701 211 
Q 384 513 384 1019 
Q 384 1609 779 1909 
Q 1175 2209 1959 2209 
L 2766 2209 
L 2766 2266 
Q 2766 2663 2505 2880 
Q 2244 3097 1772 3097 
Q 1472 3097 1187 3025 
Q 903 2953 641 2809 
L 641 3341 
Q 956 3463 1253 3523 
Q 1550 3584 1831 3584 
Q 2591 3584 2966 3190 
Q 3341 2797 3341 1997 
z
" transform="scale(0.015625)"/>
       <path id="DejaVuSans-78" d="M 3513 3500 
L 2247 1797 
L 3578 0 
L 2900 0 
L 1881 1375 
L 863 0 
L 184 0 
L 1544 1831 
L 300 3500 
L 978 3500 
L 1906 2253 
L 2834 3500 
L 3513 3500 
z
" transform="scale(0.015625)"/>
       <path id="DejaVuSans-70" d="M 1159 525 
L 1159 -1331 
L 581 -1331 
L 581 3500 
L 1159 3500 
L 1159 2969 
Q 1341 3281 1617 3432 
Q 1894 3584 2278 3584 
Q 2916 3584 3314 3078 
Q 3713 2572 3713 1747 
Q 3713 922 3314 415 
Q 2916 -91 2278 -91 
Q 1894 -91 1617 61 
Q 1341 213 1159 525 
z
M 3116 1747 
Q 3116 2381 2855 2742 
Q 2594 3103 2138 3103 
Q 1681 3103 1420 2742 
Q 1159 2381 1159 1747 
Q 1159 1113 1420 752 
Q 1681 391 2138 391 
Q 2594 391 2855 752 
Q 3116 1113 3116 1747 
z
" transform="scale(0.015625)"/>
       <path id="DejaVuSans-6f" d="M 1959 3097 
Q 1497 3097 1228 2736 
Q 959 2375 959 1747 
Q 959 1119 1226 758 
Q 1494 397 1959 397 
Q 2419 397 2687 759 
Q 2956 1122 2956 1747 
Q 2956 2369 2687 2733 
Q 2419 3097 1959 3097 
z
M 1959 3584 
Q 2709 3584 3137 3096 
Q 3566 2609 3566 1747 
Q 3566 888 3137 398 
Q 2709 -91 1959 -91 
Q 1206 -91 779 398 
Q 353 888 353 1747 
Q 353 2609 779 3096 
Q 1206 3584 1959 3584 
z
" transform="scale(0.015625)"/>
       <path id="DejaVuSans-67" d="M 2906 1791 
Q 2906 2416 2648 2759 
Q 2391 3103 1925 3103 
Q 1463 3103 1205 2759 
Q 947 2416 947 1791 
Q 947 1169 1205 825 
Q 1463 481 1925 481 
Q 2391 481 2648 825 
Q 2906 1169 2906 1791 
z
M 3481 434 
Q 3481 -459 3084 -895 
Q 2688 -1331 1869 -1331 
Q 1566 -1331 1297 -1286 
Q 1028 -1241 775 -1147 
L 775 -588 
Q 1028 -725 1275 -790 
Q 1522 -856 1778 -856 
Q 2344 -856 2625 -561 
Q 2906 -266 2906 331 
L 2906 616 
Q 2728 306 2450 153 
Q 2172 0 1784 0 
Q 1141 0 747 490 
Q 353 981 353 1791 
Q 353 2603 747 3093 
Q 1141 3584 1784 3584 
Q 2172 3584 2450 3431 
Q 2728 3278 2906 2969 
L 2906 3500 
L 3481 3500 
L 3481 434 
z
" transform="scale(0.015625)"/>
       <path id="DejaVuSans-73" d="M 2834 3397 
L 2834 2853 
Q 2591 2978 2328 3040 
Q 2066 3103 1784 3103 
Q 1356 3103 1142 2972 
Q 928 2841 928 2578 
Q 928 2378 1081 2264 
Q 1234 2150 1697 2047 
L 1894 2003 
Q 2506 1872 2764 1633 
Q 3022 1394 3022 966 
Q 3022 478 2636 193 
Q 2250 -91 1575 -91 
Q 1294 -91 989 -36 
Q 684 19 347 128 
L 347 722 
Q 666 556 975 473 
Q 1284 391 1588 391 
Q 1994 391 2212 530 
Q 2431 669 2431 922 
Q 2431 1156 2273 1281 
Q 2116 1406 1581 1522 
L 1381 1569 
Q 847 1681 609 1914 
Q 372 2147 372 2553 
Q 372 3047 722 3315 
Q 1072 3584 1716 3584 
Q 2034 3584 2315 3537 
Q 2597 3491 2834 3397 
z
" transform="scale(0.015625)"/>
       <path id="DejaVuSans-7a" d="M 353 3500 
L 3084 3500 
L 3084 2975 
L 922 459 
L 3084 459 
L 3084 0 
L 275 0 
L 275 525 
L 2438 3041 
L 353 3041 
L 353 3500 
z
" transform="scale(0.015625)"/>
      </defs>
      <use xlink:href="#DejaVuSans-42"/>
      <use xlink:href="#DejaVuSans-69" x="68.603516"/>
      <use xlink:href="#DejaVuSans-6e" x="96.386719"/>
      <use xlink:href="#DejaVuSans-20" x="159.765625"/>
      <use xlink:href="#DejaVuSans-6e" x="191.552734"/>
      <use xlink:href="#DejaVuSans-75" x="254.931641"/>
      <use xlink:href="#DejaVuSans-6d" x="318.310547"/>
      <use xlink:href="#DejaVuSans-62" x="415.722656"/>
      <use xlink:href="#DejaVuSans-65" x="479.199219"/>
      <use xlink:href="#DejaVuSans-72" x="540.722656"/>
      <use xlink:href="#DejaVuSans-2c" x="581.835938"/>
      <use xlink:href="#DejaVuSans-20" x="613.623047"/>
      <use xlink:href="#DejaVuSans-6d" x="645.410156"/>
      <use xlink:href="#DejaVuSans-61" x="742.822266"/>
      <use xlink:href="#DejaVuSans-78" x="804.101562"/>
      <use xlink:href="#DejaVuSans-69" x="863.28125"/>
      <use xlink:href="#DejaVuSans-6d" x="891.064453"/>
      <use xlink:href="#DejaVuSans-75" x="988.476562"/>
      <use xlink:href="#DejaVuSans-6d" x="1051.855469"/>
      <use xlink:href="#DejaVuSans-20" x="1149.267578"/>
      <use xlink:href="#DejaVuSans-70" x="1181.054688"/>
      <use xlink:href="#DejaVuSans-72" x="1244.53125"/>
      <use xlink:href="#DejaVuSans-6f" x="1283.394531"/>
      <use xlink:href="#DejaVuSans-67" x="1344.576172"/>
      <use xlink:href="#DejaVuSans-72" x="1408.052734"/>
      <use xlink:href="#DejaVuSans-61" x="1449.166016"/>
      <use xlink:href="#DejaVuSans-6d" x="1510.445312"/>
      <use xlink:href="#DejaVuSans-20" x="1607.857422"/>
      <use xlink:href="#DejaVuSans-73" x="1639.644531"/>
      <use xlink:href="#DejaVuSans-69" x="1691.744141"/>
      <use xlink:href="#DejaVuSans-7a" x="1719.527344"/>
      <use xlink:href="#DejaVuSans-65" x="1772.017578"/>
     </g>
    </g>
   </g>
   <g id="matplotlib.axis_2">
    <g id="ytick_1">
     <g id="line2d_7">
      <defs>
       <path id="me438cb3135" d="M 0 0 
L -3.5 0 
" style="stroke: #000000; stroke-width: 1.6"/>
      </defs>
      <g>
       <use xlink:href="#me438cb3135" x="115.2" y="481.366063" style="stroke: #000000; stroke-width: 1.6"/>
      </g>
     </g>
     <g id="text_8">
      <!-- $\mathdefault{10^{7}}$ -->
      <g transform="translate(81.14 485.545203)scale(0.11 -0.11)">
       <use xlink:href="#DejaVuSans-31" transform="translate(0 0.684375)"/>
       <use xlink:href="#DejaVuSans-30" transform="translate(63.623047 0.684375)"/>
       <use xlink:href="#DejaVuSans-37" transform="translate(128.203125 38.965625)scale(0.7)"/>
      </g>
     </g>
    </g>
    <g id="ytick_2">
     <g id="line2d_8">
      <g>
       <use xlink:href="#me438cb3135" x="115.2" y="376.774813" style="stroke: #000000; stroke-width: 1.6"/>
      </g>
     </g>
     <g id="text_9">
      <!-- $\mathdefault{10^{8}}$ -->
      <g transform="translate(81.14 380.953953)scale(0.11 -0.11)">
       <use xlink:href="#DejaVuSans-31" transform="translate(0 0.765625)"/>
       <use xlink:href="#DejaVuSans-30" transform="translate(63.623047 0.765625)"/>
       <use xlink:href="#DejaVuSans-38" transform="translate(128.203125 39.046875)scale(0.7)"/>
      </g>
     </g>
    </g>
    <g id="ytick_3">
     <g id="line2d_9">
      <g>
       <use xlink:href="#me438cb3135" x="115.2" y="272.183563" style="stroke: #000000; stroke-width: 1.6"/>
      </g>
     </g>
     <g id="text_10">
      <!-- $\mathdefault{10^{9}}$ -->
      <g transform="translate(81.14 276.362703)scale(0.11 -0.11)">
       <use xlink:href="#DejaVuSans-31" transform="translate(0 0.765625)"/>
       <use xlink:href="#DejaVuSans-30" transform="translate(63.623047 0.765625)"/>
       <use xlink:href="#DejaVuSans-39" transform="translate(128.203125 39.046875)scale(0.7)"/>
      </g>
     </g>
    </g>
    <g id="ytick_4">
     <g id="line2d_10">
      <g>
       <use xlink:href="#me438cb3135" x="115.2" y="167.592313" style="stroke: #000000; stroke-width: 1.6"/>
      </g>
     </g>
     <g id="text_11">
      <!-- $\mathdefault{10^{10}}$ -->
      <g transform="translate(76.19 171.771453)scale(0.11 -0.11)">
       <use xlink:href="#DejaVuSans-31" transform="translate(0 0.765625)"/>
       <use xlink:href="#DejaVuSans-30" transform="translate(63.623047 0.765625)"/>
       <use xlink:href="#DejaVuSans-31" transform="translate(128.203125 39.046875)scale(0.7)"/>
       <use xlink:href="#DejaVuSans-30" transform="translate(172.739258 39.046875)scale(0.7)"/>
      </g>
     </g>
    </g>
    <g id="ytick_5">
     <g id="line2d_11">
      <defs>
       <path id="m339eb8cb19" d="M 0 0 
L -2 0 
" style="stroke: #000000; stroke-width: 0.8"/>
      </defs>
      <g>
       <use xlink:href="#m339eb8cb19" x="115.2" y="554.472209" style="stroke: #000000; stroke-width: 0.8"/>
      </g>
     </g>
    </g>
    <g id="ytick_6">
     <g id="line2d_12">
      <g>
       <use xlink:href="#m339eb8cb19" x="115.2" y="536.054604" style="stroke: #000000; stroke-width: 0.8"/>
      </g>
     </g>
    </g>
    <g id="ytick_7">
     <g id="line2d_13">
      <g>
       <use xlink:href="#m339eb8cb19" x="115.2" y="522.987106" style="stroke: #000000; stroke-width: 0.8"/>
      </g>
     </g>
    </g>
    <g id="ytick_8">
     <g id="line2d_14">
      <g>
       <use xlink:href="#m339eb8cb19" x="115.2" y="512.851166" style="stroke: #000000; stroke-width: 0.8"/>
      </g>
     </g>
    </g>
    <g id="ytick_9">
     <g id="line2d_15">
      <g>
       <use xlink:href="#m339eb8cb19" x="115.2" y="504.569501" style="stroke: #000000; stroke-width: 0.8"/>
      </g>
     </g>
    </g>
    <g id="ytick_10">
     <g id="line2d_16">
      <g>
       <use xlink:href="#m339eb8cb19" x="115.2" y="497.567452" style="stroke: #000000; stroke-width: 0.8"/>
      </g>
     </g>
    </g>
    <g id="ytick_11">
     <g id="line2d_17">
      <g>
       <use xlink:href="#m339eb8cb19" x="115.2" y="491.502002" style="stroke: #000000; stroke-width: 0.8"/>
      </g>
     </g>
    </g>
    <g id="ytick_12">
     <g id="line2d_18">
      <g>
       <use xlink:href="#m339eb8cb19" x="115.2" y="486.151896" style="stroke: #000000; stroke-width: 0.8"/>
      </g>
     </g>
    </g>
    <g id="ytick_13">
     <g id="line2d_19">
      <g>
       <use xlink:href="#m339eb8cb19" x="115.2" y="449.880959" style="stroke: #000000; stroke-width: 0.8"/>
      </g>
     </g>
    </g>
    <g id="ytick_14">
     <g id="line2d_20">
      <g>
       <use xlink:href="#m339eb8cb19" x="115.2" y="431.463354" style="stroke: #000000; stroke-width: 0.8"/>
      </g>
     </g>
    </g>
    <g id="ytick_15">
     <g id="line2d_21">
      <g>
       <use xlink:href="#m339eb8cb19" x="115.2" y="418.395856" style="stroke: #000000; stroke-width: 0.8"/>
      </g>
     </g>
    </g>
    <g id="ytick_16">
     <g id="line2d_22">
      <g>
       <use xlink:href="#m339eb8cb19" x="115.2" y="408.259916" style="stroke: #000000; stroke-width: 0.8"/>
      </g>
     </g>
    </g>
    <g id="ytick_17">
     <g id="line2d_23">
      <g>
       <use xlink:href="#m339eb8cb19" x="115.2" y="399.978251" style="stroke: #000000; stroke-width: 0.8"/>
      </g>
     </g>
    </g>
    <g id="ytick_18">
     <g id="line2d_24">
      <g>
       <use xlink:href="#m339eb8cb19" x="115.2" y="392.976202" style="stroke: #000000; stroke-width: 0.8"/>
      </g>
     </g>
    </g>
    <g id="ytick_19">
     <g id="line2d_25">
      <g>
       <use xlink:href="#m339eb8cb19" x="115.2" y="386.910752" style="stroke: #000000; stroke-width: 0.8"/>
      </g>
     </g>
    </g>
    <g id="ytick_20">
     <g id="line2d_26">
      <g>
       <use xlink:href="#m339eb8cb19" x="115.2" y="381.560646" style="stroke: #000000; stroke-width: 0.8"/>
      </g>
     </g>
    </g>
    <g id="ytick_21">
     <g id="line2d_27">
      <g>
       <use xlink:href="#m339eb8cb19" x="115.2" y="345.289709" style="stroke: #000000; stroke-width: 0.8"/>
      </g>
     </g>
    </g>
    <g id="ytick_22">
     <g id="line2d_28">
      <g>
       <use xlink:href="#m339eb8cb19" x="115.2" y="326.872104" style="stroke: #000000; stroke-width: 0.8"/>
      </g>
     </g>
    </g>
    <g id="ytick_23">
     <g id="line2d_29">
      <g>
       <use xlink:href="#m339eb8cb19" x="115.2" y="313.804606" style="stroke: #000000; stroke-width: 0.8"/>
      </g>
     </g>
    </g>
    <g id="ytick_24">
     <g id="line2d_30">
      <g>
       <use xlink:href="#m339eb8cb19" x="115.2" y="303.668666" style="stroke: #000000; stroke-width: 0.8"/>
      </g>
     </g>
    </g>
    <g id="ytick_25">
     <g id="line2d_31">
      <g>
       <use xlink:href="#m339eb8cb19" x="115.2" y="295.387001" style="stroke: #000000; stroke-width: 0.8"/>
      </g>
     </g>
    </g>
    <g id="ytick_26">
     <g id="line2d_32">
      <g>
       <use xlink:href="#m339eb8cb19" x="115.2" y="288.384952" style="stroke: #000000; stroke-width: 0.8"/>
      </g>
     </g>
    </g>
    <g id="ytick_27">
     <g id="line2d_33">
      <g>
       <use xlink:href="#m339eb8cb19" x="115.2" y="282.319502" style="stroke: #000000; stroke-width: 0.8"/>
      </g>
     </g>
    </g>
    <g id="ytick_28">
     <g id="line2d_34">
      <g>
       <use xlink:href="#m339eb8cb19" x="115.2" y="276.969396" style="stroke: #000000; stroke-width: 0.8"/>
      </g>
     </g>
    </g>
    <g id="ytick_29">
     <g id="line2d_35">
      <g>
       <use xlink:href="#m339eb8cb19" x="115.2" y="240.698459" style="stroke: #000000; stroke-width: 0.8"/>
      </g>
     </g>
    </g>
    <g id="ytick_30">
     <g id="line2d_36">
      <g>
       <use xlink:href="#m339eb8cb19" x="115.2" y="222.280854" style="stroke: #000000; stroke-width: 0.8"/>
      </g>
     </g>
    </g>
    <g id="ytick_31">
     <g id="line2d_37">
      <g>
       <use xlink:href="#m339eb8cb19" x="115.2" y="209.213356" style="stroke: #000000; stroke-width: 0.8"/>
      </g>
     </g>
    </g>
    <g id="ytick_32">
     <g id="line2d_38">
      <g>
       <use xlink:href="#m339eb8cb19" x="115.2" y="199.077416" style="stroke: #000000; stroke-width: 0.8"/>
      </g>
     </g>
    </g>
    <g id="ytick_33">
     <g id="line2d_39">
      <g>
       <use xlink:href="#m339eb8cb19" x="115.2" y="190.795751" style="stroke: #000000; stroke-width: 0.8"/>
      </g>
     </g>
    </g>
    <g id="ytick_34">
     <g id="line2d_40">
      <g>
       <use xlink:href="#m339eb8cb19" x="115.2" y="183.793702" style="stroke: #000000; stroke-width: 0.8"/>
      </g>
     </g>
    </g>
    <g id="ytick_35">
     <g id="line2d_41">
      <g>
       <use xlink:href="#m339eb8cb19" x="115.2" y="177.728252" style="stroke: #000000; stroke-width: 0.8"/>
      </g>
     </g>
    </g>
    <g id="ytick_36">
     <g id="line2d_42">
      <g>
       <use xlink:href="#m339eb8cb19" x="115.2" y="172.378146" style="stroke: #000000; stroke-width: 0.8"/>
      </g>
     </g>
    </g>
    <g id="ytick_37">
     <g id="line2d_43">
      <g>
       <use xlink:href="#m339eb8cb19" x="115.2" y="136.107209" style="stroke: #000000; stroke-width: 0.8"/>
      </g>
     </g>
    </g>
    <g id="ytick_38">
     <g id="line2d_44">
      <g>
       <use xlink:href="#m339eb8cb19" x="115.2" y="117.689604" style="stroke: #000000; stroke-width: 0.8"/>
      </g>
     </g>
    </g>
    <g id="ytick_39">
     <g id="line2d_45">
      <g>
       <use xlink:href="#m339eb8cb19" x="115.2" y="104.622106" style="stroke: #000000; stroke-width: 0.8"/>
      </g>
     </g>
    </g>
    <g id="ytick_40">
     <g id="line2d_46">
      <g>
       <use xlink:href="#m339eb8cb19" x="115.2" y="94.486166" style="stroke: #000000; stroke-width: 0.8"/>
      </g>
     </g>
    </g>
    <g id="ytick_41">
     <g id="line2d_47">
      <g>
       <use xlink:href="#m339eb8cb19" x="115.2" y="86.204501" style="stroke: #000000; stroke-width: 0.8"/>
      </g>
     </g>
    </g>
    <g id="ytick_42">
     <g id="line2d_48">
      <g>
       <use xlink:href="#m339eb8cb19" x="115.2" y="79.202452" style="stroke: #000000; stroke-width: 0.8"/>
      </g>
     </g>
    </g>
    <g id="text_12">
     <!-- Node evaluations per second (NEPS) -->
     <g transform="translate(69.278437 447.984875)rotate(-90)scale(0.14 -0.14)">
      <defs>
       <path id="DejaVuSans-4e" d="M 628 4666 
L 1478 4666 
L 3547 763 
L 3547 4666 
L 4159 4666 
L 4159 0 
L 3309 0 
L 1241 3903 
L 1241 0 
L 628 0 
L 628 4666 
z
" transform="scale(0.015625)"/>
       <path id="DejaVuSans-64" d="M 2906 2969 
L 2906 4863 
L 3481 4863 
L 3481 0 
L 2906 0 
L 2906 525 
Q 2725 213 2448 61 
Q 2172 -91 1784 -91 
Q 1150 -91 751 415 
Q 353 922 353 1747 
Q 353 2572 751 3078 
Q 1150 3584 1784 3584 
Q 2172 3584 2448 3432 
Q 2725 3281 2906 2969 
z
M 947 1747 
Q 947 1113 1208 752 
Q 1469 391 1925 391 
Q 2381 391 2643 752 
Q 2906 1113 2906 1747 
Q 2906 2381 2643 2742 
Q 2381 3103 1925 3103 
Q 1469 3103 1208 2742 
Q 947 2381 947 1747 
z
" transform="scale(0.015625)"/>
       <path id="DejaVuSans-76" d="M 191 3500 
L 800 3500 
L 1894 563 
L 2988 3500 
L 3597 3500 
L 2284 0 
L 1503 0 
L 191 3500 
z
" transform="scale(0.015625)"/>
       <path id="DejaVuSans-6c" d="M 603 4863 
L 1178 4863 
L 1178 0 
L 603 0 
L 603 4863 
z
" transform="scale(0.015625)"/>
       <path id="DejaVuSans-74" d="M 1172 4494 
L 1172 3500 
L 2356 3500 
L 2356 3053 
L 1172 3053 
L 1172 1153 
Q 1172 725 1289 603 
Q 1406 481 1766 481 
L 2356 481 
L 2356 0 
L 1766 0 
Q 1100 0 847 248 
Q 594 497 594 1153 
L 594 3053 
L 172 3053 
L 172 3500 
L 594 3500 
L 594 4494 
L 1172 4494 
z
" transform="scale(0.015625)"/>
       <path id="DejaVuSans-63" d="M 3122 3366 
L 3122 2828 
Q 2878 2963 2633 3030 
Q 2388 3097 2138 3097 
Q 1578 3097 1268 2742 
Q 959 2388 959 1747 
Q 959 1106 1268 751 
Q 1578 397 2138 397 
Q 2388 397 2633 464 
Q 2878 531 3122 666 
L 3122 134 
Q 2881 22 2623 -34 
Q 2366 -91 2075 -91 
Q 1284 -91 818 406 
Q 353 903 353 1747 
Q 353 2603 823 3093 
Q 1294 3584 2113 3584 
Q 2378 3584 2631 3529 
Q 2884 3475 3122 3366 
z
" transform="scale(0.015625)"/>
       <path id="DejaVuSans-28" d="M 1984 4856 
Q 1566 4138 1362 3434 
Q 1159 2731 1159 2009 
Q 1159 1288 1364 580 
Q 1569 -128 1984 -844 
L 1484 -844 
Q 1016 -109 783 600 
Q 550 1309 550 2009 
Q 550 2706 781 3412 
Q 1013 4119 1484 4856 
L 1984 4856 
z
" transform="scale(0.015625)"/>
       <path id="DejaVuSans-45" d="M 628 4666 
L 3578 4666 
L 3578 4134 
L 1259 4134 
L 1259 2753 
L 3481 2753 
L 3481 2222 
L 1259 2222 
L 1259 531 
L 3634 531 
L 3634 0 
L 628 0 
L 628 4666 
z
" transform="scale(0.015625)"/>
       <path id="DejaVuSans-50" d="M 1259 4147 
L 1259 2394 
L 2053 2394 
Q 2494 2394 2734 2622 
Q 2975 2850 2975 3272 
Q 2975 3691 2734 3919 
Q 2494 4147 2053 4147 
L 1259 4147 
z
M 628 4666 
L 2053 4666 
Q 2838 4666 3239 4311 
Q 3641 3956 3641 3272 
Q 3641 2581 3239 2228 
Q 2838 1875 2053 1875 
L 1259 1875 
L 1259 0 
L 628 0 
L 628 4666 
z
" transform="scale(0.015625)"/>
       <path id="DejaVuSans-53" d="M 3425 4513 
L 3425 3897 
Q 3066 4069 2747 4153 
Q 2428 4238 2131 4238 
Q 1616 4238 1336 4038 
Q 1056 3838 1056 3469 
Q 1056 3159 1242 3001 
Q 1428 2844 1947 2747 
L 2328 2669 
Q 3034 2534 3370 2195 
Q 3706 1856 3706 1288 
Q 3706 609 3251 259 
Q 2797 -91 1919 -91 
Q 1588 -91 1214 -16 
Q 841 59 441 206 
L 441 856 
Q 825 641 1194 531 
Q 1563 422 1919 422 
Q 2459 422 2753 634 
Q 3047 847 3047 1241 
Q 3047 1584 2836 1778 
Q 2625 1972 2144 2069 
L 1759 2144 
Q 1053 2284 737 2584 
Q 422 2884 422 3419 
Q 422 4038 858 4394 
Q 1294 4750 2059 4750 
Q 2388 4750 2728 4690 
Q 3069 4631 3425 4513 
z
" transform="scale(0.015625)"/>
       <path id="DejaVuSans-29" d="M 513 4856 
L 1013 4856 
Q 1481 4119 1714 3412 
Q 1947 2706 1947 2009 
Q 1947 1309 1714 600 
Q 1481 -109 1013 -844 
L 513 -844 
Q 928 -128 1133 580 
Q 1338 1288 1338 2009 
Q 1338 2731 1133 3434 
Q 928 4138 513 4856 
z
" transform="scale(0.015625)"/>
      </defs>
      <use xlink:href="#DejaVuSans-4e"/>
      <use xlink:href="#DejaVuSans-6f" x="74.804688"/>
      <use xlink:href="#DejaVuSans-64" x="135.986328"/>
      <use xlink:href="#DejaVuSans-65" x="199.462891"/>
      <use xlink:href="#DejaVuSans-20" x="260.986328"/>
      <use xlink:href="#DejaVuSans-65" x="292.773438"/>
      <use xlink:href="#DejaVuSans-76" x="354.296875"/>
      <use xlink:href="#DejaVuSans-61" x="413.476562"/>
      <use xlink:href="#DejaVuSans-6c" x="474.755859"/>
      <use xlink:href="#DejaVuSans-75" x="502.539062"/>
      <use xlink:href="#DejaVuSans-61" x="565.917969"/>
      <use xlink:href="#DejaVuSans-74" x="627.197266"/>
      <use xlink:href="#DejaVuSans-69" x="666.40625"/>
      <use xlink:href="#DejaVuSans-6f" x="694.189453"/>
      <use xlink:href="#DejaVuSans-6e" x="755.371094"/>
      <use xlink:href="#DejaVuSans-73" x="818.75"/>
      <use xlink:href="#DejaVuSans-20" x="870.849609"/>
      <use xlink:href="#DejaVuSans-70" x="902.636719"/>
      <use xlink:href="#DejaVuSans-65" x="966.113281"/>
      <use xlink:href="#DejaVuSans-72" x="1027.636719"/>
      <use xlink:href="#DejaVuSans-20" x="1068.75"/>
      <use xlink:href="#DejaVuSans-73" x="1100.537109"/>
      <use xlink:href="#DejaVuSans-65" x="1152.636719"/>
      <use xlink:href="#DejaVuSans-63" x="1214.160156"/>
      <use xlink:href="#DejaVuSans-6f" x="1269.140625"/>
      <use xlink:href="#DejaVuSans-6e" x="1330.322266"/>
      <use xlink:href="#DejaVuSans-64" x="1393.701172"/>
      <use xlink:href="#DejaVuSans-20" x="1457.177734"/>
      <use xlink:href="#DejaVuSans-28" x="1488.964844"/>
      <use xlink:href="#DejaVuSans-4e" x="1527.978516"/>
      <use xlink:href="#DejaVuSans-45" x="1602.783203"/>
      <use xlink:href="#DejaVuSans-50" x="1665.966797"/>
      <use xlink:href="#DejaVuSans-53" x="1726.269531"/>
      <use xlink:href="#DejaVuSans-29" x="1789.746094"/>
     </g>
    </g>
   </g>
   <g id="line2d_49">
    <path d="M 147.665455 541.728 
L 168.610909 509.09344 
L 189.556364 496.944677 
L 210.501818 491.649906 
L 231.447273 488.678406 
L 252.392727 485.341984 
L 273.338182 482.624447 
L 294.283636 481.031816 
L 315.229091 480.023079 
L 336.174545 481.048116 
L 357.12 479.792304 
L 378.065455 479.257269 
L 399.010909 479.904701 
L 419.956364 477.746023 
L 440.901818 477.90722 
L 461.847273 476.523137 
L 482.792727 475.528947 
L 503.738182 475.20472 
L 524.683636 476.204786 
L 545.629091 475.346015 
L 566.574545 476.653007 
L 587.52 474.468113 
L 608.465455 474.592297 
L 629.410909 473.422059 
L 650.356364 474.011987 
L 671.301818 473.468376 
L 692.247273 474.506721 
L 713.192727 473.890356 
L 734.138182 473.232162 
L 755.083636 473.579117 
L 776.029091 474.468562 
L 796.974545 473.099771 
" clip-path="url(#p2b9ab43d66)" style="fill: none; stroke: #000000; stroke-width: 0.1; stroke-linecap: square"/>
    <defs>
     <path id="m3986f7f883" d="M -3 6 
L 0 3 
L 3 6 
L 6 3 
L 3 0 
L 6 -3 
L 3 -6 
L 0 -3 
L -3 -6 
L -6 -3 
L -3 0 
L -6 3 
z
"/>
    </defs>
    <g clip-path="url(#p2b9ab43d66)">
     <use xlink:href="#m3986f7f883" x="147.665455" y="541.728" style="fill: #17becf"/>
     <use xlink:href="#m3986f7f883" x="168.610909" y="509.09344" style="fill: #17becf"/>
     <use xlink:href="#m3986f7f883" x="189.556364" y="496.944677" style="fill: #17becf"/>
     <use xlink:href="#m3986f7f883" x="210.501818" y="491.649906" style="fill: #17becf"/>
     <use xlink:href="#m3986f7f883" x="231.447273" y="488.678406" style="fill: #17becf"/>
     <use xlink:href="#m3986f7f883" x="252.392727" y="485.341984" style="fill: #17becf"/>
     <use xlink:href="#m3986f7f883" x="273.338182" y="482.624447" style="fill: #17becf"/>
     <use xlink:href="#m3986f7f883" x="294.283636" y="481.031816" style="fill: #17becf"/>
     <use xlink:href="#m3986f7f883" x="315.229091" y="480.023079" style="fill: #17becf"/>
     <use xlink:href="#m3986f7f883" x="336.174545" y="481.048116" style="fill: #17becf"/>
     <use xlink:href="#m3986f7f883" x="357.12" y="479.792304" style="fill: #17becf"/>
     <use xlink:href="#m3986f7f883" x="378.065455" y="479.257269" style="fill: #17becf"/>
     <use xlink:href="#m3986f7f883" x="399.010909" y="479.904701" style="fill: #17becf"/>
     <use xlink:href="#m3986f7f883" x="419.956364" y="477.746023" style="fill: #17becf"/>
     <use xlink:href="#m3986f7f883" x="440.901818" y="477.90722" style="fill: #17becf"/>
     <use xlink:href="#m3986f7f883" x="461.847273" y="476.523137" style="fill: #17becf"/>
     <use xlink:href="#m3986f7f883" x="482.792727" y="475.528947" style="fill: #17becf"/>
     <use xlink:href="#m3986f7f883" x="503.738182" y="475.20472" style="fill: #17becf"/>
     <use xlink:href="#m3986f7f883" x="524.683636" y="476.204786" style="fill: #17becf"/>
     <use xlink:href="#m3986f7f883" x="545.629091" y="475.346015" style="fill: #17becf"/>
     <use xlink:href="#m3986f7f883" x="566.574545" y="476.653007" style="fill: #17becf"/>
     <use xlink:href="#m3986f7f883" x="587.52" y="474.468113" style="fill: #17becf"/>
     <use xlink:href="#m3986f7f883" x="608.465455" y="474.592297" style="fill: #17becf"/>
     <use xlink:href="#m3986f7f883" x="629.410909" y="473.422059" style="fill: #17becf"/>
     <use xlink:href="#m3986f7f883" x="650.356364" y="474.011987" style="fill: #17becf"/>
     <use xlink:href="#m3986f7f883" x="671.301818" y="473.468376" style="fill: #17becf"/>
     <use xlink:href="#m3986f7f883" x="692.247273" y="474.506721" style="fill: #17becf"/>
     <use xlink:href="#m3986f7f883" x="713.192727" y="473.890356" style="fill: #17becf"/>
     <use xlink:href="#m3986f7f883" x="734.138182" y="473.232162" style="fill: #17becf"/>
     <use xlink:href="#m3986f7f883" x="755.083636" y="473.579117" style="fill: #17becf"/>
     <use xlink:href="#m3986f7f883" x="776.029091" y="474.468562" style="fill: #17becf"/>
     <use xlink:href="#m3986f7f883" x="796.974545" y="473.099771" style="fill: #17becf"/>
    </g>
   </g>
   <g id="line2d_50">
    <path d="M 115.2 272.183563 
L 829.44 272.183563 
" clip-path="url(#p2b9ab43d66)" style="fill: none; stroke-dasharray: 10.36,4.48; stroke-dashoffset: 0; stroke: #808080; stroke-width: 2.8"/>
   </g>
   <g id="line2d_51">
    <path d="M 147.665455 480.129807 
L 168.610909 457.139441 
L 189.556364 450.853111 
L 210.501818 449.150329 
L 231.447273 447.14615 
L 252.392727 445.649818 
L 273.338182 443.549666 
L 294.283636 443.418963 
L 315.229091 443.294772 
L 336.174545 442.550664 
L 357.12 442.551726 
L 378.065455 441.620795 
L 399.010909 442.13228 
L 419.956364 441.441207 
L 440.901818 440.667265 
L 461.847273 441.161764 
L 482.792727 441.312745 
L 503.738182 442.316611 
L 524.683636 441.811061 
L 545.629091 441.761267 
L 566.574545 440.923398 
L 587.52 441.697741 
L 608.465455 441.472495 
L 629.410909 441.271622 
L 650.356364 441.163151 
L 671.301818 440.995018 
L 692.247273 441.264777 
L 713.192727 441.576439 
L 734.138182 441.56682 
L 755.083636 441.101708 
L 776.029091 440.988503 
L 796.974545 440.736217 
" clip-path="url(#p2b9ab43d66)" style="fill: none; stroke: #000000; stroke-width: 0.1; stroke-linecap: square"/>
    <defs>
     <path id="ma2cb2338e1" d="M 0 -6 
L -6 6 
L 6 6 
z
"/>
    </defs>
    <g clip-path="url(#p2b9ab43d66)">
     <use xlink:href="#ma2cb2338e1" x="147.665455" y="480.129807" style="fill: #9467bd"/>
     <use xlink:href="#ma2cb2338e1" x="168.610909" y="457.139441" style="fill: #9467bd"/>
     <use xlink:href="#ma2cb2338e1" x="189.556364" y="450.853111" style="fill: #9467bd"/>
     <use xlink:href="#ma2cb2338e1" x="210.501818" y="449.150329" style="fill: #9467bd"/>
     <use xlink:href="#ma2cb2338e1" x="231.447273" y="447.14615" style="fill: #9467bd"/>
     <use xlink:href="#ma2cb2338e1" x="252.392727" y="445.649818" style="fill: #9467bd"/>
     <use xlink:href="#ma2cb2338e1" x="273.338182" y="443.549666" style="fill: #9467bd"/>
     <use xlink:href="#ma2cb2338e1" x="294.283636" y="443.418963" style="fill: #9467bd"/>
     <use xlink:href="#ma2cb2338e1" x="315.229091" y="443.294772" style="fill: #9467bd"/>
     <use xlink:href="#ma2cb2338e1" x="336.174545" y="442.550664" style="fill: #9467bd"/>
     <use xlink:href="#ma2cb2338e1" x="357.12" y="442.551726" style="fill: #9467bd"/>
     <use xlink:href="#ma2cb2338e1" x="378.065455" y="441.620795" style="fill: #9467bd"/>
     <use xlink:href="#ma2cb2338e1" x="399.010909" y="442.13228" style="fill: #9467bd"/>
     <use xlink:href="#ma2cb2338e1" x="419.956364" y="441.441207" style="fill: #9467bd"/>
     <use xlink:href="#ma2cb2338e1" x="440.901818" y="440.667265" style="fill: #9467bd"/>
     <use xlink:href="#ma2cb2338e1" x="461.847273" y="441.161764" style="fill: #9467bd"/>
     <use xlink:href="#ma2cb2338e1" x="482.792727" y="441.312745" style="fill: #9467bd"/>
     <use xlink:href="#ma2cb2338e1" x="503.738182" y="442.316611" style="fill: #9467bd"/>
     <use xlink:href="#ma2cb2338e1" x="524.683636" y="441.811061" style="fill: #9467bd"/>
     <use xlink:href="#ma2cb2338e1" x="545.629091" y="441.761267" style="fill: #9467bd"/>
     <use xlink:href="#ma2cb2338e1" x="566.574545" y="440.923398" style="fill: #9467bd"/>
     <use xlink:href="#ma2cb2338e1" x="587.52" y="441.697741" style="fill: #9467bd"/>
     <use xlink:href="#ma2cb2338e1" x="608.465455" y="441.472495" style="fill: #9467bd"/>
     <use xlink:href="#ma2cb2338e1" x="629.410909" y="441.271622" style="fill: #9467bd"/>
     <use xlink:href="#ma2cb2338e1" x="650.356364" y="441.163151" style="fill: #9467bd"/>
     <use xlink:href="#ma2cb2338e1" x="671.301818" y="440.995018" style="fill: #9467bd"/>
     <use xlink:href="#ma2cb2338e1" x="692.247273" y="441.264777" style="fill: #9467bd"/>
     <use xlink:href="#ma2cb2338e1" x="713.192727" y="441.576439" style="fill: #9467bd"/>
     <use xlink:href="#ma2cb2338e1" x="734.138182" y="441.56682" style="fill: #9467bd"/>
     <use xlink:href="#ma2cb2338e1" x="755.083636" y="441.101708" style="fill: #9467bd"/>
     <use xlink:href="#ma2cb2338e1" x="776.029091" y="440.988503" style="fill: #9467bd"/>
     <use xlink:href="#ma2cb2338e1" x="796.974545" y="440.736217" style="fill: #9467bd"/>
    </g>
   </g>
   <g id="line2d_52">
    <path d="M 115.2 272.183563 
L 829.44 272.183563 
" clip-path="url(#p2b9ab43d66)" style="fill: none; stroke-dasharray: 10.36,4.48; stroke-dashoffset: 0; stroke: #808080; stroke-width: 2.8"/>
   </g>
   <g id="line2d_53">
    <path d="M 147.665455 491.639632 
L 168.610909 476.147204 
L 189.556364 470.556409 
L 210.501818 466.932863 
L 231.447273 465.626951 
L 252.392727 464.38075 
L 273.338182 463.909566 
L 294.283636 462.984947 
L 315.229091 463.378227 
L 336.174545 462.502322 
L 357.12 462.627702 
L 378.065455 462.015266 
L 399.010909 462.023417 
L 419.956364 462.155416 
L 440.901818 461.228019 
L 461.847273 461.330167 
L 482.792727 461.714744 
L 503.738182 461.518761 
L 524.683636 461.231561 
L 545.629091 461.303614 
L 566.574545 460.947993 
L 587.52 461.170378 
L 608.465455 461.181916 
L 629.410909 460.935712 
L 650.356364 461.101531 
L 671.301818 460.75219 
L 692.247273 461.261409 
L 713.192727 462.747806 
L 734.138182 461.083713 
L 755.083636 460.719031 
L 776.029091 460.426325 
L 796.974545 460.468574 
" clip-path="url(#p2b9ab43d66)" style="fill: none; stroke: #000000; stroke-width: 0.1; stroke-linecap: square"/>
    <defs>
     <path id="m452f567bc5" d="M 0 3 
C 0.795609 3 1.55874 2.683901 2.12132 2.12132 
C 2.683901 1.55874 3 0.795609 3 0 
C 3 -0.795609 2.683901 -1.55874 2.12132 -2.12132 
C 1.55874 -2.683901 0.795609 -3 0 -3 
C -0.795609 -3 -1.55874 -2.683901 -2.12132 -2.12132 
C -2.683901 -1.55874 -3 -0.795609 -3 0 
C -3 0.795609 -2.683901 1.55874 -2.12132 2.12132 
C -1.55874 2.683901 -0.795609 3 0 3 
z
"/>
    </defs>
    <g clip-path="url(#p2b9ab43d66)">
     <use xlink:href="#m452f567bc5" x="147.665455" y="491.639632" style="fill: #1f77b4"/>
     <use xlink:href="#m452f567bc5" x="168.610909" y="476.147204" style="fill: #1f77b4"/>
     <use xlink:href="#m452f567bc5" x="189.556364" y="470.556409" style="fill: #1f77b4"/>
     <use xlink:href="#m452f567bc5" x="210.501818" y="466.932863" style="fill: #1f77b4"/>
     <use xlink:href="#m452f567bc5" x="231.447273" y="465.626951" style="fill: #1f77b4"/>
     <use xlink:href="#m452f567bc5" x="252.392727" y="464.38075" style="fill: #1f77b4"/>
     <use xlink:href="#m452f567bc5" x="273.338182" y="463.909566" style="fill: #1f77b4"/>
     <use xlink:href="#m452f567bc5" x="294.283636" y="462.984947" style="fill: #1f77b4"/>
     <use xlink:href="#m452f567bc5" x="315.229091" y="463.378227" style="fill: #1f77b4"/>
     <use xlink:href="#m452f567bc5" x="336.174545" y="462.502322" style="fill: #1f77b4"/>
     <use xlink:href="#m452f567bc5" x="357.12" y="462.627702" style="fill: #1f77b4"/>
     <use xlink:href="#m452f567bc5" x="378.065455" y="462.015266" style="fill: #1f77b4"/>
     <use xlink:href="#m452f567bc5" x="399.010909" y="462.023417" style="fill: #1f77b4"/>
     <use xlink:href="#m452f567bc5" x="419.956364" y="462.155416" style="fill: #1f77b4"/>
     <use xlink:href="#m452f567bc5" x="440.901818" y="461.228019" style="fill: #1f77b4"/>
     <use xlink:href="#m452f567bc5" x="461.847273" y="461.330167" style="fill: #1f77b4"/>
     <use xlink:href="#m452f567bc5" x="482.792727" y="461.714744" style="fill: #1f77b4"/>
     <use xlink:href="#m452f567bc5" x="503.738182" y="461.518761" style="fill: #1f77b4"/>
     <use xlink:href="#m452f567bc5" x="524.683636" y="461.231561" style="fill: #1f77b4"/>
     <use xlink:href="#m452f567bc5" x="545.629091" y="461.303614" style="fill: #1f77b4"/>
     <use xlink:href="#m452f567bc5" x="566.574545" y="460.947993" style="fill: #1f77b4"/>
     <use xlink:href="#m452f567bc5" x="587.52" y="461.170378" style="fill: #1f77b4"/>
     <use xlink:href="#m452f567bc5" x="608.465455" y="461.181916" style="fill: #1f77b4"/>
     <use xlink:href="#m452f567bc5" x="629.410909" y="460.935712" style="fill: #1f77b4"/>
     <use xlink:href="#m452f567bc5" x="650.356364" y="461.101531" style="fill: #1f77b4"/>
     <use xlink:href="#m452f567bc5" x="671.301818" y="460.75219" style="fill: #1f77b4"/>
     <use xlink:href="#m452f567bc5" x="692.247273" y="461.261409" style="fill: #1f77b4"/>
     <use xlink:href="#m452f567bc5" x="713.192727" y="462.747806" style="fill: #1f77b4"/>
     <use xlink:href="#m452f567bc5" x="734.138182" y="461.083713" style="fill: #1f77b4"/>
     <use xlink:href="#m452f567bc5" x="755.083636" y="460.719031" style="fill: #1f77b4"/>
     <use xlink:href="#m452f567bc5" x="776.029091" y="460.426325" style="fill: #1f77b4"/>
     <use xlink:href="#m452f567bc5" x="796.974545" y="460.468574" style="fill: #1f77b4"/>
    </g>
   </g>
   <g id="line2d_54">
    <path d="M 115.2 272.183563 
L 829.44 272.183563 
" clip-path="url(#p2b9ab43d66)" style="fill: none; stroke-dasharray: 10.36,4.48; stroke-dashoffset: 0; stroke: #808080; stroke-width: 2.8"/>
   </g>
   <g id="line2d_55">
    <path d="M 147.665455 204.52428 
L 168.610909 172.120638 
L 189.556364 156.523835 
L 210.501818 145.256548 
L 231.447273 136.234292 
L 252.392727 133.310676 
L 273.338182 127.866156 
L 294.283636 129.022849 
L 315.229091 121.264503 
L 336.174545 126.412028 
L 357.12 125.42383 
L 378.065455 121.702716 
L 399.010909 126.443899 
L 419.956364 117.444962 
L 440.901818 123.033554 
L 461.847273 111.642203 
L 482.792727 125.179748 
L 503.738182 112.655375 
L 524.683636 126.711611 
L 545.629091 122.591072 
L 566.574545 113.621318 
L 587.52 107.185931 
L 608.465455 116.522019 
L 629.410909 115.287424 
L 650.356364 108.780389 
L 671.301818 117.876941 
L 692.247273 123.194502 
L 713.192727 107.75737 
L 734.138182 109.92331 
L 755.083636 128.883824 
L 776.029091 118.073686 
L 796.974545 141.007988 
" clip-path="url(#p2b9ab43d66)" style="fill: none; stroke: #000000; stroke-width: 0.1; stroke-linecap: square"/>
    <defs>
     <path id="meb0a290266" d="M -0 8.485281 
L 5.091169 0 
L 0 -8.485281 
L -5.091169 -0 
z
"/>
    </defs>
    <g clip-path="url(#p2b9ab43d66)">
     <use xlink:href="#meb0a290266" x="147.665455" y="204.52428" style="fill: #2ca02c"/>
     <use xlink:href="#meb0a290266" x="168.610909" y="172.120638" style="fill: #2ca02c"/>
     <use xlink:href="#meb0a290266" x="189.556364" y="156.523835" style="fill: #2ca02c"/>
     <use xlink:href="#meb0a290266" x="210.501818" y="145.256548" style="fill: #2ca02c"/>
     <use xlink:href="#meb0a290266" x="231.447273" y="136.234292" style="fill: #2ca02c"/>
     <use xlink:href="#meb0a290266" x="252.392727" y="133.310676" style="fill: #2ca02c"/>
     <use xlink:href="#meb0a290266" x="273.338182" y="127.866156" style="fill: #2ca02c"/>
     <use xlink:href="#meb0a290266" x="294.283636" y="129.022849" style="fill: #2ca02c"/>
     <use xlink:href="#meb0a290266" x="315.229091" y="121.264503" style="fill: #2ca02c"/>
     <use xlink:href="#meb0a290266" x="336.174545" y="126.412028" style="fill: #2ca02c"/>
     <use xlink:href="#meb0a290266" x="357.12" y="125.42383" style="fill: #2ca02c"/>
     <use xlink:href="#meb0a290266" x="378.065455" y="121.702716" style="fill: #2ca02c"/>
     <use xlink:href="#meb0a290266" x="399.010909" y="126.443899" style="fill: #2ca02c"/>
     <use xlink:href="#meb0a290266" x="419.956364" y="117.444962" style="fill: #2ca02c"/>
     <use xlink:href="#meb0a290266" x="440.901818" y="123.033554" style="fill: #2ca02c"/>
     <use xlink:href="#meb0a290266" x="461.847273" y="111.642203" style="fill: #2ca02c"/>
     <use xlink:href="#meb0a290266" x="482.792727" y="125.179748" style="fill: #2ca02c"/>
     <use xlink:href="#meb0a290266" x="503.738182" y="112.655375" style="fill: #2ca02c"/>
     <use xlink:href="#meb0a290266" x="524.683636" y="126.711611" style="fill: #2ca02c"/>
     <use xlink:href="#meb0a290266" x="545.629091" y="122.591072" style="fill: #2ca02c"/>
     <use xlink:href="#meb0a290266" x="566.574545" y="113.621318" style="fill: #2ca02c"/>
     <use xlink:href="#meb0a290266" x="587.52" y="107.185931" style="fill: #2ca02c"/>
     <use xlink:href="#meb0a290266" x="608.465455" y="116.522019" style="fill: #2ca02c"/>
     <use xlink:href="#meb0a290266" x="629.410909" y="115.287424" style="fill: #2ca02c"/>
     <use xlink:href="#meb0a290266" x="650.356364" y="108.780389" style="fill: #2ca02c"/>
     <use xlink:href="#meb0a290266" x="671.301818" y="117.876941" style="fill: #2ca02c"/>
     <use xlink:href="#meb0a290266" x="692.247273" y="123.194502" style="fill: #2ca02c"/>
     <use xlink:href="#meb0a290266" x="713.192727" y="107.75737" style="fill: #2ca02c"/>
     <use xlink:href="#meb0a290266" x="734.138182" y="109.92331" style="fill: #2ca02c"/>
     <use xlink:href="#meb0a290266" x="755.083636" y="128.883824" style="fill: #2ca02c"/>
     <use xlink:href="#meb0a290266" x="776.029091" y="118.073686" style="fill: #2ca02c"/>
     <use xlink:href="#meb0a290266" x="796.974545" y="141.007988" style="fill: #2ca02c"/>
    </g>
   </g>
   <g id="line2d_56">
    <path d="M 115.2 272.183563 
L 829.44 272.183563 
" clip-path="url(#p2b9ab43d66)" style="fill: none; stroke-dasharray: 10.36,4.48; stroke-dashoffset: 0; stroke: #808080; stroke-width: 2.8"/>
   </g>
   <g id="line2d_57">
    <path d="M 147.665455 256.154615 
L 168.610909 246.087696 
L 189.556364 243.586224 
L 210.501818 242.447346 
L 231.447273 241.795378 
L 252.392727 241.45115 
L 273.338182 241.131455 
L 294.283636 240.928164 
L 315.229091 240.776143 
L 336.174545 240.747687 
L 357.12 240.605241 
L 378.065455 240.519305 
L 399.010909 240.446345 
L 419.956364 240.387459 
L 440.901818 240.329531 
L 461.847273 240.282674 
L 482.792727 240.233994 
L 503.738182 240.293348 
L 524.683636 240.223006 
L 545.629091 240.185335 
L 566.574545 240.149348 
L 587.52 240.138129 
L 608.465455 240.104235 
L 629.410909 240.0765 
L 650.356364 240.043294 
L 671.301818 240.054988 
L 692.247273 240.024051 
L 713.192727 240.00096 
L 734.138182 239.965385 
L 755.083636 239.954946 
L 776.029091 239.916756 
L 796.974545 239.885243 
" clip-path="url(#p2b9ab43d66)" style="fill: none; stroke: #000000; stroke-width: 0.1; stroke-linecap: square"/>
    <defs>
     <path id="m912cb51fff" d="M 0 -6 
L -1.347084 -1.854102 
L -5.706339 -1.854102 
L -2.179628 0.708204 
L -3.526712 4.854102 
L -0 2.291796 
L 3.526712 4.854102 
L 2.179628 0.708204 
L 5.706339 -1.854102 
L 1.347084 -1.854102 
z
"/>
    </defs>
    <g clip-path="url(#p2b9ab43d66)">
     <use xlink:href="#m912cb51fff" x="147.665455" y="256.154615" style="fill: #d62728"/>
     <use xlink:href="#m912cb51fff" x="168.610909" y="246.087696" style="fill: #d62728"/>
     <use xlink:href="#m912cb51fff" x="189.556364" y="243.586224" style="fill: #d62728"/>
     <use xlink:href="#m912cb51fff" x="210.501818" y="242.447346" style="fill: #d62728"/>
     <use xlink:href="#m912cb51fff" x="231.447273" y="241.795378" style="fill: #d62728"/>
     <use xlink:href="#m912cb51fff" x="252.392727" y="241.45115" style="fill: #d62728"/>
     <use xlink:href="#m912cb51fff" x="273.338182" y="241.131455" style="fill: #d62728"/>
     <use xlink:href="#m912cb51fff" x="294.283636" y="240.928164" style="fill: #d62728"/>
     <use xlink:href="#m912cb51fff" x="315.229091" y="240.776143" style="fill: #d62728"/>
     <use xlink:href="#m912cb51fff" x="336.174545" y="240.747687" style="fill: #d62728"/>
     <use xlink:href="#m912cb51fff" x="357.12" y="240.605241" style="fill: #d62728"/>
     <use xlink:href="#m912cb51fff" x="378.065455" y="240.519305" style="fill: #d62728"/>
     <use xlink:href="#m912cb51fff" x="399.010909" y="240.446345" style="fill: #d62728"/>
     <use xlink:href="#m912cb51fff" x="419.956364" y="240.387459" style="fill: #d62728"/>
     <use xlink:href="#m912cb51fff" x="440.901818" y="240.329531" style="fill: #d62728"/>
     <use xlink:href="#m912cb51fff" x="461.847273" y="240.282674" style="fill: #d62728"/>
     <use xlink:href="#m912cb51fff" x="482.792727" y="240.233994" style="fill: #d62728"/>
     <use xlink:href="#m912cb51fff" x="503.738182" y="240.293348" style="fill: #d62728"/>
     <use xlink:href="#m912cb51fff" x="524.683636" y="240.223006" style="fill: #d62728"/>
     <use xlink:href="#m912cb51fff" x="545.629091" y="240.185335" style="fill: #d62728"/>
     <use xlink:href="#m912cb51fff" x="566.574545" y="240.149348" style="fill: #d62728"/>
     <use xlink:href="#m912cb51fff" x="587.52" y="240.138129" style="fill: #d62728"/>
     <use xlink:href="#m912cb51fff" x="608.465455" y="240.104235" style="fill: #d62728"/>
     <use xlink:href="#m912cb51fff" x="629.410909" y="240.0765" style="fill: #d62728"/>
     <use xlink:href="#m912cb51fff" x="650.356364" y="240.043294" style="fill: #d62728"/>
     <use xlink:href="#m912cb51fff" x="671.301818" y="240.054988" style="fill: #d62728"/>
     <use xlink:href="#m912cb51fff" x="692.247273" y="240.024051" style="fill: #d62728"/>
     <use xlink:href="#m912cb51fff" x="713.192727" y="240.00096" style="fill: #d62728"/>
     <use xlink:href="#m912cb51fff" x="734.138182" y="239.965385" style="fill: #d62728"/>
     <use xlink:href="#m912cb51fff" x="755.083636" y="239.954946" style="fill: #d62728"/>
     <use xlink:href="#m912cb51fff" x="776.029091" y="239.916756" style="fill: #d62728"/>
     <use xlink:href="#m912cb51fff" x="796.974545" y="239.885243" style="fill: #d62728"/>
    </g>
   </g>
   <g id="line2d_58">
    <path d="M 115.2 272.183563 
L 829.44 272.183563 
" clip-path="url(#p2b9ab43d66)" style="fill: none; stroke-dasharray: 10.36,4.48; stroke-dashoffset: 0; stroke: #808080; stroke-width: 2.8"/>
   </g>
   <g id="patch_3">
    <path d="M 115.2 563.904 
L 115.2 76.032 
" style="fill: none; stroke: #000000; stroke-width: 0.8; stroke-linejoin: miter; stroke-linecap: square"/>
   </g>
   <g id="patch_4">
    <path d="M 829.44 563.904 
L 829.44 76.032 
" style="fill: none; stroke: #000000; stroke-width: 0.8; stroke-linejoin: miter; stroke-linecap: square"/>
   </g>
   <g id="patch_5">
    <path d="M 115.2 563.904 
L 829.44 563.904 
" style="fill: none; stroke: #000000; stroke-width: 0.8; stroke-linejoin: miter; stroke-linecap: square"/>
   </g>
   <g id="patch_6">
    <path d="M 115.2 76.032 
L 829.44 76.032 
" style="fill: none; stroke: #000000; stroke-width: 0.8; stroke-linejoin: miter; stroke-linecap: square"/>
   </g>
   <g id="text_13">
    <!-- $10^9$ for scale -->
    <g transform="translate(260.901818 303.668666)scale(0.11 -0.11)">
     <defs>
      <path id="DejaVuSans-66" d="M 2375 4863 
L 2375 4384 
L 1825 4384 
Q 1516 4384 1395 4259 
Q 1275 4134 1275 3809 
L 1275 3500 
L 2222 3500 
L 2222 3053 
L 1275 3053 
L 1275 0 
L 697 0 
L 697 3053 
L 147 3053 
L 147 3500 
L 697 3500 
L 697 3744 
Q 697 4328 969 4595 
Q 1241 4863 1831 4863 
L 2375 4863 
z
" transform="scale(0.015625)"/>
     </defs>
     <use xlink:href="#DejaVuSans-31" transform="translate(0 0.765625)"/>
     <use xlink:href="#DejaVuSans-30" transform="translate(63.623047 0.765625)"/>
     <use xlink:href="#DejaVuSans-39" transform="translate(128.203125 39.046875)scale(0.7)"/>
     <use xlink:href="#DejaVuSans-20" transform="translate(175.473633 0.765625)"/>
     <use xlink:href="#DejaVuSans-66" transform="translate(207.260742 0.765625)"/>
     <use xlink:href="#DejaVuSans-6f" transform="translate(242.46582 0.765625)"/>
     <use xlink:href="#DejaVuSans-72" transform="translate(303.647461 0.765625)"/>
     <use xlink:href="#DejaVuSans-20" transform="translate(344.760742 0.765625)"/>
     <use xlink:href="#DejaVuSans-73" transform="translate(376.547852 0.765625)"/>
     <use xlink:href="#DejaVuSans-63" transform="translate(428.647461 0.765625)"/>
     <use xlink:href="#DejaVuSans-61" transform="translate(483.62793 0.765625)"/>
     <use xlink:href="#DejaVuSans-6c" transform="translate(544.907227 0.765625)"/>
     <use xlink:href="#DejaVuSans-65" transform="translate(572.69043 0.765625)"/>
    </g>
   </g>
  </g>
 </g>
 <defs>
  <clipPath id="p2b9ab43d66">
   <rect x="115.2" y="76.032" width="714.24" height="487.872"/>
  </clipPath>
 </defs>
</svg>
