<?xml version="1.0" encoding="utf-8" standalone="no"?>
<!DOCTYPE svg PUBLIC "-//W3C//DTD SVG 1.1//EN"
  "http://www.w3.org/Graphics/SVG/1.1/DTD/svg11.dtd">
<svg xmlns:xlink="http://www.w3.org/1999/xlink" width="460.8pt" height="345.6pt" viewBox="0 0 460.8 345.6" xmlns="http://www.w3.org/2000/svg" version="1.1">
 <metadata>
  <rdf:RDF xmlns:dc="http://purl.org/dc/elements/1.1/" xmlns:cc="http://creativecommons.org/ns#" xmlns:rdf="http://www.w3.org/1999/02/22-rdf-syntax-ns#">
   <cc:Work>
    <dc:type rdf:resource="http://purl.org/dc/dcmitype/StillImage"/>
    <dc:date>2023-01-31T00:25:47.665411</dc:date>
    <dc:format>image/svg+xml</dc:format>
    <dc:creator>
     <cc:Agent>
      <dc:title>Matplotlib v3.5.3, https://matplotlib.org/</dc:title>
     </cc:Agent>
    </dc:creator>
   </cc:Work>
  </rdf:RDF>
 </metadata>
 <defs>
  <style type="text/css">*{stroke-linejoin: round; stroke-linecap: butt}</style>
 </defs>
 <g id="figure_1">
  <g id="patch_1">
   <path d="M 0 345.6 
L 460.8 345.6 
L 460.8 0 
L 0 0 
z
" style="fill: #ffffff"/>
  </g>
  <g id="axes_1">
   <g id="patch_2">
    <path d="M 57.6 293.76 
L 414.72 293.76 
L 414.72 41.472 
L 57.6 41.472 
z
" style="fill: #ffffff"/>
   </g>
   <g id="PolyCollection_1">
    <defs>
     <path id="m41588c37ae" d="M 73.832727 -68.652064 
L 73.832727 -68.652064 
L 84.316022 -79.010109 
L 94.799317 -82.200307 
L 105.282613 -84.23414 
L 115.765908 -85.298279 
L 126.249203 -85.986825 
L 136.732498 -86.440119 
L 147.215793 -86.405012 
L 157.699088 -86.093803 
L 168.182383 -87.097453 
L 178.665678 -87.268132 
L 189.148973 -87.028824 
L 199.632269 -87.45229 
L 210.115564 -87.765828 
L 220.598859 -87.696772 
L 231.082154 -87.817321 
L 241.565449 -87.637573 
L 252.048744 -88.022659 
L 262.532039 -87.900511 
L 273.015334 -87.990857 
L 283.498629 -88.039987 
L 293.981925 -88.152401 
L 304.46522 -88.233796 
L 314.948515 -88.17793 
L 325.43181 -88.29485 
L 335.915105 -88.342208 
L 346.3984 -88.28634 
L 356.881695 -88.420888 
L 367.36499 -88.417472 
L 377.848285 -87.858068 
L 388.331581 -87.869951 
L 398.487273 -88.426409 
L 398.487273 -88.426409 
L 398.487273 -88.596207 
L 388.331581 -88.430068 
L 377.848285 -88.185754 
L 367.36499 -88.547563 
L 356.881695 -88.56427 
L 346.3984 -88.360958 
L 335.915105 -88.435553 
L 325.43181 -88.371926 
L 314.948515 -88.268589 
L 304.46522 -88.378602 
L 293.981925 -88.292554 
L 283.498629 -88.228481 
L 273.015334 -88.256994 
L 262.532039 -88.153181 
L 252.048744 -88.200086 
L 241.565449 -87.979175 
L 231.082154 -87.963478 
L 220.598859 -87.991982 
L 210.115564 -87.890966 
L 199.632269 -87.681672 
L 189.148973 -87.453429 
L 178.665678 -87.59522 
L 168.182383 -87.293672 
L 157.699088 -87.079376 
L 147.215793 -86.88903 
L 136.732498 -86.560374 
L 126.249203 -86.165092 
L 115.765908 -85.634609 
L 105.282613 -84.742778 
L 94.799317 -83.271517 
L 84.316022 -79.106448 
L 73.832727 -68.718895 
z
" style="stroke: #ffdead"/>
    </defs>
    <g clip-path="url(#pc26f1aaff4)">
     <use xlink:href="#m41588c37ae" x="0" y="345.6" style="fill: #ffdead; stroke: #ffdead"/>
    </g>
   </g>
   <g id="PolyCollection_2">
    <defs>
     <path id="m7e9c17da0e" d="M 73.832727 -63.307636 
L 73.832727 -63.307636 
L 84.316022 -73.039988 
L 94.799317 -77.696816 
L 105.282613 -79.029106 
L 115.765908 -80.417616 
L 126.249203 -80.908823 
L 136.732498 -81.355776 
L 147.215793 -81.637539 
L 157.699088 -81.300671 
L 168.182383 -81.038012 
L 178.665678 -81.168581 
L 189.148973 -80.994771 
L 199.632269 -81.145031 
L 210.115564 -86.125846 
L 220.598859 -86.205202 
L 231.082154 -86.210429 
L 241.565449 -86.234815 
L 252.048744 -86.453944 
L 262.532039 -85.315284 
L 273.015334 -85.889024 
L 283.498629 -85.069534 
L 293.981925 -86.300587 
L 304.46522 -86.631515 
L 314.948515 -85.351536 
L 325.43181 -82.540582 
L 335.915105 -82.488605 
L 346.3984 -84.7679 
L 356.881695 -82.258451 
L 367.36499 -81.594097 
L 377.848285 -86.099243 
L 388.331581 -83.589488 
L 398.487273 -86.658961 
L 398.487273 -86.658961 
L 398.487273 -86.84628 
L 388.331581 -85.288445 
L 377.848285 -87.065994 
L 367.36499 -84.24968 
L 356.881695 -84.973424 
L 346.3984 -85.239654 
L 335.915105 -84.2497 
L 325.43181 -82.904192 
L 314.948515 -86.614269 
L 304.46522 -86.721612 
L 293.981925 -86.709723 
L 283.498629 -85.510642 
L 273.015334 -86.791107 
L 262.532039 -86.470513 
L 252.048744 -86.511939 
L 241.565449 -86.310766 
L 231.082154 -86.236657 
L 220.598859 -86.256298 
L 210.115564 -86.207026 
L 199.632269 -85.810715 
L 189.148973 -81.117669 
L 178.665678 -81.438015 
L 168.182383 -81.688615 
L 157.699088 -82.078806 
L 147.215793 -81.666832 
L 136.732498 -81.42428 
L 126.249203 -80.98536 
L 115.765908 -80.449276 
L 105.282613 -79.449651 
L 94.799317 -79.344775 
L 84.316022 -73.681455 
L 73.832727 -65.521094 
z
" style="stroke: #ffdead"/>
    </defs>
    <g clip-path="url(#pc26f1aaff4)">
     <use xlink:href="#m7e9c17da0e" x="0" y="345.6" style="fill: #ffdead; stroke: #ffdead"/>
    </g>
   </g>
   <g id="PolyCollection_3">
    <defs>
     <path id="m8ecb025da2" d="M 73.832727 -228.164938 
L 73.832727 -228.164938 
L 84.316022 -252.989396 
L 94.799317 -256.925353 
L 105.282613 -267.135364 
L 115.765908 -262.203039 
L 126.249203 -267.882672 
L 136.732498 -264.491172 
L 147.215793 -274.070718 
L 157.699088 -278.800275 
L 168.182383 -280.927898 
L 178.665678 -277.949774 
L 189.148973 -280.465258 
L 199.632269 -276.130572 
L 210.115564 -282.950768 
L 220.598859 -278.313973 
L 231.082154 -280.55476 
L 241.565449 -280.877323 
L 252.048744 -278.699698 
L 262.532039 -288.317436 
L 273.015334 -287.008853 
L 283.498629 -275.419007 
L 293.981925 -285.583455 
L 304.46522 -285.753722 
L 314.948515 -284.767685 
L 325.43181 -282.060594 
L 335.915105 -286.976885 
L 346.3984 -278.105927 
L 356.881695 -291.056108 
L 367.36499 -283.690617 
L 377.848285 -286.237395 
L 388.331581 -277.32412 
L 398.487273 -279.30601 
L 398.487273 -279.30601 
L 398.487273 -287.576242 
L 388.331581 -284.246637 
L 377.848285 -292.652751 
L 367.36499 -291.815909 
L 356.881695 -292.660364 
L 346.3984 -286.692622 
L 335.915105 -290.408774 
L 325.43181 -287.118612 
L 314.948515 -291.924802 
L 304.46522 -291.01613 
L 293.981925 -287.388309 
L 283.498629 -285.137544 
L 273.015334 -291.826761 
L 262.532039 -289.626518 
L 252.048744 -285.484478 
L 241.565449 -287.613012 
L 231.082154 -284.787865 
L 220.598859 -282.681693 
L 210.115564 -286.271286 
L 199.632269 -284.485104 
L 189.148973 -283.824019 
L 178.665678 -282.275008 
L 168.182383 -282.157135 
L 157.699088 -282.073252 
L 147.215793 -277.974757 
L 136.732498 -274.827827 
L 126.249203 -273.631386 
L 115.765908 -271.368942 
L 105.282613 -268.522287 
L 94.799317 -262.162921 
L 84.316022 -257.168911 
L 73.832727 -236.315138 
z
" style="stroke: #ffdead"/>
    </defs>
    <g clip-path="url(#pc26f1aaff4)">
     <use xlink:href="#m8ecb025da2" x="0" y="345.6" style="fill: #ffdead; stroke: #ffdead"/>
    </g>
   </g>
   <g id="matplotlib.axis_1">
    <g id="xtick_1">
     <g id="line2d_1">
      <defs>
       <path id="m1ebc143191" d="M 0 0 
L 0 3.5 
" style="stroke: #000000; stroke-width: 0.8"/>
      </defs>
      <g>
       <use xlink:href="#m1ebc143191" x="73.832727" y="293.76" style="stroke: #000000; stroke-width: 0.8"/>
      </g>
     </g>
     <g id="text_1">
      <!-- 1, 32 -->
      <g transform="translate(59.838665 309.118281)scale(0.11 -0.11)">
       <defs>
        <path id="DejaVuSans-31" d="M 794 531 
L 1825 531 
L 1825 4091 
L 703 3866 
L 703 4441 
L 1819 4666 
L 2450 4666 
L 2450 531 
L 3481 531 
L 3481 0 
L 794 0 
L 794 531 
z
" transform="scale(0.015625)"/>
        <path id="DejaVuSans-2c" d="M 750 794 
L 1409 794 
L 1409 256 
L 897 -744 
L 494 -744 
L 750 256 
L 750 794 
z
" transform="scale(0.015625)"/>
        <path id="DejaVuSans-20" transform="scale(0.015625)"/>
        <path id="DejaVuSans-33" d="M 2597 2516 
Q 3050 2419 3304 2112 
Q 3559 1806 3559 1356 
Q 3559 666 3084 287 
Q 2609 -91 1734 -91 
Q 1441 -91 1130 -33 
Q 819 25 488 141 
L 488 750 
Q 750 597 1062 519 
Q 1375 441 1716 441 
Q 2309 441 2620 675 
Q 2931 909 2931 1356 
Q 2931 1769 2642 2001 
Q 2353 2234 1838 2234 
L 1294 2234 
L 1294 2753 
L 1863 2753 
Q 2328 2753 2575 2939 
Q 2822 3125 2822 3475 
Q 2822 3834 2567 4026 
Q 2313 4219 1838 4219 
Q 1578 4219 1281 4162 
Q 984 4106 628 3988 
L 628 4550 
Q 988 4650 1302 4700 
Q 1616 4750 1894 4750 
Q 2613 4750 3031 4423 
Q 3450 4097 3450 3541 
Q 3450 3153 3228 2886 
Q 3006 2619 2597 2516 
z
" transform="scale(0.015625)"/>
        <path id="DejaVuSans-32" d="M 1228 531 
L 3431 531 
L 3431 0 
L 469 0 
L 469 531 
Q 828 903 1448 1529 
Q 2069 2156 2228 2338 
Q 2531 2678 2651 2914 
Q 2772 3150 2772 3378 
Q 2772 3750 2511 3984 
Q 2250 4219 1831 4219 
Q 1534 4219 1204 4116 
Q 875 4013 500 3803 
L 500 4441 
Q 881 4594 1212 4672 
Q 1544 4750 1819 4750 
Q 2544 4750 2975 4387 
Q 3406 4025 3406 3419 
Q 3406 3131 3298 2873 
Q 3191 2616 2906 2266 
Q 2828 2175 2409 1742 
Q 1991 1309 1228 531 
z
" transform="scale(0.015625)"/>
       </defs>
       <use xlink:href="#DejaVuSans-31"/>
       <use xlink:href="#DejaVuSans-2c" x="63.623047"/>
       <use xlink:href="#DejaVuSans-20" x="95.410156"/>
       <use xlink:href="#DejaVuSans-33" x="127.197266"/>
       <use xlink:href="#DejaVuSans-32" x="190.820312"/>
      </g>
     </g>
    </g>
    <g id="xtick_2">
     <g id="line2d_2">
      <g>
       <use xlink:href="#m1ebc143191" x="136.732498" y="293.76" style="stroke: #000000; stroke-width: 0.8"/>
      </g>
     </g>
     <g id="text_2">
      <!-- 7, 224 -->
      <g transform="translate(119.23906 309.118281)scale(0.11 -0.11)">
       <defs>
        <path id="DejaVuSans-37" d="M 525 4666 
L 3525 4666 
L 3525 4397 
L 1831 0 
L 1172 0 
L 2766 4134 
L 525 4134 
L 525 4666 
z
" transform="scale(0.015625)"/>
        <path id="DejaVuSans-34" d="M 2419 4116 
L 825 1625 
L 2419 1625 
L 2419 4116 
z
M 2253 4666 
L 3047 4666 
L 3047 1625 
L 3713 1625 
L 3713 1100 
L 3047 1100 
L 3047 0 
L 2419 0 
L 2419 1100 
L 313 1100 
L 313 1709 
L 2253 4666 
z
" transform="scale(0.015625)"/>
       </defs>
       <use xlink:href="#DejaVuSans-37"/>
       <use xlink:href="#DejaVuSans-2c" x="63.623047"/>
       <use xlink:href="#DejaVuSans-20" x="95.410156"/>
       <use xlink:href="#DejaVuSans-32" x="127.197266"/>
       <use xlink:href="#DejaVuSans-32" x="190.820312"/>
       <use xlink:href="#DejaVuSans-34" x="254.443359"/>
      </g>
     </g>
    </g>
    <g id="xtick_3">
     <g id="line2d_3">
      <g>
       <use xlink:href="#m1ebc143191" x="199.632269" y="293.76" style="stroke: #000000; stroke-width: 0.8"/>
      </g>
     </g>
     <g id="text_3">
      <!-- 13, 416 -->
      <g transform="translate(178.639456 309.118281)scale(0.11 -0.11)">
       <defs>
        <path id="DejaVuSans-36" d="M 2113 2584 
Q 1688 2584 1439 2293 
Q 1191 2003 1191 1497 
Q 1191 994 1439 701 
Q 1688 409 2113 409 
Q 2538 409 2786 701 
Q 3034 994 3034 1497 
Q 3034 2003 2786 2293 
Q 2538 2584 2113 2584 
z
M 3366 4563 
L 3366 3988 
Q 3128 4100 2886 4159 
Q 2644 4219 2406 4219 
Q 1781 4219 1451 3797 
Q 1122 3375 1075 2522 
Q 1259 2794 1537 2939 
Q 1816 3084 2150 3084 
Q 2853 3084 3261 2657 
Q 3669 2231 3669 1497 
Q 3669 778 3244 343 
Q 2819 -91 2113 -91 
Q 1303 -91 875 529 
Q 447 1150 447 2328 
Q 447 3434 972 4092 
Q 1497 4750 2381 4750 
Q 2619 4750 2861 4703 
Q 3103 4656 3366 4563 
z
" transform="scale(0.015625)"/>
       </defs>
       <use xlink:href="#DejaVuSans-31"/>
       <use xlink:href="#DejaVuSans-33" x="63.623047"/>
       <use xlink:href="#DejaVuSans-2c" x="127.246094"/>
       <use xlink:href="#DejaVuSans-20" x="159.033203"/>
       <use xlink:href="#DejaVuSans-34" x="190.820312"/>
       <use xlink:href="#DejaVuSans-31" x="254.443359"/>
       <use xlink:href="#DejaVuSans-36" x="318.066406"/>
      </g>
     </g>
    </g>
    <g id="xtick_4">
     <g id="line2d_4">
      <g>
       <use xlink:href="#m1ebc143191" x="262.532039" y="293.76" style="stroke: #000000; stroke-width: 0.8"/>
      </g>
     </g>
     <g id="text_4">
      <!-- 19, 608 -->
      <g transform="translate(241.539227 309.118281)scale(0.11 -0.11)">
       <defs>
        <path id="DejaVuSans-39" d="M 703 97 
L 703 672 
Q 941 559 1184 500 
Q 1428 441 1663 441 
Q 2288 441 2617 861 
Q 2947 1281 2994 2138 
Q 2813 1869 2534 1725 
Q 2256 1581 1919 1581 
Q 1219 1581 811 2004 
Q 403 2428 403 3163 
Q 403 3881 828 4315 
Q 1253 4750 1959 4750 
Q 2769 4750 3195 4129 
Q 3622 3509 3622 2328 
Q 3622 1225 3098 567 
Q 2575 -91 1691 -91 
Q 1453 -91 1209 -44 
Q 966 3 703 97 
z
M 1959 2075 
Q 2384 2075 2632 2365 
Q 2881 2656 2881 3163 
Q 2881 3666 2632 3958 
Q 2384 4250 1959 4250 
Q 1534 4250 1286 3958 
Q 1038 3666 1038 3163 
Q 1038 2656 1286 2365 
Q 1534 2075 1959 2075 
z
" transform="scale(0.015625)"/>
        <path id="DejaVuSans-30" d="M 2034 4250 
Q 1547 4250 1301 3770 
Q 1056 3291 1056 2328 
Q 1056 1369 1301 889 
Q 1547 409 2034 409 
Q 2525 409 2770 889 
Q 3016 1369 3016 2328 
Q 3016 3291 2770 3770 
Q 2525 4250 2034 4250 
z
M 2034 4750 
Q 2819 4750 3233 4129 
Q 3647 3509 3647 2328 
Q 3647 1150 3233 529 
Q 2819 -91 2034 -91 
Q 1250 -91 836 529 
Q 422 1150 422 2328 
Q 422 3509 836 4129 
Q 1250 4750 2034 4750 
z
" transform="scale(0.015625)"/>
        <path id="DejaVuSans-38" d="M 2034 2216 
Q 1584 2216 1326 1975 
Q 1069 1734 1069 1313 
Q 1069 891 1326 650 
Q 1584 409 2034 409 
Q 2484 409 2743 651 
Q 3003 894 3003 1313 
Q 3003 1734 2745 1975 
Q 2488 2216 2034 2216 
z
M 1403 2484 
Q 997 2584 770 2862 
Q 544 3141 544 3541 
Q 544 4100 942 4425 
Q 1341 4750 2034 4750 
Q 2731 4750 3128 4425 
Q 3525 4100 3525 3541 
Q 3525 3141 3298 2862 
Q 3072 2584 2669 2484 
Q 3125 2378 3379 2068 
Q 3634 1759 3634 1313 
Q 3634 634 3220 271 
Q 2806 -91 2034 -91 
Q 1263 -91 848 271 
Q 434 634 434 1313 
Q 434 1759 690 2068 
Q 947 2378 1403 2484 
z
M 1172 3481 
Q 1172 3119 1398 2916 
Q 1625 2713 2034 2713 
Q 2441 2713 2670 2916 
Q 2900 3119 2900 3481 
Q 2900 3844 2670 4047 
Q 2441 4250 2034 4250 
Q 1625 4250 1398 4047 
Q 1172 3844 1172 3481 
z
" transform="scale(0.015625)"/>
       </defs>
       <use xlink:href="#DejaVuSans-31"/>
       <use xlink:href="#DejaVuSans-39" x="63.623047"/>
       <use xlink:href="#DejaVuSans-2c" x="127.246094"/>
       <use xlink:href="#DejaVuSans-20" x="159.033203"/>
       <use xlink:href="#DejaVuSans-36" x="190.820312"/>
       <use xlink:href="#DejaVuSans-30" x="254.443359"/>
       <use xlink:href="#DejaVuSans-38" x="318.066406"/>
      </g>
     </g>
    </g>
    <g id="xtick_5">
     <g id="line2d_5">
      <g>
       <use xlink:href="#m1ebc143191" x="325.43181" y="293.76" style="stroke: #000000; stroke-width: 0.8"/>
      </g>
     </g>
     <g id="text_5">
      <!-- 25, 800 -->
      <g transform="translate(304.438997 309.118281)scale(0.11 -0.11)">
       <defs>
        <path id="DejaVuSans-35" d="M 691 4666 
L 3169 4666 
L 3169 4134 
L 1269 4134 
L 1269 2991 
Q 1406 3038 1543 3061 
Q 1681 3084 1819 3084 
Q 2600 3084 3056 2656 
Q 3513 2228 3513 1497 
Q 3513 744 3044 326 
Q 2575 -91 1722 -91 
Q 1428 -91 1123 -41 
Q 819 9 494 109 
L 494 744 
Q 775 591 1075 516 
Q 1375 441 1709 441 
Q 2250 441 2565 725 
Q 2881 1009 2881 1497 
Q 2881 1984 2565 2268 
Q 2250 2553 1709 2553 
Q 1456 2553 1204 2497 
Q 953 2441 691 2322 
L 691 4666 
z
" transform="scale(0.015625)"/>
       </defs>
       <use xlink:href="#DejaVuSans-32"/>
       <use xlink:href="#DejaVuSans-35" x="63.623047"/>
       <use xlink:href="#DejaVuSans-2c" x="127.246094"/>
       <use xlink:href="#DejaVuSans-20" x="159.033203"/>
       <use xlink:href="#DejaVuSans-38" x="190.820312"/>
       <use xlink:href="#DejaVuSans-30" x="254.443359"/>
       <use xlink:href="#DejaVuSans-30" x="318.066406"/>
      </g>
     </g>
    </g>
    <g id="xtick_6">
     <g id="line2d_6">
      <g>
       <use xlink:href="#m1ebc143191" x="388.331581" y="293.76" style="stroke: #000000; stroke-width: 0.8"/>
      </g>
     </g>
     <g id="text_6">
      <!-- 31, 992 -->
      <g transform="translate(367.338768 309.118281)scale(0.11 -0.11)">
       <use xlink:href="#DejaVuSans-33"/>
       <use xlink:href="#DejaVuSans-31" x="63.623047"/>
       <use xlink:href="#DejaVuSans-2c" x="127.246094"/>
       <use xlink:href="#DejaVuSans-20" x="159.033203"/>
       <use xlink:href="#DejaVuSans-39" x="190.820312"/>
       <use xlink:href="#DejaVuSans-39" x="254.443359"/>
       <use xlink:href="#DejaVuSans-32" x="318.066406"/>
      </g>
     </g>
    </g>
    <g id="text_7">
     <!-- Bin number, maximum program size -->
     <g transform="translate(107.815 326.04375)scale(0.14 -0.14)">
      <defs>
       <path id="DejaVuSans-42" d="M 1259 2228 
L 1259 519 
L 2272 519 
Q 2781 519 3026 730 
Q 3272 941 3272 1375 
Q 3272 1813 3026 2020 
Q 2781 2228 2272 2228 
L 1259 2228 
z
M 1259 4147 
L 1259 2741 
L 2194 2741 
Q 2656 2741 2882 2914 
Q 3109 3088 3109 3444 
Q 3109 3797 2882 3972 
Q 2656 4147 2194 4147 
L 1259 4147 
z
M 628 4666 
L 2241 4666 
Q 2963 4666 3353 4366 
Q 3744 4066 3744 3513 
Q 3744 3084 3544 2831 
Q 3344 2578 2956 2516 
Q 3422 2416 3680 2098 
Q 3938 1781 3938 1306 
Q 3938 681 3513 340 
Q 3088 0 2303 0 
L 628 0 
L 628 4666 
z
" transform="scale(0.015625)"/>
       <path id="DejaVuSans-69" d="M 603 3500 
L 1178 3500 
L 1178 0 
L 603 0 
L 603 3500 
z
M 603 4863 
L 1178 4863 
L 1178 4134 
L 603 4134 
L 603 4863 
z
" transform="scale(0.015625)"/>
       <path id="DejaVuSans-6e" d="M 3513 2113 
L 3513 0 
L 2938 0 
L 2938 2094 
Q 2938 2591 2744 2837 
Q 2550 3084 2163 3084 
Q 1697 3084 1428 2787 
Q 1159 2491 1159 1978 
L 1159 0 
L 581 0 
L 581 3500 
L 1159 3500 
L 1159 2956 
Q 1366 3272 1645 3428 
Q 1925 3584 2291 3584 
Q 2894 3584 3203 3211 
Q 3513 2838 3513 2113 
z
" transform="scale(0.015625)"/>
       <path id="DejaVuSans-75" d="M 544 1381 
L 544 3500 
L 1119 3500 
L 1119 1403 
Q 1119 906 1312 657 
Q 1506 409 1894 409 
Q 2359 409 2629 706 
Q 2900 1003 2900 1516 
L 2900 3500 
L 3475 3500 
L 3475 0 
L 2900 0 
L 2900 538 
Q 2691 219 2414 64 
Q 2138 -91 1772 -91 
Q 1169 -91 856 284 
Q 544 659 544 1381 
z
M 1991 3584 
L 1991 3584 
z
" transform="scale(0.015625)"/>
       <path id="DejaVuSans-6d" d="M 3328 2828 
Q 3544 3216 3844 3400 
Q 4144 3584 4550 3584 
Q 5097 3584 5394 3201 
Q 5691 2819 5691 2113 
L 5691 0 
L 5113 0 
L 5113 2094 
Q 5113 2597 4934 2840 
Q 4756 3084 4391 3084 
Q 3944 3084 3684 2787 
Q 3425 2491 3425 1978 
L 3425 0 
L 2847 0 
L 2847 2094 
Q 2847 2600 2669 2842 
Q 2491 3084 2119 3084 
Q 1678 3084 1418 2786 
Q 1159 2488 1159 1978 
L 1159 0 
L 581 0 
L 581 3500 
L 1159 3500 
L 1159 2956 
Q 1356 3278 1631 3431 
Q 1906 3584 2284 3584 
Q 2666 3584 2933 3390 
Q 3200 3197 3328 2828 
z
" transform="scale(0.015625)"/>
       <path id="DejaVuSans-62" d="M 3116 1747 
Q 3116 2381 2855 2742 
Q 2594 3103 2138 3103 
Q 1681 3103 1420 2742 
Q 1159 2381 1159 1747 
Q 1159 1113 1420 752 
Q 1681 391 2138 391 
Q 2594 391 2855 752 
Q 3116 1113 3116 1747 
z
M 1159 2969 
Q 1341 3281 1617 3432 
Q 1894 3584 2278 3584 
Q 2916 3584 3314 3078 
Q 3713 2572 3713 1747 
Q 3713 922 3314 415 
Q 2916 -91 2278 -91 
Q 1894 -91 1617 61 
Q 1341 213 1159 525 
L 1159 0 
L 581 0 
L 581 4863 
L 1159 4863 
L 1159 2969 
z
" transform="scale(0.015625)"/>
       <path id="DejaVuSans-65" d="M 3597 1894 
L 3597 1613 
L 953 1613 
Q 991 1019 1311 708 
Q 1631 397 2203 397 
Q 2534 397 2845 478 
Q 3156 559 3463 722 
L 3463 178 
Q 3153 47 2828 -22 
Q 2503 -91 2169 -91 
Q 1331 -91 842 396 
Q 353 884 353 1716 
Q 353 2575 817 3079 
Q 1281 3584 2069 3584 
Q 2775 3584 3186 3129 
Q 3597 2675 3597 1894 
z
M 3022 2063 
Q 3016 2534 2758 2815 
Q 2500 3097 2075 3097 
Q 1594 3097 1305 2825 
Q 1016 2553 972 2059 
L 3022 2063 
z
" transform="scale(0.015625)"/>
       <path id="DejaVuSans-72" d="M 2631 2963 
Q 2534 3019 2420 3045 
Q 2306 3072 2169 3072 
Q 1681 3072 1420 2755 
Q 1159 2438 1159 1844 
L 1159 0 
L 581 0 
L 581 3500 
L 1159 3500 
L 1159 2956 
Q 1341 3275 1631 3429 
Q 1922 3584 2338 3584 
Q 2397 3584 2469 3576 
Q 2541 3569 2628 3553 
L 2631 2963 
z
" transform="scale(0.015625)"/>
       <path id="DejaVuSans-61" d="M 2194 1759 
Q 1497 1759 1228 1600 
Q 959 1441 959 1056 
Q 959 750 1161 570 
Q 1363 391 1709 391 
Q 2188 391 2477 730 
Q 2766 1069 2766 1631 
L 2766 1759 
L 2194 1759 
z
M 3341 1997 
L 3341 0 
L 2766 0 
L 2766 531 
Q 2569 213 2275 61 
Q 1981 -91 1556 -91 
Q 1019 -91 701 211 
Q 384 513 384 1019 
Q 384 1609 779 1909 
Q 1175 2209 1959 2209 
L 2766 2209 
L 2766 2266 
Q 2766 2663 2505 2880 
Q 2244 3097 1772 3097 
Q 1472 3097 1187 3025 
Q 903 2953 641 2809 
L 641 3341 
Q 956 3463 1253 3523 
Q 1550 3584 1831 3584 
Q 2591 3584 2966 3190 
Q 3341 2797 3341 1997 
z
" transform="scale(0.015625)"/>
       <path id="DejaVuSans-78" d="M 3513 3500 
L 2247 1797 
L 3578 0 
L 2900 0 
L 1881 1375 
L 863 0 
L 184 0 
L 1544 1831 
L 300 3500 
L 978 3500 
L 1906 2253 
L 2834 3500 
L 3513 3500 
z
" transform="scale(0.015625)"/>
       <path id="DejaVuSans-70" d="M 1159 525 
L 1159 -1331 
L 581 -1331 
L 581 3500 
L 1159 3500 
L 1159 2969 
Q 1341 3281 1617 3432 
Q 1894 3584 2278 3584 
Q 2916 3584 3314 3078 
Q 3713 2572 3713 1747 
Q 3713 922 3314 415 
Q 2916 -91 2278 -91 
Q 1894 -91 1617 61 
Q 1341 213 1159 525 
z
M 3116 1747 
Q 3116 2381 2855 2742 
Q 2594 3103 2138 3103 
Q 1681 3103 1420 2742 
Q 1159 2381 1159 1747 
Q 1159 1113 1420 752 
Q 1681 391 2138 391 
Q 2594 391 2855 752 
Q 3116 1113 3116 1747 
z
" transform="scale(0.015625)"/>
       <path id="DejaVuSans-6f" d="M 1959 3097 
Q 1497 3097 1228 2736 
Q 959 2375 959 1747 
Q 959 1119 1226 758 
Q 1494 397 1959 397 
Q 2419 397 2687 759 
Q 2956 1122 2956 1747 
Q 2956 2369 2687 2733 
Q 2419 3097 1959 3097 
z
M 1959 3584 
Q 2709 3584 3137 3096 
Q 3566 2609 3566 1747 
Q 3566 888 3137 398 
Q 2709 -91 1959 -91 
Q 1206 -91 779 398 
Q 353 888 353 1747 
Q 353 2609 779 3096 
Q 1206 3584 1959 3584 
z
" transform="scale(0.015625)"/>
       <path id="DejaVuSans-67" d="M 2906 1791 
Q 2906 2416 2648 2759 
Q 2391 3103 1925 3103 
Q 1463 3103 1205 2759 
Q 947 2416 947 1791 
Q 947 1169 1205 825 
Q 1463 481 1925 481 
Q 2391 481 2648 825 
Q 2906 1169 2906 1791 
z
M 3481 434 
Q 3481 -459 3084 -895 
Q 2688 -1331 1869 -1331 
Q 1566 -1331 1297 -1286 
Q 1028 -1241 775 -1147 
L 775 -588 
Q 1028 -725 1275 -790 
Q 1522 -856 1778 -856 
Q 2344 -856 2625 -561 
Q 2906 -266 2906 331 
L 2906 616 
Q 2728 306 2450 153 
Q 2172 0 1784 0 
Q 1141 0 747 490 
Q 353 981 353 1791 
Q 353 2603 747 3093 
Q 1141 3584 1784 3584 
Q 2172 3584 2450 3431 
Q 2728 3278 2906 2969 
L 2906 3500 
L 3481 3500 
L 3481 434 
z
" transform="scale(0.015625)"/>
       <path id="DejaVuSans-73" d="M 2834 3397 
L 2834 2853 
Q 2591 2978 2328 3040 
Q 2066 3103 1784 3103 
Q 1356 3103 1142 2972 
Q 928 2841 928 2578 
Q 928 2378 1081 2264 
Q 1234 2150 1697 2047 
L 1894 2003 
Q 2506 1872 2764 1633 
Q 3022 1394 3022 966 
Q 3022 478 2636 193 
Q 2250 -91 1575 -91 
Q 1294 -91 989 -36 
Q 684 19 347 128 
L 347 722 
Q 666 556 975 473 
Q 1284 391 1588 391 
Q 1994 391 2212 530 
Q 2431 669 2431 922 
Q 2431 1156 2273 1281 
Q 2116 1406 1581 1522 
L 1381 1569 
Q 847 1681 609 1914 
Q 372 2147 372 2553 
Q 372 3047 722 3315 
Q 1072 3584 1716 3584 
Q 2034 3584 2315 3537 
Q 2597 3491 2834 3397 
z
" transform="scale(0.015625)"/>
       <path id="DejaVuSans-7a" d="M 353 3500 
L 3084 3500 
L 3084 2975 
L 922 459 
L 3084 459 
L 3084 0 
L 275 0 
L 275 525 
L 2438 3041 
L 353 3041 
L 353 3500 
z
" transform="scale(0.015625)"/>
      </defs>
      <use xlink:href="#DejaVuSans-42"/>
      <use xlink:href="#DejaVuSans-69" x="68.603516"/>
      <use xlink:href="#DejaVuSans-6e" x="96.386719"/>
      <use xlink:href="#DejaVuSans-20" x="159.765625"/>
      <use xlink:href="#DejaVuSans-6e" x="191.552734"/>
      <use xlink:href="#DejaVuSans-75" x="254.931641"/>
      <use xlink:href="#DejaVuSans-6d" x="318.310547"/>
      <use xlink:href="#DejaVuSans-62" x="415.722656"/>
      <use xlink:href="#DejaVuSans-65" x="479.199219"/>
      <use xlink:href="#DejaVuSans-72" x="540.722656"/>
      <use xlink:href="#DejaVuSans-2c" x="581.835938"/>
      <use xlink:href="#DejaVuSans-20" x="613.623047"/>
      <use xlink:href="#DejaVuSans-6d" x="645.410156"/>
      <use xlink:href="#DejaVuSans-61" x="742.822266"/>
      <use xlink:href="#DejaVuSans-78" x="804.101562"/>
      <use xlink:href="#DejaVuSans-69" x="863.28125"/>
      <use xlink:href="#DejaVuSans-6d" x="891.064453"/>
      <use xlink:href="#DejaVuSans-75" x="988.476562"/>
      <use xlink:href="#DejaVuSans-6d" x="1051.855469"/>
      <use xlink:href="#DejaVuSans-20" x="1149.267578"/>
      <use xlink:href="#DejaVuSans-70" x="1181.054688"/>
      <use xlink:href="#DejaVuSans-72" x="1244.53125"/>
      <use xlink:href="#DejaVuSans-6f" x="1283.394531"/>
      <use xlink:href="#DejaVuSans-67" x="1344.576172"/>
      <use xlink:href="#DejaVuSans-72" x="1408.052734"/>
      <use xlink:href="#DejaVuSans-61" x="1449.166016"/>
      <use xlink:href="#DejaVuSans-6d" x="1510.445312"/>
      <use xlink:href="#DejaVuSans-20" x="1607.857422"/>
      <use xlink:href="#DejaVuSans-73" x="1639.644531"/>
      <use xlink:href="#DejaVuSans-69" x="1691.744141"/>
      <use xlink:href="#DejaVuSans-7a" x="1719.527344"/>
      <use xlink:href="#DejaVuSans-65" x="1772.017578"/>
     </g>
    </g>
   </g>
   <g id="matplotlib.axis_2">
    <g id="ytick_1">
     <g id="line2d_7">
      <defs>
       <path id="m6310b8045e" d="M 0 0 
L -3.5 0 
" style="stroke: #000000; stroke-width: 0.8"/>
      </defs>
      <g>
       <use xlink:href="#m6310b8045e" x="57.6" y="242.434715" style="stroke: #000000; stroke-width: 0.8"/>
      </g>
     </g>
     <g id="text_8">
      <!-- $\mathdefault{10^{7}}$ -->
      <g transform="translate(31.24 246.613855)scale(0.11 -0.11)">
       <use xlink:href="#DejaVuSans-31" transform="translate(0 0.684375)"/>
       <use xlink:href="#DejaVuSans-30" transform="translate(63.623047 0.684375)"/>
       <use xlink:href="#DejaVuSans-37" transform="translate(128.203125 38.965625)scale(0.7)"/>
      </g>
     </g>
    </g>
    <g id="ytick_2">
     <g id="line2d_8">
      <g>
       <use xlink:href="#m6310b8045e" x="57.6" y="188.975372" style="stroke: #000000; stroke-width: 0.8"/>
      </g>
     </g>
     <g id="text_9">
      <!-- $\mathdefault{10^{8}}$ -->
      <g transform="translate(31.24 193.154513)scale(0.11 -0.11)">
       <use xlink:href="#DejaVuSans-31" transform="translate(0 0.765625)"/>
       <use xlink:href="#DejaVuSans-30" transform="translate(63.623047 0.765625)"/>
       <use xlink:href="#DejaVuSans-38" transform="translate(128.203125 39.046875)scale(0.7)"/>
      </g>
     </g>
    </g>
    <g id="ytick_3">
     <g id="line2d_9">
      <g>
       <use xlink:href="#m6310b8045e" x="57.6" y="135.51603" style="stroke: #000000; stroke-width: 0.8"/>
      </g>
     </g>
     <g id="text_10">
      <!-- $\mathdefault{10^{9}}$ -->
      <g transform="translate(31.24 139.69517)scale(0.11 -0.11)">
       <use xlink:href="#DejaVuSans-31" transform="translate(0 0.765625)"/>
       <use xlink:href="#DejaVuSans-30" transform="translate(63.623047 0.765625)"/>
       <use xlink:href="#DejaVuSans-39" transform="translate(128.203125 39.046875)scale(0.7)"/>
      </g>
     </g>
    </g>
    <g id="ytick_4">
     <g id="line2d_10">
      <g>
       <use xlink:href="#m6310b8045e" x="57.6" y="82.056687" style="stroke: #000000; stroke-width: 0.8"/>
      </g>
     </g>
     <g id="text_11">
      <!-- $\mathdefault{10^{10}}$ -->
      <g transform="translate(26.29 86.235828)scale(0.11 -0.11)">
       <use xlink:href="#DejaVuSans-31" transform="translate(0 0.765625)"/>
       <use xlink:href="#DejaVuSans-30" transform="translate(63.623047 0.765625)"/>
       <use xlink:href="#DejaVuSans-31" transform="translate(128.203125 39.046875)scale(0.7)"/>
       <use xlink:href="#DejaVuSans-30" transform="translate(172.739258 39.046875)scale(0.7)"/>
      </g>
     </g>
    </g>
    <g id="ytick_5">
     <g id="line2d_11">
      <defs>
       <path id="m9fa59cfc93" d="M 0 0 
L -2 0 
" style="stroke: #000000; stroke-width: 0.6"/>
      </defs>
      <g>
       <use xlink:href="#m9fa59cfc93" x="57.6" y="279.801191" style="stroke: #000000; stroke-width: 0.6"/>
      </g>
     </g>
    </g>
    <g id="ytick_6">
     <g id="line2d_12">
      <g>
       <use xlink:href="#m9fa59cfc93" x="57.6" y="270.387469" style="stroke: #000000; stroke-width: 0.6"/>
      </g>
     </g>
    </g>
    <g id="ytick_7">
     <g id="line2d_13">
      <g>
       <use xlink:href="#m9fa59cfc93" x="57.6" y="263.708326" style="stroke: #000000; stroke-width: 0.6"/>
      </g>
     </g>
    </g>
    <g id="ytick_8">
     <g id="line2d_14">
      <g>
       <use xlink:href="#m9fa59cfc93" x="57.6" y="258.52758" style="stroke: #000000; stroke-width: 0.6"/>
      </g>
     </g>
    </g>
    <g id="ytick_9">
     <g id="line2d_15">
      <g>
       <use xlink:href="#m9fa59cfc93" x="57.6" y="254.294603" style="stroke: #000000; stroke-width: 0.6"/>
      </g>
     </g>
    </g>
    <g id="ytick_10">
     <g id="line2d_16">
      <g>
       <use xlink:href="#m9fa59cfc93" x="57.6" y="250.715672" style="stroke: #000000; stroke-width: 0.6"/>
      </g>
     </g>
    </g>
    <g id="ytick_11">
     <g id="line2d_17">
      <g>
       <use xlink:href="#m9fa59cfc93" x="57.6" y="247.61546" style="stroke: #000000; stroke-width: 0.6"/>
      </g>
     </g>
    </g>
    <g id="ytick_12">
     <g id="line2d_18">
      <g>
       <use xlink:href="#m9fa59cfc93" x="57.6" y="244.88088" style="stroke: #000000; stroke-width: 0.6"/>
      </g>
     </g>
    </g>
    <g id="ytick_13">
     <g id="line2d_19">
      <g>
       <use xlink:href="#m9fa59cfc93" x="57.6" y="226.341849" style="stroke: #000000; stroke-width: 0.6"/>
      </g>
     </g>
    </g>
    <g id="ytick_14">
     <g id="line2d_20">
      <g>
       <use xlink:href="#m9fa59cfc93" x="57.6" y="216.928126" style="stroke: #000000; stroke-width: 0.6"/>
      </g>
     </g>
    </g>
    <g id="ytick_15">
     <g id="line2d_21">
      <g>
       <use xlink:href="#m9fa59cfc93" x="57.6" y="210.248983" style="stroke: #000000; stroke-width: 0.6"/>
      </g>
     </g>
    </g>
    <g id="ytick_16">
     <g id="line2d_22">
      <g>
       <use xlink:href="#m9fa59cfc93" x="57.6" y="205.068238" style="stroke: #000000; stroke-width: 0.6"/>
      </g>
     </g>
    </g>
    <g id="ytick_17">
     <g id="line2d_23">
      <g>
       <use xlink:href="#m9fa59cfc93" x="57.6" y="200.83526" style="stroke: #000000; stroke-width: 0.6"/>
      </g>
     </g>
    </g>
    <g id="ytick_18">
     <g id="line2d_24">
      <g>
       <use xlink:href="#m9fa59cfc93" x="57.6" y="197.256329" style="stroke: #000000; stroke-width: 0.6"/>
      </g>
     </g>
    </g>
    <g id="ytick_19">
     <g id="line2d_25">
      <g>
       <use xlink:href="#m9fa59cfc93" x="57.6" y="194.156118" style="stroke: #000000; stroke-width: 0.6"/>
      </g>
     </g>
    </g>
    <g id="ytick_20">
     <g id="line2d_26">
      <g>
       <use xlink:href="#m9fa59cfc93" x="57.6" y="191.421537" style="stroke: #000000; stroke-width: 0.6"/>
      </g>
     </g>
    </g>
    <g id="ytick_21">
     <g id="line2d_27">
      <g>
       <use xlink:href="#m9fa59cfc93" x="57.6" y="172.882506" style="stroke: #000000; stroke-width: 0.6"/>
      </g>
     </g>
    </g>
    <g id="ytick_22">
     <g id="line2d_28">
      <g>
       <use xlink:href="#m9fa59cfc93" x="57.6" y="163.468783" style="stroke: #000000; stroke-width: 0.6"/>
      </g>
     </g>
    </g>
    <g id="ytick_23">
     <g id="line2d_29">
      <g>
       <use xlink:href="#m9fa59cfc93" x="57.6" y="156.789641" style="stroke: #000000; stroke-width: 0.6"/>
      </g>
     </g>
    </g>
    <g id="ytick_24">
     <g id="line2d_30">
      <g>
       <use xlink:href="#m9fa59cfc93" x="57.6" y="151.608895" style="stroke: #000000; stroke-width: 0.6"/>
      </g>
     </g>
    </g>
    <g id="ytick_25">
     <g id="line2d_31">
      <g>
       <use xlink:href="#m9fa59cfc93" x="57.6" y="147.375918" style="stroke: #000000; stroke-width: 0.6"/>
      </g>
     </g>
    </g>
    <g id="ytick_26">
     <g id="line2d_32">
      <g>
       <use xlink:href="#m9fa59cfc93" x="57.6" y="143.796986" style="stroke: #000000; stroke-width: 0.6"/>
      </g>
     </g>
    </g>
    <g id="ytick_27">
     <g id="line2d_33">
      <g>
       <use xlink:href="#m9fa59cfc93" x="57.6" y="140.696775" style="stroke: #000000; stroke-width: 0.6"/>
      </g>
     </g>
    </g>
    <g id="ytick_28">
     <g id="line2d_34">
      <g>
       <use xlink:href="#m9fa59cfc93" x="57.6" y="137.962195" style="stroke: #000000; stroke-width: 0.6"/>
      </g>
     </g>
    </g>
    <g id="ytick_29">
     <g id="line2d_35">
      <g>
       <use xlink:href="#m9fa59cfc93" x="57.6" y="119.423164" style="stroke: #000000; stroke-width: 0.6"/>
      </g>
     </g>
    </g>
    <g id="ytick_30">
     <g id="line2d_36">
      <g>
       <use xlink:href="#m9fa59cfc93" x="57.6" y="110.009441" style="stroke: #000000; stroke-width: 0.6"/>
      </g>
     </g>
    </g>
    <g id="ytick_31">
     <g id="line2d_37">
      <g>
       <use xlink:href="#m9fa59cfc93" x="57.6" y="103.330298" style="stroke: #000000; stroke-width: 0.6"/>
      </g>
     </g>
    </g>
    <g id="ytick_32">
     <g id="line2d_38">
      <g>
       <use xlink:href="#m9fa59cfc93" x="57.6" y="98.149553" style="stroke: #000000; stroke-width: 0.6"/>
      </g>
     </g>
    </g>
    <g id="ytick_33">
     <g id="line2d_39">
      <g>
       <use xlink:href="#m9fa59cfc93" x="57.6" y="93.916575" style="stroke: #000000; stroke-width: 0.6"/>
      </g>
     </g>
    </g>
    <g id="ytick_34">
     <g id="line2d_40">
      <g>
       <use xlink:href="#m9fa59cfc93" x="57.6" y="90.337644" style="stroke: #000000; stroke-width: 0.6"/>
      </g>
     </g>
    </g>
    <g id="ytick_35">
     <g id="line2d_41">
      <g>
       <use xlink:href="#m9fa59cfc93" x="57.6" y="87.237433" style="stroke: #000000; stroke-width: 0.6"/>
      </g>
     </g>
    </g>
    <g id="ytick_36">
     <g id="line2d_42">
      <g>
       <use xlink:href="#m9fa59cfc93" x="57.6" y="84.502852" style="stroke: #000000; stroke-width: 0.6"/>
      </g>
     </g>
    </g>
    <g id="ytick_37">
     <g id="line2d_43">
      <g>
       <use xlink:href="#m9fa59cfc93" x="57.6" y="65.963821" style="stroke: #000000; stroke-width: 0.6"/>
      </g>
     </g>
    </g>
    <g id="ytick_38">
     <g id="line2d_44">
      <g>
       <use xlink:href="#m9fa59cfc93" x="57.6" y="56.550098" style="stroke: #000000; stroke-width: 0.6"/>
      </g>
     </g>
    </g>
    <g id="ytick_39">
     <g id="line2d_45">
      <g>
       <use xlink:href="#m9fa59cfc93" x="57.6" y="49.870956" style="stroke: #000000; stroke-width: 0.6"/>
      </g>
     </g>
    </g>
    <g id="ytick_40">
     <g id="line2d_46">
      <g>
       <use xlink:href="#m9fa59cfc93" x="57.6" y="44.69021" style="stroke: #000000; stroke-width: 0.6"/>
      </g>
     </g>
    </g>
    <g id="text_12">
     <!-- Median NEPS -->
     <g transform="translate(19.378437 213.626781)rotate(-90)scale(0.14 -0.14)">
      <defs>
       <path id="DejaVuSans-4d" d="M 628 4666 
L 1569 4666 
L 2759 1491 
L 3956 4666 
L 4897 4666 
L 4897 0 
L 4281 0 
L 4281 4097 
L 3078 897 
L 2444 897 
L 1241 4097 
L 1241 0 
L 628 0 
L 628 4666 
z
" transform="scale(0.015625)"/>
       <path id="DejaVuSans-64" d="M 2906 2969 
L 2906 4863 
L 3481 4863 
L 3481 0 
L 2906 0 
L 2906 525 
Q 2725 213 2448 61 
Q 2172 -91 1784 -91 
Q 1150 -91 751 415 
Q 353 922 353 1747 
Q 353 2572 751 3078 
Q 1150 3584 1784 3584 
Q 2172 3584 2448 3432 
Q 2725 3281 2906 2969 
z
M 947 1747 
Q 947 1113 1208 752 
Q 1469 391 1925 391 
Q 2381 391 2643 752 
Q 2906 1113 2906 1747 
Q 2906 2381 2643 2742 
Q 2381 3103 1925 3103 
Q 1469 3103 1208 2742 
Q 947 2381 947 1747 
z
" transform="scale(0.015625)"/>
       <path id="DejaVuSans-4e" d="M 628 4666 
L 1478 4666 
L 3547 763 
L 3547 4666 
L 4159 4666 
L 4159 0 
L 3309 0 
L 1241 3903 
L 1241 0 
L 628 0 
L 628 4666 
z
" transform="scale(0.015625)"/>
       <path id="DejaVuSans-45" d="M 628 4666 
L 3578 4666 
L 3578 4134 
L 1259 4134 
L 1259 2753 
L 3481 2753 
L 3481 2222 
L 1259 2222 
L 1259 531 
L 3634 531 
L 3634 0 
L 628 0 
L 628 4666 
z
" transform="scale(0.015625)"/>
       <path id="DejaVuSans-50" d="M 1259 4147 
L 1259 2394 
L 2053 2394 
Q 2494 2394 2734 2622 
Q 2975 2850 2975 3272 
Q 2975 3691 2734 3919 
Q 2494 4147 2053 4147 
L 1259 4147 
z
M 628 4666 
L 2053 4666 
Q 2838 4666 3239 4311 
Q 3641 3956 3641 3272 
Q 3641 2581 3239 2228 
Q 2838 1875 2053 1875 
L 1259 1875 
L 1259 0 
L 628 0 
L 628 4666 
z
" transform="scale(0.015625)"/>
       <path id="DejaVuSans-53" d="M 3425 4513 
L 3425 3897 
Q 3066 4069 2747 4153 
Q 2428 4238 2131 4238 
Q 1616 4238 1336 4038 
Q 1056 3838 1056 3469 
Q 1056 3159 1242 3001 
Q 1428 2844 1947 2747 
L 2328 2669 
Q 3034 2534 3370 2195 
Q 3706 1856 3706 1288 
Q 3706 609 3251 259 
Q 2797 -91 1919 -91 
Q 1588 -91 1214 -16 
Q 841 59 441 206 
L 441 856 
Q 825 641 1194 531 
Q 1563 422 1919 422 
Q 2459 422 2753 634 
Q 3047 847 3047 1241 
Q 3047 1584 2836 1778 
Q 2625 1972 2144 2069 
L 1759 2144 
Q 1053 2284 737 2584 
Q 422 2884 422 3419 
Q 422 4038 858 4394 
Q 1294 4750 2059 4750 
Q 2388 4750 2728 4690 
Q 3069 4631 3425 4513 
z
" transform="scale(0.015625)"/>
      </defs>
      <use xlink:href="#DejaVuSans-4d"/>
      <use xlink:href="#DejaVuSans-65" x="86.279297"/>
      <use xlink:href="#DejaVuSans-64" x="147.802734"/>
      <use xlink:href="#DejaVuSans-69" x="211.279297"/>
      <use xlink:href="#DejaVuSans-61" x="239.0625"/>
      <use xlink:href="#DejaVuSans-6e" x="300.341797"/>
      <use xlink:href="#DejaVuSans-20" x="363.720703"/>
      <use xlink:href="#DejaVuSans-4e" x="395.507812"/>
      <use xlink:href="#DejaVuSans-45" x="470.3125"/>
      <use xlink:href="#DejaVuSans-50" x="533.496094"/>
      <use xlink:href="#DejaVuSans-53" x="593.798828"/>
     </g>
    </g>
   </g>
   <g id="line2d_47">
    <path d="M 73.832727 278.288144 
L 84.316022 262.356098 
L 94.799317 260.505212 
L 105.282613 259.922055 
L 115.765908 256.30651 
L 126.249203 254.398688 
L 136.732498 253.760041 
L 147.215793 252.854727 
L 157.699088 252.173563 
L 168.182383 252.478619 
L 178.665678 253.003549 
L 189.148973 253.026821 
L 199.632269 251.379642 
L 210.115564 251.485377 
L 220.598859 250.797457 
L 231.082154 250.782194 
L 241.565449 250.586431 
L 252.048744 250.506667 
L 262.532039 250.963497 
L 273.015334 250.771726 
L 283.498629 251.516205 
L 293.981925 250.936588 
L 304.46522 251.696972 
L 314.948515 250.621639 
L 325.43181 250.002041 
L 335.915105 249.515901 
L 346.3984 251.234316 
L 356.881695 250.629722 
L 367.36499 250.438321 
L 377.848285 250.174378 
L 388.331581 250.746585 
L 398.487273 250.296608 
" clip-path="url(#pc26f1aaff4)" style="fill: none; stroke: #000000; stroke-width: 0.1; stroke-linecap: square"/>
    <defs>
     <path id="m55d619319e" d="M -2.5 5 
L 0 2.5 
L 2.5 5 
L 5 2.5 
L 2.5 0 
L 5 -2.5 
L 2.5 -5 
L 0 -2.5 
L -2.5 -5 
L -5 -2.5 
L -2.5 0 
L -5 2.5 
z
" style="stroke: #000000; stroke-linejoin: miter"/>
    </defs>
    <g clip-path="url(#pc26f1aaff4)">
     <use xlink:href="#m55d619319e" x="73.832727" y="278.288144" style="fill: #17becf; stroke: #000000; stroke-linejoin: miter"/>
     <use xlink:href="#m55d619319e" x="84.316022" y="262.356098" style="fill: #17becf; stroke: #000000; stroke-linejoin: miter"/>
     <use xlink:href="#m55d619319e" x="94.799317" y="260.505212" style="fill: #17becf; stroke: #000000; stroke-linejoin: miter"/>
     <use xlink:href="#m55d619319e" x="105.282613" y="259.922055" style="fill: #17becf; stroke: #000000; stroke-linejoin: miter"/>
     <use xlink:href="#m55d619319e" x="115.765908" y="256.30651" style="fill: #17becf; stroke: #000000; stroke-linejoin: miter"/>
     <use xlink:href="#m55d619319e" x="126.249203" y="254.398688" style="fill: #17becf; stroke: #000000; stroke-linejoin: miter"/>
     <use xlink:href="#m55d619319e" x="136.732498" y="253.760041" style="fill: #17becf; stroke: #000000; stroke-linejoin: miter"/>
     <use xlink:href="#m55d619319e" x="147.215793" y="252.854727" style="fill: #17becf; stroke: #000000; stroke-linejoin: miter"/>
     <use xlink:href="#m55d619319e" x="157.699088" y="252.173563" style="fill: #17becf; stroke: #000000; stroke-linejoin: miter"/>
     <use xlink:href="#m55d619319e" x="168.182383" y="252.478619" style="fill: #17becf; stroke: #000000; stroke-linejoin: miter"/>
     <use xlink:href="#m55d619319e" x="178.665678" y="253.003549" style="fill: #17becf; stroke: #000000; stroke-linejoin: miter"/>
     <use xlink:href="#m55d619319e" x="189.148973" y="253.026821" style="fill: #17becf; stroke: #000000; stroke-linejoin: miter"/>
     <use xlink:href="#m55d619319e" x="199.632269" y="251.379642" style="fill: #17becf; stroke: #000000; stroke-linejoin: miter"/>
     <use xlink:href="#m55d619319e" x="210.115564" y="251.485377" style="fill: #17becf; stroke: #000000; stroke-linejoin: miter"/>
     <use xlink:href="#m55d619319e" x="220.598859" y="250.797457" style="fill: #17becf; stroke: #000000; stroke-linejoin: miter"/>
     <use xlink:href="#m55d619319e" x="231.082154" y="250.782194" style="fill: #17becf; stroke: #000000; stroke-linejoin: miter"/>
     <use xlink:href="#m55d619319e" x="241.565449" y="250.586431" style="fill: #17becf; stroke: #000000; stroke-linejoin: miter"/>
     <use xlink:href="#m55d619319e" x="252.048744" y="250.506667" style="fill: #17becf; stroke: #000000; stroke-linejoin: miter"/>
     <use xlink:href="#m55d619319e" x="262.532039" y="250.963497" style="fill: #17becf; stroke: #000000; stroke-linejoin: miter"/>
     <use xlink:href="#m55d619319e" x="273.015334" y="250.771726" style="fill: #17becf; stroke: #000000; stroke-linejoin: miter"/>
     <use xlink:href="#m55d619319e" x="283.498629" y="251.516205" style="fill: #17becf; stroke: #000000; stroke-linejoin: miter"/>
     <use xlink:href="#m55d619319e" x="293.981925" y="250.936588" style="fill: #17becf; stroke: #000000; stroke-linejoin: miter"/>
     <use xlink:href="#m55d619319e" x="304.46522" y="251.696972" style="fill: #17becf; stroke: #000000; stroke-linejoin: miter"/>
     <use xlink:href="#m55d619319e" x="314.948515" y="250.621639" style="fill: #17becf; stroke: #000000; stroke-linejoin: miter"/>
     <use xlink:href="#m55d619319e" x="325.43181" y="250.002041" style="fill: #17becf; stroke: #000000; stroke-linejoin: miter"/>
     <use xlink:href="#m55d619319e" x="335.915105" y="249.515901" style="fill: #17becf; stroke: #000000; stroke-linejoin: miter"/>
     <use xlink:href="#m55d619319e" x="346.3984" y="251.234316" style="fill: #17becf; stroke: #000000; stroke-linejoin: miter"/>
     <use xlink:href="#m55d619319e" x="356.881695" y="250.629722" style="fill: #17becf; stroke: #000000; stroke-linejoin: miter"/>
     <use xlink:href="#m55d619319e" x="367.36499" y="250.438321" style="fill: #17becf; stroke: #000000; stroke-linejoin: miter"/>
     <use xlink:href="#m55d619319e" x="377.848285" y="250.174378" style="fill: #17becf; stroke: #000000; stroke-linejoin: miter"/>
     <use xlink:href="#m55d619319e" x="388.331581" y="250.746585" style="fill: #17becf; stroke: #000000; stroke-linejoin: miter"/>
     <use xlink:href="#m55d619319e" x="398.487273" y="250.296608" style="fill: #17becf; stroke: #000000; stroke-linejoin: miter"/>
    </g>
   </g>
   <g id="line2d_48">
    <path d="M 57.6 135.51603 
L 414.72 135.51603 
" clip-path="url(#pc26f1aaff4)" style="fill: none; stroke-dasharray: 5.55,2.4; stroke-dashoffset: 0; stroke: #808080; stroke-width: 1.5"/>
   </g>
   <g id="line2d_49">
    <path d="M 73.832727 276.892743 
L 84.316022 266.549038 
L 94.799317 263.346651 
L 105.282613 260.963532 
L 115.765908 260.060048 
L 126.249203 259.471112 
L 136.732498 259.094958 
L 147.215793 258.770201 
L 157.699088 258.617739 
L 168.182383 258.452347 
L 178.665678 258.054319 
L 189.148973 258.183353 
L 199.632269 257.98115 
L 210.115564 257.769424 
L 220.598859 257.775163 
L 231.082154 257.683214 
L 241.565449 257.71773 
L 252.048744 257.43426 
L 262.532039 257.644259 
L 273.015334 257.427844 
L 283.498629 257.414888 
L 293.981925 257.406505 
L 304.46522 257.314154 
L 314.948515 257.393626 
L 325.43181 257.270503 
L 335.915105 257.178574 
L 346.3984 257.26468 
L 356.881695 257.082504 
L 367.36499 257.123786 
L 377.848285 257.542983 
L 388.331581 257.245603 
L 398.487273 257.102949 
" clip-path="url(#pc26f1aaff4)" style="fill: none; stroke: #000000; stroke-width: 0.1; stroke-linecap: square"/>
    <defs>
     <path id="mc88923fa08" d="M -0 5.5 
L 5.5 -5.5 
L -5.5 -5.5 
z
" style="stroke: #000000; stroke-linejoin: miter"/>
    </defs>
    <g clip-path="url(#pc26f1aaff4)">
     <use xlink:href="#mc88923fa08" x="73.832727" y="276.892743" style="fill: #8a2be2; stroke: #000000; stroke-linejoin: miter"/>
     <use xlink:href="#mc88923fa08" x="84.316022" y="266.549038" style="fill: #8a2be2; stroke: #000000; stroke-linejoin: miter"/>
     <use xlink:href="#mc88923fa08" x="94.799317" y="263.346651" style="fill: #8a2be2; stroke: #000000; stroke-linejoin: miter"/>
     <use xlink:href="#mc88923fa08" x="105.282613" y="260.963532" style="fill: #8a2be2; stroke: #000000; stroke-linejoin: miter"/>
     <use xlink:href="#mc88923fa08" x="115.765908" y="260.060048" style="fill: #8a2be2; stroke: #000000; stroke-linejoin: miter"/>
     <use xlink:href="#mc88923fa08" x="126.249203" y="259.471112" style="fill: #8a2be2; stroke: #000000; stroke-linejoin: miter"/>
     <use xlink:href="#mc88923fa08" x="136.732498" y="259.094958" style="fill: #8a2be2; stroke: #000000; stroke-linejoin: miter"/>
     <use xlink:href="#mc88923fa08" x="147.215793" y="258.770201" style="fill: #8a2be2; stroke: #000000; stroke-linejoin: miter"/>
     <use xlink:href="#mc88923fa08" x="157.699088" y="258.617739" style="fill: #8a2be2; stroke: #000000; stroke-linejoin: miter"/>
     <use xlink:href="#mc88923fa08" x="168.182383" y="258.452347" style="fill: #8a2be2; stroke: #000000; stroke-linejoin: miter"/>
     <use xlink:href="#mc88923fa08" x="178.665678" y="258.054319" style="fill: #8a2be2; stroke: #000000; stroke-linejoin: miter"/>
     <use xlink:href="#mc88923fa08" x="189.148973" y="258.183353" style="fill: #8a2be2; stroke: #000000; stroke-linejoin: miter"/>
     <use xlink:href="#mc88923fa08" x="199.632269" y="257.98115" style="fill: #8a2be2; stroke: #000000; stroke-linejoin: miter"/>
     <use xlink:href="#mc88923fa08" x="210.115564" y="257.769424" style="fill: #8a2be2; stroke: #000000; stroke-linejoin: miter"/>
     <use xlink:href="#mc88923fa08" x="220.598859" y="257.775163" style="fill: #8a2be2; stroke: #000000; stroke-linejoin: miter"/>
     <use xlink:href="#mc88923fa08" x="231.082154" y="257.683214" style="fill: #8a2be2; stroke: #000000; stroke-linejoin: miter"/>
     <use xlink:href="#mc88923fa08" x="241.565449" y="257.71773" style="fill: #8a2be2; stroke: #000000; stroke-linejoin: miter"/>
     <use xlink:href="#mc88923fa08" x="252.048744" y="257.43426" style="fill: #8a2be2; stroke: #000000; stroke-linejoin: miter"/>
     <use xlink:href="#mc88923fa08" x="262.532039" y="257.644259" style="fill: #8a2be2; stroke: #000000; stroke-linejoin: miter"/>
     <use xlink:href="#mc88923fa08" x="273.015334" y="257.427844" style="fill: #8a2be2; stroke: #000000; stroke-linejoin: miter"/>
     <use xlink:href="#mc88923fa08" x="283.498629" y="257.414888" style="fill: #8a2be2; stroke: #000000; stroke-linejoin: miter"/>
     <use xlink:href="#mc88923fa08" x="293.981925" y="257.406505" style="fill: #8a2be2; stroke: #000000; stroke-linejoin: miter"/>
     <use xlink:href="#mc88923fa08" x="304.46522" y="257.314154" style="fill: #8a2be2; stroke: #000000; stroke-linejoin: miter"/>
     <use xlink:href="#mc88923fa08" x="314.948515" y="257.393626" style="fill: #8a2be2; stroke: #000000; stroke-linejoin: miter"/>
     <use xlink:href="#mc88923fa08" x="325.43181" y="257.270503" style="fill: #8a2be2; stroke: #000000; stroke-linejoin: miter"/>
     <use xlink:href="#mc88923fa08" x="335.915105" y="257.178574" style="fill: #8a2be2; stroke: #000000; stroke-linejoin: miter"/>
     <use xlink:href="#mc88923fa08" x="346.3984" y="257.26468" style="fill: #8a2be2; stroke: #000000; stroke-linejoin: miter"/>
     <use xlink:href="#mc88923fa08" x="356.881695" y="257.082504" style="fill: #8a2be2; stroke: #000000; stroke-linejoin: miter"/>
     <use xlink:href="#mc88923fa08" x="367.36499" y="257.123786" style="fill: #8a2be2; stroke: #000000; stroke-linejoin: miter"/>
     <use xlink:href="#mc88923fa08" x="377.848285" y="257.542983" style="fill: #8a2be2; stroke: #000000; stroke-linejoin: miter"/>
     <use xlink:href="#mc88923fa08" x="388.331581" y="257.245603" style="fill: #8a2be2; stroke: #000000; stroke-linejoin: miter"/>
     <use xlink:href="#mc88923fa08" x="398.487273" y="257.102949" style="fill: #8a2be2; stroke: #000000; stroke-linejoin: miter"/>
    </g>
   </g>
   <g id="line2d_50">
    <path d="M 57.6 135.51603 
L 414.72 135.51603 
" clip-path="url(#pc26f1aaff4)" style="fill: none; stroke-dasharray: 5.55,2.4; stroke-dashoffset: 0; stroke: #808080; stroke-width: 1.5"/>
   </g>
   <g id="line2d_51">
    <path d="M 73.832727 280.100486 
L 84.316022 272.490317 
L 94.799317 267.85481 
L 105.282613 266.180824 
L 115.765908 265.161828 
L 126.249203 264.672593 
L 136.732498 264.225769 
L 147.215793 263.956134 
L 157.699088 264.00501 
L 168.182383 264.523499 
L 178.665678 264.386202 
L 189.148973 264.5615 
L 199.632269 263.647132 
L 210.115564 259.421079 
L 220.598859 259.374397 
L 231.082154 259.372736 
L 241.565449 259.315817 
L 252.048744 259.127586 
L 262.532039 259.245526 
L 273.015334 259.025676 
L 283.498629 260.431614 
L 293.981925 258.909022 
L 304.46522 258.89365 
L 314.948515 259.051709 
L 325.43181 262.846344 
L 335.915105 262.06316 
L 346.3984 260.561048 
L 356.881695 260.98738 
L 367.36499 263.584898 
L 377.848285 258.802219 
L 388.331581 261.882339 
L 398.487273 258.86613 
" clip-path="url(#pc26f1aaff4)" style="fill: none; stroke: #000000; stroke-width: 0.1; stroke-linecap: square"/>
    <defs>
     <path id="m22986d93f3" d="M 0 3.75 
C 0.994512 3.75 1.948425 3.354876 2.65165 2.65165 
C 3.354876 1.948425 3.75 0.994512 3.75 0 
C 3.75 -0.994512 3.354876 -1.948425 2.65165 -2.65165 
C 1.948425 -3.354876 0.994512 -3.75 0 -3.75 
C -0.994512 -3.75 -1.948425 -3.354876 -2.65165 -2.65165 
C -3.354876 -1.948425 -3.75 -0.994512 -3.75 0 
C -3.75 0.994512 -3.354876 1.948425 -2.65165 2.65165 
C -1.948425 3.354876 -0.994512 3.75 0 3.75 
z
" style="stroke: #000000"/>
    </defs>
    <g clip-path="url(#pc26f1aaff4)">
     <use xlink:href="#m22986d93f3" x="73.832727" y="280.100486" style="fill: #1e90ff; stroke: #000000"/>
     <use xlink:href="#m22986d93f3" x="84.316022" y="272.490317" style="fill: #1e90ff; stroke: #000000"/>
     <use xlink:href="#m22986d93f3" x="94.799317" y="267.85481" style="fill: #1e90ff; stroke: #000000"/>
     <use xlink:href="#m22986d93f3" x="105.282613" y="266.180824" style="fill: #1e90ff; stroke: #000000"/>
     <use xlink:href="#m22986d93f3" x="115.765908" y="265.161828" style="fill: #1e90ff; stroke: #000000"/>
     <use xlink:href="#m22986d93f3" x="126.249203" y="264.672593" style="fill: #1e90ff; stroke: #000000"/>
     <use xlink:href="#m22986d93f3" x="136.732498" y="264.225769" style="fill: #1e90ff; stroke: #000000"/>
     <use xlink:href="#m22986d93f3" x="147.215793" y="263.956134" style="fill: #1e90ff; stroke: #000000"/>
     <use xlink:href="#m22986d93f3" x="157.699088" y="264.00501" style="fill: #1e90ff; stroke: #000000"/>
     <use xlink:href="#m22986d93f3" x="168.182383" y="264.523499" style="fill: #1e90ff; stroke: #000000"/>
     <use xlink:href="#m22986d93f3" x="178.665678" y="264.386202" style="fill: #1e90ff; stroke: #000000"/>
     <use xlink:href="#m22986d93f3" x="189.148973" y="264.5615" style="fill: #1e90ff; stroke: #000000"/>
     <use xlink:href="#m22986d93f3" x="199.632269" y="263.647132" style="fill: #1e90ff; stroke: #000000"/>
     <use xlink:href="#m22986d93f3" x="210.115564" y="259.421079" style="fill: #1e90ff; stroke: #000000"/>
     <use xlink:href="#m22986d93f3" x="220.598859" y="259.374397" style="fill: #1e90ff; stroke: #000000"/>
     <use xlink:href="#m22986d93f3" x="231.082154" y="259.372736" style="fill: #1e90ff; stroke: #000000"/>
     <use xlink:href="#m22986d93f3" x="241.565449" y="259.315817" style="fill: #1e90ff; stroke: #000000"/>
     <use xlink:href="#m22986d93f3" x="252.048744" y="259.127586" style="fill: #1e90ff; stroke: #000000"/>
     <use xlink:href="#m22986d93f3" x="262.532039" y="259.245526" style="fill: #1e90ff; stroke: #000000"/>
     <use xlink:href="#m22986d93f3" x="273.015334" y="259.025676" style="fill: #1e90ff; stroke: #000000"/>
     <use xlink:href="#m22986d93f3" x="283.498629" y="260.431614" style="fill: #1e90ff; stroke: #000000"/>
     <use xlink:href="#m22986d93f3" x="293.981925" y="258.909022" style="fill: #1e90ff; stroke: #000000"/>
     <use xlink:href="#m22986d93f3" x="304.46522" y="258.89365" style="fill: #1e90ff; stroke: #000000"/>
     <use xlink:href="#m22986d93f3" x="314.948515" y="259.051709" style="fill: #1e90ff; stroke: #000000"/>
     <use xlink:href="#m22986d93f3" x="325.43181" y="262.846344" style="fill: #1e90ff; stroke: #000000"/>
     <use xlink:href="#m22986d93f3" x="335.915105" y="262.06316" style="fill: #1e90ff; stroke: #000000"/>
     <use xlink:href="#m22986d93f3" x="346.3984" y="260.561048" style="fill: #1e90ff; stroke: #000000"/>
     <use xlink:href="#m22986d93f3" x="356.881695" y="260.98738" style="fill: #1e90ff; stroke: #000000"/>
     <use xlink:href="#m22986d93f3" x="367.36499" y="263.584898" style="fill: #1e90ff; stroke: #000000"/>
     <use xlink:href="#m22986d93f3" x="377.848285" y="258.802219" style="fill: #1e90ff; stroke: #000000"/>
     <use xlink:href="#m22986d93f3" x="388.331581" y="261.882339" style="fill: #1e90ff; stroke: #000000"/>
     <use xlink:href="#m22986d93f3" x="398.487273" y="258.86613" style="fill: #1e90ff; stroke: #000000"/>
    </g>
   </g>
   <g id="line2d_52">
    <path d="M 57.6 135.51603 
L 414.72 135.51603 
" clip-path="url(#pc26f1aaff4)" style="fill: none; stroke-dasharray: 5.55,2.4; stroke-dashoffset: 0; stroke: #808080; stroke-width: 1.5"/>
   </g>
   <g id="line2d_53">
    <path d="M 73.832727 113.755464 
L 84.316022 89.273795 
L 94.799317 85.437837 
L 105.282613 77.964022 
L 115.765908 76.77558 
L 126.249203 74.27056 
L 136.732498 72.260192 
L 147.215793 69.53107 
L 157.699088 63.730856 
L 168.182383 64.102785 
L 178.665678 65.837026 
L 189.148973 63.328512 
L 199.632269 61.617464 
L 210.115564 60.704661 
L 220.598859 65.392697 
L 231.082154 62.596019 
L 241.565449 61.213245 
L 252.048744 63.529276 
L 262.532039 56.603885 
L 273.015334 54.277398 
L 283.498629 62.578992 
L 293.981925 58.924008 
L 304.46522 57.080885 
L 314.948515 56.672947 
L 325.43181 61.555947 
L 335.915105 57.779172 
L 346.3984 62.680759 
L 356.881695 53.621169 
L 367.36499 56.143018 
L 377.848285 54.772624 
L 388.331581 65.221981 
L 398.487273 62.376022 
" clip-path="url(#pc26f1aaff4)" style="fill: none; stroke: #000000; stroke-width: 0.1; stroke-linecap: square"/>
    <defs>
     <path id="m794116d1a3" d="M 0 -4.5 
L -4.5 4.5 
L 4.5 4.5 
z
" style="stroke: #000000; stroke-linejoin: miter"/>
    </defs>
    <g clip-path="url(#pc26f1aaff4)">
     <use xlink:href="#m794116d1a3" x="73.832727" y="113.755464" style="fill: #ffd700; stroke: #000000; stroke-linejoin: miter"/>
     <use xlink:href="#m794116d1a3" x="84.316022" y="89.273795" style="fill: #ffd700; stroke: #000000; stroke-linejoin: miter"/>
     <use xlink:href="#m794116d1a3" x="94.799317" y="85.437837" style="fill: #ffd700; stroke: #000000; stroke-linejoin: miter"/>
     <use xlink:href="#m794116d1a3" x="105.282613" y="77.964022" style="fill: #ffd700; stroke: #000000; stroke-linejoin: miter"/>
     <use xlink:href="#m794116d1a3" x="115.765908" y="76.77558" style="fill: #ffd700; stroke: #000000; stroke-linejoin: miter"/>
     <use xlink:href="#m794116d1a3" x="126.249203" y="74.27056" style="fill: #ffd700; stroke: #000000; stroke-linejoin: miter"/>
     <use xlink:href="#m794116d1a3" x="136.732498" y="72.260192" style="fill: #ffd700; stroke: #000000; stroke-linejoin: miter"/>
     <use xlink:href="#m794116d1a3" x="147.215793" y="69.53107" style="fill: #ffd700; stroke: #000000; stroke-linejoin: miter"/>
     <use xlink:href="#m794116d1a3" x="157.699088" y="63.730856" style="fill: #ffd700; stroke: #000000; stroke-linejoin: miter"/>
     <use xlink:href="#m794116d1a3" x="168.182383" y="64.102785" style="fill: #ffd700; stroke: #000000; stroke-linejoin: miter"/>
     <use xlink:href="#m794116d1a3" x="178.665678" y="65.837026" style="fill: #ffd700; stroke: #000000; stroke-linejoin: miter"/>
     <use xlink:href="#m794116d1a3" x="189.148973" y="63.328512" style="fill: #ffd700; stroke: #000000; stroke-linejoin: miter"/>
     <use xlink:href="#m794116d1a3" x="199.632269" y="61.617464" style="fill: #ffd700; stroke: #000000; stroke-linejoin: miter"/>
     <use xlink:href="#m794116d1a3" x="210.115564" y="60.704661" style="fill: #ffd700; stroke: #000000; stroke-linejoin: miter"/>
     <use xlink:href="#m794116d1a3" x="220.598859" y="65.392697" style="fill: #ffd700; stroke: #000000; stroke-linejoin: miter"/>
     <use xlink:href="#m794116d1a3" x="231.082154" y="62.596019" style="fill: #ffd700; stroke: #000000; stroke-linejoin: miter"/>
     <use xlink:href="#m794116d1a3" x="241.565449" y="61.213245" style="fill: #ffd700; stroke: #000000; stroke-linejoin: miter"/>
     <use xlink:href="#m794116d1a3" x="252.048744" y="63.529276" style="fill: #ffd700; stroke: #000000; stroke-linejoin: miter"/>
     <use xlink:href="#m794116d1a3" x="262.532039" y="56.603885" style="fill: #ffd700; stroke: #000000; stroke-linejoin: miter"/>
     <use xlink:href="#m794116d1a3" x="273.015334" y="54.277398" style="fill: #ffd700; stroke: #000000; stroke-linejoin: miter"/>
     <use xlink:href="#m794116d1a3" x="283.498629" y="62.578992" style="fill: #ffd700; stroke: #000000; stroke-linejoin: miter"/>
     <use xlink:href="#m794116d1a3" x="293.981925" y="58.924008" style="fill: #ffd700; stroke: #000000; stroke-linejoin: miter"/>
     <use xlink:href="#m794116d1a3" x="304.46522" y="57.080885" style="fill: #ffd700; stroke: #000000; stroke-linejoin: miter"/>
     <use xlink:href="#m794116d1a3" x="314.948515" y="56.672947" style="fill: #ffd700; stroke: #000000; stroke-linejoin: miter"/>
     <use xlink:href="#m794116d1a3" x="325.43181" y="61.555947" style="fill: #ffd700; stroke: #000000; stroke-linejoin: miter"/>
     <use xlink:href="#m794116d1a3" x="335.915105" y="57.779172" style="fill: #ffd700; stroke: #000000; stroke-linejoin: miter"/>
     <use xlink:href="#m794116d1a3" x="346.3984" y="62.680759" style="fill: #ffd700; stroke: #000000; stroke-linejoin: miter"/>
     <use xlink:href="#m794116d1a3" x="356.881695" y="53.621169" style="fill: #ffd700; stroke: #000000; stroke-linejoin: miter"/>
     <use xlink:href="#m794116d1a3" x="367.36499" y="56.143018" style="fill: #ffd700; stroke: #000000; stroke-linejoin: miter"/>
     <use xlink:href="#m794116d1a3" x="377.848285" y="54.772624" style="fill: #ffd700; stroke: #000000; stroke-linejoin: miter"/>
     <use xlink:href="#m794116d1a3" x="388.331581" y="65.221981" style="fill: #ffd700; stroke: #000000; stroke-linejoin: miter"/>
     <use xlink:href="#m794116d1a3" x="398.487273" y="62.376022" style="fill: #ffd700; stroke: #000000; stroke-linejoin: miter"/>
    </g>
   </g>
   <g id="line2d_54">
    <path d="M 57.6 135.51603 
L 414.72 135.51603 
" clip-path="url(#pc26f1aaff4)" style="fill: none; stroke-dasharray: 5.55,2.4; stroke-dashoffset: 0; stroke: #808080; stroke-width: 1.5"/>
   </g>
   <g id="line2d_55">
    <path d="M 73.832727 108.219296 
L 84.316022 96.923331 
L 94.799317 95.164907 
L 105.282613 94.354981 
L 115.765908 93.876746 
L 126.249203 93.658726 
L 136.732498 93.418035 
L 147.215793 93.273122 
L 157.699088 93.137029 
L 168.182383 93.167162 
L 178.665678 93.061673 
L 189.148973 92.991671 
L 199.632269 92.924047 
L 210.115564 92.903506 
L 220.598859 92.856097 
L 231.082154 92.819826 
L 241.565449 92.791908 
L 252.048744 92.866327 
L 262.532039 92.81972 
L 273.015334 92.789661 
L 283.498629 92.753864 
L 293.981925 92.746476 
L 304.46522 92.720157 
L 314.948515 92.699983 
L 325.43181 92.67988 
L 335.915105 92.700799 
L 346.3984 92.673195 
L 356.881695 92.655295 
L 367.36499 92.635099 
L 377.848285 92.629874 
L 388.331581 92.604536 
L 398.487273 92.583018 
" clip-path="url(#pc26f1aaff4)" style="fill: none; stroke: #000000; stroke-width: 0.1; stroke-linecap: square"/>
    <defs>
     <path id="mf9c7f50ee2" d="M 0 -6 
L -1.347084 -1.854102 
L -5.706339 -1.854102 
L -2.179628 0.708204 
L -3.526712 4.854102 
L -0 2.291796 
L 3.526712 4.854102 
L 2.179628 0.708204 
L 5.706339 -1.854102 
L 1.347084 -1.854102 
z
" style="stroke: #000000; stroke-linejoin: bevel"/>
    </defs>
    <g clip-path="url(#pc26f1aaff4)">
     <use xlink:href="#mf9c7f50ee2" x="73.832727" y="108.219296" style="fill: #d62728; stroke: #000000; stroke-linejoin: bevel"/>
     <use xlink:href="#mf9c7f50ee2" x="84.316022" y="96.923331" style="fill: #d62728; stroke: #000000; stroke-linejoin: bevel"/>
     <use xlink:href="#mf9c7f50ee2" x="94.799317" y="95.164907" style="fill: #d62728; stroke: #000000; stroke-linejoin: bevel"/>
     <use xlink:href="#mf9c7f50ee2" x="105.282613" y="94.354981" style="fill: #d62728; stroke: #000000; stroke-linejoin: bevel"/>
     <use xlink:href="#mf9c7f50ee2" x="115.765908" y="93.876746" style="fill: #d62728; stroke: #000000; stroke-linejoin: bevel"/>
     <use xlink:href="#mf9c7f50ee2" x="126.249203" y="93.658726" style="fill: #d62728; stroke: #000000; stroke-linejoin: bevel"/>
     <use xlink:href="#mf9c7f50ee2" x="136.732498" y="93.418035" style="fill: #d62728; stroke: #000000; stroke-linejoin: bevel"/>
     <use xlink:href="#mf9c7f50ee2" x="147.215793" y="93.273122" style="fill: #d62728; stroke: #000000; stroke-linejoin: bevel"/>
     <use xlink:href="#mf9c7f50ee2" x="157.699088" y="93.137029" style="fill: #d62728; stroke: #000000; stroke-linejoin: bevel"/>
     <use xlink:href="#mf9c7f50ee2" x="168.182383" y="93.167162" style="fill: #d62728; stroke: #000000; stroke-linejoin: bevel"/>
     <use xlink:href="#mf9c7f50ee2" x="178.665678" y="93.061673" style="fill: #d62728; stroke: #000000; stroke-linejoin: bevel"/>
     <use xlink:href="#mf9c7f50ee2" x="189.148973" y="92.991671" style="fill: #d62728; stroke: #000000; stroke-linejoin: bevel"/>
     <use xlink:href="#mf9c7f50ee2" x="199.632269" y="92.924047" style="fill: #d62728; stroke: #000000; stroke-linejoin: bevel"/>
     <use xlink:href="#mf9c7f50ee2" x="210.115564" y="92.903506" style="fill: #d62728; stroke: #000000; stroke-linejoin: bevel"/>
     <use xlink:href="#mf9c7f50ee2" x="220.598859" y="92.856097" style="fill: #d62728; stroke: #000000; stroke-linejoin: bevel"/>
     <use xlink:href="#mf9c7f50ee2" x="231.082154" y="92.819826" style="fill: #d62728; stroke: #000000; stroke-linejoin: bevel"/>
     <use xlink:href="#mf9c7f50ee2" x="241.565449" y="92.791908" style="fill: #d62728; stroke: #000000; stroke-linejoin: bevel"/>
     <use xlink:href="#mf9c7f50ee2" x="252.048744" y="92.866327" style="fill: #d62728; stroke: #000000; stroke-linejoin: bevel"/>
     <use xlink:href="#mf9c7f50ee2" x="262.532039" y="92.81972" style="fill: #d62728; stroke: #000000; stroke-linejoin: bevel"/>
     <use xlink:href="#mf9c7f50ee2" x="273.015334" y="92.789661" style="fill: #d62728; stroke: #000000; stroke-linejoin: bevel"/>
     <use xlink:href="#mf9c7f50ee2" x="283.498629" y="92.753864" style="fill: #d62728; stroke: #000000; stroke-linejoin: bevel"/>
     <use xlink:href="#mf9c7f50ee2" x="293.981925" y="92.746476" style="fill: #d62728; stroke: #000000; stroke-linejoin: bevel"/>
     <use xlink:href="#mf9c7f50ee2" x="304.46522" y="92.720157" style="fill: #d62728; stroke: #000000; stroke-linejoin: bevel"/>
     <use xlink:href="#mf9c7f50ee2" x="314.948515" y="92.699983" style="fill: #d62728; stroke: #000000; stroke-linejoin: bevel"/>
     <use xlink:href="#mf9c7f50ee2" x="325.43181" y="92.67988" style="fill: #d62728; stroke: #000000; stroke-linejoin: bevel"/>
     <use xlink:href="#mf9c7f50ee2" x="335.915105" y="92.700799" style="fill: #d62728; stroke: #000000; stroke-linejoin: bevel"/>
     <use xlink:href="#mf9c7f50ee2" x="346.3984" y="92.673195" style="fill: #d62728; stroke: #000000; stroke-linejoin: bevel"/>
     <use xlink:href="#mf9c7f50ee2" x="356.881695" y="92.655295" style="fill: #d62728; stroke: #000000; stroke-linejoin: bevel"/>
     <use xlink:href="#mf9c7f50ee2" x="367.36499" y="92.635099" style="fill: #d62728; stroke: #000000; stroke-linejoin: bevel"/>
     <use xlink:href="#mf9c7f50ee2" x="377.848285" y="92.629874" style="fill: #d62728; stroke: #000000; stroke-linejoin: bevel"/>
     <use xlink:href="#mf9c7f50ee2" x="388.331581" y="92.604536" style="fill: #d62728; stroke: #000000; stroke-linejoin: bevel"/>
     <use xlink:href="#mf9c7f50ee2" x="398.487273" y="92.583018" style="fill: #d62728; stroke: #000000; stroke-linejoin: bevel"/>
    </g>
   </g>
   <g id="line2d_56">
    <path d="M 57.6 135.51603 
L 414.72 135.51603 
" clip-path="url(#pc26f1aaff4)" style="fill: none; stroke-dasharray: 5.55,2.4; stroke-dashoffset: 0; stroke: #808080; stroke-width: 1.5"/>
   </g>
   <g id="patch_3">
    <path d="M 57.6 293.76 
L 57.6 41.472 
" style="fill: none; stroke: #000000; stroke-width: 0.8; stroke-linejoin: miter; stroke-linecap: square"/>
   </g>
   <g id="patch_4">
    <path d="M 414.72 293.76 
L 414.72 41.472 
" style="fill: none; stroke: #000000; stroke-width: 0.8; stroke-linejoin: miter; stroke-linecap: square"/>
   </g>
   <g id="patch_5">
    <path d="M 57.6 293.76 
L 414.72 293.76 
" style="fill: none; stroke: #000000; stroke-width: 0.8; stroke-linejoin: miter; stroke-linecap: square"/>
   </g>
   <g id="patch_6">
    <path d="M 57.6 41.472 
L 414.72 41.472 
" style="fill: none; stroke: #000000; stroke-width: 0.8; stroke-linejoin: miter; stroke-linecap: square"/>
   </g>
   <g id="text_13">
    <!-- $10^9$ for scale -->
    <g transform="translate(130.508041 151.608895)scale(0.11 -0.11)">
     <defs>
      <path id="DejaVuSans-66" d="M 2375 4863 
L 2375 4384 
L 1825 4384 
Q 1516 4384 1395 4259 
Q 1275 4134 1275 3809 
L 1275 3500 
L 2222 3500 
L 2222 3053 
L 1275 3053 
L 1275 0 
L 697 0 
L 697 3053 
L 147 3053 
L 147 3500 
L 697 3500 
L 697 3744 
Q 697 4328 969 4595 
Q 1241 4863 1831 4863 
L 2375 4863 
z
" transform="scale(0.015625)"/>
      <path id="DejaVuSans-63" d="M 3122 3366 
L 3122 2828 
Q 2878 2963 2633 3030 
Q 2388 3097 2138 3097 
Q 1578 3097 1268 2742 
Q 959 2388 959 1747 
Q 959 1106 1268 751 
Q 1578 397 2138 397 
Q 2388 397 2633 464 
Q 2878 531 3122 666 
L 3122 134 
Q 2881 22 2623 -34 
Q 2366 -91 2075 -91 
Q 1284 -91 818 406 
Q 353 903 353 1747 
Q 353 2603 823 3093 
Q 1294 3584 2113 3584 
Q 2378 3584 2631 3529 
Q 2884 3475 3122 3366 
z
" transform="scale(0.015625)"/>
      <path id="DejaVuSans-6c" d="M 603 4863 
L 1178 4863 
L 1178 0 
L 603 0 
L 603 4863 
z
" transform="scale(0.015625)"/>
     </defs>
     <use xlink:href="#DejaVuSans-31" transform="translate(0 0.765625)"/>
     <use xlink:href="#DejaVuSans-30" transform="translate(63.623047 0.765625)"/>
     <use xlink:href="#DejaVuSans-39" transform="translate(128.203125 39.046875)scale(0.7)"/>
     <use xlink:href="#DejaVuSans-20" transform="translate(175.473633 0.765625)"/>
     <use xlink:href="#DejaVuSans-66" transform="translate(207.260742 0.765625)"/>
     <use xlink:href="#DejaVuSans-6f" transform="translate(242.46582 0.765625)"/>
     <use xlink:href="#DejaVuSans-72" transform="translate(303.647461 0.765625)"/>
     <use xlink:href="#DejaVuSans-20" transform="translate(344.760742 0.765625)"/>
     <use xlink:href="#DejaVuSans-73" transform="translate(376.547852 0.765625)"/>
     <use xlink:href="#DejaVuSans-63" transform="translate(428.647461 0.765625)"/>
     <use xlink:href="#DejaVuSans-61" transform="translate(483.62793 0.765625)"/>
     <use xlink:href="#DejaVuSans-6c" transform="translate(544.907227 0.765625)"/>
     <use xlink:href="#DejaVuSans-65" transform="translate(572.69043 0.765625)"/>
    </g>
   </g>
  </g>
 </g>
 <defs>
  <clipPath id="pc26f1aaff4">
   <rect x="57.6" y="41.472" width="357.12" height="252.288"/>
  </clipPath>
 </defs>
</svg>
