<?xml version="1.0" encoding="utf-8" standalone="no"?>
<!DOCTYPE svg PUBLIC "-//W3C//DTD SVG 1.1//EN"
  "http://www.w3.org/Graphics/SVG/1.1/DTD/svg11.dtd">
<svg xmlns:xlink="http://www.w3.org/1999/xlink" width="921.6pt" height="633.6pt" viewBox="0 0 921.6 633.6" xmlns="http://www.w3.org/2000/svg" version="1.1">
 <metadata>
  <rdf:RDF xmlns:dc="http://purl.org/dc/elements/1.1/" xmlns:cc="http://creativecommons.org/ns#" xmlns:rdf="http://www.w3.org/1999/02/22-rdf-syntax-ns#">
   <cc:Work>
    <dc:type rdf:resource="http://purl.org/dc/dcmitype/StillImage"/>
    <dc:date>2022-11-02T00:33:52.711535</dc:date>
    <dc:format>image/svg+xml</dc:format>
    <dc:creator>
     <cc:Agent>
      <dc:title>Matplotlib v3.5.3, https://matplotlib.org/</dc:title>
     </cc:Agent>
    </dc:creator>
   </cc:Work>
  </rdf:RDF>
 </metadata>
 <defs>
  <style type="text/css">*{stroke-linejoin: round; stroke-linecap: butt}</style>
 </defs>
 <g id="figure_1">
  <g id="patch_1">
   <path d="M 0 633.6 
L 921.6 633.6 
L 921.6 0 
L 0 0 
z
" style="fill: #ffffff"/>
  </g>
  <g id="axes_1">
   <g id="patch_2">
    <path d="M 115.2 563.904 
L 829.44 563.904 
L 829.44 76.032 
L 115.2 76.032 
z
" style="fill: #ffffff"/>
   </g>
   <g id="PolyCollection_1">
    <defs>
     <path id="maceabb951b" d="M 147.665455 -91.872 
L 147.665455 -91.872 
L 168.610909 -105.879563 
L 189.556364 -108.274633 
L 210.501818 -108.866559 
L 231.447273 -109.438029 
L 252.392727 -111.571997 
L 273.338182 -112.860723 
L 294.283636 -111.683027 
L 315.229091 -111.910918 
L 336.174545 -113.273273 
L 357.12 -113.085244 
L 378.065455 -112.758176 
L 399.010909 -113.703949 
L 419.956364 -113.453484 
L 440.901818 -114.626818 
L 461.847273 -114.716788 
L 482.792727 -114.687233 
L 503.738182 -114.841322 
L 524.683636 -115.154779 
L 545.629091 -115.191065 
L 566.574545 -115.178004 
L 587.52 -115.139095 
L 608.465455 -115.312403 
L 629.410909 -115.603182 
L 650.356364 -115.234045 
L 671.301818 -115.547617 
L 692.247273 -115.312115 
L 713.192727 -114.894022 
L 734.138182 -114.970325 
L 755.083636 -115.618943 
L 776.029091 -115.502643 
L 796.974545 -115.627694 
L 796.974545 -115.627694 
L 796.974545 -115.627694 
L 776.029091 -115.502643 
L 755.083636 -115.618943 
L 734.138182 -114.970325 
L 713.192727 -114.894022 
L 692.247273 -115.312115 
L 671.301818 -115.547617 
L 650.356364 -115.234045 
L 629.410909 -115.603182 
L 608.465455 -115.312403 
L 587.52 -115.139095 
L 566.574545 -115.178004 
L 545.629091 -115.191065 
L 524.683636 -115.154779 
L 503.738182 -114.841322 
L 482.792727 -114.687233 
L 461.847273 -114.716788 
L 440.901818 -114.626818 
L 419.956364 -113.453484 
L 399.010909 -113.703949 
L 378.065455 -112.758176 
L 357.12 -113.085244 
L 336.174545 -113.273273 
L 315.229091 -111.910918 
L 294.283636 -111.683027 
L 273.338182 -112.860723 
L 252.392727 -111.571997 
L 231.447273 -109.438029 
L 210.501818 -108.866559 
L 189.556364 -108.274633 
L 168.610909 -105.879563 
L 147.665455 -91.872 
z
" style="stroke: #fff8dc; stroke-width: 0.48"/>
    </defs>
    <g clip-path="url(#p110805852c)">
     <use xlink:href="#maceabb951b" x="0" y="633.6" style="fill: #fff8dc; stroke: #fff8dc; stroke-width: 0.48"/>
    </g>
   </g>
   <g id="PolyCollection_2">
    <defs>
     <path id="m03ca3e5286" d="M 147.665455 -222.122512 
L 147.665455 -222.122512 
L 168.610909 -250.905363 
L 189.556364 -260.414223 
L 210.501818 -251.682536 
L 231.447273 -261.011659 
L 252.392727 -263.613145 
L 273.338182 -265.997585 
L 294.283636 -261.3302 
L 315.229091 -267.349452 
L 336.174545 -269.253538 
L 357.12 -267.33387 
L 378.065455 -269.721749 
L 399.010909 -270.644002 
L 419.956364 -259.208329 
L 440.901818 -260.308875 
L 461.847273 -271.040024 
L 482.792727 -267.20433 
L 503.738182 -264.638018 
L 524.683636 -258.475663 
L 545.629091 -261.08916 
L 566.574545 -268.501429 
L 587.52 -264.988052 
L 608.465455 -264.441794 
L 629.410909 -259.908132 
L 650.356364 -270.460649 
L 671.301818 -265.507914 
L 692.247273 -270.932735 
L 713.192727 -264.03562 
L 734.138182 -262.461734 
L 755.083636 -262.224104 
L 776.029091 -258.569063 
L 796.974545 -259.651734 
L 796.974545 -259.651734 
L 796.974545 -259.651734 
L 776.029091 -258.569063 
L 755.083636 -262.224104 
L 734.138182 -262.461734 
L 713.192727 -264.03562 
L 692.247273 -270.932735 
L 671.301818 -265.507914 
L 650.356364 -270.460649 
L 629.410909 -259.908132 
L 608.465455 -264.441794 
L 587.52 -264.988052 
L 566.574545 -268.501429 
L 545.629091 -261.08916 
L 524.683636 -258.475663 
L 503.738182 -264.638018 
L 482.792727 -267.20433 
L 461.847273 -271.040024 
L 440.901818 -260.308875 
L 419.956364 -259.208329 
L 399.010909 -270.644002 
L 378.065455 -269.721749 
L 357.12 -267.33387 
L 336.174545 -269.253538 
L 315.229091 -267.349452 
L 294.283636 -261.3302 
L 273.338182 -265.997585 
L 252.392727 -263.613145 
L 231.447273 -261.011659 
L 210.501818 -251.682536 
L 189.556364 -260.414223 
L 168.610909 -250.905363 
L 147.665455 -222.122512 
z
" style="stroke: #fff8dc; stroke-width: 0.48"/>
    </defs>
    <g clip-path="url(#p110805852c)">
     <use xlink:href="#m03ca3e5286" x="0" y="633.6" style="fill: #fff8dc; stroke: #fff8dc; stroke-width: 0.48"/>
    </g>
   </g>
   <g id="PolyCollection_3">
    <defs>
     <path id="mccc5deed1d" d="M 147.665455 -247.459511 
L 147.665455 -247.459511 
L 168.610909 -270.260209 
L 189.556364 -273.812377 
L 210.501818 -278.42282 
L 231.447273 -281.452798 
L 252.392727 -283.410733 
L 273.338182 -284.115071 
L 294.283636 -284.479979 
L 315.229091 -284.179804 
L 336.174545 -285.796977 
L 357.12 -285.74547 
L 378.065455 -286.339116 
L 399.010909 -286.279461 
L 419.956364 -286.321565 
L 440.901818 -286.895148 
L 461.847273 -286.951625 
L 482.792727 -286.38337 
L 503.738182 -286.682764 
L 524.683636 -286.849512 
L 545.629091 -287.211819 
L 566.574545 -287.536445 
L 587.52 -287.129666 
L 608.465455 -287.539051 
L 629.410909 -287.497773 
L 650.356364 -287.523112 
L 671.301818 -287.940806 
L 692.247273 -287.57267 
L 713.192727 -285.306341 
L 734.138182 -287.19738 
L 755.083636 -287.527549 
L 776.029091 -287.639774 
L 796.974545 -287.794388 
L 796.974545 -287.794388 
L 796.974545 -287.794388 
L 776.029091 -287.639774 
L 755.083636 -287.527549 
L 734.138182 -287.19738 
L 713.192727 -285.306341 
L 692.247273 -287.57267 
L 671.301818 -287.940806 
L 650.356364 -287.523112 
L 629.410909 -287.497773 
L 608.465455 -287.539051 
L 587.52 -287.129666 
L 566.574545 -287.536445 
L 545.629091 -287.211819 
L 524.683636 -286.849512 
L 503.738182 -286.682764 
L 482.792727 -286.38337 
L 461.847273 -286.951625 
L 440.901818 -286.895148 
L 419.956364 -286.321565 
L 399.010909 -286.279461 
L 378.065455 -286.339116 
L 357.12 -285.74547 
L 336.174545 -285.796977 
L 315.229091 -284.179804 
L 294.283636 -284.479979 
L 273.338182 -284.115071 
L 252.392727 -283.410733 
L 231.447273 -281.452798 
L 210.501818 -278.42282 
L 189.556364 -273.812377 
L 168.610909 -270.260209 
L 147.665455 -247.459511 
z
" style="stroke: #fff8dc; stroke-width: 0.48"/>
    </defs>
    <g clip-path="url(#p110805852c)">
     <use xlink:href="#mccc5deed1d" x="0" y="633.6" style="fill: #fff8dc; stroke: #fff8dc; stroke-width: 0.48"/>
    </g>
   </g>
   <g id="PolyCollection_4">
    <defs>
     <path id="m1592824c64" d="M 147.665455 -481.88969 
L 147.665455 -481.88969 
L 168.610909 -495.446828 
L 189.556364 -491.885135 
L 210.501818 -493.959686 
L 231.447273 -489.101844 
L 252.392727 -496.620203 
L 273.338182 -493.704169 
L 294.283636 -488.906292 
L 315.229091 -486.358417 
L 336.174545 -483.472057 
L 357.12 -480.305832 
L 378.065455 -480.815613 
L 399.010909 -479.478517 
L 419.956364 -478.712065 
L 440.901818 -477.462719 
L 461.847273 -478.899319 
L 482.792727 -479.43568 
L 503.738182 -478.701943 
L 524.683636 -478.979584 
L 545.629091 -477.926293 
L 566.574545 -478.687309 
L 587.52 -478.594416 
L 608.465455 -478.345176 
L 629.410909 -477.171227 
L 650.356364 -476.778126 
L 671.301818 -477.407309 
L 692.247273 -478.816555 
L 713.192727 -478.884423 
L 734.138182 -476.92148 
L 755.083636 -479.150686 
L 776.029091 -478.95458 
L 796.974545 -479.389244 
L 796.974545 -479.389244 
L 796.974545 -484.227119 
L 776.029091 -484.135519 
L 755.083636 -485.170621 
L 734.138182 -482.745537 
L 713.192727 -485.704644 
L 692.247273 -481.38589 
L 671.301818 -481.052483 
L 650.356364 -482.555124 
L 629.410909 -482.57935 
L 608.465455 -483.22786 
L 587.52 -481.566767 
L 566.574545 -480.039457 
L 545.629091 -483.357931 
L 524.683636 -479.453202 
L 503.738182 -481.731 
L 482.792727 -483.91102 
L 461.847273 -481.054071 
L 440.901818 -482.52259 
L 419.956364 -480.787267 
L 399.010909 -481.215642 
L 378.065455 -482.843772 
L 357.12 -485.192078 
L 336.174545 -485.656289 
L 315.229091 -488.459504 
L 294.283636 -492.396228 
L 273.338182 -495.660306 
L 252.392727 -497.964771 
L 231.447273 -497.067226 
L 210.501818 -502.351663 
L 189.556364 -502.857918 
L 168.610909 -501.382225 
L 147.665455 -499.750295 
z
" style="stroke: #fff8dc; stroke-width: 0.48"/>
    </defs>
    <g clip-path="url(#p110805852c)">
     <use xlink:href="#m1592824c64" x="0" y="633.6" style="fill: #fff8dc; stroke: #fff8dc; stroke-width: 0.48"/>
    </g>
   </g>
   <g id="PolyCollection_5">
    <defs>
     <path id="m70bde2dfe2" d="M 147.665455 -301.846235 
L 147.665455 -301.846235 
L 168.610909 -364.059525 
L 189.556364 -391.037723 
L 210.501818 -410.363542 
L 231.447273 -424.807728 
L 252.392727 -436.521459 
L 273.338182 -445.741268 
L 294.283636 -453.651796 
L 315.229091 -460.804554 
L 336.174545 -467.163511 
L 357.12 -472.90582 
L 378.065455 -477.954162 
L 399.010909 -482.667775 
L 419.956364 -487.195137 
L 440.901818 -490.95017 
L 461.847273 -494.956867 
L 482.792727 -498.512136 
L 503.738182 -501.89079 
L 524.683636 -505.04892 
L 545.629091 -508.112974 
L 566.574545 -510.762758 
L 587.52 -513.683299 
L 608.465455 -516.374163 
L 629.410909 -518.69671 
L 650.356364 -521.005744 
L 671.301818 -523.379393 
L 692.247273 -525.608858 
L 713.192727 -527.790146 
L 734.138182 -529.717116 
L 755.083636 -531.744768 
L 776.029091 -533.572551 
L 796.974545 -535.392 
L 796.974545 -535.392 
L 796.974545 -535.392 
L 776.029091 -533.572551 
L 755.083636 -531.744768 
L 734.138182 -529.717116 
L 713.192727 -527.790146 
L 692.247273 -525.608858 
L 671.301818 -523.379393 
L 650.356364 -521.005744 
L 629.410909 -518.69671 
L 608.465455 -516.374163 
L 587.52 -513.683299 
L 566.574545 -510.762758 
L 545.629091 -508.112974 
L 524.683636 -505.04892 
L 503.738182 -501.89079 
L 482.792727 -498.512136 
L 461.847273 -494.956867 
L 440.901818 -490.95017 
L 419.956364 -487.195137 
L 399.010909 -482.667775 
L 378.065455 -477.954162 
L 357.12 -472.90582 
L 336.174545 -467.163511 
L 315.229091 -460.804554 
L 294.283636 -453.651796 
L 273.338182 -445.741268 
L 252.392727 -436.521459 
L 231.447273 -424.807728 
L 210.501818 -410.363542 
L 189.556364 -391.037723 
L 168.610909 -364.059525 
L 147.665455 -301.846235 
z
" style="stroke: #fff8dc; stroke-width: 0.48"/>
    </defs>
    <g clip-path="url(#p110805852c)">
     <use xlink:href="#m70bde2dfe2" x="0" y="633.6" style="fill: #fff8dc; stroke: #fff8dc; stroke-width: 0.48"/>
    </g>
   </g>
   <g id="matplotlib.axis_1">
    <g id="xtick_1">
     <g id="line2d_1">
      <defs>
       <path id="m254dad64fc" d="M 0 0 
L 0 3.5 
" style="stroke: #000000; stroke-width: 1.6"/>
      </defs>
      <g>
       <use xlink:href="#m254dad64fc" x="147.665455" y="563.904" style="stroke: #000000; stroke-width: 1.6"/>
      </g>
     </g>
     <g id="text_1">
      <!-- 1, 32 -->
      <g transform="translate(133.671392 586.962281)scale(0.11 -0.11)">
       <defs>
        <path id="DejaVuSans-31" d="M 794 531 
L 1825 531 
L 1825 4091 
L 703 3866 
L 703 4441 
L 1819 4666 
L 2450 4666 
L 2450 531 
L 3481 531 
L 3481 0 
L 794 0 
L 794 531 
z
" transform="scale(0.015625)"/>
        <path id="DejaVuSans-2c" d="M 750 794 
L 1409 794 
L 1409 256 
L 897 -744 
L 494 -744 
L 750 256 
L 750 794 
z
" transform="scale(0.015625)"/>
        <path id="DejaVuSans-20" transform="scale(0.015625)"/>
        <path id="DejaVuSans-33" d="M 2597 2516 
Q 3050 2419 3304 2112 
Q 3559 1806 3559 1356 
Q 3559 666 3084 287 
Q 2609 -91 1734 -91 
Q 1441 -91 1130 -33 
Q 819 25 488 141 
L 488 750 
Q 750 597 1062 519 
Q 1375 441 1716 441 
Q 2309 441 2620 675 
Q 2931 909 2931 1356 
Q 2931 1769 2642 2001 
Q 2353 2234 1838 2234 
L 1294 2234 
L 1294 2753 
L 1863 2753 
Q 2328 2753 2575 2939 
Q 2822 3125 2822 3475 
Q 2822 3834 2567 4026 
Q 2313 4219 1838 4219 
Q 1578 4219 1281 4162 
Q 984 4106 628 3988 
L 628 4550 
Q 988 4650 1302 4700 
Q 1616 4750 1894 4750 
Q 2613 4750 3031 4423 
Q 3450 4097 3450 3541 
Q 3450 3153 3228 2886 
Q 3006 2619 2597 2516 
z
" transform="scale(0.015625)"/>
        <path id="DejaVuSans-32" d="M 1228 531 
L 3431 531 
L 3431 0 
L 469 0 
L 469 531 
Q 828 903 1448 1529 
Q 2069 2156 2228 2338 
Q 2531 2678 2651 2914 
Q 2772 3150 2772 3378 
Q 2772 3750 2511 3984 
Q 2250 4219 1831 4219 
Q 1534 4219 1204 4116 
Q 875 4013 500 3803 
L 500 4441 
Q 881 4594 1212 4672 
Q 1544 4750 1819 4750 
Q 2544 4750 2975 4387 
Q 3406 4025 3406 3419 
Q 3406 3131 3298 2873 
Q 3191 2616 2906 2266 
Q 2828 2175 2409 1742 
Q 1991 1309 1228 531 
z
" transform="scale(0.015625)"/>
       </defs>
       <use xlink:href="#DejaVuSans-31"/>
       <use xlink:href="#DejaVuSans-2c" x="63.623047"/>
       <use xlink:href="#DejaVuSans-20" x="95.410156"/>
       <use xlink:href="#DejaVuSans-33" x="127.197266"/>
       <use xlink:href="#DejaVuSans-32" x="190.820312"/>
      </g>
     </g>
    </g>
    <g id="xtick_2">
     <g id="line2d_2">
      <g>
       <use xlink:href="#m254dad64fc" x="273.338182" y="563.904" style="stroke: #000000; stroke-width: 1.6"/>
      </g>
     </g>
     <g id="text_2">
      <!-- 7, 224 -->
      <g transform="translate(255.844744 586.962281)scale(0.11 -0.11)">
       <defs>
        <path id="DejaVuSans-37" d="M 525 4666 
L 3525 4666 
L 3525 4397 
L 1831 0 
L 1172 0 
L 2766 4134 
L 525 4134 
L 525 4666 
z
" transform="scale(0.015625)"/>
        <path id="DejaVuSans-34" d="M 2419 4116 
L 825 1625 
L 2419 1625 
L 2419 4116 
z
M 2253 4666 
L 3047 4666 
L 3047 1625 
L 3713 1625 
L 3713 1100 
L 3047 1100 
L 3047 0 
L 2419 0 
L 2419 1100 
L 313 1100 
L 313 1709 
L 2253 4666 
z
" transform="scale(0.015625)"/>
       </defs>
       <use xlink:href="#DejaVuSans-37"/>
       <use xlink:href="#DejaVuSans-2c" x="63.623047"/>
       <use xlink:href="#DejaVuSans-20" x="95.410156"/>
       <use xlink:href="#DejaVuSans-32" x="127.197266"/>
       <use xlink:href="#DejaVuSans-32" x="190.820312"/>
       <use xlink:href="#DejaVuSans-34" x="254.443359"/>
      </g>
     </g>
    </g>
    <g id="xtick_3">
     <g id="line2d_3">
      <g>
       <use xlink:href="#m254dad64fc" x="399.010909" y="563.904" style="stroke: #000000; stroke-width: 1.6"/>
      </g>
     </g>
     <g id="text_3">
      <!-- 13, 416 -->
      <g transform="translate(378.018097 586.962281)scale(0.11 -0.11)">
       <defs>
        <path id="DejaVuSans-36" d="M 2113 2584 
Q 1688 2584 1439 2293 
Q 1191 2003 1191 1497 
Q 1191 994 1439 701 
Q 1688 409 2113 409 
Q 2538 409 2786 701 
Q 3034 994 3034 1497 
Q 3034 2003 2786 2293 
Q 2538 2584 2113 2584 
z
M 3366 4563 
L 3366 3988 
Q 3128 4100 2886 4159 
Q 2644 4219 2406 4219 
Q 1781 4219 1451 3797 
Q 1122 3375 1075 2522 
Q 1259 2794 1537 2939 
Q 1816 3084 2150 3084 
Q 2853 3084 3261 2657 
Q 3669 2231 3669 1497 
Q 3669 778 3244 343 
Q 2819 -91 2113 -91 
Q 1303 -91 875 529 
Q 447 1150 447 2328 
Q 447 3434 972 4092 
Q 1497 4750 2381 4750 
Q 2619 4750 2861 4703 
Q 3103 4656 3366 4563 
z
" transform="scale(0.015625)"/>
       </defs>
       <use xlink:href="#DejaVuSans-31"/>
       <use xlink:href="#DejaVuSans-33" x="63.623047"/>
       <use xlink:href="#DejaVuSans-2c" x="127.246094"/>
       <use xlink:href="#DejaVuSans-20" x="159.033203"/>
       <use xlink:href="#DejaVuSans-34" x="190.820312"/>
       <use xlink:href="#DejaVuSans-31" x="254.443359"/>
       <use xlink:href="#DejaVuSans-36" x="318.066406"/>
      </g>
     </g>
    </g>
    <g id="xtick_4">
     <g id="line2d_4">
      <g>
       <use xlink:href="#m254dad64fc" x="524.683636" y="563.904" style="stroke: #000000; stroke-width: 1.6"/>
      </g>
     </g>
     <g id="text_4">
      <!-- 19, 608 -->
      <g transform="translate(503.690824 586.962281)scale(0.11 -0.11)">
       <defs>
        <path id="DejaVuSans-39" d="M 703 97 
L 703 672 
Q 941 559 1184 500 
Q 1428 441 1663 441 
Q 2288 441 2617 861 
Q 2947 1281 2994 2138 
Q 2813 1869 2534 1725 
Q 2256 1581 1919 1581 
Q 1219 1581 811 2004 
Q 403 2428 403 3163 
Q 403 3881 828 4315 
Q 1253 4750 1959 4750 
Q 2769 4750 3195 4129 
Q 3622 3509 3622 2328 
Q 3622 1225 3098 567 
Q 2575 -91 1691 -91 
Q 1453 -91 1209 -44 
Q 966 3 703 97 
z
M 1959 2075 
Q 2384 2075 2632 2365 
Q 2881 2656 2881 3163 
Q 2881 3666 2632 3958 
Q 2384 4250 1959 4250 
Q 1534 4250 1286 3958 
Q 1038 3666 1038 3163 
Q 1038 2656 1286 2365 
Q 1534 2075 1959 2075 
z
" transform="scale(0.015625)"/>
        <path id="DejaVuSans-30" d="M 2034 4250 
Q 1547 4250 1301 3770 
Q 1056 3291 1056 2328 
Q 1056 1369 1301 889 
Q 1547 409 2034 409 
Q 2525 409 2770 889 
Q 3016 1369 3016 2328 
Q 3016 3291 2770 3770 
Q 2525 4250 2034 4250 
z
M 2034 4750 
Q 2819 4750 3233 4129 
Q 3647 3509 3647 2328 
Q 3647 1150 3233 529 
Q 2819 -91 2034 -91 
Q 1250 -91 836 529 
Q 422 1150 422 2328 
Q 422 3509 836 4129 
Q 1250 4750 2034 4750 
z
" transform="scale(0.015625)"/>
        <path id="DejaVuSans-38" d="M 2034 2216 
Q 1584 2216 1326 1975 
Q 1069 1734 1069 1313 
Q 1069 891 1326 650 
Q 1584 409 2034 409 
Q 2484 409 2743 651 
Q 3003 894 3003 1313 
Q 3003 1734 2745 1975 
Q 2488 2216 2034 2216 
z
M 1403 2484 
Q 997 2584 770 2862 
Q 544 3141 544 3541 
Q 544 4100 942 4425 
Q 1341 4750 2034 4750 
Q 2731 4750 3128 4425 
Q 3525 4100 3525 3541 
Q 3525 3141 3298 2862 
Q 3072 2584 2669 2484 
Q 3125 2378 3379 2068 
Q 3634 1759 3634 1313 
Q 3634 634 3220 271 
Q 2806 -91 2034 -91 
Q 1263 -91 848 271 
Q 434 634 434 1313 
Q 434 1759 690 2068 
Q 947 2378 1403 2484 
z
M 1172 3481 
Q 1172 3119 1398 2916 
Q 1625 2713 2034 2713 
Q 2441 2713 2670 2916 
Q 2900 3119 2900 3481 
Q 2900 3844 2670 4047 
Q 2441 4250 2034 4250 
Q 1625 4250 1398 4047 
Q 1172 3844 1172 3481 
z
" transform="scale(0.015625)"/>
       </defs>
       <use xlink:href="#DejaVuSans-31"/>
       <use xlink:href="#DejaVuSans-39" x="63.623047"/>
       <use xlink:href="#DejaVuSans-2c" x="127.246094"/>
       <use xlink:href="#DejaVuSans-20" x="159.033203"/>
       <use xlink:href="#DejaVuSans-36" x="190.820312"/>
       <use xlink:href="#DejaVuSans-30" x="254.443359"/>
       <use xlink:href="#DejaVuSans-38" x="318.066406"/>
      </g>
     </g>
    </g>
    <g id="xtick_5">
     <g id="line2d_5">
      <g>
       <use xlink:href="#m254dad64fc" x="650.356364" y="563.904" style="stroke: #000000; stroke-width: 1.6"/>
      </g>
     </g>
     <g id="text_5">
      <!-- 25, 800 -->
      <g transform="translate(629.363551 586.962281)scale(0.11 -0.11)">
       <defs>
        <path id="DejaVuSans-35" d="M 691 4666 
L 3169 4666 
L 3169 4134 
L 1269 4134 
L 1269 2991 
Q 1406 3038 1543 3061 
Q 1681 3084 1819 3084 
Q 2600 3084 3056 2656 
Q 3513 2228 3513 1497 
Q 3513 744 3044 326 
Q 2575 -91 1722 -91 
Q 1428 -91 1123 -41 
Q 819 9 494 109 
L 494 744 
Q 775 591 1075 516 
Q 1375 441 1709 441 
Q 2250 441 2565 725 
Q 2881 1009 2881 1497 
Q 2881 1984 2565 2268 
Q 2250 2553 1709 2553 
Q 1456 2553 1204 2497 
Q 953 2441 691 2322 
L 691 4666 
z
" transform="scale(0.015625)"/>
       </defs>
       <use xlink:href="#DejaVuSans-32"/>
       <use xlink:href="#DejaVuSans-35" x="63.623047"/>
       <use xlink:href="#DejaVuSans-2c" x="127.246094"/>
       <use xlink:href="#DejaVuSans-20" x="159.033203"/>
       <use xlink:href="#DejaVuSans-38" x="190.820312"/>
       <use xlink:href="#DejaVuSans-30" x="254.443359"/>
       <use xlink:href="#DejaVuSans-30" x="318.066406"/>
      </g>
     </g>
    </g>
    <g id="xtick_6">
     <g id="line2d_6">
      <g>
       <use xlink:href="#m254dad64fc" x="776.029091" y="563.904" style="stroke: #000000; stroke-width: 1.6"/>
      </g>
     </g>
     <g id="text_6">
      <!-- 31, 992 -->
      <g transform="translate(755.036278 586.962281)scale(0.11 -0.11)">
       <use xlink:href="#DejaVuSans-33"/>
       <use xlink:href="#DejaVuSans-31" x="63.623047"/>
       <use xlink:href="#DejaVuSans-2c" x="127.246094"/>
       <use xlink:href="#DejaVuSans-20" x="159.033203"/>
       <use xlink:href="#DejaVuSans-39" x="190.820312"/>
       <use xlink:href="#DejaVuSans-39" x="254.443359"/>
       <use xlink:href="#DejaVuSans-32" x="318.066406"/>
      </g>
     </g>
    </g>
    <g id="text_7">
     <!-- Bin number, maximum program size -->
     <g transform="translate(343.975 603.88775)scale(0.14 -0.14)">
      <defs>
       <path id="DejaVuSans-42" d="M 1259 2228 
L 1259 519 
L 2272 519 
Q 2781 519 3026 730 
Q 3272 941 3272 1375 
Q 3272 1813 3026 2020 
Q 2781 2228 2272 2228 
L 1259 2228 
z
M 1259 4147 
L 1259 2741 
L 2194 2741 
Q 2656 2741 2882 2914 
Q 3109 3088 3109 3444 
Q 3109 3797 2882 3972 
Q 2656 4147 2194 4147 
L 1259 4147 
z
M 628 4666 
L 2241 4666 
Q 2963 4666 3353 4366 
Q 3744 4066 3744 3513 
Q 3744 3084 3544 2831 
Q 3344 2578 2956 2516 
Q 3422 2416 3680 2098 
Q 3938 1781 3938 1306 
Q 3938 681 3513 340 
Q 3088 0 2303 0 
L 628 0 
L 628 4666 
z
" transform="scale(0.015625)"/>
       <path id="DejaVuSans-69" d="M 603 3500 
L 1178 3500 
L 1178 0 
L 603 0 
L 603 3500 
z
M 603 4863 
L 1178 4863 
L 1178 4134 
L 603 4134 
L 603 4863 
z
" transform="scale(0.015625)"/>
       <path id="DejaVuSans-6e" d="M 3513 2113 
L 3513 0 
L 2938 0 
L 2938 2094 
Q 2938 2591 2744 2837 
Q 2550 3084 2163 3084 
Q 1697 3084 1428 2787 
Q 1159 2491 1159 1978 
L 1159 0 
L 581 0 
L 581 3500 
L 1159 3500 
L 1159 2956 
Q 1366 3272 1645 3428 
Q 1925 3584 2291 3584 
Q 2894 3584 3203 3211 
Q 3513 2838 3513 2113 
z
" transform="scale(0.015625)"/>
       <path id="DejaVuSans-75" d="M 544 1381 
L 544 3500 
L 1119 3500 
L 1119 1403 
Q 1119 906 1312 657 
Q 1506 409 1894 409 
Q 2359 409 2629 706 
Q 2900 1003 2900 1516 
L 2900 3500 
L 3475 3500 
L 3475 0 
L 2900 0 
L 2900 538 
Q 2691 219 2414 64 
Q 2138 -91 1772 -91 
Q 1169 -91 856 284 
Q 544 659 544 1381 
z
M 1991 3584 
L 1991 3584 
z
" transform="scale(0.015625)"/>
       <path id="DejaVuSans-6d" d="M 3328 2828 
Q 3544 3216 3844 3400 
Q 4144 3584 4550 3584 
Q 5097 3584 5394 3201 
Q 5691 2819 5691 2113 
L 5691 0 
L 5113 0 
L 5113 2094 
Q 5113 2597 4934 2840 
Q 4756 3084 4391 3084 
Q 3944 3084 3684 2787 
Q 3425 2491 3425 1978 
L 3425 0 
L 2847 0 
L 2847 2094 
Q 2847 2600 2669 2842 
Q 2491 3084 2119 3084 
Q 1678 3084 1418 2786 
Q 1159 2488 1159 1978 
L 1159 0 
L 581 0 
L 581 3500 
L 1159 3500 
L 1159 2956 
Q 1356 3278 1631 3431 
Q 1906 3584 2284 3584 
Q 2666 3584 2933 3390 
Q 3200 3197 3328 2828 
z
" transform="scale(0.015625)"/>
       <path id="DejaVuSans-62" d="M 3116 1747 
Q 3116 2381 2855 2742 
Q 2594 3103 2138 3103 
Q 1681 3103 1420 2742 
Q 1159 2381 1159 1747 
Q 1159 1113 1420 752 
Q 1681 391 2138 391 
Q 2594 391 2855 752 
Q 3116 1113 3116 1747 
z
M 1159 2969 
Q 1341 3281 1617 3432 
Q 1894 3584 2278 3584 
Q 2916 3584 3314 3078 
Q 3713 2572 3713 1747 
Q 3713 922 3314 415 
Q 2916 -91 2278 -91 
Q 1894 -91 1617 61 
Q 1341 213 1159 525 
L 1159 0 
L 581 0 
L 581 4863 
L 1159 4863 
L 1159 2969 
z
" transform="scale(0.015625)"/>
       <path id="DejaVuSans-65" d="M 3597 1894 
L 3597 1613 
L 953 1613 
Q 991 1019 1311 708 
Q 1631 397 2203 397 
Q 2534 397 2845 478 
Q 3156 559 3463 722 
L 3463 178 
Q 3153 47 2828 -22 
Q 2503 -91 2169 -91 
Q 1331 -91 842 396 
Q 353 884 353 1716 
Q 353 2575 817 3079 
Q 1281 3584 2069 3584 
Q 2775 3584 3186 3129 
Q 3597 2675 3597 1894 
z
M 3022 2063 
Q 3016 2534 2758 2815 
Q 2500 3097 2075 3097 
Q 1594 3097 1305 2825 
Q 1016 2553 972 2059 
L 3022 2063 
z
" transform="scale(0.015625)"/>
       <path id="DejaVuSans-72" d="M 2631 2963 
Q 2534 3019 2420 3045 
Q 2306 3072 2169 3072 
Q 1681 3072 1420 2755 
Q 1159 2438 1159 1844 
L 1159 0 
L 581 0 
L 581 3500 
L 1159 3500 
L 1159 2956 
Q 1341 3275 1631 3429 
Q 1922 3584 2338 3584 
Q 2397 3584 2469 3576 
Q 2541 3569 2628 3553 
L 2631 2963 
z
" transform="scale(0.015625)"/>
       <path id="DejaVuSans-61" d="M 2194 1759 
Q 1497 1759 1228 1600 
Q 959 1441 959 1056 
Q 959 750 1161 570 
Q 1363 391 1709 391 
Q 2188 391 2477 730 
Q 2766 1069 2766 1631 
L 2766 1759 
L 2194 1759 
z
M 3341 1997 
L 3341 0 
L 2766 0 
L 2766 531 
Q 2569 213 2275 61 
Q 1981 -91 1556 -91 
Q 1019 -91 701 211 
Q 384 513 384 1019 
Q 384 1609 779 1909 
Q 1175 2209 1959 2209 
L 2766 2209 
L 2766 2266 
Q 2766 2663 2505 2880 
Q 2244 3097 1772 3097 
Q 1472 3097 1187 3025 
Q 903 2953 641 2809 
L 641 3341 
Q 956 3463 1253 3523 
Q 1550 3584 1831 3584 
Q 2591 3584 2966 3190 
Q 3341 2797 3341 1997 
z
" transform="scale(0.015625)"/>
       <path id="DejaVuSans-78" d="M 3513 3500 
L 2247 1797 
L 3578 0 
L 2900 0 
L 1881 1375 
L 863 0 
L 184 0 
L 1544 1831 
L 300 3500 
L 978 3500 
L 1906 2253 
L 2834 3500 
L 3513 3500 
z
" transform="scale(0.015625)"/>
       <path id="DejaVuSans-70" d="M 1159 525 
L 1159 -1331 
L 581 -1331 
L 581 3500 
L 1159 3500 
L 1159 2969 
Q 1341 3281 1617 3432 
Q 1894 3584 2278 3584 
Q 2916 3584 3314 3078 
Q 3713 2572 3713 1747 
Q 3713 922 3314 415 
Q 2916 -91 2278 -91 
Q 1894 -91 1617 61 
Q 1341 213 1159 525 
z
M 3116 1747 
Q 3116 2381 2855 2742 
Q 2594 3103 2138 3103 
Q 1681 3103 1420 2742 
Q 1159 2381 1159 1747 
Q 1159 1113 1420 752 
Q 1681 391 2138 391 
Q 2594 391 2855 752 
Q 3116 1113 3116 1747 
z
" transform="scale(0.015625)"/>
       <path id="DejaVuSans-6f" d="M 1959 3097 
Q 1497 3097 1228 2736 
Q 959 2375 959 1747 
Q 959 1119 1226 758 
Q 1494 397 1959 397 
Q 2419 397 2687 759 
Q 2956 1122 2956 1747 
Q 2956 2369 2687 2733 
Q 2419 3097 1959 3097 
z
M 1959 3584 
Q 2709 3584 3137 3096 
Q 3566 2609 3566 1747 
Q 3566 888 3137 398 
Q 2709 -91 1959 -91 
Q 1206 -91 779 398 
Q 353 888 353 1747 
Q 353 2609 779 3096 
Q 1206 3584 1959 3584 
z
" transform="scale(0.015625)"/>
       <path id="DejaVuSans-67" d="M 2906 1791 
Q 2906 2416 2648 2759 
Q 2391 3103 1925 3103 
Q 1463 3103 1205 2759 
Q 947 2416 947 1791 
Q 947 1169 1205 825 
Q 1463 481 1925 481 
Q 2391 481 2648 825 
Q 2906 1169 2906 1791 
z
M 3481 434 
Q 3481 -459 3084 -895 
Q 2688 -1331 1869 -1331 
Q 1566 -1331 1297 -1286 
Q 1028 -1241 775 -1147 
L 775 -588 
Q 1028 -725 1275 -790 
Q 1522 -856 1778 -856 
Q 2344 -856 2625 -561 
Q 2906 -266 2906 331 
L 2906 616 
Q 2728 306 2450 153 
Q 2172 0 1784 0 
Q 1141 0 747 490 
Q 353 981 353 1791 
Q 353 2603 747 3093 
Q 1141 3584 1784 3584 
Q 2172 3584 2450 3431 
Q 2728 3278 2906 2969 
L 2906 3500 
L 3481 3500 
L 3481 434 
z
" transform="scale(0.015625)"/>
       <path id="DejaVuSans-73" d="M 2834 3397 
L 2834 2853 
Q 2591 2978 2328 3040 
Q 2066 3103 1784 3103 
Q 1356 3103 1142 2972 
Q 928 2841 928 2578 
Q 928 2378 1081 2264 
Q 1234 2150 1697 2047 
L 1894 2003 
Q 2506 1872 2764 1633 
Q 3022 1394 3022 966 
Q 3022 478 2636 193 
Q 2250 -91 1575 -91 
Q 1294 -91 989 -36 
Q 684 19 347 128 
L 347 722 
Q 666 556 975 473 
Q 1284 391 1588 391 
Q 1994 391 2212 530 
Q 2431 669 2431 922 
Q 2431 1156 2273 1281 
Q 2116 1406 1581 1522 
L 1381 1569 
Q 847 1681 609 1914 
Q 372 2147 372 2553 
Q 372 3047 722 3315 
Q 1072 3584 1716 3584 
Q 2034 3584 2315 3537 
Q 2597 3491 2834 3397 
z
" transform="scale(0.015625)"/>
       <path id="DejaVuSans-7a" d="M 353 3500 
L 3084 3500 
L 3084 2975 
L 922 459 
L 3084 459 
L 3084 0 
L 275 0 
L 275 525 
L 2438 3041 
L 353 3041 
L 353 3500 
z
" transform="scale(0.015625)"/>
      </defs>
      <use xlink:href="#DejaVuSans-42"/>
      <use xlink:href="#DejaVuSans-69" x="68.603516"/>
      <use xlink:href="#DejaVuSans-6e" x="96.386719"/>
      <use xlink:href="#DejaVuSans-20" x="159.765625"/>
      <use xlink:href="#DejaVuSans-6e" x="191.552734"/>
      <use xlink:href="#DejaVuSans-75" x="254.931641"/>
      <use xlink:href="#DejaVuSans-6d" x="318.310547"/>
      <use xlink:href="#DejaVuSans-62" x="415.722656"/>
      <use xlink:href="#DejaVuSans-65" x="479.199219"/>
      <use xlink:href="#DejaVuSans-72" x="540.722656"/>
      <use xlink:href="#DejaVuSans-2c" x="581.835938"/>
      <use xlink:href="#DejaVuSans-20" x="613.623047"/>
      <use xlink:href="#DejaVuSans-6d" x="645.410156"/>
      <use xlink:href="#DejaVuSans-61" x="742.822266"/>
      <use xlink:href="#DejaVuSans-78" x="804.101562"/>
      <use xlink:href="#DejaVuSans-69" x="863.28125"/>
      <use xlink:href="#DejaVuSans-6d" x="891.064453"/>
      <use xlink:href="#DejaVuSans-75" x="988.476562"/>
      <use xlink:href="#DejaVuSans-6d" x="1051.855469"/>
      <use xlink:href="#DejaVuSans-20" x="1149.267578"/>
      <use xlink:href="#DejaVuSans-70" x="1181.054688"/>
      <use xlink:href="#DejaVuSans-72" x="1244.53125"/>
      <use xlink:href="#DejaVuSans-6f" x="1283.394531"/>
      <use xlink:href="#DejaVuSans-67" x="1344.576172"/>
      <use xlink:href="#DejaVuSans-72" x="1408.052734"/>
      <use xlink:href="#DejaVuSans-61" x="1449.166016"/>
      <use xlink:href="#DejaVuSans-6d" x="1510.445312"/>
      <use xlink:href="#DejaVuSans-20" x="1607.857422"/>
      <use xlink:href="#DejaVuSans-73" x="1639.644531"/>
      <use xlink:href="#DejaVuSans-69" x="1691.744141"/>
      <use xlink:href="#DejaVuSans-7a" x="1719.527344"/>
      <use xlink:href="#DejaVuSans-65" x="1772.017578"/>
     </g>
    </g>
   </g>
   <g id="matplotlib.axis_2">
    <g id="ytick_1">
     <g id="line2d_7">
      <defs>
       <path id="m59a7b36bbe" d="M 0 0 
L -3.5 0 
" style="stroke: #000000; stroke-width: 1.6"/>
      </defs>
      <g>
       <use xlink:href="#m59a7b36bbe" x="115.2" y="515.904257" style="stroke: #000000; stroke-width: 1.6"/>
      </g>
     </g>
     <g id="text_8">
      <!-- $\mathdefault{10^{8}}$ -->
      <g transform="translate(81.14 520.083398)scale(0.11 -0.11)">
       <use xlink:href="#DejaVuSans-31" transform="translate(0 0.765625)"/>
       <use xlink:href="#DejaVuSans-30" transform="translate(63.623047 0.765625)"/>
       <use xlink:href="#DejaVuSans-38" transform="translate(128.203125 39.046875)scale(0.7)"/>
      </g>
     </g>
    </g>
    <g id="ytick_2">
     <g id="line2d_8">
      <g>
       <use xlink:href="#m59a7b36bbe" x="115.2" y="384.397923" style="stroke: #000000; stroke-width: 1.6"/>
      </g>
     </g>
     <g id="text_9">
      <!-- $\mathdefault{10^{9}}$ -->
      <g transform="translate(81.14 388.577064)scale(0.11 -0.11)">
       <use xlink:href="#DejaVuSans-31" transform="translate(0 0.765625)"/>
       <use xlink:href="#DejaVuSans-30" transform="translate(63.623047 0.765625)"/>
       <use xlink:href="#DejaVuSans-39" transform="translate(128.203125 39.046875)scale(0.7)"/>
      </g>
     </g>
    </g>
    <g id="ytick_3">
     <g id="line2d_9">
      <g>
       <use xlink:href="#m59a7b36bbe" x="115.2" y="252.891589" style="stroke: #000000; stroke-width: 1.6"/>
      </g>
     </g>
     <g id="text_10">
      <!-- $\mathdefault{10^{10}}$ -->
      <g transform="translate(76.19 257.07073)scale(0.11 -0.11)">
       <use xlink:href="#DejaVuSans-31" transform="translate(0 0.765625)"/>
       <use xlink:href="#DejaVuSans-30" transform="translate(63.623047 0.765625)"/>
       <use xlink:href="#DejaVuSans-31" transform="translate(128.203125 39.046875)scale(0.7)"/>
       <use xlink:href="#DejaVuSans-30" transform="translate(172.739258 39.046875)scale(0.7)"/>
      </g>
     </g>
    </g>
    <g id="ytick_4">
     <g id="line2d_10">
      <g>
       <use xlink:href="#m59a7b36bbe" x="115.2" y="121.385255" style="stroke: #000000; stroke-width: 1.6"/>
      </g>
     </g>
     <g id="text_11">
      <!-- $\mathdefault{10^{11}}$ -->
      <g transform="translate(76.19 125.564396)scale(0.11 -0.11)">
       <use xlink:href="#DejaVuSans-31" transform="translate(0 0.684375)"/>
       <use xlink:href="#DejaVuSans-30" transform="translate(63.623047 0.684375)"/>
       <use xlink:href="#DejaVuSans-31" transform="translate(128.203125 38.965625)scale(0.7)"/>
       <use xlink:href="#DejaVuSans-31" transform="translate(172.739258 38.965625)scale(0.7)"/>
      </g>
     </g>
    </g>
    <g id="ytick_5">
     <g id="line2d_11">
      <defs>
       <path id="m91e3609313" d="M 0 0 
L -2 0 
" style="stroke: #000000; stroke-width: 0.8"/>
      </defs>
      <g>
       <use xlink:href="#m91e3609313" x="115.2" y="555.491608" style="stroke: #000000; stroke-width: 0.8"/>
      </g>
     </g>
    </g>
    <g id="ytick_6">
     <g id="line2d_12">
      <g>
       <use xlink:href="#m91e3609313" x="115.2" y="545.078773" style="stroke: #000000; stroke-width: 0.8"/>
      </g>
     </g>
    </g>
    <g id="ytick_7">
     <g id="line2d_13">
      <g>
       <use xlink:href="#m91e3609313" x="115.2" y="536.274846" style="stroke: #000000; stroke-width: 0.8"/>
      </g>
     </g>
    </g>
    <g id="ytick_8">
     <g id="line2d_14">
      <g>
       <use xlink:href="#m91e3609313" x="115.2" y="528.648538" style="stroke: #000000; stroke-width: 0.8"/>
      </g>
     </g>
    </g>
    <g id="ytick_9">
     <g id="line2d_15">
      <g>
       <use xlink:href="#m91e3609313" x="115.2" y="521.921657" style="stroke: #000000; stroke-width: 0.8"/>
      </g>
     </g>
    </g>
    <g id="ytick_10">
     <g id="line2d_16">
      <g>
       <use xlink:href="#m91e3609313" x="115.2" y="476.316906" style="stroke: #000000; stroke-width: 0.8"/>
      </g>
     </g>
    </g>
    <g id="ytick_11">
     <g id="line2d_17">
      <g>
       <use xlink:href="#m91e3609313" x="115.2" y="453.15979" style="stroke: #000000; stroke-width: 0.8"/>
      </g>
     </g>
    </g>
    <g id="ytick_12">
     <g id="line2d_18">
      <g>
       <use xlink:href="#m91e3609313" x="115.2" y="436.729555" style="stroke: #000000; stroke-width: 0.8"/>
      </g>
     </g>
    </g>
    <g id="ytick_13">
     <g id="line2d_19">
      <g>
       <use xlink:href="#m91e3609313" x="115.2" y="423.985274" style="stroke: #000000; stroke-width: 0.8"/>
      </g>
     </g>
    </g>
    <g id="ytick_14">
     <g id="line2d_20">
      <g>
       <use xlink:href="#m91e3609313" x="115.2" y="413.572439" style="stroke: #000000; stroke-width: 0.8"/>
      </g>
     </g>
    </g>
    <g id="ytick_15">
     <g id="line2d_21">
      <g>
       <use xlink:href="#m91e3609313" x="115.2" y="404.768512" style="stroke: #000000; stroke-width: 0.8"/>
      </g>
     </g>
    </g>
    <g id="ytick_16">
     <g id="line2d_22">
      <g>
       <use xlink:href="#m91e3609313" x="115.2" y="397.142204" style="stroke: #000000; stroke-width: 0.8"/>
      </g>
     </g>
    </g>
    <g id="ytick_17">
     <g id="line2d_23">
      <g>
       <use xlink:href="#m91e3609313" x="115.2" y="390.415323" style="stroke: #000000; stroke-width: 0.8"/>
      </g>
     </g>
    </g>
    <g id="ytick_18">
     <g id="line2d_24">
      <g>
       <use xlink:href="#m91e3609313" x="115.2" y="344.810572" style="stroke: #000000; stroke-width: 0.8"/>
      </g>
     </g>
    </g>
    <g id="ytick_19">
     <g id="line2d_25">
      <g>
       <use xlink:href="#m91e3609313" x="115.2" y="321.653456" style="stroke: #000000; stroke-width: 0.8"/>
      </g>
     </g>
    </g>
    <g id="ytick_20">
     <g id="line2d_26">
      <g>
       <use xlink:href="#m91e3609313" x="115.2" y="305.223221" style="stroke: #000000; stroke-width: 0.8"/>
      </g>
     </g>
    </g>
    <g id="ytick_21">
     <g id="line2d_27">
      <g>
       <use xlink:href="#m91e3609313" x="115.2" y="292.47894" style="stroke: #000000; stroke-width: 0.8"/>
      </g>
     </g>
    </g>
    <g id="ytick_22">
     <g id="line2d_28">
      <g>
       <use xlink:href="#m91e3609313" x="115.2" y="282.066105" style="stroke: #000000; stroke-width: 0.8"/>
      </g>
     </g>
    </g>
    <g id="ytick_23">
     <g id="line2d_29">
      <g>
       <use xlink:href="#m91e3609313" x="115.2" y="273.262178" style="stroke: #000000; stroke-width: 0.8"/>
      </g>
     </g>
    </g>
    <g id="ytick_24">
     <g id="line2d_30">
      <g>
       <use xlink:href="#m91e3609313" x="115.2" y="265.63587" style="stroke: #000000; stroke-width: 0.8"/>
      </g>
     </g>
    </g>
    <g id="ytick_25">
     <g id="line2d_31">
      <g>
       <use xlink:href="#m91e3609313" x="115.2" y="258.908989" style="stroke: #000000; stroke-width: 0.8"/>
      </g>
     </g>
    </g>
    <g id="ytick_26">
     <g id="line2d_32">
      <g>
       <use xlink:href="#m91e3609313" x="115.2" y="213.304238" style="stroke: #000000; stroke-width: 0.8"/>
      </g>
     </g>
    </g>
    <g id="ytick_27">
     <g id="line2d_33">
      <g>
       <use xlink:href="#m91e3609313" x="115.2" y="190.147122" style="stroke: #000000; stroke-width: 0.8"/>
      </g>
     </g>
    </g>
    <g id="ytick_28">
     <g id="line2d_34">
      <g>
       <use xlink:href="#m91e3609313" x="115.2" y="173.716887" style="stroke: #000000; stroke-width: 0.8"/>
      </g>
     </g>
    </g>
    <g id="ytick_29">
     <g id="line2d_35">
      <g>
       <use xlink:href="#m91e3609313" x="115.2" y="160.972607" style="stroke: #000000; stroke-width: 0.8"/>
      </g>
     </g>
    </g>
    <g id="ytick_30">
     <g id="line2d_36">
      <g>
       <use xlink:href="#m91e3609313" x="115.2" y="150.559771" style="stroke: #000000; stroke-width: 0.8"/>
      </g>
     </g>
    </g>
    <g id="ytick_31">
     <g id="line2d_37">
      <g>
       <use xlink:href="#m91e3609313" x="115.2" y="141.755844" style="stroke: #000000; stroke-width: 0.8"/>
      </g>
     </g>
    </g>
    <g id="ytick_32">
     <g id="line2d_38">
      <g>
       <use xlink:href="#m91e3609313" x="115.2" y="134.129536" style="stroke: #000000; stroke-width: 0.8"/>
      </g>
     </g>
    </g>
    <g id="ytick_33">
     <g id="line2d_39">
      <g>
       <use xlink:href="#m91e3609313" x="115.2" y="127.402655" style="stroke: #000000; stroke-width: 0.8"/>
      </g>
     </g>
    </g>
    <g id="ytick_34">
     <g id="line2d_40">
      <g>
       <use xlink:href="#m91e3609313" x="115.2" y="81.797904" style="stroke: #000000; stroke-width: 0.8"/>
      </g>
     </g>
    </g>
    <g id="text_12">
     <!-- Node evaluations per second (NEPS) -->
     <g transform="translate(69.278437 447.984875)rotate(-90)scale(0.14 -0.14)">
      <defs>
       <path id="DejaVuSans-4e" d="M 628 4666 
L 1478 4666 
L 3547 763 
L 3547 4666 
L 4159 4666 
L 4159 0 
L 3309 0 
L 1241 3903 
L 1241 0 
L 628 0 
L 628 4666 
z
" transform="scale(0.015625)"/>
       <path id="DejaVuSans-64" d="M 2906 2969 
L 2906 4863 
L 3481 4863 
L 3481 0 
L 2906 0 
L 2906 525 
Q 2725 213 2448 61 
Q 2172 -91 1784 -91 
Q 1150 -91 751 415 
Q 353 922 353 1747 
Q 353 2572 751 3078 
Q 1150 3584 1784 3584 
Q 2172 3584 2448 3432 
Q 2725 3281 2906 2969 
z
M 947 1747 
Q 947 1113 1208 752 
Q 1469 391 1925 391 
Q 2381 391 2643 752 
Q 2906 1113 2906 1747 
Q 2906 2381 2643 2742 
Q 2381 3103 1925 3103 
Q 1469 3103 1208 2742 
Q 947 2381 947 1747 
z
" transform="scale(0.015625)"/>
       <path id="DejaVuSans-76" d="M 191 3500 
L 800 3500 
L 1894 563 
L 2988 3500 
L 3597 3500 
L 2284 0 
L 1503 0 
L 191 3500 
z
" transform="scale(0.015625)"/>
       <path id="DejaVuSans-6c" d="M 603 4863 
L 1178 4863 
L 1178 0 
L 603 0 
L 603 4863 
z
" transform="scale(0.015625)"/>
       <path id="DejaVuSans-74" d="M 1172 4494 
L 1172 3500 
L 2356 3500 
L 2356 3053 
L 1172 3053 
L 1172 1153 
Q 1172 725 1289 603 
Q 1406 481 1766 481 
L 2356 481 
L 2356 0 
L 1766 0 
Q 1100 0 847 248 
Q 594 497 594 1153 
L 594 3053 
L 172 3053 
L 172 3500 
L 594 3500 
L 594 4494 
L 1172 4494 
z
" transform="scale(0.015625)"/>
       <path id="DejaVuSans-63" d="M 3122 3366 
L 3122 2828 
Q 2878 2963 2633 3030 
Q 2388 3097 2138 3097 
Q 1578 3097 1268 2742 
Q 959 2388 959 1747 
Q 959 1106 1268 751 
Q 1578 397 2138 397 
Q 2388 397 2633 464 
Q 2878 531 3122 666 
L 3122 134 
Q 2881 22 2623 -34 
Q 2366 -91 2075 -91 
Q 1284 -91 818 406 
Q 353 903 353 1747 
Q 353 2603 823 3093 
Q 1294 3584 2113 3584 
Q 2378 3584 2631 3529 
Q 2884 3475 3122 3366 
z
" transform="scale(0.015625)"/>
       <path id="DejaVuSans-28" d="M 1984 4856 
Q 1566 4138 1362 3434 
Q 1159 2731 1159 2009 
Q 1159 1288 1364 580 
Q 1569 -128 1984 -844 
L 1484 -844 
Q 1016 -109 783 600 
Q 550 1309 550 2009 
Q 550 2706 781 3412 
Q 1013 4119 1484 4856 
L 1984 4856 
z
" transform="scale(0.015625)"/>
       <path id="DejaVuSans-45" d="M 628 4666 
L 3578 4666 
L 3578 4134 
L 1259 4134 
L 1259 2753 
L 3481 2753 
L 3481 2222 
L 1259 2222 
L 1259 531 
L 3634 531 
L 3634 0 
L 628 0 
L 628 4666 
z
" transform="scale(0.015625)"/>
       <path id="DejaVuSans-50" d="M 1259 4147 
L 1259 2394 
L 2053 2394 
Q 2494 2394 2734 2622 
Q 2975 2850 2975 3272 
Q 2975 3691 2734 3919 
Q 2494 4147 2053 4147 
L 1259 4147 
z
M 628 4666 
L 2053 4666 
Q 2838 4666 3239 4311 
Q 3641 3956 3641 3272 
Q 3641 2581 3239 2228 
Q 2838 1875 2053 1875 
L 1259 1875 
L 1259 0 
L 628 0 
L 628 4666 
z
" transform="scale(0.015625)"/>
       <path id="DejaVuSans-53" d="M 3425 4513 
L 3425 3897 
Q 3066 4069 2747 4153 
Q 2428 4238 2131 4238 
Q 1616 4238 1336 4038 
Q 1056 3838 1056 3469 
Q 1056 3159 1242 3001 
Q 1428 2844 1947 2747 
L 2328 2669 
Q 3034 2534 3370 2195 
Q 3706 1856 3706 1288 
Q 3706 609 3251 259 
Q 2797 -91 1919 -91 
Q 1588 -91 1214 -16 
Q 841 59 441 206 
L 441 856 
Q 825 641 1194 531 
Q 1563 422 1919 422 
Q 2459 422 2753 634 
Q 3047 847 3047 1241 
Q 3047 1584 2836 1778 
Q 2625 1972 2144 2069 
L 1759 2144 
Q 1053 2284 737 2584 
Q 422 2884 422 3419 
Q 422 4038 858 4394 
Q 1294 4750 2059 4750 
Q 2388 4750 2728 4690 
Q 3069 4631 3425 4513 
z
" transform="scale(0.015625)"/>
       <path id="DejaVuSans-29" d="M 513 4856 
L 1013 4856 
Q 1481 4119 1714 3412 
Q 1947 2706 1947 2009 
Q 1947 1309 1714 600 
Q 1481 -109 1013 -844 
L 513 -844 
Q 928 -128 1133 580 
Q 1338 1288 1338 2009 
Q 1338 2731 1133 3434 
Q 928 4138 513 4856 
z
" transform="scale(0.015625)"/>
      </defs>
      <use xlink:href="#DejaVuSans-4e"/>
      <use xlink:href="#DejaVuSans-6f" x="74.804688"/>
      <use xlink:href="#DejaVuSans-64" x="135.986328"/>
      <use xlink:href="#DejaVuSans-65" x="199.462891"/>
      <use xlink:href="#DejaVuSans-20" x="260.986328"/>
      <use xlink:href="#DejaVuSans-65" x="292.773438"/>
      <use xlink:href="#DejaVuSans-76" x="354.296875"/>
      <use xlink:href="#DejaVuSans-61" x="413.476562"/>
      <use xlink:href="#DejaVuSans-6c" x="474.755859"/>
      <use xlink:href="#DejaVuSans-75" x="502.539062"/>
      <use xlink:href="#DejaVuSans-61" x="565.917969"/>
      <use xlink:href="#DejaVuSans-74" x="627.197266"/>
      <use xlink:href="#DejaVuSans-69" x="666.40625"/>
      <use xlink:href="#DejaVuSans-6f" x="694.189453"/>
      <use xlink:href="#DejaVuSans-6e" x="755.371094"/>
      <use xlink:href="#DejaVuSans-73" x="818.75"/>
      <use xlink:href="#DejaVuSans-20" x="870.849609"/>
      <use xlink:href="#DejaVuSans-70" x="902.636719"/>
      <use xlink:href="#DejaVuSans-65" x="966.113281"/>
      <use xlink:href="#DejaVuSans-72" x="1027.636719"/>
      <use xlink:href="#DejaVuSans-20" x="1068.75"/>
      <use xlink:href="#DejaVuSans-73" x="1100.537109"/>
      <use xlink:href="#DejaVuSans-65" x="1152.636719"/>
      <use xlink:href="#DejaVuSans-63" x="1214.160156"/>
      <use xlink:href="#DejaVuSans-6f" x="1269.140625"/>
      <use xlink:href="#DejaVuSans-6e" x="1330.322266"/>
      <use xlink:href="#DejaVuSans-64" x="1393.701172"/>
      <use xlink:href="#DejaVuSans-20" x="1457.177734"/>
      <use xlink:href="#DejaVuSans-28" x="1488.964844"/>
      <use xlink:href="#DejaVuSans-4e" x="1527.978516"/>
      <use xlink:href="#DejaVuSans-45" x="1602.783203"/>
      <use xlink:href="#DejaVuSans-50" x="1665.966797"/>
      <use xlink:href="#DejaVuSans-53" x="1726.269531"/>
      <use xlink:href="#DejaVuSans-29" x="1789.746094"/>
     </g>
    </g>
   </g>
   <g id="line2d_41">
    <path d="M 147.665455 541.728 
L 168.610909 527.720437 
L 189.556364 525.325367 
L 210.501818 524.733441 
L 231.447273 524.161971 
L 252.392727 522.028003 
L 273.338182 520.739277 
L 294.283636 521.916973 
L 315.229091 521.689082 
L 336.174545 520.326727 
L 357.12 520.514756 
L 378.065455 520.841824 
L 399.010909 519.896051 
L 419.956364 520.146516 
L 440.901818 518.973182 
L 461.847273 518.883212 
L 482.792727 518.912767 
L 503.738182 518.758678 
L 524.683636 518.445221 
L 545.629091 518.408935 
L 566.574545 518.421996 
L 587.52 518.460905 
L 608.465455 518.287597 
L 629.410909 517.996818 
L 650.356364 518.365955 
L 671.301818 518.052383 
L 692.247273 518.287885 
L 713.192727 518.705978 
L 734.138182 518.629675 
L 755.083636 517.981057 
L 776.029091 518.097357 
L 796.974545 517.972306 
" clip-path="url(#p110805852c)" style="fill: none; stroke: #000000; stroke-width: 0.1; stroke-linecap: square"/>
    <defs>
     <path id="m56b5ac73b8" d="M -3 6 
L 0 3 
L 3 6 
L 6 3 
L 3 0 
L 6 -3 
L 3 -6 
L 0 -3 
L -3 -6 
L -6 -3 
L -3 0 
L -6 3 
z
"/>
    </defs>
    <g clip-path="url(#p110805852c)">
     <use xlink:href="#m56b5ac73b8" x="147.665455" y="541.728" style="fill: #17becf"/>
     <use xlink:href="#m56b5ac73b8" x="168.610909" y="527.720437" style="fill: #17becf"/>
     <use xlink:href="#m56b5ac73b8" x="189.556364" y="525.325367" style="fill: #17becf"/>
     <use xlink:href="#m56b5ac73b8" x="210.501818" y="524.733441" style="fill: #17becf"/>
     <use xlink:href="#m56b5ac73b8" x="231.447273" y="524.161971" style="fill: #17becf"/>
     <use xlink:href="#m56b5ac73b8" x="252.392727" y="522.028003" style="fill: #17becf"/>
     <use xlink:href="#m56b5ac73b8" x="273.338182" y="520.739277" style="fill: #17becf"/>
     <use xlink:href="#m56b5ac73b8" x="294.283636" y="521.916973" style="fill: #17becf"/>
     <use xlink:href="#m56b5ac73b8" x="315.229091" y="521.689082" style="fill: #17becf"/>
     <use xlink:href="#m56b5ac73b8" x="336.174545" y="520.326727" style="fill: #17becf"/>
     <use xlink:href="#m56b5ac73b8" x="357.12" y="520.514756" style="fill: #17becf"/>
     <use xlink:href="#m56b5ac73b8" x="378.065455" y="520.841824" style="fill: #17becf"/>
     <use xlink:href="#m56b5ac73b8" x="399.010909" y="519.896051" style="fill: #17becf"/>
     <use xlink:href="#m56b5ac73b8" x="419.956364" y="520.146516" style="fill: #17becf"/>
     <use xlink:href="#m56b5ac73b8" x="440.901818" y="518.973182" style="fill: #17becf"/>
     <use xlink:href="#m56b5ac73b8" x="461.847273" y="518.883212" style="fill: #17becf"/>
     <use xlink:href="#m56b5ac73b8" x="482.792727" y="518.912767" style="fill: #17becf"/>
     <use xlink:href="#m56b5ac73b8" x="503.738182" y="518.758678" style="fill: #17becf"/>
     <use xlink:href="#m56b5ac73b8" x="524.683636" y="518.445221" style="fill: #17becf"/>
     <use xlink:href="#m56b5ac73b8" x="545.629091" y="518.408935" style="fill: #17becf"/>
     <use xlink:href="#m56b5ac73b8" x="566.574545" y="518.421996" style="fill: #17becf"/>
     <use xlink:href="#m56b5ac73b8" x="587.52" y="518.460905" style="fill: #17becf"/>
     <use xlink:href="#m56b5ac73b8" x="608.465455" y="518.287597" style="fill: #17becf"/>
     <use xlink:href="#m56b5ac73b8" x="629.410909" y="517.996818" style="fill: #17becf"/>
     <use xlink:href="#m56b5ac73b8" x="650.356364" y="518.365955" style="fill: #17becf"/>
     <use xlink:href="#m56b5ac73b8" x="671.301818" y="518.052383" style="fill: #17becf"/>
     <use xlink:href="#m56b5ac73b8" x="692.247273" y="518.287885" style="fill: #17becf"/>
     <use xlink:href="#m56b5ac73b8" x="713.192727" y="518.705978" style="fill: #17becf"/>
     <use xlink:href="#m56b5ac73b8" x="734.138182" y="518.629675" style="fill: #17becf"/>
     <use xlink:href="#m56b5ac73b8" x="755.083636" y="517.981057" style="fill: #17becf"/>
     <use xlink:href="#m56b5ac73b8" x="776.029091" y="518.097357" style="fill: #17becf"/>
     <use xlink:href="#m56b5ac73b8" x="796.974545" y="517.972306" style="fill: #17becf"/>
    </g>
   </g>
   <g id="line2d_42">
    <path d="M 115.2 384.397923 
L 829.44 384.397923 
" clip-path="url(#p110805852c)" style="fill: none; stroke-dasharray: 10.36,4.48; stroke-dashoffset: 0; stroke: #808080; stroke-width: 2.8"/>
   </g>
   <g id="line2d_43">
    <path d="M 147.665455 411.477488 
L 168.610909 382.694637 
L 189.556364 373.185777 
L 210.501818 381.917464 
L 231.447273 372.588341 
L 252.392727 369.986855 
L 273.338182 367.602415 
L 294.283636 372.2698 
L 315.229091 366.250548 
L 336.174545 364.346462 
L 357.12 366.26613 
L 378.065455 363.878251 
L 399.010909 362.955998 
L 419.956364 374.391671 
L 440.901818 373.291125 
L 461.847273 362.559976 
L 482.792727 366.39567 
L 503.738182 368.961982 
L 524.683636 375.124337 
L 545.629091 372.51084 
L 566.574545 365.098571 
L 587.52 368.611948 
L 608.465455 369.158206 
L 629.410909 373.691868 
L 650.356364 363.139351 
L 671.301818 368.092086 
L 692.247273 362.667265 
L 713.192727 369.56438 
L 734.138182 371.138266 
L 755.083636 371.375896 
L 776.029091 375.030937 
L 796.974545 373.948266 
" clip-path="url(#p110805852c)" style="fill: none; stroke: #000000; stroke-width: 0.1; stroke-linecap: square"/>
    <defs>
     <path id="m956ecc7183" d="M 0 -6 
L -6 6 
L 6 6 
z
"/>
    </defs>
    <g clip-path="url(#p110805852c)">
     <use xlink:href="#m956ecc7183" x="147.665455" y="411.477488" style="fill: #9467bd"/>
     <use xlink:href="#m956ecc7183" x="168.610909" y="382.694637" style="fill: #9467bd"/>
     <use xlink:href="#m956ecc7183" x="189.556364" y="373.185777" style="fill: #9467bd"/>
     <use xlink:href="#m956ecc7183" x="210.501818" y="381.917464" style="fill: #9467bd"/>
     <use xlink:href="#m956ecc7183" x="231.447273" y="372.588341" style="fill: #9467bd"/>
     <use xlink:href="#m956ecc7183" x="252.392727" y="369.986855" style="fill: #9467bd"/>
     <use xlink:href="#m956ecc7183" x="273.338182" y="367.602415" style="fill: #9467bd"/>
     <use xlink:href="#m956ecc7183" x="294.283636" y="372.2698" style="fill: #9467bd"/>
     <use xlink:href="#m956ecc7183" x="315.229091" y="366.250548" style="fill: #9467bd"/>
     <use xlink:href="#m956ecc7183" x="336.174545" y="364.346462" style="fill: #9467bd"/>
     <use xlink:href="#m956ecc7183" x="357.12" y="366.26613" style="fill: #9467bd"/>
     <use xlink:href="#m956ecc7183" x="378.065455" y="363.878251" style="fill: #9467bd"/>
     <use xlink:href="#m956ecc7183" x="399.010909" y="362.955998" style="fill: #9467bd"/>
     <use xlink:href="#m956ecc7183" x="419.956364" y="374.391671" style="fill: #9467bd"/>
     <use xlink:href="#m956ecc7183" x="440.901818" y="373.291125" style="fill: #9467bd"/>
     <use xlink:href="#m956ecc7183" x="461.847273" y="362.559976" style="fill: #9467bd"/>
     <use xlink:href="#m956ecc7183" x="482.792727" y="366.39567" style="fill: #9467bd"/>
     <use xlink:href="#m956ecc7183" x="503.738182" y="368.961982" style="fill: #9467bd"/>
     <use xlink:href="#m956ecc7183" x="524.683636" y="375.124337" style="fill: #9467bd"/>
     <use xlink:href="#m956ecc7183" x="545.629091" y="372.51084" style="fill: #9467bd"/>
     <use xlink:href="#m956ecc7183" x="566.574545" y="365.098571" style="fill: #9467bd"/>
     <use xlink:href="#m956ecc7183" x="587.52" y="368.611948" style="fill: #9467bd"/>
     <use xlink:href="#m956ecc7183" x="608.465455" y="369.158206" style="fill: #9467bd"/>
     <use xlink:href="#m956ecc7183" x="629.410909" y="373.691868" style="fill: #9467bd"/>
     <use xlink:href="#m956ecc7183" x="650.356364" y="363.139351" style="fill: #9467bd"/>
     <use xlink:href="#m956ecc7183" x="671.301818" y="368.092086" style="fill: #9467bd"/>
     <use xlink:href="#m956ecc7183" x="692.247273" y="362.667265" style="fill: #9467bd"/>
     <use xlink:href="#m956ecc7183" x="713.192727" y="369.56438" style="fill: #9467bd"/>
     <use xlink:href="#m956ecc7183" x="734.138182" y="371.138266" style="fill: #9467bd"/>
     <use xlink:href="#m956ecc7183" x="755.083636" y="371.375896" style="fill: #9467bd"/>
     <use xlink:href="#m956ecc7183" x="776.029091" y="375.030937" style="fill: #9467bd"/>
     <use xlink:href="#m956ecc7183" x="796.974545" y="373.948266" style="fill: #9467bd"/>
    </g>
   </g>
   <g id="line2d_44">
    <path d="M 115.2 384.397923 
L 829.44 384.397923 
" clip-path="url(#p110805852c)" style="fill: none; stroke-dasharray: 10.36,4.48; stroke-dashoffset: 0; stroke: #808080; stroke-width: 2.8"/>
   </g>
   <g id="line2d_45">
    <path d="M 147.665455 386.140489 
L 168.610909 363.339791 
L 189.556364 359.787623 
L 210.501818 355.17718 
L 231.447273 352.147202 
L 252.392727 350.189267 
L 273.338182 349.484929 
L 294.283636 349.120021 
L 315.229091 349.420196 
L 336.174545 347.803023 
L 357.12 347.85453 
L 378.065455 347.260884 
L 399.010909 347.320539 
L 419.956364 347.278435 
L 440.901818 346.704852 
L 461.847273 346.648375 
L 482.792727 347.21663 
L 503.738182 346.917236 
L 524.683636 346.750488 
L 545.629091 346.388181 
L 566.574545 346.063555 
L 587.52 346.470334 
L 608.465455 346.060949 
L 629.410909 346.102227 
L 650.356364 346.076888 
L 671.301818 345.659194 
L 692.247273 346.02733 
L 713.192727 348.293659 
L 734.138182 346.40262 
L 755.083636 346.072451 
L 776.029091 345.960226 
L 796.974545 345.805612 
" clip-path="url(#p110805852c)" style="fill: none; stroke: #000000; stroke-width: 0.1; stroke-linecap: square"/>
    <defs>
     <path id="m7730a31bb2" d="M 0 3 
C 0.795609 3 1.55874 2.683901 2.12132 2.12132 
C 2.683901 1.55874 3 0.795609 3 0 
C 3 -0.795609 2.683901 -1.55874 2.12132 -2.12132 
C 1.55874 -2.683901 0.795609 -3 0 -3 
C -0.795609 -3 -1.55874 -2.683901 -2.12132 -2.12132 
C -2.683901 -1.55874 -3 -0.795609 -3 0 
C -3 0.795609 -2.683901 1.55874 -2.12132 2.12132 
C -1.55874 2.683901 -0.795609 3 0 3 
z
"/>
    </defs>
    <g clip-path="url(#p110805852c)">
     <use xlink:href="#m7730a31bb2" x="147.665455" y="386.140489" style="fill: #1f77b4"/>
     <use xlink:href="#m7730a31bb2" x="168.610909" y="363.339791" style="fill: #1f77b4"/>
     <use xlink:href="#m7730a31bb2" x="189.556364" y="359.787623" style="fill: #1f77b4"/>
     <use xlink:href="#m7730a31bb2" x="210.501818" y="355.17718" style="fill: #1f77b4"/>
     <use xlink:href="#m7730a31bb2" x="231.447273" y="352.147202" style="fill: #1f77b4"/>
     <use xlink:href="#m7730a31bb2" x="252.392727" y="350.189267" style="fill: #1f77b4"/>
     <use xlink:href="#m7730a31bb2" x="273.338182" y="349.484929" style="fill: #1f77b4"/>
     <use xlink:href="#m7730a31bb2" x="294.283636" y="349.120021" style="fill: #1f77b4"/>
     <use xlink:href="#m7730a31bb2" x="315.229091" y="349.420196" style="fill: #1f77b4"/>
     <use xlink:href="#m7730a31bb2" x="336.174545" y="347.803023" style="fill: #1f77b4"/>
     <use xlink:href="#m7730a31bb2" x="357.12" y="347.85453" style="fill: #1f77b4"/>
     <use xlink:href="#m7730a31bb2" x="378.065455" y="347.260884" style="fill: #1f77b4"/>
     <use xlink:href="#m7730a31bb2" x="399.010909" y="347.320539" style="fill: #1f77b4"/>
     <use xlink:href="#m7730a31bb2" x="419.956364" y="347.278435" style="fill: #1f77b4"/>
     <use xlink:href="#m7730a31bb2" x="440.901818" y="346.704852" style="fill: #1f77b4"/>
     <use xlink:href="#m7730a31bb2" x="461.847273" y="346.648375" style="fill: #1f77b4"/>
     <use xlink:href="#m7730a31bb2" x="482.792727" y="347.21663" style="fill: #1f77b4"/>
     <use xlink:href="#m7730a31bb2" x="503.738182" y="346.917236" style="fill: #1f77b4"/>
     <use xlink:href="#m7730a31bb2" x="524.683636" y="346.750488" style="fill: #1f77b4"/>
     <use xlink:href="#m7730a31bb2" x="545.629091" y="346.388181" style="fill: #1f77b4"/>
     <use xlink:href="#m7730a31bb2" x="566.574545" y="346.063555" style="fill: #1f77b4"/>
     <use xlink:href="#m7730a31bb2" x="587.52" y="346.470334" style="fill: #1f77b4"/>
     <use xlink:href="#m7730a31bb2" x="608.465455" y="346.060949" style="fill: #1f77b4"/>
     <use xlink:href="#m7730a31bb2" x="629.410909" y="346.102227" style="fill: #1f77b4"/>
     <use xlink:href="#m7730a31bb2" x="650.356364" y="346.076888" style="fill: #1f77b4"/>
     <use xlink:href="#m7730a31bb2" x="671.301818" y="345.659194" style="fill: #1f77b4"/>
     <use xlink:href="#m7730a31bb2" x="692.247273" y="346.02733" style="fill: #1f77b4"/>
     <use xlink:href="#m7730a31bb2" x="713.192727" y="348.293659" style="fill: #1f77b4"/>
     <use xlink:href="#m7730a31bb2" x="734.138182" y="346.40262" style="fill: #1f77b4"/>
     <use xlink:href="#m7730a31bb2" x="755.083636" y="346.072451" style="fill: #1f77b4"/>
     <use xlink:href="#m7730a31bb2" x="776.029091" y="345.960226" style="fill: #1f77b4"/>
     <use xlink:href="#m7730a31bb2" x="796.974545" y="345.805612" style="fill: #1f77b4"/>
    </g>
   </g>
   <g id="line2d_46">
    <path d="M 115.2 384.397923 
L 829.44 384.397923 
" clip-path="url(#p110805852c)" style="fill: none; stroke-dasharray: 10.36,4.48; stroke-dashoffset: 0; stroke: #808080; stroke-width: 2.8"/>
   </g>
   <g id="line2d_47">
    <path d="M 147.665455 142.084648 
L 168.610909 135.108404 
L 189.556364 135.965358 
L 210.501818 135.290327 
L 231.447273 140.376713 
L 252.392727 136.303556 
L 273.338182 138.909388 
L 294.283636 142.922087 
L 315.229091 146.181378 
L 336.174545 149.025386 
L 357.12 150.798806 
L 378.065455 151.761305 
L 399.010909 153.246316 
L 419.956364 153.84091 
L 440.901818 153.551329 
L 461.847273 153.613144 
L 482.792727 151.882825 
L 503.738182 153.36345 
L 524.683636 154.383116 
L 545.629091 152.893341 
L 566.574545 154.232616 
L 587.52 153.500074 
L 608.465455 152.761319 
L 629.410909 153.660722 
L 650.356364 153.860362 
L 671.301818 154.341027 
L 692.247273 153.484331 
L 713.192727 151.203721 
L 734.138182 153.692285 
L 755.083636 151.360067 
L 776.029091 151.996222 
L 796.974545 151.740608 
" clip-path="url(#p110805852c)" style="fill: none; stroke: #000000; stroke-width: 0.1; stroke-linecap: square"/>
    <defs>
     <path id="m1a37799246" d="M -0 8.485281 
L 5.091169 0 
L 0 -8.485281 
L -5.091169 -0 
z
"/>
    </defs>
    <g clip-path="url(#p110805852c)">
     <use xlink:href="#m1a37799246" x="147.665455" y="142.084648" style="fill: #2ca02c"/>
     <use xlink:href="#m1a37799246" x="168.610909" y="135.108404" style="fill: #2ca02c"/>
     <use xlink:href="#m1a37799246" x="189.556364" y="135.965358" style="fill: #2ca02c"/>
     <use xlink:href="#m1a37799246" x="210.501818" y="135.290327" style="fill: #2ca02c"/>
     <use xlink:href="#m1a37799246" x="231.447273" y="140.376713" style="fill: #2ca02c"/>
     <use xlink:href="#m1a37799246" x="252.392727" y="136.303556" style="fill: #2ca02c"/>
     <use xlink:href="#m1a37799246" x="273.338182" y="138.909388" style="fill: #2ca02c"/>
     <use xlink:href="#m1a37799246" x="294.283636" y="142.922087" style="fill: #2ca02c"/>
     <use xlink:href="#m1a37799246" x="315.229091" y="146.181378" style="fill: #2ca02c"/>
     <use xlink:href="#m1a37799246" x="336.174545" y="149.025386" style="fill: #2ca02c"/>
     <use xlink:href="#m1a37799246" x="357.12" y="150.798806" style="fill: #2ca02c"/>
     <use xlink:href="#m1a37799246" x="378.065455" y="151.761305" style="fill: #2ca02c"/>
     <use xlink:href="#m1a37799246" x="399.010909" y="153.246316" style="fill: #2ca02c"/>
     <use xlink:href="#m1a37799246" x="419.956364" y="153.84091" style="fill: #2ca02c"/>
     <use xlink:href="#m1a37799246" x="440.901818" y="153.551329" style="fill: #2ca02c"/>
     <use xlink:href="#m1a37799246" x="461.847273" y="153.613144" style="fill: #2ca02c"/>
     <use xlink:href="#m1a37799246" x="482.792727" y="151.882825" style="fill: #2ca02c"/>
     <use xlink:href="#m1a37799246" x="503.738182" y="153.36345" style="fill: #2ca02c"/>
     <use xlink:href="#m1a37799246" x="524.683636" y="154.383116" style="fill: #2ca02c"/>
     <use xlink:href="#m1a37799246" x="545.629091" y="152.893341" style="fill: #2ca02c"/>
     <use xlink:href="#m1a37799246" x="566.574545" y="154.232616" style="fill: #2ca02c"/>
     <use xlink:href="#m1a37799246" x="587.52" y="153.500074" style="fill: #2ca02c"/>
     <use xlink:href="#m1a37799246" x="608.465455" y="152.761319" style="fill: #2ca02c"/>
     <use xlink:href="#m1a37799246" x="629.410909" y="153.660722" style="fill: #2ca02c"/>
     <use xlink:href="#m1a37799246" x="650.356364" y="153.860362" style="fill: #2ca02c"/>
     <use xlink:href="#m1a37799246" x="671.301818" y="154.341027" style="fill: #2ca02c"/>
     <use xlink:href="#m1a37799246" x="692.247273" y="153.484331" style="fill: #2ca02c"/>
     <use xlink:href="#m1a37799246" x="713.192727" y="151.203721" style="fill: #2ca02c"/>
     <use xlink:href="#m1a37799246" x="734.138182" y="153.692285" style="fill: #2ca02c"/>
     <use xlink:href="#m1a37799246" x="755.083636" y="151.360067" style="fill: #2ca02c"/>
     <use xlink:href="#m1a37799246" x="776.029091" y="151.996222" style="fill: #2ca02c"/>
     <use xlink:href="#m1a37799246" x="796.974545" y="151.740608" style="fill: #2ca02c"/>
    </g>
   </g>
   <g id="line2d_48">
    <path d="M 115.2 384.397923 
L 829.44 384.397923 
" clip-path="url(#p110805852c)" style="fill: none; stroke-dasharray: 10.36,4.48; stroke-dashoffset: 0; stroke: #808080; stroke-width: 2.8"/>
   </g>
   <g id="line2d_49">
    <path d="M 147.665455 331.753765 
L 168.610909 269.540475 
L 189.556364 242.562277 
L 210.501818 223.236458 
L 231.447273 208.792272 
L 252.392727 197.078541 
L 273.338182 187.858732 
L 294.283636 179.948204 
L 315.229091 172.795446 
L 336.174545 166.436489 
L 357.12 160.69418 
L 378.065455 155.645838 
L 399.010909 150.932225 
L 419.956364 146.404863 
L 440.901818 142.64983 
L 461.847273 138.643133 
L 482.792727 135.087864 
L 503.738182 131.70921 
L 524.683636 128.55108 
L 545.629091 125.487026 
L 566.574545 122.837242 
L 587.52 119.916701 
L 608.465455 117.225837 
L 629.410909 114.90329 
L 650.356364 112.594256 
L 671.301818 110.220607 
L 692.247273 107.991142 
L 713.192727 105.809854 
L 734.138182 103.882884 
L 755.083636 101.855232 
L 776.029091 100.027449 
L 796.974545 98.208 
" clip-path="url(#p110805852c)" style="fill: none; stroke: #000000; stroke-width: 0.1; stroke-linecap: square"/>
    <defs>
     <path id="m7b4f1ca832" d="M 0 -6 
L -1.347084 -1.854102 
L -5.706339 -1.854102 
L -2.179628 0.708204 
L -3.526712 4.854102 
L -0 2.291796 
L 3.526712 4.854102 
L 2.179628 0.708204 
L 5.706339 -1.854102 
L 1.347084 -1.854102 
z
"/>
    </defs>
    <g clip-path="url(#p110805852c)">
     <use xlink:href="#m7b4f1ca832" x="147.665455" y="331.753765" style="fill: #d62728"/>
     <use xlink:href="#m7b4f1ca832" x="168.610909" y="269.540475" style="fill: #d62728"/>
     <use xlink:href="#m7b4f1ca832" x="189.556364" y="242.562277" style="fill: #d62728"/>
     <use xlink:href="#m7b4f1ca832" x="210.501818" y="223.236458" style="fill: #d62728"/>
     <use xlink:href="#m7b4f1ca832" x="231.447273" y="208.792272" style="fill: #d62728"/>
     <use xlink:href="#m7b4f1ca832" x="252.392727" y="197.078541" style="fill: #d62728"/>
     <use xlink:href="#m7b4f1ca832" x="273.338182" y="187.858732" style="fill: #d62728"/>
     <use xlink:href="#m7b4f1ca832" x="294.283636" y="179.948204" style="fill: #d62728"/>
     <use xlink:href="#m7b4f1ca832" x="315.229091" y="172.795446" style="fill: #d62728"/>
     <use xlink:href="#m7b4f1ca832" x="336.174545" y="166.436489" style="fill: #d62728"/>
     <use xlink:href="#m7b4f1ca832" x="357.12" y="160.69418" style="fill: #d62728"/>
     <use xlink:href="#m7b4f1ca832" x="378.065455" y="155.645838" style="fill: #d62728"/>
     <use xlink:href="#m7b4f1ca832" x="399.010909" y="150.932225" style="fill: #d62728"/>
     <use xlink:href="#m7b4f1ca832" x="419.956364" y="146.404863" style="fill: #d62728"/>
     <use xlink:href="#m7b4f1ca832" x="440.901818" y="142.64983" style="fill: #d62728"/>
     <use xlink:href="#m7b4f1ca832" x="461.847273" y="138.643133" style="fill: #d62728"/>
     <use xlink:href="#m7b4f1ca832" x="482.792727" y="135.087864" style="fill: #d62728"/>
     <use xlink:href="#m7b4f1ca832" x="503.738182" y="131.70921" style="fill: #d62728"/>
     <use xlink:href="#m7b4f1ca832" x="524.683636" y="128.55108" style="fill: #d62728"/>
     <use xlink:href="#m7b4f1ca832" x="545.629091" y="125.487026" style="fill: #d62728"/>
     <use xlink:href="#m7b4f1ca832" x="566.574545" y="122.837242" style="fill: #d62728"/>
     <use xlink:href="#m7b4f1ca832" x="587.52" y="119.916701" style="fill: #d62728"/>
     <use xlink:href="#m7b4f1ca832" x="608.465455" y="117.225837" style="fill: #d62728"/>
     <use xlink:href="#m7b4f1ca832" x="629.410909" y="114.90329" style="fill: #d62728"/>
     <use xlink:href="#m7b4f1ca832" x="650.356364" y="112.594256" style="fill: #d62728"/>
     <use xlink:href="#m7b4f1ca832" x="671.301818" y="110.220607" style="fill: #d62728"/>
     <use xlink:href="#m7b4f1ca832" x="692.247273" y="107.991142" style="fill: #d62728"/>
     <use xlink:href="#m7b4f1ca832" x="713.192727" y="105.809854" style="fill: #d62728"/>
     <use xlink:href="#m7b4f1ca832" x="734.138182" y="103.882884" style="fill: #d62728"/>
     <use xlink:href="#m7b4f1ca832" x="755.083636" y="101.855232" style="fill: #d62728"/>
     <use xlink:href="#m7b4f1ca832" x="776.029091" y="100.027449" style="fill: #d62728"/>
     <use xlink:href="#m7b4f1ca832" x="796.974545" y="98.208" style="fill: #d62728"/>
    </g>
   </g>
   <g id="line2d_50">
    <path d="M 115.2 384.397923 
L 829.44 384.397923 
" clip-path="url(#p110805852c)" style="fill: none; stroke-dasharray: 10.36,4.48; stroke-dashoffset: 0; stroke: #808080; stroke-width: 2.8"/>
   </g>
   <g id="patch_3">
    <path d="M 115.2 563.904 
L 115.2 76.032 
" style="fill: none; stroke: #000000; stroke-width: 0.8; stroke-linejoin: miter; stroke-linecap: square"/>
   </g>
   <g id="patch_4">
    <path d="M 829.44 563.904 
L 829.44 76.032 
" style="fill: none; stroke: #000000; stroke-width: 0.8; stroke-linejoin: miter; stroke-linecap: square"/>
   </g>
   <g id="patch_5">
    <path d="M 115.2 563.904 
L 829.44 563.904 
" style="fill: none; stroke: #000000; stroke-width: 0.8; stroke-linejoin: miter; stroke-linecap: square"/>
   </g>
   <g id="patch_6">
    <path d="M 115.2 76.032 
L 829.44 76.032 
" style="fill: none; stroke: #000000; stroke-width: 0.8; stroke-linejoin: miter; stroke-linecap: square"/>
   </g>
   <g id="text_13">
    <!-- $10^9$ for scale -->
    <g transform="translate(260.901818 413.572439)scale(0.11 -0.11)">
     <defs>
      <path id="DejaVuSans-66" d="M 2375 4863 
L 2375 4384 
L 1825 4384 
Q 1516 4384 1395 4259 
Q 1275 4134 1275 3809 
L 1275 3500 
L 2222 3500 
L 2222 3053 
L 1275 3053 
L 1275 0 
L 697 0 
L 697 3053 
L 147 3053 
L 147 3500 
L 697 3500 
L 697 3744 
Q 697 4328 969 4595 
Q 1241 4863 1831 4863 
L 2375 4863 
z
" transform="scale(0.015625)"/>
     </defs>
     <use xlink:href="#DejaVuSans-31" transform="translate(0 0.765625)"/>
     <use xlink:href="#DejaVuSans-30" transform="translate(63.623047 0.765625)"/>
     <use xlink:href="#DejaVuSans-39" transform="translate(128.203125 39.046875)scale(0.7)"/>
     <use xlink:href="#DejaVuSans-20" transform="translate(175.473633 0.765625)"/>
     <use xlink:href="#DejaVuSans-66" transform="translate(207.260742 0.765625)"/>
     <use xlink:href="#DejaVuSans-6f" transform="translate(242.46582 0.765625)"/>
     <use xlink:href="#DejaVuSans-72" transform="translate(303.647461 0.765625)"/>
     <use xlink:href="#DejaVuSans-20" transform="translate(344.760742 0.765625)"/>
     <use xlink:href="#DejaVuSans-73" transform="translate(376.547852 0.765625)"/>
     <use xlink:href="#DejaVuSans-63" transform="translate(428.647461 0.765625)"/>
     <use xlink:href="#DejaVuSans-61" transform="translate(483.62793 0.765625)"/>
     <use xlink:href="#DejaVuSans-6c" transform="translate(544.907227 0.765625)"/>
     <use xlink:href="#DejaVuSans-65" transform="translate(572.69043 0.765625)"/>
    </g>
   </g>
  </g>
 </g>
 <defs>
  <clipPath id="p110805852c">
   <rect x="115.2" y="76.032" width="714.24" height="487.872"/>
  </clipPath>
 </defs>
</svg>
