<?xml version="1.0" encoding="utf-8" standalone="no"?>
<!DOCTYPE svg PUBLIC "-//W3C//DTD SVG 1.1//EN"
  "http://www.w3.org/Graphics/SVG/1.1/DTD/svg11.dtd">
<svg xmlns:xlink="http://www.w3.org/1999/xlink" width="921.6pt" height="633.6pt" viewBox="0 0 921.6 633.6" xmlns="http://www.w3.org/2000/svg" version="1.1">
 <metadata>
  <rdf:RDF xmlns:dc="http://purl.org/dc/elements/1.1/" xmlns:cc="http://creativecommons.org/ns#" xmlns:rdf="http://www.w3.org/1999/02/22-rdf-syntax-ns#">
   <cc:Work>
    <dc:type rdf:resource="http://purl.org/dc/dcmitype/StillImage"/>
    <dc:date>2022-11-02T20:32:09.709842</dc:date>
    <dc:format>image/svg+xml</dc:format>
    <dc:creator>
     <cc:Agent>
      <dc:title>Matplotlib v3.5.3, https://matplotlib.org/</dc:title>
     </cc:Agent>
    </dc:creator>
   </cc:Work>
  </rdf:RDF>
 </metadata>
 <defs>
  <style type="text/css">*{stroke-linejoin: round; stroke-linecap: butt}</style>
 </defs>
 <g id="figure_1">
  <g id="patch_1">
   <path d="M 0 633.6 
L 921.6 633.6 
L 921.6 0 
L 0 0 
z
" style="fill: #ffffff"/>
  </g>
  <g id="axes_1">
   <g id="patch_2">
    <path d="M 115.2 563.904 
L 829.44 563.904 
L 829.44 76.032 
L 115.2 76.032 
z
" style="fill: #ffffff"/>
   </g>
   <g id="PolyCollection_1">
    <defs>
     <path id="mfc32924d47" d="M 147.665455 -91.872 
L 147.665455 -91.872 
L 168.610909 -120.237217 
L 189.556364 -130.054646 
L 210.501818 -134.845565 
L 231.447273 -137.680746 
L 252.392727 -139.992245 
L 273.338182 -141.755778 
L 294.283636 -143.494022 
L 315.229091 -144.371029 
L 336.174545 -144.823846 
L 357.12 -145.563089 
L 378.065455 -146.18948 
L 399.010909 -146.020328 
L 419.956364 -146.901765 
L 440.901818 -147.500469 
L 461.847273 -147.545131 
L 482.792727 -148.086938 
L 503.738182 -147.90223 
L 524.683636 -148.246299 
L 545.629091 -147.505782 
L 566.574545 -148.342754 
L 587.52 -148.911036 
L 608.465455 -148.947419 
L 629.410909 -149.021675 
L 650.356364 -148.978391 
L 671.301818 -149.490686 
L 692.247273 -149.252756 
L 713.192727 -149.512462 
L 734.138182 -149.600193 
L 755.083636 -149.737927 
L 776.029091 -149.298829 
L 796.974545 -149.64304 
L 796.974545 -149.64304 
L 796.974545 -149.64304 
L 776.029091 -149.298829 
L 755.083636 -149.737927 
L 734.138182 -149.600193 
L 713.192727 -149.512462 
L 692.247273 -149.252756 
L 671.301818 -149.490686 
L 650.356364 -148.978391 
L 629.410909 -149.021675 
L 608.465455 -148.947419 
L 587.52 -148.911036 
L 566.574545 -148.342754 
L 545.629091 -147.505782 
L 524.683636 -148.246299 
L 503.738182 -147.90223 
L 482.792727 -148.086938 
L 461.847273 -147.545131 
L 440.901818 -147.500469 
L 419.956364 -146.901765 
L 399.010909 -146.020328 
L 378.065455 -146.18948 
L 357.12 -145.563089 
L 336.174545 -144.823846 
L 315.229091 -144.371029 
L 294.283636 -143.494022 
L 273.338182 -141.755778 
L 252.392727 -139.992245 
L 231.447273 -137.680746 
L 210.501818 -134.845565 
L 189.556364 -130.054646 
L 168.610909 -120.237217 
L 147.665455 -91.872 
z
" style="stroke: #fff8dc; stroke-width: 0.48"/>
    </defs>
    <g clip-path="url(#pe343535c12)">
     <use xlink:href="#mfc32924d47" x="0" y="633.6" style="fill: #fff8dc; stroke: #fff8dc; stroke-width: 0.48"/>
    </g>
   </g>
   <g id="PolyCollection_2">
    <defs>
     <path id="m7a24e09f2a" d="M 147.665455 -147.45772 
L 147.665455 -147.45772 
L 168.610909 -167.522654 
L 189.556364 -174.352878 
L 210.501818 -176.40202 
L 231.447273 -177.965935 
L 252.392727 -178.992626 
L 273.338182 -179.55688 
L 294.283636 -180.261306 
L 315.229091 -180.002171 
L 336.174545 -181.028331 
L 357.12 -180.931099 
L 378.065455 -181.638988 
L 399.010909 -181.461335 
L 419.956364 -181.433139 
L 440.901818 -182.308637 
L 461.847273 -182.238981 
L 482.792727 -181.968862 
L 503.738182 -182.138961 
L 524.683636 -182.354797 
L 545.629091 -182.103137 
L 566.574545 -182.757509 
L 587.52 -182.469023 
L 608.465455 -182.106954 
L 629.410909 -182.154845 
L 650.356364 -182.547006 
L 671.301818 -182.365068 
L 692.247273 -182.294829 
L 713.192727 -182.277588 
L 734.138182 -182.17382 
L 755.083636 -182.527752 
L 776.029091 -182.723141 
L 796.974545 -182.835216 
L 796.974545 -182.835216 
L 796.974545 -182.835216 
L 776.029091 -182.723141 
L 755.083636 -182.527752 
L 734.138182 -182.17382 
L 713.192727 -182.277588 
L 692.247273 -182.294829 
L 671.301818 -182.365068 
L 650.356364 -182.547006 
L 629.410909 -182.154845 
L 608.465455 -182.106954 
L 587.52 -182.469023 
L 566.574545 -182.757509 
L 545.629091 -182.103137 
L 524.683636 -182.354797 
L 503.738182 -182.138961 
L 482.792727 -181.968862 
L 461.847273 -182.238981 
L 440.901818 -182.308637 
L 419.956364 -181.433139 
L 399.010909 -181.461335 
L 378.065455 -181.638988 
L 357.12 -180.931099 
L 336.174545 -181.028331 
L 315.229091 -180.002171 
L 294.283636 -180.261306 
L 273.338182 -179.55688 
L 252.392727 -178.992626 
L 231.447273 -177.965935 
L 210.501818 -176.40202 
L 189.556364 -174.352878 
L 168.610909 -167.522654 
L 147.665455 -147.45772 
z
" style="stroke: #fff8dc; stroke-width: 0.48"/>
    </defs>
    <g clip-path="url(#pe343535c12)">
     <use xlink:href="#m7a24e09f2a" x="0" y="633.6" style="fill: #fff8dc; stroke: #fff8dc; stroke-width: 0.48"/>
    </g>
   </g>
   <g id="PolyCollection_3">
    <defs>
     <path id="m2e98f6a9fe" d="M 147.665455 -136.417363 
L 147.665455 -136.417363 
L 168.610909 -149.474538 
L 189.556364 -152.002189 
L 210.501818 -159.261051 
L 231.447273 -160.654505 
L 252.392727 -161.605713 
L 273.338182 -162.515509 
L 294.283636 -162.845944 
L 315.229091 -162.360874 
L 336.174545 -163.485087 
L 357.12 -163.522834 
L 378.065455 -164.192733 
L 399.010909 -164.35341 
L 419.956364 -164.175754 
L 440.901818 -164.934788 
L 461.847273 -164.565692 
L 482.792727 -164.338682 
L 503.738182 -164.899973 
L 524.683636 -164.977419 
L 545.629091 -164.784465 
L 566.574545 -165.414948 
L 587.52 -165.149182 
L 608.465455 -165.236019 
L 629.410909 -165.527149 
L 650.356364 -165.168161 
L 671.301818 -165.16736 
L 692.247273 -164.881324 
L 713.192727 -164.604901 
L 734.138182 -164.768815 
L 755.083636 -165.15606 
L 776.029091 -165.495497 
L 796.974545 -165.423627 
L 796.974545 -165.423627 
L 796.974545 -165.423627 
L 776.029091 -165.495497 
L 755.083636 -165.15606 
L 734.138182 -164.768815 
L 713.192727 -164.604901 
L 692.247273 -164.881324 
L 671.301818 -165.16736 
L 650.356364 -165.168161 
L 629.410909 -165.527149 
L 608.465455 -165.236019 
L 587.52 -165.149182 
L 566.574545 -165.414948 
L 545.629091 -164.784465 
L 524.683636 -164.977419 
L 503.738182 -164.899973 
L 482.792727 -164.338682 
L 461.847273 -164.565692 
L 440.901818 -164.934788 
L 419.956364 -164.175754 
L 399.010909 -164.35341 
L 378.065455 -164.192733 
L 357.12 -163.522834 
L 336.174545 -163.485087 
L 315.229091 -162.360874 
L 294.283636 -162.845944 
L 273.338182 -162.515509 
L 252.392727 -161.605713 
L 231.447273 -160.654505 
L 210.501818 -159.261051 
L 189.556364 -152.002189 
L 168.610909 -149.474538 
L 147.665455 -136.417363 
z
" style="stroke: #fff8dc; stroke-width: 0.48"/>
    </defs>
    <g clip-path="url(#pe343535c12)">
     <use xlink:href="#m2e98f6a9fe" x="0" y="633.6" style="fill: #fff8dc; stroke: #fff8dc; stroke-width: 0.48"/>
    </g>
   </g>
   <g id="PolyCollection_4">
    <defs>
     <path id="m2505d7424a" d="M 147.665455 -392.656188 
L 147.665455 -392.656188 
L 168.610909 -415.418722 
L 189.556364 -436.091111 
L 210.501818 -453.639125 
L 231.447273 -459.978333 
L 252.392727 -461.944448 
L 273.338182 -465.980782 
L 294.283636 -459.447927 
L 315.229091 -476.504868 
L 336.174545 -462.03868 
L 357.12 -455.174927 
L 378.065455 -477.097746 
L 399.010909 -459.168581 
L 419.956364 -472.65672 
L 440.901818 -460.308867 
L 461.847273 -475.176685 
L 482.792727 -456.396285 
L 503.738182 -483.799518 
L 524.683636 -449.075075 
L 545.629091 -464.843045 
L 566.574545 -481.533745 
L 587.52 -487.021453 
L 608.465455 -455.476652 
L 629.410909 -463.924289 
L 650.356364 -486.139414 
L 671.301818 -466.801125 
L 692.247273 -460.742299 
L 713.192727 -480.980813 
L 734.138182 -484.41258 
L 755.083636 -459.743403 
L 776.029091 -469.791443 
L 796.974545 -422.255127 
L 796.974545 -422.255127 
L 796.974545 -481.315455 
L 776.029091 -492.467719 
L 755.083636 -482.473904 
L 734.138182 -495.267291 
L 713.192727 -501.041271 
L 692.247273 -490.046394 
L 671.301818 -494.395989 
L 650.356364 -495.80246 
L 629.410909 -499.29255 
L 608.465455 -500.946875 
L 587.52 -497.746412 
L 566.574545 -491.414358 
L 545.629091 -488.722376 
L 524.683636 -490.425172 
L 503.738182 -491.192544 
L 482.792727 -489.403143 
L 461.847273 -498.755806 
L 440.901818 -490.482807 
L 419.956364 -491.658811 
L 399.010909 -486.301845 
L 378.065455 -481.349581 
L 357.12 -489.623546 
L 336.174545 -484.760364 
L 315.229091 -482.638366 
L 294.283636 -482.441936 
L 273.338182 -479.993778 
L 252.392727 -474.213378 
L 231.447273 -470.942039 
L 210.501818 -460.960147 
L 189.556364 -455.68985 
L 168.610909 -444.725354 
L 147.665455 -410.566222 
z
" style="stroke: #fff8dc; stroke-width: 0.48"/>
    </defs>
    <g clip-path="url(#pe343535c12)">
     <use xlink:href="#m2505d7424a" x="0" y="633.6" style="fill: #fff8dc; stroke: #fff8dc; stroke-width: 0.48"/>
    </g>
   </g>
   <g id="PolyCollection_5">
    <defs>
     <path id="m016d7fffad" d="M 147.665455 -385.141107 
L 147.665455 -385.141107 
L 168.610909 -428.965525 
L 189.556364 -450.474648 
L 210.501818 -464.216043 
L 231.447273 -474.713913 
L 252.392727 -483.193269 
L 273.338182 -490.096967 
L 294.283636 -496.106896 
L 315.229091 -501.247705 
L 336.174545 -505.993847 
L 357.12 -510.13418 
L 378.065455 -514.018687 
L 399.010909 -517.420683 
L 419.956364 -520.678721 
L 440.901818 -523.635767 
L 461.847273 -526.419553 
L 482.792727 -529.028961 
L 503.738182 -531.467791 
L 524.683636 -533.770917 
L 545.629091 -534.64126 
L 566.574545 -534.621402 
L 587.52 -534.835581 
L 608.465455 -534.920661 
L 629.410909 -534.937247 
L 650.356364 -535.036724 
L 671.301818 -535.020579 
L 692.247273 -535.117506 
L 713.192727 -535.150599 
L 734.138182 -535.223374 
L 755.083636 -535.227614 
L 776.029091 -535.301004 
L 796.974545 -535.392 
L 796.974545 -535.392 
L 796.974545 -535.392 
L 776.029091 -535.301004 
L 755.083636 -535.227614 
L 734.138182 -535.223374 
L 713.192727 -535.150599 
L 692.247273 -535.117506 
L 671.301818 -535.020579 
L 650.356364 -535.036724 
L 629.410909 -534.937247 
L 608.465455 -534.920661 
L 587.52 -534.835581 
L 566.574545 -534.621402 
L 545.629091 -534.64126 
L 524.683636 -533.770917 
L 503.738182 -531.467791 
L 482.792727 -529.028961 
L 461.847273 -526.419553 
L 440.901818 -523.635767 
L 419.956364 -520.678721 
L 399.010909 -517.420683 
L 378.065455 -514.018687 
L 357.12 -510.13418 
L 336.174545 -505.993847 
L 315.229091 -501.247705 
L 294.283636 -496.106896 
L 273.338182 -490.096967 
L 252.392727 -483.193269 
L 231.447273 -474.713913 
L 210.501818 -464.216043 
L 189.556364 -450.474648 
L 168.610909 -428.965525 
L 147.665455 -385.141107 
z
" style="stroke: #fff8dc; stroke-width: 0.48"/>
    </defs>
    <g clip-path="url(#pe343535c12)">
     <use xlink:href="#m016d7fffad" x="0" y="633.6" style="fill: #fff8dc; stroke: #fff8dc; stroke-width: 0.48"/>
    </g>
   </g>
   <g id="matplotlib.axis_1">
    <g id="xtick_1">
     <g id="line2d_1">
      <defs>
       <path id="m04297de753" d="M 0 0 
L 0 3.5 
" style="stroke: #000000; stroke-width: 1.6"/>
      </defs>
      <g>
       <use xlink:href="#m04297de753" x="147.665455" y="563.904" style="stroke: #000000; stroke-width: 1.6"/>
      </g>
     </g>
     <g id="text_1">
      <!-- 1, 32 -->
      <g transform="translate(133.671392 586.962281)scale(0.11 -0.11)">
       <defs>
        <path id="DejaVuSans-31" d="M 794 531 
L 1825 531 
L 1825 4091 
L 703 3866 
L 703 4441 
L 1819 4666 
L 2450 4666 
L 2450 531 
L 3481 531 
L 3481 0 
L 794 0 
L 794 531 
z
" transform="scale(0.015625)"/>
        <path id="DejaVuSans-2c" d="M 750 794 
L 1409 794 
L 1409 256 
L 897 -744 
L 494 -744 
L 750 256 
L 750 794 
z
" transform="scale(0.015625)"/>
        <path id="DejaVuSans-20" transform="scale(0.015625)"/>
        <path id="DejaVuSans-33" d="M 2597 2516 
Q 3050 2419 3304 2112 
Q 3559 1806 3559 1356 
Q 3559 666 3084 287 
Q 2609 -91 1734 -91 
Q 1441 -91 1130 -33 
Q 819 25 488 141 
L 488 750 
Q 750 597 1062 519 
Q 1375 441 1716 441 
Q 2309 441 2620 675 
Q 2931 909 2931 1356 
Q 2931 1769 2642 2001 
Q 2353 2234 1838 2234 
L 1294 2234 
L 1294 2753 
L 1863 2753 
Q 2328 2753 2575 2939 
Q 2822 3125 2822 3475 
Q 2822 3834 2567 4026 
Q 2313 4219 1838 4219 
Q 1578 4219 1281 4162 
Q 984 4106 628 3988 
L 628 4550 
Q 988 4650 1302 4700 
Q 1616 4750 1894 4750 
Q 2613 4750 3031 4423 
Q 3450 4097 3450 3541 
Q 3450 3153 3228 2886 
Q 3006 2619 2597 2516 
z
" transform="scale(0.015625)"/>
        <path id="DejaVuSans-32" d="M 1228 531 
L 3431 531 
L 3431 0 
L 469 0 
L 469 531 
Q 828 903 1448 1529 
Q 2069 2156 2228 2338 
Q 2531 2678 2651 2914 
Q 2772 3150 2772 3378 
Q 2772 3750 2511 3984 
Q 2250 4219 1831 4219 
Q 1534 4219 1204 4116 
Q 875 4013 500 3803 
L 500 4441 
Q 881 4594 1212 4672 
Q 1544 4750 1819 4750 
Q 2544 4750 2975 4387 
Q 3406 4025 3406 3419 
Q 3406 3131 3298 2873 
Q 3191 2616 2906 2266 
Q 2828 2175 2409 1742 
Q 1991 1309 1228 531 
z
" transform="scale(0.015625)"/>
       </defs>
       <use xlink:href="#DejaVuSans-31"/>
       <use xlink:href="#DejaVuSans-2c" x="63.623047"/>
       <use xlink:href="#DejaVuSans-20" x="95.410156"/>
       <use xlink:href="#DejaVuSans-33" x="127.197266"/>
       <use xlink:href="#DejaVuSans-32" x="190.820312"/>
      </g>
     </g>
    </g>
    <g id="xtick_2">
     <g id="line2d_2">
      <g>
       <use xlink:href="#m04297de753" x="273.338182" y="563.904" style="stroke: #000000; stroke-width: 1.6"/>
      </g>
     </g>
     <g id="text_2">
      <!-- 7, 224 -->
      <g transform="translate(255.844744 586.962281)scale(0.11 -0.11)">
       <defs>
        <path id="DejaVuSans-37" d="M 525 4666 
L 3525 4666 
L 3525 4397 
L 1831 0 
L 1172 0 
L 2766 4134 
L 525 4134 
L 525 4666 
z
" transform="scale(0.015625)"/>
        <path id="DejaVuSans-34" d="M 2419 4116 
L 825 1625 
L 2419 1625 
L 2419 4116 
z
M 2253 4666 
L 3047 4666 
L 3047 1625 
L 3713 1625 
L 3713 1100 
L 3047 1100 
L 3047 0 
L 2419 0 
L 2419 1100 
L 313 1100 
L 313 1709 
L 2253 4666 
z
" transform="scale(0.015625)"/>
       </defs>
       <use xlink:href="#DejaVuSans-37"/>
       <use xlink:href="#DejaVuSans-2c" x="63.623047"/>
       <use xlink:href="#DejaVuSans-20" x="95.410156"/>
       <use xlink:href="#DejaVuSans-32" x="127.197266"/>
       <use xlink:href="#DejaVuSans-32" x="190.820312"/>
       <use xlink:href="#DejaVuSans-34" x="254.443359"/>
      </g>
     </g>
    </g>
    <g id="xtick_3">
     <g id="line2d_3">
      <g>
       <use xlink:href="#m04297de753" x="399.010909" y="563.904" style="stroke: #000000; stroke-width: 1.6"/>
      </g>
     </g>
     <g id="text_3">
      <!-- 13, 416 -->
      <g transform="translate(378.018097 586.962281)scale(0.11 -0.11)">
       <defs>
        <path id="DejaVuSans-36" d="M 2113 2584 
Q 1688 2584 1439 2293 
Q 1191 2003 1191 1497 
Q 1191 994 1439 701 
Q 1688 409 2113 409 
Q 2538 409 2786 701 
Q 3034 994 3034 1497 
Q 3034 2003 2786 2293 
Q 2538 2584 2113 2584 
z
M 3366 4563 
L 3366 3988 
Q 3128 4100 2886 4159 
Q 2644 4219 2406 4219 
Q 1781 4219 1451 3797 
Q 1122 3375 1075 2522 
Q 1259 2794 1537 2939 
Q 1816 3084 2150 3084 
Q 2853 3084 3261 2657 
Q 3669 2231 3669 1497 
Q 3669 778 3244 343 
Q 2819 -91 2113 -91 
Q 1303 -91 875 529 
Q 447 1150 447 2328 
Q 447 3434 972 4092 
Q 1497 4750 2381 4750 
Q 2619 4750 2861 4703 
Q 3103 4656 3366 4563 
z
" transform="scale(0.015625)"/>
       </defs>
       <use xlink:href="#DejaVuSans-31"/>
       <use xlink:href="#DejaVuSans-33" x="63.623047"/>
       <use xlink:href="#DejaVuSans-2c" x="127.246094"/>
       <use xlink:href="#DejaVuSans-20" x="159.033203"/>
       <use xlink:href="#DejaVuSans-34" x="190.820312"/>
       <use xlink:href="#DejaVuSans-31" x="254.443359"/>
       <use xlink:href="#DejaVuSans-36" x="318.066406"/>
      </g>
     </g>
    </g>
    <g id="xtick_4">
     <g id="line2d_4">
      <g>
       <use xlink:href="#m04297de753" x="524.683636" y="563.904" style="stroke: #000000; stroke-width: 1.6"/>
      </g>
     </g>
     <g id="text_4">
      <!-- 19, 608 -->
      <g transform="translate(503.690824 586.962281)scale(0.11 -0.11)">
       <defs>
        <path id="DejaVuSans-39" d="M 703 97 
L 703 672 
Q 941 559 1184 500 
Q 1428 441 1663 441 
Q 2288 441 2617 861 
Q 2947 1281 2994 2138 
Q 2813 1869 2534 1725 
Q 2256 1581 1919 1581 
Q 1219 1581 811 2004 
Q 403 2428 403 3163 
Q 403 3881 828 4315 
Q 1253 4750 1959 4750 
Q 2769 4750 3195 4129 
Q 3622 3509 3622 2328 
Q 3622 1225 3098 567 
Q 2575 -91 1691 -91 
Q 1453 -91 1209 -44 
Q 966 3 703 97 
z
M 1959 2075 
Q 2384 2075 2632 2365 
Q 2881 2656 2881 3163 
Q 2881 3666 2632 3958 
Q 2384 4250 1959 4250 
Q 1534 4250 1286 3958 
Q 1038 3666 1038 3163 
Q 1038 2656 1286 2365 
Q 1534 2075 1959 2075 
z
" transform="scale(0.015625)"/>
        <path id="DejaVuSans-30" d="M 2034 4250 
Q 1547 4250 1301 3770 
Q 1056 3291 1056 2328 
Q 1056 1369 1301 889 
Q 1547 409 2034 409 
Q 2525 409 2770 889 
Q 3016 1369 3016 2328 
Q 3016 3291 2770 3770 
Q 2525 4250 2034 4250 
z
M 2034 4750 
Q 2819 4750 3233 4129 
Q 3647 3509 3647 2328 
Q 3647 1150 3233 529 
Q 2819 -91 2034 -91 
Q 1250 -91 836 529 
Q 422 1150 422 2328 
Q 422 3509 836 4129 
Q 1250 4750 2034 4750 
z
" transform="scale(0.015625)"/>
        <path id="DejaVuSans-38" d="M 2034 2216 
Q 1584 2216 1326 1975 
Q 1069 1734 1069 1313 
Q 1069 891 1326 650 
Q 1584 409 2034 409 
Q 2484 409 2743 651 
Q 3003 894 3003 1313 
Q 3003 1734 2745 1975 
Q 2488 2216 2034 2216 
z
M 1403 2484 
Q 997 2584 770 2862 
Q 544 3141 544 3541 
Q 544 4100 942 4425 
Q 1341 4750 2034 4750 
Q 2731 4750 3128 4425 
Q 3525 4100 3525 3541 
Q 3525 3141 3298 2862 
Q 3072 2584 2669 2484 
Q 3125 2378 3379 2068 
Q 3634 1759 3634 1313 
Q 3634 634 3220 271 
Q 2806 -91 2034 -91 
Q 1263 -91 848 271 
Q 434 634 434 1313 
Q 434 1759 690 2068 
Q 947 2378 1403 2484 
z
M 1172 3481 
Q 1172 3119 1398 2916 
Q 1625 2713 2034 2713 
Q 2441 2713 2670 2916 
Q 2900 3119 2900 3481 
Q 2900 3844 2670 4047 
Q 2441 4250 2034 4250 
Q 1625 4250 1398 4047 
Q 1172 3844 1172 3481 
z
" transform="scale(0.015625)"/>
       </defs>
       <use xlink:href="#DejaVuSans-31"/>
       <use xlink:href="#DejaVuSans-39" x="63.623047"/>
       <use xlink:href="#DejaVuSans-2c" x="127.246094"/>
       <use xlink:href="#DejaVuSans-20" x="159.033203"/>
       <use xlink:href="#DejaVuSans-36" x="190.820312"/>
       <use xlink:href="#DejaVuSans-30" x="254.443359"/>
       <use xlink:href="#DejaVuSans-38" x="318.066406"/>
      </g>
     </g>
    </g>
    <g id="xtick_5">
     <g id="line2d_5">
      <g>
       <use xlink:href="#m04297de753" x="650.356364" y="563.904" style="stroke: #000000; stroke-width: 1.6"/>
      </g>
     </g>
     <g id="text_5">
      <!-- 25, 800 -->
      <g transform="translate(629.363551 586.962281)scale(0.11 -0.11)">
       <defs>
        <path id="DejaVuSans-35" d="M 691 4666 
L 3169 4666 
L 3169 4134 
L 1269 4134 
L 1269 2991 
Q 1406 3038 1543 3061 
Q 1681 3084 1819 3084 
Q 2600 3084 3056 2656 
Q 3513 2228 3513 1497 
Q 3513 744 3044 326 
Q 2575 -91 1722 -91 
Q 1428 -91 1123 -41 
Q 819 9 494 109 
L 494 744 
Q 775 591 1075 516 
Q 1375 441 1709 441 
Q 2250 441 2565 725 
Q 2881 1009 2881 1497 
Q 2881 1984 2565 2268 
Q 2250 2553 1709 2553 
Q 1456 2553 1204 2497 
Q 953 2441 691 2322 
L 691 4666 
z
" transform="scale(0.015625)"/>
       </defs>
       <use xlink:href="#DejaVuSans-32"/>
       <use xlink:href="#DejaVuSans-35" x="63.623047"/>
       <use xlink:href="#DejaVuSans-2c" x="127.246094"/>
       <use xlink:href="#DejaVuSans-20" x="159.033203"/>
       <use xlink:href="#DejaVuSans-38" x="190.820312"/>
       <use xlink:href="#DejaVuSans-30" x="254.443359"/>
       <use xlink:href="#DejaVuSans-30" x="318.066406"/>
      </g>
     </g>
    </g>
    <g id="xtick_6">
     <g id="line2d_6">
      <g>
       <use xlink:href="#m04297de753" x="776.029091" y="563.904" style="stroke: #000000; stroke-width: 1.6"/>
      </g>
     </g>
     <g id="text_6">
      <!-- 31, 992 -->
      <g transform="translate(755.036278 586.962281)scale(0.11 -0.11)">
       <use xlink:href="#DejaVuSans-33"/>
       <use xlink:href="#DejaVuSans-31" x="63.623047"/>
       <use xlink:href="#DejaVuSans-2c" x="127.246094"/>
       <use xlink:href="#DejaVuSans-20" x="159.033203"/>
       <use xlink:href="#DejaVuSans-39" x="190.820312"/>
       <use xlink:href="#DejaVuSans-39" x="254.443359"/>
       <use xlink:href="#DejaVuSans-32" x="318.066406"/>
      </g>
     </g>
    </g>
    <g id="text_7">
     <!-- Bin number, maximum program size -->
     <g transform="translate(343.975 603.88775)scale(0.14 -0.14)">
      <defs>
       <path id="DejaVuSans-42" d="M 1259 2228 
L 1259 519 
L 2272 519 
Q 2781 519 3026 730 
Q 3272 941 3272 1375 
Q 3272 1813 3026 2020 
Q 2781 2228 2272 2228 
L 1259 2228 
z
M 1259 4147 
L 1259 2741 
L 2194 2741 
Q 2656 2741 2882 2914 
Q 3109 3088 3109 3444 
Q 3109 3797 2882 3972 
Q 2656 4147 2194 4147 
L 1259 4147 
z
M 628 4666 
L 2241 4666 
Q 2963 4666 3353 4366 
Q 3744 4066 3744 3513 
Q 3744 3084 3544 2831 
Q 3344 2578 2956 2516 
Q 3422 2416 3680 2098 
Q 3938 1781 3938 1306 
Q 3938 681 3513 340 
Q 3088 0 2303 0 
L 628 0 
L 628 4666 
z
" transform="scale(0.015625)"/>
       <path id="DejaVuSans-69" d="M 603 3500 
L 1178 3500 
L 1178 0 
L 603 0 
L 603 3500 
z
M 603 4863 
L 1178 4863 
L 1178 4134 
L 603 4134 
L 603 4863 
z
" transform="scale(0.015625)"/>
       <path id="DejaVuSans-6e" d="M 3513 2113 
L 3513 0 
L 2938 0 
L 2938 2094 
Q 2938 2591 2744 2837 
Q 2550 3084 2163 3084 
Q 1697 3084 1428 2787 
Q 1159 2491 1159 1978 
L 1159 0 
L 581 0 
L 581 3500 
L 1159 3500 
L 1159 2956 
Q 1366 3272 1645 3428 
Q 1925 3584 2291 3584 
Q 2894 3584 3203 3211 
Q 3513 2838 3513 2113 
z
" transform="scale(0.015625)"/>
       <path id="DejaVuSans-75" d="M 544 1381 
L 544 3500 
L 1119 3500 
L 1119 1403 
Q 1119 906 1312 657 
Q 1506 409 1894 409 
Q 2359 409 2629 706 
Q 2900 1003 2900 1516 
L 2900 3500 
L 3475 3500 
L 3475 0 
L 2900 0 
L 2900 538 
Q 2691 219 2414 64 
Q 2138 -91 1772 -91 
Q 1169 -91 856 284 
Q 544 659 544 1381 
z
M 1991 3584 
L 1991 3584 
z
" transform="scale(0.015625)"/>
       <path id="DejaVuSans-6d" d="M 3328 2828 
Q 3544 3216 3844 3400 
Q 4144 3584 4550 3584 
Q 5097 3584 5394 3201 
Q 5691 2819 5691 2113 
L 5691 0 
L 5113 0 
L 5113 2094 
Q 5113 2597 4934 2840 
Q 4756 3084 4391 3084 
Q 3944 3084 3684 2787 
Q 3425 2491 3425 1978 
L 3425 0 
L 2847 0 
L 2847 2094 
Q 2847 2600 2669 2842 
Q 2491 3084 2119 3084 
Q 1678 3084 1418 2786 
Q 1159 2488 1159 1978 
L 1159 0 
L 581 0 
L 581 3500 
L 1159 3500 
L 1159 2956 
Q 1356 3278 1631 3431 
Q 1906 3584 2284 3584 
Q 2666 3584 2933 3390 
Q 3200 3197 3328 2828 
z
" transform="scale(0.015625)"/>
       <path id="DejaVuSans-62" d="M 3116 1747 
Q 3116 2381 2855 2742 
Q 2594 3103 2138 3103 
Q 1681 3103 1420 2742 
Q 1159 2381 1159 1747 
Q 1159 1113 1420 752 
Q 1681 391 2138 391 
Q 2594 391 2855 752 
Q 3116 1113 3116 1747 
z
M 1159 2969 
Q 1341 3281 1617 3432 
Q 1894 3584 2278 3584 
Q 2916 3584 3314 3078 
Q 3713 2572 3713 1747 
Q 3713 922 3314 415 
Q 2916 -91 2278 -91 
Q 1894 -91 1617 61 
Q 1341 213 1159 525 
L 1159 0 
L 581 0 
L 581 4863 
L 1159 4863 
L 1159 2969 
z
" transform="scale(0.015625)"/>
       <path id="DejaVuSans-65" d="M 3597 1894 
L 3597 1613 
L 953 1613 
Q 991 1019 1311 708 
Q 1631 397 2203 397 
Q 2534 397 2845 478 
Q 3156 559 3463 722 
L 3463 178 
Q 3153 47 2828 -22 
Q 2503 -91 2169 -91 
Q 1331 -91 842 396 
Q 353 884 353 1716 
Q 353 2575 817 3079 
Q 1281 3584 2069 3584 
Q 2775 3584 3186 3129 
Q 3597 2675 3597 1894 
z
M 3022 2063 
Q 3016 2534 2758 2815 
Q 2500 3097 2075 3097 
Q 1594 3097 1305 2825 
Q 1016 2553 972 2059 
L 3022 2063 
z
" transform="scale(0.015625)"/>
       <path id="DejaVuSans-72" d="M 2631 2963 
Q 2534 3019 2420 3045 
Q 2306 3072 2169 3072 
Q 1681 3072 1420 2755 
Q 1159 2438 1159 1844 
L 1159 0 
L 581 0 
L 581 3500 
L 1159 3500 
L 1159 2956 
Q 1341 3275 1631 3429 
Q 1922 3584 2338 3584 
Q 2397 3584 2469 3576 
Q 2541 3569 2628 3553 
L 2631 2963 
z
" transform="scale(0.015625)"/>
       <path id="DejaVuSans-61" d="M 2194 1759 
Q 1497 1759 1228 1600 
Q 959 1441 959 1056 
Q 959 750 1161 570 
Q 1363 391 1709 391 
Q 2188 391 2477 730 
Q 2766 1069 2766 1631 
L 2766 1759 
L 2194 1759 
z
M 3341 1997 
L 3341 0 
L 2766 0 
L 2766 531 
Q 2569 213 2275 61 
Q 1981 -91 1556 -91 
Q 1019 -91 701 211 
Q 384 513 384 1019 
Q 384 1609 779 1909 
Q 1175 2209 1959 2209 
L 2766 2209 
L 2766 2266 
Q 2766 2663 2505 2880 
Q 2244 3097 1772 3097 
Q 1472 3097 1187 3025 
Q 903 2953 641 2809 
L 641 3341 
Q 956 3463 1253 3523 
Q 1550 3584 1831 3584 
Q 2591 3584 2966 3190 
Q 3341 2797 3341 1997 
z
" transform="scale(0.015625)"/>
       <path id="DejaVuSans-78" d="M 3513 3500 
L 2247 1797 
L 3578 0 
L 2900 0 
L 1881 1375 
L 863 0 
L 184 0 
L 1544 1831 
L 300 3500 
L 978 3500 
L 1906 2253 
L 2834 3500 
L 3513 3500 
z
" transform="scale(0.015625)"/>
       <path id="DejaVuSans-70" d="M 1159 525 
L 1159 -1331 
L 581 -1331 
L 581 3500 
L 1159 3500 
L 1159 2969 
Q 1341 3281 1617 3432 
Q 1894 3584 2278 3584 
Q 2916 3584 3314 3078 
Q 3713 2572 3713 1747 
Q 3713 922 3314 415 
Q 2916 -91 2278 -91 
Q 1894 -91 1617 61 
Q 1341 213 1159 525 
z
M 3116 1747 
Q 3116 2381 2855 2742 
Q 2594 3103 2138 3103 
Q 1681 3103 1420 2742 
Q 1159 2381 1159 1747 
Q 1159 1113 1420 752 
Q 1681 391 2138 391 
Q 2594 391 2855 752 
Q 3116 1113 3116 1747 
z
" transform="scale(0.015625)"/>
       <path id="DejaVuSans-6f" d="M 1959 3097 
Q 1497 3097 1228 2736 
Q 959 2375 959 1747 
Q 959 1119 1226 758 
Q 1494 397 1959 397 
Q 2419 397 2687 759 
Q 2956 1122 2956 1747 
Q 2956 2369 2687 2733 
Q 2419 3097 1959 3097 
z
M 1959 3584 
Q 2709 3584 3137 3096 
Q 3566 2609 3566 1747 
Q 3566 888 3137 398 
Q 2709 -91 1959 -91 
Q 1206 -91 779 398 
Q 353 888 353 1747 
Q 353 2609 779 3096 
Q 1206 3584 1959 3584 
z
" transform="scale(0.015625)"/>
       <path id="DejaVuSans-67" d="M 2906 1791 
Q 2906 2416 2648 2759 
Q 2391 3103 1925 3103 
Q 1463 3103 1205 2759 
Q 947 2416 947 1791 
Q 947 1169 1205 825 
Q 1463 481 1925 481 
Q 2391 481 2648 825 
Q 2906 1169 2906 1791 
z
M 3481 434 
Q 3481 -459 3084 -895 
Q 2688 -1331 1869 -1331 
Q 1566 -1331 1297 -1286 
Q 1028 -1241 775 -1147 
L 775 -588 
Q 1028 -725 1275 -790 
Q 1522 -856 1778 -856 
Q 2344 -856 2625 -561 
Q 2906 -266 2906 331 
L 2906 616 
Q 2728 306 2450 153 
Q 2172 0 1784 0 
Q 1141 0 747 490 
Q 353 981 353 1791 
Q 353 2603 747 3093 
Q 1141 3584 1784 3584 
Q 2172 3584 2450 3431 
Q 2728 3278 2906 2969 
L 2906 3500 
L 3481 3500 
L 3481 434 
z
" transform="scale(0.015625)"/>
       <path id="DejaVuSans-73" d="M 2834 3397 
L 2834 2853 
Q 2591 2978 2328 3040 
Q 2066 3103 1784 3103 
Q 1356 3103 1142 2972 
Q 928 2841 928 2578 
Q 928 2378 1081 2264 
Q 1234 2150 1697 2047 
L 1894 2003 
Q 2506 1872 2764 1633 
Q 3022 1394 3022 966 
Q 3022 478 2636 193 
Q 2250 -91 1575 -91 
Q 1294 -91 989 -36 
Q 684 19 347 128 
L 347 722 
Q 666 556 975 473 
Q 1284 391 1588 391 
Q 1994 391 2212 530 
Q 2431 669 2431 922 
Q 2431 1156 2273 1281 
Q 2116 1406 1581 1522 
L 1381 1569 
Q 847 1681 609 1914 
Q 372 2147 372 2553 
Q 372 3047 722 3315 
Q 1072 3584 1716 3584 
Q 2034 3584 2315 3537 
Q 2597 3491 2834 3397 
z
" transform="scale(0.015625)"/>
       <path id="DejaVuSans-7a" d="M 353 3500 
L 3084 3500 
L 3084 2975 
L 922 459 
L 3084 459 
L 3084 0 
L 275 0 
L 275 525 
L 2438 3041 
L 353 3041 
L 353 3500 
z
" transform="scale(0.015625)"/>
      </defs>
      <use xlink:href="#DejaVuSans-42"/>
      <use xlink:href="#DejaVuSans-69" x="68.603516"/>
      <use xlink:href="#DejaVuSans-6e" x="96.386719"/>
      <use xlink:href="#DejaVuSans-20" x="159.765625"/>
      <use xlink:href="#DejaVuSans-6e" x="191.552734"/>
      <use xlink:href="#DejaVuSans-75" x="254.931641"/>
      <use xlink:href="#DejaVuSans-6d" x="318.310547"/>
      <use xlink:href="#DejaVuSans-62" x="415.722656"/>
      <use xlink:href="#DejaVuSans-65" x="479.199219"/>
      <use xlink:href="#DejaVuSans-72" x="540.722656"/>
      <use xlink:href="#DejaVuSans-2c" x="581.835938"/>
      <use xlink:href="#DejaVuSans-20" x="613.623047"/>
      <use xlink:href="#DejaVuSans-6d" x="645.410156"/>
      <use xlink:href="#DejaVuSans-61" x="742.822266"/>
      <use xlink:href="#DejaVuSans-78" x="804.101562"/>
      <use xlink:href="#DejaVuSans-69" x="863.28125"/>
      <use xlink:href="#DejaVuSans-6d" x="891.064453"/>
      <use xlink:href="#DejaVuSans-75" x="988.476562"/>
      <use xlink:href="#DejaVuSans-6d" x="1051.855469"/>
      <use xlink:href="#DejaVuSans-20" x="1149.267578"/>
      <use xlink:href="#DejaVuSans-70" x="1181.054688"/>
      <use xlink:href="#DejaVuSans-72" x="1244.53125"/>
      <use xlink:href="#DejaVuSans-6f" x="1283.394531"/>
      <use xlink:href="#DejaVuSans-67" x="1344.576172"/>
      <use xlink:href="#DejaVuSans-72" x="1408.052734"/>
      <use xlink:href="#DejaVuSans-61" x="1449.166016"/>
      <use xlink:href="#DejaVuSans-6d" x="1510.445312"/>
      <use xlink:href="#DejaVuSans-20" x="1607.857422"/>
      <use xlink:href="#DejaVuSans-73" x="1639.644531"/>
      <use xlink:href="#DejaVuSans-69" x="1691.744141"/>
      <use xlink:href="#DejaVuSans-7a" x="1719.527344"/>
      <use xlink:href="#DejaVuSans-65" x="1772.017578"/>
     </g>
    </g>
   </g>
   <g id="matplotlib.axis_2">
    <g id="ytick_1">
     <g id="line2d_7">
      <defs>
       <path id="mbb0ee2641e" d="M 0 0 
L -3.5 0 
" style="stroke: #000000; stroke-width: 1.6"/>
      </defs>
      <g>
       <use xlink:href="#mbb0ee2641e" x="115.2" y="487.490602" style="stroke: #000000; stroke-width: 1.6"/>
      </g>
     </g>
     <g id="text_8">
      <!-- $\mathdefault{10^{8}}$ -->
      <g transform="translate(81.14 491.669742)scale(0.11 -0.11)">
       <use xlink:href="#DejaVuSans-31" transform="translate(0 0.765625)"/>
       <use xlink:href="#DejaVuSans-30" transform="translate(63.623047 0.765625)"/>
       <use xlink:href="#DejaVuSans-38" transform="translate(128.203125 39.046875)scale(0.7)"/>
      </g>
     </g>
    </g>
    <g id="ytick_2">
     <g id="line2d_8">
      <g>
       <use xlink:href="#mbb0ee2641e" x="115.2" y="390.604299" style="stroke: #000000; stroke-width: 1.6"/>
      </g>
     </g>
     <g id="text_9">
      <!-- $\mathdefault{10^{9}}$ -->
      <g transform="translate(81.14 394.783439)scale(0.11 -0.11)">
       <use xlink:href="#DejaVuSans-31" transform="translate(0 0.765625)"/>
       <use xlink:href="#DejaVuSans-30" transform="translate(63.623047 0.765625)"/>
       <use xlink:href="#DejaVuSans-39" transform="translate(128.203125 39.046875)scale(0.7)"/>
      </g>
     </g>
    </g>
    <g id="ytick_3">
     <g id="line2d_9">
      <g>
       <use xlink:href="#mbb0ee2641e" x="115.2" y="293.717995" style="stroke: #000000; stroke-width: 1.6"/>
      </g>
     </g>
     <g id="text_10">
      <!-- $\mathdefault{10^{10}}$ -->
      <g transform="translate(76.19 297.897136)scale(0.11 -0.11)">
       <use xlink:href="#DejaVuSans-31" transform="translate(0 0.765625)"/>
       <use xlink:href="#DejaVuSans-30" transform="translate(63.623047 0.765625)"/>
       <use xlink:href="#DejaVuSans-31" transform="translate(128.203125 39.046875)scale(0.7)"/>
       <use xlink:href="#DejaVuSans-30" transform="translate(172.739258 39.046875)scale(0.7)"/>
      </g>
     </g>
    </g>
    <g id="ytick_4">
     <g id="line2d_10">
      <g>
       <use xlink:href="#mbb0ee2641e" x="115.2" y="196.831692" style="stroke: #000000; stroke-width: 1.6"/>
      </g>
     </g>
     <g id="text_11">
      <!-- $\mathdefault{10^{11}}$ -->
      <g transform="translate(76.19 201.010833)scale(0.11 -0.11)">
       <use xlink:href="#DejaVuSans-31" transform="translate(0 0.684375)"/>
       <use xlink:href="#DejaVuSans-30" transform="translate(63.623047 0.684375)"/>
       <use xlink:href="#DejaVuSans-31" transform="translate(128.203125 38.965625)scale(0.7)"/>
       <use xlink:href="#DejaVuSans-31" transform="translate(172.739258 38.965625)scale(0.7)"/>
      </g>
     </g>
    </g>
    <g id="ytick_5">
     <g id="line2d_11">
      <g>
       <use xlink:href="#mbb0ee2641e" x="115.2" y="99.945389" style="stroke: #000000; stroke-width: 1.6"/>
      </g>
     </g>
     <g id="text_12">
      <!-- $\mathdefault{10^{12}}$ -->
      <g transform="translate(76.19 104.12453)scale(0.11 -0.11)">
       <use xlink:href="#DejaVuSans-31" transform="translate(0 0.765625)"/>
       <use xlink:href="#DejaVuSans-30" transform="translate(63.623047 0.765625)"/>
       <use xlink:href="#DejaVuSans-31" transform="translate(128.203125 39.046875)scale(0.7)"/>
       <use xlink:href="#DejaVuSans-32" transform="translate(172.739258 39.046875)scale(0.7)"/>
      </g>
     </g>
    </g>
    <g id="ytick_6">
     <g id="line2d_12">
      <defs>
       <path id="m62be997f61" d="M 0 0 
L -2 0 
" style="stroke: #000000; stroke-width: 0.8"/>
      </defs>
      <g>
       <use xlink:href="#m62be997f61" x="115.2" y="555.211221" style="stroke: #000000; stroke-width: 0.8"/>
      </g>
     </g>
    </g>
    <g id="ytick_7">
     <g id="line2d_13">
      <g>
       <use xlink:href="#m62be997f61" x="115.2" y="538.15039" style="stroke: #000000; stroke-width: 0.8"/>
      </g>
     </g>
    </g>
    <g id="ytick_8">
     <g id="line2d_14">
      <g>
       <use xlink:href="#m62be997f61" x="115.2" y="526.045538" style="stroke: #000000; stroke-width: 0.8"/>
      </g>
     </g>
    </g>
    <g id="ytick_9">
     <g id="line2d_15">
      <g>
       <use xlink:href="#m62be997f61" x="115.2" y="516.656285" style="stroke: #000000; stroke-width: 0.8"/>
      </g>
     </g>
    </g>
    <g id="ytick_10">
     <g id="line2d_16">
      <g>
       <use xlink:href="#m62be997f61" x="115.2" y="508.984707" style="stroke: #000000; stroke-width: 0.8"/>
      </g>
     </g>
    </g>
    <g id="ytick_11">
     <g id="line2d_17">
      <g>
       <use xlink:href="#m62be997f61" x="115.2" y="502.49848" style="stroke: #000000; stroke-width: 0.8"/>
      </g>
     </g>
    </g>
    <g id="ytick_12">
     <g id="line2d_18">
      <g>
       <use xlink:href="#m62be997f61" x="115.2" y="496.879855" style="stroke: #000000; stroke-width: 0.8"/>
      </g>
     </g>
    </g>
    <g id="ytick_13">
     <g id="line2d_19">
      <g>
       <use xlink:href="#m62be997f61" x="115.2" y="491.923876" style="stroke: #000000; stroke-width: 0.8"/>
      </g>
     </g>
    </g>
    <g id="ytick_14">
     <g id="line2d_20">
      <g>
       <use xlink:href="#m62be997f61" x="115.2" y="458.324918" style="stroke: #000000; stroke-width: 0.8"/>
      </g>
     </g>
    </g>
    <g id="ytick_15">
     <g id="line2d_21">
      <g>
       <use xlink:href="#m62be997f61" x="115.2" y="441.264087" style="stroke: #000000; stroke-width: 0.8"/>
      </g>
     </g>
    </g>
    <g id="ytick_16">
     <g id="line2d_22">
      <g>
       <use xlink:href="#m62be997f61" x="115.2" y="429.159235" style="stroke: #000000; stroke-width: 0.8"/>
      </g>
     </g>
    </g>
    <g id="ytick_17">
     <g id="line2d_23">
      <g>
       <use xlink:href="#m62be997f61" x="115.2" y="419.769982" style="stroke: #000000; stroke-width: 0.8"/>
      </g>
     </g>
    </g>
    <g id="ytick_18">
     <g id="line2d_24">
      <g>
       <use xlink:href="#m62be997f61" x="115.2" y="412.098404" style="stroke: #000000; stroke-width: 0.8"/>
      </g>
     </g>
    </g>
    <g id="ytick_19">
     <g id="line2d_25">
      <g>
       <use xlink:href="#m62be997f61" x="115.2" y="405.612177" style="stroke: #000000; stroke-width: 0.8"/>
      </g>
     </g>
    </g>
    <g id="ytick_20">
     <g id="line2d_26">
      <g>
       <use xlink:href="#m62be997f61" x="115.2" y="399.993551" style="stroke: #000000; stroke-width: 0.8"/>
      </g>
     </g>
    </g>
    <g id="ytick_21">
     <g id="line2d_27">
      <g>
       <use xlink:href="#m62be997f61" x="115.2" y="395.037573" style="stroke: #000000; stroke-width: 0.8"/>
      </g>
     </g>
    </g>
    <g id="ytick_22">
     <g id="line2d_28">
      <g>
       <use xlink:href="#m62be997f61" x="115.2" y="361.438615" style="stroke: #000000; stroke-width: 0.8"/>
      </g>
     </g>
    </g>
    <g id="ytick_23">
     <g id="line2d_29">
      <g>
       <use xlink:href="#m62be997f61" x="115.2" y="344.377784" style="stroke: #000000; stroke-width: 0.8"/>
      </g>
     </g>
    </g>
    <g id="ytick_24">
     <g id="line2d_30">
      <g>
       <use xlink:href="#m62be997f61" x="115.2" y="332.272932" style="stroke: #000000; stroke-width: 0.8"/>
      </g>
     </g>
    </g>
    <g id="ytick_25">
     <g id="line2d_31">
      <g>
       <use xlink:href="#m62be997f61" x="115.2" y="322.883679" style="stroke: #000000; stroke-width: 0.8"/>
      </g>
     </g>
    </g>
    <g id="ytick_26">
     <g id="line2d_32">
      <g>
       <use xlink:href="#m62be997f61" x="115.2" y="315.212101" style="stroke: #000000; stroke-width: 0.8"/>
      </g>
     </g>
    </g>
    <g id="ytick_27">
     <g id="line2d_33">
      <g>
       <use xlink:href="#m62be997f61" x="115.2" y="308.725874" style="stroke: #000000; stroke-width: 0.8"/>
      </g>
     </g>
    </g>
    <g id="ytick_28">
     <g id="line2d_34">
      <g>
       <use xlink:href="#m62be997f61" x="115.2" y="303.107248" style="stroke: #000000; stroke-width: 0.8"/>
      </g>
     </g>
    </g>
    <g id="ytick_29">
     <g id="line2d_35">
      <g>
       <use xlink:href="#m62be997f61" x="115.2" y="298.151269" style="stroke: #000000; stroke-width: 0.8"/>
      </g>
     </g>
    </g>
    <g id="ytick_30">
     <g id="line2d_36">
      <g>
       <use xlink:href="#m62be997f61" x="115.2" y="264.552312" style="stroke: #000000; stroke-width: 0.8"/>
      </g>
     </g>
    </g>
    <g id="ytick_31">
     <g id="line2d_37">
      <g>
       <use xlink:href="#m62be997f61" x="115.2" y="247.491481" style="stroke: #000000; stroke-width: 0.8"/>
      </g>
     </g>
    </g>
    <g id="ytick_32">
     <g id="line2d_38">
      <g>
       <use xlink:href="#m62be997f61" x="115.2" y="235.386629" style="stroke: #000000; stroke-width: 0.8"/>
      </g>
     </g>
    </g>
    <g id="ytick_33">
     <g id="line2d_39">
      <g>
       <use xlink:href="#m62be997f61" x="115.2" y="225.997376" style="stroke: #000000; stroke-width: 0.8"/>
      </g>
     </g>
    </g>
    <g id="ytick_34">
     <g id="line2d_40">
      <g>
       <use xlink:href="#m62be997f61" x="115.2" y="218.325797" style="stroke: #000000; stroke-width: 0.8"/>
      </g>
     </g>
    </g>
    <g id="ytick_35">
     <g id="line2d_41">
      <g>
       <use xlink:href="#m62be997f61" x="115.2" y="211.83957" style="stroke: #000000; stroke-width: 0.8"/>
      </g>
     </g>
    </g>
    <g id="ytick_36">
     <g id="line2d_42">
      <g>
       <use xlink:href="#m62be997f61" x="115.2" y="206.220945" style="stroke: #000000; stroke-width: 0.8"/>
      </g>
     </g>
    </g>
    <g id="ytick_37">
     <g id="line2d_43">
      <g>
       <use xlink:href="#m62be997f61" x="115.2" y="201.264966" style="stroke: #000000; stroke-width: 0.8"/>
      </g>
     </g>
    </g>
    <g id="ytick_38">
     <g id="line2d_44">
      <g>
       <use xlink:href="#m62be997f61" x="115.2" y="167.666009" style="stroke: #000000; stroke-width: 0.8"/>
      </g>
     </g>
    </g>
    <g id="ytick_39">
     <g id="line2d_45">
      <g>
       <use xlink:href="#m62be997f61" x="115.2" y="150.605178" style="stroke: #000000; stroke-width: 0.8"/>
      </g>
     </g>
    </g>
    <g id="ytick_40">
     <g id="line2d_46">
      <g>
       <use xlink:href="#m62be997f61" x="115.2" y="138.500325" style="stroke: #000000; stroke-width: 0.8"/>
      </g>
     </g>
    </g>
    <g id="ytick_41">
     <g id="line2d_47">
      <g>
       <use xlink:href="#m62be997f61" x="115.2" y="129.111072" style="stroke: #000000; stroke-width: 0.8"/>
      </g>
     </g>
    </g>
    <g id="ytick_42">
     <g id="line2d_48">
      <g>
       <use xlink:href="#m62be997f61" x="115.2" y="121.439494" style="stroke: #000000; stroke-width: 0.8"/>
      </g>
     </g>
    </g>
    <g id="ytick_43">
     <g id="line2d_49">
      <g>
       <use xlink:href="#m62be997f61" x="115.2" y="114.953267" style="stroke: #000000; stroke-width: 0.8"/>
      </g>
     </g>
    </g>
    <g id="ytick_44">
     <g id="line2d_50">
      <g>
       <use xlink:href="#m62be997f61" x="115.2" y="109.334642" style="stroke: #000000; stroke-width: 0.8"/>
      </g>
     </g>
    </g>
    <g id="ytick_45">
     <g id="line2d_51">
      <g>
       <use xlink:href="#m62be997f61" x="115.2" y="104.378663" style="stroke: #000000; stroke-width: 0.8"/>
      </g>
     </g>
    </g>
    <g id="text_13">
     <!-- Node evaluations per second (NEPS) -->
     <g transform="translate(69.278437 447.984875)rotate(-90)scale(0.14 -0.14)">
      <defs>
       <path id="DejaVuSans-4e" d="M 628 4666 
L 1478 4666 
L 3547 763 
L 3547 4666 
L 4159 4666 
L 4159 0 
L 3309 0 
L 1241 3903 
L 1241 0 
L 628 0 
L 628 4666 
z
" transform="scale(0.015625)"/>
       <path id="DejaVuSans-64" d="M 2906 2969 
L 2906 4863 
L 3481 4863 
L 3481 0 
L 2906 0 
L 2906 525 
Q 2725 213 2448 61 
Q 2172 -91 1784 -91 
Q 1150 -91 751 415 
Q 353 922 353 1747 
Q 353 2572 751 3078 
Q 1150 3584 1784 3584 
Q 2172 3584 2448 3432 
Q 2725 3281 2906 2969 
z
M 947 1747 
Q 947 1113 1208 752 
Q 1469 391 1925 391 
Q 2381 391 2643 752 
Q 2906 1113 2906 1747 
Q 2906 2381 2643 2742 
Q 2381 3103 1925 3103 
Q 1469 3103 1208 2742 
Q 947 2381 947 1747 
z
" transform="scale(0.015625)"/>
       <path id="DejaVuSans-76" d="M 191 3500 
L 800 3500 
L 1894 563 
L 2988 3500 
L 3597 3500 
L 2284 0 
L 1503 0 
L 191 3500 
z
" transform="scale(0.015625)"/>
       <path id="DejaVuSans-6c" d="M 603 4863 
L 1178 4863 
L 1178 0 
L 603 0 
L 603 4863 
z
" transform="scale(0.015625)"/>
       <path id="DejaVuSans-74" d="M 1172 4494 
L 1172 3500 
L 2356 3500 
L 2356 3053 
L 1172 3053 
L 1172 1153 
Q 1172 725 1289 603 
Q 1406 481 1766 481 
L 2356 481 
L 2356 0 
L 1766 0 
Q 1100 0 847 248 
Q 594 497 594 1153 
L 594 3053 
L 172 3053 
L 172 3500 
L 594 3500 
L 594 4494 
L 1172 4494 
z
" transform="scale(0.015625)"/>
       <path id="DejaVuSans-63" d="M 3122 3366 
L 3122 2828 
Q 2878 2963 2633 3030 
Q 2388 3097 2138 3097 
Q 1578 3097 1268 2742 
Q 959 2388 959 1747 
Q 959 1106 1268 751 
Q 1578 397 2138 397 
Q 2388 397 2633 464 
Q 2878 531 3122 666 
L 3122 134 
Q 2881 22 2623 -34 
Q 2366 -91 2075 -91 
Q 1284 -91 818 406 
Q 353 903 353 1747 
Q 353 2603 823 3093 
Q 1294 3584 2113 3584 
Q 2378 3584 2631 3529 
Q 2884 3475 3122 3366 
z
" transform="scale(0.015625)"/>
       <path id="DejaVuSans-28" d="M 1984 4856 
Q 1566 4138 1362 3434 
Q 1159 2731 1159 2009 
Q 1159 1288 1364 580 
Q 1569 -128 1984 -844 
L 1484 -844 
Q 1016 -109 783 600 
Q 550 1309 550 2009 
Q 550 2706 781 3412 
Q 1013 4119 1484 4856 
L 1984 4856 
z
" transform="scale(0.015625)"/>
       <path id="DejaVuSans-45" d="M 628 4666 
L 3578 4666 
L 3578 4134 
L 1259 4134 
L 1259 2753 
L 3481 2753 
L 3481 2222 
L 1259 2222 
L 1259 531 
L 3634 531 
L 3634 0 
L 628 0 
L 628 4666 
z
" transform="scale(0.015625)"/>
       <path id="DejaVuSans-50" d="M 1259 4147 
L 1259 2394 
L 2053 2394 
Q 2494 2394 2734 2622 
Q 2975 2850 2975 3272 
Q 2975 3691 2734 3919 
Q 2494 4147 2053 4147 
L 1259 4147 
z
M 628 4666 
L 2053 4666 
Q 2838 4666 3239 4311 
Q 3641 3956 3641 3272 
Q 3641 2581 3239 2228 
Q 2838 1875 2053 1875 
L 1259 1875 
L 1259 0 
L 628 0 
L 628 4666 
z
" transform="scale(0.015625)"/>
       <path id="DejaVuSans-53" d="M 3425 4513 
L 3425 3897 
Q 3066 4069 2747 4153 
Q 2428 4238 2131 4238 
Q 1616 4238 1336 4038 
Q 1056 3838 1056 3469 
Q 1056 3159 1242 3001 
Q 1428 2844 1947 2747 
L 2328 2669 
Q 3034 2534 3370 2195 
Q 3706 1856 3706 1288 
Q 3706 609 3251 259 
Q 2797 -91 1919 -91 
Q 1588 -91 1214 -16 
Q 841 59 441 206 
L 441 856 
Q 825 641 1194 531 
Q 1563 422 1919 422 
Q 2459 422 2753 634 
Q 3047 847 3047 1241 
Q 3047 1584 2836 1778 
Q 2625 1972 2144 2069 
L 1759 2144 
Q 1053 2284 737 2584 
Q 422 2884 422 3419 
Q 422 4038 858 4394 
Q 1294 4750 2059 4750 
Q 2388 4750 2728 4690 
Q 3069 4631 3425 4513 
z
" transform="scale(0.015625)"/>
       <path id="DejaVuSans-29" d="M 513 4856 
L 1013 4856 
Q 1481 4119 1714 3412 
Q 1947 2706 1947 2009 
Q 1947 1309 1714 600 
Q 1481 -109 1013 -844 
L 513 -844 
Q 928 -128 1133 580 
Q 1338 1288 1338 2009 
Q 1338 2731 1133 3434 
Q 928 4138 513 4856 
z
" transform="scale(0.015625)"/>
      </defs>
      <use xlink:href="#DejaVuSans-4e"/>
      <use xlink:href="#DejaVuSans-6f" x="74.804688"/>
      <use xlink:href="#DejaVuSans-64" x="135.986328"/>
      <use xlink:href="#DejaVuSans-65" x="199.462891"/>
      <use xlink:href="#DejaVuSans-20" x="260.986328"/>
      <use xlink:href="#DejaVuSans-65" x="292.773438"/>
      <use xlink:href="#DejaVuSans-76" x="354.296875"/>
      <use xlink:href="#DejaVuSans-61" x="413.476562"/>
      <use xlink:href="#DejaVuSans-6c" x="474.755859"/>
      <use xlink:href="#DejaVuSans-75" x="502.539062"/>
      <use xlink:href="#DejaVuSans-61" x="565.917969"/>
      <use xlink:href="#DejaVuSans-74" x="627.197266"/>
      <use xlink:href="#DejaVuSans-69" x="666.40625"/>
      <use xlink:href="#DejaVuSans-6f" x="694.189453"/>
      <use xlink:href="#DejaVuSans-6e" x="755.371094"/>
      <use xlink:href="#DejaVuSans-73" x="818.75"/>
      <use xlink:href="#DejaVuSans-20" x="870.849609"/>
      <use xlink:href="#DejaVuSans-70" x="902.636719"/>
      <use xlink:href="#DejaVuSans-65" x="966.113281"/>
      <use xlink:href="#DejaVuSans-72" x="1027.636719"/>
      <use xlink:href="#DejaVuSans-20" x="1068.75"/>
      <use xlink:href="#DejaVuSans-73" x="1100.537109"/>
      <use xlink:href="#DejaVuSans-65" x="1152.636719"/>
      <use xlink:href="#DejaVuSans-63" x="1214.160156"/>
      <use xlink:href="#DejaVuSans-6f" x="1269.140625"/>
      <use xlink:href="#DejaVuSans-6e" x="1330.322266"/>
      <use xlink:href="#DejaVuSans-64" x="1393.701172"/>
      <use xlink:href="#DejaVuSans-20" x="1457.177734"/>
      <use xlink:href="#DejaVuSans-28" x="1488.964844"/>
      <use xlink:href="#DejaVuSans-4e" x="1527.978516"/>
      <use xlink:href="#DejaVuSans-45" x="1602.783203"/>
      <use xlink:href="#DejaVuSans-50" x="1665.966797"/>
      <use xlink:href="#DejaVuSans-53" x="1726.269531"/>
      <use xlink:href="#DejaVuSans-29" x="1789.746094"/>
     </g>
    </g>
   </g>
   <g id="line2d_52">
    <path d="M 147.665455 541.728 
L 168.610909 513.362783 
L 189.556364 503.545354 
L 210.501818 498.754435 
L 231.447273 495.919254 
L 252.392727 493.607755 
L 273.338182 491.844222 
L 294.283636 490.105978 
L 315.229091 489.228971 
L 336.174545 488.776154 
L 357.12 488.036911 
L 378.065455 487.41052 
L 399.010909 487.579672 
L 419.956364 486.698235 
L 440.901818 486.099531 
L 461.847273 486.054869 
L 482.792727 485.513062 
L 503.738182 485.69777 
L 524.683636 485.353701 
L 545.629091 486.094218 
L 566.574545 485.257246 
L 587.52 484.688964 
L 608.465455 484.652581 
L 629.410909 484.578325 
L 650.356364 484.621609 
L 671.301818 484.109314 
L 692.247273 484.347244 
L 713.192727 484.087538 
L 734.138182 483.999807 
L 755.083636 483.862073 
L 776.029091 484.301171 
L 796.974545 483.95696 
" clip-path="url(#pe343535c12)" style="fill: none; stroke: #000000; stroke-width: 0.1; stroke-linecap: square"/>
    <defs>
     <path id="mfc63a282f3" d="M -3 6 
L 0 3 
L 3 6 
L 6 3 
L 3 0 
L 6 -3 
L 3 -6 
L 0 -3 
L -3 -6 
L -6 -3 
L -3 0 
L -6 3 
z
"/>
    </defs>
    <g clip-path="url(#pe343535c12)">
     <use xlink:href="#mfc63a282f3" x="147.665455" y="541.728" style="fill: #17becf"/>
     <use xlink:href="#mfc63a282f3" x="168.610909" y="513.362783" style="fill: #17becf"/>
     <use xlink:href="#mfc63a282f3" x="189.556364" y="503.545354" style="fill: #17becf"/>
     <use xlink:href="#mfc63a282f3" x="210.501818" y="498.754435" style="fill: #17becf"/>
     <use xlink:href="#mfc63a282f3" x="231.447273" y="495.919254" style="fill: #17becf"/>
     <use xlink:href="#mfc63a282f3" x="252.392727" y="493.607755" style="fill: #17becf"/>
     <use xlink:href="#mfc63a282f3" x="273.338182" y="491.844222" style="fill: #17becf"/>
     <use xlink:href="#mfc63a282f3" x="294.283636" y="490.105978" style="fill: #17becf"/>
     <use xlink:href="#mfc63a282f3" x="315.229091" y="489.228971" style="fill: #17becf"/>
     <use xlink:href="#mfc63a282f3" x="336.174545" y="488.776154" style="fill: #17becf"/>
     <use xlink:href="#mfc63a282f3" x="357.12" y="488.036911" style="fill: #17becf"/>
     <use xlink:href="#mfc63a282f3" x="378.065455" y="487.41052" style="fill: #17becf"/>
     <use xlink:href="#mfc63a282f3" x="399.010909" y="487.579672" style="fill: #17becf"/>
     <use xlink:href="#mfc63a282f3" x="419.956364" y="486.698235" style="fill: #17becf"/>
     <use xlink:href="#mfc63a282f3" x="440.901818" y="486.099531" style="fill: #17becf"/>
     <use xlink:href="#mfc63a282f3" x="461.847273" y="486.054869" style="fill: #17becf"/>
     <use xlink:href="#mfc63a282f3" x="482.792727" y="485.513062" style="fill: #17becf"/>
     <use xlink:href="#mfc63a282f3" x="503.738182" y="485.69777" style="fill: #17becf"/>
     <use xlink:href="#mfc63a282f3" x="524.683636" y="485.353701" style="fill: #17becf"/>
     <use xlink:href="#mfc63a282f3" x="545.629091" y="486.094218" style="fill: #17becf"/>
     <use xlink:href="#mfc63a282f3" x="566.574545" y="485.257246" style="fill: #17becf"/>
     <use xlink:href="#mfc63a282f3" x="587.52" y="484.688964" style="fill: #17becf"/>
     <use xlink:href="#mfc63a282f3" x="608.465455" y="484.652581" style="fill: #17becf"/>
     <use xlink:href="#mfc63a282f3" x="629.410909" y="484.578325" style="fill: #17becf"/>
     <use xlink:href="#mfc63a282f3" x="650.356364" y="484.621609" style="fill: #17becf"/>
     <use xlink:href="#mfc63a282f3" x="671.301818" y="484.109314" style="fill: #17becf"/>
     <use xlink:href="#mfc63a282f3" x="692.247273" y="484.347244" style="fill: #17becf"/>
     <use xlink:href="#mfc63a282f3" x="713.192727" y="484.087538" style="fill: #17becf"/>
     <use xlink:href="#mfc63a282f3" x="734.138182" y="483.999807" style="fill: #17becf"/>
     <use xlink:href="#mfc63a282f3" x="755.083636" y="483.862073" style="fill: #17becf"/>
     <use xlink:href="#mfc63a282f3" x="776.029091" y="484.301171" style="fill: #17becf"/>
     <use xlink:href="#mfc63a282f3" x="796.974545" y="483.95696" style="fill: #17becf"/>
    </g>
   </g>
   <g id="line2d_53">
    <path d="M 115.2 390.604299 
L 829.44 390.604299 
" clip-path="url(#pe343535c12)" style="fill: none; stroke-dasharray: 10.36,4.48; stroke-dashoffset: 0; stroke: #808080; stroke-width: 2.8"/>
   </g>
   <g id="line2d_54">
    <path d="M 147.665455 486.14228 
L 168.610909 466.077346 
L 189.556364 459.247122 
L 210.501818 457.19798 
L 231.447273 455.634065 
L 252.392727 454.607374 
L 273.338182 454.04312 
L 294.283636 453.338694 
L 315.229091 453.597829 
L 336.174545 452.571669 
L 357.12 452.668901 
L 378.065455 451.961012 
L 399.010909 452.138665 
L 419.956364 452.166861 
L 440.901818 451.291363 
L 461.847273 451.361019 
L 482.792727 451.631138 
L 503.738182 451.461039 
L 524.683636 451.245203 
L 545.629091 451.496863 
L 566.574545 450.842491 
L 587.52 451.130977 
L 608.465455 451.493046 
L 629.410909 451.445155 
L 650.356364 451.052994 
L 671.301818 451.234932 
L 692.247273 451.305171 
L 713.192727 451.322412 
L 734.138182 451.42618 
L 755.083636 451.072248 
L 776.029091 450.876859 
L 796.974545 450.764784 
" clip-path="url(#pe343535c12)" style="fill: none; stroke: #000000; stroke-width: 0.1; stroke-linecap: square"/>
    <defs>
     <path id="m8141ad4298" d="M 0 -6 
L -6 6 
L 6 6 
z
"/>
    </defs>
    <g clip-path="url(#pe343535c12)">
     <use xlink:href="#m8141ad4298" x="147.665455" y="486.14228" style="fill: #9467bd"/>
     <use xlink:href="#m8141ad4298" x="168.610909" y="466.077346" style="fill: #9467bd"/>
     <use xlink:href="#m8141ad4298" x="189.556364" y="459.247122" style="fill: #9467bd"/>
     <use xlink:href="#m8141ad4298" x="210.501818" y="457.19798" style="fill: #9467bd"/>
     <use xlink:href="#m8141ad4298" x="231.447273" y="455.634065" style="fill: #9467bd"/>
     <use xlink:href="#m8141ad4298" x="252.392727" y="454.607374" style="fill: #9467bd"/>
     <use xlink:href="#m8141ad4298" x="273.338182" y="454.04312" style="fill: #9467bd"/>
     <use xlink:href="#m8141ad4298" x="294.283636" y="453.338694" style="fill: #9467bd"/>
     <use xlink:href="#m8141ad4298" x="315.229091" y="453.597829" style="fill: #9467bd"/>
     <use xlink:href="#m8141ad4298" x="336.174545" y="452.571669" style="fill: #9467bd"/>
     <use xlink:href="#m8141ad4298" x="357.12" y="452.668901" style="fill: #9467bd"/>
     <use xlink:href="#m8141ad4298" x="378.065455" y="451.961012" style="fill: #9467bd"/>
     <use xlink:href="#m8141ad4298" x="399.010909" y="452.138665" style="fill: #9467bd"/>
     <use xlink:href="#m8141ad4298" x="419.956364" y="452.166861" style="fill: #9467bd"/>
     <use xlink:href="#m8141ad4298" x="440.901818" y="451.291363" style="fill: #9467bd"/>
     <use xlink:href="#m8141ad4298" x="461.847273" y="451.361019" style="fill: #9467bd"/>
     <use xlink:href="#m8141ad4298" x="482.792727" y="451.631138" style="fill: #9467bd"/>
     <use xlink:href="#m8141ad4298" x="503.738182" y="451.461039" style="fill: #9467bd"/>
     <use xlink:href="#m8141ad4298" x="524.683636" y="451.245203" style="fill: #9467bd"/>
     <use xlink:href="#m8141ad4298" x="545.629091" y="451.496863" style="fill: #9467bd"/>
     <use xlink:href="#m8141ad4298" x="566.574545" y="450.842491" style="fill: #9467bd"/>
     <use xlink:href="#m8141ad4298" x="587.52" y="451.130977" style="fill: #9467bd"/>
     <use xlink:href="#m8141ad4298" x="608.465455" y="451.493046" style="fill: #9467bd"/>
     <use xlink:href="#m8141ad4298" x="629.410909" y="451.445155" style="fill: #9467bd"/>
     <use xlink:href="#m8141ad4298" x="650.356364" y="451.052994" style="fill: #9467bd"/>
     <use xlink:href="#m8141ad4298" x="671.301818" y="451.234932" style="fill: #9467bd"/>
     <use xlink:href="#m8141ad4298" x="692.247273" y="451.305171" style="fill: #9467bd"/>
     <use xlink:href="#m8141ad4298" x="713.192727" y="451.322412" style="fill: #9467bd"/>
     <use xlink:href="#m8141ad4298" x="734.138182" y="451.42618" style="fill: #9467bd"/>
     <use xlink:href="#m8141ad4298" x="755.083636" y="451.072248" style="fill: #9467bd"/>
     <use xlink:href="#m8141ad4298" x="776.029091" y="450.876859" style="fill: #9467bd"/>
     <use xlink:href="#m8141ad4298" x="796.974545" y="450.764784" style="fill: #9467bd"/>
    </g>
   </g>
   <g id="line2d_55">
    <path d="M 115.2 390.604299 
L 829.44 390.604299 
" clip-path="url(#pe343535c12)" style="fill: none; stroke-dasharray: 10.36,4.48; stroke-dashoffset: 0; stroke: #808080; stroke-width: 2.8"/>
   </g>
   <g id="line2d_56">
    <path d="M 147.665455 497.182637 
L 168.610909 484.125462 
L 189.556364 481.597811 
L 210.501818 474.338949 
L 231.447273 472.945495 
L 252.392727 471.994287 
L 273.338182 471.084491 
L 294.283636 470.754056 
L 315.229091 471.239126 
L 336.174545 470.114913 
L 357.12 470.077166 
L 378.065455 469.407267 
L 399.010909 469.24659 
L 419.956364 469.424246 
L 440.901818 468.665212 
L 461.847273 469.034308 
L 482.792727 469.261318 
L 503.738182 468.700027 
L 524.683636 468.622581 
L 545.629091 468.815535 
L 566.574545 468.185052 
L 587.52 468.450818 
L 608.465455 468.363981 
L 629.410909 468.072851 
L 650.356364 468.431839 
L 671.301818 468.43264 
L 692.247273 468.718676 
L 713.192727 468.995099 
L 734.138182 468.831185 
L 755.083636 468.44394 
L 776.029091 468.104503 
L 796.974545 468.176373 
" clip-path="url(#pe343535c12)" style="fill: none; stroke: #000000; stroke-width: 0.1; stroke-linecap: square"/>
    <defs>
     <path id="m226324d350" d="M 0 3 
C 0.795609 3 1.55874 2.683901 2.12132 2.12132 
C 2.683901 1.55874 3 0.795609 3 0 
C 3 -0.795609 2.683901 -1.55874 2.12132 -2.12132 
C 1.55874 -2.683901 0.795609 -3 0 -3 
C -0.795609 -3 -1.55874 -2.683901 -2.12132 -2.12132 
C -2.683901 -1.55874 -3 -0.795609 -3 0 
C -3 0.795609 -2.683901 1.55874 -2.12132 2.12132 
C -1.55874 2.683901 -0.795609 3 0 3 
z
"/>
    </defs>
    <g clip-path="url(#pe343535c12)">
     <use xlink:href="#m226324d350" x="147.665455" y="497.182637" style="fill: #1f77b4"/>
     <use xlink:href="#m226324d350" x="168.610909" y="484.125462" style="fill: #1f77b4"/>
     <use xlink:href="#m226324d350" x="189.556364" y="481.597811" style="fill: #1f77b4"/>
     <use xlink:href="#m226324d350" x="210.501818" y="474.338949" style="fill: #1f77b4"/>
     <use xlink:href="#m226324d350" x="231.447273" y="472.945495" style="fill: #1f77b4"/>
     <use xlink:href="#m226324d350" x="252.392727" y="471.994287" style="fill: #1f77b4"/>
     <use xlink:href="#m226324d350" x="273.338182" y="471.084491" style="fill: #1f77b4"/>
     <use xlink:href="#m226324d350" x="294.283636" y="470.754056" style="fill: #1f77b4"/>
     <use xlink:href="#m226324d350" x="315.229091" y="471.239126" style="fill: #1f77b4"/>
     <use xlink:href="#m226324d350" x="336.174545" y="470.114913" style="fill: #1f77b4"/>
     <use xlink:href="#m226324d350" x="357.12" y="470.077166" style="fill: #1f77b4"/>
     <use xlink:href="#m226324d350" x="378.065455" y="469.407267" style="fill: #1f77b4"/>
     <use xlink:href="#m226324d350" x="399.010909" y="469.24659" style="fill: #1f77b4"/>
     <use xlink:href="#m226324d350" x="419.956364" y="469.424246" style="fill: #1f77b4"/>
     <use xlink:href="#m226324d350" x="440.901818" y="468.665212" style="fill: #1f77b4"/>
     <use xlink:href="#m226324d350" x="461.847273" y="469.034308" style="fill: #1f77b4"/>
     <use xlink:href="#m226324d350" x="482.792727" y="469.261318" style="fill: #1f77b4"/>
     <use xlink:href="#m226324d350" x="503.738182" y="468.700027" style="fill: #1f77b4"/>
     <use xlink:href="#m226324d350" x="524.683636" y="468.622581" style="fill: #1f77b4"/>
     <use xlink:href="#m226324d350" x="545.629091" y="468.815535" style="fill: #1f77b4"/>
     <use xlink:href="#m226324d350" x="566.574545" y="468.185052" style="fill: #1f77b4"/>
     <use xlink:href="#m226324d350" x="587.52" y="468.450818" style="fill: #1f77b4"/>
     <use xlink:href="#m226324d350" x="608.465455" y="468.363981" style="fill: #1f77b4"/>
     <use xlink:href="#m226324d350" x="629.410909" y="468.072851" style="fill: #1f77b4"/>
     <use xlink:href="#m226324d350" x="650.356364" y="468.431839" style="fill: #1f77b4"/>
     <use xlink:href="#m226324d350" x="671.301818" y="468.43264" style="fill: #1f77b4"/>
     <use xlink:href="#m226324d350" x="692.247273" y="468.718676" style="fill: #1f77b4"/>
     <use xlink:href="#m226324d350" x="713.192727" y="468.995099" style="fill: #1f77b4"/>
     <use xlink:href="#m226324d350" x="734.138182" y="468.831185" style="fill: #1f77b4"/>
     <use xlink:href="#m226324d350" x="755.083636" y="468.44394" style="fill: #1f77b4"/>
     <use xlink:href="#m226324d350" x="776.029091" y="468.104503" style="fill: #1f77b4"/>
     <use xlink:href="#m226324d350" x="796.974545" y="468.176373" style="fill: #1f77b4"/>
    </g>
   </g>
   <g id="line2d_57">
    <path d="M 115.2 390.604299 
L 829.44 390.604299 
" clip-path="url(#pe343535c12)" style="fill: none; stroke-dasharray: 10.36,4.48; stroke-dashoffset: 0; stroke: #808080; stroke-width: 2.8"/>
   </g>
   <g id="line2d_58">
    <path d="M 147.665455 231.042984 
L 168.610909 201.026429 
L 189.556364 186.578599 
L 210.501818 176.141341 
L 231.447273 167.783729 
L 252.392727 165.075488 
L 273.338182 160.032051 
L 294.283636 161.103534 
L 315.229091 153.916724 
L 336.174545 158.685044 
L 357.12 157.769645 
L 378.065455 154.322654 
L 399.010909 158.714568 
L 419.956364 150.378558 
L 440.901818 155.555453 
L 461.847273 145.003272 
L 482.792727 157.543543 
L 503.738182 145.941806 
L 524.683636 158.962558 
L 545.629091 155.145568 
L 566.574545 146.83659 
L 587.52 140.875281 
L 608.465455 149.523605 
L 629.410909 148.37996 
L 650.356364 142.35228 
L 671.301818 150.778714 
L 692.247273 155.704545 
L 713.192727 141.404624 
L 734.138182 143.411005 
L 755.083636 160.97475 
L 776.029091 150.960965 
L 796.974545 172.205761 
" clip-path="url(#pe343535c12)" style="fill: none; stroke: #000000; stroke-width: 0.1; stroke-linecap: square"/>
    <defs>
     <path id="mb50102cd46" d="M -0 8.485281 
L 5.091169 0 
L 0 -8.485281 
L -5.091169 -0 
z
"/>
    </defs>
    <g clip-path="url(#pe343535c12)">
     <use xlink:href="#mb50102cd46" x="147.665455" y="231.042984" style="fill: #2ca02c"/>
     <use xlink:href="#mb50102cd46" x="168.610909" y="201.026429" style="fill: #2ca02c"/>
     <use xlink:href="#mb50102cd46" x="189.556364" y="186.578599" style="fill: #2ca02c"/>
     <use xlink:href="#mb50102cd46" x="210.501818" y="176.141341" style="fill: #2ca02c"/>
     <use xlink:href="#mb50102cd46" x="231.447273" y="167.783729" style="fill: #2ca02c"/>
     <use xlink:href="#mb50102cd46" x="252.392727" y="165.075488" style="fill: #2ca02c"/>
     <use xlink:href="#mb50102cd46" x="273.338182" y="160.032051" style="fill: #2ca02c"/>
     <use xlink:href="#mb50102cd46" x="294.283636" y="161.103534" style="fill: #2ca02c"/>
     <use xlink:href="#mb50102cd46" x="315.229091" y="153.916724" style="fill: #2ca02c"/>
     <use xlink:href="#mb50102cd46" x="336.174545" y="158.685044" style="fill: #2ca02c"/>
     <use xlink:href="#mb50102cd46" x="357.12" y="157.769645" style="fill: #2ca02c"/>
     <use xlink:href="#mb50102cd46" x="378.065455" y="154.322654" style="fill: #2ca02c"/>
     <use xlink:href="#mb50102cd46" x="399.010909" y="158.714568" style="fill: #2ca02c"/>
     <use xlink:href="#mb50102cd46" x="419.956364" y="150.378558" style="fill: #2ca02c"/>
     <use xlink:href="#mb50102cd46" x="440.901818" y="155.555453" style="fill: #2ca02c"/>
     <use xlink:href="#mb50102cd46" x="461.847273" y="145.003272" style="fill: #2ca02c"/>
     <use xlink:href="#mb50102cd46" x="482.792727" y="157.543543" style="fill: #2ca02c"/>
     <use xlink:href="#mb50102cd46" x="503.738182" y="145.941806" style="fill: #2ca02c"/>
     <use xlink:href="#mb50102cd46" x="524.683636" y="158.962558" style="fill: #2ca02c"/>
     <use xlink:href="#mb50102cd46" x="545.629091" y="155.145568" style="fill: #2ca02c"/>
     <use xlink:href="#mb50102cd46" x="566.574545" y="146.83659" style="fill: #2ca02c"/>
     <use xlink:href="#mb50102cd46" x="587.52" y="140.875281" style="fill: #2ca02c"/>
     <use xlink:href="#mb50102cd46" x="608.465455" y="149.523605" style="fill: #2ca02c"/>
     <use xlink:href="#mb50102cd46" x="629.410909" y="148.37996" style="fill: #2ca02c"/>
     <use xlink:href="#mb50102cd46" x="650.356364" y="142.35228" style="fill: #2ca02c"/>
     <use xlink:href="#mb50102cd46" x="671.301818" y="150.778714" style="fill: #2ca02c"/>
     <use xlink:href="#mb50102cd46" x="692.247273" y="155.704545" style="fill: #2ca02c"/>
     <use xlink:href="#mb50102cd46" x="713.192727" y="141.404624" style="fill: #2ca02c"/>
     <use xlink:href="#mb50102cd46" x="734.138182" y="143.411005" style="fill: #2ca02c"/>
     <use xlink:href="#mb50102cd46" x="755.083636" y="160.97475" style="fill: #2ca02c"/>
     <use xlink:href="#mb50102cd46" x="776.029091" y="150.960965" style="fill: #2ca02c"/>
     <use xlink:href="#mb50102cd46" x="796.974545" y="172.205761" style="fill: #2ca02c"/>
    </g>
   </g>
   <g id="line2d_59">
    <path d="M 115.2 390.604299 
L 829.44 390.604299 
" clip-path="url(#pe343535c12)" style="fill: none; stroke-dasharray: 10.36,4.48; stroke-dashoffset: 0; stroke: #808080; stroke-width: 2.8"/>
   </g>
   <g id="line2d_60">
    <path d="M 147.665455 248.458893 
L 168.610909 204.634475 
L 189.556364 183.125352 
L 210.501818 169.383957 
L 231.447273 158.886087 
L 252.392727 150.406731 
L 273.338182 143.503033 
L 294.283636 137.493104 
L 315.229091 132.352295 
L 336.174545 127.606153 
L 357.12 123.46582 
L 378.065455 119.581313 
L 399.010909 116.179317 
L 419.956364 112.921279 
L 440.901818 109.964233 
L 461.847273 107.180447 
L 482.792727 104.571039 
L 503.738182 102.132209 
L 524.683636 99.829083 
L 545.629091 98.95874 
L 566.574545 98.978598 
L 587.52 98.764419 
L 608.465455 98.679339 
L 629.410909 98.662753 
L 650.356364 98.563276 
L 671.301818 98.579421 
L 692.247273 98.482494 
L 713.192727 98.449401 
L 734.138182 98.376626 
L 755.083636 98.372386 
L 776.029091 98.298996 
L 796.974545 98.208 
" clip-path="url(#pe343535c12)" style="fill: none; stroke: #000000; stroke-width: 0.1; stroke-linecap: square"/>
    <defs>
     <path id="mbd26348ced" d="M 0 -6 
L -1.347084 -1.854102 
L -5.706339 -1.854102 
L -2.179628 0.708204 
L -3.526712 4.854102 
L -0 2.291796 
L 3.526712 4.854102 
L 2.179628 0.708204 
L 5.706339 -1.854102 
L 1.347084 -1.854102 
z
"/>
    </defs>
    <g clip-path="url(#pe343535c12)">
     <use xlink:href="#mbd26348ced" x="147.665455" y="248.458893" style="fill: #d62728"/>
     <use xlink:href="#mbd26348ced" x="168.610909" y="204.634475" style="fill: #d62728"/>
     <use xlink:href="#mbd26348ced" x="189.556364" y="183.125352" style="fill: #d62728"/>
     <use xlink:href="#mbd26348ced" x="210.501818" y="169.383957" style="fill: #d62728"/>
     <use xlink:href="#mbd26348ced" x="231.447273" y="158.886087" style="fill: #d62728"/>
     <use xlink:href="#mbd26348ced" x="252.392727" y="150.406731" style="fill: #d62728"/>
     <use xlink:href="#mbd26348ced" x="273.338182" y="143.503033" style="fill: #d62728"/>
     <use xlink:href="#mbd26348ced" x="294.283636" y="137.493104" style="fill: #d62728"/>
     <use xlink:href="#mbd26348ced" x="315.229091" y="132.352295" style="fill: #d62728"/>
     <use xlink:href="#mbd26348ced" x="336.174545" y="127.606153" style="fill: #d62728"/>
     <use xlink:href="#mbd26348ced" x="357.12" y="123.46582" style="fill: #d62728"/>
     <use xlink:href="#mbd26348ced" x="378.065455" y="119.581313" style="fill: #d62728"/>
     <use xlink:href="#mbd26348ced" x="399.010909" y="116.179317" style="fill: #d62728"/>
     <use xlink:href="#mbd26348ced" x="419.956364" y="112.921279" style="fill: #d62728"/>
     <use xlink:href="#mbd26348ced" x="440.901818" y="109.964233" style="fill: #d62728"/>
     <use xlink:href="#mbd26348ced" x="461.847273" y="107.180447" style="fill: #d62728"/>
     <use xlink:href="#mbd26348ced" x="482.792727" y="104.571039" style="fill: #d62728"/>
     <use xlink:href="#mbd26348ced" x="503.738182" y="102.132209" style="fill: #d62728"/>
     <use xlink:href="#mbd26348ced" x="524.683636" y="99.829083" style="fill: #d62728"/>
     <use xlink:href="#mbd26348ced" x="545.629091" y="98.95874" style="fill: #d62728"/>
     <use xlink:href="#mbd26348ced" x="566.574545" y="98.978598" style="fill: #d62728"/>
     <use xlink:href="#mbd26348ced" x="587.52" y="98.764419" style="fill: #d62728"/>
     <use xlink:href="#mbd26348ced" x="608.465455" y="98.679339" style="fill: #d62728"/>
     <use xlink:href="#mbd26348ced" x="629.410909" y="98.662753" style="fill: #d62728"/>
     <use xlink:href="#mbd26348ced" x="650.356364" y="98.563276" style="fill: #d62728"/>
     <use xlink:href="#mbd26348ced" x="671.301818" y="98.579421" style="fill: #d62728"/>
     <use xlink:href="#mbd26348ced" x="692.247273" y="98.482494" style="fill: #d62728"/>
     <use xlink:href="#mbd26348ced" x="713.192727" y="98.449401" style="fill: #d62728"/>
     <use xlink:href="#mbd26348ced" x="734.138182" y="98.376626" style="fill: #d62728"/>
     <use xlink:href="#mbd26348ced" x="755.083636" y="98.372386" style="fill: #d62728"/>
     <use xlink:href="#mbd26348ced" x="776.029091" y="98.298996" style="fill: #d62728"/>
     <use xlink:href="#mbd26348ced" x="796.974545" y="98.208" style="fill: #d62728"/>
    </g>
   </g>
   <g id="line2d_61">
    <path d="M 115.2 390.604299 
L 829.44 390.604299 
" clip-path="url(#pe343535c12)" style="fill: none; stroke-dasharray: 10.36,4.48; stroke-dashoffset: 0; stroke: #808080; stroke-width: 2.8"/>
   </g>
   <g id="patch_3">
    <path d="M 115.2 563.904 
L 115.2 76.032 
" style="fill: none; stroke: #000000; stroke-width: 0.8; stroke-linejoin: miter; stroke-linecap: square"/>
   </g>
   <g id="patch_4">
    <path d="M 829.44 563.904 
L 829.44 76.032 
" style="fill: none; stroke: #000000; stroke-width: 0.8; stroke-linejoin: miter; stroke-linecap: square"/>
   </g>
   <g id="patch_5">
    <path d="M 115.2 563.904 
L 829.44 563.904 
" style="fill: none; stroke: #000000; stroke-width: 0.8; stroke-linejoin: miter; stroke-linecap: square"/>
   </g>
   <g id="patch_6">
    <path d="M 115.2 76.032 
L 829.44 76.032 
" style="fill: none; stroke: #000000; stroke-width: 0.8; stroke-linejoin: miter; stroke-linecap: square"/>
   </g>
   <g id="text_14">
    <!-- $10^9$ for scale -->
    <g transform="translate(260.901818 419.769982)scale(0.11 -0.11)">
     <defs>
      <path id="DejaVuSans-66" d="M 2375 4863 
L 2375 4384 
L 1825 4384 
Q 1516 4384 1395 4259 
Q 1275 4134 1275 3809 
L 1275 3500 
L 2222 3500 
L 2222 3053 
L 1275 3053 
L 1275 0 
L 697 0 
L 697 3053 
L 147 3053 
L 147 3500 
L 697 3500 
L 697 3744 
Q 697 4328 969 4595 
Q 1241 4863 1831 4863 
L 2375 4863 
z
" transform="scale(0.015625)"/>
     </defs>
     <use xlink:href="#DejaVuSans-31" transform="translate(0 0.765625)"/>
     <use xlink:href="#DejaVuSans-30" transform="translate(63.623047 0.765625)"/>
     <use xlink:href="#DejaVuSans-39" transform="translate(128.203125 39.046875)scale(0.7)"/>
     <use xlink:href="#DejaVuSans-20" transform="translate(175.473633 0.765625)"/>
     <use xlink:href="#DejaVuSans-66" transform="translate(207.260742 0.765625)"/>
     <use xlink:href="#DejaVuSans-6f" transform="translate(242.46582 0.765625)"/>
     <use xlink:href="#DejaVuSans-72" transform="translate(303.647461 0.765625)"/>
     <use xlink:href="#DejaVuSans-20" transform="translate(344.760742 0.765625)"/>
     <use xlink:href="#DejaVuSans-73" transform="translate(376.547852 0.765625)"/>
     <use xlink:href="#DejaVuSans-63" transform="translate(428.647461 0.765625)"/>
     <use xlink:href="#DejaVuSans-61" transform="translate(483.62793 0.765625)"/>
     <use xlink:href="#DejaVuSans-6c" transform="translate(544.907227 0.765625)"/>
     <use xlink:href="#DejaVuSans-65" transform="translate(572.69043 0.765625)"/>
    </g>
   </g>
  </g>
 </g>
 <defs>
  <clipPath id="pe343535c12">
   <rect x="115.2" y="76.032" width="714.24" height="487.872"/>
  </clipPath>
 </defs>
</svg>
