<?xml version="1.0" encoding="utf-8" standalone="no"?>
<!DOCTYPE svg PUBLIC "-//W3C//DTD SVG 1.1//EN"
  "http://www.w3.org/Graphics/SVG/1.1/DTD/svg11.dtd">
<svg xmlns:xlink="http://www.w3.org/1999/xlink" width="460.8pt" height="345.6pt" viewBox="0 0 460.8 345.6" xmlns="http://www.w3.org/2000/svg" version="1.1">
 <metadata>
  <rdf:RDF xmlns:dc="http://purl.org/dc/elements/1.1/" xmlns:cc="http://creativecommons.org/ns#" xmlns:rdf="http://www.w3.org/1999/02/22-rdf-syntax-ns#">
   <cc:Work>
    <dc:type rdf:resource="http://purl.org/dc/dcmitype/StillImage"/>
    <dc:date>2023-01-31T00:25:48.670647</dc:date>
    <dc:format>image/svg+xml</dc:format>
    <dc:creator>
     <cc:Agent>
      <dc:title>Matplotlib v3.5.3, https://matplotlib.org/</dc:title>
     </cc:Agent>
    </dc:creator>
   </cc:Work>
  </rdf:RDF>
 </metadata>
 <defs>
  <style type="text/css">*{stroke-linejoin: round; stroke-linecap: butt}</style>
 </defs>
 <g id="figure_1">
  <g id="patch_1">
   <path d="M 0 345.6 
L 460.8 345.6 
L 460.8 0 
L 0 0 
z
" style="fill: #ffffff"/>
  </g>
  <g id="axes_1">
   <g id="patch_2">
    <path d="M 57.6 293.76 
L 414.72 293.76 
L 414.72 41.472 
L 57.6 41.472 
z
" style="fill: #ffffff"/>
   </g>
   <g id="PolyCollection_1">
    <defs>
     <path id="m31355a6b4f" d="M 73.832727 -129.526661 
L 73.832727 -129.526661 
L 84.316022 -138.942313 
L 94.799317 -141.556001 
L 105.282613 -142.917699 
L 115.765908 -143.702771 
L 126.249203 -144.145069 
L 136.732498 -144.583421 
L 147.215793 -144.697875 
L 157.699088 -145.019363 
L 168.182383 -145.220471 
L 178.665678 -145.660698 
L 189.148973 -145.835506 
L 199.632269 -151.824857 
L 210.115564 -152.061737 
L 220.598859 -152.303825 
L 231.082154 -152.350975 
L 241.565449 -151.817085 
L 252.048744 -152.409622 
L 262.532039 -152.053681 
L 273.015334 -152.2302 
L 283.498629 -152.089734 
L 293.981925 -152.158436 
L 304.46522 -152.343458 
L 314.948515 -152.590837 
L 325.43181 -153.017459 
L 335.915105 -152.71552 
L 346.3984 -153.245503 
L 356.881695 -153.191748 
L 367.36499 -153.272033 
L 377.848285 -153.03087 
L 388.331581 -153.297835 
L 398.487273 -153.488212 
L 398.487273 -153.488212 
L 398.487273 -153.649871 
L 388.331581 -153.555082 
L 377.848285 -153.334673 
L 367.36499 -153.352633 
L 356.881695 -153.322806 
L 346.3984 -153.402409 
L 335.915105 -153.240086 
L 325.43181 -153.159137 
L 314.948515 -152.899969 
L 304.46522 -152.89514 
L 293.981925 -152.518313 
L 283.498629 -152.483713 
L 273.015334 -152.759531 
L 262.532039 -152.337551 
L 252.048744 -152.83299 
L 241.565449 -152.133222 
L 231.082154 -152.676401 
L 220.598859 -152.587902 
L 210.115564 -152.478636 
L 199.632269 -152.124719 
L 189.148973 -151.631735 
L 178.665678 -145.939794 
L 168.182383 -145.616594 
L 157.699088 -145.06983 
L 147.215793 -144.818125 
L 136.732498 -144.944426 
L 126.249203 -144.241352 
L 115.765908 -143.767878 
L 105.282613 -143.0514 
L 94.799317 -141.673442 
L 84.316022 -139.063566 
L 73.832727 -129.74335 
z
" style="stroke: #ffdead"/>
    </defs>
    <g clip-path="url(#pa77ae51df4)">
     <use xlink:href="#m31355a6b4f" x="0" y="345.6" style="fill: #ffdead; stroke: #ffdead"/>
    </g>
   </g>
   <g id="PolyCollection_2">
    <defs>
     <path id="me879a22a55" d="M 73.832727 -135.514204 
L 73.832727 -135.514204 
L 84.316022 -144.562554 
L 94.799317 -148.066531 
L 105.282613 -149.743729 
L 115.765908 -150.001792 
L 126.249203 -150.270093 
L 136.732498 -150.070427 
L 147.215793 -151.841484 
L 157.699088 -150.103043 
L 168.182383 -150.130133 
L 178.665678 -150.399387 
L 189.148973 -150.470276 
L 199.632269 -154.317305 
L 210.115564 -154.464987 
L 220.598859 -154.053892 
L 231.082154 -155.589871 
L 241.565449 -154.110649 
L 252.048744 -155.110809 
L 262.532039 -156.161615 
L 273.015334 -156.332793 
L 283.498629 -156.24458 
L 293.981925 -155.318094 
L 304.46522 -153.412825 
L 314.948515 -153.32799 
L 325.43181 -153.406872 
L 335.915105 -153.634636 
L 346.3984 -156.102376 
L 356.881695 -155.658114 
L 367.36499 -154.984499 
L 377.848285 -156.337298 
L 388.331581 -156.132899 
L 398.487273 -156.475243 
L 398.487273 -156.475243 
L 398.487273 -156.541194 
L 388.331581 -156.5243 
L 377.848285 -156.463976 
L 367.36499 -156.027401 
L 356.881695 -156.275408 
L 346.3984 -156.328525 
L 335.915105 -155.448587 
L 325.43181 -153.527368 
L 314.948515 -153.424006 
L 304.46522 -154.679316 
L 293.981925 -156.313477 
L 283.498629 -156.446666 
L 273.015334 -156.415735 
L 262.532039 -156.29926 
L 252.048744 -155.923666 
L 241.565449 -154.95877 
L 231.082154 -155.825536 
L 220.598859 -155.577671 
L 210.115564 -155.56865 
L 199.632269 -154.788818 
L 189.148973 -153.031555 
L 178.665678 -150.539104 
L 168.182383 -150.320847 
L 157.699088 -150.142368 
L 147.215793 -151.936483 
L 136.732498 -151.431156 
L 126.249203 -151.023676 
L 115.765908 -150.805006 
L 105.282613 -149.89507 
L 94.799317 -148.164987 
L 84.316022 -144.653078 
L 73.832727 -135.600909 
z
" style="stroke: #ffdead"/>
    </defs>
    <g clip-path="url(#pa77ae51df4)">
     <use xlink:href="#me879a22a55" x="0" y="345.6" style="fill: #ffdead; stroke: #ffdead"/>
    </g>
   </g>
   <g id="PolyCollection_3">
    <defs>
     <path id="m2f614b1734" d="M 73.832727 -265.495744 
L 73.832727 -265.495744 
L 84.316022 -273.051248 
L 94.799317 -280.561354 
L 105.282613 -288.865022 
L 115.765908 -289.103006 
L 126.249203 -288.860204 
L 136.732498 -290.038896 
L 147.215793 -290.082792 
L 157.699088 -290.439296 
L 168.182383 -289.891061 
L 178.665678 -290.504891 
L 189.148973 -289.928103 
L 199.632269 -289.97432 
L 210.115564 -290.5335 
L 220.598859 -287.286 
L 231.082154 -288.588003 
L 241.565449 -289.994364 
L 252.048744 -290.343512 
L 262.532039 -290.080736 
L 273.015334 -290.270206 
L 283.498629 -290.029344 
L 293.981925 -289.199762 
L 304.46522 -287.683532 
L 314.948515 -288.079051 
L 325.43181 -287.837758 
L 335.915105 -287.296919 
L 346.3984 -286.681489 
L 356.881695 -285.433913 
L 367.36499 -284.140192 
L 377.848285 -282.843651 
L 388.331581 -282.121691 
L 398.487273 -280.357749 
L 398.487273 -280.357749 
L 398.487273 -281.429034 
L 388.331581 -282.820741 
L 377.848285 -284.073771 
L 367.36499 -285.010509 
L 356.881695 -285.868955 
L 346.3984 -287.079227 
L 335.915105 -287.53656 
L 325.43181 -288.036191 
L 314.948515 -288.491226 
L 304.46522 -288.583643 
L 293.981925 -289.413595 
L 283.498629 -290.355509 
L 273.015334 -290.617655 
L 262.532039 -290.564086 
L 252.048744 -290.84056 
L 241.565449 -290.678274 
L 231.082154 -290.666664 
L 220.598859 -288.641251 
L 210.115564 -290.966389 
L 199.632269 -290.855405 
L 189.148973 -290.989544 
L 178.665678 -291.365675 
L 168.182383 -290.36005 
L 157.699088 -291.012713 
L 147.215793 -290.897204 
L 136.732498 -291.014516 
L 126.249203 -290.477558 
L 115.765908 -289.988201 
L 105.282613 -289.891135 
L 94.799317 -287.711466 
L 84.316022 -281.203896 
L 73.832727 -277.731054 
z
" style="stroke: #ffdead"/>
    </defs>
    <g clip-path="url(#pa77ae51df4)">
     <use xlink:href="#m2f614b1734" x="0" y="345.6" style="fill: #ffdead; stroke: #ffdead"/>
    </g>
   </g>
   <g id="matplotlib.axis_1">
    <g id="xtick_1">
     <g id="line2d_1">
      <defs>
       <path id="m98c711f2c0" d="M 0 0 
L 0 3.5 
" style="stroke: #000000; stroke-width: 0.8"/>
      </defs>
      <g>
       <use xlink:href="#m98c711f2c0" x="73.832727" y="293.76" style="stroke: #000000; stroke-width: 0.8"/>
      </g>
     </g>
     <g id="text_1">
      <!-- 1, 32 -->
      <g transform="translate(59.838665 309.118281)scale(0.11 -0.11)">
       <defs>
        <path id="DejaVuSans-31" d="M 794 531 
L 1825 531 
L 1825 4091 
L 703 3866 
L 703 4441 
L 1819 4666 
L 2450 4666 
L 2450 531 
L 3481 531 
L 3481 0 
L 794 0 
L 794 531 
z
" transform="scale(0.015625)"/>
        <path id="DejaVuSans-2c" d="M 750 794 
L 1409 794 
L 1409 256 
L 897 -744 
L 494 -744 
L 750 256 
L 750 794 
z
" transform="scale(0.015625)"/>
        <path id="DejaVuSans-20" transform="scale(0.015625)"/>
        <path id="DejaVuSans-33" d="M 2597 2516 
Q 3050 2419 3304 2112 
Q 3559 1806 3559 1356 
Q 3559 666 3084 287 
Q 2609 -91 1734 -91 
Q 1441 -91 1130 -33 
Q 819 25 488 141 
L 488 750 
Q 750 597 1062 519 
Q 1375 441 1716 441 
Q 2309 441 2620 675 
Q 2931 909 2931 1356 
Q 2931 1769 2642 2001 
Q 2353 2234 1838 2234 
L 1294 2234 
L 1294 2753 
L 1863 2753 
Q 2328 2753 2575 2939 
Q 2822 3125 2822 3475 
Q 2822 3834 2567 4026 
Q 2313 4219 1838 4219 
Q 1578 4219 1281 4162 
Q 984 4106 628 3988 
L 628 4550 
Q 988 4650 1302 4700 
Q 1616 4750 1894 4750 
Q 2613 4750 3031 4423 
Q 3450 4097 3450 3541 
Q 3450 3153 3228 2886 
Q 3006 2619 2597 2516 
z
" transform="scale(0.015625)"/>
        <path id="DejaVuSans-32" d="M 1228 531 
L 3431 531 
L 3431 0 
L 469 0 
L 469 531 
Q 828 903 1448 1529 
Q 2069 2156 2228 2338 
Q 2531 2678 2651 2914 
Q 2772 3150 2772 3378 
Q 2772 3750 2511 3984 
Q 2250 4219 1831 4219 
Q 1534 4219 1204 4116 
Q 875 4013 500 3803 
L 500 4441 
Q 881 4594 1212 4672 
Q 1544 4750 1819 4750 
Q 2544 4750 2975 4387 
Q 3406 4025 3406 3419 
Q 3406 3131 3298 2873 
Q 3191 2616 2906 2266 
Q 2828 2175 2409 1742 
Q 1991 1309 1228 531 
z
" transform="scale(0.015625)"/>
       </defs>
       <use xlink:href="#DejaVuSans-31"/>
       <use xlink:href="#DejaVuSans-2c" x="63.623047"/>
       <use xlink:href="#DejaVuSans-20" x="95.410156"/>
       <use xlink:href="#DejaVuSans-33" x="127.197266"/>
       <use xlink:href="#DejaVuSans-32" x="190.820312"/>
      </g>
     </g>
    </g>
    <g id="xtick_2">
     <g id="line2d_2">
      <g>
       <use xlink:href="#m98c711f2c0" x="136.732498" y="293.76" style="stroke: #000000; stroke-width: 0.8"/>
      </g>
     </g>
     <g id="text_2">
      <!-- 7, 224 -->
      <g transform="translate(119.23906 309.118281)scale(0.11 -0.11)">
       <defs>
        <path id="DejaVuSans-37" d="M 525 4666 
L 3525 4666 
L 3525 4397 
L 1831 0 
L 1172 0 
L 2766 4134 
L 525 4134 
L 525 4666 
z
" transform="scale(0.015625)"/>
        <path id="DejaVuSans-34" d="M 2419 4116 
L 825 1625 
L 2419 1625 
L 2419 4116 
z
M 2253 4666 
L 3047 4666 
L 3047 1625 
L 3713 1625 
L 3713 1100 
L 3047 1100 
L 3047 0 
L 2419 0 
L 2419 1100 
L 313 1100 
L 313 1709 
L 2253 4666 
z
" transform="scale(0.015625)"/>
       </defs>
       <use xlink:href="#DejaVuSans-37"/>
       <use xlink:href="#DejaVuSans-2c" x="63.623047"/>
       <use xlink:href="#DejaVuSans-20" x="95.410156"/>
       <use xlink:href="#DejaVuSans-32" x="127.197266"/>
       <use xlink:href="#DejaVuSans-32" x="190.820312"/>
       <use xlink:href="#DejaVuSans-34" x="254.443359"/>
      </g>
     </g>
    </g>
    <g id="xtick_3">
     <g id="line2d_3">
      <g>
       <use xlink:href="#m98c711f2c0" x="199.632269" y="293.76" style="stroke: #000000; stroke-width: 0.8"/>
      </g>
     </g>
     <g id="text_3">
      <!-- 13, 416 -->
      <g transform="translate(178.639456 309.118281)scale(0.11 -0.11)">
       <defs>
        <path id="DejaVuSans-36" d="M 2113 2584 
Q 1688 2584 1439 2293 
Q 1191 2003 1191 1497 
Q 1191 994 1439 701 
Q 1688 409 2113 409 
Q 2538 409 2786 701 
Q 3034 994 3034 1497 
Q 3034 2003 2786 2293 
Q 2538 2584 2113 2584 
z
M 3366 4563 
L 3366 3988 
Q 3128 4100 2886 4159 
Q 2644 4219 2406 4219 
Q 1781 4219 1451 3797 
Q 1122 3375 1075 2522 
Q 1259 2794 1537 2939 
Q 1816 3084 2150 3084 
Q 2853 3084 3261 2657 
Q 3669 2231 3669 1497 
Q 3669 778 3244 343 
Q 2819 -91 2113 -91 
Q 1303 -91 875 529 
Q 447 1150 447 2328 
Q 447 3434 972 4092 
Q 1497 4750 2381 4750 
Q 2619 4750 2861 4703 
Q 3103 4656 3366 4563 
z
" transform="scale(0.015625)"/>
       </defs>
       <use xlink:href="#DejaVuSans-31"/>
       <use xlink:href="#DejaVuSans-33" x="63.623047"/>
       <use xlink:href="#DejaVuSans-2c" x="127.246094"/>
       <use xlink:href="#DejaVuSans-20" x="159.033203"/>
       <use xlink:href="#DejaVuSans-34" x="190.820312"/>
       <use xlink:href="#DejaVuSans-31" x="254.443359"/>
       <use xlink:href="#DejaVuSans-36" x="318.066406"/>
      </g>
     </g>
    </g>
    <g id="xtick_4">
     <g id="line2d_4">
      <g>
       <use xlink:href="#m98c711f2c0" x="262.532039" y="293.76" style="stroke: #000000; stroke-width: 0.8"/>
      </g>
     </g>
     <g id="text_4">
      <!-- 19, 608 -->
      <g transform="translate(241.539227 309.118281)scale(0.11 -0.11)">
       <defs>
        <path id="DejaVuSans-39" d="M 703 97 
L 703 672 
Q 941 559 1184 500 
Q 1428 441 1663 441 
Q 2288 441 2617 861 
Q 2947 1281 2994 2138 
Q 2813 1869 2534 1725 
Q 2256 1581 1919 1581 
Q 1219 1581 811 2004 
Q 403 2428 403 3163 
Q 403 3881 828 4315 
Q 1253 4750 1959 4750 
Q 2769 4750 3195 4129 
Q 3622 3509 3622 2328 
Q 3622 1225 3098 567 
Q 2575 -91 1691 -91 
Q 1453 -91 1209 -44 
Q 966 3 703 97 
z
M 1959 2075 
Q 2384 2075 2632 2365 
Q 2881 2656 2881 3163 
Q 2881 3666 2632 3958 
Q 2384 4250 1959 4250 
Q 1534 4250 1286 3958 
Q 1038 3666 1038 3163 
Q 1038 2656 1286 2365 
Q 1534 2075 1959 2075 
z
" transform="scale(0.015625)"/>
        <path id="DejaVuSans-30" d="M 2034 4250 
Q 1547 4250 1301 3770 
Q 1056 3291 1056 2328 
Q 1056 1369 1301 889 
Q 1547 409 2034 409 
Q 2525 409 2770 889 
Q 3016 1369 3016 2328 
Q 3016 3291 2770 3770 
Q 2525 4250 2034 4250 
z
M 2034 4750 
Q 2819 4750 3233 4129 
Q 3647 3509 3647 2328 
Q 3647 1150 3233 529 
Q 2819 -91 2034 -91 
Q 1250 -91 836 529 
Q 422 1150 422 2328 
Q 422 3509 836 4129 
Q 1250 4750 2034 4750 
z
" transform="scale(0.015625)"/>
        <path id="DejaVuSans-38" d="M 2034 2216 
Q 1584 2216 1326 1975 
Q 1069 1734 1069 1313 
Q 1069 891 1326 650 
Q 1584 409 2034 409 
Q 2484 409 2743 651 
Q 3003 894 3003 1313 
Q 3003 1734 2745 1975 
Q 2488 2216 2034 2216 
z
M 1403 2484 
Q 997 2584 770 2862 
Q 544 3141 544 3541 
Q 544 4100 942 4425 
Q 1341 4750 2034 4750 
Q 2731 4750 3128 4425 
Q 3525 4100 3525 3541 
Q 3525 3141 3298 2862 
Q 3072 2584 2669 2484 
Q 3125 2378 3379 2068 
Q 3634 1759 3634 1313 
Q 3634 634 3220 271 
Q 2806 -91 2034 -91 
Q 1263 -91 848 271 
Q 434 634 434 1313 
Q 434 1759 690 2068 
Q 947 2378 1403 2484 
z
M 1172 3481 
Q 1172 3119 1398 2916 
Q 1625 2713 2034 2713 
Q 2441 2713 2670 2916 
Q 2900 3119 2900 3481 
Q 2900 3844 2670 4047 
Q 2441 4250 2034 4250 
Q 1625 4250 1398 4047 
Q 1172 3844 1172 3481 
z
" transform="scale(0.015625)"/>
       </defs>
       <use xlink:href="#DejaVuSans-31"/>
       <use xlink:href="#DejaVuSans-39" x="63.623047"/>
       <use xlink:href="#DejaVuSans-2c" x="127.246094"/>
       <use xlink:href="#DejaVuSans-20" x="159.033203"/>
       <use xlink:href="#DejaVuSans-36" x="190.820312"/>
       <use xlink:href="#DejaVuSans-30" x="254.443359"/>
       <use xlink:href="#DejaVuSans-38" x="318.066406"/>
      </g>
     </g>
    </g>
    <g id="xtick_5">
     <g id="line2d_5">
      <g>
       <use xlink:href="#m98c711f2c0" x="325.43181" y="293.76" style="stroke: #000000; stroke-width: 0.8"/>
      </g>
     </g>
     <g id="text_5">
      <!-- 25, 800 -->
      <g transform="translate(304.438997 309.118281)scale(0.11 -0.11)">
       <defs>
        <path id="DejaVuSans-35" d="M 691 4666 
L 3169 4666 
L 3169 4134 
L 1269 4134 
L 1269 2991 
Q 1406 3038 1543 3061 
Q 1681 3084 1819 3084 
Q 2600 3084 3056 2656 
Q 3513 2228 3513 1497 
Q 3513 744 3044 326 
Q 2575 -91 1722 -91 
Q 1428 -91 1123 -41 
Q 819 9 494 109 
L 494 744 
Q 775 591 1075 516 
Q 1375 441 1709 441 
Q 2250 441 2565 725 
Q 2881 1009 2881 1497 
Q 2881 1984 2565 2268 
Q 2250 2553 1709 2553 
Q 1456 2553 1204 2497 
Q 953 2441 691 2322 
L 691 4666 
z
" transform="scale(0.015625)"/>
       </defs>
       <use xlink:href="#DejaVuSans-32"/>
       <use xlink:href="#DejaVuSans-35" x="63.623047"/>
       <use xlink:href="#DejaVuSans-2c" x="127.246094"/>
       <use xlink:href="#DejaVuSans-20" x="159.033203"/>
       <use xlink:href="#DejaVuSans-38" x="190.820312"/>
       <use xlink:href="#DejaVuSans-30" x="254.443359"/>
       <use xlink:href="#DejaVuSans-30" x="318.066406"/>
      </g>
     </g>
    </g>
    <g id="xtick_6">
     <g id="line2d_6">
      <g>
       <use xlink:href="#m98c711f2c0" x="388.331581" y="293.76" style="stroke: #000000; stroke-width: 0.8"/>
      </g>
     </g>
     <g id="text_6">
      <!-- 31, 992 -->
      <g transform="translate(367.338768 309.118281)scale(0.11 -0.11)">
       <use xlink:href="#DejaVuSans-33"/>
       <use xlink:href="#DejaVuSans-31" x="63.623047"/>
       <use xlink:href="#DejaVuSans-2c" x="127.246094"/>
       <use xlink:href="#DejaVuSans-20" x="159.033203"/>
       <use xlink:href="#DejaVuSans-39" x="190.820312"/>
       <use xlink:href="#DejaVuSans-39" x="254.443359"/>
       <use xlink:href="#DejaVuSans-32" x="318.066406"/>
      </g>
     </g>
    </g>
    <g id="text_7">
     <!-- Bin number, maximum program size -->
     <g transform="translate(107.815 326.04375)scale(0.14 -0.14)">
      <defs>
       <path id="DejaVuSans-42" d="M 1259 2228 
L 1259 519 
L 2272 519 
Q 2781 519 3026 730 
Q 3272 941 3272 1375 
Q 3272 1813 3026 2020 
Q 2781 2228 2272 2228 
L 1259 2228 
z
M 1259 4147 
L 1259 2741 
L 2194 2741 
Q 2656 2741 2882 2914 
Q 3109 3088 3109 3444 
Q 3109 3797 2882 3972 
Q 2656 4147 2194 4147 
L 1259 4147 
z
M 628 4666 
L 2241 4666 
Q 2963 4666 3353 4366 
Q 3744 4066 3744 3513 
Q 3744 3084 3544 2831 
Q 3344 2578 2956 2516 
Q 3422 2416 3680 2098 
Q 3938 1781 3938 1306 
Q 3938 681 3513 340 
Q 3088 0 2303 0 
L 628 0 
L 628 4666 
z
" transform="scale(0.015625)"/>
       <path id="DejaVuSans-69" d="M 603 3500 
L 1178 3500 
L 1178 0 
L 603 0 
L 603 3500 
z
M 603 4863 
L 1178 4863 
L 1178 4134 
L 603 4134 
L 603 4863 
z
" transform="scale(0.015625)"/>
       <path id="DejaVuSans-6e" d="M 3513 2113 
L 3513 0 
L 2938 0 
L 2938 2094 
Q 2938 2591 2744 2837 
Q 2550 3084 2163 3084 
Q 1697 3084 1428 2787 
Q 1159 2491 1159 1978 
L 1159 0 
L 581 0 
L 581 3500 
L 1159 3500 
L 1159 2956 
Q 1366 3272 1645 3428 
Q 1925 3584 2291 3584 
Q 2894 3584 3203 3211 
Q 3513 2838 3513 2113 
z
" transform="scale(0.015625)"/>
       <path id="DejaVuSans-75" d="M 544 1381 
L 544 3500 
L 1119 3500 
L 1119 1403 
Q 1119 906 1312 657 
Q 1506 409 1894 409 
Q 2359 409 2629 706 
Q 2900 1003 2900 1516 
L 2900 3500 
L 3475 3500 
L 3475 0 
L 2900 0 
L 2900 538 
Q 2691 219 2414 64 
Q 2138 -91 1772 -91 
Q 1169 -91 856 284 
Q 544 659 544 1381 
z
M 1991 3584 
L 1991 3584 
z
" transform="scale(0.015625)"/>
       <path id="DejaVuSans-6d" d="M 3328 2828 
Q 3544 3216 3844 3400 
Q 4144 3584 4550 3584 
Q 5097 3584 5394 3201 
Q 5691 2819 5691 2113 
L 5691 0 
L 5113 0 
L 5113 2094 
Q 5113 2597 4934 2840 
Q 4756 3084 4391 3084 
Q 3944 3084 3684 2787 
Q 3425 2491 3425 1978 
L 3425 0 
L 2847 0 
L 2847 2094 
Q 2847 2600 2669 2842 
Q 2491 3084 2119 3084 
Q 1678 3084 1418 2786 
Q 1159 2488 1159 1978 
L 1159 0 
L 581 0 
L 581 3500 
L 1159 3500 
L 1159 2956 
Q 1356 3278 1631 3431 
Q 1906 3584 2284 3584 
Q 2666 3584 2933 3390 
Q 3200 3197 3328 2828 
z
" transform="scale(0.015625)"/>
       <path id="DejaVuSans-62" d="M 3116 1747 
Q 3116 2381 2855 2742 
Q 2594 3103 2138 3103 
Q 1681 3103 1420 2742 
Q 1159 2381 1159 1747 
Q 1159 1113 1420 752 
Q 1681 391 2138 391 
Q 2594 391 2855 752 
Q 3116 1113 3116 1747 
z
M 1159 2969 
Q 1341 3281 1617 3432 
Q 1894 3584 2278 3584 
Q 2916 3584 3314 3078 
Q 3713 2572 3713 1747 
Q 3713 922 3314 415 
Q 2916 -91 2278 -91 
Q 1894 -91 1617 61 
Q 1341 213 1159 525 
L 1159 0 
L 581 0 
L 581 4863 
L 1159 4863 
L 1159 2969 
z
" transform="scale(0.015625)"/>
       <path id="DejaVuSans-65" d="M 3597 1894 
L 3597 1613 
L 953 1613 
Q 991 1019 1311 708 
Q 1631 397 2203 397 
Q 2534 397 2845 478 
Q 3156 559 3463 722 
L 3463 178 
Q 3153 47 2828 -22 
Q 2503 -91 2169 -91 
Q 1331 -91 842 396 
Q 353 884 353 1716 
Q 353 2575 817 3079 
Q 1281 3584 2069 3584 
Q 2775 3584 3186 3129 
Q 3597 2675 3597 1894 
z
M 3022 2063 
Q 3016 2534 2758 2815 
Q 2500 3097 2075 3097 
Q 1594 3097 1305 2825 
Q 1016 2553 972 2059 
L 3022 2063 
z
" transform="scale(0.015625)"/>
       <path id="DejaVuSans-72" d="M 2631 2963 
Q 2534 3019 2420 3045 
Q 2306 3072 2169 3072 
Q 1681 3072 1420 2755 
Q 1159 2438 1159 1844 
L 1159 0 
L 581 0 
L 581 3500 
L 1159 3500 
L 1159 2956 
Q 1341 3275 1631 3429 
Q 1922 3584 2338 3584 
Q 2397 3584 2469 3576 
Q 2541 3569 2628 3553 
L 2631 2963 
z
" transform="scale(0.015625)"/>
       <path id="DejaVuSans-61" d="M 2194 1759 
Q 1497 1759 1228 1600 
Q 959 1441 959 1056 
Q 959 750 1161 570 
Q 1363 391 1709 391 
Q 2188 391 2477 730 
Q 2766 1069 2766 1631 
L 2766 1759 
L 2194 1759 
z
M 3341 1997 
L 3341 0 
L 2766 0 
L 2766 531 
Q 2569 213 2275 61 
Q 1981 -91 1556 -91 
Q 1019 -91 701 211 
Q 384 513 384 1019 
Q 384 1609 779 1909 
Q 1175 2209 1959 2209 
L 2766 2209 
L 2766 2266 
Q 2766 2663 2505 2880 
Q 2244 3097 1772 3097 
Q 1472 3097 1187 3025 
Q 903 2953 641 2809 
L 641 3341 
Q 956 3463 1253 3523 
Q 1550 3584 1831 3584 
Q 2591 3584 2966 3190 
Q 3341 2797 3341 1997 
z
" transform="scale(0.015625)"/>
       <path id="DejaVuSans-78" d="M 3513 3500 
L 2247 1797 
L 3578 0 
L 2900 0 
L 1881 1375 
L 863 0 
L 184 0 
L 1544 1831 
L 300 3500 
L 978 3500 
L 1906 2253 
L 2834 3500 
L 3513 3500 
z
" transform="scale(0.015625)"/>
       <path id="DejaVuSans-70" d="M 1159 525 
L 1159 -1331 
L 581 -1331 
L 581 3500 
L 1159 3500 
L 1159 2969 
Q 1341 3281 1617 3432 
Q 1894 3584 2278 3584 
Q 2916 3584 3314 3078 
Q 3713 2572 3713 1747 
Q 3713 922 3314 415 
Q 2916 -91 2278 -91 
Q 1894 -91 1617 61 
Q 1341 213 1159 525 
z
M 3116 1747 
Q 3116 2381 2855 2742 
Q 2594 3103 2138 3103 
Q 1681 3103 1420 2742 
Q 1159 2381 1159 1747 
Q 1159 1113 1420 752 
Q 1681 391 2138 391 
Q 2594 391 2855 752 
Q 3116 1113 3116 1747 
z
" transform="scale(0.015625)"/>
       <path id="DejaVuSans-6f" d="M 1959 3097 
Q 1497 3097 1228 2736 
Q 959 2375 959 1747 
Q 959 1119 1226 758 
Q 1494 397 1959 397 
Q 2419 397 2687 759 
Q 2956 1122 2956 1747 
Q 2956 2369 2687 2733 
Q 2419 3097 1959 3097 
z
M 1959 3584 
Q 2709 3584 3137 3096 
Q 3566 2609 3566 1747 
Q 3566 888 3137 398 
Q 2709 -91 1959 -91 
Q 1206 -91 779 398 
Q 353 888 353 1747 
Q 353 2609 779 3096 
Q 1206 3584 1959 3584 
z
" transform="scale(0.015625)"/>
       <path id="DejaVuSans-67" d="M 2906 1791 
Q 2906 2416 2648 2759 
Q 2391 3103 1925 3103 
Q 1463 3103 1205 2759 
Q 947 2416 947 1791 
Q 947 1169 1205 825 
Q 1463 481 1925 481 
Q 2391 481 2648 825 
Q 2906 1169 2906 1791 
z
M 3481 434 
Q 3481 -459 3084 -895 
Q 2688 -1331 1869 -1331 
Q 1566 -1331 1297 -1286 
Q 1028 -1241 775 -1147 
L 775 -588 
Q 1028 -725 1275 -790 
Q 1522 -856 1778 -856 
Q 2344 -856 2625 -561 
Q 2906 -266 2906 331 
L 2906 616 
Q 2728 306 2450 153 
Q 2172 0 1784 0 
Q 1141 0 747 490 
Q 353 981 353 1791 
Q 353 2603 747 3093 
Q 1141 3584 1784 3584 
Q 2172 3584 2450 3431 
Q 2728 3278 2906 2969 
L 2906 3500 
L 3481 3500 
L 3481 434 
z
" transform="scale(0.015625)"/>
       <path id="DejaVuSans-73" d="M 2834 3397 
L 2834 2853 
Q 2591 2978 2328 3040 
Q 2066 3103 1784 3103 
Q 1356 3103 1142 2972 
Q 928 2841 928 2578 
Q 928 2378 1081 2264 
Q 1234 2150 1697 2047 
L 1894 2003 
Q 2506 1872 2764 1633 
Q 3022 1394 3022 966 
Q 3022 478 2636 193 
Q 2250 -91 1575 -91 
Q 1294 -91 989 -36 
Q 684 19 347 128 
L 347 722 
Q 666 556 975 473 
Q 1284 391 1588 391 
Q 1994 391 2212 530 
Q 2431 669 2431 922 
Q 2431 1156 2273 1281 
Q 2116 1406 1581 1522 
L 1381 1569 
Q 847 1681 609 1914 
Q 372 2147 372 2553 
Q 372 3047 722 3315 
Q 1072 3584 1716 3584 
Q 2034 3584 2315 3537 
Q 2597 3491 2834 3397 
z
" transform="scale(0.015625)"/>
       <path id="DejaVuSans-7a" d="M 353 3500 
L 3084 3500 
L 3084 2975 
L 922 459 
L 3084 459 
L 3084 0 
L 275 0 
L 275 525 
L 2438 3041 
L 353 3041 
L 353 3500 
z
" transform="scale(0.015625)"/>
      </defs>
      <use xlink:href="#DejaVuSans-42"/>
      <use xlink:href="#DejaVuSans-69" x="68.603516"/>
      <use xlink:href="#DejaVuSans-6e" x="96.386719"/>
      <use xlink:href="#DejaVuSans-20" x="159.765625"/>
      <use xlink:href="#DejaVuSans-6e" x="191.552734"/>
      <use xlink:href="#DejaVuSans-75" x="254.931641"/>
      <use xlink:href="#DejaVuSans-6d" x="318.310547"/>
      <use xlink:href="#DejaVuSans-62" x="415.722656"/>
      <use xlink:href="#DejaVuSans-65" x="479.199219"/>
      <use xlink:href="#DejaVuSans-72" x="540.722656"/>
      <use xlink:href="#DejaVuSans-2c" x="581.835938"/>
      <use xlink:href="#DejaVuSans-20" x="613.623047"/>
      <use xlink:href="#DejaVuSans-6d" x="645.410156"/>
      <use xlink:href="#DejaVuSans-61" x="742.822266"/>
      <use xlink:href="#DejaVuSans-78" x="804.101562"/>
      <use xlink:href="#DejaVuSans-69" x="863.28125"/>
      <use xlink:href="#DejaVuSans-6d" x="891.064453"/>
      <use xlink:href="#DejaVuSans-75" x="988.476562"/>
      <use xlink:href="#DejaVuSans-6d" x="1051.855469"/>
      <use xlink:href="#DejaVuSans-20" x="1149.267578"/>
      <use xlink:href="#DejaVuSans-70" x="1181.054688"/>
      <use xlink:href="#DejaVuSans-72" x="1244.53125"/>
      <use xlink:href="#DejaVuSans-6f" x="1283.394531"/>
      <use xlink:href="#DejaVuSans-67" x="1344.576172"/>
      <use xlink:href="#DejaVuSans-72" x="1408.052734"/>
      <use xlink:href="#DejaVuSans-61" x="1449.166016"/>
      <use xlink:href="#DejaVuSans-6d" x="1510.445312"/>
      <use xlink:href="#DejaVuSans-20" x="1607.857422"/>
      <use xlink:href="#DejaVuSans-73" x="1639.644531"/>
      <use xlink:href="#DejaVuSans-69" x="1691.744141"/>
      <use xlink:href="#DejaVuSans-7a" x="1719.527344"/>
      <use xlink:href="#DejaVuSans-65" x="1772.017578"/>
     </g>
    </g>
   </g>
   <g id="matplotlib.axis_2">
    <g id="ytick_1">
     <g id="line2d_7">
      <defs>
       <path id="m800c8336dc" d="M 0 0 
L -3.5 0 
" style="stroke: #000000; stroke-width: 0.8"/>
      </defs>
      <g>
       <use xlink:href="#m800c8336dc" x="57.6" y="278.499594" style="stroke: #000000; stroke-width: 0.8"/>
      </g>
     </g>
     <g id="text_8">
      <!-- $\mathdefault{10^{7}}$ -->
      <g transform="translate(31.24 282.678735)scale(0.11 -0.11)">
       <use xlink:href="#DejaVuSans-31" transform="translate(0 0.684375)"/>
       <use xlink:href="#DejaVuSans-30" transform="translate(63.623047 0.684375)"/>
       <use xlink:href="#DejaVuSans-37" transform="translate(128.203125 38.965625)scale(0.7)"/>
      </g>
     </g>
    </g>
    <g id="ytick_2">
     <g id="line2d_8">
      <g>
       <use xlink:href="#m800c8336dc" x="57.6" y="226.01773" style="stroke: #000000; stroke-width: 0.8"/>
      </g>
     </g>
     <g id="text_9">
      <!-- $\mathdefault{10^{8}}$ -->
      <g transform="translate(31.24 230.196871)scale(0.11 -0.11)">
       <use xlink:href="#DejaVuSans-31" transform="translate(0 0.765625)"/>
       <use xlink:href="#DejaVuSans-30" transform="translate(63.623047 0.765625)"/>
       <use xlink:href="#DejaVuSans-38" transform="translate(128.203125 39.046875)scale(0.7)"/>
      </g>
     </g>
    </g>
    <g id="ytick_3">
     <g id="line2d_9">
      <g>
       <use xlink:href="#m800c8336dc" x="57.6" y="173.535866" style="stroke: #000000; stroke-width: 0.8"/>
      </g>
     </g>
     <g id="text_10">
      <!-- $\mathdefault{10^{9}}$ -->
      <g transform="translate(31.24 177.715007)scale(0.11 -0.11)">
       <use xlink:href="#DejaVuSans-31" transform="translate(0 0.765625)"/>
       <use xlink:href="#DejaVuSans-30" transform="translate(63.623047 0.765625)"/>
       <use xlink:href="#DejaVuSans-39" transform="translate(128.203125 39.046875)scale(0.7)"/>
      </g>
     </g>
    </g>
    <g id="ytick_4">
     <g id="line2d_10">
      <g>
       <use xlink:href="#m800c8336dc" x="57.6" y="121.054002" style="stroke: #000000; stroke-width: 0.8"/>
      </g>
     </g>
     <g id="text_11">
      <!-- $\mathdefault{10^{10}}$ -->
      <g transform="translate(26.29 125.233143)scale(0.11 -0.11)">
       <use xlink:href="#DejaVuSans-31" transform="translate(0 0.765625)"/>
       <use xlink:href="#DejaVuSans-30" transform="translate(63.623047 0.765625)"/>
       <use xlink:href="#DejaVuSans-31" transform="translate(128.203125 39.046875)scale(0.7)"/>
       <use xlink:href="#DejaVuSans-30" transform="translate(172.739258 39.046875)scale(0.7)"/>
      </g>
     </g>
    </g>
    <g id="ytick_5">
     <g id="line2d_11">
      <g>
       <use xlink:href="#m800c8336dc" x="57.6" y="68.572138" style="stroke: #000000; stroke-width: 0.8"/>
      </g>
     </g>
     <g id="text_12">
      <!-- $\mathdefault{10^{11}}$ -->
      <g transform="translate(26.29 72.751278)scale(0.11 -0.11)">
       <use xlink:href="#DejaVuSans-31" transform="translate(0 0.684375)"/>
       <use xlink:href="#DejaVuSans-30" transform="translate(63.623047 0.684375)"/>
       <use xlink:href="#DejaVuSans-31" transform="translate(128.203125 38.965625)scale(0.7)"/>
       <use xlink:href="#DejaVuSans-31" transform="translate(172.739258 38.965625)scale(0.7)"/>
      </g>
     </g>
    </g>
    <g id="ytick_6">
     <g id="line2d_12">
      <defs>
       <path id="mcbaf32406d" d="M 0 0 
L -2 0 
" style="stroke: #000000; stroke-width: 0.6"/>
      </defs>
      <g>
       <use xlink:href="#mcbaf32406d" x="57.6" y="290.14263" style="stroke: #000000; stroke-width: 0.6"/>
      </g>
     </g>
    </g>
    <g id="ytick_7">
     <g id="line2d_13">
      <g>
       <use xlink:href="#mcbaf32406d" x="57.6" y="286.629138" style="stroke: #000000; stroke-width: 0.6"/>
      </g>
     </g>
    </g>
    <g id="ytick_8">
     <g id="line2d_14">
      <g>
       <use xlink:href="#mcbaf32406d" x="57.6" y="283.585612" style="stroke: #000000; stroke-width: 0.6"/>
      </g>
     </g>
    </g>
    <g id="ytick_9">
     <g id="line2d_15">
      <g>
       <use xlink:href="#mcbaf32406d" x="57.6" y="280.901032" style="stroke: #000000; stroke-width: 0.6"/>
      </g>
     </g>
    </g>
    <g id="ytick_10">
     <g id="line2d_16">
      <g>
       <use xlink:href="#mcbaf32406d" x="57.6" y="262.700979" style="stroke: #000000; stroke-width: 0.6"/>
      </g>
     </g>
    </g>
    <g id="ytick_11">
     <g id="line2d_17">
      <g>
       <use xlink:href="#mcbaf32406d" x="57.6" y="253.459381" style="stroke: #000000; stroke-width: 0.6"/>
      </g>
     </g>
    </g>
    <g id="ytick_12">
     <g id="line2d_18">
      <g>
       <use xlink:href="#mcbaf32406d" x="57.6" y="246.902363" style="stroke: #000000; stroke-width: 0.6"/>
      </g>
     </g>
    </g>
    <g id="ytick_13">
     <g id="line2d_19">
      <g>
       <use xlink:href="#mcbaf32406d" x="57.6" y="241.816345" style="stroke: #000000; stroke-width: 0.6"/>
      </g>
     </g>
    </g>
    <g id="ytick_14">
     <g id="line2d_20">
      <g>
       <use xlink:href="#mcbaf32406d" x="57.6" y="237.660766" style="stroke: #000000; stroke-width: 0.6"/>
      </g>
     </g>
    </g>
    <g id="ytick_15">
     <g id="line2d_21">
      <g>
       <use xlink:href="#mcbaf32406d" x="57.6" y="234.147274" style="stroke: #000000; stroke-width: 0.6"/>
      </g>
     </g>
    </g>
    <g id="ytick_16">
     <g id="line2d_22">
      <g>
       <use xlink:href="#mcbaf32406d" x="57.6" y="231.103748" style="stroke: #000000; stroke-width: 0.6"/>
      </g>
     </g>
    </g>
    <g id="ytick_17">
     <g id="line2d_23">
      <g>
       <use xlink:href="#mcbaf32406d" x="57.6" y="228.419168" style="stroke: #000000; stroke-width: 0.6"/>
      </g>
     </g>
    </g>
    <g id="ytick_18">
     <g id="line2d_24">
      <g>
       <use xlink:href="#mcbaf32406d" x="57.6" y="210.219115" style="stroke: #000000; stroke-width: 0.6"/>
      </g>
     </g>
    </g>
    <g id="ytick_19">
     <g id="line2d_25">
      <g>
       <use xlink:href="#mcbaf32406d" x="57.6" y="200.977517" style="stroke: #000000; stroke-width: 0.6"/>
      </g>
     </g>
    </g>
    <g id="ytick_20">
     <g id="line2d_26">
      <g>
       <use xlink:href="#mcbaf32406d" x="57.6" y="194.420499" style="stroke: #000000; stroke-width: 0.6"/>
      </g>
     </g>
    </g>
    <g id="ytick_21">
     <g id="line2d_27">
      <g>
       <use xlink:href="#mcbaf32406d" x="57.6" y="189.334481" style="stroke: #000000; stroke-width: 0.6"/>
      </g>
     </g>
    </g>
    <g id="ytick_22">
     <g id="line2d_28">
      <g>
       <use xlink:href="#mcbaf32406d" x="57.6" y="185.178902" style="stroke: #000000; stroke-width: 0.6"/>
      </g>
     </g>
    </g>
    <g id="ytick_23">
     <g id="line2d_29">
      <g>
       <use xlink:href="#mcbaf32406d" x="57.6" y="181.665409" style="stroke: #000000; stroke-width: 0.6"/>
      </g>
     </g>
    </g>
    <g id="ytick_24">
     <g id="line2d_30">
      <g>
       <use xlink:href="#mcbaf32406d" x="57.6" y="178.621884" style="stroke: #000000; stroke-width: 0.6"/>
      </g>
     </g>
    </g>
    <g id="ytick_25">
     <g id="line2d_31">
      <g>
       <use xlink:href="#mcbaf32406d" x="57.6" y="175.937304" style="stroke: #000000; stroke-width: 0.6"/>
      </g>
     </g>
    </g>
    <g id="ytick_26">
     <g id="line2d_32">
      <g>
       <use xlink:href="#mcbaf32406d" x="57.6" y="157.737251" style="stroke: #000000; stroke-width: 0.6"/>
      </g>
     </g>
    </g>
    <g id="ytick_27">
     <g id="line2d_33">
      <g>
       <use xlink:href="#mcbaf32406d" x="57.6" y="148.495653" style="stroke: #000000; stroke-width: 0.6"/>
      </g>
     </g>
    </g>
    <g id="ytick_28">
     <g id="line2d_34">
      <g>
       <use xlink:href="#mcbaf32406d" x="57.6" y="141.938635" style="stroke: #000000; stroke-width: 0.6"/>
      </g>
     </g>
    </g>
    <g id="ytick_29">
     <g id="line2d_35">
      <g>
       <use xlink:href="#mcbaf32406d" x="57.6" y="136.852617" style="stroke: #000000; stroke-width: 0.6"/>
      </g>
     </g>
    </g>
    <g id="ytick_30">
     <g id="line2d_36">
      <g>
       <use xlink:href="#mcbaf32406d" x="57.6" y="132.697038" style="stroke: #000000; stroke-width: 0.6"/>
      </g>
     </g>
    </g>
    <g id="ytick_31">
     <g id="line2d_37">
      <g>
       <use xlink:href="#mcbaf32406d" x="57.6" y="129.183545" style="stroke: #000000; stroke-width: 0.6"/>
      </g>
     </g>
    </g>
    <g id="ytick_32">
     <g id="line2d_38">
      <g>
       <use xlink:href="#mcbaf32406d" x="57.6" y="126.14002" style="stroke: #000000; stroke-width: 0.6"/>
      </g>
     </g>
    </g>
    <g id="ytick_33">
     <g id="line2d_39">
      <g>
       <use xlink:href="#mcbaf32406d" x="57.6" y="123.45544" style="stroke: #000000; stroke-width: 0.6"/>
      </g>
     </g>
    </g>
    <g id="ytick_34">
     <g id="line2d_40">
      <g>
       <use xlink:href="#mcbaf32406d" x="57.6" y="105.255387" style="stroke: #000000; stroke-width: 0.6"/>
      </g>
     </g>
    </g>
    <g id="ytick_35">
     <g id="line2d_41">
      <g>
       <use xlink:href="#mcbaf32406d" x="57.6" y="96.013789" style="stroke: #000000; stroke-width: 0.6"/>
      </g>
     </g>
    </g>
    <g id="ytick_36">
     <g id="line2d_42">
      <g>
       <use xlink:href="#mcbaf32406d" x="57.6" y="89.456771" style="stroke: #000000; stroke-width: 0.6"/>
      </g>
     </g>
    </g>
    <g id="ytick_37">
     <g id="line2d_43">
      <g>
       <use xlink:href="#mcbaf32406d" x="57.6" y="84.370753" style="stroke: #000000; stroke-width: 0.6"/>
      </g>
     </g>
    </g>
    <g id="ytick_38">
     <g id="line2d_44">
      <g>
       <use xlink:href="#mcbaf32406d" x="57.6" y="80.215174" style="stroke: #000000; stroke-width: 0.6"/>
      </g>
     </g>
    </g>
    <g id="ytick_39">
     <g id="line2d_45">
      <g>
       <use xlink:href="#mcbaf32406d" x="57.6" y="76.701681" style="stroke: #000000; stroke-width: 0.6"/>
      </g>
     </g>
    </g>
    <g id="ytick_40">
     <g id="line2d_46">
      <g>
       <use xlink:href="#mcbaf32406d" x="57.6" y="73.658156" style="stroke: #000000; stroke-width: 0.6"/>
      </g>
     </g>
    </g>
    <g id="ytick_41">
     <g id="line2d_47">
      <g>
       <use xlink:href="#mcbaf32406d" x="57.6" y="70.973576" style="stroke: #000000; stroke-width: 0.6"/>
      </g>
     </g>
    </g>
    <g id="ytick_42">
     <g id="line2d_48">
      <g>
       <use xlink:href="#mcbaf32406d" x="57.6" y="52.773523" style="stroke: #000000; stroke-width: 0.6"/>
      </g>
     </g>
    </g>
    <g id="ytick_43">
     <g id="line2d_49">
      <g>
       <use xlink:href="#mcbaf32406d" x="57.6" y="43.531925" style="stroke: #000000; stroke-width: 0.6"/>
      </g>
     </g>
    </g>
    <g id="text_13">
     <!-- Median NEPS -->
     <g transform="translate(19.378437 213.626781)rotate(-90)scale(0.14 -0.14)">
      <defs>
       <path id="DejaVuSans-4d" d="M 628 4666 
L 1569 4666 
L 2759 1491 
L 3956 4666 
L 4897 4666 
L 4897 0 
L 4281 0 
L 4281 4097 
L 3078 897 
L 2444 897 
L 1241 4097 
L 1241 0 
L 628 0 
L 628 4666 
z
" transform="scale(0.015625)"/>
       <path id="DejaVuSans-64" d="M 2906 2969 
L 2906 4863 
L 3481 4863 
L 3481 0 
L 2906 0 
L 2906 525 
Q 2725 213 2448 61 
Q 2172 -91 1784 -91 
Q 1150 -91 751 415 
Q 353 922 353 1747 
Q 353 2572 751 3078 
Q 1150 3584 1784 3584 
Q 2172 3584 2448 3432 
Q 2725 3281 2906 2969 
z
M 947 1747 
Q 947 1113 1208 752 
Q 1469 391 1925 391 
Q 2381 391 2643 752 
Q 2906 1113 2906 1747 
Q 2906 2381 2643 2742 
Q 2381 3103 1925 3103 
Q 1469 3103 1208 2742 
Q 947 2381 947 1747 
z
" transform="scale(0.015625)"/>
       <path id="DejaVuSans-4e" d="M 628 4666 
L 1478 4666 
L 3547 763 
L 3547 4666 
L 4159 4666 
L 4159 0 
L 3309 0 
L 1241 3903 
L 1241 0 
L 628 0 
L 628 4666 
z
" transform="scale(0.015625)"/>
       <path id="DejaVuSans-45" d="M 628 4666 
L 3578 4666 
L 3578 4134 
L 1259 4134 
L 1259 2753 
L 3481 2753 
L 3481 2222 
L 1259 2222 
L 1259 531 
L 3634 531 
L 3634 0 
L 628 0 
L 628 4666 
z
" transform="scale(0.015625)"/>
       <path id="DejaVuSans-50" d="M 1259 4147 
L 1259 2394 
L 2053 2394 
Q 2494 2394 2734 2622 
Q 2975 2850 2975 3272 
Q 2975 3691 2734 3919 
Q 2494 4147 2053 4147 
L 1259 4147 
z
M 628 4666 
L 2053 4666 
Q 2838 4666 3239 4311 
Q 3641 3956 3641 3272 
Q 3641 2581 3239 2228 
Q 2838 1875 2053 1875 
L 1259 1875 
L 1259 0 
L 628 0 
L 628 4666 
z
" transform="scale(0.015625)"/>
       <path id="DejaVuSans-53" d="M 3425 4513 
L 3425 3897 
Q 3066 4069 2747 4153 
Q 2428 4238 2131 4238 
Q 1616 4238 1336 4038 
Q 1056 3838 1056 3469 
Q 1056 3159 1242 3001 
Q 1428 2844 1947 2747 
L 2328 2669 
Q 3034 2534 3370 2195 
Q 3706 1856 3706 1288 
Q 3706 609 3251 259 
Q 2797 -91 1919 -91 
Q 1588 -91 1214 -16 
Q 841 59 441 206 
L 441 856 
Q 825 641 1194 531 
Q 1563 422 1919 422 
Q 2459 422 2753 634 
Q 3047 847 3047 1241 
Q 3047 1584 2836 1778 
Q 2625 1972 2144 2069 
L 1759 2144 
Q 1053 2284 737 2584 
Q 422 2884 422 3419 
Q 422 4038 858 4394 
Q 1294 4750 2059 4750 
Q 2388 4750 2728 4690 
Q 3069 4631 3425 4513 
z
" transform="scale(0.015625)"/>
      </defs>
      <use xlink:href="#DejaVuSans-4d"/>
      <use xlink:href="#DejaVuSans-65" x="86.279297"/>
      <use xlink:href="#DejaVuSans-64" x="147.802734"/>
      <use xlink:href="#DejaVuSans-69" x="211.279297"/>
      <use xlink:href="#DejaVuSans-61" x="239.0625"/>
      <use xlink:href="#DejaVuSans-6e" x="300.341797"/>
      <use xlink:href="#DejaVuSans-20" x="363.720703"/>
      <use xlink:href="#DejaVuSans-4e" x="395.507812"/>
      <use xlink:href="#DejaVuSans-45" x="470.3125"/>
      <use xlink:href="#DejaVuSans-50" x="533.496094"/>
      <use xlink:href="#DejaVuSans-53" x="593.798828"/>
     </g>
    </g>
   </g>
   <g id="line2d_50">
    <path d="M 73.832727 282.292364 
L 84.316022 281.971406 
L 94.799317 281.879784 
L 105.282613 282.200073 
L 115.765908 282.121613 
L 126.249203 282.232819 
L 136.732498 282.176533 
L 147.215793 282.250585 
L 157.699088 282.146049 
L 168.182383 282.18962 
L 178.665678 281.910997 
L 189.148973 282.033719 
L 199.632269 281.986158 
L 210.115564 281.836166 
L 220.598859 281.721637 
L 231.082154 281.753119 
L 241.565449 281.743417 
L 252.048744 281.777462 
L 262.532039 281.748331 
L 273.015334 281.618997 
L 283.498629 281.687801 
L 293.981925 281.692311 
L 304.46522 281.598525 
L 314.948515 281.752032 
L 325.43181 281.726425 
L 335.915105 281.70015 
L 346.3984 281.70561 
L 356.881695 281.715547 
L 367.36499 281.755433 
L 377.848285 281.777514 
L 388.331581 281.72364 
L 398.487273 281.767158 
" clip-path="url(#pa77ae51df4)" style="fill: none; stroke: #000000; stroke-width: 0.1; stroke-linecap: square"/>
    <defs>
     <path id="mb6123d4393" d="M -2.5 5 
L 0 2.5 
L 2.5 5 
L 5 2.5 
L 2.5 0 
L 5 -2.5 
L 2.5 -5 
L 0 -2.5 
L -2.5 -5 
L -5 -2.5 
L -2.5 0 
L -5 2.5 
z
" style="stroke: #000000; stroke-linejoin: miter"/>
    </defs>
    <g clip-path="url(#pa77ae51df4)">
     <use xlink:href="#mb6123d4393" x="73.832727" y="282.292364" style="fill: #17becf; stroke: #000000; stroke-linejoin: miter"/>
     <use xlink:href="#mb6123d4393" x="84.316022" y="281.971406" style="fill: #17becf; stroke: #000000; stroke-linejoin: miter"/>
     <use xlink:href="#mb6123d4393" x="94.799317" y="281.879784" style="fill: #17becf; stroke: #000000; stroke-linejoin: miter"/>
     <use xlink:href="#mb6123d4393" x="105.282613" y="282.200073" style="fill: #17becf; stroke: #000000; stroke-linejoin: miter"/>
     <use xlink:href="#mb6123d4393" x="115.765908" y="282.121613" style="fill: #17becf; stroke: #000000; stroke-linejoin: miter"/>
     <use xlink:href="#mb6123d4393" x="126.249203" y="282.232819" style="fill: #17becf; stroke: #000000; stroke-linejoin: miter"/>
     <use xlink:href="#mb6123d4393" x="136.732498" y="282.176533" style="fill: #17becf; stroke: #000000; stroke-linejoin: miter"/>
     <use xlink:href="#mb6123d4393" x="147.215793" y="282.250585" style="fill: #17becf; stroke: #000000; stroke-linejoin: miter"/>
     <use xlink:href="#mb6123d4393" x="157.699088" y="282.146049" style="fill: #17becf; stroke: #000000; stroke-linejoin: miter"/>
     <use xlink:href="#mb6123d4393" x="168.182383" y="282.18962" style="fill: #17becf; stroke: #000000; stroke-linejoin: miter"/>
     <use xlink:href="#mb6123d4393" x="178.665678" y="281.910997" style="fill: #17becf; stroke: #000000; stroke-linejoin: miter"/>
     <use xlink:href="#mb6123d4393" x="189.148973" y="282.033719" style="fill: #17becf; stroke: #000000; stroke-linejoin: miter"/>
     <use xlink:href="#mb6123d4393" x="199.632269" y="281.986158" style="fill: #17becf; stroke: #000000; stroke-linejoin: miter"/>
     <use xlink:href="#mb6123d4393" x="210.115564" y="281.836166" style="fill: #17becf; stroke: #000000; stroke-linejoin: miter"/>
     <use xlink:href="#mb6123d4393" x="220.598859" y="281.721637" style="fill: #17becf; stroke: #000000; stroke-linejoin: miter"/>
     <use xlink:href="#mb6123d4393" x="231.082154" y="281.753119" style="fill: #17becf; stroke: #000000; stroke-linejoin: miter"/>
     <use xlink:href="#mb6123d4393" x="241.565449" y="281.743417" style="fill: #17becf; stroke: #000000; stroke-linejoin: miter"/>
     <use xlink:href="#mb6123d4393" x="252.048744" y="281.777462" style="fill: #17becf; stroke: #000000; stroke-linejoin: miter"/>
     <use xlink:href="#mb6123d4393" x="262.532039" y="281.748331" style="fill: #17becf; stroke: #000000; stroke-linejoin: miter"/>
     <use xlink:href="#mb6123d4393" x="273.015334" y="281.618997" style="fill: #17becf; stroke: #000000; stroke-linejoin: miter"/>
     <use xlink:href="#mb6123d4393" x="283.498629" y="281.687801" style="fill: #17becf; stroke: #000000; stroke-linejoin: miter"/>
     <use xlink:href="#mb6123d4393" x="293.981925" y="281.692311" style="fill: #17becf; stroke: #000000; stroke-linejoin: miter"/>
     <use xlink:href="#mb6123d4393" x="304.46522" y="281.598525" style="fill: #17becf; stroke: #000000; stroke-linejoin: miter"/>
     <use xlink:href="#mb6123d4393" x="314.948515" y="281.752032" style="fill: #17becf; stroke: #000000; stroke-linejoin: miter"/>
     <use xlink:href="#mb6123d4393" x="325.43181" y="281.726425" style="fill: #17becf; stroke: #000000; stroke-linejoin: miter"/>
     <use xlink:href="#mb6123d4393" x="335.915105" y="281.70015" style="fill: #17becf; stroke: #000000; stroke-linejoin: miter"/>
     <use xlink:href="#mb6123d4393" x="346.3984" y="281.70561" style="fill: #17becf; stroke: #000000; stroke-linejoin: miter"/>
     <use xlink:href="#mb6123d4393" x="356.881695" y="281.715547" style="fill: #17becf; stroke: #000000; stroke-linejoin: miter"/>
     <use xlink:href="#mb6123d4393" x="367.36499" y="281.755433" style="fill: #17becf; stroke: #000000; stroke-linejoin: miter"/>
     <use xlink:href="#mb6123d4393" x="377.848285" y="281.777514" style="fill: #17becf; stroke: #000000; stroke-linejoin: miter"/>
     <use xlink:href="#mb6123d4393" x="388.331581" y="281.72364" style="fill: #17becf; stroke: #000000; stroke-linejoin: miter"/>
     <use xlink:href="#mb6123d4393" x="398.487273" y="281.767158" style="fill: #17becf; stroke: #000000; stroke-linejoin: miter"/>
    </g>
   </g>
   <g id="line2d_51">
    <path d="M 57.6 173.535866 
L 414.72 173.535866 
" clip-path="url(#pa77ae51df4)" style="fill: none; stroke-dasharray: 5.55,2.4; stroke-dashoffset: 0; stroke: #808080; stroke-width: 1.5"/>
   </g>
   <g id="line2d_52">
    <path d="M 73.832727 215.897545 
L 84.316022 206.565171 
L 94.799317 203.964966 
L 105.282613 202.584134 
L 115.765908 201.853361 
L 126.249203 201.412012 
L 136.732498 200.987435 
L 147.215793 200.851018 
L 157.699088 200.558041 
L 168.182383 200.174454 
L 178.665678 199.813337 
L 189.148973 199.43617 
L 199.632269 193.644277 
L 210.115564 193.210181 
L 220.598859 193.188012 
L 231.082154 193.140914 
L 241.565449 193.618646 
L 252.048744 192.862917 
L 262.532039 193.465075 
L 273.015334 193.060561 
L 283.498629 193.190531 
L 293.981925 193.319492 
L 304.46522 192.937138 
L 314.948515 192.82627 
L 325.43181 192.544119 
L 335.915105 192.505381 
L 346.3984 192.270186 
L 356.881695 192.323678 
L 367.36499 192.28563 
L 377.848285 192.439308 
L 388.331581 192.224262 
L 398.487273 192.027407 
" clip-path="url(#pa77ae51df4)" style="fill: none; stroke: #000000; stroke-width: 0.1; stroke-linecap: square"/>
    <defs>
     <path id="m92a21b105c" d="M -0 5.5 
L 5.5 -5.5 
L -5.5 -5.5 
z
" style="stroke: #000000; stroke-linejoin: miter"/>
    </defs>
    <g clip-path="url(#pa77ae51df4)">
     <use xlink:href="#m92a21b105c" x="73.832727" y="215.897545" style="fill: #8a2be2; stroke: #000000; stroke-linejoin: miter"/>
     <use xlink:href="#m92a21b105c" x="84.316022" y="206.565171" style="fill: #8a2be2; stroke: #000000; stroke-linejoin: miter"/>
     <use xlink:href="#m92a21b105c" x="94.799317" y="203.964966" style="fill: #8a2be2; stroke: #000000; stroke-linejoin: miter"/>
     <use xlink:href="#m92a21b105c" x="105.282613" y="202.584134" style="fill: #8a2be2; stroke: #000000; stroke-linejoin: miter"/>
     <use xlink:href="#m92a21b105c" x="115.765908" y="201.853361" style="fill: #8a2be2; stroke: #000000; stroke-linejoin: miter"/>
     <use xlink:href="#m92a21b105c" x="126.249203" y="201.412012" style="fill: #8a2be2; stroke: #000000; stroke-linejoin: miter"/>
     <use xlink:href="#m92a21b105c" x="136.732498" y="200.987435" style="fill: #8a2be2; stroke: #000000; stroke-linejoin: miter"/>
     <use xlink:href="#m92a21b105c" x="147.215793" y="200.851018" style="fill: #8a2be2; stroke: #000000; stroke-linejoin: miter"/>
     <use xlink:href="#m92a21b105c" x="157.699088" y="200.558041" style="fill: #8a2be2; stroke: #000000; stroke-linejoin: miter"/>
     <use xlink:href="#m92a21b105c" x="168.182383" y="200.174454" style="fill: #8a2be2; stroke: #000000; stroke-linejoin: miter"/>
     <use xlink:href="#m92a21b105c" x="178.665678" y="199.813337" style="fill: #8a2be2; stroke: #000000; stroke-linejoin: miter"/>
     <use xlink:href="#m92a21b105c" x="189.148973" y="199.43617" style="fill: #8a2be2; stroke: #000000; stroke-linejoin: miter"/>
     <use xlink:href="#m92a21b105c" x="199.632269" y="193.644277" style="fill: #8a2be2; stroke: #000000; stroke-linejoin: miter"/>
     <use xlink:href="#m92a21b105c" x="210.115564" y="193.210181" style="fill: #8a2be2; stroke: #000000; stroke-linejoin: miter"/>
     <use xlink:href="#m92a21b105c" x="220.598859" y="193.188012" style="fill: #8a2be2; stroke: #000000; stroke-linejoin: miter"/>
     <use xlink:href="#m92a21b105c" x="231.082154" y="193.140914" style="fill: #8a2be2; stroke: #000000; stroke-linejoin: miter"/>
     <use xlink:href="#m92a21b105c" x="241.565449" y="193.618646" style="fill: #8a2be2; stroke: #000000; stroke-linejoin: miter"/>
     <use xlink:href="#m92a21b105c" x="252.048744" y="192.862917" style="fill: #8a2be2; stroke: #000000; stroke-linejoin: miter"/>
     <use xlink:href="#m92a21b105c" x="262.532039" y="193.465075" style="fill: #8a2be2; stroke: #000000; stroke-linejoin: miter"/>
     <use xlink:href="#m92a21b105c" x="273.015334" y="193.060561" style="fill: #8a2be2; stroke: #000000; stroke-linejoin: miter"/>
     <use xlink:href="#m92a21b105c" x="283.498629" y="193.190531" style="fill: #8a2be2; stroke: #000000; stroke-linejoin: miter"/>
     <use xlink:href="#m92a21b105c" x="293.981925" y="193.319492" style="fill: #8a2be2; stroke: #000000; stroke-linejoin: miter"/>
     <use xlink:href="#m92a21b105c" x="304.46522" y="192.937138" style="fill: #8a2be2; stroke: #000000; stroke-linejoin: miter"/>
     <use xlink:href="#m92a21b105c" x="314.948515" y="192.82627" style="fill: #8a2be2; stroke: #000000; stroke-linejoin: miter"/>
     <use xlink:href="#m92a21b105c" x="325.43181" y="192.544119" style="fill: #8a2be2; stroke: #000000; stroke-linejoin: miter"/>
     <use xlink:href="#m92a21b105c" x="335.915105" y="192.505381" style="fill: #8a2be2; stroke: #000000; stroke-linejoin: miter"/>
     <use xlink:href="#m92a21b105c" x="346.3984" y="192.270186" style="fill: #8a2be2; stroke: #000000; stroke-linejoin: miter"/>
     <use xlink:href="#m92a21b105c" x="356.881695" y="192.323678" style="fill: #8a2be2; stroke: #000000; stroke-linejoin: miter"/>
     <use xlink:href="#m92a21b105c" x="367.36499" y="192.28563" style="fill: #8a2be2; stroke: #000000; stroke-linejoin: miter"/>
     <use xlink:href="#m92a21b105c" x="377.848285" y="192.439308" style="fill: #8a2be2; stroke: #000000; stroke-linejoin: miter"/>
     <use xlink:href="#m92a21b105c" x="388.331581" y="192.224262" style="fill: #8a2be2; stroke: #000000; stroke-linejoin: miter"/>
     <use xlink:href="#m92a21b105c" x="398.487273" y="192.027407" style="fill: #8a2be2; stroke: #000000; stroke-linejoin: miter"/>
    </g>
   </g>
   <g id="line2d_53">
    <path d="M 57.6 173.535866 
L 414.72 173.535866 
" clip-path="url(#pa77ae51df4)" style="fill: none; stroke-dasharray: 5.55,2.4; stroke-dashoffset: 0; stroke: #808080; stroke-width: 1.5"/>
   </g>
   <g id="line2d_54">
    <path d="M 73.832727 210.01105 
L 84.316022 200.985929 
L 94.799317 197.468584 
L 105.282613 195.73716 
L 115.765908 194.990432 
L 126.249203 194.677743 
L 136.732498 194.91442 
L 147.215793 193.705792 
L 157.699088 195.469385 
L 168.182383 195.425799 
L 178.665678 195.143984 
L 189.148973 193.804956 
L 199.632269 191.061753 
L 210.115564 190.189255 
L 220.598859 190.920364 
L 231.082154 189.811755 
L 241.565449 191.373801 
L 252.048744 190.297102 
L 262.532039 189.347014 
L 273.015334 189.217731 
L 283.498629 189.191898 
L 293.981925 189.332485 
L 304.46522 191.444162 
L 314.948515 192.204753 
L 325.43181 192.159156 
L 335.915105 190.313258 
L 346.3984 189.457685 
L 356.881695 189.455267 
L 367.36499 190.214923 
L 377.848285 189.168503 
L 388.331581 189.195405 
L 398.487273 189.10531 
" clip-path="url(#pa77ae51df4)" style="fill: none; stroke: #000000; stroke-width: 0.1; stroke-linecap: square"/>
    <defs>
     <path id="m2da37e475f" d="M 0 3.75 
C 0.994512 3.75 1.948425 3.354876 2.65165 2.65165 
C 3.354876 1.948425 3.75 0.994512 3.75 0 
C 3.75 -0.994512 3.354876 -1.948425 2.65165 -2.65165 
C 1.948425 -3.354876 0.994512 -3.75 0 -3.75 
C -0.994512 -3.75 -1.948425 -3.354876 -2.65165 -2.65165 
C -3.354876 -1.948425 -3.75 -0.994512 -3.75 0 
C -3.75 0.994512 -3.354876 1.948425 -2.65165 2.65165 
C -1.948425 3.354876 -0.994512 3.75 0 3.75 
z
" style="stroke: #000000"/>
    </defs>
    <g clip-path="url(#pa77ae51df4)">
     <use xlink:href="#m2da37e475f" x="73.832727" y="210.01105" style="fill: #1e90ff; stroke: #000000"/>
     <use xlink:href="#m2da37e475f" x="84.316022" y="200.985929" style="fill: #1e90ff; stroke: #000000"/>
     <use xlink:href="#m2da37e475f" x="94.799317" y="197.468584" style="fill: #1e90ff; stroke: #000000"/>
     <use xlink:href="#m2da37e475f" x="105.282613" y="195.73716" style="fill: #1e90ff; stroke: #000000"/>
     <use xlink:href="#m2da37e475f" x="115.765908" y="194.990432" style="fill: #1e90ff; stroke: #000000"/>
     <use xlink:href="#m2da37e475f" x="126.249203" y="194.677743" style="fill: #1e90ff; stroke: #000000"/>
     <use xlink:href="#m2da37e475f" x="136.732498" y="194.91442" style="fill: #1e90ff; stroke: #000000"/>
     <use xlink:href="#m2da37e475f" x="147.215793" y="193.705792" style="fill: #1e90ff; stroke: #000000"/>
     <use xlink:href="#m2da37e475f" x="157.699088" y="195.469385" style="fill: #1e90ff; stroke: #000000"/>
     <use xlink:href="#m2da37e475f" x="168.182383" y="195.425799" style="fill: #1e90ff; stroke: #000000"/>
     <use xlink:href="#m2da37e475f" x="178.665678" y="195.143984" style="fill: #1e90ff; stroke: #000000"/>
     <use xlink:href="#m2da37e475f" x="189.148973" y="193.804956" style="fill: #1e90ff; stroke: #000000"/>
     <use xlink:href="#m2da37e475f" x="199.632269" y="191.061753" style="fill: #1e90ff; stroke: #000000"/>
     <use xlink:href="#m2da37e475f" x="210.115564" y="190.189255" style="fill: #1e90ff; stroke: #000000"/>
     <use xlink:href="#m2da37e475f" x="220.598859" y="190.920364" style="fill: #1e90ff; stroke: #000000"/>
     <use xlink:href="#m2da37e475f" x="231.082154" y="189.811755" style="fill: #1e90ff; stroke: #000000"/>
     <use xlink:href="#m2da37e475f" x="241.565449" y="191.373801" style="fill: #1e90ff; stroke: #000000"/>
     <use xlink:href="#m2da37e475f" x="252.048744" y="190.297102" style="fill: #1e90ff; stroke: #000000"/>
     <use xlink:href="#m2da37e475f" x="262.532039" y="189.347014" style="fill: #1e90ff; stroke: #000000"/>
     <use xlink:href="#m2da37e475f" x="273.015334" y="189.217731" style="fill: #1e90ff; stroke: #000000"/>
     <use xlink:href="#m2da37e475f" x="283.498629" y="189.191898" style="fill: #1e90ff; stroke: #000000"/>
     <use xlink:href="#m2da37e475f" x="293.981925" y="189.332485" style="fill: #1e90ff; stroke: #000000"/>
     <use xlink:href="#m2da37e475f" x="304.46522" y="191.444162" style="fill: #1e90ff; stroke: #000000"/>
     <use xlink:href="#m2da37e475f" x="314.948515" y="192.204753" style="fill: #1e90ff; stroke: #000000"/>
     <use xlink:href="#m2da37e475f" x="325.43181" y="192.159156" style="fill: #1e90ff; stroke: #000000"/>
     <use xlink:href="#m2da37e475f" x="335.915105" y="190.313258" style="fill: #1e90ff; stroke: #000000"/>
     <use xlink:href="#m2da37e475f" x="346.3984" y="189.457685" style="fill: #1e90ff; stroke: #000000"/>
     <use xlink:href="#m2da37e475f" x="356.881695" y="189.455267" style="fill: #1e90ff; stroke: #000000"/>
     <use xlink:href="#m2da37e475f" x="367.36499" y="190.214923" style="fill: #1e90ff; stroke: #000000"/>
     <use xlink:href="#m2da37e475f" x="377.848285" y="189.168503" style="fill: #1e90ff; stroke: #000000"/>
     <use xlink:href="#m2da37e475f" x="388.331581" y="189.195405" style="fill: #1e90ff; stroke: #000000"/>
     <use xlink:href="#m2da37e475f" x="398.487273" y="189.10531" style="fill: #1e90ff; stroke: #000000"/>
    </g>
   </g>
   <g id="line2d_55">
    <path d="M 57.6 173.535866 
L 414.72 173.535866 
" clip-path="url(#pa77ae51df4)" style="fill: none; stroke-dasharray: 5.55,2.4; stroke-dashoffset: 0; stroke: #808080; stroke-width: 1.5"/>
   </g>
   <g id="line2d_56">
    <path d="M 73.832727 71.209467 
L 84.316022 65.315494 
L 94.799317 59.976821 
L 105.282613 55.803184 
L 115.765908 55.78436 
L 126.249203 55.745977 
L 136.732498 55.15701 
L 147.215793 55.244512 
L 157.699088 54.609878 
L 168.182383 55.387674 
L 178.665678 54.404459 
L 189.148973 54.765029 
L 199.632269 55.199978 
L 210.115564 54.834723 
L 220.598859 57.452287 
L 231.082154 56.022471 
L 241.565449 55.169446 
L 252.048744 55.19976 
L 262.532039 55.188571 
L 273.015334 55.242267 
L 283.498629 55.374038 
L 293.981925 56.218902 
L 304.46522 57.12257 
L 314.948515 57.331735 
L 325.43181 57.610597 
L 335.915105 58.23163 
L 346.3984 58.814693 
L 356.881695 59.998721 
L 367.36499 61.076095 
L 377.848285 62.475898 
L 388.331581 63.01359 
L 398.487273 65.061491 
" clip-path="url(#pa77ae51df4)" style="fill: none; stroke: #000000; stroke-width: 0.1; stroke-linecap: square"/>
    <defs>
     <path id="m1bdcb9c748" d="M 0 -4.5 
L -4.5 4.5 
L 4.5 4.5 
z
" style="stroke: #000000; stroke-linejoin: miter"/>
    </defs>
    <g clip-path="url(#pa77ae51df4)">
     <use xlink:href="#m1bdcb9c748" x="73.832727" y="71.209467" style="fill: #ffd700; stroke: #000000; stroke-linejoin: miter"/>
     <use xlink:href="#m1bdcb9c748" x="84.316022" y="65.315494" style="fill: #ffd700; stroke: #000000; stroke-linejoin: miter"/>
     <use xlink:href="#m1bdcb9c748" x="94.799317" y="59.976821" style="fill: #ffd700; stroke: #000000; stroke-linejoin: miter"/>
     <use xlink:href="#m1bdcb9c748" x="105.282613" y="55.803184" style="fill: #ffd700; stroke: #000000; stroke-linejoin: miter"/>
     <use xlink:href="#m1bdcb9c748" x="115.765908" y="55.78436" style="fill: #ffd700; stroke: #000000; stroke-linejoin: miter"/>
     <use xlink:href="#m1bdcb9c748" x="126.249203" y="55.745977" style="fill: #ffd700; stroke: #000000; stroke-linejoin: miter"/>
     <use xlink:href="#m1bdcb9c748" x="136.732498" y="55.15701" style="fill: #ffd700; stroke: #000000; stroke-linejoin: miter"/>
     <use xlink:href="#m1bdcb9c748" x="147.215793" y="55.244512" style="fill: #ffd700; stroke: #000000; stroke-linejoin: miter"/>
     <use xlink:href="#m1bdcb9c748" x="157.699088" y="54.609878" style="fill: #ffd700; stroke: #000000; stroke-linejoin: miter"/>
     <use xlink:href="#m1bdcb9c748" x="168.182383" y="55.387674" style="fill: #ffd700; stroke: #000000; stroke-linejoin: miter"/>
     <use xlink:href="#m1bdcb9c748" x="178.665678" y="54.404459" style="fill: #ffd700; stroke: #000000; stroke-linejoin: miter"/>
     <use xlink:href="#m1bdcb9c748" x="189.148973" y="54.765029" style="fill: #ffd700; stroke: #000000; stroke-linejoin: miter"/>
     <use xlink:href="#m1bdcb9c748" x="199.632269" y="55.199978" style="fill: #ffd700; stroke: #000000; stroke-linejoin: miter"/>
     <use xlink:href="#m1bdcb9c748" x="210.115564" y="54.834723" style="fill: #ffd700; stroke: #000000; stroke-linejoin: miter"/>
     <use xlink:href="#m1bdcb9c748" x="220.598859" y="57.452287" style="fill: #ffd700; stroke: #000000; stroke-linejoin: miter"/>
     <use xlink:href="#m1bdcb9c748" x="231.082154" y="56.022471" style="fill: #ffd700; stroke: #000000; stroke-linejoin: miter"/>
     <use xlink:href="#m1bdcb9c748" x="241.565449" y="55.169446" style="fill: #ffd700; stroke: #000000; stroke-linejoin: miter"/>
     <use xlink:href="#m1bdcb9c748" x="252.048744" y="55.19976" style="fill: #ffd700; stroke: #000000; stroke-linejoin: miter"/>
     <use xlink:href="#m1bdcb9c748" x="262.532039" y="55.188571" style="fill: #ffd700; stroke: #000000; stroke-linejoin: miter"/>
     <use xlink:href="#m1bdcb9c748" x="273.015334" y="55.242267" style="fill: #ffd700; stroke: #000000; stroke-linejoin: miter"/>
     <use xlink:href="#m1bdcb9c748" x="283.498629" y="55.374038" style="fill: #ffd700; stroke: #000000; stroke-linejoin: miter"/>
     <use xlink:href="#m1bdcb9c748" x="293.981925" y="56.218902" style="fill: #ffd700; stroke: #000000; stroke-linejoin: miter"/>
     <use xlink:href="#m1bdcb9c748" x="304.46522" y="57.12257" style="fill: #ffd700; stroke: #000000; stroke-linejoin: miter"/>
     <use xlink:href="#m1bdcb9c748" x="314.948515" y="57.331735" style="fill: #ffd700; stroke: #000000; stroke-linejoin: miter"/>
     <use xlink:href="#m1bdcb9c748" x="325.43181" y="57.610597" style="fill: #ffd700; stroke: #000000; stroke-linejoin: miter"/>
     <use xlink:href="#m1bdcb9c748" x="335.915105" y="58.23163" style="fill: #ffd700; stroke: #000000; stroke-linejoin: miter"/>
     <use xlink:href="#m1bdcb9c748" x="346.3984" y="58.814693" style="fill: #ffd700; stroke: #000000; stroke-linejoin: miter"/>
     <use xlink:href="#m1bdcb9c748" x="356.881695" y="59.998721" style="fill: #ffd700; stroke: #000000; stroke-linejoin: miter"/>
     <use xlink:href="#m1bdcb9c748" x="367.36499" y="61.076095" style="fill: #ffd700; stroke: #000000; stroke-linejoin: miter"/>
     <use xlink:href="#m1bdcb9c748" x="377.848285" y="62.475898" style="fill: #ffd700; stroke: #000000; stroke-linejoin: miter"/>
     <use xlink:href="#m1bdcb9c748" x="388.331581" y="63.01359" style="fill: #ffd700; stroke: #000000; stroke-linejoin: miter"/>
     <use xlink:href="#m1bdcb9c748" x="398.487273" y="65.061491" style="fill: #ffd700; stroke: #000000; stroke-linejoin: miter"/>
    </g>
   </g>
   <g id="line2d_57">
    <path d="M 57.6 173.535866 
L 414.72 173.535866 
" clip-path="url(#pa77ae51df4)" style="fill: none; stroke-dasharray: 5.55,2.4; stroke-dashoffset: 0; stroke: #808080; stroke-width: 1.5"/>
   </g>
   <g id="line2d_58">
    <path d="M 73.832727 145.786761 
L 84.316022 121.78771 
L 94.799317 110.567137 
L 105.282613 102.736925 
L 115.765908 97.160652 
L 126.249203 92.61962 
L 136.732498 88.83187 
L 147.215793 85.562343 
L 157.699088 82.831502 
L 168.182383 80.24198 
L 178.665678 77.900069 
L 189.148973 75.884903 
L 199.632269 73.977799 
L 210.115564 72.204025 
L 220.598859 70.586148 
L 231.082154 69.065055 
L 241.565449 67.655663 
L 252.048744 66.304474 
L 262.532039 65.041852 
L 273.015334 63.833193 
L 283.498629 62.704482 
L 293.981925 61.635905 
L 304.46522 60.575067 
L 314.948515 59.584145 
L 325.43181 58.654194 
L 335.915105 57.759632 
L 346.3984 56.858859 
L 356.881695 56.016091 
L 367.36499 55.196578 
L 377.848285 54.43578 
L 388.331581 53.663744 
L 398.487273 52.939636 
" clip-path="url(#pa77ae51df4)" style="fill: none; stroke: #000000; stroke-width: 0.1; stroke-linecap: square"/>
    <defs>
     <path id="mc61dd1663f" d="M 0 -6 
L -1.347084 -1.854102 
L -5.706339 -1.854102 
L -2.179628 0.708204 
L -3.526712 4.854102 
L -0 2.291796 
L 3.526712 4.854102 
L 2.179628 0.708204 
L 5.706339 -1.854102 
L 1.347084 -1.854102 
z
" style="stroke: #000000; stroke-linejoin: bevel"/>
    </defs>
    <g clip-path="url(#pa77ae51df4)">
     <use xlink:href="#mc61dd1663f" x="73.832727" y="145.786761" style="fill: #d62728; stroke: #000000; stroke-linejoin: bevel"/>
     <use xlink:href="#mc61dd1663f" x="84.316022" y="121.78771" style="fill: #d62728; stroke: #000000; stroke-linejoin: bevel"/>
     <use xlink:href="#mc61dd1663f" x="94.799317" y="110.567137" style="fill: #d62728; stroke: #000000; stroke-linejoin: bevel"/>
     <use xlink:href="#mc61dd1663f" x="105.282613" y="102.736925" style="fill: #d62728; stroke: #000000; stroke-linejoin: bevel"/>
     <use xlink:href="#mc61dd1663f" x="115.765908" y="97.160652" style="fill: #d62728; stroke: #000000; stroke-linejoin: bevel"/>
     <use xlink:href="#mc61dd1663f" x="126.249203" y="92.61962" style="fill: #d62728; stroke: #000000; stroke-linejoin: bevel"/>
     <use xlink:href="#mc61dd1663f" x="136.732498" y="88.83187" style="fill: #d62728; stroke: #000000; stroke-linejoin: bevel"/>
     <use xlink:href="#mc61dd1663f" x="147.215793" y="85.562343" style="fill: #d62728; stroke: #000000; stroke-linejoin: bevel"/>
     <use xlink:href="#mc61dd1663f" x="157.699088" y="82.831502" style="fill: #d62728; stroke: #000000; stroke-linejoin: bevel"/>
     <use xlink:href="#mc61dd1663f" x="168.182383" y="80.24198" style="fill: #d62728; stroke: #000000; stroke-linejoin: bevel"/>
     <use xlink:href="#mc61dd1663f" x="178.665678" y="77.900069" style="fill: #d62728; stroke: #000000; stroke-linejoin: bevel"/>
     <use xlink:href="#mc61dd1663f" x="189.148973" y="75.884903" style="fill: #d62728; stroke: #000000; stroke-linejoin: bevel"/>
     <use xlink:href="#mc61dd1663f" x="199.632269" y="73.977799" style="fill: #d62728; stroke: #000000; stroke-linejoin: bevel"/>
     <use xlink:href="#mc61dd1663f" x="210.115564" y="72.204025" style="fill: #d62728; stroke: #000000; stroke-linejoin: bevel"/>
     <use xlink:href="#mc61dd1663f" x="220.598859" y="70.586148" style="fill: #d62728; stroke: #000000; stroke-linejoin: bevel"/>
     <use xlink:href="#mc61dd1663f" x="231.082154" y="69.065055" style="fill: #d62728; stroke: #000000; stroke-linejoin: bevel"/>
     <use xlink:href="#mc61dd1663f" x="241.565449" y="67.655663" style="fill: #d62728; stroke: #000000; stroke-linejoin: bevel"/>
     <use xlink:href="#mc61dd1663f" x="252.048744" y="66.304474" style="fill: #d62728; stroke: #000000; stroke-linejoin: bevel"/>
     <use xlink:href="#mc61dd1663f" x="262.532039" y="65.041852" style="fill: #d62728; stroke: #000000; stroke-linejoin: bevel"/>
     <use xlink:href="#mc61dd1663f" x="273.015334" y="63.833193" style="fill: #d62728; stroke: #000000; stroke-linejoin: bevel"/>
     <use xlink:href="#mc61dd1663f" x="283.498629" y="62.704482" style="fill: #d62728; stroke: #000000; stroke-linejoin: bevel"/>
     <use xlink:href="#mc61dd1663f" x="293.981925" y="61.635905" style="fill: #d62728; stroke: #000000; stroke-linejoin: bevel"/>
     <use xlink:href="#mc61dd1663f" x="304.46522" y="60.575067" style="fill: #d62728; stroke: #000000; stroke-linejoin: bevel"/>
     <use xlink:href="#mc61dd1663f" x="314.948515" y="59.584145" style="fill: #d62728; stroke: #000000; stroke-linejoin: bevel"/>
     <use xlink:href="#mc61dd1663f" x="325.43181" y="58.654194" style="fill: #d62728; stroke: #000000; stroke-linejoin: bevel"/>
     <use xlink:href="#mc61dd1663f" x="335.915105" y="57.759632" style="fill: #d62728; stroke: #000000; stroke-linejoin: bevel"/>
     <use xlink:href="#mc61dd1663f" x="346.3984" y="56.858859" style="fill: #d62728; stroke: #000000; stroke-linejoin: bevel"/>
     <use xlink:href="#mc61dd1663f" x="356.881695" y="56.016091" style="fill: #d62728; stroke: #000000; stroke-linejoin: bevel"/>
     <use xlink:href="#mc61dd1663f" x="367.36499" y="55.196578" style="fill: #d62728; stroke: #000000; stroke-linejoin: bevel"/>
     <use xlink:href="#mc61dd1663f" x="377.848285" y="54.43578" style="fill: #d62728; stroke: #000000; stroke-linejoin: bevel"/>
     <use xlink:href="#mc61dd1663f" x="388.331581" y="53.663744" style="fill: #d62728; stroke: #000000; stroke-linejoin: bevel"/>
     <use xlink:href="#mc61dd1663f" x="398.487273" y="52.939636" style="fill: #d62728; stroke: #000000; stroke-linejoin: bevel"/>
    </g>
   </g>
   <g id="line2d_59">
    <path d="M 57.6 173.535866 
L 414.72 173.535866 
" clip-path="url(#pa77ae51df4)" style="fill: none; stroke-dasharray: 5.55,2.4; stroke-dashoffset: 0; stroke: #808080; stroke-width: 1.5"/>
   </g>
   <g id="patch_3">
    <path d="M 57.6 293.76 
L 57.6 41.472 
" style="fill: none; stroke: #000000; stroke-width: 0.8; stroke-linejoin: miter; stroke-linecap: square"/>
   </g>
   <g id="patch_4">
    <path d="M 414.72 293.76 
L 414.72 41.472 
" style="fill: none; stroke: #000000; stroke-width: 0.8; stroke-linejoin: miter; stroke-linecap: square"/>
   </g>
   <g id="patch_5">
    <path d="M 57.6 293.76 
L 414.72 293.76 
" style="fill: none; stroke: #000000; stroke-width: 0.8; stroke-linejoin: miter; stroke-linecap: square"/>
   </g>
   <g id="patch_6">
    <path d="M 57.6 41.472 
L 414.72 41.472 
" style="fill: none; stroke: #000000; stroke-width: 0.8; stroke-linejoin: miter; stroke-linecap: square"/>
   </g>
   <g id="text_14">
    <!-- $10^9$ for scale -->
    <g transform="translate(130.508041 168.449848)scale(0.11 -0.11)">
     <defs>
      <path id="DejaVuSans-66" d="M 2375 4863 
L 2375 4384 
L 1825 4384 
Q 1516 4384 1395 4259 
Q 1275 4134 1275 3809 
L 1275 3500 
L 2222 3500 
L 2222 3053 
L 1275 3053 
L 1275 0 
L 697 0 
L 697 3053 
L 147 3053 
L 147 3500 
L 697 3500 
L 697 3744 
Q 697 4328 969 4595 
Q 1241 4863 1831 4863 
L 2375 4863 
z
" transform="scale(0.015625)"/>
      <path id="DejaVuSans-63" d="M 3122 3366 
L 3122 2828 
Q 2878 2963 2633 3030 
Q 2388 3097 2138 3097 
Q 1578 3097 1268 2742 
Q 959 2388 959 1747 
Q 959 1106 1268 751 
Q 1578 397 2138 397 
Q 2388 397 2633 464 
Q 2878 531 3122 666 
L 3122 134 
Q 2881 22 2623 -34 
Q 2366 -91 2075 -91 
Q 1284 -91 818 406 
Q 353 903 353 1747 
Q 353 2603 823 3093 
Q 1294 3584 2113 3584 
Q 2378 3584 2631 3529 
Q 2884 3475 3122 3366 
z
" transform="scale(0.015625)"/>
      <path id="DejaVuSans-6c" d="M 603 4863 
L 1178 4863 
L 1178 0 
L 603 0 
L 603 4863 
z
" transform="scale(0.015625)"/>
     </defs>
     <use xlink:href="#DejaVuSans-31" transform="translate(0 0.765625)"/>
     <use xlink:href="#DejaVuSans-30" transform="translate(63.623047 0.765625)"/>
     <use xlink:href="#DejaVuSans-39" transform="translate(128.203125 39.046875)scale(0.7)"/>
     <use xlink:href="#DejaVuSans-20" transform="translate(175.473633 0.765625)"/>
     <use xlink:href="#DejaVuSans-66" transform="translate(207.260742 0.765625)"/>
     <use xlink:href="#DejaVuSans-6f" transform="translate(242.46582 0.765625)"/>
     <use xlink:href="#DejaVuSans-72" transform="translate(303.647461 0.765625)"/>
     <use xlink:href="#DejaVuSans-20" transform="translate(344.760742 0.765625)"/>
     <use xlink:href="#DejaVuSans-73" transform="translate(376.547852 0.765625)"/>
     <use xlink:href="#DejaVuSans-63" transform="translate(428.647461 0.765625)"/>
     <use xlink:href="#DejaVuSans-61" transform="translate(483.62793 0.765625)"/>
     <use xlink:href="#DejaVuSans-6c" transform="translate(544.907227 0.765625)"/>
     <use xlink:href="#DejaVuSans-65" transform="translate(572.69043 0.765625)"/>
    </g>
   </g>
   <g id="legend_1">
    <g id="patch_7">
     <path d="M 265.38545 167.968112 
L 375.5792 167.968112 
Q 377.5792 167.968112 377.5792 165.968112 
L 377.5792 93.577487 
Q 377.5792 91.577487 375.5792 91.577487 
L 265.38545 91.577487 
Q 263.38545 91.577487 263.38545 93.577487 
L 263.38545 165.968112 
Q 263.38545 167.968112 265.38545 167.968112 
z
" style="fill: #ffffff; opacity: 0.8; stroke: #cccccc; stroke-linejoin: miter"/>
    </g>
    <g id="line2d_60">
     <path d="M 267.38545 99.675925 
L 277.38545 99.675925 
L 287.38545 99.675925 
" style="fill: none; stroke: #000000; stroke-width: 0.1; stroke-linecap: square"/>
     <g>
      <use xlink:href="#mb6123d4393" x="277.38545" y="99.675925" style="fill: #17becf; stroke: #000000; stroke-linejoin: miter"/>
     </g>
    </g>
    <g id="text_15">
     <!-- DEAP -->
     <g transform="translate(295.38545 103.175925)scale(0.1 -0.1)">
      <defs>
       <path id="DejaVuSans-44" d="M 1259 4147 
L 1259 519 
L 2022 519 
Q 2988 519 3436 956 
Q 3884 1394 3884 2338 
Q 3884 3275 3436 3711 
Q 2988 4147 2022 4147 
L 1259 4147 
z
M 628 4666 
L 1925 4666 
Q 3281 4666 3915 4102 
Q 4550 3538 4550 2338 
Q 4550 1131 3912 565 
Q 3275 0 1925 0 
L 628 0 
L 628 4666 
z
" transform="scale(0.015625)"/>
       <path id="DejaVuSans-41" d="M 2188 4044 
L 1331 1722 
L 3047 1722 
L 2188 4044 
z
M 1831 4666 
L 2547 4666 
L 4325 0 
L 3669 0 
L 3244 1197 
L 1141 1197 
L 716 0 
L 50 0 
L 1831 4666 
z
" transform="scale(0.015625)"/>
      </defs>
      <use xlink:href="#DejaVuSans-44"/>
      <use xlink:href="#DejaVuSans-45" x="77.001953"/>
      <use xlink:href="#DejaVuSans-41" x="140.185547"/>
      <use xlink:href="#DejaVuSans-50" x="208.59375"/>
     </g>
    </g>
    <g id="line2d_61">
     <path d="M 267.38545 114.35405 
L 277.38545 114.35405 
L 287.38545 114.35405 
" style="fill: none; stroke: #000000; stroke-width: 0.1; stroke-linecap: square"/>
     <g>
      <use xlink:href="#m92a21b105c" x="277.38545" y="114.35405" style="fill: #8a2be2; stroke: #000000; stroke-linejoin: miter"/>
     </g>
    </g>
    <g id="text_16">
     <!-- TensorGP (CPU) -->
     <g transform="translate(295.38545 117.85405)scale(0.1 -0.1)">
      <defs>
       <path id="DejaVuSans-54" d="M -19 4666 
L 3928 4666 
L 3928 4134 
L 2272 4134 
L 2272 0 
L 1638 0 
L 1638 4134 
L -19 4134 
L -19 4666 
z
" transform="scale(0.015625)"/>
       <path id="DejaVuSans-47" d="M 3809 666 
L 3809 1919 
L 2778 1919 
L 2778 2438 
L 4434 2438 
L 4434 434 
Q 4069 175 3628 42 
Q 3188 -91 2688 -91 
Q 1594 -91 976 548 
Q 359 1188 359 2328 
Q 359 3472 976 4111 
Q 1594 4750 2688 4750 
Q 3144 4750 3555 4637 
Q 3966 4525 4313 4306 
L 4313 3634 
Q 3963 3931 3569 4081 
Q 3175 4231 2741 4231 
Q 1884 4231 1454 3753 
Q 1025 3275 1025 2328 
Q 1025 1384 1454 906 
Q 1884 428 2741 428 
Q 3075 428 3337 486 
Q 3600 544 3809 666 
z
" transform="scale(0.015625)"/>
       <path id="DejaVuSans-28" d="M 1984 4856 
Q 1566 4138 1362 3434 
Q 1159 2731 1159 2009 
Q 1159 1288 1364 580 
Q 1569 -128 1984 -844 
L 1484 -844 
Q 1016 -109 783 600 
Q 550 1309 550 2009 
Q 550 2706 781 3412 
Q 1013 4119 1484 4856 
L 1984 4856 
z
" transform="scale(0.015625)"/>
       <path id="DejaVuSans-43" d="M 4122 4306 
L 4122 3641 
Q 3803 3938 3442 4084 
Q 3081 4231 2675 4231 
Q 1875 4231 1450 3742 
Q 1025 3253 1025 2328 
Q 1025 1406 1450 917 
Q 1875 428 2675 428 
Q 3081 428 3442 575 
Q 3803 722 4122 1019 
L 4122 359 
Q 3791 134 3420 21 
Q 3050 -91 2638 -91 
Q 1578 -91 968 557 
Q 359 1206 359 2328 
Q 359 3453 968 4101 
Q 1578 4750 2638 4750 
Q 3056 4750 3426 4639 
Q 3797 4528 4122 4306 
z
" transform="scale(0.015625)"/>
       <path id="DejaVuSans-55" d="M 556 4666 
L 1191 4666 
L 1191 1831 
Q 1191 1081 1462 751 
Q 1734 422 2344 422 
Q 2950 422 3222 751 
Q 3494 1081 3494 1831 
L 3494 4666 
L 4128 4666 
L 4128 1753 
Q 4128 841 3676 375 
Q 3225 -91 2344 -91 
Q 1459 -91 1007 375 
Q 556 841 556 1753 
L 556 4666 
z
" transform="scale(0.015625)"/>
       <path id="DejaVuSans-29" d="M 513 4856 
L 1013 4856 
Q 1481 4119 1714 3412 
Q 1947 2706 1947 2009 
Q 1947 1309 1714 600 
Q 1481 -109 1013 -844 
L 513 -844 
Q 928 -128 1133 580 
Q 1338 1288 1338 2009 
Q 1338 2731 1133 3434 
Q 928 4138 513 4856 
z
" transform="scale(0.015625)"/>
      </defs>
      <use xlink:href="#DejaVuSans-54"/>
      <use xlink:href="#DejaVuSans-65" x="44.083984"/>
      <use xlink:href="#DejaVuSans-6e" x="105.607422"/>
      <use xlink:href="#DejaVuSans-73" x="168.986328"/>
      <use xlink:href="#DejaVuSans-6f" x="221.085938"/>
      <use xlink:href="#DejaVuSans-72" x="282.267578"/>
      <use xlink:href="#DejaVuSans-47" x="323.380859"/>
      <use xlink:href="#DejaVuSans-50" x="400.871094"/>
      <use xlink:href="#DejaVuSans-20" x="461.173828"/>
      <use xlink:href="#DejaVuSans-28" x="492.960938"/>
      <use xlink:href="#DejaVuSans-43" x="531.974609"/>
      <use xlink:href="#DejaVuSans-50" x="601.798828"/>
      <use xlink:href="#DejaVuSans-55" x="662.101562"/>
      <use xlink:href="#DejaVuSans-29" x="735.294922"/>
     </g>
    </g>
    <g id="line2d_62">
     <path d="M 267.38545 129.032175 
L 277.38545 129.032175 
L 287.38545 129.032175 
" style="fill: none; stroke: #000000; stroke-width: 0.1; stroke-linecap: square"/>
     <g>
      <use xlink:href="#m2da37e475f" x="277.38545" y="129.032175" style="fill: #1e90ff; stroke: #000000"/>
     </g>
    </g>
    <g id="text_17">
     <!-- TensorGP (GPU) -->
     <g transform="translate(295.38545 132.532175)scale(0.1 -0.1)">
      <use xlink:href="#DejaVuSans-54"/>
      <use xlink:href="#DejaVuSans-65" x="44.083984"/>
      <use xlink:href="#DejaVuSans-6e" x="105.607422"/>
      <use xlink:href="#DejaVuSans-73" x="168.986328"/>
      <use xlink:href="#DejaVuSans-6f" x="221.085938"/>
      <use xlink:href="#DejaVuSans-72" x="282.267578"/>
      <use xlink:href="#DejaVuSans-47" x="323.380859"/>
      <use xlink:href="#DejaVuSans-50" x="400.871094"/>
      <use xlink:href="#DejaVuSans-20" x="461.173828"/>
      <use xlink:href="#DejaVuSans-28" x="492.960938"/>
      <use xlink:href="#DejaVuSans-47" x="531.974609"/>
      <use xlink:href="#DejaVuSans-50" x="609.464844"/>
      <use xlink:href="#DejaVuSans-55" x="669.767578"/>
      <use xlink:href="#DejaVuSans-29" x="742.960938"/>
     </g>
    </g>
    <g id="line2d_63">
     <path d="M 267.38545 143.7103 
L 277.38545 143.7103 
L 287.38545 143.7103 
" style="fill: none; stroke: #000000; stroke-width: 0.1; stroke-linecap: square"/>
     <g>
      <use xlink:href="#m1bdcb9c748" x="277.38545" y="143.7103" style="fill: #ffd700; stroke: #000000; stroke-linejoin: miter"/>
     </g>
    </g>
    <g id="text_18">
     <!-- Operon -->
     <g transform="translate(295.38545 147.2103)scale(0.1 -0.1)">
      <defs>
       <path id="DejaVuSans-4f" d="M 2522 4238 
Q 1834 4238 1429 3725 
Q 1025 3213 1025 2328 
Q 1025 1447 1429 934 
Q 1834 422 2522 422 
Q 3209 422 3611 934 
Q 4013 1447 4013 2328 
Q 4013 3213 3611 3725 
Q 3209 4238 2522 4238 
z
M 2522 4750 
Q 3503 4750 4090 4092 
Q 4678 3434 4678 2328 
Q 4678 1225 4090 567 
Q 3503 -91 2522 -91 
Q 1538 -91 948 565 
Q 359 1222 359 2328 
Q 359 3434 948 4092 
Q 1538 4750 2522 4750 
z
" transform="scale(0.015625)"/>
      </defs>
      <use xlink:href="#DejaVuSans-4f"/>
      <use xlink:href="#DejaVuSans-70" x="78.710938"/>
      <use xlink:href="#DejaVuSans-65" x="142.1875"/>
      <use xlink:href="#DejaVuSans-72" x="203.710938"/>
      <use xlink:href="#DejaVuSans-6f" x="242.574219"/>
      <use xlink:href="#DejaVuSans-6e" x="303.755859"/>
     </g>
    </g>
    <g id="line2d_64">
     <path d="M 267.38545 158.388425 
L 277.38545 158.388425 
L 287.38545 158.388425 
" style="fill: none; stroke: #000000; stroke-width: 0.1; stroke-linecap: square"/>
     <g>
      <use xlink:href="#mc61dd1663f" x="277.38545" y="158.388425" style="fill: #d62728; stroke: #000000; stroke-linejoin: bevel"/>
     </g>
    </g>
    <g id="text_19">
     <!-- FPGA -->
     <g transform="translate(295.38545 161.888425)scale(0.1 -0.1)">
      <defs>
       <path id="DejaVuSans-46" d="M 628 4666 
L 3309 4666 
L 3309 4134 
L 1259 4134 
L 1259 2759 
L 3109 2759 
L 3109 2228 
L 1259 2228 
L 1259 0 
L 628 0 
L 628 4666 
z
" transform="scale(0.015625)"/>
      </defs>
      <use xlink:href="#DejaVuSans-46"/>
      <use xlink:href="#DejaVuSans-50" x="57.519531"/>
      <use xlink:href="#DejaVuSans-47" x="117.822266"/>
      <use xlink:href="#DejaVuSans-41" x="195.3125"/>
     </g>
    </g>
   </g>
  </g>
 </g>
 <defs>
  <clipPath id="pa77ae51df4">
   <rect x="57.6" y="41.472" width="357.12" height="252.288"/>
  </clipPath>
 </defs>
</svg>
