<?xml version="1.0" encoding="utf-8" standalone="no"?>
<!DOCTYPE svg PUBLIC "-//W3C//DTD SVG 1.1//EN"
  "http://www.w3.org/Graphics/SVG/1.1/DTD/svg11.dtd">
<svg xmlns:xlink="http://www.w3.org/1999/xlink" width="921.6pt" height="633.6pt" viewBox="0 0 921.6 633.6" xmlns="http://www.w3.org/2000/svg" version="1.1">
 <metadata>
  <rdf:RDF xmlns:dc="http://purl.org/dc/elements/1.1/" xmlns:cc="http://creativecommons.org/ns#" xmlns:rdf="http://www.w3.org/1999/02/22-rdf-syntax-ns#">
   <cc:Work>
    <dc:type rdf:resource="http://purl.org/dc/dcmitype/StillImage"/>
    <dc:date>2022-11-02T20:32:18.340671</dc:date>
    <dc:format>image/svg+xml</dc:format>
    <dc:creator>
     <cc:Agent>
      <dc:title>Matplotlib v3.5.3, https://matplotlib.org/</dc:title>
     </cc:Agent>
    </dc:creator>
   </cc:Work>
  </rdf:RDF>
 </metadata>
 <defs>
  <style type="text/css">*{stroke-linejoin: round; stroke-linecap: butt}</style>
 </defs>
 <g id="figure_1">
  <g id="patch_1">
   <path d="M 0 633.6 
L 921.6 633.6 
L 921.6 0 
L 0 0 
z
" style="fill: #ffffff"/>
  </g>
  <g id="axes_1">
   <g id="patch_2">
    <path d="M 115.2 563.904 
L 829.44 563.904 
L 829.44 76.032 
L 115.2 76.032 
z
" style="fill: #ffffff"/>
   </g>
   <g id="PolyCollection_1">
    <defs>
     <path id="ma1ccb98e4b" d="M 147.665455 -91.872 
L 147.665455 -91.872 
L 168.610909 -108.462683 
L 189.556364 -111.574875 
L 210.501818 -113.820816 
L 231.447273 -115.059222 
L 252.392727 -115.868701 
L 273.338182 -116.287966 
L 294.283636 -116.840307 
L 315.229091 -117.584179 
L 336.174545 -117.020599 
L 357.12 -117.709856 
L 378.065455 -117.745535 
L 399.010909 -117.829463 
L 419.956364 -118.258531 
L 440.901818 -118.333073 
L 461.847273 -118.233157 
L 482.792727 -118.34173 
L 503.738182 -118.604854 
L 524.683636 -118.668656 
L 545.629091 -118.32487 
L 566.574545 -118.65876 
L 587.52 -119.000207 
L 608.465455 -118.858676 
L 629.410909 -118.887471 
L 650.356364 -118.81878 
L 671.301818 -118.736051 
L 692.247273 -119.218886 
L 713.192727 -118.875488 
L 734.138182 -119.09296 
L 755.083636 -118.909045 
L 776.029091 -119.282692 
L 796.974545 -119.119609 
L 796.974545 -119.119609 
L 796.974545 -119.119609 
L 776.029091 -119.282692 
L 755.083636 -118.909045 
L 734.138182 -119.09296 
L 713.192727 -118.875488 
L 692.247273 -119.218886 
L 671.301818 -118.736051 
L 650.356364 -118.81878 
L 629.410909 -118.887471 
L 608.465455 -118.858676 
L 587.52 -119.000207 
L 566.574545 -118.65876 
L 545.629091 -118.32487 
L 524.683636 -118.668656 
L 503.738182 -118.604854 
L 482.792727 -118.34173 
L 461.847273 -118.233157 
L 440.901818 -118.333073 
L 419.956364 -118.258531 
L 399.010909 -117.829463 
L 378.065455 -117.745535 
L 357.12 -117.709856 
L 336.174545 -117.020599 
L 315.229091 -117.584179 
L 294.283636 -116.840307 
L 273.338182 -116.287966 
L 252.392727 -115.868701 
L 231.447273 -115.059222 
L 210.501818 -113.820816 
L 189.556364 -111.574875 
L 168.610909 -108.462683 
L 147.665455 -91.872 
z
" style="stroke: #fff8dc; stroke-width: 0.48"/>
    </defs>
    <g clip-path="url(#p9fd311a3b2)">
     <use xlink:href="#ma1ccb98e4b" x="0" y="633.6" style="fill: #fff8dc; stroke: #fff8dc; stroke-width: 0.48"/>
    </g>
   </g>
   <g id="PolyCollection_2">
    <defs>
     <path id="m1582cb60fc" d="M 147.665455 -309.694373 
L 147.665455 -309.694373 
L 168.610909 -337.211908 
L 189.556364 -349.604129 
L 210.501818 -339.693523 
L 231.447273 -349.351145 
L 252.392727 -351.911105 
L 273.338182 -354.614938 
L 294.283636 -349.954782 
L 315.229091 -356.160948 
L 336.174545 -358.269213 
L 357.12 -356.144576 
L 378.065455 -358.910938 
L 399.010909 -359.823478 
L 419.956364 -347.671485 
L 440.901818 -349.126645 
L 461.847273 -360.233941 
L 482.792727 -356.192939 
L 503.738182 -353.434598 
L 524.683636 -346.94052 
L 545.629091 -349.639373 
L 566.574545 -357.63652 
L 587.52 -353.802305 
L 608.465455 -353.109626 
L 629.410909 -348.481223 
L 650.356364 -359.657981 
L 671.301818 -354.345963 
L 692.247273 -360.0299 
L 713.192727 -352.687647 
L 734.138182 -351.162626 
L 755.083636 -350.843676 
L 776.029091 -347.069376 
L 796.974545 -348.194245 
L 796.974545 -348.194245 
L 796.974545 -348.194245 
L 776.029091 -347.069376 
L 755.083636 -350.843676 
L 734.138182 -351.162626 
L 713.192727 -352.687647 
L 692.247273 -360.0299 
L 671.301818 -354.345963 
L 650.356364 -359.657981 
L 629.410909 -348.481223 
L 608.465455 -353.109626 
L 587.52 -353.802305 
L 566.574545 -357.63652 
L 545.629091 -349.639373 
L 524.683636 -346.94052 
L 503.738182 -353.434598 
L 482.792727 -356.192939 
L 461.847273 -360.233941 
L 440.901818 -349.126645 
L 419.956364 -347.671485 
L 399.010909 -359.823478 
L 378.065455 -358.910938 
L 357.12 -356.144576 
L 336.174545 -358.269213 
L 315.229091 -356.160948 
L 294.283636 -349.954782 
L 273.338182 -354.614938 
L 252.392727 -351.911105 
L 231.447273 -349.351145 
L 210.501818 -339.693523 
L 189.556364 -349.604129 
L 168.610909 -337.211908 
L 147.665455 -309.694373 
z
" style="stroke: #fff8dc; stroke-width: 0.48"/>
    </defs>
    <g clip-path="url(#p9fd311a3b2)">
     <use xlink:href="#m1582cb60fc" x="0" y="633.6" style="fill: #fff8dc; stroke: #fff8dc; stroke-width: 0.48"/>
    </g>
   </g>
   <g id="PolyCollection_3">
    <defs>
     <path id="m26906bd3de" d="M 147.665455 -336.415766 
L 147.665455 -336.415766 
L 168.610909 -357.624287 
L 189.556364 -363.734347 
L 210.501818 -367.894876 
L 231.447273 -370.909172 
L 252.392727 -372.790418 
L 273.338182 -373.72235 
L 294.283636 -374.369446 
L 315.229091 -373.910897 
L 336.174545 -375.716571 
L 357.12 -375.562171 
L 378.065455 -376.436266 
L 399.010909 -376.313246 
L 419.956364 -376.266167 
L 440.901818 -377.165571 
L 461.847273 -377.014939 
L 482.792727 -376.419907 
L 503.738182 -376.683852 
L 524.683636 -376.864693 
L 545.629091 -377.189353 
L 566.574545 -377.711595 
L 587.52 -377.15372 
L 608.465455 -377.468899 
L 629.410909 -377.578341 
L 650.356364 -377.652724 
L 671.301818 -378.00457 
L 692.247273 -377.579028 
L 713.192727 -375.120584 
L 734.138182 -377.249807 
L 755.083636 -377.529681 
L 776.029091 -377.728488 
L 796.974545 -377.874591 
L 796.974545 -377.874591 
L 796.974545 -377.874591 
L 776.029091 -377.728488 
L 755.083636 -377.529681 
L 734.138182 -377.249807 
L 713.192727 -375.120584 
L 692.247273 -377.579028 
L 671.301818 -378.00457 
L 650.356364 -377.652724 
L 629.410909 -377.578341 
L 608.465455 -377.468899 
L 587.52 -377.15372 
L 566.574545 -377.711595 
L 545.629091 -377.189353 
L 524.683636 -376.864693 
L 503.738182 -376.683852 
L 482.792727 -376.419907 
L 461.847273 -377.014939 
L 440.901818 -377.165571 
L 419.956364 -376.266167 
L 399.010909 -376.313246 
L 378.065455 -376.436266 
L 357.12 -375.562171 
L 336.174545 -375.716571 
L 315.229091 -373.910897 
L 294.283636 -374.369446 
L 273.338182 -373.72235 
L 252.392727 -372.790418 
L 231.447273 -370.909172 
L 210.501818 -367.894876 
L 189.556364 -363.734347 
L 168.610909 -357.624287 
L 147.665455 -336.415766 
z
" style="stroke: #fff8dc; stroke-width: 0.48"/>
    </defs>
    <g clip-path="url(#p9fd311a3b2)">
     <use xlink:href="#m26906bd3de" x="0" y="633.6" style="fill: #fff8dc; stroke: #fff8dc; stroke-width: 0.48"/>
    </g>
   </g>
   <g id="PolyCollection_4">
    <defs>
     <path id="mbac0fa33be" d="M 147.665455 -522.429 
L 147.665455 -522.429 
L 168.610909 -532.169882 
L 189.556364 -531.201718 
L 210.501818 -529.194408 
L 231.447273 -533.01448 
L 252.392727 -532.324868 
L 273.338182 -532.887414 
L 294.283636 -532.260656 
L 315.229091 -532.634136 
L 336.174545 -531.067172 
L 357.12 -531.966831 
L 378.065455 -532.024173 
L 399.010909 -531.956265 
L 419.956364 -531.375978 
L 440.901818 -531.494948 
L 461.847273 -531.124965 
L 482.792727 -531.215779 
L 503.738182 -530.604402 
L 524.683636 -530.137633 
L 545.629091 -529.192536 
L 566.574545 -528.234262 
L 587.52 -526.007264 
L 608.465455 -525.296586 
L 629.410909 -523.178368 
L 650.356364 -520.509329 
L 671.301818 -517.709409 
L 692.247273 -510.714713 
L 713.192727 -506.89194 
L 734.138182 -503.620528 
L 755.083636 -499.500154 
L 776.029091 -497.057889 
L 796.974545 -493.804054 
L 796.974545 -493.804054 
L 796.974545 -494.947867 
L 776.029091 -498.040861 
L 755.083636 -500.81697 
L 734.138182 -504.852576 
L 713.192727 -510.350065 
L 692.247273 -514.518483 
L 671.301818 -518.322276 
L 650.356364 -522.237869 
L 629.410909 -524.497713 
L 608.465455 -526.613582 
L 587.52 -527.668494 
L 566.574545 -528.839194 
L 545.629091 -529.873619 
L 524.683636 -531.060068 
L 503.738182 -531.866545 
L 482.792727 -532.437493 
L 461.847273 -532.638276 
L 440.901818 -533.029123 
L 419.956364 -533.597149 
L 399.010909 -533.742475 
L 378.065455 -533.663384 
L 357.12 -534.400638 
L 336.174545 -534.420424 
L 315.229091 -533.590112 
L 294.283636 -534.728879 
L 273.338182 -534.123228 
L 252.392727 -534.734453 
L 231.447273 -535.392 
L 210.501818 -534.555288 
L 189.556364 -534.844648 
L 168.610909 -535.122802 
L 147.665455 -532.317584 
z
" style="stroke: #fff8dc; stroke-width: 0.48"/>
    </defs>
    <g clip-path="url(#p9fd311a3b2)">
     <use xlink:href="#mbac0fa33be" x="0" y="633.6" style="fill: #fff8dc; stroke: #fff8dc; stroke-width: 0.48"/>
    </g>
   </g>
   <g id="PolyCollection_5">
    <defs>
     <path id="mfa0ee40f65" d="M 147.665455 -259.621241 
L 147.665455 -259.621241 
L 168.610909 -322.396126 
L 189.556364 -353.212296 
L 210.501818 -372.892303 
L 231.447273 -387.94452 
L 252.392727 -400.11489 
L 273.338182 -410.027727 
L 294.283636 -418.632619 
L 315.229091 -426.034474 
L 336.174545 -432.841094 
L 357.12 -438.797193 
L 378.065455 -444.369409 
L 399.010909 -449.28077 
L 419.956364 -453.964101 
L 440.901818 -458.218901 
L 461.847273 -462.234452 
L 482.792727 -465.98831 
L 503.738182 -469.499898 
L 524.683636 -472.835777 
L 545.629091 -476.009965 
L 566.574545 -478.984495 
L 587.52 -481.935914 
L 608.465455 -484.657319 
L 629.410909 -487.259725 
L 650.356364 -489.74287 
L 671.301818 -492.157623 
L 692.247273 -494.471724 
L 713.192727 -496.703831 
L 734.138182 -498.871295 
L 755.083636 -500.941491 
L 776.029091 -502.949499 
L 796.974545 -504.851725 
L 796.974545 -504.851725 
L 796.974545 -504.851725 
L 776.029091 -502.949499 
L 755.083636 -500.941491 
L 734.138182 -498.871295 
L 713.192727 -496.703831 
L 692.247273 -494.471724 
L 671.301818 -492.157623 
L 650.356364 -489.74287 
L 629.410909 -487.259725 
L 608.465455 -484.657319 
L 587.52 -481.935914 
L 566.574545 -478.984495 
L 545.629091 -476.009965 
L 524.683636 -472.835777 
L 503.738182 -469.499898 
L 482.792727 -465.98831 
L 461.847273 -462.234452 
L 440.901818 -458.218901 
L 419.956364 -453.964101 
L 399.010909 -449.28077 
L 378.065455 -444.369409 
L 357.12 -438.797193 
L 336.174545 -432.841094 
L 315.229091 -426.034474 
L 294.283636 -418.632619 
L 273.338182 -410.027727 
L 252.392727 -400.11489 
L 231.447273 -387.94452 
L 210.501818 -372.892303 
L 189.556364 -353.212296 
L 168.610909 -322.396126 
L 147.665455 -259.621241 
z
" style="stroke: #fff8dc; stroke-width: 0.48"/>
    </defs>
    <g clip-path="url(#p9fd311a3b2)">
     <use xlink:href="#mfa0ee40f65" x="0" y="633.6" style="fill: #fff8dc; stroke: #fff8dc; stroke-width: 0.48"/>
    </g>
   </g>
   <g id="matplotlib.axis_1">
    <g id="xtick_1">
     <g id="line2d_1">
      <defs>
       <path id="m32c0a3d9ae" d="M 0 0 
L 0 3.5 
" style="stroke: #000000; stroke-width: 1.6"/>
      </defs>
      <g>
       <use xlink:href="#m32c0a3d9ae" x="147.665455" y="563.904" style="stroke: #000000; stroke-width: 1.6"/>
      </g>
     </g>
     <g id="text_1">
      <!-- 1, 32 -->
      <g transform="translate(133.671392 586.962281)scale(0.11 -0.11)">
       <defs>
        <path id="DejaVuSans-31" d="M 794 531 
L 1825 531 
L 1825 4091 
L 703 3866 
L 703 4441 
L 1819 4666 
L 2450 4666 
L 2450 531 
L 3481 531 
L 3481 0 
L 794 0 
L 794 531 
z
" transform="scale(0.015625)"/>
        <path id="DejaVuSans-2c" d="M 750 794 
L 1409 794 
L 1409 256 
L 897 -744 
L 494 -744 
L 750 256 
L 750 794 
z
" transform="scale(0.015625)"/>
        <path id="DejaVuSans-20" transform="scale(0.015625)"/>
        <path id="DejaVuSans-33" d="M 2597 2516 
Q 3050 2419 3304 2112 
Q 3559 1806 3559 1356 
Q 3559 666 3084 287 
Q 2609 -91 1734 -91 
Q 1441 -91 1130 -33 
Q 819 25 488 141 
L 488 750 
Q 750 597 1062 519 
Q 1375 441 1716 441 
Q 2309 441 2620 675 
Q 2931 909 2931 1356 
Q 2931 1769 2642 2001 
Q 2353 2234 1838 2234 
L 1294 2234 
L 1294 2753 
L 1863 2753 
Q 2328 2753 2575 2939 
Q 2822 3125 2822 3475 
Q 2822 3834 2567 4026 
Q 2313 4219 1838 4219 
Q 1578 4219 1281 4162 
Q 984 4106 628 3988 
L 628 4550 
Q 988 4650 1302 4700 
Q 1616 4750 1894 4750 
Q 2613 4750 3031 4423 
Q 3450 4097 3450 3541 
Q 3450 3153 3228 2886 
Q 3006 2619 2597 2516 
z
" transform="scale(0.015625)"/>
        <path id="DejaVuSans-32" d="M 1228 531 
L 3431 531 
L 3431 0 
L 469 0 
L 469 531 
Q 828 903 1448 1529 
Q 2069 2156 2228 2338 
Q 2531 2678 2651 2914 
Q 2772 3150 2772 3378 
Q 2772 3750 2511 3984 
Q 2250 4219 1831 4219 
Q 1534 4219 1204 4116 
Q 875 4013 500 3803 
L 500 4441 
Q 881 4594 1212 4672 
Q 1544 4750 1819 4750 
Q 2544 4750 2975 4387 
Q 3406 4025 3406 3419 
Q 3406 3131 3298 2873 
Q 3191 2616 2906 2266 
Q 2828 2175 2409 1742 
Q 1991 1309 1228 531 
z
" transform="scale(0.015625)"/>
       </defs>
       <use xlink:href="#DejaVuSans-31"/>
       <use xlink:href="#DejaVuSans-2c" x="63.623047"/>
       <use xlink:href="#DejaVuSans-20" x="95.410156"/>
       <use xlink:href="#DejaVuSans-33" x="127.197266"/>
       <use xlink:href="#DejaVuSans-32" x="190.820312"/>
      </g>
     </g>
    </g>
    <g id="xtick_2">
     <g id="line2d_2">
      <g>
       <use xlink:href="#m32c0a3d9ae" x="273.338182" y="563.904" style="stroke: #000000; stroke-width: 1.6"/>
      </g>
     </g>
     <g id="text_2">
      <!-- 7, 224 -->
      <g transform="translate(255.844744 586.962281)scale(0.11 -0.11)">
       <defs>
        <path id="DejaVuSans-37" d="M 525 4666 
L 3525 4666 
L 3525 4397 
L 1831 0 
L 1172 0 
L 2766 4134 
L 525 4134 
L 525 4666 
z
" transform="scale(0.015625)"/>
        <path id="DejaVuSans-34" d="M 2419 4116 
L 825 1625 
L 2419 1625 
L 2419 4116 
z
M 2253 4666 
L 3047 4666 
L 3047 1625 
L 3713 1625 
L 3713 1100 
L 3047 1100 
L 3047 0 
L 2419 0 
L 2419 1100 
L 313 1100 
L 313 1709 
L 2253 4666 
z
" transform="scale(0.015625)"/>
       </defs>
       <use xlink:href="#DejaVuSans-37"/>
       <use xlink:href="#DejaVuSans-2c" x="63.623047"/>
       <use xlink:href="#DejaVuSans-20" x="95.410156"/>
       <use xlink:href="#DejaVuSans-32" x="127.197266"/>
       <use xlink:href="#DejaVuSans-32" x="190.820312"/>
       <use xlink:href="#DejaVuSans-34" x="254.443359"/>
      </g>
     </g>
    </g>
    <g id="xtick_3">
     <g id="line2d_3">
      <g>
       <use xlink:href="#m32c0a3d9ae" x="399.010909" y="563.904" style="stroke: #000000; stroke-width: 1.6"/>
      </g>
     </g>
     <g id="text_3">
      <!-- 13, 416 -->
      <g transform="translate(378.018097 586.962281)scale(0.11 -0.11)">
       <defs>
        <path id="DejaVuSans-36" d="M 2113 2584 
Q 1688 2584 1439 2293 
Q 1191 2003 1191 1497 
Q 1191 994 1439 701 
Q 1688 409 2113 409 
Q 2538 409 2786 701 
Q 3034 994 3034 1497 
Q 3034 2003 2786 2293 
Q 2538 2584 2113 2584 
z
M 3366 4563 
L 3366 3988 
Q 3128 4100 2886 4159 
Q 2644 4219 2406 4219 
Q 1781 4219 1451 3797 
Q 1122 3375 1075 2522 
Q 1259 2794 1537 2939 
Q 1816 3084 2150 3084 
Q 2853 3084 3261 2657 
Q 3669 2231 3669 1497 
Q 3669 778 3244 343 
Q 2819 -91 2113 -91 
Q 1303 -91 875 529 
Q 447 1150 447 2328 
Q 447 3434 972 4092 
Q 1497 4750 2381 4750 
Q 2619 4750 2861 4703 
Q 3103 4656 3366 4563 
z
" transform="scale(0.015625)"/>
       </defs>
       <use xlink:href="#DejaVuSans-31"/>
       <use xlink:href="#DejaVuSans-33" x="63.623047"/>
       <use xlink:href="#DejaVuSans-2c" x="127.246094"/>
       <use xlink:href="#DejaVuSans-20" x="159.033203"/>
       <use xlink:href="#DejaVuSans-34" x="190.820312"/>
       <use xlink:href="#DejaVuSans-31" x="254.443359"/>
       <use xlink:href="#DejaVuSans-36" x="318.066406"/>
      </g>
     </g>
    </g>
    <g id="xtick_4">
     <g id="line2d_4">
      <g>
       <use xlink:href="#m32c0a3d9ae" x="524.683636" y="563.904" style="stroke: #000000; stroke-width: 1.6"/>
      </g>
     </g>
     <g id="text_4">
      <!-- 19, 608 -->
      <g transform="translate(503.690824 586.962281)scale(0.11 -0.11)">
       <defs>
        <path id="DejaVuSans-39" d="M 703 97 
L 703 672 
Q 941 559 1184 500 
Q 1428 441 1663 441 
Q 2288 441 2617 861 
Q 2947 1281 2994 2138 
Q 2813 1869 2534 1725 
Q 2256 1581 1919 1581 
Q 1219 1581 811 2004 
Q 403 2428 403 3163 
Q 403 3881 828 4315 
Q 1253 4750 1959 4750 
Q 2769 4750 3195 4129 
Q 3622 3509 3622 2328 
Q 3622 1225 3098 567 
Q 2575 -91 1691 -91 
Q 1453 -91 1209 -44 
Q 966 3 703 97 
z
M 1959 2075 
Q 2384 2075 2632 2365 
Q 2881 2656 2881 3163 
Q 2881 3666 2632 3958 
Q 2384 4250 1959 4250 
Q 1534 4250 1286 3958 
Q 1038 3666 1038 3163 
Q 1038 2656 1286 2365 
Q 1534 2075 1959 2075 
z
" transform="scale(0.015625)"/>
        <path id="DejaVuSans-30" d="M 2034 4250 
Q 1547 4250 1301 3770 
Q 1056 3291 1056 2328 
Q 1056 1369 1301 889 
Q 1547 409 2034 409 
Q 2525 409 2770 889 
Q 3016 1369 3016 2328 
Q 3016 3291 2770 3770 
Q 2525 4250 2034 4250 
z
M 2034 4750 
Q 2819 4750 3233 4129 
Q 3647 3509 3647 2328 
Q 3647 1150 3233 529 
Q 2819 -91 2034 -91 
Q 1250 -91 836 529 
Q 422 1150 422 2328 
Q 422 3509 836 4129 
Q 1250 4750 2034 4750 
z
" transform="scale(0.015625)"/>
        <path id="DejaVuSans-38" d="M 2034 2216 
Q 1584 2216 1326 1975 
Q 1069 1734 1069 1313 
Q 1069 891 1326 650 
Q 1584 409 2034 409 
Q 2484 409 2743 651 
Q 3003 894 3003 1313 
Q 3003 1734 2745 1975 
Q 2488 2216 2034 2216 
z
M 1403 2484 
Q 997 2584 770 2862 
Q 544 3141 544 3541 
Q 544 4100 942 4425 
Q 1341 4750 2034 4750 
Q 2731 4750 3128 4425 
Q 3525 4100 3525 3541 
Q 3525 3141 3298 2862 
Q 3072 2584 2669 2484 
Q 3125 2378 3379 2068 
Q 3634 1759 3634 1313 
Q 3634 634 3220 271 
Q 2806 -91 2034 -91 
Q 1263 -91 848 271 
Q 434 634 434 1313 
Q 434 1759 690 2068 
Q 947 2378 1403 2484 
z
M 1172 3481 
Q 1172 3119 1398 2916 
Q 1625 2713 2034 2713 
Q 2441 2713 2670 2916 
Q 2900 3119 2900 3481 
Q 2900 3844 2670 4047 
Q 2441 4250 2034 4250 
Q 1625 4250 1398 4047 
Q 1172 3844 1172 3481 
z
" transform="scale(0.015625)"/>
       </defs>
       <use xlink:href="#DejaVuSans-31"/>
       <use xlink:href="#DejaVuSans-39" x="63.623047"/>
       <use xlink:href="#DejaVuSans-2c" x="127.246094"/>
       <use xlink:href="#DejaVuSans-20" x="159.033203"/>
       <use xlink:href="#DejaVuSans-36" x="190.820312"/>
       <use xlink:href="#DejaVuSans-30" x="254.443359"/>
       <use xlink:href="#DejaVuSans-38" x="318.066406"/>
      </g>
     </g>
    </g>
    <g id="xtick_5">
     <g id="line2d_5">
      <g>
       <use xlink:href="#m32c0a3d9ae" x="650.356364" y="563.904" style="stroke: #000000; stroke-width: 1.6"/>
      </g>
     </g>
     <g id="text_5">
      <!-- 25, 800 -->
      <g transform="translate(629.363551 586.962281)scale(0.11 -0.11)">
       <defs>
        <path id="DejaVuSans-35" d="M 691 4666 
L 3169 4666 
L 3169 4134 
L 1269 4134 
L 1269 2991 
Q 1406 3038 1543 3061 
Q 1681 3084 1819 3084 
Q 2600 3084 3056 2656 
Q 3513 2228 3513 1497 
Q 3513 744 3044 326 
Q 2575 -91 1722 -91 
Q 1428 -91 1123 -41 
Q 819 9 494 109 
L 494 744 
Q 775 591 1075 516 
Q 1375 441 1709 441 
Q 2250 441 2565 725 
Q 2881 1009 2881 1497 
Q 2881 1984 2565 2268 
Q 2250 2553 1709 2553 
Q 1456 2553 1204 2497 
Q 953 2441 691 2322 
L 691 4666 
z
" transform="scale(0.015625)"/>
       </defs>
       <use xlink:href="#DejaVuSans-32"/>
       <use xlink:href="#DejaVuSans-35" x="63.623047"/>
       <use xlink:href="#DejaVuSans-2c" x="127.246094"/>
       <use xlink:href="#DejaVuSans-20" x="159.033203"/>
       <use xlink:href="#DejaVuSans-38" x="190.820312"/>
       <use xlink:href="#DejaVuSans-30" x="254.443359"/>
       <use xlink:href="#DejaVuSans-30" x="318.066406"/>
      </g>
     </g>
    </g>
    <g id="xtick_6">
     <g id="line2d_6">
      <g>
       <use xlink:href="#m32c0a3d9ae" x="776.029091" y="563.904" style="stroke: #000000; stroke-width: 1.6"/>
      </g>
     </g>
     <g id="text_6">
      <!-- 31, 992 -->
      <g transform="translate(755.036278 586.962281)scale(0.11 -0.11)">
       <use xlink:href="#DejaVuSans-33"/>
       <use xlink:href="#DejaVuSans-31" x="63.623047"/>
       <use xlink:href="#DejaVuSans-2c" x="127.246094"/>
       <use xlink:href="#DejaVuSans-20" x="159.033203"/>
       <use xlink:href="#DejaVuSans-39" x="190.820312"/>
       <use xlink:href="#DejaVuSans-39" x="254.443359"/>
       <use xlink:href="#DejaVuSans-32" x="318.066406"/>
      </g>
     </g>
    </g>
    <g id="text_7">
     <!-- Bin number, maximum program size -->
     <g transform="translate(343.975 603.88775)scale(0.14 -0.14)">
      <defs>
       <path id="DejaVuSans-42" d="M 1259 2228 
L 1259 519 
L 2272 519 
Q 2781 519 3026 730 
Q 3272 941 3272 1375 
Q 3272 1813 3026 2020 
Q 2781 2228 2272 2228 
L 1259 2228 
z
M 1259 4147 
L 1259 2741 
L 2194 2741 
Q 2656 2741 2882 2914 
Q 3109 3088 3109 3444 
Q 3109 3797 2882 3972 
Q 2656 4147 2194 4147 
L 1259 4147 
z
M 628 4666 
L 2241 4666 
Q 2963 4666 3353 4366 
Q 3744 4066 3744 3513 
Q 3744 3084 3544 2831 
Q 3344 2578 2956 2516 
Q 3422 2416 3680 2098 
Q 3938 1781 3938 1306 
Q 3938 681 3513 340 
Q 3088 0 2303 0 
L 628 0 
L 628 4666 
z
" transform="scale(0.015625)"/>
       <path id="DejaVuSans-69" d="M 603 3500 
L 1178 3500 
L 1178 0 
L 603 0 
L 603 3500 
z
M 603 4863 
L 1178 4863 
L 1178 4134 
L 603 4134 
L 603 4863 
z
" transform="scale(0.015625)"/>
       <path id="DejaVuSans-6e" d="M 3513 2113 
L 3513 0 
L 2938 0 
L 2938 2094 
Q 2938 2591 2744 2837 
Q 2550 3084 2163 3084 
Q 1697 3084 1428 2787 
Q 1159 2491 1159 1978 
L 1159 0 
L 581 0 
L 581 3500 
L 1159 3500 
L 1159 2956 
Q 1366 3272 1645 3428 
Q 1925 3584 2291 3584 
Q 2894 3584 3203 3211 
Q 3513 2838 3513 2113 
z
" transform="scale(0.015625)"/>
       <path id="DejaVuSans-75" d="M 544 1381 
L 544 3500 
L 1119 3500 
L 1119 1403 
Q 1119 906 1312 657 
Q 1506 409 1894 409 
Q 2359 409 2629 706 
Q 2900 1003 2900 1516 
L 2900 3500 
L 3475 3500 
L 3475 0 
L 2900 0 
L 2900 538 
Q 2691 219 2414 64 
Q 2138 -91 1772 -91 
Q 1169 -91 856 284 
Q 544 659 544 1381 
z
M 1991 3584 
L 1991 3584 
z
" transform="scale(0.015625)"/>
       <path id="DejaVuSans-6d" d="M 3328 2828 
Q 3544 3216 3844 3400 
Q 4144 3584 4550 3584 
Q 5097 3584 5394 3201 
Q 5691 2819 5691 2113 
L 5691 0 
L 5113 0 
L 5113 2094 
Q 5113 2597 4934 2840 
Q 4756 3084 4391 3084 
Q 3944 3084 3684 2787 
Q 3425 2491 3425 1978 
L 3425 0 
L 2847 0 
L 2847 2094 
Q 2847 2600 2669 2842 
Q 2491 3084 2119 3084 
Q 1678 3084 1418 2786 
Q 1159 2488 1159 1978 
L 1159 0 
L 581 0 
L 581 3500 
L 1159 3500 
L 1159 2956 
Q 1356 3278 1631 3431 
Q 1906 3584 2284 3584 
Q 2666 3584 2933 3390 
Q 3200 3197 3328 2828 
z
" transform="scale(0.015625)"/>
       <path id="DejaVuSans-62" d="M 3116 1747 
Q 3116 2381 2855 2742 
Q 2594 3103 2138 3103 
Q 1681 3103 1420 2742 
Q 1159 2381 1159 1747 
Q 1159 1113 1420 752 
Q 1681 391 2138 391 
Q 2594 391 2855 752 
Q 3116 1113 3116 1747 
z
M 1159 2969 
Q 1341 3281 1617 3432 
Q 1894 3584 2278 3584 
Q 2916 3584 3314 3078 
Q 3713 2572 3713 1747 
Q 3713 922 3314 415 
Q 2916 -91 2278 -91 
Q 1894 -91 1617 61 
Q 1341 213 1159 525 
L 1159 0 
L 581 0 
L 581 4863 
L 1159 4863 
L 1159 2969 
z
" transform="scale(0.015625)"/>
       <path id="DejaVuSans-65" d="M 3597 1894 
L 3597 1613 
L 953 1613 
Q 991 1019 1311 708 
Q 1631 397 2203 397 
Q 2534 397 2845 478 
Q 3156 559 3463 722 
L 3463 178 
Q 3153 47 2828 -22 
Q 2503 -91 2169 -91 
Q 1331 -91 842 396 
Q 353 884 353 1716 
Q 353 2575 817 3079 
Q 1281 3584 2069 3584 
Q 2775 3584 3186 3129 
Q 3597 2675 3597 1894 
z
M 3022 2063 
Q 3016 2534 2758 2815 
Q 2500 3097 2075 3097 
Q 1594 3097 1305 2825 
Q 1016 2553 972 2059 
L 3022 2063 
z
" transform="scale(0.015625)"/>
       <path id="DejaVuSans-72" d="M 2631 2963 
Q 2534 3019 2420 3045 
Q 2306 3072 2169 3072 
Q 1681 3072 1420 2755 
Q 1159 2438 1159 1844 
L 1159 0 
L 581 0 
L 581 3500 
L 1159 3500 
L 1159 2956 
Q 1341 3275 1631 3429 
Q 1922 3584 2338 3584 
Q 2397 3584 2469 3576 
Q 2541 3569 2628 3553 
L 2631 2963 
z
" transform="scale(0.015625)"/>
       <path id="DejaVuSans-61" d="M 2194 1759 
Q 1497 1759 1228 1600 
Q 959 1441 959 1056 
Q 959 750 1161 570 
Q 1363 391 1709 391 
Q 2188 391 2477 730 
Q 2766 1069 2766 1631 
L 2766 1759 
L 2194 1759 
z
M 3341 1997 
L 3341 0 
L 2766 0 
L 2766 531 
Q 2569 213 2275 61 
Q 1981 -91 1556 -91 
Q 1019 -91 701 211 
Q 384 513 384 1019 
Q 384 1609 779 1909 
Q 1175 2209 1959 2209 
L 2766 2209 
L 2766 2266 
Q 2766 2663 2505 2880 
Q 2244 3097 1772 3097 
Q 1472 3097 1187 3025 
Q 903 2953 641 2809 
L 641 3341 
Q 956 3463 1253 3523 
Q 1550 3584 1831 3584 
Q 2591 3584 2966 3190 
Q 3341 2797 3341 1997 
z
" transform="scale(0.015625)"/>
       <path id="DejaVuSans-78" d="M 3513 3500 
L 2247 1797 
L 3578 0 
L 2900 0 
L 1881 1375 
L 863 0 
L 184 0 
L 1544 1831 
L 300 3500 
L 978 3500 
L 1906 2253 
L 2834 3500 
L 3513 3500 
z
" transform="scale(0.015625)"/>
       <path id="DejaVuSans-70" d="M 1159 525 
L 1159 -1331 
L 581 -1331 
L 581 3500 
L 1159 3500 
L 1159 2969 
Q 1341 3281 1617 3432 
Q 1894 3584 2278 3584 
Q 2916 3584 3314 3078 
Q 3713 2572 3713 1747 
Q 3713 922 3314 415 
Q 2916 -91 2278 -91 
Q 1894 -91 1617 61 
Q 1341 213 1159 525 
z
M 3116 1747 
Q 3116 2381 2855 2742 
Q 2594 3103 2138 3103 
Q 1681 3103 1420 2742 
Q 1159 2381 1159 1747 
Q 1159 1113 1420 752 
Q 1681 391 2138 391 
Q 2594 391 2855 752 
Q 3116 1113 3116 1747 
z
" transform="scale(0.015625)"/>
       <path id="DejaVuSans-6f" d="M 1959 3097 
Q 1497 3097 1228 2736 
Q 959 2375 959 1747 
Q 959 1119 1226 758 
Q 1494 397 1959 397 
Q 2419 397 2687 759 
Q 2956 1122 2956 1747 
Q 2956 2369 2687 2733 
Q 2419 3097 1959 3097 
z
M 1959 3584 
Q 2709 3584 3137 3096 
Q 3566 2609 3566 1747 
Q 3566 888 3137 398 
Q 2709 -91 1959 -91 
Q 1206 -91 779 398 
Q 353 888 353 1747 
Q 353 2609 779 3096 
Q 1206 3584 1959 3584 
z
" transform="scale(0.015625)"/>
       <path id="DejaVuSans-67" d="M 2906 1791 
Q 2906 2416 2648 2759 
Q 2391 3103 1925 3103 
Q 1463 3103 1205 2759 
Q 947 2416 947 1791 
Q 947 1169 1205 825 
Q 1463 481 1925 481 
Q 2391 481 2648 825 
Q 2906 1169 2906 1791 
z
M 3481 434 
Q 3481 -459 3084 -895 
Q 2688 -1331 1869 -1331 
Q 1566 -1331 1297 -1286 
Q 1028 -1241 775 -1147 
L 775 -588 
Q 1028 -725 1275 -790 
Q 1522 -856 1778 -856 
Q 2344 -856 2625 -561 
Q 2906 -266 2906 331 
L 2906 616 
Q 2728 306 2450 153 
Q 2172 0 1784 0 
Q 1141 0 747 490 
Q 353 981 353 1791 
Q 353 2603 747 3093 
Q 1141 3584 1784 3584 
Q 2172 3584 2450 3431 
Q 2728 3278 2906 2969 
L 2906 3500 
L 3481 3500 
L 3481 434 
z
" transform="scale(0.015625)"/>
       <path id="DejaVuSans-73" d="M 2834 3397 
L 2834 2853 
Q 2591 2978 2328 3040 
Q 2066 3103 1784 3103 
Q 1356 3103 1142 2972 
Q 928 2841 928 2578 
Q 928 2378 1081 2264 
Q 1234 2150 1697 2047 
L 1894 2003 
Q 2506 1872 2764 1633 
Q 3022 1394 3022 966 
Q 3022 478 2636 193 
Q 2250 -91 1575 -91 
Q 1294 -91 989 -36 
Q 684 19 347 128 
L 347 722 
Q 666 556 975 473 
Q 1284 391 1588 391 
Q 1994 391 2212 530 
Q 2431 669 2431 922 
Q 2431 1156 2273 1281 
Q 2116 1406 1581 1522 
L 1381 1569 
Q 847 1681 609 1914 
Q 372 2147 372 2553 
Q 372 3047 722 3315 
Q 1072 3584 1716 3584 
Q 2034 3584 2315 3537 
Q 2597 3491 2834 3397 
z
" transform="scale(0.015625)"/>
       <path id="DejaVuSans-7a" d="M 353 3500 
L 3084 3500 
L 3084 2975 
L 922 459 
L 3084 459 
L 3084 0 
L 275 0 
L 275 525 
L 2438 3041 
L 353 3041 
L 353 3500 
z
" transform="scale(0.015625)"/>
      </defs>
      <use xlink:href="#DejaVuSans-42"/>
      <use xlink:href="#DejaVuSans-69" x="68.603516"/>
      <use xlink:href="#DejaVuSans-6e" x="96.386719"/>
      <use xlink:href="#DejaVuSans-20" x="159.765625"/>
      <use xlink:href="#DejaVuSans-6e" x="191.552734"/>
      <use xlink:href="#DejaVuSans-75" x="254.931641"/>
      <use xlink:href="#DejaVuSans-6d" x="318.310547"/>
      <use xlink:href="#DejaVuSans-62" x="415.722656"/>
      <use xlink:href="#DejaVuSans-65" x="479.199219"/>
      <use xlink:href="#DejaVuSans-72" x="540.722656"/>
      <use xlink:href="#DejaVuSans-2c" x="581.835938"/>
      <use xlink:href="#DejaVuSans-20" x="613.623047"/>
      <use xlink:href="#DejaVuSans-6d" x="645.410156"/>
      <use xlink:href="#DejaVuSans-61" x="742.822266"/>
      <use xlink:href="#DejaVuSans-78" x="804.101562"/>
      <use xlink:href="#DejaVuSans-69" x="863.28125"/>
      <use xlink:href="#DejaVuSans-6d" x="891.064453"/>
      <use xlink:href="#DejaVuSans-75" x="988.476562"/>
      <use xlink:href="#DejaVuSans-6d" x="1051.855469"/>
      <use xlink:href="#DejaVuSans-20" x="1149.267578"/>
      <use xlink:href="#DejaVuSans-70" x="1181.054688"/>
      <use xlink:href="#DejaVuSans-72" x="1244.53125"/>
      <use xlink:href="#DejaVuSans-6f" x="1283.394531"/>
      <use xlink:href="#DejaVuSans-67" x="1344.576172"/>
      <use xlink:href="#DejaVuSans-72" x="1408.052734"/>
      <use xlink:href="#DejaVuSans-61" x="1449.166016"/>
      <use xlink:href="#DejaVuSans-6d" x="1510.445312"/>
      <use xlink:href="#DejaVuSans-20" x="1607.857422"/>
      <use xlink:href="#DejaVuSans-73" x="1639.644531"/>
      <use xlink:href="#DejaVuSans-69" x="1691.744141"/>
      <use xlink:href="#DejaVuSans-7a" x="1719.527344"/>
      <use xlink:href="#DejaVuSans-65" x="1772.017578"/>
     </g>
    </g>
   </g>
   <g id="matplotlib.axis_2">
    <g id="ytick_1">
     <g id="line2d_7">
      <defs>
       <path id="mc52b27ee39" d="M 0 0 
L -3.5 0 
" style="stroke: #000000; stroke-width: 1.6"/>
      </defs>
      <g>
       <use xlink:href="#mc52b27ee39" x="115.2" y="560.379844" style="stroke: #000000; stroke-width: 1.6"/>
      </g>
     </g>
     <g id="text_8">
      <!-- $\mathdefault{10^{8}}$ -->
      <g transform="translate(81.14 564.558985)scale(0.11 -0.11)">
       <use xlink:href="#DejaVuSans-31" transform="translate(0 0.765625)"/>
       <use xlink:href="#DejaVuSans-30" transform="translate(63.623047 0.765625)"/>
       <use xlink:href="#DejaVuSans-38" transform="translate(128.203125 39.046875)scale(0.7)"/>
      </g>
     </g>
    </g>
    <g id="ytick_2">
     <g id="line2d_8">
      <g>
       <use xlink:href="#mc52b27ee39" x="115.2" y="421.688108" style="stroke: #000000; stroke-width: 1.6"/>
      </g>
     </g>
     <g id="text_9">
      <!-- $\mathdefault{10^{9}}$ -->
      <g transform="translate(81.14 425.867248)scale(0.11 -0.11)">
       <use xlink:href="#DejaVuSans-31" transform="translate(0 0.765625)"/>
       <use xlink:href="#DejaVuSans-30" transform="translate(63.623047 0.765625)"/>
       <use xlink:href="#DejaVuSans-39" transform="translate(128.203125 39.046875)scale(0.7)"/>
      </g>
     </g>
    </g>
    <g id="ytick_3">
     <g id="line2d_9">
      <g>
       <use xlink:href="#mc52b27ee39" x="115.2" y="282.996371" style="stroke: #000000; stroke-width: 1.6"/>
      </g>
     </g>
     <g id="text_10">
      <!-- $\mathdefault{10^{10}}$ -->
      <g transform="translate(76.19 287.175512)scale(0.11 -0.11)">
       <use xlink:href="#DejaVuSans-31" transform="translate(0 0.765625)"/>
       <use xlink:href="#DejaVuSans-30" transform="translate(63.623047 0.765625)"/>
       <use xlink:href="#DejaVuSans-31" transform="translate(128.203125 39.046875)scale(0.7)"/>
       <use xlink:href="#DejaVuSans-30" transform="translate(172.739258 39.046875)scale(0.7)"/>
      </g>
     </g>
    </g>
    <g id="ytick_4">
     <g id="line2d_10">
      <g>
       <use xlink:href="#mc52b27ee39" x="115.2" y="144.304635" style="stroke: #000000; stroke-width: 1.6"/>
      </g>
     </g>
     <g id="text_11">
      <!-- $\mathdefault{10^{11}}$ -->
      <g transform="translate(76.19 148.483775)scale(0.11 -0.11)">
       <use xlink:href="#DejaVuSans-31" transform="translate(0 0.684375)"/>
       <use xlink:href="#DejaVuSans-30" transform="translate(63.623047 0.684375)"/>
       <use xlink:href="#DejaVuSans-31" transform="translate(128.203125 38.965625)scale(0.7)"/>
       <use xlink:href="#DejaVuSans-31" transform="translate(172.739258 38.965625)scale(0.7)"/>
      </g>
     </g>
    </g>
    <g id="ytick_5">
     <g id="line2d_11">
      <defs>
       <path id="m5b36d06e19" d="M 0 0 
L -2 0 
" style="stroke: #000000; stroke-width: 0.8"/>
      </defs>
      <g>
       <use xlink:href="#m5b36d06e19" x="115.2" y="518.629471" style="stroke: #000000; stroke-width: 0.8"/>
      </g>
     </g>
    </g>
    <g id="ytick_6">
     <g id="line2d_12">
      <g>
       <use xlink:href="#m5b36d06e19" x="115.2" y="494.207069" style="stroke: #000000; stroke-width: 0.8"/>
      </g>
     </g>
    </g>
    <g id="ytick_7">
     <g id="line2d_13">
      <g>
       <use xlink:href="#m5b36d06e19" x="115.2" y="476.879098" style="stroke: #000000; stroke-width: 0.8"/>
      </g>
     </g>
    </g>
    <g id="ytick_8">
     <g id="line2d_14">
      <g>
       <use xlink:href="#m5b36d06e19" x="115.2" y="463.43848" style="stroke: #000000; stroke-width: 0.8"/>
      </g>
     </g>
    </g>
    <g id="ytick_9">
     <g id="line2d_15">
      <g>
       <use xlink:href="#m5b36d06e19" x="115.2" y="452.456696" style="stroke: #000000; stroke-width: 0.8"/>
      </g>
     </g>
    </g>
    <g id="ytick_10">
     <g id="line2d_16">
      <g>
       <use xlink:href="#m5b36d06e19" x="115.2" y="443.171729" style="stroke: #000000; stroke-width: 0.8"/>
      </g>
     </g>
    </g>
    <g id="ytick_11">
     <g id="line2d_17">
      <g>
       <use xlink:href="#m5b36d06e19" x="115.2" y="435.128726" style="stroke: #000000; stroke-width: 0.8"/>
      </g>
     </g>
    </g>
    <g id="ytick_12">
     <g id="line2d_18">
      <g>
       <use xlink:href="#m5b36d06e19" x="115.2" y="428.034293" style="stroke: #000000; stroke-width: 0.8"/>
      </g>
     </g>
    </g>
    <g id="ytick_13">
     <g id="line2d_19">
      <g>
       <use xlink:href="#m5b36d06e19" x="115.2" y="379.937735" style="stroke: #000000; stroke-width: 0.8"/>
      </g>
     </g>
    </g>
    <g id="ytick_14">
     <g id="line2d_20">
      <g>
       <use xlink:href="#m5b36d06e19" x="115.2" y="355.515332" style="stroke: #000000; stroke-width: 0.8"/>
      </g>
     </g>
    </g>
    <g id="ytick_15">
     <g id="line2d_21">
      <g>
       <use xlink:href="#m5b36d06e19" x="115.2" y="338.187362" style="stroke: #000000; stroke-width: 0.8"/>
      </g>
     </g>
    </g>
    <g id="ytick_16">
     <g id="line2d_22">
      <g>
       <use xlink:href="#m5b36d06e19" x="115.2" y="324.746744" style="stroke: #000000; stroke-width: 0.8"/>
      </g>
     </g>
    </g>
    <g id="ytick_17">
     <g id="line2d_23">
      <g>
       <use xlink:href="#m5b36d06e19" x="115.2" y="313.764959" style="stroke: #000000; stroke-width: 0.8"/>
      </g>
     </g>
    </g>
    <g id="ytick_18">
     <g id="line2d_24">
      <g>
       <use xlink:href="#m5b36d06e19" x="115.2" y="304.479993" style="stroke: #000000; stroke-width: 0.8"/>
      </g>
     </g>
    </g>
    <g id="ytick_19">
     <g id="line2d_25">
      <g>
       <use xlink:href="#m5b36d06e19" x="115.2" y="296.436989" style="stroke: #000000; stroke-width: 0.8"/>
      </g>
     </g>
    </g>
    <g id="ytick_20">
     <g id="line2d_26">
      <g>
       <use xlink:href="#m5b36d06e19" x="115.2" y="289.342557" style="stroke: #000000; stroke-width: 0.8"/>
      </g>
     </g>
    </g>
    <g id="ytick_21">
     <g id="line2d_27">
      <g>
       <use xlink:href="#m5b36d06e19" x="115.2" y="241.245998" style="stroke: #000000; stroke-width: 0.8"/>
      </g>
     </g>
    </g>
    <g id="ytick_22">
     <g id="line2d_28">
      <g>
       <use xlink:href="#m5b36d06e19" x="115.2" y="216.823596" style="stroke: #000000; stroke-width: 0.8"/>
      </g>
     </g>
    </g>
    <g id="ytick_23">
     <g id="line2d_29">
      <g>
       <use xlink:href="#m5b36d06e19" x="115.2" y="199.495626" style="stroke: #000000; stroke-width: 0.8"/>
      </g>
     </g>
    </g>
    <g id="ytick_24">
     <g id="line2d_30">
      <g>
       <use xlink:href="#m5b36d06e19" x="115.2" y="186.055008" style="stroke: #000000; stroke-width: 0.8"/>
      </g>
     </g>
    </g>
    <g id="ytick_25">
     <g id="line2d_31">
      <g>
       <use xlink:href="#m5b36d06e19" x="115.2" y="175.073223" style="stroke: #000000; stroke-width: 0.8"/>
      </g>
     </g>
    </g>
    <g id="ytick_26">
     <g id="line2d_32">
      <g>
       <use xlink:href="#m5b36d06e19" x="115.2" y="165.788257" style="stroke: #000000; stroke-width: 0.8"/>
      </g>
     </g>
    </g>
    <g id="ytick_27">
     <g id="line2d_33">
      <g>
       <use xlink:href="#m5b36d06e19" x="115.2" y="157.745253" style="stroke: #000000; stroke-width: 0.8"/>
      </g>
     </g>
    </g>
    <g id="ytick_28">
     <g id="line2d_34">
      <g>
       <use xlink:href="#m5b36d06e19" x="115.2" y="150.650821" style="stroke: #000000; stroke-width: 0.8"/>
      </g>
     </g>
    </g>
    <g id="ytick_29">
     <g id="line2d_35">
      <g>
       <use xlink:href="#m5b36d06e19" x="115.2" y="102.554262" style="stroke: #000000; stroke-width: 0.8"/>
      </g>
     </g>
    </g>
    <g id="ytick_30">
     <g id="line2d_36">
      <g>
       <use xlink:href="#m5b36d06e19" x="115.2" y="78.131859" style="stroke: #000000; stroke-width: 0.8"/>
      </g>
     </g>
    </g>
    <g id="text_12">
     <!-- Node evaluations per second (NEPS) -->
     <g transform="translate(69.278437 447.984875)rotate(-90)scale(0.14 -0.14)">
      <defs>
       <path id="DejaVuSans-4e" d="M 628 4666 
L 1478 4666 
L 3547 763 
L 3547 4666 
L 4159 4666 
L 4159 0 
L 3309 0 
L 1241 3903 
L 1241 0 
L 628 0 
L 628 4666 
z
" transform="scale(0.015625)"/>
       <path id="DejaVuSans-64" d="M 2906 2969 
L 2906 4863 
L 3481 4863 
L 3481 0 
L 2906 0 
L 2906 525 
Q 2725 213 2448 61 
Q 2172 -91 1784 -91 
Q 1150 -91 751 415 
Q 353 922 353 1747 
Q 353 2572 751 3078 
Q 1150 3584 1784 3584 
Q 2172 3584 2448 3432 
Q 2725 3281 2906 2969 
z
M 947 1747 
Q 947 1113 1208 752 
Q 1469 391 1925 391 
Q 2381 391 2643 752 
Q 2906 1113 2906 1747 
Q 2906 2381 2643 2742 
Q 2381 3103 1925 3103 
Q 1469 3103 1208 2742 
Q 947 2381 947 1747 
z
" transform="scale(0.015625)"/>
       <path id="DejaVuSans-76" d="M 191 3500 
L 800 3500 
L 1894 563 
L 2988 3500 
L 3597 3500 
L 2284 0 
L 1503 0 
L 191 3500 
z
" transform="scale(0.015625)"/>
       <path id="DejaVuSans-6c" d="M 603 4863 
L 1178 4863 
L 1178 0 
L 603 0 
L 603 4863 
z
" transform="scale(0.015625)"/>
       <path id="DejaVuSans-74" d="M 1172 4494 
L 1172 3500 
L 2356 3500 
L 2356 3053 
L 1172 3053 
L 1172 1153 
Q 1172 725 1289 603 
Q 1406 481 1766 481 
L 2356 481 
L 2356 0 
L 1766 0 
Q 1100 0 847 248 
Q 594 497 594 1153 
L 594 3053 
L 172 3053 
L 172 3500 
L 594 3500 
L 594 4494 
L 1172 4494 
z
" transform="scale(0.015625)"/>
       <path id="DejaVuSans-63" d="M 3122 3366 
L 3122 2828 
Q 2878 2963 2633 3030 
Q 2388 3097 2138 3097 
Q 1578 3097 1268 2742 
Q 959 2388 959 1747 
Q 959 1106 1268 751 
Q 1578 397 2138 397 
Q 2388 397 2633 464 
Q 2878 531 3122 666 
L 3122 134 
Q 2881 22 2623 -34 
Q 2366 -91 2075 -91 
Q 1284 -91 818 406 
Q 353 903 353 1747 
Q 353 2603 823 3093 
Q 1294 3584 2113 3584 
Q 2378 3584 2631 3529 
Q 2884 3475 3122 3366 
z
" transform="scale(0.015625)"/>
       <path id="DejaVuSans-28" d="M 1984 4856 
Q 1566 4138 1362 3434 
Q 1159 2731 1159 2009 
Q 1159 1288 1364 580 
Q 1569 -128 1984 -844 
L 1484 -844 
Q 1016 -109 783 600 
Q 550 1309 550 2009 
Q 550 2706 781 3412 
Q 1013 4119 1484 4856 
L 1984 4856 
z
" transform="scale(0.015625)"/>
       <path id="DejaVuSans-45" d="M 628 4666 
L 3578 4666 
L 3578 4134 
L 1259 4134 
L 1259 2753 
L 3481 2753 
L 3481 2222 
L 1259 2222 
L 1259 531 
L 3634 531 
L 3634 0 
L 628 0 
L 628 4666 
z
" transform="scale(0.015625)"/>
       <path id="DejaVuSans-50" d="M 1259 4147 
L 1259 2394 
L 2053 2394 
Q 2494 2394 2734 2622 
Q 2975 2850 2975 3272 
Q 2975 3691 2734 3919 
Q 2494 4147 2053 4147 
L 1259 4147 
z
M 628 4666 
L 2053 4666 
Q 2838 4666 3239 4311 
Q 3641 3956 3641 3272 
Q 3641 2581 3239 2228 
Q 2838 1875 2053 1875 
L 1259 1875 
L 1259 0 
L 628 0 
L 628 4666 
z
" transform="scale(0.015625)"/>
       <path id="DejaVuSans-53" d="M 3425 4513 
L 3425 3897 
Q 3066 4069 2747 4153 
Q 2428 4238 2131 4238 
Q 1616 4238 1336 4038 
Q 1056 3838 1056 3469 
Q 1056 3159 1242 3001 
Q 1428 2844 1947 2747 
L 2328 2669 
Q 3034 2534 3370 2195 
Q 3706 1856 3706 1288 
Q 3706 609 3251 259 
Q 2797 -91 1919 -91 
Q 1588 -91 1214 -16 
Q 841 59 441 206 
L 441 856 
Q 825 641 1194 531 
Q 1563 422 1919 422 
Q 2459 422 2753 634 
Q 3047 847 3047 1241 
Q 3047 1584 2836 1778 
Q 2625 1972 2144 2069 
L 1759 2144 
Q 1053 2284 737 2584 
Q 422 2884 422 3419 
Q 422 4038 858 4394 
Q 1294 4750 2059 4750 
Q 2388 4750 2728 4690 
Q 3069 4631 3425 4513 
z
" transform="scale(0.015625)"/>
       <path id="DejaVuSans-29" d="M 513 4856 
L 1013 4856 
Q 1481 4119 1714 3412 
Q 1947 2706 1947 2009 
Q 1947 1309 1714 600 
Q 1481 -109 1013 -844 
L 513 -844 
Q 928 -128 1133 580 
Q 1338 1288 1338 2009 
Q 1338 2731 1133 3434 
Q 928 4138 513 4856 
z
" transform="scale(0.015625)"/>
      </defs>
      <use xlink:href="#DejaVuSans-4e"/>
      <use xlink:href="#DejaVuSans-6f" x="74.804688"/>
      <use xlink:href="#DejaVuSans-64" x="135.986328"/>
      <use xlink:href="#DejaVuSans-65" x="199.462891"/>
      <use xlink:href="#DejaVuSans-20" x="260.986328"/>
      <use xlink:href="#DejaVuSans-65" x="292.773438"/>
      <use xlink:href="#DejaVuSans-76" x="354.296875"/>
      <use xlink:href="#DejaVuSans-61" x="413.476562"/>
      <use xlink:href="#DejaVuSans-6c" x="474.755859"/>
      <use xlink:href="#DejaVuSans-75" x="502.539062"/>
      <use xlink:href="#DejaVuSans-61" x="565.917969"/>
      <use xlink:href="#DejaVuSans-74" x="627.197266"/>
      <use xlink:href="#DejaVuSans-69" x="666.40625"/>
      <use xlink:href="#DejaVuSans-6f" x="694.189453"/>
      <use xlink:href="#DejaVuSans-6e" x="755.371094"/>
      <use xlink:href="#DejaVuSans-73" x="818.75"/>
      <use xlink:href="#DejaVuSans-20" x="870.849609"/>
      <use xlink:href="#DejaVuSans-70" x="902.636719"/>
      <use xlink:href="#DejaVuSans-65" x="966.113281"/>
      <use xlink:href="#DejaVuSans-72" x="1027.636719"/>
      <use xlink:href="#DejaVuSans-20" x="1068.75"/>
      <use xlink:href="#DejaVuSans-73" x="1100.537109"/>
      <use xlink:href="#DejaVuSans-65" x="1152.636719"/>
      <use xlink:href="#DejaVuSans-63" x="1214.160156"/>
      <use xlink:href="#DejaVuSans-6f" x="1269.140625"/>
      <use xlink:href="#DejaVuSans-6e" x="1330.322266"/>
      <use xlink:href="#DejaVuSans-64" x="1393.701172"/>
      <use xlink:href="#DejaVuSans-20" x="1457.177734"/>
      <use xlink:href="#DejaVuSans-28" x="1488.964844"/>
      <use xlink:href="#DejaVuSans-4e" x="1527.978516"/>
      <use xlink:href="#DejaVuSans-45" x="1602.783203"/>
      <use xlink:href="#DejaVuSans-50" x="1665.966797"/>
      <use xlink:href="#DejaVuSans-53" x="1726.269531"/>
      <use xlink:href="#DejaVuSans-29" x="1789.746094"/>
     </g>
    </g>
   </g>
   <g id="line2d_37">
    <path d="M 147.665455 541.728 
L 168.610909 525.137317 
L 189.556364 522.025125 
L 210.501818 519.779184 
L 231.447273 518.540778 
L 252.392727 517.731299 
L 273.338182 517.312034 
L 294.283636 516.759693 
L 315.229091 516.015821 
L 336.174545 516.579401 
L 357.12 515.890144 
L 378.065455 515.854465 
L 399.010909 515.770537 
L 419.956364 515.341469 
L 440.901818 515.266927 
L 461.847273 515.366843 
L 482.792727 515.25827 
L 503.738182 514.995146 
L 524.683636 514.931344 
L 545.629091 515.27513 
L 566.574545 514.94124 
L 587.52 514.599793 
L 608.465455 514.741324 
L 629.410909 514.712529 
L 650.356364 514.78122 
L 671.301818 514.863949 
L 692.247273 514.381114 
L 713.192727 514.724512 
L 734.138182 514.50704 
L 755.083636 514.690955 
L 776.029091 514.317308 
L 796.974545 514.480391 
" clip-path="url(#p9fd311a3b2)" style="fill: none; stroke: #000000; stroke-width: 0.1; stroke-linecap: square"/>
    <defs>
     <path id="m999507c9ae" d="M -3 6 
L 0 3 
L 3 6 
L 6 3 
L 3 0 
L 6 -3 
L 3 -6 
L 0 -3 
L -3 -6 
L -6 -3 
L -3 0 
L -6 3 
z
"/>
    </defs>
    <g clip-path="url(#p9fd311a3b2)">
     <use xlink:href="#m999507c9ae" x="147.665455" y="541.728" style="fill: #17becf"/>
     <use xlink:href="#m999507c9ae" x="168.610909" y="525.137317" style="fill: #17becf"/>
     <use xlink:href="#m999507c9ae" x="189.556364" y="522.025125" style="fill: #17becf"/>
     <use xlink:href="#m999507c9ae" x="210.501818" y="519.779184" style="fill: #17becf"/>
     <use xlink:href="#m999507c9ae" x="231.447273" y="518.540778" style="fill: #17becf"/>
     <use xlink:href="#m999507c9ae" x="252.392727" y="517.731299" style="fill: #17becf"/>
     <use xlink:href="#m999507c9ae" x="273.338182" y="517.312034" style="fill: #17becf"/>
     <use xlink:href="#m999507c9ae" x="294.283636" y="516.759693" style="fill: #17becf"/>
     <use xlink:href="#m999507c9ae" x="315.229091" y="516.015821" style="fill: #17becf"/>
     <use xlink:href="#m999507c9ae" x="336.174545" y="516.579401" style="fill: #17becf"/>
     <use xlink:href="#m999507c9ae" x="357.12" y="515.890144" style="fill: #17becf"/>
     <use xlink:href="#m999507c9ae" x="378.065455" y="515.854465" style="fill: #17becf"/>
     <use xlink:href="#m999507c9ae" x="399.010909" y="515.770537" style="fill: #17becf"/>
     <use xlink:href="#m999507c9ae" x="419.956364" y="515.341469" style="fill: #17becf"/>
     <use xlink:href="#m999507c9ae" x="440.901818" y="515.266927" style="fill: #17becf"/>
     <use xlink:href="#m999507c9ae" x="461.847273" y="515.366843" style="fill: #17becf"/>
     <use xlink:href="#m999507c9ae" x="482.792727" y="515.25827" style="fill: #17becf"/>
     <use xlink:href="#m999507c9ae" x="503.738182" y="514.995146" style="fill: #17becf"/>
     <use xlink:href="#m999507c9ae" x="524.683636" y="514.931344" style="fill: #17becf"/>
     <use xlink:href="#m999507c9ae" x="545.629091" y="515.27513" style="fill: #17becf"/>
     <use xlink:href="#m999507c9ae" x="566.574545" y="514.94124" style="fill: #17becf"/>
     <use xlink:href="#m999507c9ae" x="587.52" y="514.599793" style="fill: #17becf"/>
     <use xlink:href="#m999507c9ae" x="608.465455" y="514.741324" style="fill: #17becf"/>
     <use xlink:href="#m999507c9ae" x="629.410909" y="514.712529" style="fill: #17becf"/>
     <use xlink:href="#m999507c9ae" x="650.356364" y="514.78122" style="fill: #17becf"/>
     <use xlink:href="#m999507c9ae" x="671.301818" y="514.863949" style="fill: #17becf"/>
     <use xlink:href="#m999507c9ae" x="692.247273" y="514.381114" style="fill: #17becf"/>
     <use xlink:href="#m999507c9ae" x="713.192727" y="514.724512" style="fill: #17becf"/>
     <use xlink:href="#m999507c9ae" x="734.138182" y="514.50704" style="fill: #17becf"/>
     <use xlink:href="#m999507c9ae" x="755.083636" y="514.690955" style="fill: #17becf"/>
     <use xlink:href="#m999507c9ae" x="776.029091" y="514.317308" style="fill: #17becf"/>
     <use xlink:href="#m999507c9ae" x="796.974545" y="514.480391" style="fill: #17becf"/>
    </g>
   </g>
   <g id="line2d_38">
    <path d="M 115.2 421.688108 
L 829.44 421.688108 
" clip-path="url(#p9fd311a3b2)" style="fill: none; stroke-dasharray: 10.36,4.48; stroke-dashoffset: 0; stroke: #808080; stroke-width: 2.8"/>
   </g>
   <g id="line2d_39">
    <path d="M 147.665455 323.905627 
L 168.610909 296.388092 
L 189.556364 283.995871 
L 210.501818 293.906477 
L 231.447273 284.248855 
L 252.392727 281.688895 
L 273.338182 278.985062 
L 294.283636 283.645218 
L 315.229091 277.439052 
L 336.174545 275.330787 
L 357.12 277.455424 
L 378.065455 274.689062 
L 399.010909 273.776522 
L 419.956364 285.928515 
L 440.901818 284.473355 
L 461.847273 273.366059 
L 482.792727 277.407061 
L 503.738182 280.165402 
L 524.683636 286.65948 
L 545.629091 283.960627 
L 566.574545 275.96348 
L 587.52 279.797695 
L 608.465455 280.490374 
L 629.410909 285.118777 
L 650.356364 273.942019 
L 671.301818 279.254037 
L 692.247273 273.5701 
L 713.192727 280.912353 
L 734.138182 282.437374 
L 755.083636 282.756324 
L 776.029091 286.530624 
L 796.974545 285.405755 
" clip-path="url(#p9fd311a3b2)" style="fill: none; stroke: #000000; stroke-width: 0.1; stroke-linecap: square"/>
    <defs>
     <path id="ma0b3d1220f" d="M 0 -6 
L -6 6 
L 6 6 
z
"/>
    </defs>
    <g clip-path="url(#p9fd311a3b2)">
     <use xlink:href="#ma0b3d1220f" x="147.665455" y="323.905627" style="fill: #9467bd"/>
     <use xlink:href="#ma0b3d1220f" x="168.610909" y="296.388092" style="fill: #9467bd"/>
     <use xlink:href="#ma0b3d1220f" x="189.556364" y="283.995871" style="fill: #9467bd"/>
     <use xlink:href="#ma0b3d1220f" x="210.501818" y="293.906477" style="fill: #9467bd"/>
     <use xlink:href="#ma0b3d1220f" x="231.447273" y="284.248855" style="fill: #9467bd"/>
     <use xlink:href="#ma0b3d1220f" x="252.392727" y="281.688895" style="fill: #9467bd"/>
     <use xlink:href="#ma0b3d1220f" x="273.338182" y="278.985062" style="fill: #9467bd"/>
     <use xlink:href="#ma0b3d1220f" x="294.283636" y="283.645218" style="fill: #9467bd"/>
     <use xlink:href="#ma0b3d1220f" x="315.229091" y="277.439052" style="fill: #9467bd"/>
     <use xlink:href="#ma0b3d1220f" x="336.174545" y="275.330787" style="fill: #9467bd"/>
     <use xlink:href="#ma0b3d1220f" x="357.12" y="277.455424" style="fill: #9467bd"/>
     <use xlink:href="#ma0b3d1220f" x="378.065455" y="274.689062" style="fill: #9467bd"/>
     <use xlink:href="#ma0b3d1220f" x="399.010909" y="273.776522" style="fill: #9467bd"/>
     <use xlink:href="#ma0b3d1220f" x="419.956364" y="285.928515" style="fill: #9467bd"/>
     <use xlink:href="#ma0b3d1220f" x="440.901818" y="284.473355" style="fill: #9467bd"/>
     <use xlink:href="#ma0b3d1220f" x="461.847273" y="273.366059" style="fill: #9467bd"/>
     <use xlink:href="#ma0b3d1220f" x="482.792727" y="277.407061" style="fill: #9467bd"/>
     <use xlink:href="#ma0b3d1220f" x="503.738182" y="280.165402" style="fill: #9467bd"/>
     <use xlink:href="#ma0b3d1220f" x="524.683636" y="286.65948" style="fill: #9467bd"/>
     <use xlink:href="#ma0b3d1220f" x="545.629091" y="283.960627" style="fill: #9467bd"/>
     <use xlink:href="#ma0b3d1220f" x="566.574545" y="275.96348" style="fill: #9467bd"/>
     <use xlink:href="#ma0b3d1220f" x="587.52" y="279.797695" style="fill: #9467bd"/>
     <use xlink:href="#ma0b3d1220f" x="608.465455" y="280.490374" style="fill: #9467bd"/>
     <use xlink:href="#ma0b3d1220f" x="629.410909" y="285.118777" style="fill: #9467bd"/>
     <use xlink:href="#ma0b3d1220f" x="650.356364" y="273.942019" style="fill: #9467bd"/>
     <use xlink:href="#ma0b3d1220f" x="671.301818" y="279.254037" style="fill: #9467bd"/>
     <use xlink:href="#ma0b3d1220f" x="692.247273" y="273.5701" style="fill: #9467bd"/>
     <use xlink:href="#ma0b3d1220f" x="713.192727" y="280.912353" style="fill: #9467bd"/>
     <use xlink:href="#ma0b3d1220f" x="734.138182" y="282.437374" style="fill: #9467bd"/>
     <use xlink:href="#ma0b3d1220f" x="755.083636" y="282.756324" style="fill: #9467bd"/>
     <use xlink:href="#ma0b3d1220f" x="776.029091" y="286.530624" style="fill: #9467bd"/>
     <use xlink:href="#ma0b3d1220f" x="796.974545" y="285.405755" style="fill: #9467bd"/>
    </g>
   </g>
   <g id="line2d_40">
    <path d="M 115.2 421.688108 
L 829.44 421.688108 
" clip-path="url(#p9fd311a3b2)" style="fill: none; stroke-dasharray: 10.36,4.48; stroke-dashoffset: 0; stroke: #808080; stroke-width: 2.8"/>
   </g>
   <g id="line2d_41">
    <path d="M 147.665455 297.184234 
L 168.610909 275.975713 
L 189.556364 269.865653 
L 210.501818 265.705124 
L 231.447273 262.690828 
L 252.392727 260.809582 
L 273.338182 259.87765 
L 294.283636 259.230554 
L 315.229091 259.689103 
L 336.174545 257.883429 
L 357.12 258.037829 
L 378.065455 257.163734 
L 399.010909 257.286754 
L 419.956364 257.333833 
L 440.901818 256.434429 
L 461.847273 256.585061 
L 482.792727 257.180093 
L 503.738182 256.916148 
L 524.683636 256.735307 
L 545.629091 256.410647 
L 566.574545 255.888405 
L 587.52 256.44628 
L 608.465455 256.131101 
L 629.410909 256.021659 
L 650.356364 255.947276 
L 671.301818 255.59543 
L 692.247273 256.020972 
L 713.192727 258.479416 
L 734.138182 256.350193 
L 755.083636 256.070319 
L 776.029091 255.871512 
L 796.974545 255.725409 
" clip-path="url(#p9fd311a3b2)" style="fill: none; stroke: #000000; stroke-width: 0.1; stroke-linecap: square"/>
    <defs>
     <path id="m75880f98a6" d="M 0 3 
C 0.795609 3 1.55874 2.683901 2.12132 2.12132 
C 2.683901 1.55874 3 0.795609 3 0 
C 3 -0.795609 2.683901 -1.55874 2.12132 -2.12132 
C 1.55874 -2.683901 0.795609 -3 0 -3 
C -0.795609 -3 -1.55874 -2.683901 -2.12132 -2.12132 
C -2.683901 -1.55874 -3 -0.795609 -3 0 
C -3 0.795609 -2.683901 1.55874 -2.12132 2.12132 
C -1.55874 2.683901 -0.795609 3 0 3 
z
"/>
    </defs>
    <g clip-path="url(#p9fd311a3b2)">
     <use xlink:href="#m75880f98a6" x="147.665455" y="297.184234" style="fill: #1f77b4"/>
     <use xlink:href="#m75880f98a6" x="168.610909" y="275.975713" style="fill: #1f77b4"/>
     <use xlink:href="#m75880f98a6" x="189.556364" y="269.865653" style="fill: #1f77b4"/>
     <use xlink:href="#m75880f98a6" x="210.501818" y="265.705124" style="fill: #1f77b4"/>
     <use xlink:href="#m75880f98a6" x="231.447273" y="262.690828" style="fill: #1f77b4"/>
     <use xlink:href="#m75880f98a6" x="252.392727" y="260.809582" style="fill: #1f77b4"/>
     <use xlink:href="#m75880f98a6" x="273.338182" y="259.87765" style="fill: #1f77b4"/>
     <use xlink:href="#m75880f98a6" x="294.283636" y="259.230554" style="fill: #1f77b4"/>
     <use xlink:href="#m75880f98a6" x="315.229091" y="259.689103" style="fill: #1f77b4"/>
     <use xlink:href="#m75880f98a6" x="336.174545" y="257.883429" style="fill: #1f77b4"/>
     <use xlink:href="#m75880f98a6" x="357.12" y="258.037829" style="fill: #1f77b4"/>
     <use xlink:href="#m75880f98a6" x="378.065455" y="257.163734" style="fill: #1f77b4"/>
     <use xlink:href="#m75880f98a6" x="399.010909" y="257.286754" style="fill: #1f77b4"/>
     <use xlink:href="#m75880f98a6" x="419.956364" y="257.333833" style="fill: #1f77b4"/>
     <use xlink:href="#m75880f98a6" x="440.901818" y="256.434429" style="fill: #1f77b4"/>
     <use xlink:href="#m75880f98a6" x="461.847273" y="256.585061" style="fill: #1f77b4"/>
     <use xlink:href="#m75880f98a6" x="482.792727" y="257.180093" style="fill: #1f77b4"/>
     <use xlink:href="#m75880f98a6" x="503.738182" y="256.916148" style="fill: #1f77b4"/>
     <use xlink:href="#m75880f98a6" x="524.683636" y="256.735307" style="fill: #1f77b4"/>
     <use xlink:href="#m75880f98a6" x="545.629091" y="256.410647" style="fill: #1f77b4"/>
     <use xlink:href="#m75880f98a6" x="566.574545" y="255.888405" style="fill: #1f77b4"/>
     <use xlink:href="#m75880f98a6" x="587.52" y="256.44628" style="fill: #1f77b4"/>
     <use xlink:href="#m75880f98a6" x="608.465455" y="256.131101" style="fill: #1f77b4"/>
     <use xlink:href="#m75880f98a6" x="629.410909" y="256.021659" style="fill: #1f77b4"/>
     <use xlink:href="#m75880f98a6" x="650.356364" y="255.947276" style="fill: #1f77b4"/>
     <use xlink:href="#m75880f98a6" x="671.301818" y="255.59543" style="fill: #1f77b4"/>
     <use xlink:href="#m75880f98a6" x="692.247273" y="256.020972" style="fill: #1f77b4"/>
     <use xlink:href="#m75880f98a6" x="713.192727" y="258.479416" style="fill: #1f77b4"/>
     <use xlink:href="#m75880f98a6" x="734.138182" y="256.350193" style="fill: #1f77b4"/>
     <use xlink:href="#m75880f98a6" x="755.083636" y="256.070319" style="fill: #1f77b4"/>
     <use xlink:href="#m75880f98a6" x="776.029091" y="255.871512" style="fill: #1f77b4"/>
     <use xlink:href="#m75880f98a6" x="796.974545" y="255.725409" style="fill: #1f77b4"/>
    </g>
   </g>
   <g id="line2d_42">
    <path d="M 115.2 421.688108 
L 829.44 421.688108 
" clip-path="url(#p9fd311a3b2)" style="fill: none; stroke-dasharray: 10.36,4.48; stroke-dashoffset: 0; stroke: #808080; stroke-width: 2.8"/>
   </g>
   <g id="line2d_43">
    <path d="M 147.665455 106.024007 
L 168.610909 99.935564 
L 189.556364 100.54928 
L 210.501818 101.66553 
L 231.447273 99.38503 
L 252.392727 100.058291 
L 273.338182 100.091509 
L 294.283636 100.092591 
L 315.229091 100.48598 
L 336.174545 100.83287 
L 357.12 100.403974 
L 378.065455 100.750645 
L 399.010909 100.744009 
L 419.956364 101.103199 
L 440.901818 101.33308 
L 461.847273 101.713627 
L 482.792727 101.770267 
L 503.738182 102.36122 
L 524.683636 102.999383 
L 545.629091 104.06596 
L 566.574545 105.062513 
L 587.52 106.756394 
L 608.465455 107.641316 
L 629.410909 109.758347 
L 650.356364 112.220201 
L 671.301818 115.583378 
L 692.247273 120.953381 
L 713.192727 124.954184 
L 734.138182 129.360298 
L 755.083636 133.437839 
L 776.029091 136.04862 
L 796.974545 139.221324 
" clip-path="url(#p9fd311a3b2)" style="fill: none; stroke: #000000; stroke-width: 0.1; stroke-linecap: square"/>
    <defs>
     <path id="m4c3f309734" d="M -0 8.485281 
L 5.091169 0 
L 0 -8.485281 
L -5.091169 -0 
z
"/>
    </defs>
    <g clip-path="url(#p9fd311a3b2)">
     <use xlink:href="#m4c3f309734" x="147.665455" y="106.024007" style="fill: #2ca02c"/>
     <use xlink:href="#m4c3f309734" x="168.610909" y="99.935564" style="fill: #2ca02c"/>
     <use xlink:href="#m4c3f309734" x="189.556364" y="100.54928" style="fill: #2ca02c"/>
     <use xlink:href="#m4c3f309734" x="210.501818" y="101.66553" style="fill: #2ca02c"/>
     <use xlink:href="#m4c3f309734" x="231.447273" y="99.38503" style="fill: #2ca02c"/>
     <use xlink:href="#m4c3f309734" x="252.392727" y="100.058291" style="fill: #2ca02c"/>
     <use xlink:href="#m4c3f309734" x="273.338182" y="100.091509" style="fill: #2ca02c"/>
     <use xlink:href="#m4c3f309734" x="294.283636" y="100.092591" style="fill: #2ca02c"/>
     <use xlink:href="#m4c3f309734" x="315.229091" y="100.48598" style="fill: #2ca02c"/>
     <use xlink:href="#m4c3f309734" x="336.174545" y="100.83287" style="fill: #2ca02c"/>
     <use xlink:href="#m4c3f309734" x="357.12" y="100.403974" style="fill: #2ca02c"/>
     <use xlink:href="#m4c3f309734" x="378.065455" y="100.750645" style="fill: #2ca02c"/>
     <use xlink:href="#m4c3f309734" x="399.010909" y="100.744009" style="fill: #2ca02c"/>
     <use xlink:href="#m4c3f309734" x="419.956364" y="101.103199" style="fill: #2ca02c"/>
     <use xlink:href="#m4c3f309734" x="440.901818" y="101.33308" style="fill: #2ca02c"/>
     <use xlink:href="#m4c3f309734" x="461.847273" y="101.713627" style="fill: #2ca02c"/>
     <use xlink:href="#m4c3f309734" x="482.792727" y="101.770267" style="fill: #2ca02c"/>
     <use xlink:href="#m4c3f309734" x="503.738182" y="102.36122" style="fill: #2ca02c"/>
     <use xlink:href="#m4c3f309734" x="524.683636" y="102.999383" style="fill: #2ca02c"/>
     <use xlink:href="#m4c3f309734" x="545.629091" y="104.06596" style="fill: #2ca02c"/>
     <use xlink:href="#m4c3f309734" x="566.574545" y="105.062513" style="fill: #2ca02c"/>
     <use xlink:href="#m4c3f309734" x="587.52" y="106.756394" style="fill: #2ca02c"/>
     <use xlink:href="#m4c3f309734" x="608.465455" y="107.641316" style="fill: #2ca02c"/>
     <use xlink:href="#m4c3f309734" x="629.410909" y="109.758347" style="fill: #2ca02c"/>
     <use xlink:href="#m4c3f309734" x="650.356364" y="112.220201" style="fill: #2ca02c"/>
     <use xlink:href="#m4c3f309734" x="671.301818" y="115.583378" style="fill: #2ca02c"/>
     <use xlink:href="#m4c3f309734" x="692.247273" y="120.953381" style="fill: #2ca02c"/>
     <use xlink:href="#m4c3f309734" x="713.192727" y="124.954184" style="fill: #2ca02c"/>
     <use xlink:href="#m4c3f309734" x="734.138182" y="129.360298" style="fill: #2ca02c"/>
     <use xlink:href="#m4c3f309734" x="755.083636" y="133.437839" style="fill: #2ca02c"/>
     <use xlink:href="#m4c3f309734" x="776.029091" y="136.04862" style="fill: #2ca02c"/>
     <use xlink:href="#m4c3f309734" x="796.974545" y="139.221324" style="fill: #2ca02c"/>
    </g>
   </g>
   <g id="line2d_44">
    <path d="M 115.2 421.688108 
L 829.44 421.688108 
" clip-path="url(#p9fd311a3b2)" style="fill: none; stroke-dasharray: 10.36,4.48; stroke-dashoffset: 0; stroke: #808080; stroke-width: 2.8"/>
   </g>
   <g id="line2d_45">
    <path d="M 147.665455 373.978759 
L 168.610909 311.203874 
L 189.556364 280.387704 
L 210.501818 260.707697 
L 231.447273 245.65548 
L 252.392727 233.48511 
L 273.338182 223.572273 
L 294.283636 214.967381 
L 315.229091 207.565526 
L 336.174545 200.758906 
L 357.12 194.802807 
L 378.065455 189.230591 
L 399.010909 184.31923 
L 419.956364 179.635899 
L 440.901818 175.381099 
L 461.847273 171.365548 
L 482.792727 167.61169 
L 503.738182 164.100102 
L 524.683636 160.764223 
L 545.629091 157.590035 
L 566.574545 154.615505 
L 587.52 151.664086 
L 608.465455 148.942681 
L 629.410909 146.340275 
L 650.356364 143.85713 
L 671.301818 141.442377 
L 692.247273 139.128276 
L 713.192727 136.896169 
L 734.138182 134.728705 
L 755.083636 132.658509 
L 776.029091 130.650501 
L 796.974545 128.748275 
" clip-path="url(#p9fd311a3b2)" style="fill: none; stroke: #000000; stroke-width: 0.1; stroke-linecap: square"/>
    <defs>
     <path id="m7bf2d09ec8" d="M 0 -6 
L -1.347084 -1.854102 
L -5.706339 -1.854102 
L -2.179628 0.708204 
L -3.526712 4.854102 
L -0 2.291796 
L 3.526712 4.854102 
L 2.179628 0.708204 
L 5.706339 -1.854102 
L 1.347084 -1.854102 
z
"/>
    </defs>
    <g clip-path="url(#p9fd311a3b2)">
     <use xlink:href="#m7bf2d09ec8" x="147.665455" y="373.978759" style="fill: #d62728"/>
     <use xlink:href="#m7bf2d09ec8" x="168.610909" y="311.203874" style="fill: #d62728"/>
     <use xlink:href="#m7bf2d09ec8" x="189.556364" y="280.387704" style="fill: #d62728"/>
     <use xlink:href="#m7bf2d09ec8" x="210.501818" y="260.707697" style="fill: #d62728"/>
     <use xlink:href="#m7bf2d09ec8" x="231.447273" y="245.65548" style="fill: #d62728"/>
     <use xlink:href="#m7bf2d09ec8" x="252.392727" y="233.48511" style="fill: #d62728"/>
     <use xlink:href="#m7bf2d09ec8" x="273.338182" y="223.572273" style="fill: #d62728"/>
     <use xlink:href="#m7bf2d09ec8" x="294.283636" y="214.967381" style="fill: #d62728"/>
     <use xlink:href="#m7bf2d09ec8" x="315.229091" y="207.565526" style="fill: #d62728"/>
     <use xlink:href="#m7bf2d09ec8" x="336.174545" y="200.758906" style="fill: #d62728"/>
     <use xlink:href="#m7bf2d09ec8" x="357.12" y="194.802807" style="fill: #d62728"/>
     <use xlink:href="#m7bf2d09ec8" x="378.065455" y="189.230591" style="fill: #d62728"/>
     <use xlink:href="#m7bf2d09ec8" x="399.010909" y="184.31923" style="fill: #d62728"/>
     <use xlink:href="#m7bf2d09ec8" x="419.956364" y="179.635899" style="fill: #d62728"/>
     <use xlink:href="#m7bf2d09ec8" x="440.901818" y="175.381099" style="fill: #d62728"/>
     <use xlink:href="#m7bf2d09ec8" x="461.847273" y="171.365548" style="fill: #d62728"/>
     <use xlink:href="#m7bf2d09ec8" x="482.792727" y="167.61169" style="fill: #d62728"/>
     <use xlink:href="#m7bf2d09ec8" x="503.738182" y="164.100102" style="fill: #d62728"/>
     <use xlink:href="#m7bf2d09ec8" x="524.683636" y="160.764223" style="fill: #d62728"/>
     <use xlink:href="#m7bf2d09ec8" x="545.629091" y="157.590035" style="fill: #d62728"/>
     <use xlink:href="#m7bf2d09ec8" x="566.574545" y="154.615505" style="fill: #d62728"/>
     <use xlink:href="#m7bf2d09ec8" x="587.52" y="151.664086" style="fill: #d62728"/>
     <use xlink:href="#m7bf2d09ec8" x="608.465455" y="148.942681" style="fill: #d62728"/>
     <use xlink:href="#m7bf2d09ec8" x="629.410909" y="146.340275" style="fill: #d62728"/>
     <use xlink:href="#m7bf2d09ec8" x="650.356364" y="143.85713" style="fill: #d62728"/>
     <use xlink:href="#m7bf2d09ec8" x="671.301818" y="141.442377" style="fill: #d62728"/>
     <use xlink:href="#m7bf2d09ec8" x="692.247273" y="139.128276" style="fill: #d62728"/>
     <use xlink:href="#m7bf2d09ec8" x="713.192727" y="136.896169" style="fill: #d62728"/>
     <use xlink:href="#m7bf2d09ec8" x="734.138182" y="134.728705" style="fill: #d62728"/>
     <use xlink:href="#m7bf2d09ec8" x="755.083636" y="132.658509" style="fill: #d62728"/>
     <use xlink:href="#m7bf2d09ec8" x="776.029091" y="130.650501" style="fill: #d62728"/>
     <use xlink:href="#m7bf2d09ec8" x="796.974545" y="128.748275" style="fill: #d62728"/>
    </g>
   </g>
   <g id="line2d_46">
    <path d="M 115.2 421.688108 
L 829.44 421.688108 
" clip-path="url(#p9fd311a3b2)" style="fill: none; stroke-dasharray: 10.36,4.48; stroke-dashoffset: 0; stroke: #808080; stroke-width: 2.8"/>
   </g>
   <g id="patch_3">
    <path d="M 115.2 563.904 
L 115.2 76.032 
" style="fill: none; stroke: #000000; stroke-width: 0.8; stroke-linejoin: miter; stroke-linecap: square"/>
   </g>
   <g id="patch_4">
    <path d="M 829.44 563.904 
L 829.44 76.032 
" style="fill: none; stroke: #000000; stroke-width: 0.8; stroke-linejoin: miter; stroke-linecap: square"/>
   </g>
   <g id="patch_5">
    <path d="M 115.2 563.904 
L 829.44 563.904 
" style="fill: none; stroke: #000000; stroke-width: 0.8; stroke-linejoin: miter; stroke-linecap: square"/>
   </g>
   <g id="patch_6">
    <path d="M 115.2 76.032 
L 829.44 76.032 
" style="fill: none; stroke: #000000; stroke-width: 0.8; stroke-linejoin: miter; stroke-linecap: square"/>
   </g>
   <g id="text_13">
    <!-- $10^9$ for scale -->
    <g transform="translate(260.901818 452.456696)scale(0.11 -0.11)">
     <defs>
      <path id="DejaVuSans-66" d="M 2375 4863 
L 2375 4384 
L 1825 4384 
Q 1516 4384 1395 4259 
Q 1275 4134 1275 3809 
L 1275 3500 
L 2222 3500 
L 2222 3053 
L 1275 3053 
L 1275 0 
L 697 0 
L 697 3053 
L 147 3053 
L 147 3500 
L 697 3500 
L 697 3744 
Q 697 4328 969 4595 
Q 1241 4863 1831 4863 
L 2375 4863 
z
" transform="scale(0.015625)"/>
     </defs>
     <use xlink:href="#DejaVuSans-31" transform="translate(0 0.765625)"/>
     <use xlink:href="#DejaVuSans-30" transform="translate(63.623047 0.765625)"/>
     <use xlink:href="#DejaVuSans-39" transform="translate(128.203125 39.046875)scale(0.7)"/>
     <use xlink:href="#DejaVuSans-20" transform="translate(175.473633 0.765625)"/>
     <use xlink:href="#DejaVuSans-66" transform="translate(207.260742 0.765625)"/>
     <use xlink:href="#DejaVuSans-6f" transform="translate(242.46582 0.765625)"/>
     <use xlink:href="#DejaVuSans-72" transform="translate(303.647461 0.765625)"/>
     <use xlink:href="#DejaVuSans-20" transform="translate(344.760742 0.765625)"/>
     <use xlink:href="#DejaVuSans-73" transform="translate(376.547852 0.765625)"/>
     <use xlink:href="#DejaVuSans-63" transform="translate(428.647461 0.765625)"/>
     <use xlink:href="#DejaVuSans-61" transform="translate(483.62793 0.765625)"/>
     <use xlink:href="#DejaVuSans-6c" transform="translate(544.907227 0.765625)"/>
     <use xlink:href="#DejaVuSans-65" transform="translate(572.69043 0.765625)"/>
    </g>
   </g>
  </g>
 </g>
 <defs>
  <clipPath id="p9fd311a3b2">
   <rect x="115.2" y="76.032" width="714.24" height="487.872"/>
  </clipPath>
 </defs>
</svg>
