<?xml version="1.0" encoding="utf-8" standalone="no"?>
<!DOCTYPE svg PUBLIC "-//W3C//DTD SVG 1.1//EN"
  "http://www.w3.org/Graphics/SVG/1.1/DTD/svg11.dtd">
<svg xmlns:xlink="http://www.w3.org/1999/xlink" width="921.6pt" height="633.6pt" viewBox="0 0 921.6 633.6" xmlns="http://www.w3.org/2000/svg" version="1.1">
 <metadata>
  <rdf:RDF xmlns:dc="http://purl.org/dc/elements/1.1/" xmlns:cc="http://creativecommons.org/ns#" xmlns:rdf="http://www.w3.org/1999/02/22-rdf-syntax-ns#">
   <cc:Work>
    <dc:type rdf:resource="http://purl.org/dc/dcmitype/StillImage"/>
    <dc:date>2022-11-02T20:32:14.215043</dc:date>
    <dc:format>image/svg+xml</dc:format>
    <dc:creator>
     <cc:Agent>
      <dc:title>Matplotlib v3.5.3, https://matplotlib.org/</dc:title>
     </cc:Agent>
    </dc:creator>
   </cc:Work>
  </rdf:RDF>
 </metadata>
 <defs>
  <style type="text/css">*{stroke-linejoin: round; stroke-linecap: butt}</style>
 </defs>
 <g id="figure_1">
  <g id="patch_1">
   <path d="M 0 633.6 
L 921.6 633.6 
L 921.6 0 
L 0 0 
z
" style="fill: #ffffff"/>
  </g>
  <g id="axes_1">
   <g id="patch_2">
    <path d="M 115.2 563.904 
L 829.44 563.904 
L 829.44 76.032 
L 115.2 76.032 
z
" style="fill: #ffffff"/>
   </g>
   <g id="PolyCollection_1">
    <defs>
     <path id="m2670a89d9c" d="M 147.665455 -91.872 
L 147.665455 -91.872 
L 168.610909 -104.932457 
L 189.556364 -108.328001 
L 210.501818 -109.451653 
L 231.447273 -110.83584 
L 252.392727 -111.557455 
L 273.338182 -111.931496 
L 294.283636 -112.098619 
L 315.229091 -112.878956 
L 336.174545 -112.879898 
L 357.12 -113.171262 
L 378.065455 -112.878532 
L 399.010909 -113.846716 
L 419.956364 -113.793831 
L 440.901818 -114.153317 
L 461.847273 -113.804842 
L 482.792727 -114.373114 
L 503.738182 -114.787366 
L 524.683636 -114.77222 
L 545.629091 -114.483411 
L 566.574545 -114.588053 
L 587.52 -114.589799 
L 608.465455 -115.114885 
L 629.410909 -115.044973 
L 650.356364 -114.945049 
L 671.301818 -114.96479 
L 692.247273 -115.019591 
L 713.192727 -114.8274 
L 734.138182 -115.440083 
L 755.083636 -115.287936 
L 776.029091 -115.174801 
L 796.974545 -114.991962 
L 796.974545 -114.991962 
L 796.974545 -114.991962 
L 776.029091 -115.174801 
L 755.083636 -115.287936 
L 734.138182 -115.440083 
L 713.192727 -114.8274 
L 692.247273 -115.019591 
L 671.301818 -114.96479 
L 650.356364 -114.945049 
L 629.410909 -115.044973 
L 608.465455 -115.114885 
L 587.52 -114.589799 
L 566.574545 -114.588053 
L 545.629091 -114.483411 
L 524.683636 -114.77222 
L 503.738182 -114.787366 
L 482.792727 -114.373114 
L 461.847273 -113.804842 
L 440.901818 -114.153317 
L 419.956364 -113.793831 
L 399.010909 -113.846716 
L 378.065455 -112.878532 
L 357.12 -113.171262 
L 336.174545 -112.879898 
L 315.229091 -112.878956 
L 294.283636 -112.098619 
L 273.338182 -111.931496 
L 252.392727 -111.557455 
L 231.447273 -110.83584 
L 210.501818 -109.451653 
L 189.556364 -108.328001 
L 168.610909 -104.932457 
L 147.665455 -91.872 
z
" style="stroke: #fff8dc; stroke-width: 0.48"/>
    </defs>
    <g clip-path="url(#p36c5162c6a)">
     <use xlink:href="#m2670a89d9c" x="0" y="633.6" style="fill: #fff8dc; stroke: #fff8dc; stroke-width: 0.48"/>
    </g>
   </g>
   <g id="PolyCollection_2">
    <defs>
     <path id="md9dc42eed5" d="M 147.665455 -183.457617 
L 147.665455 -183.457617 
L 168.610909 -206.337252 
L 189.556364 -214.37835 
L 210.501818 -216.916198 
L 231.447273 -218.26915 
L 252.392727 -219.467896 
L 273.338182 -220.459328 
L 294.283636 -220.648858 
L 315.229091 -221.198388 
L 336.174545 -222.112751 
L 357.12 -222.125829 
L 378.065455 -222.625696 
L 399.010909 -222.669342 
L 419.956364 -222.602177 
L 440.901818 -223.215298 
L 461.847273 -223.290274 
L 482.792727 -223.13232 
L 503.738182 -223.22965 
L 524.683636 -223.464826 
L 545.629091 -223.412955 
L 566.574545 -223.822894 
L 587.52 -218.516411 
L 608.465455 -223.442541 
L 629.410909 -224.13184 
L 650.356364 -223.931722 
L 671.301818 -224.190547 
L 692.247273 -223.793362 
L 713.192727 -223.711887 
L 734.138182 -223.676037 
L 755.083636 -224.14313 
L 776.029091 -224.46012 
L 796.974545 -224.450597 
L 796.974545 -224.450597 
L 796.974545 -224.450597 
L 776.029091 -224.46012 
L 755.083636 -224.14313 
L 734.138182 -223.676037 
L 713.192727 -223.711887 
L 692.247273 -223.793362 
L 671.301818 -224.190547 
L 650.356364 -223.931722 
L 629.410909 -224.13184 
L 608.465455 -223.442541 
L 587.52 -218.516411 
L 566.574545 -223.822894 
L 545.629091 -223.412955 
L 524.683636 -223.464826 
L 503.738182 -223.22965 
L 482.792727 -223.13232 
L 461.847273 -223.290274 
L 440.901818 -223.215298 
L 419.956364 -222.602177 
L 399.010909 -222.669342 
L 378.065455 -222.625696 
L 357.12 -222.125829 
L 336.174545 -222.112751 
L 315.229091 -221.198388 
L 294.283636 -220.648858 
L 273.338182 -220.459328 
L 252.392727 -219.467896 
L 231.447273 -218.26915 
L 210.501818 -216.916198 
L 189.556364 -214.37835 
L 168.610909 -206.337252 
L 147.665455 -183.457617 
z
" style="stroke: #fff8dc; stroke-width: 0.48"/>
    </defs>
    <g clip-path="url(#p36c5162c6a)">
     <use xlink:href="#md9dc42eed5" x="0" y="633.6" style="fill: #fff8dc; stroke: #fff8dc; stroke-width: 0.48"/>
    </g>
   </g>
   <g id="PolyCollection_3">
    <defs>
     <path id="m92cc2edf1b" d="M 147.665455 -177.908412 
L 147.665455 -177.908412 
L 168.610909 -193.418432 
L 189.556364 -200.433248 
L 210.501818 -202.761655 
L 231.447273 -204.537033 
L 252.392727 -205.938804 
L 273.338182 -206.254778 
L 294.283636 -207.109669 
L 315.229091 -206.994659 
L 336.174545 -207.870316 
L 357.12 -207.797611 
L 378.065455 -208.146837 
L 399.010909 -208.282777 
L 419.956364 -208.110999 
L 440.901818 -208.95259 
L 461.847273 -208.84869 
L 482.792727 -208.462736 
L 503.738182 -208.610995 
L 524.683636 -209.032445 
L 545.629091 -208.899181 
L 566.574545 -209.26935 
L 587.52 -209.023781 
L 608.465455 -209.236702 
L 629.410909 -209.436213 
L 650.356364 -209.397582 
L 671.301818 -209.504329 
L 692.247273 -209.34462 
L 713.192727 -209.117946 
L 734.138182 -208.978235 
L 755.083636 -209.519776 
L 776.029091 -209.588393 
L 796.974545 -209.697413 
L 796.974545 -209.697413 
L 796.974545 -209.697413 
L 776.029091 -209.588393 
L 755.083636 -209.519776 
L 734.138182 -208.978235 
L 713.192727 -209.117946 
L 692.247273 -209.34462 
L 671.301818 -209.504329 
L 650.356364 -209.397582 
L 629.410909 -209.436213 
L 608.465455 -209.236702 
L 587.52 -209.023781 
L 566.574545 -209.26935 
L 545.629091 -208.899181 
L 524.683636 -209.032445 
L 503.738182 -208.610995 
L 482.792727 -208.462736 
L 461.847273 -208.84869 
L 440.901818 -208.95259 
L 419.956364 -208.110999 
L 399.010909 -208.282777 
L 378.065455 -208.146837 
L 357.12 -207.797611 
L 336.174545 -207.870316 
L 315.229091 -206.994659 
L 294.283636 -207.109669 
L 273.338182 -206.254778 
L 252.392727 -205.938804 
L 231.447273 -204.537033 
L 210.501818 -202.761655 
L 189.556364 -200.433248 
L 168.610909 -193.418432 
L 147.665455 -177.908412 
z
" style="stroke: #fff8dc; stroke-width: 0.48"/>
    </defs>
    <g clip-path="url(#p36c5162c6a)">
     <use xlink:href="#m92cc2edf1b" x="0" y="633.6" style="fill: #fff8dc; stroke: #fff8dc; stroke-width: 0.48"/>
    </g>
   </g>
   <g id="PolyCollection_4">
    <defs>
     <path id="mf53b32aca7" d="M 147.665455 -402.283311 
L 147.665455 -402.283311 
L 168.610909 -410.977274 
L 189.556364 -423.311186 
L 210.501818 -431.007535 
L 231.447273 -433.734401 
L 252.392727 -430.090476 
L 273.338182 -434.462511 
L 294.283636 -433.797064 
L 315.229091 -432.979664 
L 336.174545 -433.268273 
L 357.12 -429.132963 
L 378.065455 -431.247534 
L 399.010909 -433.429288 
L 419.956364 -433.663602 
L 440.901818 -431.358993 
L 461.847273 -432.226132 
L 482.792727 -427.005143 
L 503.738182 -432.907569 
L 524.683636 -432.748177 
L 545.629091 -431.82686 
L 566.574545 -428.817011 
L 587.52 -430.552098 
L 608.465455 -429.589545 
L 629.410909 -428.789552 
L 650.356364 -426.903137 
L 671.301818 -424.952642 
L 692.247273 -423.354115 
L 713.192727 -422.006968 
L 734.138182 -417.545368 
L 755.083636 -414.144669 
L 776.029091 -413.326933 
L 796.974545 -411.047568 
L 796.974545 -411.047568 
L 796.974545 -414.214598 
L 776.029091 -416.877457 
L 755.083636 -417.978729 
L 734.138182 -419.96992 
L 713.192727 -423.364811 
L 692.247273 -425.14941 
L 671.301818 -427.006342 
L 650.356364 -428.973833 
L 629.410909 -429.462871 
L 608.465455 -430.900642 
L 587.52 -433.424524 
L 566.574545 -431.404998 
L 545.629091 -433.404708 
L 524.683636 -433.70605 
L 503.738182 -434.776157 
L 482.792727 -434.193838 
L 461.847273 -434.793607 
L 440.901818 -436.518071 
L 419.956364 -435.358958 
L 399.010909 -435.514187 
L 378.065455 -435.586279 
L 357.12 -434.245257 
L 336.174545 -434.615418 
L 315.229091 -435.601739 
L 294.283636 -435.11501 
L 273.338182 -435.210498 
L 252.392727 -436.157212 
L 231.447273 -435.047292 
L 210.501818 -434.689478 
L 189.556364 -434.91874 
L 168.610909 -437.196114 
L 147.665455 -418.734145 
z
" style="stroke: #fff8dc; stroke-width: 0.48"/>
    </defs>
    <g clip-path="url(#p36c5162c6a)">
     <use xlink:href="#mf53b32aca7" x="0" y="633.6" style="fill: #fff8dc; stroke: #fff8dc; stroke-width: 0.48"/>
    </g>
   </g>
   <g id="PolyCollection_5">
    <defs>
     <path id="m5c4ba6a267" d="M 147.665455 -345.898009 
L 147.665455 -345.898009 
L 168.610909 -394.416598 
L 189.556364 -418.233958 
L 210.501818 -433.444856 
L 231.447273 -445.077653 
L 252.392727 -454.482231 
L 273.338182 -462.142084 
L 294.283636 -468.793165 
L 315.229091 -474.511205 
L 336.174545 -479.771422 
L 357.12 -484.373023 
L 378.065455 -488.679214 
L 399.010909 -492.472291 
L 419.956364 -496.090822 
L 440.901818 -499.377931 
L 461.847273 -502.479484 
L 482.792727 -505.379663 
L 503.738182 -508.092393 
L 524.683636 -510.668237 
L 545.629091 -513.119827 
L 566.574545 -515.417346 
L 587.52 -517.696836 
L 608.465455 -519.798963 
L 629.410909 -521.809355 
L 650.356364 -523.725858 
L 671.301818 -525.590964 
L 692.247273 -527.377529 
L 713.192727 -529.102467 
L 734.138182 -530.774593 
L 755.083636 -532.373041 
L 776.029091 -533.924805 
L 796.974545 -535.392 
L 796.974545 -535.392 
L 796.974545 -535.392 
L 776.029091 -533.924805 
L 755.083636 -532.373041 
L 734.138182 -530.774593 
L 713.192727 -529.102467 
L 692.247273 -527.377529 
L 671.301818 -525.590964 
L 650.356364 -523.725858 
L 629.410909 -521.809355 
L 608.465455 -519.798963 
L 587.52 -517.696836 
L 566.574545 -515.417346 
L 545.629091 -513.119827 
L 524.683636 -510.668237 
L 503.738182 -508.092393 
L 482.792727 -505.379663 
L 461.847273 -502.479484 
L 440.901818 -499.377931 
L 419.956364 -496.090822 
L 399.010909 -492.472291 
L 378.065455 -488.679214 
L 357.12 -484.373023 
L 336.174545 -479.771422 
L 315.229091 -474.511205 
L 294.283636 -468.793165 
L 273.338182 -462.142084 
L 252.392727 -454.482231 
L 231.447273 -445.077653 
L 210.501818 -433.444856 
L 189.556364 -418.233958 
L 168.610909 -394.416598 
L 147.665455 -345.898009 
z
" style="stroke: #fff8dc; stroke-width: 0.48"/>
    </defs>
    <g clip-path="url(#p36c5162c6a)">
     <use xlink:href="#m5c4ba6a267" x="0" y="633.6" style="fill: #fff8dc; stroke: #fff8dc; stroke-width: 0.48"/>
    </g>
   </g>
   <g id="matplotlib.axis_1">
    <g id="xtick_1">
     <g id="line2d_1">
      <defs>
       <path id="m3e9cb0cf68" d="M 0 0 
L 0 3.5 
" style="stroke: #000000; stroke-width: 1.6"/>
      </defs>
      <g>
       <use xlink:href="#m3e9cb0cf68" x="147.665455" y="563.904" style="stroke: #000000; stroke-width: 1.6"/>
      </g>
     </g>
     <g id="text_1">
      <!-- 1, 32 -->
      <g transform="translate(133.671392 586.962281)scale(0.11 -0.11)">
       <defs>
        <path id="DejaVuSans-31" d="M 794 531 
L 1825 531 
L 1825 4091 
L 703 3866 
L 703 4441 
L 1819 4666 
L 2450 4666 
L 2450 531 
L 3481 531 
L 3481 0 
L 794 0 
L 794 531 
z
" transform="scale(0.015625)"/>
        <path id="DejaVuSans-2c" d="M 750 794 
L 1409 794 
L 1409 256 
L 897 -744 
L 494 -744 
L 750 256 
L 750 794 
z
" transform="scale(0.015625)"/>
        <path id="DejaVuSans-20" transform="scale(0.015625)"/>
        <path id="DejaVuSans-33" d="M 2597 2516 
Q 3050 2419 3304 2112 
Q 3559 1806 3559 1356 
Q 3559 666 3084 287 
Q 2609 -91 1734 -91 
Q 1441 -91 1130 -33 
Q 819 25 488 141 
L 488 750 
Q 750 597 1062 519 
Q 1375 441 1716 441 
Q 2309 441 2620 675 
Q 2931 909 2931 1356 
Q 2931 1769 2642 2001 
Q 2353 2234 1838 2234 
L 1294 2234 
L 1294 2753 
L 1863 2753 
Q 2328 2753 2575 2939 
Q 2822 3125 2822 3475 
Q 2822 3834 2567 4026 
Q 2313 4219 1838 4219 
Q 1578 4219 1281 4162 
Q 984 4106 628 3988 
L 628 4550 
Q 988 4650 1302 4700 
Q 1616 4750 1894 4750 
Q 2613 4750 3031 4423 
Q 3450 4097 3450 3541 
Q 3450 3153 3228 2886 
Q 3006 2619 2597 2516 
z
" transform="scale(0.015625)"/>
        <path id="DejaVuSans-32" d="M 1228 531 
L 3431 531 
L 3431 0 
L 469 0 
L 469 531 
Q 828 903 1448 1529 
Q 2069 2156 2228 2338 
Q 2531 2678 2651 2914 
Q 2772 3150 2772 3378 
Q 2772 3750 2511 3984 
Q 2250 4219 1831 4219 
Q 1534 4219 1204 4116 
Q 875 4013 500 3803 
L 500 4441 
Q 881 4594 1212 4672 
Q 1544 4750 1819 4750 
Q 2544 4750 2975 4387 
Q 3406 4025 3406 3419 
Q 3406 3131 3298 2873 
Q 3191 2616 2906 2266 
Q 2828 2175 2409 1742 
Q 1991 1309 1228 531 
z
" transform="scale(0.015625)"/>
       </defs>
       <use xlink:href="#DejaVuSans-31"/>
       <use xlink:href="#DejaVuSans-2c" x="63.623047"/>
       <use xlink:href="#DejaVuSans-20" x="95.410156"/>
       <use xlink:href="#DejaVuSans-33" x="127.197266"/>
       <use xlink:href="#DejaVuSans-32" x="190.820312"/>
      </g>
     </g>
    </g>
    <g id="xtick_2">
     <g id="line2d_2">
      <g>
       <use xlink:href="#m3e9cb0cf68" x="273.338182" y="563.904" style="stroke: #000000; stroke-width: 1.6"/>
      </g>
     </g>
     <g id="text_2">
      <!-- 7, 224 -->
      <g transform="translate(255.844744 586.962281)scale(0.11 -0.11)">
       <defs>
        <path id="DejaVuSans-37" d="M 525 4666 
L 3525 4666 
L 3525 4397 
L 1831 0 
L 1172 0 
L 2766 4134 
L 525 4134 
L 525 4666 
z
" transform="scale(0.015625)"/>
        <path id="DejaVuSans-34" d="M 2419 4116 
L 825 1625 
L 2419 1625 
L 2419 4116 
z
M 2253 4666 
L 3047 4666 
L 3047 1625 
L 3713 1625 
L 3713 1100 
L 3047 1100 
L 3047 0 
L 2419 0 
L 2419 1100 
L 313 1100 
L 313 1709 
L 2253 4666 
z
" transform="scale(0.015625)"/>
       </defs>
       <use xlink:href="#DejaVuSans-37"/>
       <use xlink:href="#DejaVuSans-2c" x="63.623047"/>
       <use xlink:href="#DejaVuSans-20" x="95.410156"/>
       <use xlink:href="#DejaVuSans-32" x="127.197266"/>
       <use xlink:href="#DejaVuSans-32" x="190.820312"/>
       <use xlink:href="#DejaVuSans-34" x="254.443359"/>
      </g>
     </g>
    </g>
    <g id="xtick_3">
     <g id="line2d_3">
      <g>
       <use xlink:href="#m3e9cb0cf68" x="399.010909" y="563.904" style="stroke: #000000; stroke-width: 1.6"/>
      </g>
     </g>
     <g id="text_3">
      <!-- 13, 416 -->
      <g transform="translate(378.018097 586.962281)scale(0.11 -0.11)">
       <defs>
        <path id="DejaVuSans-36" d="M 2113 2584 
Q 1688 2584 1439 2293 
Q 1191 2003 1191 1497 
Q 1191 994 1439 701 
Q 1688 409 2113 409 
Q 2538 409 2786 701 
Q 3034 994 3034 1497 
Q 3034 2003 2786 2293 
Q 2538 2584 2113 2584 
z
M 3366 4563 
L 3366 3988 
Q 3128 4100 2886 4159 
Q 2644 4219 2406 4219 
Q 1781 4219 1451 3797 
Q 1122 3375 1075 2522 
Q 1259 2794 1537 2939 
Q 1816 3084 2150 3084 
Q 2853 3084 3261 2657 
Q 3669 2231 3669 1497 
Q 3669 778 3244 343 
Q 2819 -91 2113 -91 
Q 1303 -91 875 529 
Q 447 1150 447 2328 
Q 447 3434 972 4092 
Q 1497 4750 2381 4750 
Q 2619 4750 2861 4703 
Q 3103 4656 3366 4563 
z
" transform="scale(0.015625)"/>
       </defs>
       <use xlink:href="#DejaVuSans-31"/>
       <use xlink:href="#DejaVuSans-33" x="63.623047"/>
       <use xlink:href="#DejaVuSans-2c" x="127.246094"/>
       <use xlink:href="#DejaVuSans-20" x="159.033203"/>
       <use xlink:href="#DejaVuSans-34" x="190.820312"/>
       <use xlink:href="#DejaVuSans-31" x="254.443359"/>
       <use xlink:href="#DejaVuSans-36" x="318.066406"/>
      </g>
     </g>
    </g>
    <g id="xtick_4">
     <g id="line2d_4">
      <g>
       <use xlink:href="#m3e9cb0cf68" x="524.683636" y="563.904" style="stroke: #000000; stroke-width: 1.6"/>
      </g>
     </g>
     <g id="text_4">
      <!-- 19, 608 -->
      <g transform="translate(503.690824 586.962281)scale(0.11 -0.11)">
       <defs>
        <path id="DejaVuSans-39" d="M 703 97 
L 703 672 
Q 941 559 1184 500 
Q 1428 441 1663 441 
Q 2288 441 2617 861 
Q 2947 1281 2994 2138 
Q 2813 1869 2534 1725 
Q 2256 1581 1919 1581 
Q 1219 1581 811 2004 
Q 403 2428 403 3163 
Q 403 3881 828 4315 
Q 1253 4750 1959 4750 
Q 2769 4750 3195 4129 
Q 3622 3509 3622 2328 
Q 3622 1225 3098 567 
Q 2575 -91 1691 -91 
Q 1453 -91 1209 -44 
Q 966 3 703 97 
z
M 1959 2075 
Q 2384 2075 2632 2365 
Q 2881 2656 2881 3163 
Q 2881 3666 2632 3958 
Q 2384 4250 1959 4250 
Q 1534 4250 1286 3958 
Q 1038 3666 1038 3163 
Q 1038 2656 1286 2365 
Q 1534 2075 1959 2075 
z
" transform="scale(0.015625)"/>
        <path id="DejaVuSans-30" d="M 2034 4250 
Q 1547 4250 1301 3770 
Q 1056 3291 1056 2328 
Q 1056 1369 1301 889 
Q 1547 409 2034 409 
Q 2525 409 2770 889 
Q 3016 1369 3016 2328 
Q 3016 3291 2770 3770 
Q 2525 4250 2034 4250 
z
M 2034 4750 
Q 2819 4750 3233 4129 
Q 3647 3509 3647 2328 
Q 3647 1150 3233 529 
Q 2819 -91 2034 -91 
Q 1250 -91 836 529 
Q 422 1150 422 2328 
Q 422 3509 836 4129 
Q 1250 4750 2034 4750 
z
" transform="scale(0.015625)"/>
        <path id="DejaVuSans-38" d="M 2034 2216 
Q 1584 2216 1326 1975 
Q 1069 1734 1069 1313 
Q 1069 891 1326 650 
Q 1584 409 2034 409 
Q 2484 409 2743 651 
Q 3003 894 3003 1313 
Q 3003 1734 2745 1975 
Q 2488 2216 2034 2216 
z
M 1403 2484 
Q 997 2584 770 2862 
Q 544 3141 544 3541 
Q 544 4100 942 4425 
Q 1341 4750 2034 4750 
Q 2731 4750 3128 4425 
Q 3525 4100 3525 3541 
Q 3525 3141 3298 2862 
Q 3072 2584 2669 2484 
Q 3125 2378 3379 2068 
Q 3634 1759 3634 1313 
Q 3634 634 3220 271 
Q 2806 -91 2034 -91 
Q 1263 -91 848 271 
Q 434 634 434 1313 
Q 434 1759 690 2068 
Q 947 2378 1403 2484 
z
M 1172 3481 
Q 1172 3119 1398 2916 
Q 1625 2713 2034 2713 
Q 2441 2713 2670 2916 
Q 2900 3119 2900 3481 
Q 2900 3844 2670 4047 
Q 2441 4250 2034 4250 
Q 1625 4250 1398 4047 
Q 1172 3844 1172 3481 
z
" transform="scale(0.015625)"/>
       </defs>
       <use xlink:href="#DejaVuSans-31"/>
       <use xlink:href="#DejaVuSans-39" x="63.623047"/>
       <use xlink:href="#DejaVuSans-2c" x="127.246094"/>
       <use xlink:href="#DejaVuSans-20" x="159.033203"/>
       <use xlink:href="#DejaVuSans-36" x="190.820312"/>
       <use xlink:href="#DejaVuSans-30" x="254.443359"/>
       <use xlink:href="#DejaVuSans-38" x="318.066406"/>
      </g>
     </g>
    </g>
    <g id="xtick_5">
     <g id="line2d_5">
      <g>
       <use xlink:href="#m3e9cb0cf68" x="650.356364" y="563.904" style="stroke: #000000; stroke-width: 1.6"/>
      </g>
     </g>
     <g id="text_5">
      <!-- 25, 800 -->
      <g transform="translate(629.363551 586.962281)scale(0.11 -0.11)">
       <defs>
        <path id="DejaVuSans-35" d="M 691 4666 
L 3169 4666 
L 3169 4134 
L 1269 4134 
L 1269 2991 
Q 1406 3038 1543 3061 
Q 1681 3084 1819 3084 
Q 2600 3084 3056 2656 
Q 3513 2228 3513 1497 
Q 3513 744 3044 326 
Q 2575 -91 1722 -91 
Q 1428 -91 1123 -41 
Q 819 9 494 109 
L 494 744 
Q 775 591 1075 516 
Q 1375 441 1709 441 
Q 2250 441 2565 725 
Q 2881 1009 2881 1497 
Q 2881 1984 2565 2268 
Q 2250 2553 1709 2553 
Q 1456 2553 1204 2497 
Q 953 2441 691 2322 
L 691 4666 
z
" transform="scale(0.015625)"/>
       </defs>
       <use xlink:href="#DejaVuSans-32"/>
       <use xlink:href="#DejaVuSans-35" x="63.623047"/>
       <use xlink:href="#DejaVuSans-2c" x="127.246094"/>
       <use xlink:href="#DejaVuSans-20" x="159.033203"/>
       <use xlink:href="#DejaVuSans-38" x="190.820312"/>
       <use xlink:href="#DejaVuSans-30" x="254.443359"/>
       <use xlink:href="#DejaVuSans-30" x="318.066406"/>
      </g>
     </g>
    </g>
    <g id="xtick_6">
     <g id="line2d_6">
      <g>
       <use xlink:href="#m3e9cb0cf68" x="776.029091" y="563.904" style="stroke: #000000; stroke-width: 1.6"/>
      </g>
     </g>
     <g id="text_6">
      <!-- 31, 992 -->
      <g transform="translate(755.036278 586.962281)scale(0.11 -0.11)">
       <use xlink:href="#DejaVuSans-33"/>
       <use xlink:href="#DejaVuSans-31" x="63.623047"/>
       <use xlink:href="#DejaVuSans-2c" x="127.246094"/>
       <use xlink:href="#DejaVuSans-20" x="159.033203"/>
       <use xlink:href="#DejaVuSans-39" x="190.820312"/>
       <use xlink:href="#DejaVuSans-39" x="254.443359"/>
       <use xlink:href="#DejaVuSans-32" x="318.066406"/>
      </g>
     </g>
    </g>
    <g id="text_7">
     <!-- Bin number, maximum program size -->
     <g transform="translate(343.975 603.88775)scale(0.14 -0.14)">
      <defs>
       <path id="DejaVuSans-42" d="M 1259 2228 
L 1259 519 
L 2272 519 
Q 2781 519 3026 730 
Q 3272 941 3272 1375 
Q 3272 1813 3026 2020 
Q 2781 2228 2272 2228 
L 1259 2228 
z
M 1259 4147 
L 1259 2741 
L 2194 2741 
Q 2656 2741 2882 2914 
Q 3109 3088 3109 3444 
Q 3109 3797 2882 3972 
Q 2656 4147 2194 4147 
L 1259 4147 
z
M 628 4666 
L 2241 4666 
Q 2963 4666 3353 4366 
Q 3744 4066 3744 3513 
Q 3744 3084 3544 2831 
Q 3344 2578 2956 2516 
Q 3422 2416 3680 2098 
Q 3938 1781 3938 1306 
Q 3938 681 3513 340 
Q 3088 0 2303 0 
L 628 0 
L 628 4666 
z
" transform="scale(0.015625)"/>
       <path id="DejaVuSans-69" d="M 603 3500 
L 1178 3500 
L 1178 0 
L 603 0 
L 603 3500 
z
M 603 4863 
L 1178 4863 
L 1178 4134 
L 603 4134 
L 603 4863 
z
" transform="scale(0.015625)"/>
       <path id="DejaVuSans-6e" d="M 3513 2113 
L 3513 0 
L 2938 0 
L 2938 2094 
Q 2938 2591 2744 2837 
Q 2550 3084 2163 3084 
Q 1697 3084 1428 2787 
Q 1159 2491 1159 1978 
L 1159 0 
L 581 0 
L 581 3500 
L 1159 3500 
L 1159 2956 
Q 1366 3272 1645 3428 
Q 1925 3584 2291 3584 
Q 2894 3584 3203 3211 
Q 3513 2838 3513 2113 
z
" transform="scale(0.015625)"/>
       <path id="DejaVuSans-75" d="M 544 1381 
L 544 3500 
L 1119 3500 
L 1119 1403 
Q 1119 906 1312 657 
Q 1506 409 1894 409 
Q 2359 409 2629 706 
Q 2900 1003 2900 1516 
L 2900 3500 
L 3475 3500 
L 3475 0 
L 2900 0 
L 2900 538 
Q 2691 219 2414 64 
Q 2138 -91 1772 -91 
Q 1169 -91 856 284 
Q 544 659 544 1381 
z
M 1991 3584 
L 1991 3584 
z
" transform="scale(0.015625)"/>
       <path id="DejaVuSans-6d" d="M 3328 2828 
Q 3544 3216 3844 3400 
Q 4144 3584 4550 3584 
Q 5097 3584 5394 3201 
Q 5691 2819 5691 2113 
L 5691 0 
L 5113 0 
L 5113 2094 
Q 5113 2597 4934 2840 
Q 4756 3084 4391 3084 
Q 3944 3084 3684 2787 
Q 3425 2491 3425 1978 
L 3425 0 
L 2847 0 
L 2847 2094 
Q 2847 2600 2669 2842 
Q 2491 3084 2119 3084 
Q 1678 3084 1418 2786 
Q 1159 2488 1159 1978 
L 1159 0 
L 581 0 
L 581 3500 
L 1159 3500 
L 1159 2956 
Q 1356 3278 1631 3431 
Q 1906 3584 2284 3584 
Q 2666 3584 2933 3390 
Q 3200 3197 3328 2828 
z
" transform="scale(0.015625)"/>
       <path id="DejaVuSans-62" d="M 3116 1747 
Q 3116 2381 2855 2742 
Q 2594 3103 2138 3103 
Q 1681 3103 1420 2742 
Q 1159 2381 1159 1747 
Q 1159 1113 1420 752 
Q 1681 391 2138 391 
Q 2594 391 2855 752 
Q 3116 1113 3116 1747 
z
M 1159 2969 
Q 1341 3281 1617 3432 
Q 1894 3584 2278 3584 
Q 2916 3584 3314 3078 
Q 3713 2572 3713 1747 
Q 3713 922 3314 415 
Q 2916 -91 2278 -91 
Q 1894 -91 1617 61 
Q 1341 213 1159 525 
L 1159 0 
L 581 0 
L 581 4863 
L 1159 4863 
L 1159 2969 
z
" transform="scale(0.015625)"/>
       <path id="DejaVuSans-65" d="M 3597 1894 
L 3597 1613 
L 953 1613 
Q 991 1019 1311 708 
Q 1631 397 2203 397 
Q 2534 397 2845 478 
Q 3156 559 3463 722 
L 3463 178 
Q 3153 47 2828 -22 
Q 2503 -91 2169 -91 
Q 1331 -91 842 396 
Q 353 884 353 1716 
Q 353 2575 817 3079 
Q 1281 3584 2069 3584 
Q 2775 3584 3186 3129 
Q 3597 2675 3597 1894 
z
M 3022 2063 
Q 3016 2534 2758 2815 
Q 2500 3097 2075 3097 
Q 1594 3097 1305 2825 
Q 1016 2553 972 2059 
L 3022 2063 
z
" transform="scale(0.015625)"/>
       <path id="DejaVuSans-72" d="M 2631 2963 
Q 2534 3019 2420 3045 
Q 2306 3072 2169 3072 
Q 1681 3072 1420 2755 
Q 1159 2438 1159 1844 
L 1159 0 
L 581 0 
L 581 3500 
L 1159 3500 
L 1159 2956 
Q 1341 3275 1631 3429 
Q 1922 3584 2338 3584 
Q 2397 3584 2469 3576 
Q 2541 3569 2628 3553 
L 2631 2963 
z
" transform="scale(0.015625)"/>
       <path id="DejaVuSans-61" d="M 2194 1759 
Q 1497 1759 1228 1600 
Q 959 1441 959 1056 
Q 959 750 1161 570 
Q 1363 391 1709 391 
Q 2188 391 2477 730 
Q 2766 1069 2766 1631 
L 2766 1759 
L 2194 1759 
z
M 3341 1997 
L 3341 0 
L 2766 0 
L 2766 531 
Q 2569 213 2275 61 
Q 1981 -91 1556 -91 
Q 1019 -91 701 211 
Q 384 513 384 1019 
Q 384 1609 779 1909 
Q 1175 2209 1959 2209 
L 2766 2209 
L 2766 2266 
Q 2766 2663 2505 2880 
Q 2244 3097 1772 3097 
Q 1472 3097 1187 3025 
Q 903 2953 641 2809 
L 641 3341 
Q 956 3463 1253 3523 
Q 1550 3584 1831 3584 
Q 2591 3584 2966 3190 
Q 3341 2797 3341 1997 
z
" transform="scale(0.015625)"/>
       <path id="DejaVuSans-78" d="M 3513 3500 
L 2247 1797 
L 3578 0 
L 2900 0 
L 1881 1375 
L 863 0 
L 184 0 
L 1544 1831 
L 300 3500 
L 978 3500 
L 1906 2253 
L 2834 3500 
L 3513 3500 
z
" transform="scale(0.015625)"/>
       <path id="DejaVuSans-70" d="M 1159 525 
L 1159 -1331 
L 581 -1331 
L 581 3500 
L 1159 3500 
L 1159 2969 
Q 1341 3281 1617 3432 
Q 1894 3584 2278 3584 
Q 2916 3584 3314 3078 
Q 3713 2572 3713 1747 
Q 3713 922 3314 415 
Q 2916 -91 2278 -91 
Q 1894 -91 1617 61 
Q 1341 213 1159 525 
z
M 3116 1747 
Q 3116 2381 2855 2742 
Q 2594 3103 2138 3103 
Q 1681 3103 1420 2742 
Q 1159 2381 1159 1747 
Q 1159 1113 1420 752 
Q 1681 391 2138 391 
Q 2594 391 2855 752 
Q 3116 1113 3116 1747 
z
" transform="scale(0.015625)"/>
       <path id="DejaVuSans-6f" d="M 1959 3097 
Q 1497 3097 1228 2736 
Q 959 2375 959 1747 
Q 959 1119 1226 758 
Q 1494 397 1959 397 
Q 2419 397 2687 759 
Q 2956 1122 2956 1747 
Q 2956 2369 2687 2733 
Q 2419 3097 1959 3097 
z
M 1959 3584 
Q 2709 3584 3137 3096 
Q 3566 2609 3566 1747 
Q 3566 888 3137 398 
Q 2709 -91 1959 -91 
Q 1206 -91 779 398 
Q 353 888 353 1747 
Q 353 2609 779 3096 
Q 1206 3584 1959 3584 
z
" transform="scale(0.015625)"/>
       <path id="DejaVuSans-67" d="M 2906 1791 
Q 2906 2416 2648 2759 
Q 2391 3103 1925 3103 
Q 1463 3103 1205 2759 
Q 947 2416 947 1791 
Q 947 1169 1205 825 
Q 1463 481 1925 481 
Q 2391 481 2648 825 
Q 2906 1169 2906 1791 
z
M 3481 434 
Q 3481 -459 3084 -895 
Q 2688 -1331 1869 -1331 
Q 1566 -1331 1297 -1286 
Q 1028 -1241 775 -1147 
L 775 -588 
Q 1028 -725 1275 -790 
Q 1522 -856 1778 -856 
Q 2344 -856 2625 -561 
Q 2906 -266 2906 331 
L 2906 616 
Q 2728 306 2450 153 
Q 2172 0 1784 0 
Q 1141 0 747 490 
Q 353 981 353 1791 
Q 353 2603 747 3093 
Q 1141 3584 1784 3584 
Q 2172 3584 2450 3431 
Q 2728 3278 2906 2969 
L 2906 3500 
L 3481 3500 
L 3481 434 
z
" transform="scale(0.015625)"/>
       <path id="DejaVuSans-73" d="M 2834 3397 
L 2834 2853 
Q 2591 2978 2328 3040 
Q 2066 3103 1784 3103 
Q 1356 3103 1142 2972 
Q 928 2841 928 2578 
Q 928 2378 1081 2264 
Q 1234 2150 1697 2047 
L 1894 2003 
Q 2506 1872 2764 1633 
Q 3022 1394 3022 966 
Q 3022 478 2636 193 
Q 2250 -91 1575 -91 
Q 1294 -91 989 -36 
Q 684 19 347 128 
L 347 722 
Q 666 556 975 473 
Q 1284 391 1588 391 
Q 1994 391 2212 530 
Q 2431 669 2431 922 
Q 2431 1156 2273 1281 
Q 2116 1406 1581 1522 
L 1381 1569 
Q 847 1681 609 1914 
Q 372 2147 372 2553 
Q 372 3047 722 3315 
Q 1072 3584 1716 3584 
Q 2034 3584 2315 3537 
Q 2597 3491 2834 3397 
z
" transform="scale(0.015625)"/>
       <path id="DejaVuSans-7a" d="M 353 3500 
L 3084 3500 
L 3084 2975 
L 922 459 
L 3084 459 
L 3084 0 
L 275 0 
L 275 525 
L 2438 3041 
L 353 3041 
L 353 3500 
z
" transform="scale(0.015625)"/>
      </defs>
      <use xlink:href="#DejaVuSans-42"/>
      <use xlink:href="#DejaVuSans-69" x="68.603516"/>
      <use xlink:href="#DejaVuSans-6e" x="96.386719"/>
      <use xlink:href="#DejaVuSans-20" x="159.765625"/>
      <use xlink:href="#DejaVuSans-6e" x="191.552734"/>
      <use xlink:href="#DejaVuSans-75" x="254.931641"/>
      <use xlink:href="#DejaVuSans-6d" x="318.310547"/>
      <use xlink:href="#DejaVuSans-62" x="415.722656"/>
      <use xlink:href="#DejaVuSans-65" x="479.199219"/>
      <use xlink:href="#DejaVuSans-72" x="540.722656"/>
      <use xlink:href="#DejaVuSans-2c" x="581.835938"/>
      <use xlink:href="#DejaVuSans-20" x="613.623047"/>
      <use xlink:href="#DejaVuSans-6d" x="645.410156"/>
      <use xlink:href="#DejaVuSans-61" x="742.822266"/>
      <use xlink:href="#DejaVuSans-78" x="804.101562"/>
      <use xlink:href="#DejaVuSans-69" x="863.28125"/>
      <use xlink:href="#DejaVuSans-6d" x="891.064453"/>
      <use xlink:href="#DejaVuSans-75" x="988.476562"/>
      <use xlink:href="#DejaVuSans-6d" x="1051.855469"/>
      <use xlink:href="#DejaVuSans-20" x="1149.267578"/>
      <use xlink:href="#DejaVuSans-70" x="1181.054688"/>
      <use xlink:href="#DejaVuSans-72" x="1244.53125"/>
      <use xlink:href="#DejaVuSans-6f" x="1283.394531"/>
      <use xlink:href="#DejaVuSans-67" x="1344.576172"/>
      <use xlink:href="#DejaVuSans-72" x="1408.052734"/>
      <use xlink:href="#DejaVuSans-61" x="1449.166016"/>
      <use xlink:href="#DejaVuSans-6d" x="1510.445312"/>
      <use xlink:href="#DejaVuSans-20" x="1607.857422"/>
      <use xlink:href="#DejaVuSans-73" x="1639.644531"/>
      <use xlink:href="#DejaVuSans-69" x="1691.744141"/>
      <use xlink:href="#DejaVuSans-7a" x="1719.527344"/>
      <use xlink:href="#DejaVuSans-65" x="1772.017578"/>
     </g>
    </g>
   </g>
   <g id="matplotlib.axis_2">
    <g id="ytick_1">
     <g id="line2d_7">
      <defs>
       <path id="m0bf3459287" d="M 0 0 
L -3.5 0 
" style="stroke: #000000; stroke-width: 1.6"/>
      </defs>
      <g>
       <use xlink:href="#m0bf3459287" x="115.2" y="552.311258" style="stroke: #000000; stroke-width: 1.6"/>
      </g>
     </g>
     <g id="text_8">
      <!-- $\mathdefault{10^{8}}$ -->
      <g transform="translate(81.14 556.490398)scale(0.11 -0.11)">
       <use xlink:href="#DejaVuSans-31" transform="translate(0 0.765625)"/>
       <use xlink:href="#DejaVuSans-30" transform="translate(63.623047 0.765625)"/>
       <use xlink:href="#DejaVuSans-38" transform="translate(128.203125 39.046875)scale(0.7)"/>
      </g>
     </g>
    </g>
    <g id="ytick_2">
     <g id="line2d_8">
      <g>
       <use xlink:href="#m0bf3459287" x="115.2" y="445.109881" style="stroke: #000000; stroke-width: 1.6"/>
      </g>
     </g>
     <g id="text_9">
      <!-- $\mathdefault{10^{9}}$ -->
      <g transform="translate(81.14 449.289021)scale(0.11 -0.11)">
       <use xlink:href="#DejaVuSans-31" transform="translate(0 0.765625)"/>
       <use xlink:href="#DejaVuSans-30" transform="translate(63.623047 0.765625)"/>
       <use xlink:href="#DejaVuSans-39" transform="translate(128.203125 39.046875)scale(0.7)"/>
      </g>
     </g>
    </g>
    <g id="ytick_3">
     <g id="line2d_9">
      <g>
       <use xlink:href="#m0bf3459287" x="115.2" y="337.908503" style="stroke: #000000; stroke-width: 1.6"/>
      </g>
     </g>
     <g id="text_10">
      <!-- $\mathdefault{10^{10}}$ -->
      <g transform="translate(76.19 342.087644)scale(0.11 -0.11)">
       <use xlink:href="#DejaVuSans-31" transform="translate(0 0.765625)"/>
       <use xlink:href="#DejaVuSans-30" transform="translate(63.623047 0.765625)"/>
       <use xlink:href="#DejaVuSans-31" transform="translate(128.203125 39.046875)scale(0.7)"/>
       <use xlink:href="#DejaVuSans-30" transform="translate(172.739258 39.046875)scale(0.7)"/>
      </g>
     </g>
    </g>
    <g id="ytick_4">
     <g id="line2d_10">
      <g>
       <use xlink:href="#m0bf3459287" x="115.2" y="230.707126" style="stroke: #000000; stroke-width: 1.6"/>
      </g>
     </g>
     <g id="text_11">
      <!-- $\mathdefault{10^{11}}$ -->
      <g transform="translate(76.19 234.886267)scale(0.11 -0.11)">
       <use xlink:href="#DejaVuSans-31" transform="translate(0 0.684375)"/>
       <use xlink:href="#DejaVuSans-30" transform="translate(63.623047 0.684375)"/>
       <use xlink:href="#DejaVuSans-31" transform="translate(128.203125 38.965625)scale(0.7)"/>
       <use xlink:href="#DejaVuSans-31" transform="translate(172.739258 38.965625)scale(0.7)"/>
      </g>
     </g>
    </g>
    <g id="ytick_5">
     <g id="line2d_11">
      <g>
       <use xlink:href="#m0bf3459287" x="115.2" y="123.505749" style="stroke: #000000; stroke-width: 1.6"/>
      </g>
     </g>
     <g id="text_12">
      <!-- $\mathdefault{10^{12}}$ -->
      <g transform="translate(76.19 127.684889)scale(0.11 -0.11)">
       <use xlink:href="#DejaVuSans-31" transform="translate(0 0.765625)"/>
       <use xlink:href="#DejaVuSans-30" transform="translate(63.623047 0.765625)"/>
       <use xlink:href="#DejaVuSans-31" transform="translate(128.203125 39.046875)scale(0.7)"/>
       <use xlink:href="#DejaVuSans-32" transform="translate(172.739258 39.046875)scale(0.7)"/>
      </g>
     </g>
    </g>
    <g id="ytick_6">
     <g id="line2d_12">
      <defs>
       <path id="m034c411009" d="M 0 0 
L -2 0 
" style="stroke: #000000; stroke-width: 0.8"/>
      </defs>
      <g>
       <use xlink:href="#m034c411009" x="115.2" y="562.700145" style="stroke: #000000; stroke-width: 0.8"/>
      </g>
     </g>
    </g>
    <g id="ytick_7">
     <g id="line2d_13">
      <g>
       <use xlink:href="#m034c411009" x="115.2" y="557.216524" style="stroke: #000000; stroke-width: 0.8"/>
      </g>
     </g>
    </g>
    <g id="ytick_8">
     <g id="line2d_14">
      <g>
       <use xlink:href="#m034c411009" x="115.2" y="520.040428" style="stroke: #000000; stroke-width: 0.8"/>
      </g>
     </g>
    </g>
    <g id="ytick_9">
     <g id="line2d_15">
      <g>
       <use xlink:href="#m034c411009" x="115.2" y="501.163202" style="stroke: #000000; stroke-width: 0.8"/>
      </g>
     </g>
    </g>
    <g id="ytick_10">
     <g id="line2d_16">
      <g>
       <use xlink:href="#m034c411009" x="115.2" y="487.769598" style="stroke: #000000; stroke-width: 0.8"/>
      </g>
     </g>
    </g>
    <g id="ytick_11">
     <g id="line2d_17">
      <g>
       <use xlink:href="#m034c411009" x="115.2" y="477.380711" style="stroke: #000000; stroke-width: 0.8"/>
      </g>
     </g>
    </g>
    <g id="ytick_12">
     <g id="line2d_18">
      <g>
       <use xlink:href="#m034c411009" x="115.2" y="468.892372" style="stroke: #000000; stroke-width: 0.8"/>
      </g>
     </g>
    </g>
    <g id="ytick_13">
     <g id="line2d_19">
      <g>
       <use xlink:href="#m034c411009" x="115.2" y="461.715584" style="stroke: #000000; stroke-width: 0.8"/>
      </g>
     </g>
    </g>
    <g id="ytick_14">
     <g id="line2d_20">
      <g>
       <use xlink:href="#m034c411009" x="115.2" y="455.498767" style="stroke: #000000; stroke-width: 0.8"/>
      </g>
     </g>
    </g>
    <g id="ytick_15">
     <g id="line2d_21">
      <g>
       <use xlink:href="#m034c411009" x="115.2" y="450.015147" style="stroke: #000000; stroke-width: 0.8"/>
      </g>
     </g>
    </g>
    <g id="ytick_16">
     <g id="line2d_22">
      <g>
       <use xlink:href="#m034c411009" x="115.2" y="412.83905" style="stroke: #000000; stroke-width: 0.8"/>
      </g>
     </g>
    </g>
    <g id="ytick_17">
     <g id="line2d_23">
      <g>
       <use xlink:href="#m034c411009" x="115.2" y="393.961825" style="stroke: #000000; stroke-width: 0.8"/>
      </g>
     </g>
    </g>
    <g id="ytick_18">
     <g id="line2d_24">
      <g>
       <use xlink:href="#m034c411009" x="115.2" y="380.56822" style="stroke: #000000; stroke-width: 0.8"/>
      </g>
     </g>
    </g>
    <g id="ytick_19">
     <g id="line2d_25">
      <g>
       <use xlink:href="#m034c411009" x="115.2" y="370.179333" style="stroke: #000000; stroke-width: 0.8"/>
      </g>
     </g>
    </g>
    <g id="ytick_20">
     <g id="line2d_26">
      <g>
       <use xlink:href="#m034c411009" x="115.2" y="361.690995" style="stroke: #000000; stroke-width: 0.8"/>
      </g>
     </g>
    </g>
    <g id="ytick_21">
     <g id="line2d_27">
      <g>
       <use xlink:href="#m034c411009" x="115.2" y="354.514207" style="stroke: #000000; stroke-width: 0.8"/>
      </g>
     </g>
    </g>
    <g id="ytick_22">
     <g id="line2d_28">
      <g>
       <use xlink:href="#m034c411009" x="115.2" y="348.29739" style="stroke: #000000; stroke-width: 0.8"/>
      </g>
     </g>
    </g>
    <g id="ytick_23">
     <g id="line2d_29">
      <g>
       <use xlink:href="#m034c411009" x="115.2" y="342.813769" style="stroke: #000000; stroke-width: 0.8"/>
      </g>
     </g>
    </g>
    <g id="ytick_24">
     <g id="line2d_30">
      <g>
       <use xlink:href="#m034c411009" x="115.2" y="305.637673" style="stroke: #000000; stroke-width: 0.8"/>
      </g>
     </g>
    </g>
    <g id="ytick_25">
     <g id="line2d_31">
      <g>
       <use xlink:href="#m034c411009" x="115.2" y="286.760448" style="stroke: #000000; stroke-width: 0.8"/>
      </g>
     </g>
    </g>
    <g id="ytick_26">
     <g id="line2d_32">
      <g>
       <use xlink:href="#m034c411009" x="115.2" y="273.366843" style="stroke: #000000; stroke-width: 0.8"/>
      </g>
     </g>
    </g>
    <g id="ytick_27">
     <g id="line2d_33">
      <g>
       <use xlink:href="#m034c411009" x="115.2" y="262.977956" style="stroke: #000000; stroke-width: 0.8"/>
      </g>
     </g>
    </g>
    <g id="ytick_28">
     <g id="line2d_34">
      <g>
       <use xlink:href="#m034c411009" x="115.2" y="254.489618" style="stroke: #000000; stroke-width: 0.8"/>
      </g>
     </g>
    </g>
    <g id="ytick_29">
     <g id="line2d_35">
      <g>
       <use xlink:href="#m034c411009" x="115.2" y="247.31283" style="stroke: #000000; stroke-width: 0.8"/>
      </g>
     </g>
    </g>
    <g id="ytick_30">
     <g id="line2d_36">
      <g>
       <use xlink:href="#m034c411009" x="115.2" y="241.096013" style="stroke: #000000; stroke-width: 0.8"/>
      </g>
     </g>
    </g>
    <g id="ytick_31">
     <g id="line2d_37">
      <g>
       <use xlink:href="#m034c411009" x="115.2" y="235.612392" style="stroke: #000000; stroke-width: 0.8"/>
      </g>
     </g>
    </g>
    <g id="ytick_32">
     <g id="line2d_38">
      <g>
       <use xlink:href="#m034c411009" x="115.2" y="198.436296" style="stroke: #000000; stroke-width: 0.8"/>
      </g>
     </g>
    </g>
    <g id="ytick_33">
     <g id="line2d_39">
      <g>
       <use xlink:href="#m034c411009" x="115.2" y="179.55907" style="stroke: #000000; stroke-width: 0.8"/>
      </g>
     </g>
    </g>
    <g id="ytick_34">
     <g id="line2d_40">
      <g>
       <use xlink:href="#m034c411009" x="115.2" y="166.165466" style="stroke: #000000; stroke-width: 0.8"/>
      </g>
     </g>
    </g>
    <g id="ytick_35">
     <g id="line2d_41">
      <g>
       <use xlink:href="#m034c411009" x="115.2" y="155.776579" style="stroke: #000000; stroke-width: 0.8"/>
      </g>
     </g>
    </g>
    <g id="ytick_36">
     <g id="line2d_42">
      <g>
       <use xlink:href="#m034c411009" x="115.2" y="147.28824" style="stroke: #000000; stroke-width: 0.8"/>
      </g>
     </g>
    </g>
    <g id="ytick_37">
     <g id="line2d_43">
      <g>
       <use xlink:href="#m034c411009" x="115.2" y="140.111452" style="stroke: #000000; stroke-width: 0.8"/>
      </g>
     </g>
    </g>
    <g id="ytick_38">
     <g id="line2d_44">
      <g>
       <use xlink:href="#m034c411009" x="115.2" y="133.894636" style="stroke: #000000; stroke-width: 0.8"/>
      </g>
     </g>
    </g>
    <g id="ytick_39">
     <g id="line2d_45">
      <g>
       <use xlink:href="#m034c411009" x="115.2" y="128.411015" style="stroke: #000000; stroke-width: 0.8"/>
      </g>
     </g>
    </g>
    <g id="ytick_40">
     <g id="line2d_46">
      <g>
       <use xlink:href="#m034c411009" x="115.2" y="91.234919" style="stroke: #000000; stroke-width: 0.8"/>
      </g>
     </g>
    </g>
    <g id="text_13">
     <!-- Node evaluations per second (NEPS) -->
     <g transform="translate(69.278437 447.984875)rotate(-90)scale(0.14 -0.14)">
      <defs>
       <path id="DejaVuSans-4e" d="M 628 4666 
L 1478 4666 
L 3547 763 
L 3547 4666 
L 4159 4666 
L 4159 0 
L 3309 0 
L 1241 3903 
L 1241 0 
L 628 0 
L 628 4666 
z
" transform="scale(0.015625)"/>
       <path id="DejaVuSans-64" d="M 2906 2969 
L 2906 4863 
L 3481 4863 
L 3481 0 
L 2906 0 
L 2906 525 
Q 2725 213 2448 61 
Q 2172 -91 1784 -91 
Q 1150 -91 751 415 
Q 353 922 353 1747 
Q 353 2572 751 3078 
Q 1150 3584 1784 3584 
Q 2172 3584 2448 3432 
Q 2725 3281 2906 2969 
z
M 947 1747 
Q 947 1113 1208 752 
Q 1469 391 1925 391 
Q 2381 391 2643 752 
Q 2906 1113 2906 1747 
Q 2906 2381 2643 2742 
Q 2381 3103 1925 3103 
Q 1469 3103 1208 2742 
Q 947 2381 947 1747 
z
" transform="scale(0.015625)"/>
       <path id="DejaVuSans-76" d="M 191 3500 
L 800 3500 
L 1894 563 
L 2988 3500 
L 3597 3500 
L 2284 0 
L 1503 0 
L 191 3500 
z
" transform="scale(0.015625)"/>
       <path id="DejaVuSans-6c" d="M 603 4863 
L 1178 4863 
L 1178 0 
L 603 0 
L 603 4863 
z
" transform="scale(0.015625)"/>
       <path id="DejaVuSans-74" d="M 1172 4494 
L 1172 3500 
L 2356 3500 
L 2356 3053 
L 1172 3053 
L 1172 1153 
Q 1172 725 1289 603 
Q 1406 481 1766 481 
L 2356 481 
L 2356 0 
L 1766 0 
Q 1100 0 847 248 
Q 594 497 594 1153 
L 594 3053 
L 172 3053 
L 172 3500 
L 594 3500 
L 594 4494 
L 1172 4494 
z
" transform="scale(0.015625)"/>
       <path id="DejaVuSans-63" d="M 3122 3366 
L 3122 2828 
Q 2878 2963 2633 3030 
Q 2388 3097 2138 3097 
Q 1578 3097 1268 2742 
Q 959 2388 959 1747 
Q 959 1106 1268 751 
Q 1578 397 2138 397 
Q 2388 397 2633 464 
Q 2878 531 3122 666 
L 3122 134 
Q 2881 22 2623 -34 
Q 2366 -91 2075 -91 
Q 1284 -91 818 406 
Q 353 903 353 1747 
Q 353 2603 823 3093 
Q 1294 3584 2113 3584 
Q 2378 3584 2631 3529 
Q 2884 3475 3122 3366 
z
" transform="scale(0.015625)"/>
       <path id="DejaVuSans-28" d="M 1984 4856 
Q 1566 4138 1362 3434 
Q 1159 2731 1159 2009 
Q 1159 1288 1364 580 
Q 1569 -128 1984 -844 
L 1484 -844 
Q 1016 -109 783 600 
Q 550 1309 550 2009 
Q 550 2706 781 3412 
Q 1013 4119 1484 4856 
L 1984 4856 
z
" transform="scale(0.015625)"/>
       <path id="DejaVuSans-45" d="M 628 4666 
L 3578 4666 
L 3578 4134 
L 1259 4134 
L 1259 2753 
L 3481 2753 
L 3481 2222 
L 1259 2222 
L 1259 531 
L 3634 531 
L 3634 0 
L 628 0 
L 628 4666 
z
" transform="scale(0.015625)"/>
       <path id="DejaVuSans-50" d="M 1259 4147 
L 1259 2394 
L 2053 2394 
Q 2494 2394 2734 2622 
Q 2975 2850 2975 3272 
Q 2975 3691 2734 3919 
Q 2494 4147 2053 4147 
L 1259 4147 
z
M 628 4666 
L 2053 4666 
Q 2838 4666 3239 4311 
Q 3641 3956 3641 3272 
Q 3641 2581 3239 2228 
Q 2838 1875 2053 1875 
L 1259 1875 
L 1259 0 
L 628 0 
L 628 4666 
z
" transform="scale(0.015625)"/>
       <path id="DejaVuSans-53" d="M 3425 4513 
L 3425 3897 
Q 3066 4069 2747 4153 
Q 2428 4238 2131 4238 
Q 1616 4238 1336 4038 
Q 1056 3838 1056 3469 
Q 1056 3159 1242 3001 
Q 1428 2844 1947 2747 
L 2328 2669 
Q 3034 2534 3370 2195 
Q 3706 1856 3706 1288 
Q 3706 609 3251 259 
Q 2797 -91 1919 -91 
Q 1588 -91 1214 -16 
Q 841 59 441 206 
L 441 856 
Q 825 641 1194 531 
Q 1563 422 1919 422 
Q 2459 422 2753 634 
Q 3047 847 3047 1241 
Q 3047 1584 2836 1778 
Q 2625 1972 2144 2069 
L 1759 2144 
Q 1053 2284 737 2584 
Q 422 2884 422 3419 
Q 422 4038 858 4394 
Q 1294 4750 2059 4750 
Q 2388 4750 2728 4690 
Q 3069 4631 3425 4513 
z
" transform="scale(0.015625)"/>
       <path id="DejaVuSans-29" d="M 513 4856 
L 1013 4856 
Q 1481 4119 1714 3412 
Q 1947 2706 1947 2009 
Q 1947 1309 1714 600 
Q 1481 -109 1013 -844 
L 513 -844 
Q 928 -128 1133 580 
Q 1338 1288 1338 2009 
Q 1338 2731 1133 3434 
Q 928 4138 513 4856 
z
" transform="scale(0.015625)"/>
      </defs>
      <use xlink:href="#DejaVuSans-4e"/>
      <use xlink:href="#DejaVuSans-6f" x="74.804688"/>
      <use xlink:href="#DejaVuSans-64" x="135.986328"/>
      <use xlink:href="#DejaVuSans-65" x="199.462891"/>
      <use xlink:href="#DejaVuSans-20" x="260.986328"/>
      <use xlink:href="#DejaVuSans-65" x="292.773438"/>
      <use xlink:href="#DejaVuSans-76" x="354.296875"/>
      <use xlink:href="#DejaVuSans-61" x="413.476562"/>
      <use xlink:href="#DejaVuSans-6c" x="474.755859"/>
      <use xlink:href="#DejaVuSans-75" x="502.539062"/>
      <use xlink:href="#DejaVuSans-61" x="565.917969"/>
      <use xlink:href="#DejaVuSans-74" x="627.197266"/>
      <use xlink:href="#DejaVuSans-69" x="666.40625"/>
      <use xlink:href="#DejaVuSans-6f" x="694.189453"/>
      <use xlink:href="#DejaVuSans-6e" x="755.371094"/>
      <use xlink:href="#DejaVuSans-73" x="818.75"/>
      <use xlink:href="#DejaVuSans-20" x="870.849609"/>
      <use xlink:href="#DejaVuSans-70" x="902.636719"/>
      <use xlink:href="#DejaVuSans-65" x="966.113281"/>
      <use xlink:href="#DejaVuSans-72" x="1027.636719"/>
      <use xlink:href="#DejaVuSans-20" x="1068.75"/>
      <use xlink:href="#DejaVuSans-73" x="1100.537109"/>
      <use xlink:href="#DejaVuSans-65" x="1152.636719"/>
      <use xlink:href="#DejaVuSans-63" x="1214.160156"/>
      <use xlink:href="#DejaVuSans-6f" x="1269.140625"/>
      <use xlink:href="#DejaVuSans-6e" x="1330.322266"/>
      <use xlink:href="#DejaVuSans-64" x="1393.701172"/>
      <use xlink:href="#DejaVuSans-20" x="1457.177734"/>
      <use xlink:href="#DejaVuSans-28" x="1488.964844"/>
      <use xlink:href="#DejaVuSans-4e" x="1527.978516"/>
      <use xlink:href="#DejaVuSans-45" x="1602.783203"/>
      <use xlink:href="#DejaVuSans-50" x="1665.966797"/>
      <use xlink:href="#DejaVuSans-53" x="1726.269531"/>
      <use xlink:href="#DejaVuSans-29" x="1789.746094"/>
     </g>
    </g>
   </g>
   <g id="line2d_47">
    <path d="M 147.665455 541.728 
L 168.610909 528.667543 
L 189.556364 525.271999 
L 210.501818 524.148347 
L 231.447273 522.76416 
L 252.392727 522.042545 
L 273.338182 521.668504 
L 294.283636 521.501381 
L 315.229091 520.721044 
L 336.174545 520.720102 
L 357.12 520.428738 
L 378.065455 520.721468 
L 399.010909 519.753284 
L 419.956364 519.806169 
L 440.901818 519.446683 
L 461.847273 519.795158 
L 482.792727 519.226886 
L 503.738182 518.812634 
L 524.683636 518.82778 
L 545.629091 519.116589 
L 566.574545 519.011947 
L 587.52 519.010201 
L 608.465455 518.485115 
L 629.410909 518.555027 
L 650.356364 518.654951 
L 671.301818 518.63521 
L 692.247273 518.580409 
L 713.192727 518.7726 
L 734.138182 518.159917 
L 755.083636 518.312064 
L 776.029091 518.425199 
L 796.974545 518.608038 
" clip-path="url(#p36c5162c6a)" style="fill: none; stroke: #000000; stroke-width: 0.1; stroke-linecap: square"/>
    <defs>
     <path id="mff112e4550" d="M -3 6 
L 0 3 
L 3 6 
L 6 3 
L 3 0 
L 6 -3 
L 3 -6 
L 0 -3 
L -3 -6 
L -6 -3 
L -3 0 
L -6 3 
z
"/>
    </defs>
    <g clip-path="url(#p36c5162c6a)">
     <use xlink:href="#mff112e4550" x="147.665455" y="541.728" style="fill: #17becf"/>
     <use xlink:href="#mff112e4550" x="168.610909" y="528.667543" style="fill: #17becf"/>
     <use xlink:href="#mff112e4550" x="189.556364" y="525.271999" style="fill: #17becf"/>
     <use xlink:href="#mff112e4550" x="210.501818" y="524.148347" style="fill: #17becf"/>
     <use xlink:href="#mff112e4550" x="231.447273" y="522.76416" style="fill: #17becf"/>
     <use xlink:href="#mff112e4550" x="252.392727" y="522.042545" style="fill: #17becf"/>
     <use xlink:href="#mff112e4550" x="273.338182" y="521.668504" style="fill: #17becf"/>
     <use xlink:href="#mff112e4550" x="294.283636" y="521.501381" style="fill: #17becf"/>
     <use xlink:href="#mff112e4550" x="315.229091" y="520.721044" style="fill: #17becf"/>
     <use xlink:href="#mff112e4550" x="336.174545" y="520.720102" style="fill: #17becf"/>
     <use xlink:href="#mff112e4550" x="357.12" y="520.428738" style="fill: #17becf"/>
     <use xlink:href="#mff112e4550" x="378.065455" y="520.721468" style="fill: #17becf"/>
     <use xlink:href="#mff112e4550" x="399.010909" y="519.753284" style="fill: #17becf"/>
     <use xlink:href="#mff112e4550" x="419.956364" y="519.806169" style="fill: #17becf"/>
     <use xlink:href="#mff112e4550" x="440.901818" y="519.446683" style="fill: #17becf"/>
     <use xlink:href="#mff112e4550" x="461.847273" y="519.795158" style="fill: #17becf"/>
     <use xlink:href="#mff112e4550" x="482.792727" y="519.226886" style="fill: #17becf"/>
     <use xlink:href="#mff112e4550" x="503.738182" y="518.812634" style="fill: #17becf"/>
     <use xlink:href="#mff112e4550" x="524.683636" y="518.82778" style="fill: #17becf"/>
     <use xlink:href="#mff112e4550" x="545.629091" y="519.116589" style="fill: #17becf"/>
     <use xlink:href="#mff112e4550" x="566.574545" y="519.011947" style="fill: #17becf"/>
     <use xlink:href="#mff112e4550" x="587.52" y="519.010201" style="fill: #17becf"/>
     <use xlink:href="#mff112e4550" x="608.465455" y="518.485115" style="fill: #17becf"/>
     <use xlink:href="#mff112e4550" x="629.410909" y="518.555027" style="fill: #17becf"/>
     <use xlink:href="#mff112e4550" x="650.356364" y="518.654951" style="fill: #17becf"/>
     <use xlink:href="#mff112e4550" x="671.301818" y="518.63521" style="fill: #17becf"/>
     <use xlink:href="#mff112e4550" x="692.247273" y="518.580409" style="fill: #17becf"/>
     <use xlink:href="#mff112e4550" x="713.192727" y="518.7726" style="fill: #17becf"/>
     <use xlink:href="#mff112e4550" x="734.138182" y="518.159917" style="fill: #17becf"/>
     <use xlink:href="#mff112e4550" x="755.083636" y="518.312064" style="fill: #17becf"/>
     <use xlink:href="#mff112e4550" x="776.029091" y="518.425199" style="fill: #17becf"/>
     <use xlink:href="#mff112e4550" x="796.974545" y="518.608038" style="fill: #17becf"/>
    </g>
   </g>
   <g id="line2d_48">
    <path d="M 115.2 445.109881 
L 829.44 445.109881 
" clip-path="url(#p36c5162c6a)" style="fill: none; stroke-dasharray: 10.36,4.48; stroke-dashoffset: 0; stroke: #808080; stroke-width: 2.8"/>
   </g>
   <g id="line2d_49">
    <path d="M 147.665455 450.142383 
L 168.610909 427.262748 
L 189.556364 419.22165 
L 210.501818 416.683802 
L 231.447273 415.33085 
L 252.392727 414.132104 
L 273.338182 413.140672 
L 294.283636 412.951142 
L 315.229091 412.401612 
L 336.174545 411.487249 
L 357.12 411.474171 
L 378.065455 410.974304 
L 399.010909 410.930658 
L 419.956364 410.997823 
L 440.901818 410.384702 
L 461.847273 410.309726 
L 482.792727 410.46768 
L 503.738182 410.37035 
L 524.683636 410.135174 
L 545.629091 410.187045 
L 566.574545 409.777106 
L 587.52 415.083589 
L 608.465455 410.157459 
L 629.410909 409.46816 
L 650.356364 409.668278 
L 671.301818 409.409453 
L 692.247273 409.806638 
L 713.192727 409.888113 
L 734.138182 409.923963 
L 755.083636 409.45687 
L 776.029091 409.13988 
L 796.974545 409.149403 
" clip-path="url(#p36c5162c6a)" style="fill: none; stroke: #000000; stroke-width: 0.1; stroke-linecap: square"/>
    <defs>
     <path id="m53c4b526be" d="M 0 -6 
L -6 6 
L 6 6 
z
"/>
    </defs>
    <g clip-path="url(#p36c5162c6a)">
     <use xlink:href="#m53c4b526be" x="147.665455" y="450.142383" style="fill: #9467bd"/>
     <use xlink:href="#m53c4b526be" x="168.610909" y="427.262748" style="fill: #9467bd"/>
     <use xlink:href="#m53c4b526be" x="189.556364" y="419.22165" style="fill: #9467bd"/>
     <use xlink:href="#m53c4b526be" x="210.501818" y="416.683802" style="fill: #9467bd"/>
     <use xlink:href="#m53c4b526be" x="231.447273" y="415.33085" style="fill: #9467bd"/>
     <use xlink:href="#m53c4b526be" x="252.392727" y="414.132104" style="fill: #9467bd"/>
     <use xlink:href="#m53c4b526be" x="273.338182" y="413.140672" style="fill: #9467bd"/>
     <use xlink:href="#m53c4b526be" x="294.283636" y="412.951142" style="fill: #9467bd"/>
     <use xlink:href="#m53c4b526be" x="315.229091" y="412.401612" style="fill: #9467bd"/>
     <use xlink:href="#m53c4b526be" x="336.174545" y="411.487249" style="fill: #9467bd"/>
     <use xlink:href="#m53c4b526be" x="357.12" y="411.474171" style="fill: #9467bd"/>
     <use xlink:href="#m53c4b526be" x="378.065455" y="410.974304" style="fill: #9467bd"/>
     <use xlink:href="#m53c4b526be" x="399.010909" y="410.930658" style="fill: #9467bd"/>
     <use xlink:href="#m53c4b526be" x="419.956364" y="410.997823" style="fill: #9467bd"/>
     <use xlink:href="#m53c4b526be" x="440.901818" y="410.384702" style="fill: #9467bd"/>
     <use xlink:href="#m53c4b526be" x="461.847273" y="410.309726" style="fill: #9467bd"/>
     <use xlink:href="#m53c4b526be" x="482.792727" y="410.46768" style="fill: #9467bd"/>
     <use xlink:href="#m53c4b526be" x="503.738182" y="410.37035" style="fill: #9467bd"/>
     <use xlink:href="#m53c4b526be" x="524.683636" y="410.135174" style="fill: #9467bd"/>
     <use xlink:href="#m53c4b526be" x="545.629091" y="410.187045" style="fill: #9467bd"/>
     <use xlink:href="#m53c4b526be" x="566.574545" y="409.777106" style="fill: #9467bd"/>
     <use xlink:href="#m53c4b526be" x="587.52" y="415.083589" style="fill: #9467bd"/>
     <use xlink:href="#m53c4b526be" x="608.465455" y="410.157459" style="fill: #9467bd"/>
     <use xlink:href="#m53c4b526be" x="629.410909" y="409.46816" style="fill: #9467bd"/>
     <use xlink:href="#m53c4b526be" x="650.356364" y="409.668278" style="fill: #9467bd"/>
     <use xlink:href="#m53c4b526be" x="671.301818" y="409.409453" style="fill: #9467bd"/>
     <use xlink:href="#m53c4b526be" x="692.247273" y="409.806638" style="fill: #9467bd"/>
     <use xlink:href="#m53c4b526be" x="713.192727" y="409.888113" style="fill: #9467bd"/>
     <use xlink:href="#m53c4b526be" x="734.138182" y="409.923963" style="fill: #9467bd"/>
     <use xlink:href="#m53c4b526be" x="755.083636" y="409.45687" style="fill: #9467bd"/>
     <use xlink:href="#m53c4b526be" x="776.029091" y="409.13988" style="fill: #9467bd"/>
     <use xlink:href="#m53c4b526be" x="796.974545" y="409.149403" style="fill: #9467bd"/>
    </g>
   </g>
   <g id="line2d_50">
    <path d="M 115.2 445.109881 
L 829.44 445.109881 
" clip-path="url(#p36c5162c6a)" style="fill: none; stroke-dasharray: 10.36,4.48; stroke-dashoffset: 0; stroke: #808080; stroke-width: 2.8"/>
   </g>
   <g id="line2d_51">
    <path d="M 147.665455 455.691588 
L 168.610909 440.181568 
L 189.556364 433.166752 
L 210.501818 430.838345 
L 231.447273 429.062967 
L 252.392727 427.661196 
L 273.338182 427.345222 
L 294.283636 426.490331 
L 315.229091 426.605341 
L 336.174545 425.729684 
L 357.12 425.802389 
L 378.065455 425.453163 
L 399.010909 425.317223 
L 419.956364 425.489001 
L 440.901818 424.64741 
L 461.847273 424.75131 
L 482.792727 425.137264 
L 503.738182 424.989005 
L 524.683636 424.567555 
L 545.629091 424.700819 
L 566.574545 424.33065 
L 587.52 424.576219 
L 608.465455 424.363298 
L 629.410909 424.163787 
L 650.356364 424.202418 
L 671.301818 424.095671 
L 692.247273 424.25538 
L 713.192727 424.482054 
L 734.138182 424.621765 
L 755.083636 424.080224 
L 776.029091 424.011607 
L 796.974545 423.902587 
" clip-path="url(#p36c5162c6a)" style="fill: none; stroke: #000000; stroke-width: 0.1; stroke-linecap: square"/>
    <defs>
     <path id="m1cadad6743" d="M 0 3 
C 0.795609 3 1.55874 2.683901 2.12132 2.12132 
C 2.683901 1.55874 3 0.795609 3 0 
C 3 -0.795609 2.683901 -1.55874 2.12132 -2.12132 
C 1.55874 -2.683901 0.795609 -3 0 -3 
C -0.795609 -3 -1.55874 -2.683901 -2.12132 -2.12132 
C -2.683901 -1.55874 -3 -0.795609 -3 0 
C -3 0.795609 -2.683901 1.55874 -2.12132 2.12132 
C -1.55874 2.683901 -0.795609 3 0 3 
z
"/>
    </defs>
    <g clip-path="url(#p36c5162c6a)">
     <use xlink:href="#m1cadad6743" x="147.665455" y="455.691588" style="fill: #1f77b4"/>
     <use xlink:href="#m1cadad6743" x="168.610909" y="440.181568" style="fill: #1f77b4"/>
     <use xlink:href="#m1cadad6743" x="189.556364" y="433.166752" style="fill: #1f77b4"/>
     <use xlink:href="#m1cadad6743" x="210.501818" y="430.838345" style="fill: #1f77b4"/>
     <use xlink:href="#m1cadad6743" x="231.447273" y="429.062967" style="fill: #1f77b4"/>
     <use xlink:href="#m1cadad6743" x="252.392727" y="427.661196" style="fill: #1f77b4"/>
     <use xlink:href="#m1cadad6743" x="273.338182" y="427.345222" style="fill: #1f77b4"/>
     <use xlink:href="#m1cadad6743" x="294.283636" y="426.490331" style="fill: #1f77b4"/>
     <use xlink:href="#m1cadad6743" x="315.229091" y="426.605341" style="fill: #1f77b4"/>
     <use xlink:href="#m1cadad6743" x="336.174545" y="425.729684" style="fill: #1f77b4"/>
     <use xlink:href="#m1cadad6743" x="357.12" y="425.802389" style="fill: #1f77b4"/>
     <use xlink:href="#m1cadad6743" x="378.065455" y="425.453163" style="fill: #1f77b4"/>
     <use xlink:href="#m1cadad6743" x="399.010909" y="425.317223" style="fill: #1f77b4"/>
     <use xlink:href="#m1cadad6743" x="419.956364" y="425.489001" style="fill: #1f77b4"/>
     <use xlink:href="#m1cadad6743" x="440.901818" y="424.64741" style="fill: #1f77b4"/>
     <use xlink:href="#m1cadad6743" x="461.847273" y="424.75131" style="fill: #1f77b4"/>
     <use xlink:href="#m1cadad6743" x="482.792727" y="425.137264" style="fill: #1f77b4"/>
     <use xlink:href="#m1cadad6743" x="503.738182" y="424.989005" style="fill: #1f77b4"/>
     <use xlink:href="#m1cadad6743" x="524.683636" y="424.567555" style="fill: #1f77b4"/>
     <use xlink:href="#m1cadad6743" x="545.629091" y="424.700819" style="fill: #1f77b4"/>
     <use xlink:href="#m1cadad6743" x="566.574545" y="424.33065" style="fill: #1f77b4"/>
     <use xlink:href="#m1cadad6743" x="587.52" y="424.576219" style="fill: #1f77b4"/>
     <use xlink:href="#m1cadad6743" x="608.465455" y="424.363298" style="fill: #1f77b4"/>
     <use xlink:href="#m1cadad6743" x="629.410909" y="424.163787" style="fill: #1f77b4"/>
     <use xlink:href="#m1cadad6743" x="650.356364" y="424.202418" style="fill: #1f77b4"/>
     <use xlink:href="#m1cadad6743" x="671.301818" y="424.095671" style="fill: #1f77b4"/>
     <use xlink:href="#m1cadad6743" x="692.247273" y="424.25538" style="fill: #1f77b4"/>
     <use xlink:href="#m1cadad6743" x="713.192727" y="424.482054" style="fill: #1f77b4"/>
     <use xlink:href="#m1cadad6743" x="734.138182" y="424.621765" style="fill: #1f77b4"/>
     <use xlink:href="#m1cadad6743" x="755.083636" y="424.080224" style="fill: #1f77b4"/>
     <use xlink:href="#m1cadad6743" x="776.029091" y="424.011607" style="fill: #1f77b4"/>
     <use xlink:href="#m1cadad6743" x="796.974545" y="423.902587" style="fill: #1f77b4"/>
    </g>
   </g>
   <g id="line2d_52">
    <path d="M 115.2 445.109881 
L 829.44 445.109881 
" clip-path="url(#p36c5162c6a)" style="fill: none; stroke-dasharray: 10.36,4.48; stroke-dashoffset: 0; stroke: #808080; stroke-width: 2.8"/>
   </g>
   <g id="line2d_53">
    <path d="M 147.665455 222.368411 
L 168.610909 207.691529 
L 189.556364 204.124222 
L 210.501818 200.715105 
L 231.447273 199.204526 
L 252.392727 200.377408 
L 273.338182 198.761993 
L 294.283636 199.139299 
L 315.229091 199.290841 
L 336.174545 199.653282 
L 357.12 201.840754 
L 378.065455 200.13257 
L 399.010909 199.116593 
L 419.956364 199.081003 
L 440.901818 199.590043 
L 461.847273 200.072434 
L 482.792727 202.8619 
L 503.738182 199.748763 
L 524.683636 200.370423 
L 545.629091 200.977532 
L 566.574545 203.471016 
L 587.52 201.58954 
L 608.465455 203.350292 
L 629.410909 204.472571 
L 650.356364 205.650004 
L 671.301818 207.609185 
L 692.247273 209.339585 
L 713.192727 210.90916 
L 734.138182 214.826575 
L 755.083636 217.498844 
L 776.029091 218.463967 
L 796.974545 220.941993 
" clip-path="url(#p36c5162c6a)" style="fill: none; stroke: #000000; stroke-width: 0.1; stroke-linecap: square"/>
    <defs>
     <path id="m1b16f14854" d="M -0 8.485281 
L 5.091169 0 
L 0 -8.485281 
L -5.091169 -0 
z
"/>
    </defs>
    <g clip-path="url(#p36c5162c6a)">
     <use xlink:href="#m1b16f14854" x="147.665455" y="222.368411" style="fill: #2ca02c"/>
     <use xlink:href="#m1b16f14854" x="168.610909" y="207.691529" style="fill: #2ca02c"/>
     <use xlink:href="#m1b16f14854" x="189.556364" y="204.124222" style="fill: #2ca02c"/>
     <use xlink:href="#m1b16f14854" x="210.501818" y="200.715105" style="fill: #2ca02c"/>
     <use xlink:href="#m1b16f14854" x="231.447273" y="199.204526" style="fill: #2ca02c"/>
     <use xlink:href="#m1b16f14854" x="252.392727" y="200.377408" style="fill: #2ca02c"/>
     <use xlink:href="#m1b16f14854" x="273.338182" y="198.761993" style="fill: #2ca02c"/>
     <use xlink:href="#m1b16f14854" x="294.283636" y="199.139299" style="fill: #2ca02c"/>
     <use xlink:href="#m1b16f14854" x="315.229091" y="199.290841" style="fill: #2ca02c"/>
     <use xlink:href="#m1b16f14854" x="336.174545" y="199.653282" style="fill: #2ca02c"/>
     <use xlink:href="#m1b16f14854" x="357.12" y="201.840754" style="fill: #2ca02c"/>
     <use xlink:href="#m1b16f14854" x="378.065455" y="200.13257" style="fill: #2ca02c"/>
     <use xlink:href="#m1b16f14854" x="399.010909" y="199.116593" style="fill: #2ca02c"/>
     <use xlink:href="#m1b16f14854" x="419.956364" y="199.081003" style="fill: #2ca02c"/>
     <use xlink:href="#m1b16f14854" x="440.901818" y="199.590043" style="fill: #2ca02c"/>
     <use xlink:href="#m1b16f14854" x="461.847273" y="200.072434" style="fill: #2ca02c"/>
     <use xlink:href="#m1b16f14854" x="482.792727" y="202.8619" style="fill: #2ca02c"/>
     <use xlink:href="#m1b16f14854" x="503.738182" y="199.748763" style="fill: #2ca02c"/>
     <use xlink:href="#m1b16f14854" x="524.683636" y="200.370423" style="fill: #2ca02c"/>
     <use xlink:href="#m1b16f14854" x="545.629091" y="200.977532" style="fill: #2ca02c"/>
     <use xlink:href="#m1b16f14854" x="566.574545" y="203.471016" style="fill: #2ca02c"/>
     <use xlink:href="#m1b16f14854" x="587.52" y="201.58954" style="fill: #2ca02c"/>
     <use xlink:href="#m1b16f14854" x="608.465455" y="203.350292" style="fill: #2ca02c"/>
     <use xlink:href="#m1b16f14854" x="629.410909" y="204.472571" style="fill: #2ca02c"/>
     <use xlink:href="#m1b16f14854" x="650.356364" y="205.650004" style="fill: #2ca02c"/>
     <use xlink:href="#m1b16f14854" x="671.301818" y="207.609185" style="fill: #2ca02c"/>
     <use xlink:href="#m1b16f14854" x="692.247273" y="209.339585" style="fill: #2ca02c"/>
     <use xlink:href="#m1b16f14854" x="713.192727" y="210.90916" style="fill: #2ca02c"/>
     <use xlink:href="#m1b16f14854" x="734.138182" y="214.826575" style="fill: #2ca02c"/>
     <use xlink:href="#m1b16f14854" x="755.083636" y="217.498844" style="fill: #2ca02c"/>
     <use xlink:href="#m1b16f14854" x="776.029091" y="218.463967" style="fill: #2ca02c"/>
     <use xlink:href="#m1b16f14854" x="796.974545" y="220.941993" style="fill: #2ca02c"/>
    </g>
   </g>
   <g id="line2d_54">
    <path d="M 115.2 445.109881 
L 829.44 445.109881 
" clip-path="url(#p36c5162c6a)" style="fill: none; stroke-dasharray: 10.36,4.48; stroke-dashoffset: 0; stroke: #808080; stroke-width: 2.8"/>
   </g>
   <g id="line2d_55">
    <path d="M 147.665455 287.701991 
L 168.610909 239.183402 
L 189.556364 215.366042 
L 210.501818 200.155144 
L 231.447273 188.522347 
L 252.392727 179.117769 
L 273.338182 171.457916 
L 294.283636 164.806835 
L 315.229091 159.088795 
L 336.174545 153.828578 
L 357.12 149.226977 
L 378.065455 144.920786 
L 399.010909 141.127709 
L 419.956364 137.509178 
L 440.901818 134.222069 
L 461.847273 131.120516 
L 482.792727 128.220337 
L 503.738182 125.507607 
L 524.683636 122.931763 
L 545.629091 120.480173 
L 566.574545 118.182654 
L 587.52 115.903164 
L 608.465455 113.801037 
L 629.410909 111.790645 
L 650.356364 109.874142 
L 671.301818 108.009036 
L 692.247273 106.222471 
L 713.192727 104.497533 
L 734.138182 102.825407 
L 755.083636 101.226959 
L 776.029091 99.675195 
L 796.974545 98.208 
" clip-path="url(#p36c5162c6a)" style="fill: none; stroke: #000000; stroke-width: 0.1; stroke-linecap: square"/>
    <defs>
     <path id="m9925de9e3b" d="M 0 -6 
L -1.347084 -1.854102 
L -5.706339 -1.854102 
L -2.179628 0.708204 
L -3.526712 4.854102 
L -0 2.291796 
L 3.526712 4.854102 
L 2.179628 0.708204 
L 5.706339 -1.854102 
L 1.347084 -1.854102 
z
"/>
    </defs>
    <g clip-path="url(#p36c5162c6a)">
     <use xlink:href="#m9925de9e3b" x="147.665455" y="287.701991" style="fill: #d62728"/>
     <use xlink:href="#m9925de9e3b" x="168.610909" y="239.183402" style="fill: #d62728"/>
     <use xlink:href="#m9925de9e3b" x="189.556364" y="215.366042" style="fill: #d62728"/>
     <use xlink:href="#m9925de9e3b" x="210.501818" y="200.155144" style="fill: #d62728"/>
     <use xlink:href="#m9925de9e3b" x="231.447273" y="188.522347" style="fill: #d62728"/>
     <use xlink:href="#m9925de9e3b" x="252.392727" y="179.117769" style="fill: #d62728"/>
     <use xlink:href="#m9925de9e3b" x="273.338182" y="171.457916" style="fill: #d62728"/>
     <use xlink:href="#m9925de9e3b" x="294.283636" y="164.806835" style="fill: #d62728"/>
     <use xlink:href="#m9925de9e3b" x="315.229091" y="159.088795" style="fill: #d62728"/>
     <use xlink:href="#m9925de9e3b" x="336.174545" y="153.828578" style="fill: #d62728"/>
     <use xlink:href="#m9925de9e3b" x="357.12" y="149.226977" style="fill: #d62728"/>
     <use xlink:href="#m9925de9e3b" x="378.065455" y="144.920786" style="fill: #d62728"/>
     <use xlink:href="#m9925de9e3b" x="399.010909" y="141.127709" style="fill: #d62728"/>
     <use xlink:href="#m9925de9e3b" x="419.956364" y="137.509178" style="fill: #d62728"/>
     <use xlink:href="#m9925de9e3b" x="440.901818" y="134.222069" style="fill: #d62728"/>
     <use xlink:href="#m9925de9e3b" x="461.847273" y="131.120516" style="fill: #d62728"/>
     <use xlink:href="#m9925de9e3b" x="482.792727" y="128.220337" style="fill: #d62728"/>
     <use xlink:href="#m9925de9e3b" x="503.738182" y="125.507607" style="fill: #d62728"/>
     <use xlink:href="#m9925de9e3b" x="524.683636" y="122.931763" style="fill: #d62728"/>
     <use xlink:href="#m9925de9e3b" x="545.629091" y="120.480173" style="fill: #d62728"/>
     <use xlink:href="#m9925de9e3b" x="566.574545" y="118.182654" style="fill: #d62728"/>
     <use xlink:href="#m9925de9e3b" x="587.52" y="115.903164" style="fill: #d62728"/>
     <use xlink:href="#m9925de9e3b" x="608.465455" y="113.801037" style="fill: #d62728"/>
     <use xlink:href="#m9925de9e3b" x="629.410909" y="111.790645" style="fill: #d62728"/>
     <use xlink:href="#m9925de9e3b" x="650.356364" y="109.874142" style="fill: #d62728"/>
     <use xlink:href="#m9925de9e3b" x="671.301818" y="108.009036" style="fill: #d62728"/>
     <use xlink:href="#m9925de9e3b" x="692.247273" y="106.222471" style="fill: #d62728"/>
     <use xlink:href="#m9925de9e3b" x="713.192727" y="104.497533" style="fill: #d62728"/>
     <use xlink:href="#m9925de9e3b" x="734.138182" y="102.825407" style="fill: #d62728"/>
     <use xlink:href="#m9925de9e3b" x="755.083636" y="101.226959" style="fill: #d62728"/>
     <use xlink:href="#m9925de9e3b" x="776.029091" y="99.675195" style="fill: #d62728"/>
     <use xlink:href="#m9925de9e3b" x="796.974545" y="98.208" style="fill: #d62728"/>
    </g>
   </g>
   <g id="line2d_56">
    <path d="M 115.2 445.109881 
L 829.44 445.109881 
" clip-path="url(#p36c5162c6a)" style="fill: none; stroke-dasharray: 10.36,4.48; stroke-dashoffset: 0; stroke: #808080; stroke-width: 2.8"/>
   </g>
   <g id="patch_3">
    <path d="M 115.2 563.904 
L 115.2 76.032 
" style="fill: none; stroke: #000000; stroke-width: 0.8; stroke-linejoin: miter; stroke-linecap: square"/>
   </g>
   <g id="patch_4">
    <path d="M 829.44 563.904 
L 829.44 76.032 
" style="fill: none; stroke: #000000; stroke-width: 0.8; stroke-linejoin: miter; stroke-linecap: square"/>
   </g>
   <g id="patch_5">
    <path d="M 115.2 563.904 
L 829.44 563.904 
" style="fill: none; stroke: #000000; stroke-width: 0.8; stroke-linejoin: miter; stroke-linecap: square"/>
   </g>
   <g id="patch_6">
    <path d="M 115.2 76.032 
L 829.44 76.032 
" style="fill: none; stroke: #000000; stroke-width: 0.8; stroke-linejoin: miter; stroke-linecap: square"/>
   </g>
   <g id="text_14">
    <!-- $10^9$ for scale -->
    <g transform="translate(260.901818 434.720994)scale(0.11 -0.11)">
     <defs>
      <path id="DejaVuSans-66" d="M 2375 4863 
L 2375 4384 
L 1825 4384 
Q 1516 4384 1395 4259 
Q 1275 4134 1275 3809 
L 1275 3500 
L 2222 3500 
L 2222 3053 
L 1275 3053 
L 1275 0 
L 697 0 
L 697 3053 
L 147 3053 
L 147 3500 
L 697 3500 
L 697 3744 
Q 697 4328 969 4595 
Q 1241 4863 1831 4863 
L 2375 4863 
z
" transform="scale(0.015625)"/>
     </defs>
     <use xlink:href="#DejaVuSans-31" transform="translate(0 0.765625)"/>
     <use xlink:href="#DejaVuSans-30" transform="translate(63.623047 0.765625)"/>
     <use xlink:href="#DejaVuSans-39" transform="translate(128.203125 39.046875)scale(0.7)"/>
     <use xlink:href="#DejaVuSans-20" transform="translate(175.473633 0.765625)"/>
     <use xlink:href="#DejaVuSans-66" transform="translate(207.260742 0.765625)"/>
     <use xlink:href="#DejaVuSans-6f" transform="translate(242.46582 0.765625)"/>
     <use xlink:href="#DejaVuSans-72" transform="translate(303.647461 0.765625)"/>
     <use xlink:href="#DejaVuSans-20" transform="translate(344.760742 0.765625)"/>
     <use xlink:href="#DejaVuSans-73" transform="translate(376.547852 0.765625)"/>
     <use xlink:href="#DejaVuSans-63" transform="translate(428.647461 0.765625)"/>
     <use xlink:href="#DejaVuSans-61" transform="translate(483.62793 0.765625)"/>
     <use xlink:href="#DejaVuSans-6c" transform="translate(544.907227 0.765625)"/>
     <use xlink:href="#DejaVuSans-65" transform="translate(572.69043 0.765625)"/>
    </g>
   </g>
  </g>
 </g>
 <defs>
  <clipPath id="p36c5162c6a">
   <rect x="115.2" y="76.032" width="714.24" height="487.872"/>
  </clipPath>
 </defs>
</svg>
