<?xml version="1.0" encoding="utf-8" standalone="no"?>
<!DOCTYPE svg PUBLIC "-//W3C//DTD SVG 1.1//EN"
  "http://www.w3.org/Graphics/SVG/1.1/DTD/svg11.dtd">
<svg xmlns:xlink="http://www.w3.org/1999/xlink" width="921.6pt" height="633.6pt" viewBox="0 0 921.6 633.6" xmlns="http://www.w3.org/2000/svg" version="1.1">
 <metadata>
  <rdf:RDF xmlns:dc="http://purl.org/dc/elements/1.1/" xmlns:cc="http://creativecommons.org/ns#" xmlns:rdf="http://www.w3.org/1999/02/22-rdf-syntax-ns#">
   <cc:Work>
    <dc:type rdf:resource="http://purl.org/dc/dcmitype/StillImage"/>
    <dc:date>2022-11-02T20:32:30.986207</dc:date>
    <dc:format>image/svg+xml</dc:format>
    <dc:creator>
     <cc:Agent>
      <dc:title>Matplotlib v3.5.3, https://matplotlib.org/</dc:title>
     </cc:Agent>
    </dc:creator>
   </cc:Work>
  </rdf:RDF>
 </metadata>
 <defs>
  <style type="text/css">*{stroke-linejoin: round; stroke-linecap: butt}</style>
 </defs>
 <g id="figure_1">
  <g id="patch_1">
   <path d="M 0 633.6 
L 921.6 633.6 
L 921.6 0 
L 0 0 
z
" style="fill: #ffffff"/>
  </g>
  <g id="axes_1">
   <g id="patch_2">
    <path d="M 115.2 563.904 
L 829.44 563.904 
L 829.44 76.032 
L 115.2 76.032 
z
" style="fill: #ffffff"/>
   </g>
   <g id="PolyCollection_1">
    <defs>
     <path id="m78da13a66a" d="M 147.665455 -91.872 
L 147.665455 -91.872 
L 168.610909 -120.848775 
L 189.556364 -138.148612 
L 210.501818 -150.611747 
L 231.447273 -157.473606 
L 252.392727 -158.280658 
L 273.338182 -166.098416 
L 294.283636 -168.901502 
L 315.229091 -174.284615 
L 336.174545 -176.061097 
L 357.12 -177.438537 
L 378.065455 -179.303372 
L 399.010909 -181.392217 
L 419.956364 -182.346807 
L 440.901818 -183.740019 
L 461.847273 -184.507481 
L 482.792727 -185.275293 
L 503.738182 -186.841243 
L 524.683636 -186.93027 
L 545.629091 -187.65907 
L 566.574545 -188.439051 
L 587.52 -187.994772 
L 608.465455 -189.582038 
L 629.410909 -189.526313 
L 650.356364 -189.957814 
L 671.301818 -190.739034 
L 692.247273 -191.14194 
L 713.192727 -191.380032 
L 734.138182 -191.97038 
L 755.083636 -191.224847 
L 776.029091 -192.18477 
L 796.974545 -192.382974 
L 796.974545 -192.382974 
L 796.974545 -192.382974 
L 776.029091 -192.18477 
L 755.083636 -191.224847 
L 734.138182 -191.97038 
L 713.192727 -191.380032 
L 692.247273 -191.14194 
L 671.301818 -190.739034 
L 650.356364 -189.957814 
L 629.410909 -189.526313 
L 608.465455 -189.582038 
L 587.52 -187.994772 
L 566.574545 -188.439051 
L 545.629091 -187.65907 
L 524.683636 -186.93027 
L 503.738182 -186.841243 
L 482.792727 -185.275293 
L 461.847273 -184.507481 
L 440.901818 -183.740019 
L 419.956364 -182.346807 
L 399.010909 -181.392217 
L 378.065455 -179.303372 
L 357.12 -177.438537 
L 336.174545 -176.061097 
L 315.229091 -174.284615 
L 294.283636 -168.901502 
L 273.338182 -166.098416 
L 252.392727 -158.280658 
L 231.447273 -157.473606 
L 210.501818 -150.611747 
L 189.556364 -138.148612 
L 168.610909 -120.848775 
L 147.665455 -91.872 
z
" style="stroke: #fff8dc; stroke-width: 0.48"/>
    </defs>
    <g clip-path="url(#p677adb2c43)">
     <use xlink:href="#m78da13a66a" x="0" y="633.6" style="fill: #fff8dc; stroke: #fff8dc; stroke-width: 0.48"/>
    </g>
   </g>
   <g id="PolyCollection_2">
    <defs>
     <path id="m0d4c51e812" d="M 147.665455 -160.707444 
L 147.665455 -160.707444 
L 168.610909 -186.653132 
L 189.556364 -196.986702 
L 210.501818 -202.747951 
L 231.447273 -206.663496 
L 252.392727 -209.929803 
L 273.338182 -211.818573 
L 294.283636 -213.91827 
L 315.229091 -214.143272 
L 336.174545 -216.367062 
L 357.12 -216.858073 
L 378.065455 -217.105703 
L 399.010909 -218.364188 
L 419.956364 -219.007451 
L 440.901818 -219.942464 
L 461.847273 -219.983793 
L 482.792727 -220.400499 
L 503.738182 -220.490267 
L 524.683636 -221.133243 
L 545.629091 -221.594079 
L 566.574545 -222.449896 
L 587.52 -222.668694 
L 608.465455 -222.809776 
L 629.410909 -222.998697 
L 650.356364 -223.336133 
L 671.301818 -223.628161 
L 692.247273 -224.178981 
L 713.192727 -224.146972 
L 734.138182 -224.55409 
L 755.083636 -223.967532 
L 776.029091 -225.111695 
L 796.974545 -225.320922 
L 796.974545 -225.320922 
L 796.974545 -225.320922 
L 776.029091 -225.111695 
L 755.083636 -223.967532 
L 734.138182 -224.55409 
L 713.192727 -224.146972 
L 692.247273 -224.178981 
L 671.301818 -223.628161 
L 650.356364 -223.336133 
L 629.410909 -222.998697 
L 608.465455 -222.809776 
L 587.52 -222.668694 
L 566.574545 -222.449896 
L 545.629091 -221.594079 
L 524.683636 -221.133243 
L 503.738182 -220.490267 
L 482.792727 -220.400499 
L 461.847273 -219.983793 
L 440.901818 -219.942464 
L 419.956364 -219.007451 
L 399.010909 -218.364188 
L 378.065455 -217.105703 
L 357.12 -216.858073 
L 336.174545 -216.367062 
L 315.229091 -214.143272 
L 294.283636 -213.91827 
L 273.338182 -211.818573 
L 252.392727 -209.929803 
L 231.447273 -206.663496 
L 210.501818 -202.747951 
L 189.556364 -196.986702 
L 168.610909 -186.653132 
L 147.665455 -160.707444 
z
" style="stroke: #fff8dc; stroke-width: 0.48"/>
    </defs>
    <g clip-path="url(#p677adb2c43)">
     <use xlink:href="#m0d4c51e812" x="0" y="633.6" style="fill: #fff8dc; stroke: #fff8dc; stroke-width: 0.48"/>
    </g>
   </g>
   <g id="PolyCollection_3">
    <defs>
     <path id="m619ae55bdb" d="M 147.665455 -153.563007 
L 147.665455 -153.563007 
L 168.610909 -175.12184 
L 189.556364 -184.582798 
L 210.501818 -186.192993 
L 231.447273 -191.985402 
L 252.392727 -195.679111 
L 273.338182 -197.635342 
L 294.283636 -199.205687 
L 315.229091 -200.362711 
L 336.174545 -202.043814 
L 357.12 -201.72129 
L 378.065455 -203.367163 
L 399.010909 -203.968484 
L 419.956364 -204.374393 
L 440.901818 -205.255567 
L 461.847273 -205.169948 
L 482.792727 -205.480681 
L 503.738182 -205.775578 
L 524.683636 -205.707639 
L 545.629091 -206.598745 
L 566.574545 -207.064684 
L 587.52 -207.151271 
L 608.465455 -207.413532 
L 629.410909 -207.659875 
L 650.356364 -207.931426 
L 671.301818 -208.695498 
L 692.247273 -208.758801 
L 713.192727 -208.401291 
L 734.138182 -208.815608 
L 755.083636 -208.69743 
L 776.029091 -209.443757 
L 796.974545 -209.566166 
L 796.974545 -209.566166 
L 796.974545 -209.566166 
L 776.029091 -209.443757 
L 755.083636 -208.69743 
L 734.138182 -208.815608 
L 713.192727 -208.401291 
L 692.247273 -208.758801 
L 671.301818 -208.695498 
L 650.356364 -207.931426 
L 629.410909 -207.659875 
L 608.465455 -207.413532 
L 587.52 -207.151271 
L 566.574545 -207.064684 
L 545.629091 -206.598745 
L 524.683636 -205.707639 
L 503.738182 -205.775578 
L 482.792727 -205.480681 
L 461.847273 -205.169948 
L 440.901818 -205.255567 
L 419.956364 -204.374393 
L 399.010909 -203.968484 
L 378.065455 -203.367163 
L 357.12 -201.72129 
L 336.174545 -202.043814 
L 315.229091 -200.362711 
L 294.283636 -199.205687 
L 273.338182 -197.635342 
L 252.392727 -195.679111 
L 231.447273 -191.985402 
L 210.501818 -186.192993 
L 189.556364 -184.582798 
L 168.610909 -175.12184 
L 147.665455 -153.563007 
z
" style="stroke: #fff8dc; stroke-width: 0.48"/>
    </defs>
    <g clip-path="url(#p677adb2c43)">
     <use xlink:href="#m619ae55bdb" x="0" y="633.6" style="fill: #fff8dc; stroke: #fff8dc; stroke-width: 0.48"/>
    </g>
   </g>
   <g id="PolyCollection_4">
    <defs>
     <path id="m4a940136bc" d="M 147.665455 -382.85625 
L 147.665455 -382.85625 
L 168.610909 -418.46271 
L 189.556364 -436.224797 
L 210.501818 -442.163561 
L 231.447273 -450.118132 
L 252.392727 -451.482093 
L 273.338182 -461.277433 
L 294.283636 -463.268739 
L 315.229091 -465.006664 
L 336.174545 -463.138925 
L 357.12 -465.177983 
L 378.065455 -465.864565 
L 399.010909 -471.432738 
L 419.956364 -468.487688 
L 440.901818 -476.75321 
L 461.847273 -478.345396 
L 482.792727 -478.793689 
L 503.738182 -480.761044 
L 524.683636 -485.739377 
L 545.629091 -486.846954 
L 566.574545 -488.752771 
L 587.52 -477.178487 
L 608.465455 -477.705532 
L 629.410909 -483.529235 
L 650.356364 -474.437907 
L 671.301818 -496.463558 
L 692.247273 -493.278697 
L 713.192727 -486.986609 
L 734.138182 -484.474106 
L 755.083636 -492.830023 
L 776.029091 -496.357972 
L 796.974545 -503.985537 
L 796.974545 -503.985537 
L 796.974545 -514.07006 
L 776.029091 -509.564329 
L 755.083636 -508.710162 
L 734.138182 -502.048009 
L 713.192727 -505.627515 
L 692.247273 -505.238676 
L 671.301818 -498.51024 
L 650.356364 -498.618167 
L 629.410909 -501.46748 
L 608.465455 -496.776481 
L 587.52 -498.674871 
L 566.574545 -492.815507 
L 545.629091 -491.08068 
L 524.683636 -489.138948 
L 503.738182 -489.948758 
L 482.792727 -487.176885 
L 461.847273 -492.012328 
L 440.901818 -489.79656 
L 419.956364 -484.190943 
L 399.010909 -479.096404 
L 378.065455 -482.153792 
L 357.12 -476.509245 
L 336.174545 -469.442634 
L 315.229091 -471.012503 
L 294.283636 -468.473074 
L 273.338182 -468.031869 
L 252.392727 -463.423403 
L 231.447273 -456.825799 
L 210.501818 -448.411346 
L 189.556364 -443.430583 
L 168.610909 -425.22322 
L 147.665455 -398.932392 
z
" style="stroke: #fff8dc; stroke-width: 0.48"/>
    </defs>
    <g clip-path="url(#p677adb2c43)">
     <use xlink:href="#m4a940136bc" x="0" y="633.6" style="fill: #fff8dc; stroke: #fff8dc; stroke-width: 0.48"/>
    </g>
   </g>
   <g id="PolyCollection_5">
    <defs>
     <path id="m86c633ae86" d="M 147.665455 -381.257204 
L 147.665455 -381.257204 
L 168.610909 -414.33135 
L 189.556364 -434.11957 
L 210.501818 -447.261764 
L 231.447273 -457.244823 
L 252.392727 -465.121714 
L 273.338182 -471.898241 
L 294.283636 -477.652478 
L 315.229091 -482.641236 
L 336.174545 -487.144303 
L 357.12 -491.050349 
L 378.065455 -494.769944 
L 399.010909 -498.118214 
L 419.956364 -501.173156 
L 440.901818 -504.081938 
L 461.847273 -506.768354 
L 482.792727 -509.28551 
L 503.738182 -511.689337 
L 524.683636 -513.91188 
L 545.629091 -516.050579 
L 566.574545 -518.080322 
L 587.52 -520.005261 
L 608.465455 -521.842658 
L 629.410909 -523.6153 
L 650.356364 -525.289964 
L 671.301818 -526.90834 
L 692.247273 -528.494684 
L 713.192727 -529.96861 
L 734.138182 -531.417542 
L 755.083636 -532.799394 
L 776.029091 -534.152308 
L 796.974545 -535.392 
L 796.974545 -535.392 
L 796.974545 -535.392 
L 776.029091 -534.152308 
L 755.083636 -532.799394 
L 734.138182 -531.417542 
L 713.192727 -529.96861 
L 692.247273 -528.494684 
L 671.301818 -526.90834 
L 650.356364 -525.289964 
L 629.410909 -523.6153 
L 608.465455 -521.842658 
L 587.52 -520.005261 
L 566.574545 -518.080322 
L 545.629091 -516.050579 
L 524.683636 -513.91188 
L 503.738182 -511.689337 
L 482.792727 -509.28551 
L 461.847273 -506.768354 
L 440.901818 -504.081938 
L 419.956364 -501.173156 
L 399.010909 -498.118214 
L 378.065455 -494.769944 
L 357.12 -491.050349 
L 336.174545 -487.144303 
L 315.229091 -482.641236 
L 294.283636 -477.652478 
L 273.338182 -471.898241 
L 252.392727 -465.121714 
L 231.447273 -457.244823 
L 210.501818 -447.261764 
L 189.556364 -434.11957 
L 168.610909 -414.33135 
L 147.665455 -381.257204 
z
" style="stroke: #fff8dc; stroke-width: 0.48"/>
    </defs>
    <g clip-path="url(#p677adb2c43)">
     <use xlink:href="#m86c633ae86" x="0" y="633.6" style="fill: #fff8dc; stroke: #fff8dc; stroke-width: 0.48"/>
    </g>
   </g>
   <g id="matplotlib.axis_1">
    <g id="xtick_1">
     <g id="line2d_1">
      <defs>
       <path id="me61f5f837d" d="M 0 0 
L 0 3.5 
" style="stroke: #000000; stroke-width: 1.6"/>
      </defs>
      <g>
       <use xlink:href="#me61f5f837d" x="147.665455" y="563.904" style="stroke: #000000; stroke-width: 1.6"/>
      </g>
     </g>
     <g id="text_1">
      <!-- 1, 8 -->
      <g transform="translate(137.170767 586.962281)scale(0.11 -0.11)">
       <defs>
        <path id="DejaVuSans-31" d="M 794 531 
L 1825 531 
L 1825 4091 
L 703 3866 
L 703 4441 
L 1819 4666 
L 2450 4666 
L 2450 531 
L 3481 531 
L 3481 0 
L 794 0 
L 794 531 
z
" transform="scale(0.015625)"/>
        <path id="DejaVuSans-2c" d="M 750 794 
L 1409 794 
L 1409 256 
L 897 -744 
L 494 -744 
L 750 256 
L 750 794 
z
" transform="scale(0.015625)"/>
        <path id="DejaVuSans-20" transform="scale(0.015625)"/>
        <path id="DejaVuSans-38" d="M 2034 2216 
Q 1584 2216 1326 1975 
Q 1069 1734 1069 1313 
Q 1069 891 1326 650 
Q 1584 409 2034 409 
Q 2484 409 2743 651 
Q 3003 894 3003 1313 
Q 3003 1734 2745 1975 
Q 2488 2216 2034 2216 
z
M 1403 2484 
Q 997 2584 770 2862 
Q 544 3141 544 3541 
Q 544 4100 942 4425 
Q 1341 4750 2034 4750 
Q 2731 4750 3128 4425 
Q 3525 4100 3525 3541 
Q 3525 3141 3298 2862 
Q 3072 2584 2669 2484 
Q 3125 2378 3379 2068 
Q 3634 1759 3634 1313 
Q 3634 634 3220 271 
Q 2806 -91 2034 -91 
Q 1263 -91 848 271 
Q 434 634 434 1313 
Q 434 1759 690 2068 
Q 947 2378 1403 2484 
z
M 1172 3481 
Q 1172 3119 1398 2916 
Q 1625 2713 2034 2713 
Q 2441 2713 2670 2916 
Q 2900 3119 2900 3481 
Q 2900 3844 2670 4047 
Q 2441 4250 2034 4250 
Q 1625 4250 1398 4047 
Q 1172 3844 1172 3481 
z
" transform="scale(0.015625)"/>
       </defs>
       <use xlink:href="#DejaVuSans-31"/>
       <use xlink:href="#DejaVuSans-2c" x="63.623047"/>
       <use xlink:href="#DejaVuSans-20" x="95.410156"/>
       <use xlink:href="#DejaVuSans-38" x="127.197266"/>
      </g>
     </g>
    </g>
    <g id="xtick_2">
     <g id="line2d_2">
      <g>
       <use xlink:href="#me61f5f837d" x="273.338182" y="563.904" style="stroke: #000000; stroke-width: 1.6"/>
      </g>
     </g>
     <g id="text_2">
      <!-- 7, 56 -->
      <g transform="translate(259.344119 586.962281)scale(0.11 -0.11)">
       <defs>
        <path id="DejaVuSans-37" d="M 525 4666 
L 3525 4666 
L 3525 4397 
L 1831 0 
L 1172 0 
L 2766 4134 
L 525 4134 
L 525 4666 
z
" transform="scale(0.015625)"/>
        <path id="DejaVuSans-35" d="M 691 4666 
L 3169 4666 
L 3169 4134 
L 1269 4134 
L 1269 2991 
Q 1406 3038 1543 3061 
Q 1681 3084 1819 3084 
Q 2600 3084 3056 2656 
Q 3513 2228 3513 1497 
Q 3513 744 3044 326 
Q 2575 -91 1722 -91 
Q 1428 -91 1123 -41 
Q 819 9 494 109 
L 494 744 
Q 775 591 1075 516 
Q 1375 441 1709 441 
Q 2250 441 2565 725 
Q 2881 1009 2881 1497 
Q 2881 1984 2565 2268 
Q 2250 2553 1709 2553 
Q 1456 2553 1204 2497 
Q 953 2441 691 2322 
L 691 4666 
z
" transform="scale(0.015625)"/>
        <path id="DejaVuSans-36" d="M 2113 2584 
Q 1688 2584 1439 2293 
Q 1191 2003 1191 1497 
Q 1191 994 1439 701 
Q 1688 409 2113 409 
Q 2538 409 2786 701 
Q 3034 994 3034 1497 
Q 3034 2003 2786 2293 
Q 2538 2584 2113 2584 
z
M 3366 4563 
L 3366 3988 
Q 3128 4100 2886 4159 
Q 2644 4219 2406 4219 
Q 1781 4219 1451 3797 
Q 1122 3375 1075 2522 
Q 1259 2794 1537 2939 
Q 1816 3084 2150 3084 
Q 2853 3084 3261 2657 
Q 3669 2231 3669 1497 
Q 3669 778 3244 343 
Q 2819 -91 2113 -91 
Q 1303 -91 875 529 
Q 447 1150 447 2328 
Q 447 3434 972 4092 
Q 1497 4750 2381 4750 
Q 2619 4750 2861 4703 
Q 3103 4656 3366 4563 
z
" transform="scale(0.015625)"/>
       </defs>
       <use xlink:href="#DejaVuSans-37"/>
       <use xlink:href="#DejaVuSans-2c" x="63.623047"/>
       <use xlink:href="#DejaVuSans-20" x="95.410156"/>
       <use xlink:href="#DejaVuSans-35" x="127.197266"/>
       <use xlink:href="#DejaVuSans-36" x="190.820312"/>
      </g>
     </g>
    </g>
    <g id="xtick_3">
     <g id="line2d_3">
      <g>
       <use xlink:href="#me61f5f837d" x="399.010909" y="563.904" style="stroke: #000000; stroke-width: 1.6"/>
      </g>
     </g>
     <g id="text_3">
      <!-- 13, 104 -->
      <g transform="translate(378.018097 586.962281)scale(0.11 -0.11)">
       <defs>
        <path id="DejaVuSans-33" d="M 2597 2516 
Q 3050 2419 3304 2112 
Q 3559 1806 3559 1356 
Q 3559 666 3084 287 
Q 2609 -91 1734 -91 
Q 1441 -91 1130 -33 
Q 819 25 488 141 
L 488 750 
Q 750 597 1062 519 
Q 1375 441 1716 441 
Q 2309 441 2620 675 
Q 2931 909 2931 1356 
Q 2931 1769 2642 2001 
Q 2353 2234 1838 2234 
L 1294 2234 
L 1294 2753 
L 1863 2753 
Q 2328 2753 2575 2939 
Q 2822 3125 2822 3475 
Q 2822 3834 2567 4026 
Q 2313 4219 1838 4219 
Q 1578 4219 1281 4162 
Q 984 4106 628 3988 
L 628 4550 
Q 988 4650 1302 4700 
Q 1616 4750 1894 4750 
Q 2613 4750 3031 4423 
Q 3450 4097 3450 3541 
Q 3450 3153 3228 2886 
Q 3006 2619 2597 2516 
z
" transform="scale(0.015625)"/>
        <path id="DejaVuSans-30" d="M 2034 4250 
Q 1547 4250 1301 3770 
Q 1056 3291 1056 2328 
Q 1056 1369 1301 889 
Q 1547 409 2034 409 
Q 2525 409 2770 889 
Q 3016 1369 3016 2328 
Q 3016 3291 2770 3770 
Q 2525 4250 2034 4250 
z
M 2034 4750 
Q 2819 4750 3233 4129 
Q 3647 3509 3647 2328 
Q 3647 1150 3233 529 
Q 2819 -91 2034 -91 
Q 1250 -91 836 529 
Q 422 1150 422 2328 
Q 422 3509 836 4129 
Q 1250 4750 2034 4750 
z
" transform="scale(0.015625)"/>
        <path id="DejaVuSans-34" d="M 2419 4116 
L 825 1625 
L 2419 1625 
L 2419 4116 
z
M 2253 4666 
L 3047 4666 
L 3047 1625 
L 3713 1625 
L 3713 1100 
L 3047 1100 
L 3047 0 
L 2419 0 
L 2419 1100 
L 313 1100 
L 313 1709 
L 2253 4666 
z
" transform="scale(0.015625)"/>
       </defs>
       <use xlink:href="#DejaVuSans-31"/>
       <use xlink:href="#DejaVuSans-33" x="63.623047"/>
       <use xlink:href="#DejaVuSans-2c" x="127.246094"/>
       <use xlink:href="#DejaVuSans-20" x="159.033203"/>
       <use xlink:href="#DejaVuSans-31" x="190.820312"/>
       <use xlink:href="#DejaVuSans-30" x="254.443359"/>
       <use xlink:href="#DejaVuSans-34" x="318.066406"/>
      </g>
     </g>
    </g>
    <g id="xtick_4">
     <g id="line2d_4">
      <g>
       <use xlink:href="#me61f5f837d" x="524.683636" y="563.904" style="stroke: #000000; stroke-width: 1.6"/>
      </g>
     </g>
     <g id="text_4">
      <!-- 19, 152 -->
      <g transform="translate(503.690824 586.962281)scale(0.11 -0.11)">
       <defs>
        <path id="DejaVuSans-39" d="M 703 97 
L 703 672 
Q 941 559 1184 500 
Q 1428 441 1663 441 
Q 2288 441 2617 861 
Q 2947 1281 2994 2138 
Q 2813 1869 2534 1725 
Q 2256 1581 1919 1581 
Q 1219 1581 811 2004 
Q 403 2428 403 3163 
Q 403 3881 828 4315 
Q 1253 4750 1959 4750 
Q 2769 4750 3195 4129 
Q 3622 3509 3622 2328 
Q 3622 1225 3098 567 
Q 2575 -91 1691 -91 
Q 1453 -91 1209 -44 
Q 966 3 703 97 
z
M 1959 2075 
Q 2384 2075 2632 2365 
Q 2881 2656 2881 3163 
Q 2881 3666 2632 3958 
Q 2384 4250 1959 4250 
Q 1534 4250 1286 3958 
Q 1038 3666 1038 3163 
Q 1038 2656 1286 2365 
Q 1534 2075 1959 2075 
z
" transform="scale(0.015625)"/>
        <path id="DejaVuSans-32" d="M 1228 531 
L 3431 531 
L 3431 0 
L 469 0 
L 469 531 
Q 828 903 1448 1529 
Q 2069 2156 2228 2338 
Q 2531 2678 2651 2914 
Q 2772 3150 2772 3378 
Q 2772 3750 2511 3984 
Q 2250 4219 1831 4219 
Q 1534 4219 1204 4116 
Q 875 4013 500 3803 
L 500 4441 
Q 881 4594 1212 4672 
Q 1544 4750 1819 4750 
Q 2544 4750 2975 4387 
Q 3406 4025 3406 3419 
Q 3406 3131 3298 2873 
Q 3191 2616 2906 2266 
Q 2828 2175 2409 1742 
Q 1991 1309 1228 531 
z
" transform="scale(0.015625)"/>
       </defs>
       <use xlink:href="#DejaVuSans-31"/>
       <use xlink:href="#DejaVuSans-39" x="63.623047"/>
       <use xlink:href="#DejaVuSans-2c" x="127.246094"/>
       <use xlink:href="#DejaVuSans-20" x="159.033203"/>
       <use xlink:href="#DejaVuSans-31" x="190.820312"/>
       <use xlink:href="#DejaVuSans-35" x="254.443359"/>
       <use xlink:href="#DejaVuSans-32" x="318.066406"/>
      </g>
     </g>
    </g>
    <g id="xtick_5">
     <g id="line2d_5">
      <g>
       <use xlink:href="#me61f5f837d" x="650.356364" y="563.904" style="stroke: #000000; stroke-width: 1.6"/>
      </g>
     </g>
     <g id="text_5">
      <!-- 25, 200 -->
      <g transform="translate(629.363551 586.962281)scale(0.11 -0.11)">
       <use xlink:href="#DejaVuSans-32"/>
       <use xlink:href="#DejaVuSans-35" x="63.623047"/>
       <use xlink:href="#DejaVuSans-2c" x="127.246094"/>
       <use xlink:href="#DejaVuSans-20" x="159.033203"/>
       <use xlink:href="#DejaVuSans-32" x="190.820312"/>
       <use xlink:href="#DejaVuSans-30" x="254.443359"/>
       <use xlink:href="#DejaVuSans-30" x="318.066406"/>
      </g>
     </g>
    </g>
    <g id="xtick_6">
     <g id="line2d_6">
      <g>
       <use xlink:href="#me61f5f837d" x="776.029091" y="563.904" style="stroke: #000000; stroke-width: 1.6"/>
      </g>
     </g>
     <g id="text_6">
      <!-- 31, 248 -->
      <g transform="translate(755.036278 586.962281)scale(0.11 -0.11)">
       <use xlink:href="#DejaVuSans-33"/>
       <use xlink:href="#DejaVuSans-31" x="63.623047"/>
       <use xlink:href="#DejaVuSans-2c" x="127.246094"/>
       <use xlink:href="#DejaVuSans-20" x="159.033203"/>
       <use xlink:href="#DejaVuSans-32" x="190.820312"/>
       <use xlink:href="#DejaVuSans-34" x="254.443359"/>
       <use xlink:href="#DejaVuSans-38" x="318.066406"/>
      </g>
     </g>
    </g>
    <g id="text_7">
     <!-- Bin number, maximum program size -->
     <g transform="translate(343.975 603.88775)scale(0.14 -0.14)">
      <defs>
       <path id="DejaVuSans-42" d="M 1259 2228 
L 1259 519 
L 2272 519 
Q 2781 519 3026 730 
Q 3272 941 3272 1375 
Q 3272 1813 3026 2020 
Q 2781 2228 2272 2228 
L 1259 2228 
z
M 1259 4147 
L 1259 2741 
L 2194 2741 
Q 2656 2741 2882 2914 
Q 3109 3088 3109 3444 
Q 3109 3797 2882 3972 
Q 2656 4147 2194 4147 
L 1259 4147 
z
M 628 4666 
L 2241 4666 
Q 2963 4666 3353 4366 
Q 3744 4066 3744 3513 
Q 3744 3084 3544 2831 
Q 3344 2578 2956 2516 
Q 3422 2416 3680 2098 
Q 3938 1781 3938 1306 
Q 3938 681 3513 340 
Q 3088 0 2303 0 
L 628 0 
L 628 4666 
z
" transform="scale(0.015625)"/>
       <path id="DejaVuSans-69" d="M 603 3500 
L 1178 3500 
L 1178 0 
L 603 0 
L 603 3500 
z
M 603 4863 
L 1178 4863 
L 1178 4134 
L 603 4134 
L 603 4863 
z
" transform="scale(0.015625)"/>
       <path id="DejaVuSans-6e" d="M 3513 2113 
L 3513 0 
L 2938 0 
L 2938 2094 
Q 2938 2591 2744 2837 
Q 2550 3084 2163 3084 
Q 1697 3084 1428 2787 
Q 1159 2491 1159 1978 
L 1159 0 
L 581 0 
L 581 3500 
L 1159 3500 
L 1159 2956 
Q 1366 3272 1645 3428 
Q 1925 3584 2291 3584 
Q 2894 3584 3203 3211 
Q 3513 2838 3513 2113 
z
" transform="scale(0.015625)"/>
       <path id="DejaVuSans-75" d="M 544 1381 
L 544 3500 
L 1119 3500 
L 1119 1403 
Q 1119 906 1312 657 
Q 1506 409 1894 409 
Q 2359 409 2629 706 
Q 2900 1003 2900 1516 
L 2900 3500 
L 3475 3500 
L 3475 0 
L 2900 0 
L 2900 538 
Q 2691 219 2414 64 
Q 2138 -91 1772 -91 
Q 1169 -91 856 284 
Q 544 659 544 1381 
z
M 1991 3584 
L 1991 3584 
z
" transform="scale(0.015625)"/>
       <path id="DejaVuSans-6d" d="M 3328 2828 
Q 3544 3216 3844 3400 
Q 4144 3584 4550 3584 
Q 5097 3584 5394 3201 
Q 5691 2819 5691 2113 
L 5691 0 
L 5113 0 
L 5113 2094 
Q 5113 2597 4934 2840 
Q 4756 3084 4391 3084 
Q 3944 3084 3684 2787 
Q 3425 2491 3425 1978 
L 3425 0 
L 2847 0 
L 2847 2094 
Q 2847 2600 2669 2842 
Q 2491 3084 2119 3084 
Q 1678 3084 1418 2786 
Q 1159 2488 1159 1978 
L 1159 0 
L 581 0 
L 581 3500 
L 1159 3500 
L 1159 2956 
Q 1356 3278 1631 3431 
Q 1906 3584 2284 3584 
Q 2666 3584 2933 3390 
Q 3200 3197 3328 2828 
z
" transform="scale(0.015625)"/>
       <path id="DejaVuSans-62" d="M 3116 1747 
Q 3116 2381 2855 2742 
Q 2594 3103 2138 3103 
Q 1681 3103 1420 2742 
Q 1159 2381 1159 1747 
Q 1159 1113 1420 752 
Q 1681 391 2138 391 
Q 2594 391 2855 752 
Q 3116 1113 3116 1747 
z
M 1159 2969 
Q 1341 3281 1617 3432 
Q 1894 3584 2278 3584 
Q 2916 3584 3314 3078 
Q 3713 2572 3713 1747 
Q 3713 922 3314 415 
Q 2916 -91 2278 -91 
Q 1894 -91 1617 61 
Q 1341 213 1159 525 
L 1159 0 
L 581 0 
L 581 4863 
L 1159 4863 
L 1159 2969 
z
" transform="scale(0.015625)"/>
       <path id="DejaVuSans-65" d="M 3597 1894 
L 3597 1613 
L 953 1613 
Q 991 1019 1311 708 
Q 1631 397 2203 397 
Q 2534 397 2845 478 
Q 3156 559 3463 722 
L 3463 178 
Q 3153 47 2828 -22 
Q 2503 -91 2169 -91 
Q 1331 -91 842 396 
Q 353 884 353 1716 
Q 353 2575 817 3079 
Q 1281 3584 2069 3584 
Q 2775 3584 3186 3129 
Q 3597 2675 3597 1894 
z
M 3022 2063 
Q 3016 2534 2758 2815 
Q 2500 3097 2075 3097 
Q 1594 3097 1305 2825 
Q 1016 2553 972 2059 
L 3022 2063 
z
" transform="scale(0.015625)"/>
       <path id="DejaVuSans-72" d="M 2631 2963 
Q 2534 3019 2420 3045 
Q 2306 3072 2169 3072 
Q 1681 3072 1420 2755 
Q 1159 2438 1159 1844 
L 1159 0 
L 581 0 
L 581 3500 
L 1159 3500 
L 1159 2956 
Q 1341 3275 1631 3429 
Q 1922 3584 2338 3584 
Q 2397 3584 2469 3576 
Q 2541 3569 2628 3553 
L 2631 2963 
z
" transform="scale(0.015625)"/>
       <path id="DejaVuSans-61" d="M 2194 1759 
Q 1497 1759 1228 1600 
Q 959 1441 959 1056 
Q 959 750 1161 570 
Q 1363 391 1709 391 
Q 2188 391 2477 730 
Q 2766 1069 2766 1631 
L 2766 1759 
L 2194 1759 
z
M 3341 1997 
L 3341 0 
L 2766 0 
L 2766 531 
Q 2569 213 2275 61 
Q 1981 -91 1556 -91 
Q 1019 -91 701 211 
Q 384 513 384 1019 
Q 384 1609 779 1909 
Q 1175 2209 1959 2209 
L 2766 2209 
L 2766 2266 
Q 2766 2663 2505 2880 
Q 2244 3097 1772 3097 
Q 1472 3097 1187 3025 
Q 903 2953 641 2809 
L 641 3341 
Q 956 3463 1253 3523 
Q 1550 3584 1831 3584 
Q 2591 3584 2966 3190 
Q 3341 2797 3341 1997 
z
" transform="scale(0.015625)"/>
       <path id="DejaVuSans-78" d="M 3513 3500 
L 2247 1797 
L 3578 0 
L 2900 0 
L 1881 1375 
L 863 0 
L 184 0 
L 1544 1831 
L 300 3500 
L 978 3500 
L 1906 2253 
L 2834 3500 
L 3513 3500 
z
" transform="scale(0.015625)"/>
       <path id="DejaVuSans-70" d="M 1159 525 
L 1159 -1331 
L 581 -1331 
L 581 3500 
L 1159 3500 
L 1159 2969 
Q 1341 3281 1617 3432 
Q 1894 3584 2278 3584 
Q 2916 3584 3314 3078 
Q 3713 2572 3713 1747 
Q 3713 922 3314 415 
Q 2916 -91 2278 -91 
Q 1894 -91 1617 61 
Q 1341 213 1159 525 
z
M 3116 1747 
Q 3116 2381 2855 2742 
Q 2594 3103 2138 3103 
Q 1681 3103 1420 2742 
Q 1159 2381 1159 1747 
Q 1159 1113 1420 752 
Q 1681 391 2138 391 
Q 2594 391 2855 752 
Q 3116 1113 3116 1747 
z
" transform="scale(0.015625)"/>
       <path id="DejaVuSans-6f" d="M 1959 3097 
Q 1497 3097 1228 2736 
Q 959 2375 959 1747 
Q 959 1119 1226 758 
Q 1494 397 1959 397 
Q 2419 397 2687 759 
Q 2956 1122 2956 1747 
Q 2956 2369 2687 2733 
Q 2419 3097 1959 3097 
z
M 1959 3584 
Q 2709 3584 3137 3096 
Q 3566 2609 3566 1747 
Q 3566 888 3137 398 
Q 2709 -91 1959 -91 
Q 1206 -91 779 398 
Q 353 888 353 1747 
Q 353 2609 779 3096 
Q 1206 3584 1959 3584 
z
" transform="scale(0.015625)"/>
       <path id="DejaVuSans-67" d="M 2906 1791 
Q 2906 2416 2648 2759 
Q 2391 3103 1925 3103 
Q 1463 3103 1205 2759 
Q 947 2416 947 1791 
Q 947 1169 1205 825 
Q 1463 481 1925 481 
Q 2391 481 2648 825 
Q 2906 1169 2906 1791 
z
M 3481 434 
Q 3481 -459 3084 -895 
Q 2688 -1331 1869 -1331 
Q 1566 -1331 1297 -1286 
Q 1028 -1241 775 -1147 
L 775 -588 
Q 1028 -725 1275 -790 
Q 1522 -856 1778 -856 
Q 2344 -856 2625 -561 
Q 2906 -266 2906 331 
L 2906 616 
Q 2728 306 2450 153 
Q 2172 0 1784 0 
Q 1141 0 747 490 
Q 353 981 353 1791 
Q 353 2603 747 3093 
Q 1141 3584 1784 3584 
Q 2172 3584 2450 3431 
Q 2728 3278 2906 2969 
L 2906 3500 
L 3481 3500 
L 3481 434 
z
" transform="scale(0.015625)"/>
       <path id="DejaVuSans-73" d="M 2834 3397 
L 2834 2853 
Q 2591 2978 2328 3040 
Q 2066 3103 1784 3103 
Q 1356 3103 1142 2972 
Q 928 2841 928 2578 
Q 928 2378 1081 2264 
Q 1234 2150 1697 2047 
L 1894 2003 
Q 2506 1872 2764 1633 
Q 3022 1394 3022 966 
Q 3022 478 2636 193 
Q 2250 -91 1575 -91 
Q 1294 -91 989 -36 
Q 684 19 347 128 
L 347 722 
Q 666 556 975 473 
Q 1284 391 1588 391 
Q 1994 391 2212 530 
Q 2431 669 2431 922 
Q 2431 1156 2273 1281 
Q 2116 1406 1581 1522 
L 1381 1569 
Q 847 1681 609 1914 
Q 372 2147 372 2553 
Q 372 3047 722 3315 
Q 1072 3584 1716 3584 
Q 2034 3584 2315 3537 
Q 2597 3491 2834 3397 
z
" transform="scale(0.015625)"/>
       <path id="DejaVuSans-7a" d="M 353 3500 
L 3084 3500 
L 3084 2975 
L 922 459 
L 3084 459 
L 3084 0 
L 275 0 
L 275 525 
L 2438 3041 
L 353 3041 
L 353 3500 
z
" transform="scale(0.015625)"/>
      </defs>
      <use xlink:href="#DejaVuSans-42"/>
      <use xlink:href="#DejaVuSans-69" x="68.603516"/>
      <use xlink:href="#DejaVuSans-6e" x="96.386719"/>
      <use xlink:href="#DejaVuSans-20" x="159.765625"/>
      <use xlink:href="#DejaVuSans-6e" x="191.552734"/>
      <use xlink:href="#DejaVuSans-75" x="254.931641"/>
      <use xlink:href="#DejaVuSans-6d" x="318.310547"/>
      <use xlink:href="#DejaVuSans-62" x="415.722656"/>
      <use xlink:href="#DejaVuSans-65" x="479.199219"/>
      <use xlink:href="#DejaVuSans-72" x="540.722656"/>
      <use xlink:href="#DejaVuSans-2c" x="581.835938"/>
      <use xlink:href="#DejaVuSans-20" x="613.623047"/>
      <use xlink:href="#DejaVuSans-6d" x="645.410156"/>
      <use xlink:href="#DejaVuSans-61" x="742.822266"/>
      <use xlink:href="#DejaVuSans-78" x="804.101562"/>
      <use xlink:href="#DejaVuSans-69" x="863.28125"/>
      <use xlink:href="#DejaVuSans-6d" x="891.064453"/>
      <use xlink:href="#DejaVuSans-75" x="988.476562"/>
      <use xlink:href="#DejaVuSans-6d" x="1051.855469"/>
      <use xlink:href="#DejaVuSans-20" x="1149.267578"/>
      <use xlink:href="#DejaVuSans-70" x="1181.054688"/>
      <use xlink:href="#DejaVuSans-72" x="1244.53125"/>
      <use xlink:href="#DejaVuSans-6f" x="1283.394531"/>
      <use xlink:href="#DejaVuSans-67" x="1344.576172"/>
      <use xlink:href="#DejaVuSans-72" x="1408.052734"/>
      <use xlink:href="#DejaVuSans-61" x="1449.166016"/>
      <use xlink:href="#DejaVuSans-6d" x="1510.445312"/>
      <use xlink:href="#DejaVuSans-20" x="1607.857422"/>
      <use xlink:href="#DejaVuSans-73" x="1639.644531"/>
      <use xlink:href="#DejaVuSans-69" x="1691.744141"/>
      <use xlink:href="#DejaVuSans-7a" x="1719.527344"/>
      <use xlink:href="#DejaVuSans-65" x="1772.017578"/>
     </g>
    </g>
   </g>
   <g id="matplotlib.axis_2">
    <g id="ytick_1">
     <g id="line2d_7">
      <defs>
       <path id="m34ff10c332" d="M 0 0 
L -3.5 0 
" style="stroke: #000000; stroke-width: 1.6"/>
      </defs>
      <g>
       <use xlink:href="#m34ff10c332" x="115.2" y="537.844756" style="stroke: #000000; stroke-width: 1.6"/>
      </g>
     </g>
     <g id="text_8">
      <!-- $\mathdefault{10^{7}}$ -->
      <g transform="translate(81.14 542.023897)scale(0.11 -0.11)">
       <use xlink:href="#DejaVuSans-31" transform="translate(0 0.684375)"/>
       <use xlink:href="#DejaVuSans-30" transform="translate(63.623047 0.684375)"/>
       <use xlink:href="#DejaVuSans-37" transform="translate(128.203125 38.965625)scale(0.7)"/>
      </g>
     </g>
    </g>
    <g id="ytick_2">
     <g id="line2d_8">
      <g>
       <use xlink:href="#m34ff10c332" x="115.2" y="444.104941" style="stroke: #000000; stroke-width: 1.6"/>
      </g>
     </g>
     <g id="text_9">
      <!-- $\mathdefault{10^{8}}$ -->
      <g transform="translate(81.14 448.284082)scale(0.11 -0.11)">
       <use xlink:href="#DejaVuSans-31" transform="translate(0 0.765625)"/>
       <use xlink:href="#DejaVuSans-30" transform="translate(63.623047 0.765625)"/>
       <use xlink:href="#DejaVuSans-38" transform="translate(128.203125 39.046875)scale(0.7)"/>
      </g>
     </g>
    </g>
    <g id="ytick_3">
     <g id="line2d_9">
      <g>
       <use xlink:href="#m34ff10c332" x="115.2" y="350.365126" style="stroke: #000000; stroke-width: 1.6"/>
      </g>
     </g>
     <g id="text_10">
      <!-- $\mathdefault{10^{9}}$ -->
      <g transform="translate(81.14 354.544267)scale(0.11 -0.11)">
       <use xlink:href="#DejaVuSans-31" transform="translate(0 0.765625)"/>
       <use xlink:href="#DejaVuSans-30" transform="translate(63.623047 0.765625)"/>
       <use xlink:href="#DejaVuSans-39" transform="translate(128.203125 39.046875)scale(0.7)"/>
      </g>
     </g>
    </g>
    <g id="ytick_4">
     <g id="line2d_10">
      <g>
       <use xlink:href="#m34ff10c332" x="115.2" y="256.625311" style="stroke: #000000; stroke-width: 1.6"/>
      </g>
     </g>
     <g id="text_11">
      <!-- $\mathdefault{10^{10}}$ -->
      <g transform="translate(76.19 260.804452)scale(0.11 -0.11)">
       <use xlink:href="#DejaVuSans-31" transform="translate(0 0.765625)"/>
       <use xlink:href="#DejaVuSans-30" transform="translate(63.623047 0.765625)"/>
       <use xlink:href="#DejaVuSans-31" transform="translate(128.203125 39.046875)scale(0.7)"/>
       <use xlink:href="#DejaVuSans-30" transform="translate(172.739258 39.046875)scale(0.7)"/>
      </g>
     </g>
    </g>
    <g id="ytick_5">
     <g id="line2d_11">
      <g>
       <use xlink:href="#m34ff10c332" x="115.2" y="162.885496" style="stroke: #000000; stroke-width: 1.6"/>
      </g>
     </g>
     <g id="text_12">
      <!-- $\mathdefault{10^{11}}$ -->
      <g transform="translate(76.19 167.064637)scale(0.11 -0.11)">
       <use xlink:href="#DejaVuSans-31" transform="translate(0 0.684375)"/>
       <use xlink:href="#DejaVuSans-30" transform="translate(63.623047 0.684375)"/>
       <use xlink:href="#DejaVuSans-31" transform="translate(128.203125 38.965625)scale(0.7)"/>
       <use xlink:href="#DejaVuSans-31" transform="translate(172.739258 38.965625)scale(0.7)"/>
      </g>
     </g>
    </g>
    <g id="ytick_6">
     <g id="line2d_12">
      <defs>
       <path id="m4f2b82779b" d="M 0 0 
L -2 0 
" style="stroke: #000000; stroke-width: 0.8"/>
      </defs>
      <g>
       <use xlink:href="#m4f2b82779b" x="115.2" y="558.640817" style="stroke: #000000; stroke-width: 0.8"/>
      </g>
     </g>
    </g>
    <g id="ytick_7">
     <g id="line2d_13">
      <g>
       <use xlink:href="#m4f2b82779b" x="115.2" y="552.365237" style="stroke: #000000; stroke-width: 0.8"/>
      </g>
     </g>
    </g>
    <g id="ytick_8">
     <g id="line2d_14">
      <g>
       <use xlink:href="#m4f2b82779b" x="115.2" y="546.929083" style="stroke: #000000; stroke-width: 0.8"/>
      </g>
     </g>
    </g>
    <g id="ytick_9">
     <g id="line2d_15">
      <g>
       <use xlink:href="#m4f2b82779b" x="115.2" y="542.134055" style="stroke: #000000; stroke-width: 0.8"/>
      </g>
     </g>
    </g>
    <g id="ytick_10">
     <g id="line2d_16">
      <g>
       <use xlink:href="#m4f2b82779b" x="115.2" y="509.62626" style="stroke: #000000; stroke-width: 0.8"/>
      </g>
     </g>
    </g>
    <g id="ytick_11">
     <g id="line2d_17">
      <g>
       <use xlink:href="#m4f2b82779b" x="115.2" y="493.119498" style="stroke: #000000; stroke-width: 0.8"/>
      </g>
     </g>
    </g>
    <g id="ytick_12">
     <g id="line2d_18">
      <g>
       <use xlink:href="#m4f2b82779b" x="115.2" y="481.407764" style="stroke: #000000; stroke-width: 0.8"/>
      </g>
     </g>
    </g>
    <g id="ytick_13">
     <g id="line2d_19">
      <g>
       <use xlink:href="#m4f2b82779b" x="115.2" y="472.323437" style="stroke: #000000; stroke-width: 0.8"/>
      </g>
     </g>
    </g>
    <g id="ytick_14">
     <g id="line2d_20">
      <g>
       <use xlink:href="#m4f2b82779b" x="115.2" y="464.901002" style="stroke: #000000; stroke-width: 0.8"/>
      </g>
     </g>
    </g>
    <g id="ytick_15">
     <g id="line2d_21">
      <g>
       <use xlink:href="#m4f2b82779b" x="115.2" y="458.625422" style="stroke: #000000; stroke-width: 0.8"/>
      </g>
     </g>
    </g>
    <g id="ytick_16">
     <g id="line2d_22">
      <g>
       <use xlink:href="#m4f2b82779b" x="115.2" y="453.189268" style="stroke: #000000; stroke-width: 0.8"/>
      </g>
     </g>
    </g>
    <g id="ytick_17">
     <g id="line2d_23">
      <g>
       <use xlink:href="#m4f2b82779b" x="115.2" y="448.39424" style="stroke: #000000; stroke-width: 0.8"/>
      </g>
     </g>
    </g>
    <g id="ytick_18">
     <g id="line2d_24">
      <g>
       <use xlink:href="#m4f2b82779b" x="115.2" y="415.886445" style="stroke: #000000; stroke-width: 0.8"/>
      </g>
     </g>
    </g>
    <g id="ytick_19">
     <g id="line2d_25">
      <g>
       <use xlink:href="#m4f2b82779b" x="115.2" y="399.379683" style="stroke: #000000; stroke-width: 0.8"/>
      </g>
     </g>
    </g>
    <g id="ytick_20">
     <g id="line2d_26">
      <g>
       <use xlink:href="#m4f2b82779b" x="115.2" y="387.667949" style="stroke: #000000; stroke-width: 0.8"/>
      </g>
     </g>
    </g>
    <g id="ytick_21">
     <g id="line2d_27">
      <g>
       <use xlink:href="#m4f2b82779b" x="115.2" y="378.583622" style="stroke: #000000; stroke-width: 0.8"/>
      </g>
     </g>
    </g>
    <g id="ytick_22">
     <g id="line2d_28">
      <g>
       <use xlink:href="#m4f2b82779b" x="115.2" y="371.161187" style="stroke: #000000; stroke-width: 0.8"/>
      </g>
     </g>
    </g>
    <g id="ytick_23">
     <g id="line2d_29">
      <g>
       <use xlink:href="#m4f2b82779b" x="115.2" y="364.885607" style="stroke: #000000; stroke-width: 0.8"/>
      </g>
     </g>
    </g>
    <g id="ytick_24">
     <g id="line2d_30">
      <g>
       <use xlink:href="#m4f2b82779b" x="115.2" y="359.449453" style="stroke: #000000; stroke-width: 0.8"/>
      </g>
     </g>
    </g>
    <g id="ytick_25">
     <g id="line2d_31">
      <g>
       <use xlink:href="#m4f2b82779b" x="115.2" y="354.654425" style="stroke: #000000; stroke-width: 0.8"/>
      </g>
     </g>
    </g>
    <g id="ytick_26">
     <g id="line2d_32">
      <g>
       <use xlink:href="#m4f2b82779b" x="115.2" y="322.14663" style="stroke: #000000; stroke-width: 0.8"/>
      </g>
     </g>
    </g>
    <g id="ytick_27">
     <g id="line2d_33">
      <g>
       <use xlink:href="#m4f2b82779b" x="115.2" y="305.639868" style="stroke: #000000; stroke-width: 0.8"/>
      </g>
     </g>
    </g>
    <g id="ytick_28">
     <g id="line2d_34">
      <g>
       <use xlink:href="#m4f2b82779b" x="115.2" y="293.928134" style="stroke: #000000; stroke-width: 0.8"/>
      </g>
     </g>
    </g>
    <g id="ytick_29">
     <g id="line2d_35">
      <g>
       <use xlink:href="#m4f2b82779b" x="115.2" y="284.843807" style="stroke: #000000; stroke-width: 0.8"/>
      </g>
     </g>
    </g>
    <g id="ytick_30">
     <g id="line2d_36">
      <g>
       <use xlink:href="#m4f2b82779b" x="115.2" y="277.421372" style="stroke: #000000; stroke-width: 0.8"/>
      </g>
     </g>
    </g>
    <g id="ytick_31">
     <g id="line2d_37">
      <g>
       <use xlink:href="#m4f2b82779b" x="115.2" y="271.145792" style="stroke: #000000; stroke-width: 0.8"/>
      </g>
     </g>
    </g>
    <g id="ytick_32">
     <g id="line2d_38">
      <g>
       <use xlink:href="#m4f2b82779b" x="115.2" y="265.709638" style="stroke: #000000; stroke-width: 0.8"/>
      </g>
     </g>
    </g>
    <g id="ytick_33">
     <g id="line2d_39">
      <g>
       <use xlink:href="#m4f2b82779b" x="115.2" y="260.91461" style="stroke: #000000; stroke-width: 0.8"/>
      </g>
     </g>
    </g>
    <g id="ytick_34">
     <g id="line2d_40">
      <g>
       <use xlink:href="#m4f2b82779b" x="115.2" y="228.406815" style="stroke: #000000; stroke-width: 0.8"/>
      </g>
     </g>
    </g>
    <g id="ytick_35">
     <g id="line2d_41">
      <g>
       <use xlink:href="#m4f2b82779b" x="115.2" y="211.900053" style="stroke: #000000; stroke-width: 0.8"/>
      </g>
     </g>
    </g>
    <g id="ytick_36">
     <g id="line2d_42">
      <g>
       <use xlink:href="#m4f2b82779b" x="115.2" y="200.188319" style="stroke: #000000; stroke-width: 0.8"/>
      </g>
     </g>
    </g>
    <g id="ytick_37">
     <g id="line2d_43">
      <g>
       <use xlink:href="#m4f2b82779b" x="115.2" y="191.103992" style="stroke: #000000; stroke-width: 0.8"/>
      </g>
     </g>
    </g>
    <g id="ytick_38">
     <g id="line2d_44">
      <g>
       <use xlink:href="#m4f2b82779b" x="115.2" y="183.681557" style="stroke: #000000; stroke-width: 0.8"/>
      </g>
     </g>
    </g>
    <g id="ytick_39">
     <g id="line2d_45">
      <g>
       <use xlink:href="#m4f2b82779b" x="115.2" y="177.405977" style="stroke: #000000; stroke-width: 0.8"/>
      </g>
     </g>
    </g>
    <g id="ytick_40">
     <g id="line2d_46">
      <g>
       <use xlink:href="#m4f2b82779b" x="115.2" y="171.969823" style="stroke: #000000; stroke-width: 0.8"/>
      </g>
     </g>
    </g>
    <g id="ytick_41">
     <g id="line2d_47">
      <g>
       <use xlink:href="#m4f2b82779b" x="115.2" y="167.174795" style="stroke: #000000; stroke-width: 0.8"/>
      </g>
     </g>
    </g>
    <g id="ytick_42">
     <g id="line2d_48">
      <g>
       <use xlink:href="#m4f2b82779b" x="115.2" y="134.667" style="stroke: #000000; stroke-width: 0.8"/>
      </g>
     </g>
    </g>
    <g id="ytick_43">
     <g id="line2d_49">
      <g>
       <use xlink:href="#m4f2b82779b" x="115.2" y="118.160238" style="stroke: #000000; stroke-width: 0.8"/>
      </g>
     </g>
    </g>
    <g id="ytick_44">
     <g id="line2d_50">
      <g>
       <use xlink:href="#m4f2b82779b" x="115.2" y="106.448504" style="stroke: #000000; stroke-width: 0.8"/>
      </g>
     </g>
    </g>
    <g id="ytick_45">
     <g id="line2d_51">
      <g>
       <use xlink:href="#m4f2b82779b" x="115.2" y="97.364177" style="stroke: #000000; stroke-width: 0.8"/>
      </g>
     </g>
    </g>
    <g id="ytick_46">
     <g id="line2d_52">
      <g>
       <use xlink:href="#m4f2b82779b" x="115.2" y="89.941742" style="stroke: #000000; stroke-width: 0.8"/>
      </g>
     </g>
    </g>
    <g id="ytick_47">
     <g id="line2d_53">
      <g>
       <use xlink:href="#m4f2b82779b" x="115.2" y="83.666162" style="stroke: #000000; stroke-width: 0.8"/>
      </g>
     </g>
    </g>
    <g id="ytick_48">
     <g id="line2d_54">
      <g>
       <use xlink:href="#m4f2b82779b" x="115.2" y="78.230008" style="stroke: #000000; stroke-width: 0.8"/>
      </g>
     </g>
    </g>
    <g id="text_13">
     <!-- Node evaluations per second (NEPS) -->
     <g transform="translate(69.278437 447.984875)rotate(-90)scale(0.14 -0.14)">
      <defs>
       <path id="DejaVuSans-4e" d="M 628 4666 
L 1478 4666 
L 3547 763 
L 3547 4666 
L 4159 4666 
L 4159 0 
L 3309 0 
L 1241 3903 
L 1241 0 
L 628 0 
L 628 4666 
z
" transform="scale(0.015625)"/>
       <path id="DejaVuSans-64" d="M 2906 2969 
L 2906 4863 
L 3481 4863 
L 3481 0 
L 2906 0 
L 2906 525 
Q 2725 213 2448 61 
Q 2172 -91 1784 -91 
Q 1150 -91 751 415 
Q 353 922 353 1747 
Q 353 2572 751 3078 
Q 1150 3584 1784 3584 
Q 2172 3584 2448 3432 
Q 2725 3281 2906 2969 
z
M 947 1747 
Q 947 1113 1208 752 
Q 1469 391 1925 391 
Q 2381 391 2643 752 
Q 2906 1113 2906 1747 
Q 2906 2381 2643 2742 
Q 2381 3103 1925 3103 
Q 1469 3103 1208 2742 
Q 947 2381 947 1747 
z
" transform="scale(0.015625)"/>
       <path id="DejaVuSans-76" d="M 191 3500 
L 800 3500 
L 1894 563 
L 2988 3500 
L 3597 3500 
L 2284 0 
L 1503 0 
L 191 3500 
z
" transform="scale(0.015625)"/>
       <path id="DejaVuSans-6c" d="M 603 4863 
L 1178 4863 
L 1178 0 
L 603 0 
L 603 4863 
z
" transform="scale(0.015625)"/>
       <path id="DejaVuSans-74" d="M 1172 4494 
L 1172 3500 
L 2356 3500 
L 2356 3053 
L 1172 3053 
L 1172 1153 
Q 1172 725 1289 603 
Q 1406 481 1766 481 
L 2356 481 
L 2356 0 
L 1766 0 
Q 1100 0 847 248 
Q 594 497 594 1153 
L 594 3053 
L 172 3053 
L 172 3500 
L 594 3500 
L 594 4494 
L 1172 4494 
z
" transform="scale(0.015625)"/>
       <path id="DejaVuSans-63" d="M 3122 3366 
L 3122 2828 
Q 2878 2963 2633 3030 
Q 2388 3097 2138 3097 
Q 1578 3097 1268 2742 
Q 959 2388 959 1747 
Q 959 1106 1268 751 
Q 1578 397 2138 397 
Q 2388 397 2633 464 
Q 2878 531 3122 666 
L 3122 134 
Q 2881 22 2623 -34 
Q 2366 -91 2075 -91 
Q 1284 -91 818 406 
Q 353 903 353 1747 
Q 353 2603 823 3093 
Q 1294 3584 2113 3584 
Q 2378 3584 2631 3529 
Q 2884 3475 3122 3366 
z
" transform="scale(0.015625)"/>
       <path id="DejaVuSans-28" d="M 1984 4856 
Q 1566 4138 1362 3434 
Q 1159 2731 1159 2009 
Q 1159 1288 1364 580 
Q 1569 -128 1984 -844 
L 1484 -844 
Q 1016 -109 783 600 
Q 550 1309 550 2009 
Q 550 2706 781 3412 
Q 1013 4119 1484 4856 
L 1984 4856 
z
" transform="scale(0.015625)"/>
       <path id="DejaVuSans-45" d="M 628 4666 
L 3578 4666 
L 3578 4134 
L 1259 4134 
L 1259 2753 
L 3481 2753 
L 3481 2222 
L 1259 2222 
L 1259 531 
L 3634 531 
L 3634 0 
L 628 0 
L 628 4666 
z
" transform="scale(0.015625)"/>
       <path id="DejaVuSans-50" d="M 1259 4147 
L 1259 2394 
L 2053 2394 
Q 2494 2394 2734 2622 
Q 2975 2850 2975 3272 
Q 2975 3691 2734 3919 
Q 2494 4147 2053 4147 
L 1259 4147 
z
M 628 4666 
L 2053 4666 
Q 2838 4666 3239 4311 
Q 3641 3956 3641 3272 
Q 3641 2581 3239 2228 
Q 2838 1875 2053 1875 
L 1259 1875 
L 1259 0 
L 628 0 
L 628 4666 
z
" transform="scale(0.015625)"/>
       <path id="DejaVuSans-53" d="M 3425 4513 
L 3425 3897 
Q 3066 4069 2747 4153 
Q 2428 4238 2131 4238 
Q 1616 4238 1336 4038 
Q 1056 3838 1056 3469 
Q 1056 3159 1242 3001 
Q 1428 2844 1947 2747 
L 2328 2669 
Q 3034 2534 3370 2195 
Q 3706 1856 3706 1288 
Q 3706 609 3251 259 
Q 2797 -91 1919 -91 
Q 1588 -91 1214 -16 
Q 841 59 441 206 
L 441 856 
Q 825 641 1194 531 
Q 1563 422 1919 422 
Q 2459 422 2753 634 
Q 3047 847 3047 1241 
Q 3047 1584 2836 1778 
Q 2625 1972 2144 2069 
L 1759 2144 
Q 1053 2284 737 2584 
Q 422 2884 422 3419 
Q 422 4038 858 4394 
Q 1294 4750 2059 4750 
Q 2388 4750 2728 4690 
Q 3069 4631 3425 4513 
z
" transform="scale(0.015625)"/>
       <path id="DejaVuSans-29" d="M 513 4856 
L 1013 4856 
Q 1481 4119 1714 3412 
Q 1947 2706 1947 2009 
Q 1947 1309 1714 600 
Q 1481 -109 1013 -844 
L 513 -844 
Q 928 -128 1133 580 
Q 1338 1288 1338 2009 
Q 1338 2731 1133 3434 
Q 928 4138 513 4856 
z
" transform="scale(0.015625)"/>
      </defs>
      <use xlink:href="#DejaVuSans-4e"/>
      <use xlink:href="#DejaVuSans-6f" x="74.804688"/>
      <use xlink:href="#DejaVuSans-64" x="135.986328"/>
      <use xlink:href="#DejaVuSans-65" x="199.462891"/>
      <use xlink:href="#DejaVuSans-20" x="260.986328"/>
      <use xlink:href="#DejaVuSans-65" x="292.773438"/>
      <use xlink:href="#DejaVuSans-76" x="354.296875"/>
      <use xlink:href="#DejaVuSans-61" x="413.476562"/>
      <use xlink:href="#DejaVuSans-6c" x="474.755859"/>
      <use xlink:href="#DejaVuSans-75" x="502.539062"/>
      <use xlink:href="#DejaVuSans-61" x="565.917969"/>
      <use xlink:href="#DejaVuSans-74" x="627.197266"/>
      <use xlink:href="#DejaVuSans-69" x="666.40625"/>
      <use xlink:href="#DejaVuSans-6f" x="694.189453"/>
      <use xlink:href="#DejaVuSans-6e" x="755.371094"/>
      <use xlink:href="#DejaVuSans-73" x="818.75"/>
      <use xlink:href="#DejaVuSans-20" x="870.849609"/>
      <use xlink:href="#DejaVuSans-70" x="902.636719"/>
      <use xlink:href="#DejaVuSans-65" x="966.113281"/>
      <use xlink:href="#DejaVuSans-72" x="1027.636719"/>
      <use xlink:href="#DejaVuSans-20" x="1068.75"/>
      <use xlink:href="#DejaVuSans-73" x="1100.537109"/>
      <use xlink:href="#DejaVuSans-65" x="1152.636719"/>
      <use xlink:href="#DejaVuSans-63" x="1214.160156"/>
      <use xlink:href="#DejaVuSans-6f" x="1269.140625"/>
      <use xlink:href="#DejaVuSans-6e" x="1330.322266"/>
      <use xlink:href="#DejaVuSans-64" x="1393.701172"/>
      <use xlink:href="#DejaVuSans-20" x="1457.177734"/>
      <use xlink:href="#DejaVuSans-28" x="1488.964844"/>
      <use xlink:href="#DejaVuSans-4e" x="1527.978516"/>
      <use xlink:href="#DejaVuSans-45" x="1602.783203"/>
      <use xlink:href="#DejaVuSans-50" x="1665.966797"/>
      <use xlink:href="#DejaVuSans-53" x="1726.269531"/>
      <use xlink:href="#DejaVuSans-29" x="1789.746094"/>
     </g>
    </g>
   </g>
   <g id="line2d_55">
    <path d="M 147.665455 541.728 
L 168.610909 512.751225 
L 189.556364 495.451388 
L 210.501818 482.988253 
L 231.447273 476.126394 
L 252.392727 475.319342 
L 273.338182 467.501584 
L 294.283636 464.698498 
L 315.229091 459.315385 
L 336.174545 457.538903 
L 357.12 456.161463 
L 378.065455 454.296628 
L 399.010909 452.207783 
L 419.956364 451.253193 
L 440.901818 449.859981 
L 461.847273 449.092519 
L 482.792727 448.324707 
L 503.738182 446.758757 
L 524.683636 446.66973 
L 545.629091 445.94093 
L 566.574545 445.160949 
L 587.52 445.605228 
L 608.465455 444.017962 
L 629.410909 444.073687 
L 650.356364 443.642186 
L 671.301818 442.860966 
L 692.247273 442.45806 
L 713.192727 442.219968 
L 734.138182 441.62962 
L 755.083636 442.375153 
L 776.029091 441.41523 
L 796.974545 441.217026 
" clip-path="url(#p677adb2c43)" style="fill: none; stroke: #000000; stroke-width: 0.1; stroke-linecap: square"/>
    <defs>
     <path id="m22e85db71a" d="M -3 6 
L 0 3 
L 3 6 
L 6 3 
L 3 0 
L 6 -3 
L 3 -6 
L 0 -3 
L -3 -6 
L -6 -3 
L -3 0 
L -6 3 
z
"/>
    </defs>
    <g clip-path="url(#p677adb2c43)">
     <use xlink:href="#m22e85db71a" x="147.665455" y="541.728" style="fill: #17becf"/>
     <use xlink:href="#m22e85db71a" x="168.610909" y="512.751225" style="fill: #17becf"/>
     <use xlink:href="#m22e85db71a" x="189.556364" y="495.451388" style="fill: #17becf"/>
     <use xlink:href="#m22e85db71a" x="210.501818" y="482.988253" style="fill: #17becf"/>
     <use xlink:href="#m22e85db71a" x="231.447273" y="476.126394" style="fill: #17becf"/>
     <use xlink:href="#m22e85db71a" x="252.392727" y="475.319342" style="fill: #17becf"/>
     <use xlink:href="#m22e85db71a" x="273.338182" y="467.501584" style="fill: #17becf"/>
     <use xlink:href="#m22e85db71a" x="294.283636" y="464.698498" style="fill: #17becf"/>
     <use xlink:href="#m22e85db71a" x="315.229091" y="459.315385" style="fill: #17becf"/>
     <use xlink:href="#m22e85db71a" x="336.174545" y="457.538903" style="fill: #17becf"/>
     <use xlink:href="#m22e85db71a" x="357.12" y="456.161463" style="fill: #17becf"/>
     <use xlink:href="#m22e85db71a" x="378.065455" y="454.296628" style="fill: #17becf"/>
     <use xlink:href="#m22e85db71a" x="399.010909" y="452.207783" style="fill: #17becf"/>
     <use xlink:href="#m22e85db71a" x="419.956364" y="451.253193" style="fill: #17becf"/>
     <use xlink:href="#m22e85db71a" x="440.901818" y="449.859981" style="fill: #17becf"/>
     <use xlink:href="#m22e85db71a" x="461.847273" y="449.092519" style="fill: #17becf"/>
     <use xlink:href="#m22e85db71a" x="482.792727" y="448.324707" style="fill: #17becf"/>
     <use xlink:href="#m22e85db71a" x="503.738182" y="446.758757" style="fill: #17becf"/>
     <use xlink:href="#m22e85db71a" x="524.683636" y="446.66973" style="fill: #17becf"/>
     <use xlink:href="#m22e85db71a" x="545.629091" y="445.94093" style="fill: #17becf"/>
     <use xlink:href="#m22e85db71a" x="566.574545" y="445.160949" style="fill: #17becf"/>
     <use xlink:href="#m22e85db71a" x="587.52" y="445.605228" style="fill: #17becf"/>
     <use xlink:href="#m22e85db71a" x="608.465455" y="444.017962" style="fill: #17becf"/>
     <use xlink:href="#m22e85db71a" x="629.410909" y="444.073687" style="fill: #17becf"/>
     <use xlink:href="#m22e85db71a" x="650.356364" y="443.642186" style="fill: #17becf"/>
     <use xlink:href="#m22e85db71a" x="671.301818" y="442.860966" style="fill: #17becf"/>
     <use xlink:href="#m22e85db71a" x="692.247273" y="442.45806" style="fill: #17becf"/>
     <use xlink:href="#m22e85db71a" x="713.192727" y="442.219968" style="fill: #17becf"/>
     <use xlink:href="#m22e85db71a" x="734.138182" y="441.62962" style="fill: #17becf"/>
     <use xlink:href="#m22e85db71a" x="755.083636" y="442.375153" style="fill: #17becf"/>
     <use xlink:href="#m22e85db71a" x="776.029091" y="441.41523" style="fill: #17becf"/>
     <use xlink:href="#m22e85db71a" x="796.974545" y="441.217026" style="fill: #17becf"/>
    </g>
   </g>
   <g id="line2d_56">
    <path d="M 115.2 350.365126 
L 829.44 350.365126 
" clip-path="url(#p677adb2c43)" style="fill: none; stroke-dasharray: 10.36,4.48; stroke-dashoffset: 0; stroke: #808080; stroke-width: 2.8"/>
   </g>
   <g id="line2d_57">
    <path d="M 147.665455 472.892556 
L 168.610909 446.946868 
L 189.556364 436.613298 
L 210.501818 430.852049 
L 231.447273 426.936504 
L 252.392727 423.670197 
L 273.338182 421.781427 
L 294.283636 419.68173 
L 315.229091 419.456728 
L 336.174545 417.232938 
L 357.12 416.741927 
L 378.065455 416.494297 
L 399.010909 415.235812 
L 419.956364 414.592549 
L 440.901818 413.657536 
L 461.847273 413.616207 
L 482.792727 413.199501 
L 503.738182 413.109733 
L 524.683636 412.466757 
L 545.629091 412.005921 
L 566.574545 411.150104 
L 587.52 410.931306 
L 608.465455 410.790224 
L 629.410909 410.601303 
L 650.356364 410.263867 
L 671.301818 409.971839 
L 692.247273 409.421019 
L 713.192727 409.453028 
L 734.138182 409.04591 
L 755.083636 409.632468 
L 776.029091 408.488305 
L 796.974545 408.279078 
" clip-path="url(#p677adb2c43)" style="fill: none; stroke: #000000; stroke-width: 0.1; stroke-linecap: square"/>
    <defs>
     <path id="m7938713366" d="M 0 -6 
L -6 6 
L 6 6 
z
"/>
    </defs>
    <g clip-path="url(#p677adb2c43)">
     <use xlink:href="#m7938713366" x="147.665455" y="472.892556" style="fill: #9467bd"/>
     <use xlink:href="#m7938713366" x="168.610909" y="446.946868" style="fill: #9467bd"/>
     <use xlink:href="#m7938713366" x="189.556364" y="436.613298" style="fill: #9467bd"/>
     <use xlink:href="#m7938713366" x="210.501818" y="430.852049" style="fill: #9467bd"/>
     <use xlink:href="#m7938713366" x="231.447273" y="426.936504" style="fill: #9467bd"/>
     <use xlink:href="#m7938713366" x="252.392727" y="423.670197" style="fill: #9467bd"/>
     <use xlink:href="#m7938713366" x="273.338182" y="421.781427" style="fill: #9467bd"/>
     <use xlink:href="#m7938713366" x="294.283636" y="419.68173" style="fill: #9467bd"/>
     <use xlink:href="#m7938713366" x="315.229091" y="419.456728" style="fill: #9467bd"/>
     <use xlink:href="#m7938713366" x="336.174545" y="417.232938" style="fill: #9467bd"/>
     <use xlink:href="#m7938713366" x="357.12" y="416.741927" style="fill: #9467bd"/>
     <use xlink:href="#m7938713366" x="378.065455" y="416.494297" style="fill: #9467bd"/>
     <use xlink:href="#m7938713366" x="399.010909" y="415.235812" style="fill: #9467bd"/>
     <use xlink:href="#m7938713366" x="419.956364" y="414.592549" style="fill: #9467bd"/>
     <use xlink:href="#m7938713366" x="440.901818" y="413.657536" style="fill: #9467bd"/>
     <use xlink:href="#m7938713366" x="461.847273" y="413.616207" style="fill: #9467bd"/>
     <use xlink:href="#m7938713366" x="482.792727" y="413.199501" style="fill: #9467bd"/>
     <use xlink:href="#m7938713366" x="503.738182" y="413.109733" style="fill: #9467bd"/>
     <use xlink:href="#m7938713366" x="524.683636" y="412.466757" style="fill: #9467bd"/>
     <use xlink:href="#m7938713366" x="545.629091" y="412.005921" style="fill: #9467bd"/>
     <use xlink:href="#m7938713366" x="566.574545" y="411.150104" style="fill: #9467bd"/>
     <use xlink:href="#m7938713366" x="587.52" y="410.931306" style="fill: #9467bd"/>
     <use xlink:href="#m7938713366" x="608.465455" y="410.790224" style="fill: #9467bd"/>
     <use xlink:href="#m7938713366" x="629.410909" y="410.601303" style="fill: #9467bd"/>
     <use xlink:href="#m7938713366" x="650.356364" y="410.263867" style="fill: #9467bd"/>
     <use xlink:href="#m7938713366" x="671.301818" y="409.971839" style="fill: #9467bd"/>
     <use xlink:href="#m7938713366" x="692.247273" y="409.421019" style="fill: #9467bd"/>
     <use xlink:href="#m7938713366" x="713.192727" y="409.453028" style="fill: #9467bd"/>
     <use xlink:href="#m7938713366" x="734.138182" y="409.04591" style="fill: #9467bd"/>
     <use xlink:href="#m7938713366" x="755.083636" y="409.632468" style="fill: #9467bd"/>
     <use xlink:href="#m7938713366" x="776.029091" y="408.488305" style="fill: #9467bd"/>
     <use xlink:href="#m7938713366" x="796.974545" y="408.279078" style="fill: #9467bd"/>
    </g>
   </g>
   <g id="line2d_58">
    <path d="M 115.2 350.365126 
L 829.44 350.365126 
" clip-path="url(#p677adb2c43)" style="fill: none; stroke-dasharray: 10.36,4.48; stroke-dashoffset: 0; stroke: #808080; stroke-width: 2.8"/>
   </g>
   <g id="line2d_59">
    <path d="M 147.665455 480.036993 
L 168.610909 458.47816 
L 189.556364 449.017202 
L 210.501818 447.407007 
L 231.447273 441.614598 
L 252.392727 437.920889 
L 273.338182 435.964658 
L 294.283636 434.394313 
L 315.229091 433.237289 
L 336.174545 431.556186 
L 357.12 431.87871 
L 378.065455 430.232837 
L 399.010909 429.631516 
L 419.956364 429.225607 
L 440.901818 428.344433 
L 461.847273 428.430052 
L 482.792727 428.119319 
L 503.738182 427.824422 
L 524.683636 427.892361 
L 545.629091 427.001255 
L 566.574545 426.535316 
L 587.52 426.448729 
L 608.465455 426.186468 
L 629.410909 425.940125 
L 650.356364 425.668574 
L 671.301818 424.904502 
L 692.247273 424.841199 
L 713.192727 425.198709 
L 734.138182 424.784392 
L 755.083636 424.90257 
L 776.029091 424.156243 
L 796.974545 424.033834 
" clip-path="url(#p677adb2c43)" style="fill: none; stroke: #000000; stroke-width: 0.1; stroke-linecap: square"/>
    <defs>
     <path id="m1d6244c5a6" d="M 0 3 
C 0.795609 3 1.55874 2.683901 2.12132 2.12132 
C 2.683901 1.55874 3 0.795609 3 0 
C 3 -0.795609 2.683901 -1.55874 2.12132 -2.12132 
C 1.55874 -2.683901 0.795609 -3 0 -3 
C -0.795609 -3 -1.55874 -2.683901 -2.12132 -2.12132 
C -2.683901 -1.55874 -3 -0.795609 -3 0 
C -3 0.795609 -2.683901 1.55874 -2.12132 2.12132 
C -1.55874 2.683901 -0.795609 3 0 3 
z
"/>
    </defs>
    <g clip-path="url(#p677adb2c43)">
     <use xlink:href="#m1d6244c5a6" x="147.665455" y="480.036993" style="fill: #1f77b4"/>
     <use xlink:href="#m1d6244c5a6" x="168.610909" y="458.47816" style="fill: #1f77b4"/>
     <use xlink:href="#m1d6244c5a6" x="189.556364" y="449.017202" style="fill: #1f77b4"/>
     <use xlink:href="#m1d6244c5a6" x="210.501818" y="447.407007" style="fill: #1f77b4"/>
     <use xlink:href="#m1d6244c5a6" x="231.447273" y="441.614598" style="fill: #1f77b4"/>
     <use xlink:href="#m1d6244c5a6" x="252.392727" y="437.920889" style="fill: #1f77b4"/>
     <use xlink:href="#m1d6244c5a6" x="273.338182" y="435.964658" style="fill: #1f77b4"/>
     <use xlink:href="#m1d6244c5a6" x="294.283636" y="434.394313" style="fill: #1f77b4"/>
     <use xlink:href="#m1d6244c5a6" x="315.229091" y="433.237289" style="fill: #1f77b4"/>
     <use xlink:href="#m1d6244c5a6" x="336.174545" y="431.556186" style="fill: #1f77b4"/>
     <use xlink:href="#m1d6244c5a6" x="357.12" y="431.87871" style="fill: #1f77b4"/>
     <use xlink:href="#m1d6244c5a6" x="378.065455" y="430.232837" style="fill: #1f77b4"/>
     <use xlink:href="#m1d6244c5a6" x="399.010909" y="429.631516" style="fill: #1f77b4"/>
     <use xlink:href="#m1d6244c5a6" x="419.956364" y="429.225607" style="fill: #1f77b4"/>
     <use xlink:href="#m1d6244c5a6" x="440.901818" y="428.344433" style="fill: #1f77b4"/>
     <use xlink:href="#m1d6244c5a6" x="461.847273" y="428.430052" style="fill: #1f77b4"/>
     <use xlink:href="#m1d6244c5a6" x="482.792727" y="428.119319" style="fill: #1f77b4"/>
     <use xlink:href="#m1d6244c5a6" x="503.738182" y="427.824422" style="fill: #1f77b4"/>
     <use xlink:href="#m1d6244c5a6" x="524.683636" y="427.892361" style="fill: #1f77b4"/>
     <use xlink:href="#m1d6244c5a6" x="545.629091" y="427.001255" style="fill: #1f77b4"/>
     <use xlink:href="#m1d6244c5a6" x="566.574545" y="426.535316" style="fill: #1f77b4"/>
     <use xlink:href="#m1d6244c5a6" x="587.52" y="426.448729" style="fill: #1f77b4"/>
     <use xlink:href="#m1d6244c5a6" x="608.465455" y="426.186468" style="fill: #1f77b4"/>
     <use xlink:href="#m1d6244c5a6" x="629.410909" y="425.940125" style="fill: #1f77b4"/>
     <use xlink:href="#m1d6244c5a6" x="650.356364" y="425.668574" style="fill: #1f77b4"/>
     <use xlink:href="#m1d6244c5a6" x="671.301818" y="424.904502" style="fill: #1f77b4"/>
     <use xlink:href="#m1d6244c5a6" x="692.247273" y="424.841199" style="fill: #1f77b4"/>
     <use xlink:href="#m1d6244c5a6" x="713.192727" y="425.198709" style="fill: #1f77b4"/>
     <use xlink:href="#m1d6244c5a6" x="734.138182" y="424.784392" style="fill: #1f77b4"/>
     <use xlink:href="#m1d6244c5a6" x="755.083636" y="424.90257" style="fill: #1f77b4"/>
     <use xlink:href="#m1d6244c5a6" x="776.029091" y="424.156243" style="fill: #1f77b4"/>
     <use xlink:href="#m1d6244c5a6" x="796.974545" y="424.033834" style="fill: #1f77b4"/>
    </g>
   </g>
   <g id="line2d_60">
    <path d="M 115.2 350.365126 
L 829.44 350.365126 
" clip-path="url(#p677adb2c43)" style="fill: none; stroke-dasharray: 10.36,4.48; stroke-dashoffset: 0; stroke: #808080; stroke-width: 2.8"/>
   </g>
   <g id="line2d_61">
    <path d="M 147.665455 241.917248 
L 168.610909 211.616863 
L 189.556364 193.61309 
L 210.501818 188.19281 
L 231.447273 179.990042 
L 252.392727 175.710982 
L 273.338182 168.805428 
L 294.283636 167.645987 
L 315.229091 165.479766 
L 336.174545 167.187333 
L 357.12 162.363414 
L 378.065455 158.78149 
L 399.010909 158.155362 
L 419.956364 156.508184 
L 440.901818 149.804962 
L 461.847273 147.850298 
L 482.792727 150.399308 
L 503.738182 147.986458 
L 524.683636 146.125362 
L 545.629091 144.581172 
L 566.574545 142.765202 
L 587.52 144.270667 
L 608.465455 145.252333 
L 629.410909 140.121523 
L 650.356364 145.302503 
L 671.301818 136.100241 
L 692.247273 133.903684 
L 713.192727 136.235201 
L 734.138182 139.397932 
L 755.083636 132.060466 
L 776.029091 130.105671 
L 796.974545 124.260739 
" clip-path="url(#p677adb2c43)" style="fill: none; stroke: #000000; stroke-width: 0.1; stroke-linecap: square"/>
    <defs>
     <path id="m6e7c6b93fb" d="M -0 8.485281 
L 5.091169 0 
L 0 -8.485281 
L -5.091169 -0 
z
"/>
    </defs>
    <g clip-path="url(#p677adb2c43)">
     <use xlink:href="#m6e7c6b93fb" x="147.665455" y="241.917248" style="fill: #2ca02c"/>
     <use xlink:href="#m6e7c6b93fb" x="168.610909" y="211.616863" style="fill: #2ca02c"/>
     <use xlink:href="#m6e7c6b93fb" x="189.556364" y="193.61309" style="fill: #2ca02c"/>
     <use xlink:href="#m6e7c6b93fb" x="210.501818" y="188.19281" style="fill: #2ca02c"/>
     <use xlink:href="#m6e7c6b93fb" x="231.447273" y="179.990042" style="fill: #2ca02c"/>
     <use xlink:href="#m6e7c6b93fb" x="252.392727" y="175.710982" style="fill: #2ca02c"/>
     <use xlink:href="#m6e7c6b93fb" x="273.338182" y="168.805428" style="fill: #2ca02c"/>
     <use xlink:href="#m6e7c6b93fb" x="294.283636" y="167.645987" style="fill: #2ca02c"/>
     <use xlink:href="#m6e7c6b93fb" x="315.229091" y="165.479766" style="fill: #2ca02c"/>
     <use xlink:href="#m6e7c6b93fb" x="336.174545" y="167.187333" style="fill: #2ca02c"/>
     <use xlink:href="#m6e7c6b93fb" x="357.12" y="162.363414" style="fill: #2ca02c"/>
     <use xlink:href="#m6e7c6b93fb" x="378.065455" y="158.78149" style="fill: #2ca02c"/>
     <use xlink:href="#m6e7c6b93fb" x="399.010909" y="158.155362" style="fill: #2ca02c"/>
     <use xlink:href="#m6e7c6b93fb" x="419.956364" y="156.508184" style="fill: #2ca02c"/>
     <use xlink:href="#m6e7c6b93fb" x="440.901818" y="149.804962" style="fill: #2ca02c"/>
     <use xlink:href="#m6e7c6b93fb" x="461.847273" y="147.850298" style="fill: #2ca02c"/>
     <use xlink:href="#m6e7c6b93fb" x="482.792727" y="150.399308" style="fill: #2ca02c"/>
     <use xlink:href="#m6e7c6b93fb" x="503.738182" y="147.986458" style="fill: #2ca02c"/>
     <use xlink:href="#m6e7c6b93fb" x="524.683636" y="146.125362" style="fill: #2ca02c"/>
     <use xlink:href="#m6e7c6b93fb" x="545.629091" y="144.581172" style="fill: #2ca02c"/>
     <use xlink:href="#m6e7c6b93fb" x="566.574545" y="142.765202" style="fill: #2ca02c"/>
     <use xlink:href="#m6e7c6b93fb" x="587.52" y="144.270667" style="fill: #2ca02c"/>
     <use xlink:href="#m6e7c6b93fb" x="608.465455" y="145.252333" style="fill: #2ca02c"/>
     <use xlink:href="#m6e7c6b93fb" x="629.410909" y="140.121523" style="fill: #2ca02c"/>
     <use xlink:href="#m6e7c6b93fb" x="650.356364" y="145.302503" style="fill: #2ca02c"/>
     <use xlink:href="#m6e7c6b93fb" x="671.301818" y="136.100241" style="fill: #2ca02c"/>
     <use xlink:href="#m6e7c6b93fb" x="692.247273" y="133.903684" style="fill: #2ca02c"/>
     <use xlink:href="#m6e7c6b93fb" x="713.192727" y="136.235201" style="fill: #2ca02c"/>
     <use xlink:href="#m6e7c6b93fb" x="734.138182" y="139.397932" style="fill: #2ca02c"/>
     <use xlink:href="#m6e7c6b93fb" x="755.083636" y="132.060466" style="fill: #2ca02c"/>
     <use xlink:href="#m6e7c6b93fb" x="776.029091" y="130.105671" style="fill: #2ca02c"/>
     <use xlink:href="#m6e7c6b93fb" x="796.974545" y="124.260739" style="fill: #2ca02c"/>
    </g>
   </g>
   <g id="line2d_62">
    <path d="M 115.2 350.365126 
L 829.44 350.365126 
" clip-path="url(#p677adb2c43)" style="fill: none; stroke-dasharray: 10.36,4.48; stroke-dashoffset: 0; stroke: #808080; stroke-width: 2.8"/>
   </g>
   <g id="line2d_63">
    <path d="M 147.665455 252.342796 
L 168.610909 219.26865 
L 189.556364 199.48043 
L 210.501818 186.338236 
L 231.447273 176.355177 
L 252.392727 168.478286 
L 273.338182 161.701759 
L 294.283636 155.947522 
L 315.229091 150.958764 
L 336.174545 146.455697 
L 357.12 142.549651 
L 378.065455 138.830056 
L 399.010909 135.481786 
L 419.956364 132.426844 
L 440.901818 129.518062 
L 461.847273 126.831646 
L 482.792727 124.31449 
L 503.738182 121.910663 
L 524.683636 119.68812 
L 545.629091 117.549421 
L 566.574545 115.519678 
L 587.52 113.594739 
L 608.465455 111.757342 
L 629.410909 109.9847 
L 650.356364 108.310036 
L 671.301818 106.69166 
L 692.247273 105.105316 
L 713.192727 103.63139 
L 734.138182 102.182458 
L 755.083636 100.800606 
L 776.029091 99.447692 
L 796.974545 98.208 
" clip-path="url(#p677adb2c43)" style="fill: none; stroke: #000000; stroke-width: 0.1; stroke-linecap: square"/>
    <defs>
     <path id="mee6b937e11" d="M 0 -6 
L -1.347084 -1.854102 
L -5.706339 -1.854102 
L -2.179628 0.708204 
L -3.526712 4.854102 
L -0 2.291796 
L 3.526712 4.854102 
L 2.179628 0.708204 
L 5.706339 -1.854102 
L 1.347084 -1.854102 
z
"/>
    </defs>
    <g clip-path="url(#p677adb2c43)">
     <use xlink:href="#mee6b937e11" x="147.665455" y="252.342796" style="fill: #d62728"/>
     <use xlink:href="#mee6b937e11" x="168.610909" y="219.26865" style="fill: #d62728"/>
     <use xlink:href="#mee6b937e11" x="189.556364" y="199.48043" style="fill: #d62728"/>
     <use xlink:href="#mee6b937e11" x="210.501818" y="186.338236" style="fill: #d62728"/>
     <use xlink:href="#mee6b937e11" x="231.447273" y="176.355177" style="fill: #d62728"/>
     <use xlink:href="#mee6b937e11" x="252.392727" y="168.478286" style="fill: #d62728"/>
     <use xlink:href="#mee6b937e11" x="273.338182" y="161.701759" style="fill: #d62728"/>
     <use xlink:href="#mee6b937e11" x="294.283636" y="155.947522" style="fill: #d62728"/>
     <use xlink:href="#mee6b937e11" x="315.229091" y="150.958764" style="fill: #d62728"/>
     <use xlink:href="#mee6b937e11" x="336.174545" y="146.455697" style="fill: #d62728"/>
     <use xlink:href="#mee6b937e11" x="357.12" y="142.549651" style="fill: #d62728"/>
     <use xlink:href="#mee6b937e11" x="378.065455" y="138.830056" style="fill: #d62728"/>
     <use xlink:href="#mee6b937e11" x="399.010909" y="135.481786" style="fill: #d62728"/>
     <use xlink:href="#mee6b937e11" x="419.956364" y="132.426844" style="fill: #d62728"/>
     <use xlink:href="#mee6b937e11" x="440.901818" y="129.518062" style="fill: #d62728"/>
     <use xlink:href="#mee6b937e11" x="461.847273" y="126.831646" style="fill: #d62728"/>
     <use xlink:href="#mee6b937e11" x="482.792727" y="124.31449" style="fill: #d62728"/>
     <use xlink:href="#mee6b937e11" x="503.738182" y="121.910663" style="fill: #d62728"/>
     <use xlink:href="#mee6b937e11" x="524.683636" y="119.68812" style="fill: #d62728"/>
     <use xlink:href="#mee6b937e11" x="545.629091" y="117.549421" style="fill: #d62728"/>
     <use xlink:href="#mee6b937e11" x="566.574545" y="115.519678" style="fill: #d62728"/>
     <use xlink:href="#mee6b937e11" x="587.52" y="113.594739" style="fill: #d62728"/>
     <use xlink:href="#mee6b937e11" x="608.465455" y="111.757342" style="fill: #d62728"/>
     <use xlink:href="#mee6b937e11" x="629.410909" y="109.9847" style="fill: #d62728"/>
     <use xlink:href="#mee6b937e11" x="650.356364" y="108.310036" style="fill: #d62728"/>
     <use xlink:href="#mee6b937e11" x="671.301818" y="106.69166" style="fill: #d62728"/>
     <use xlink:href="#mee6b937e11" x="692.247273" y="105.105316" style="fill: #d62728"/>
     <use xlink:href="#mee6b937e11" x="713.192727" y="103.63139" style="fill: #d62728"/>
     <use xlink:href="#mee6b937e11" x="734.138182" y="102.182458" style="fill: #d62728"/>
     <use xlink:href="#mee6b937e11" x="755.083636" y="100.800606" style="fill: #d62728"/>
     <use xlink:href="#mee6b937e11" x="776.029091" y="99.447692" style="fill: #d62728"/>
     <use xlink:href="#mee6b937e11" x="796.974545" y="98.208" style="fill: #d62728"/>
    </g>
   </g>
   <g id="line2d_64">
    <path d="M 115.2 350.365126 
L 829.44 350.365126 
" clip-path="url(#p677adb2c43)" style="fill: none; stroke-dasharray: 10.36,4.48; stroke-dashoffset: 0; stroke: #808080; stroke-width: 2.8"/>
   </g>
   <g id="patch_3">
    <path d="M 115.2 563.904 
L 115.2 76.032 
" style="fill: none; stroke: #000000; stroke-width: 0.8; stroke-linejoin: miter; stroke-linecap: square"/>
   </g>
   <g id="patch_4">
    <path d="M 829.44 563.904 
L 829.44 76.032 
" style="fill: none; stroke: #000000; stroke-width: 0.8; stroke-linejoin: miter; stroke-linecap: square"/>
   </g>
   <g id="patch_5">
    <path d="M 115.2 563.904 
L 829.44 563.904 
" style="fill: none; stroke: #000000; stroke-width: 0.8; stroke-linejoin: miter; stroke-linecap: square"/>
   </g>
   <g id="patch_6">
    <path d="M 115.2 76.032 
L 829.44 76.032 
" style="fill: none; stroke: #000000; stroke-width: 0.8; stroke-linejoin: miter; stroke-linecap: square"/>
   </g>
   <g id="text_14">
    <!-- $10^9$ for scale -->
    <g transform="translate(262.865455 378.583622)scale(0.11 -0.11)">
     <defs>
      <path id="DejaVuSans-66" d="M 2375 4863 
L 2375 4384 
L 1825 4384 
Q 1516 4384 1395 4259 
Q 1275 4134 1275 3809 
L 1275 3500 
L 2222 3500 
L 2222 3053 
L 1275 3053 
L 1275 0 
L 697 0 
L 697 3053 
L 147 3053 
L 147 3500 
L 697 3500 
L 697 3744 
Q 697 4328 969 4595 
Q 1241 4863 1831 4863 
L 2375 4863 
z
" transform="scale(0.015625)"/>
     </defs>
     <use xlink:href="#DejaVuSans-31" transform="translate(0 0.765625)"/>
     <use xlink:href="#DejaVuSans-30" transform="translate(63.623047 0.765625)"/>
     <use xlink:href="#DejaVuSans-39" transform="translate(128.203125 39.046875)scale(0.7)"/>
     <use xlink:href="#DejaVuSans-20" transform="translate(175.473633 0.765625)"/>
     <use xlink:href="#DejaVuSans-66" transform="translate(207.260742 0.765625)"/>
     <use xlink:href="#DejaVuSans-6f" transform="translate(242.46582 0.765625)"/>
     <use xlink:href="#DejaVuSans-72" transform="translate(303.647461 0.765625)"/>
     <use xlink:href="#DejaVuSans-20" transform="translate(344.760742 0.765625)"/>
     <use xlink:href="#DejaVuSans-73" transform="translate(376.547852 0.765625)"/>
     <use xlink:href="#DejaVuSans-63" transform="translate(428.647461 0.765625)"/>
     <use xlink:href="#DejaVuSans-61" transform="translate(483.62793 0.765625)"/>
     <use xlink:href="#DejaVuSans-6c" transform="translate(544.907227 0.765625)"/>
     <use xlink:href="#DejaVuSans-65" transform="translate(572.69043 0.765625)"/>
    </g>
   </g>
  </g>
 </g>
 <defs>
  <clipPath id="p677adb2c43">
   <rect x="115.2" y="76.032" width="714.24" height="487.872"/>
  </clipPath>
 </defs>
</svg>
