<?xml version="1.0" encoding="utf-8" standalone="no"?>
<!DOCTYPE svg PUBLIC "-//W3C//DTD SVG 1.1//EN"
  "http://www.w3.org/Graphics/SVG/1.1/DTD/svg11.dtd">
<svg xmlns:xlink="http://www.w3.org/1999/xlink" width="921.6pt" height="633.6pt" viewBox="0 0 921.6 633.6" xmlns="http://www.w3.org/2000/svg" version="1.1">
 <metadata>
  <rdf:RDF xmlns:dc="http://purl.org/dc/elements/1.1/" xmlns:cc="http://creativecommons.org/ns#" xmlns:rdf="http://www.w3.org/1999/02/22-rdf-syntax-ns#">
   <cc:Work>
    <dc:type rdf:resource="http://purl.org/dc/dcmitype/StillImage"/>
    <dc:date>2022-11-02T20:32:22.485271</dc:date>
    <dc:format>image/svg+xml</dc:format>
    <dc:creator>
     <cc:Agent>
      <dc:title>Matplotlib v3.5.3, https://matplotlib.org/</dc:title>
     </cc:Agent>
    </dc:creator>
   </cc:Work>
  </rdf:RDF>
 </metadata>
 <defs>
  <style type="text/css">*{stroke-linejoin: round; stroke-linecap: butt}</style>
 </defs>
 <g id="figure_1">
  <g id="patch_1">
   <path d="M 0 633.6 
L 921.6 633.6 
L 921.6 0 
L 0 0 
z
" style="fill: #ffffff"/>
  </g>
  <g id="axes_1">
   <g id="patch_2">
    <path d="M 115.2 563.904 
L 829.44 563.904 
L 829.44 76.032 
L 115.2 76.032 
z
" style="fill: #ffffff"/>
   </g>
   <g id="PolyCollection_1">
    <defs>
     <path id="md529f528b4" d="M 147.665455 -91.872 
L 147.665455 -91.872 
L 168.610909 -120.360748 
L 189.556364 -134.961059 
L 210.501818 -144.136919 
L 231.447273 -151.308324 
L 252.392727 -155.92721 
L 273.338182 -159.866197 
L 294.283636 -163.702859 
L 315.229091 -166.751319 
L 336.174545 -168.700656 
L 357.12 -170.880535 
L 378.065455 -172.423331 
L 399.010909 -174.602467 
L 419.956364 -177.274722 
L 440.901818 -178.22556 
L 461.847273 -177.666804 
L 482.792727 -180.224081 
L 503.738182 -180.830219 
L 524.683636 -182.39918 
L 545.629091 -181.689051 
L 566.574545 -182.506349 
L 587.52 -182.909416 
L 608.465455 -183.621856 
L 629.410909 -183.655476 
L 650.356364 -184.418302 
L 671.301818 -185.290311 
L 692.247273 -185.637273 
L 713.192727 -186.233251 
L 734.138182 -186.056852 
L 755.083636 -186.629811 
L 776.029091 -186.57634 
L 796.974545 -187.23706 
L 796.974545 -187.23706 
L 796.974545 -187.23706 
L 776.029091 -186.57634 
L 755.083636 -186.629811 
L 734.138182 -186.056852 
L 713.192727 -186.233251 
L 692.247273 -185.637273 
L 671.301818 -185.290311 
L 650.356364 -184.418302 
L 629.410909 -183.655476 
L 608.465455 -183.621856 
L 587.52 -182.909416 
L 566.574545 -182.506349 
L 545.629091 -181.689051 
L 524.683636 -182.39918 
L 503.738182 -180.830219 
L 482.792727 -180.224081 
L 461.847273 -177.666804 
L 440.901818 -178.22556 
L 419.956364 -177.274722 
L 399.010909 -174.602467 
L 378.065455 -172.423331 
L 357.12 -170.880535 
L 336.174545 -168.700656 
L 315.229091 -166.751319 
L 294.283636 -163.702859 
L 273.338182 -159.866197 
L 252.392727 -155.92721 
L 231.447273 -151.308324 
L 210.501818 -144.136919 
L 189.556364 -134.961059 
L 168.610909 -120.360748 
L 147.665455 -91.872 
z
" style="stroke: #fff8dc; stroke-width: 0.48"/>
    </defs>
    <g clip-path="url(#p4f20ffe267)">
     <use xlink:href="#md529f528b4" x="0" y="633.6" style="fill: #fff8dc; stroke: #fff8dc; stroke-width: 0.48"/>
    </g>
   </g>
   <g id="PolyCollection_2">
    <defs>
     <path id="m94699c6f31" d="M 147.665455 -154.522464 
L 147.665455 -154.522464 
L 168.610909 -177.225193 
L 189.556364 -184.481841 
L 210.501818 -193.726565 
L 231.447273 -198.314092 
L 252.392727 -199.056146 
L 273.338182 -201.152663 
L 294.283636 -203.875377 
L 315.229091 -204.322871 
L 336.174545 -205.835091 
L 357.12 -206.877251 
L 378.065455 -207.827799 
L 399.010909 -199.822506 
L 419.956364 -199.499985 
L 440.901818 -200.089106 
L 461.847273 -209.172723 
L 482.792727 -210.735505 
L 503.738182 -210.600806 
L 524.683636 -211.08082 
L 545.629091 -212.796837 
L 566.574545 -213.09278 
L 587.52 -213.395585 
L 608.465455 -213.347746 
L 629.410909 -213.463933 
L 650.356364 -213.989309 
L 671.301818 -214.809402 
L 692.247273 -214.894116 
L 713.192727 -214.443587 
L 734.138182 -214.481646 
L 755.083636 -214.645508 
L 776.029091 -215.008286 
L 796.974545 -215.174669 
L 796.974545 -215.174669 
L 796.974545 -215.174669 
L 776.029091 -215.008286 
L 755.083636 -214.645508 
L 734.138182 -214.481646 
L 713.192727 -214.443587 
L 692.247273 -214.894116 
L 671.301818 -214.809402 
L 650.356364 -213.989309 
L 629.410909 -213.463933 
L 608.465455 -213.347746 
L 587.52 -213.395585 
L 566.574545 -213.09278 
L 545.629091 -212.796837 
L 524.683636 -211.08082 
L 503.738182 -210.600806 
L 482.792727 -210.735505 
L 461.847273 -209.172723 
L 440.901818 -200.089106 
L 419.956364 -199.499985 
L 399.010909 -199.822506 
L 378.065455 -207.827799 
L 357.12 -206.877251 
L 336.174545 -205.835091 
L 315.229091 -204.322871 
L 294.283636 -203.875377 
L 273.338182 -201.152663 
L 252.392727 -199.056146 
L 231.447273 -198.314092 
L 210.501818 -193.726565 
L 189.556364 -184.481841 
L 168.610909 -177.225193 
L 147.665455 -154.522464 
z
" style="stroke: #fff8dc; stroke-width: 0.48"/>
    </defs>
    <g clip-path="url(#p4f20ffe267)">
     <use xlink:href="#m94699c6f31" x="0" y="633.6" style="fill: #fff8dc; stroke: #fff8dc; stroke-width: 0.48"/>
    </g>
   </g>
   <g id="PolyCollection_3">
    <defs>
     <path id="mc8af213113" d="M 147.665455 -143.489856 
L 147.665455 -143.489856 
L 168.610909 -165.019994 
L 189.556364 -175.151425 
L 210.501818 -179.204073 
L 231.447273 -183.838583 
L 252.392727 -185.205218 
L 273.338182 -186.505429 
L 294.283636 -189.057797 
L 315.229091 -190.295082 
L 336.174545 -191.77585 
L 357.12 -192.370092 
L 378.065455 -193.138118 
L 399.010909 -193.753888 
L 419.956364 -194.032 
L 440.901818 -194.441201 
L 461.847273 -194.780686 
L 482.792727 -195.052517 
L 503.738182 -195.600004 
L 524.683636 -195.341026 
L 545.629091 -196.240181 
L 566.574545 -196.737051 
L 587.52 -196.657504 
L 608.465455 -196.888705 
L 629.410909 -197.231566 
L 650.356364 -197.472624 
L 671.301818 -198.108746 
L 692.247273 -198.027355 
L 713.192727 -197.855491 
L 734.138182 -198.271573 
L 755.083636 -198.129173 
L 776.029091 -199.018522 
L 796.974545 -199.006685 
L 796.974545 -199.006685 
L 796.974545 -199.006685 
L 776.029091 -199.018522 
L 755.083636 -198.129173 
L 734.138182 -198.271573 
L 713.192727 -197.855491 
L 692.247273 -198.027355 
L 671.301818 -198.108746 
L 650.356364 -197.472624 
L 629.410909 -197.231566 
L 608.465455 -196.888705 
L 587.52 -196.657504 
L 566.574545 -196.737051 
L 545.629091 -196.240181 
L 524.683636 -195.341026 
L 503.738182 -195.600004 
L 482.792727 -195.052517 
L 461.847273 -194.780686 
L 440.901818 -194.441201 
L 419.956364 -194.032 
L 399.010909 -193.753888 
L 378.065455 -193.138118 
L 357.12 -192.370092 
L 336.174545 -191.77585 
L 315.229091 -190.295082 
L 294.283636 -189.057797 
L 273.338182 -186.505429 
L 252.392727 -185.205218 
L 231.447273 -183.838583 
L 210.501818 -179.204073 
L 189.556364 -175.151425 
L 168.610909 -165.019994 
L 147.665455 -143.489856 
z
" style="stroke: #fff8dc; stroke-width: 0.48"/>
    </defs>
    <g clip-path="url(#p4f20ffe267)">
     <use xlink:href="#mc8af213113" x="0" y="633.6" style="fill: #fff8dc; stroke: #fff8dc; stroke-width: 0.48"/>
    </g>
   </g>
   <g id="PolyCollection_4">
    <defs>
     <path id="m534a874a8f" d="M 147.665455 -349.103584 
L 147.665455 -349.103584 
L 168.610909 -390.068575 
L 189.556364 -403.314621 
L 210.501818 -414.677851 
L 231.447273 -422.228584 
L 252.392727 -423.892562 
L 273.338182 -431.039064 
L 294.283636 -433.56795 
L 315.229091 -438.74202 
L 336.174545 -438.784746 
L 357.12 -429.800136 
L 378.065455 -438.353484 
L 399.010909 -432.441425 
L 419.956364 -444.252961 
L 440.901818 -445.73221 
L 461.847273 -448.636314 
L 482.792727 -444.550421 
L 503.738182 -445.635849 
L 524.683636 -456.256058 
L 545.629091 -454.331811 
L 566.574545 -456.309302 
L 587.52 -462.306145 
L 608.465455 -463.479657 
L 629.410909 -461.616571 
L 650.356364 -462.876466 
L 671.301818 -467.632702 
L 692.247273 -461.380465 
L 713.192727 -468.017802 
L 734.138182 -457.732716 
L 755.083636 -466.275349 
L 776.029091 -473.902871 
L 796.974545 -470.774326 
L 796.974545 -470.774326 
L 796.974545 -483.819107 
L 776.029091 -480.345549 
L 755.083636 -475.126314 
L 734.138182 -476.607916 
L 713.192727 -476.719447 
L 692.247273 -474.663213 
L 671.301818 -471.777776 
L 650.356364 -467.470509 
L 629.410909 -470.462218 
L 608.465455 -468.220313 
L 587.52 -467.305266 
L 566.574545 -464.360855 
L 545.629091 -461.305762 
L 524.683636 -460.148013 
L 503.738182 -463.29591 
L 482.792727 -458.238358 
L 461.847273 -459.433779 
L 440.901818 -456.426503 
L 419.956364 -454.284832 
L 399.010909 -452.603607 
L 378.065455 -450.367696 
L 357.12 -452.914849 
L 336.174545 -445.887253 
L 315.229091 -445.124753 
L 294.283636 -441.8739 
L 273.338182 -438.927885 
L 252.392727 -435.211276 
L 231.447273 -431.368793 
L 210.501818 -426.615902 
L 189.556364 -413.158858 
L 168.610909 -403.59489 
L 147.665455 -375.735496 
z
" style="stroke: #fff8dc; stroke-width: 0.48"/>
    </defs>
    <g clip-path="url(#p4f20ffe267)">
     <use xlink:href="#m534a874a8f" x="0" y="633.6" style="fill: #fff8dc; stroke: #fff8dc; stroke-width: 0.48"/>
    </g>
   </g>
   <g id="PolyCollection_5">
    <defs>
     <path id="m1654da8c45" d="M 147.665455 -506.241185 
L 147.665455 -506.241185 
L 168.610909 -513.98638 
L 189.556364 -520.438519 
L 210.501818 -524.017208 
L 231.447273 -526.037876 
L 252.392727 -527.908138 
L 273.338182 -529.261539 
L 294.283636 -530.043667 
L 315.229091 -530.767292 
L 336.174545 -531.319227 
L 357.12 -531.526495 
L 378.065455 -531.895025 
L 399.010909 -532.499663 
L 419.956364 -532.600844 
L 440.901818 -532.817604 
L 461.847273 -533.258453 
L 482.792727 -532.93561 
L 503.738182 -533.263799 
L 524.683636 -533.435297 
L 545.629091 -533.644036 
L 566.574545 -533.812641 
L 587.52 -533.902869 
L 608.465455 -533.977689 
L 629.410909 -534.277663 
L 650.356364 -534.170083 
L 671.301818 -534.332194 
L 692.247273 -534.498914 
L 713.192727 -534.654186 
L 734.138182 -534.578323 
L 755.083636 -534.862934 
L 776.029091 -534.912738 
L 796.974545 -535.392 
L 796.974545 -535.392 
L 796.974545 -535.392 
L 776.029091 -534.912738 
L 755.083636 -534.862934 
L 734.138182 -534.578323 
L 713.192727 -534.654186 
L 692.247273 -534.498914 
L 671.301818 -534.332194 
L 650.356364 -534.170083 
L 629.410909 -534.277663 
L 608.465455 -533.977689 
L 587.52 -533.902869 
L 566.574545 -533.812641 
L 545.629091 -533.644036 
L 524.683636 -533.435297 
L 503.738182 -533.263799 
L 482.792727 -532.93561 
L 461.847273 -533.258453 
L 440.901818 -532.817604 
L 419.956364 -532.600844 
L 399.010909 -532.499663 
L 378.065455 -531.895025 
L 357.12 -531.526495 
L 336.174545 -531.319227 
L 315.229091 -530.767292 
L 294.283636 -530.043667 
L 273.338182 -529.261539 
L 252.392727 -527.908138 
L 231.447273 -526.037876 
L 210.501818 -524.017208 
L 189.556364 -520.438519 
L 168.610909 -513.98638 
L 147.665455 -506.241185 
z
" style="stroke: #fff8dc; stroke-width: 0.48"/>
    </defs>
    <g clip-path="url(#p4f20ffe267)">
     <use xlink:href="#m1654da8c45" x="0" y="633.6" style="fill: #fff8dc; stroke: #fff8dc; stroke-width: 0.48"/>
    </g>
   </g>
   <g id="matplotlib.axis_1">
    <g id="xtick_1">
     <g id="line2d_1">
      <defs>
       <path id="mad87932ea7" d="M 0 0 
L 0 3.5 
" style="stroke: #000000; stroke-width: 1.6"/>
      </defs>
      <g>
       <use xlink:href="#mad87932ea7" x="147.665455" y="563.904" style="stroke: #000000; stroke-width: 1.6"/>
      </g>
     </g>
     <g id="text_1">
      <!-- 1, 8 -->
      <g transform="translate(137.170767 586.962281)scale(0.11 -0.11)">
       <defs>
        <path id="DejaVuSans-31" d="M 794 531 
L 1825 531 
L 1825 4091 
L 703 3866 
L 703 4441 
L 1819 4666 
L 2450 4666 
L 2450 531 
L 3481 531 
L 3481 0 
L 794 0 
L 794 531 
z
" transform="scale(0.015625)"/>
        <path id="DejaVuSans-2c" d="M 750 794 
L 1409 794 
L 1409 256 
L 897 -744 
L 494 -744 
L 750 256 
L 750 794 
z
" transform="scale(0.015625)"/>
        <path id="DejaVuSans-20" transform="scale(0.015625)"/>
        <path id="DejaVuSans-38" d="M 2034 2216 
Q 1584 2216 1326 1975 
Q 1069 1734 1069 1313 
Q 1069 891 1326 650 
Q 1584 409 2034 409 
Q 2484 409 2743 651 
Q 3003 894 3003 1313 
Q 3003 1734 2745 1975 
Q 2488 2216 2034 2216 
z
M 1403 2484 
Q 997 2584 770 2862 
Q 544 3141 544 3541 
Q 544 4100 942 4425 
Q 1341 4750 2034 4750 
Q 2731 4750 3128 4425 
Q 3525 4100 3525 3541 
Q 3525 3141 3298 2862 
Q 3072 2584 2669 2484 
Q 3125 2378 3379 2068 
Q 3634 1759 3634 1313 
Q 3634 634 3220 271 
Q 2806 -91 2034 -91 
Q 1263 -91 848 271 
Q 434 634 434 1313 
Q 434 1759 690 2068 
Q 947 2378 1403 2484 
z
M 1172 3481 
Q 1172 3119 1398 2916 
Q 1625 2713 2034 2713 
Q 2441 2713 2670 2916 
Q 2900 3119 2900 3481 
Q 2900 3844 2670 4047 
Q 2441 4250 2034 4250 
Q 1625 4250 1398 4047 
Q 1172 3844 1172 3481 
z
" transform="scale(0.015625)"/>
       </defs>
       <use xlink:href="#DejaVuSans-31"/>
       <use xlink:href="#DejaVuSans-2c" x="63.623047"/>
       <use xlink:href="#DejaVuSans-20" x="95.410156"/>
       <use xlink:href="#DejaVuSans-38" x="127.197266"/>
      </g>
     </g>
    </g>
    <g id="xtick_2">
     <g id="line2d_2">
      <g>
       <use xlink:href="#mad87932ea7" x="273.338182" y="563.904" style="stroke: #000000; stroke-width: 1.6"/>
      </g>
     </g>
     <g id="text_2">
      <!-- 7, 56 -->
      <g transform="translate(259.344119 586.962281)scale(0.11 -0.11)">
       <defs>
        <path id="DejaVuSans-37" d="M 525 4666 
L 3525 4666 
L 3525 4397 
L 1831 0 
L 1172 0 
L 2766 4134 
L 525 4134 
L 525 4666 
z
" transform="scale(0.015625)"/>
        <path id="DejaVuSans-35" d="M 691 4666 
L 3169 4666 
L 3169 4134 
L 1269 4134 
L 1269 2991 
Q 1406 3038 1543 3061 
Q 1681 3084 1819 3084 
Q 2600 3084 3056 2656 
Q 3513 2228 3513 1497 
Q 3513 744 3044 326 
Q 2575 -91 1722 -91 
Q 1428 -91 1123 -41 
Q 819 9 494 109 
L 494 744 
Q 775 591 1075 516 
Q 1375 441 1709 441 
Q 2250 441 2565 725 
Q 2881 1009 2881 1497 
Q 2881 1984 2565 2268 
Q 2250 2553 1709 2553 
Q 1456 2553 1204 2497 
Q 953 2441 691 2322 
L 691 4666 
z
" transform="scale(0.015625)"/>
        <path id="DejaVuSans-36" d="M 2113 2584 
Q 1688 2584 1439 2293 
Q 1191 2003 1191 1497 
Q 1191 994 1439 701 
Q 1688 409 2113 409 
Q 2538 409 2786 701 
Q 3034 994 3034 1497 
Q 3034 2003 2786 2293 
Q 2538 2584 2113 2584 
z
M 3366 4563 
L 3366 3988 
Q 3128 4100 2886 4159 
Q 2644 4219 2406 4219 
Q 1781 4219 1451 3797 
Q 1122 3375 1075 2522 
Q 1259 2794 1537 2939 
Q 1816 3084 2150 3084 
Q 2853 3084 3261 2657 
Q 3669 2231 3669 1497 
Q 3669 778 3244 343 
Q 2819 -91 2113 -91 
Q 1303 -91 875 529 
Q 447 1150 447 2328 
Q 447 3434 972 4092 
Q 1497 4750 2381 4750 
Q 2619 4750 2861 4703 
Q 3103 4656 3366 4563 
z
" transform="scale(0.015625)"/>
       </defs>
       <use xlink:href="#DejaVuSans-37"/>
       <use xlink:href="#DejaVuSans-2c" x="63.623047"/>
       <use xlink:href="#DejaVuSans-20" x="95.410156"/>
       <use xlink:href="#DejaVuSans-35" x="127.197266"/>
       <use xlink:href="#DejaVuSans-36" x="190.820312"/>
      </g>
     </g>
    </g>
    <g id="xtick_3">
     <g id="line2d_3">
      <g>
       <use xlink:href="#mad87932ea7" x="399.010909" y="563.904" style="stroke: #000000; stroke-width: 1.6"/>
      </g>
     </g>
     <g id="text_3">
      <!-- 13, 104 -->
      <g transform="translate(378.018097 586.962281)scale(0.11 -0.11)">
       <defs>
        <path id="DejaVuSans-33" d="M 2597 2516 
Q 3050 2419 3304 2112 
Q 3559 1806 3559 1356 
Q 3559 666 3084 287 
Q 2609 -91 1734 -91 
Q 1441 -91 1130 -33 
Q 819 25 488 141 
L 488 750 
Q 750 597 1062 519 
Q 1375 441 1716 441 
Q 2309 441 2620 675 
Q 2931 909 2931 1356 
Q 2931 1769 2642 2001 
Q 2353 2234 1838 2234 
L 1294 2234 
L 1294 2753 
L 1863 2753 
Q 2328 2753 2575 2939 
Q 2822 3125 2822 3475 
Q 2822 3834 2567 4026 
Q 2313 4219 1838 4219 
Q 1578 4219 1281 4162 
Q 984 4106 628 3988 
L 628 4550 
Q 988 4650 1302 4700 
Q 1616 4750 1894 4750 
Q 2613 4750 3031 4423 
Q 3450 4097 3450 3541 
Q 3450 3153 3228 2886 
Q 3006 2619 2597 2516 
z
" transform="scale(0.015625)"/>
        <path id="DejaVuSans-30" d="M 2034 4250 
Q 1547 4250 1301 3770 
Q 1056 3291 1056 2328 
Q 1056 1369 1301 889 
Q 1547 409 2034 409 
Q 2525 409 2770 889 
Q 3016 1369 3016 2328 
Q 3016 3291 2770 3770 
Q 2525 4250 2034 4250 
z
M 2034 4750 
Q 2819 4750 3233 4129 
Q 3647 3509 3647 2328 
Q 3647 1150 3233 529 
Q 2819 -91 2034 -91 
Q 1250 -91 836 529 
Q 422 1150 422 2328 
Q 422 3509 836 4129 
Q 1250 4750 2034 4750 
z
" transform="scale(0.015625)"/>
        <path id="DejaVuSans-34" d="M 2419 4116 
L 825 1625 
L 2419 1625 
L 2419 4116 
z
M 2253 4666 
L 3047 4666 
L 3047 1625 
L 3713 1625 
L 3713 1100 
L 3047 1100 
L 3047 0 
L 2419 0 
L 2419 1100 
L 313 1100 
L 313 1709 
L 2253 4666 
z
" transform="scale(0.015625)"/>
       </defs>
       <use xlink:href="#DejaVuSans-31"/>
       <use xlink:href="#DejaVuSans-33" x="63.623047"/>
       <use xlink:href="#DejaVuSans-2c" x="127.246094"/>
       <use xlink:href="#DejaVuSans-20" x="159.033203"/>
       <use xlink:href="#DejaVuSans-31" x="190.820312"/>
       <use xlink:href="#DejaVuSans-30" x="254.443359"/>
       <use xlink:href="#DejaVuSans-34" x="318.066406"/>
      </g>
     </g>
    </g>
    <g id="xtick_4">
     <g id="line2d_4">
      <g>
       <use xlink:href="#mad87932ea7" x="524.683636" y="563.904" style="stroke: #000000; stroke-width: 1.6"/>
      </g>
     </g>
     <g id="text_4">
      <!-- 19, 152 -->
      <g transform="translate(503.690824 586.962281)scale(0.11 -0.11)">
       <defs>
        <path id="DejaVuSans-39" d="M 703 97 
L 703 672 
Q 941 559 1184 500 
Q 1428 441 1663 441 
Q 2288 441 2617 861 
Q 2947 1281 2994 2138 
Q 2813 1869 2534 1725 
Q 2256 1581 1919 1581 
Q 1219 1581 811 2004 
Q 403 2428 403 3163 
Q 403 3881 828 4315 
Q 1253 4750 1959 4750 
Q 2769 4750 3195 4129 
Q 3622 3509 3622 2328 
Q 3622 1225 3098 567 
Q 2575 -91 1691 -91 
Q 1453 -91 1209 -44 
Q 966 3 703 97 
z
M 1959 2075 
Q 2384 2075 2632 2365 
Q 2881 2656 2881 3163 
Q 2881 3666 2632 3958 
Q 2384 4250 1959 4250 
Q 1534 4250 1286 3958 
Q 1038 3666 1038 3163 
Q 1038 2656 1286 2365 
Q 1534 2075 1959 2075 
z
" transform="scale(0.015625)"/>
        <path id="DejaVuSans-32" d="M 1228 531 
L 3431 531 
L 3431 0 
L 469 0 
L 469 531 
Q 828 903 1448 1529 
Q 2069 2156 2228 2338 
Q 2531 2678 2651 2914 
Q 2772 3150 2772 3378 
Q 2772 3750 2511 3984 
Q 2250 4219 1831 4219 
Q 1534 4219 1204 4116 
Q 875 4013 500 3803 
L 500 4441 
Q 881 4594 1212 4672 
Q 1544 4750 1819 4750 
Q 2544 4750 2975 4387 
Q 3406 4025 3406 3419 
Q 3406 3131 3298 2873 
Q 3191 2616 2906 2266 
Q 2828 2175 2409 1742 
Q 1991 1309 1228 531 
z
" transform="scale(0.015625)"/>
       </defs>
       <use xlink:href="#DejaVuSans-31"/>
       <use xlink:href="#DejaVuSans-39" x="63.623047"/>
       <use xlink:href="#DejaVuSans-2c" x="127.246094"/>
       <use xlink:href="#DejaVuSans-20" x="159.033203"/>
       <use xlink:href="#DejaVuSans-31" x="190.820312"/>
       <use xlink:href="#DejaVuSans-35" x="254.443359"/>
       <use xlink:href="#DejaVuSans-32" x="318.066406"/>
      </g>
     </g>
    </g>
    <g id="xtick_5">
     <g id="line2d_5">
      <g>
       <use xlink:href="#mad87932ea7" x="650.356364" y="563.904" style="stroke: #000000; stroke-width: 1.6"/>
      </g>
     </g>
     <g id="text_5">
      <!-- 25, 200 -->
      <g transform="translate(629.363551 586.962281)scale(0.11 -0.11)">
       <use xlink:href="#DejaVuSans-32"/>
       <use xlink:href="#DejaVuSans-35" x="63.623047"/>
       <use xlink:href="#DejaVuSans-2c" x="127.246094"/>
       <use xlink:href="#DejaVuSans-20" x="159.033203"/>
       <use xlink:href="#DejaVuSans-32" x="190.820312"/>
       <use xlink:href="#DejaVuSans-30" x="254.443359"/>
       <use xlink:href="#DejaVuSans-30" x="318.066406"/>
      </g>
     </g>
    </g>
    <g id="xtick_6">
     <g id="line2d_6">
      <g>
       <use xlink:href="#mad87932ea7" x="776.029091" y="563.904" style="stroke: #000000; stroke-width: 1.6"/>
      </g>
     </g>
     <g id="text_6">
      <!-- 31, 248 -->
      <g transform="translate(755.036278 586.962281)scale(0.11 -0.11)">
       <use xlink:href="#DejaVuSans-33"/>
       <use xlink:href="#DejaVuSans-31" x="63.623047"/>
       <use xlink:href="#DejaVuSans-2c" x="127.246094"/>
       <use xlink:href="#DejaVuSans-20" x="159.033203"/>
       <use xlink:href="#DejaVuSans-32" x="190.820312"/>
       <use xlink:href="#DejaVuSans-34" x="254.443359"/>
       <use xlink:href="#DejaVuSans-38" x="318.066406"/>
      </g>
     </g>
    </g>
    <g id="text_7">
     <!-- Bin number, maximum program size -->
     <g transform="translate(343.975 603.88775)scale(0.14 -0.14)">
      <defs>
       <path id="DejaVuSans-42" d="M 1259 2228 
L 1259 519 
L 2272 519 
Q 2781 519 3026 730 
Q 3272 941 3272 1375 
Q 3272 1813 3026 2020 
Q 2781 2228 2272 2228 
L 1259 2228 
z
M 1259 4147 
L 1259 2741 
L 2194 2741 
Q 2656 2741 2882 2914 
Q 3109 3088 3109 3444 
Q 3109 3797 2882 3972 
Q 2656 4147 2194 4147 
L 1259 4147 
z
M 628 4666 
L 2241 4666 
Q 2963 4666 3353 4366 
Q 3744 4066 3744 3513 
Q 3744 3084 3544 2831 
Q 3344 2578 2956 2516 
Q 3422 2416 3680 2098 
Q 3938 1781 3938 1306 
Q 3938 681 3513 340 
Q 3088 0 2303 0 
L 628 0 
L 628 4666 
z
" transform="scale(0.015625)"/>
       <path id="DejaVuSans-69" d="M 603 3500 
L 1178 3500 
L 1178 0 
L 603 0 
L 603 3500 
z
M 603 4863 
L 1178 4863 
L 1178 4134 
L 603 4134 
L 603 4863 
z
" transform="scale(0.015625)"/>
       <path id="DejaVuSans-6e" d="M 3513 2113 
L 3513 0 
L 2938 0 
L 2938 2094 
Q 2938 2591 2744 2837 
Q 2550 3084 2163 3084 
Q 1697 3084 1428 2787 
Q 1159 2491 1159 1978 
L 1159 0 
L 581 0 
L 581 3500 
L 1159 3500 
L 1159 2956 
Q 1366 3272 1645 3428 
Q 1925 3584 2291 3584 
Q 2894 3584 3203 3211 
Q 3513 2838 3513 2113 
z
" transform="scale(0.015625)"/>
       <path id="DejaVuSans-75" d="M 544 1381 
L 544 3500 
L 1119 3500 
L 1119 1403 
Q 1119 906 1312 657 
Q 1506 409 1894 409 
Q 2359 409 2629 706 
Q 2900 1003 2900 1516 
L 2900 3500 
L 3475 3500 
L 3475 0 
L 2900 0 
L 2900 538 
Q 2691 219 2414 64 
Q 2138 -91 1772 -91 
Q 1169 -91 856 284 
Q 544 659 544 1381 
z
M 1991 3584 
L 1991 3584 
z
" transform="scale(0.015625)"/>
       <path id="DejaVuSans-6d" d="M 3328 2828 
Q 3544 3216 3844 3400 
Q 4144 3584 4550 3584 
Q 5097 3584 5394 3201 
Q 5691 2819 5691 2113 
L 5691 0 
L 5113 0 
L 5113 2094 
Q 5113 2597 4934 2840 
Q 4756 3084 4391 3084 
Q 3944 3084 3684 2787 
Q 3425 2491 3425 1978 
L 3425 0 
L 2847 0 
L 2847 2094 
Q 2847 2600 2669 2842 
Q 2491 3084 2119 3084 
Q 1678 3084 1418 2786 
Q 1159 2488 1159 1978 
L 1159 0 
L 581 0 
L 581 3500 
L 1159 3500 
L 1159 2956 
Q 1356 3278 1631 3431 
Q 1906 3584 2284 3584 
Q 2666 3584 2933 3390 
Q 3200 3197 3328 2828 
z
" transform="scale(0.015625)"/>
       <path id="DejaVuSans-62" d="M 3116 1747 
Q 3116 2381 2855 2742 
Q 2594 3103 2138 3103 
Q 1681 3103 1420 2742 
Q 1159 2381 1159 1747 
Q 1159 1113 1420 752 
Q 1681 391 2138 391 
Q 2594 391 2855 752 
Q 3116 1113 3116 1747 
z
M 1159 2969 
Q 1341 3281 1617 3432 
Q 1894 3584 2278 3584 
Q 2916 3584 3314 3078 
Q 3713 2572 3713 1747 
Q 3713 922 3314 415 
Q 2916 -91 2278 -91 
Q 1894 -91 1617 61 
Q 1341 213 1159 525 
L 1159 0 
L 581 0 
L 581 4863 
L 1159 4863 
L 1159 2969 
z
" transform="scale(0.015625)"/>
       <path id="DejaVuSans-65" d="M 3597 1894 
L 3597 1613 
L 953 1613 
Q 991 1019 1311 708 
Q 1631 397 2203 397 
Q 2534 397 2845 478 
Q 3156 559 3463 722 
L 3463 178 
Q 3153 47 2828 -22 
Q 2503 -91 2169 -91 
Q 1331 -91 842 396 
Q 353 884 353 1716 
Q 353 2575 817 3079 
Q 1281 3584 2069 3584 
Q 2775 3584 3186 3129 
Q 3597 2675 3597 1894 
z
M 3022 2063 
Q 3016 2534 2758 2815 
Q 2500 3097 2075 3097 
Q 1594 3097 1305 2825 
Q 1016 2553 972 2059 
L 3022 2063 
z
" transform="scale(0.015625)"/>
       <path id="DejaVuSans-72" d="M 2631 2963 
Q 2534 3019 2420 3045 
Q 2306 3072 2169 3072 
Q 1681 3072 1420 2755 
Q 1159 2438 1159 1844 
L 1159 0 
L 581 0 
L 581 3500 
L 1159 3500 
L 1159 2956 
Q 1341 3275 1631 3429 
Q 1922 3584 2338 3584 
Q 2397 3584 2469 3576 
Q 2541 3569 2628 3553 
L 2631 2963 
z
" transform="scale(0.015625)"/>
       <path id="DejaVuSans-61" d="M 2194 1759 
Q 1497 1759 1228 1600 
Q 959 1441 959 1056 
Q 959 750 1161 570 
Q 1363 391 1709 391 
Q 2188 391 2477 730 
Q 2766 1069 2766 1631 
L 2766 1759 
L 2194 1759 
z
M 3341 1997 
L 3341 0 
L 2766 0 
L 2766 531 
Q 2569 213 2275 61 
Q 1981 -91 1556 -91 
Q 1019 -91 701 211 
Q 384 513 384 1019 
Q 384 1609 779 1909 
Q 1175 2209 1959 2209 
L 2766 2209 
L 2766 2266 
Q 2766 2663 2505 2880 
Q 2244 3097 1772 3097 
Q 1472 3097 1187 3025 
Q 903 2953 641 2809 
L 641 3341 
Q 956 3463 1253 3523 
Q 1550 3584 1831 3584 
Q 2591 3584 2966 3190 
Q 3341 2797 3341 1997 
z
" transform="scale(0.015625)"/>
       <path id="DejaVuSans-78" d="M 3513 3500 
L 2247 1797 
L 3578 0 
L 2900 0 
L 1881 1375 
L 863 0 
L 184 0 
L 1544 1831 
L 300 3500 
L 978 3500 
L 1906 2253 
L 2834 3500 
L 3513 3500 
z
" transform="scale(0.015625)"/>
       <path id="DejaVuSans-70" d="M 1159 525 
L 1159 -1331 
L 581 -1331 
L 581 3500 
L 1159 3500 
L 1159 2969 
Q 1341 3281 1617 3432 
Q 1894 3584 2278 3584 
Q 2916 3584 3314 3078 
Q 3713 2572 3713 1747 
Q 3713 922 3314 415 
Q 2916 -91 2278 -91 
Q 1894 -91 1617 61 
Q 1341 213 1159 525 
z
M 3116 1747 
Q 3116 2381 2855 2742 
Q 2594 3103 2138 3103 
Q 1681 3103 1420 2742 
Q 1159 2381 1159 1747 
Q 1159 1113 1420 752 
Q 1681 391 2138 391 
Q 2594 391 2855 752 
Q 3116 1113 3116 1747 
z
" transform="scale(0.015625)"/>
       <path id="DejaVuSans-6f" d="M 1959 3097 
Q 1497 3097 1228 2736 
Q 959 2375 959 1747 
Q 959 1119 1226 758 
Q 1494 397 1959 397 
Q 2419 397 2687 759 
Q 2956 1122 2956 1747 
Q 2956 2369 2687 2733 
Q 2419 3097 1959 3097 
z
M 1959 3584 
Q 2709 3584 3137 3096 
Q 3566 2609 3566 1747 
Q 3566 888 3137 398 
Q 2709 -91 1959 -91 
Q 1206 -91 779 398 
Q 353 888 353 1747 
Q 353 2609 779 3096 
Q 1206 3584 1959 3584 
z
" transform="scale(0.015625)"/>
       <path id="DejaVuSans-67" d="M 2906 1791 
Q 2906 2416 2648 2759 
Q 2391 3103 1925 3103 
Q 1463 3103 1205 2759 
Q 947 2416 947 1791 
Q 947 1169 1205 825 
Q 1463 481 1925 481 
Q 2391 481 2648 825 
Q 2906 1169 2906 1791 
z
M 3481 434 
Q 3481 -459 3084 -895 
Q 2688 -1331 1869 -1331 
Q 1566 -1331 1297 -1286 
Q 1028 -1241 775 -1147 
L 775 -588 
Q 1028 -725 1275 -790 
Q 1522 -856 1778 -856 
Q 2344 -856 2625 -561 
Q 2906 -266 2906 331 
L 2906 616 
Q 2728 306 2450 153 
Q 2172 0 1784 0 
Q 1141 0 747 490 
Q 353 981 353 1791 
Q 353 2603 747 3093 
Q 1141 3584 1784 3584 
Q 2172 3584 2450 3431 
Q 2728 3278 2906 2969 
L 2906 3500 
L 3481 3500 
L 3481 434 
z
" transform="scale(0.015625)"/>
       <path id="DejaVuSans-73" d="M 2834 3397 
L 2834 2853 
Q 2591 2978 2328 3040 
Q 2066 3103 1784 3103 
Q 1356 3103 1142 2972 
Q 928 2841 928 2578 
Q 928 2378 1081 2264 
Q 1234 2150 1697 2047 
L 1894 2003 
Q 2506 1872 2764 1633 
Q 3022 1394 3022 966 
Q 3022 478 2636 193 
Q 2250 -91 1575 -91 
Q 1294 -91 989 -36 
Q 684 19 347 128 
L 347 722 
Q 666 556 975 473 
Q 1284 391 1588 391 
Q 1994 391 2212 530 
Q 2431 669 2431 922 
Q 2431 1156 2273 1281 
Q 2116 1406 1581 1522 
L 1381 1569 
Q 847 1681 609 1914 
Q 372 2147 372 2553 
Q 372 3047 722 3315 
Q 1072 3584 1716 3584 
Q 2034 3584 2315 3537 
Q 2597 3491 2834 3397 
z
" transform="scale(0.015625)"/>
       <path id="DejaVuSans-7a" d="M 353 3500 
L 3084 3500 
L 3084 2975 
L 922 459 
L 3084 459 
L 3084 0 
L 275 0 
L 275 525 
L 2438 3041 
L 353 3041 
L 353 3500 
z
" transform="scale(0.015625)"/>
      </defs>
      <use xlink:href="#DejaVuSans-42"/>
      <use xlink:href="#DejaVuSans-69" x="68.603516"/>
      <use xlink:href="#DejaVuSans-6e" x="96.386719"/>
      <use xlink:href="#DejaVuSans-20" x="159.765625"/>
      <use xlink:href="#DejaVuSans-6e" x="191.552734"/>
      <use xlink:href="#DejaVuSans-75" x="254.931641"/>
      <use xlink:href="#DejaVuSans-6d" x="318.310547"/>
      <use xlink:href="#DejaVuSans-62" x="415.722656"/>
      <use xlink:href="#DejaVuSans-65" x="479.199219"/>
      <use xlink:href="#DejaVuSans-72" x="540.722656"/>
      <use xlink:href="#DejaVuSans-2c" x="581.835938"/>
      <use xlink:href="#DejaVuSans-20" x="613.623047"/>
      <use xlink:href="#DejaVuSans-6d" x="645.410156"/>
      <use xlink:href="#DejaVuSans-61" x="742.822266"/>
      <use xlink:href="#DejaVuSans-78" x="804.101562"/>
      <use xlink:href="#DejaVuSans-69" x="863.28125"/>
      <use xlink:href="#DejaVuSans-6d" x="891.064453"/>
      <use xlink:href="#DejaVuSans-75" x="988.476562"/>
      <use xlink:href="#DejaVuSans-6d" x="1051.855469"/>
      <use xlink:href="#DejaVuSans-20" x="1149.267578"/>
      <use xlink:href="#DejaVuSans-70" x="1181.054688"/>
      <use xlink:href="#DejaVuSans-72" x="1244.53125"/>
      <use xlink:href="#DejaVuSans-6f" x="1283.394531"/>
      <use xlink:href="#DejaVuSans-67" x="1344.576172"/>
      <use xlink:href="#DejaVuSans-72" x="1408.052734"/>
      <use xlink:href="#DejaVuSans-61" x="1449.166016"/>
      <use xlink:href="#DejaVuSans-6d" x="1510.445312"/>
      <use xlink:href="#DejaVuSans-20" x="1607.857422"/>
      <use xlink:href="#DejaVuSans-73" x="1639.644531"/>
      <use xlink:href="#DejaVuSans-69" x="1691.744141"/>
      <use xlink:href="#DejaVuSans-7a" x="1719.527344"/>
      <use xlink:href="#DejaVuSans-65" x="1772.017578"/>
     </g>
    </g>
   </g>
   <g id="matplotlib.axis_2">
    <g id="ytick_1">
     <g id="line2d_7">
      <defs>
       <path id="m807003eba8" d="M 0 0 
L -3.5 0 
" style="stroke: #000000; stroke-width: 1.6"/>
      </defs>
      <g>
       <use xlink:href="#m807003eba8" x="115.2" y="541.150845" style="stroke: #000000; stroke-width: 1.6"/>
      </g>
     </g>
     <g id="text_8">
      <!-- $\mathdefault{10^{5}}$ -->
      <g transform="translate(81.14 545.329985)scale(0.11 -0.11)">
       <use xlink:href="#DejaVuSans-31" transform="translate(0 0.684375)"/>
       <use xlink:href="#DejaVuSans-30" transform="translate(63.623047 0.684375)"/>
       <use xlink:href="#DejaVuSans-35" transform="translate(128.203125 38.965625)scale(0.7)"/>
      </g>
     </g>
    </g>
    <g id="ytick_2">
     <g id="line2d_8">
      <g>
       <use xlink:href="#m807003eba8" x="115.2" y="453.507924" style="stroke: #000000; stroke-width: 1.6"/>
      </g>
     </g>
     <g id="text_9">
      <!-- $\mathdefault{10^{6}}$ -->
      <g transform="translate(81.14 457.687065)scale(0.11 -0.11)">
       <use xlink:href="#DejaVuSans-31" transform="translate(0 0.765625)"/>
       <use xlink:href="#DejaVuSans-30" transform="translate(63.623047 0.765625)"/>
       <use xlink:href="#DejaVuSans-36" transform="translate(128.203125 39.046875)scale(0.7)"/>
      </g>
     </g>
    </g>
    <g id="ytick_3">
     <g id="line2d_9">
      <g>
       <use xlink:href="#m807003eba8" x="115.2" y="365.865004" style="stroke: #000000; stroke-width: 1.6"/>
      </g>
     </g>
     <g id="text_10">
      <!-- $\mathdefault{10^{7}}$ -->
      <g transform="translate(81.14 370.044144)scale(0.11 -0.11)">
       <use xlink:href="#DejaVuSans-31" transform="translate(0 0.684375)"/>
       <use xlink:href="#DejaVuSans-30" transform="translate(63.623047 0.684375)"/>
       <use xlink:href="#DejaVuSans-37" transform="translate(128.203125 38.965625)scale(0.7)"/>
      </g>
     </g>
    </g>
    <g id="ytick_4">
     <g id="line2d_10">
      <g>
       <use xlink:href="#m807003eba8" x="115.2" y="278.222083" style="stroke: #000000; stroke-width: 1.6"/>
      </g>
     </g>
     <g id="text_11">
      <!-- $\mathdefault{10^{8}}$ -->
      <g transform="translate(81.14 282.401224)scale(0.11 -0.11)">
       <use xlink:href="#DejaVuSans-31" transform="translate(0 0.765625)"/>
       <use xlink:href="#DejaVuSans-30" transform="translate(63.623047 0.765625)"/>
       <use xlink:href="#DejaVuSans-38" transform="translate(128.203125 39.046875)scale(0.7)"/>
      </g>
     </g>
    </g>
    <g id="ytick_5">
     <g id="line2d_11">
      <g>
       <use xlink:href="#m807003eba8" x="115.2" y="190.579162" style="stroke: #000000; stroke-width: 1.6"/>
      </g>
     </g>
     <g id="text_12">
      <!-- $\mathdefault{10^{9}}$ -->
      <g transform="translate(81.14 194.758303)scale(0.11 -0.11)">
       <use xlink:href="#DejaVuSans-31" transform="translate(0 0.765625)"/>
       <use xlink:href="#DejaVuSans-30" transform="translate(63.623047 0.765625)"/>
       <use xlink:href="#DejaVuSans-39" transform="translate(128.203125 39.046875)scale(0.7)"/>
      </g>
     </g>
    </g>
    <g id="ytick_6">
     <g id="line2d_12">
      <g>
       <use xlink:href="#m807003eba8" x="115.2" y="102.936242" style="stroke: #000000; stroke-width: 1.6"/>
      </g>
     </g>
     <g id="text_13">
      <!-- $\mathdefault{10^{10}}$ -->
      <g transform="translate(76.19 107.115382)scale(0.11 -0.11)">
       <use xlink:href="#DejaVuSans-31" transform="translate(0 0.765625)"/>
       <use xlink:href="#DejaVuSans-30" transform="translate(63.623047 0.765625)"/>
       <use xlink:href="#DejaVuSans-31" transform="translate(128.203125 39.046875)scale(0.7)"/>
       <use xlink:href="#DejaVuSans-30" transform="translate(172.739258 39.046875)scale(0.7)"/>
      </g>
     </g>
    </g>
    <g id="ytick_7">
     <g id="line2d_13">
      <defs>
       <path id="ma1ff5b07cf" d="M 0 0 
L -2 0 
" style="stroke: #000000; stroke-width: 0.8"/>
      </defs>
      <g>
       <use xlink:href="#ma1ff5b07cf" x="115.2" y="560.594317" style="stroke: #000000; stroke-width: 0.8"/>
      </g>
     </g>
    </g>
    <g id="ytick_8">
     <g id="line2d_14">
      <g>
       <use xlink:href="#ma1ff5b07cf" x="115.2" y="554.726905" style="stroke: #000000; stroke-width: 0.8"/>
      </g>
     </g>
    </g>
    <g id="ytick_9">
     <g id="line2d_15">
      <g>
       <use xlink:href="#ma1ff5b07cf" x="115.2" y="549.644321" style="stroke: #000000; stroke-width: 0.8"/>
      </g>
     </g>
    </g>
    <g id="ytick_10">
     <g id="line2d_16">
      <g>
       <use xlink:href="#ma1ff5b07cf" x="115.2" y="545.161165" style="stroke: #000000; stroke-width: 0.8"/>
      </g>
     </g>
    </g>
    <g id="ytick_11">
     <g id="line2d_17">
      <g>
       <use xlink:href="#ma1ff5b07cf" x="115.2" y="514.767697" style="stroke: #000000; stroke-width: 0.8"/>
      </g>
     </g>
    </g>
    <g id="ytick_12">
     <g id="line2d_18">
      <g>
       <use xlink:href="#ma1ff5b07cf" x="115.2" y="499.334544" style="stroke: #000000; stroke-width: 0.8"/>
      </g>
     </g>
    </g>
    <g id="ytick_13">
     <g id="line2d_19">
      <g>
       <use xlink:href="#ma1ff5b07cf" x="115.2" y="488.384549" style="stroke: #000000; stroke-width: 0.8"/>
      </g>
     </g>
    </g>
    <g id="ytick_14">
     <g id="line2d_20">
      <g>
       <use xlink:href="#ma1ff5b07cf" x="115.2" y="479.891072" style="stroke: #000000; stroke-width: 0.8"/>
      </g>
     </g>
    </g>
    <g id="ytick_15">
     <g id="line2d_21">
      <g>
       <use xlink:href="#ma1ff5b07cf" x="115.2" y="472.951396" style="stroke: #000000; stroke-width: 0.8"/>
      </g>
     </g>
    </g>
    <g id="ytick_16">
     <g id="line2d_22">
      <g>
       <use xlink:href="#ma1ff5b07cf" x="115.2" y="467.083984" style="stroke: #000000; stroke-width: 0.8"/>
      </g>
     </g>
    </g>
    <g id="ytick_17">
     <g id="line2d_23">
      <g>
       <use xlink:href="#ma1ff5b07cf" x="115.2" y="462.001401" style="stroke: #000000; stroke-width: 0.8"/>
      </g>
     </g>
    </g>
    <g id="ytick_18">
     <g id="line2d_24">
      <g>
       <use xlink:href="#ma1ff5b07cf" x="115.2" y="457.518244" style="stroke: #000000; stroke-width: 0.8"/>
      </g>
     </g>
    </g>
    <g id="ytick_19">
     <g id="line2d_25">
      <g>
       <use xlink:href="#ma1ff5b07cf" x="115.2" y="427.124776" style="stroke: #000000; stroke-width: 0.8"/>
      </g>
     </g>
    </g>
    <g id="ytick_20">
     <g id="line2d_26">
      <g>
       <use xlink:href="#ma1ff5b07cf" x="115.2" y="411.691624" style="stroke: #000000; stroke-width: 0.8"/>
      </g>
     </g>
    </g>
    <g id="ytick_21">
     <g id="line2d_27">
      <g>
       <use xlink:href="#ma1ff5b07cf" x="115.2" y="400.741628" style="stroke: #000000; stroke-width: 0.8"/>
      </g>
     </g>
    </g>
    <g id="ytick_22">
     <g id="line2d_28">
      <g>
       <use xlink:href="#ma1ff5b07cf" x="115.2" y="392.248152" style="stroke: #000000; stroke-width: 0.8"/>
      </g>
     </g>
    </g>
    <g id="ytick_23">
     <g id="line2d_29">
      <g>
       <use xlink:href="#ma1ff5b07cf" x="115.2" y="385.308476" style="stroke: #000000; stroke-width: 0.8"/>
      </g>
     </g>
    </g>
    <g id="ytick_24">
     <g id="line2d_30">
      <g>
       <use xlink:href="#ma1ff5b07cf" x="115.2" y="379.441064" style="stroke: #000000; stroke-width: 0.8"/>
      </g>
     </g>
    </g>
    <g id="ytick_25">
     <g id="line2d_31">
      <g>
       <use xlink:href="#ma1ff5b07cf" x="115.2" y="374.35848" style="stroke: #000000; stroke-width: 0.8"/>
      </g>
     </g>
    </g>
    <g id="ytick_26">
     <g id="line2d_32">
      <g>
       <use xlink:href="#ma1ff5b07cf" x="115.2" y="369.875324" style="stroke: #000000; stroke-width: 0.8"/>
      </g>
     </g>
    </g>
    <g id="ytick_27">
     <g id="line2d_33">
      <g>
       <use xlink:href="#ma1ff5b07cf" x="115.2" y="339.481856" style="stroke: #000000; stroke-width: 0.8"/>
      </g>
     </g>
    </g>
    <g id="ytick_28">
     <g id="line2d_34">
      <g>
       <use xlink:href="#ma1ff5b07cf" x="115.2" y="324.048703" style="stroke: #000000; stroke-width: 0.8"/>
      </g>
     </g>
    </g>
    <g id="ytick_29">
     <g id="line2d_35">
      <g>
       <use xlink:href="#ma1ff5b07cf" x="115.2" y="313.098708" style="stroke: #000000; stroke-width: 0.8"/>
      </g>
     </g>
    </g>
    <g id="ytick_30">
     <g id="line2d_36">
      <g>
       <use xlink:href="#ma1ff5b07cf" x="115.2" y="304.605231" style="stroke: #000000; stroke-width: 0.8"/>
      </g>
     </g>
    </g>
    <g id="ytick_31">
     <g id="line2d_37">
      <g>
       <use xlink:href="#ma1ff5b07cf" x="115.2" y="297.665555" style="stroke: #000000; stroke-width: 0.8"/>
      </g>
     </g>
    </g>
    <g id="ytick_32">
     <g id="line2d_38">
      <g>
       <use xlink:href="#ma1ff5b07cf" x="115.2" y="291.798143" style="stroke: #000000; stroke-width: 0.8"/>
      </g>
     </g>
    </g>
    <g id="ytick_33">
     <g id="line2d_39">
      <g>
       <use xlink:href="#ma1ff5b07cf" x="115.2" y="286.71556" style="stroke: #000000; stroke-width: 0.8"/>
      </g>
     </g>
    </g>
    <g id="ytick_34">
     <g id="line2d_40">
      <g>
       <use xlink:href="#ma1ff5b07cf" x="115.2" y="282.232403" style="stroke: #000000; stroke-width: 0.8"/>
      </g>
     </g>
    </g>
    <g id="ytick_35">
     <g id="line2d_41">
      <g>
       <use xlink:href="#ma1ff5b07cf" x="115.2" y="251.838935" style="stroke: #000000; stroke-width: 0.8"/>
      </g>
     </g>
    </g>
    <g id="ytick_36">
     <g id="line2d_42">
      <g>
       <use xlink:href="#ma1ff5b07cf" x="115.2" y="236.405783" style="stroke: #000000; stroke-width: 0.8"/>
      </g>
     </g>
    </g>
    <g id="ytick_37">
     <g id="line2d_43">
      <g>
       <use xlink:href="#ma1ff5b07cf" x="115.2" y="225.455787" style="stroke: #000000; stroke-width: 0.8"/>
      </g>
     </g>
    </g>
    <g id="ytick_38">
     <g id="line2d_44">
      <g>
       <use xlink:href="#ma1ff5b07cf" x="115.2" y="216.96231" style="stroke: #000000; stroke-width: 0.8"/>
      </g>
     </g>
    </g>
    <g id="ytick_39">
     <g id="line2d_45">
      <g>
       <use xlink:href="#ma1ff5b07cf" x="115.2" y="210.022635" style="stroke: #000000; stroke-width: 0.8"/>
      </g>
     </g>
    </g>
    <g id="ytick_40">
     <g id="line2d_46">
      <g>
       <use xlink:href="#ma1ff5b07cf" x="115.2" y="204.155223" style="stroke: #000000; stroke-width: 0.8"/>
      </g>
     </g>
    </g>
    <g id="ytick_41">
     <g id="line2d_47">
      <g>
       <use xlink:href="#ma1ff5b07cf" x="115.2" y="199.072639" style="stroke: #000000; stroke-width: 0.8"/>
      </g>
     </g>
    </g>
    <g id="ytick_42">
     <g id="line2d_48">
      <g>
       <use xlink:href="#ma1ff5b07cf" x="115.2" y="194.589483" style="stroke: #000000; stroke-width: 0.8"/>
      </g>
     </g>
    </g>
    <g id="ytick_43">
     <g id="line2d_49">
      <g>
       <use xlink:href="#ma1ff5b07cf" x="115.2" y="164.196014" style="stroke: #000000; stroke-width: 0.8"/>
      </g>
     </g>
    </g>
    <g id="ytick_44">
     <g id="line2d_50">
      <g>
       <use xlink:href="#ma1ff5b07cf" x="115.2" y="148.762862" style="stroke: #000000; stroke-width: 0.8"/>
      </g>
     </g>
    </g>
    <g id="ytick_45">
     <g id="line2d_51">
      <g>
       <use xlink:href="#ma1ff5b07cf" x="115.2" y="137.812866" style="stroke: #000000; stroke-width: 0.8"/>
      </g>
     </g>
    </g>
    <g id="ytick_46">
     <g id="line2d_52">
      <g>
       <use xlink:href="#ma1ff5b07cf" x="115.2" y="129.31939" style="stroke: #000000; stroke-width: 0.8"/>
      </g>
     </g>
    </g>
    <g id="ytick_47">
     <g id="line2d_53">
      <g>
       <use xlink:href="#ma1ff5b07cf" x="115.2" y="122.379714" style="stroke: #000000; stroke-width: 0.8"/>
      </g>
     </g>
    </g>
    <g id="ytick_48">
     <g id="line2d_54">
      <g>
       <use xlink:href="#ma1ff5b07cf" x="115.2" y="116.512302" style="stroke: #000000; stroke-width: 0.8"/>
      </g>
     </g>
    </g>
    <g id="ytick_49">
     <g id="line2d_55">
      <g>
       <use xlink:href="#ma1ff5b07cf" x="115.2" y="111.429718" style="stroke: #000000; stroke-width: 0.8"/>
      </g>
     </g>
    </g>
    <g id="ytick_50">
     <g id="line2d_56">
      <g>
       <use xlink:href="#ma1ff5b07cf" x="115.2" y="106.946562" style="stroke: #000000; stroke-width: 0.8"/>
      </g>
     </g>
    </g>
    <g id="ytick_51">
     <g id="line2d_57">
      <g>
       <use xlink:href="#ma1ff5b07cf" x="115.2" y="76.553094" style="stroke: #000000; stroke-width: 0.8"/>
      </g>
     </g>
    </g>
    <g id="text_14">
     <!-- Node evaluations per second (NEPS) -->
     <g transform="translate(69.278437 447.984875)rotate(-90)scale(0.14 -0.14)">
      <defs>
       <path id="DejaVuSans-4e" d="M 628 4666 
L 1478 4666 
L 3547 763 
L 3547 4666 
L 4159 4666 
L 4159 0 
L 3309 0 
L 1241 3903 
L 1241 0 
L 628 0 
L 628 4666 
z
" transform="scale(0.015625)"/>
       <path id="DejaVuSans-64" d="M 2906 2969 
L 2906 4863 
L 3481 4863 
L 3481 0 
L 2906 0 
L 2906 525 
Q 2725 213 2448 61 
Q 2172 -91 1784 -91 
Q 1150 -91 751 415 
Q 353 922 353 1747 
Q 353 2572 751 3078 
Q 1150 3584 1784 3584 
Q 2172 3584 2448 3432 
Q 2725 3281 2906 2969 
z
M 947 1747 
Q 947 1113 1208 752 
Q 1469 391 1925 391 
Q 2381 391 2643 752 
Q 2906 1113 2906 1747 
Q 2906 2381 2643 2742 
Q 2381 3103 1925 3103 
Q 1469 3103 1208 2742 
Q 947 2381 947 1747 
z
" transform="scale(0.015625)"/>
       <path id="DejaVuSans-76" d="M 191 3500 
L 800 3500 
L 1894 563 
L 2988 3500 
L 3597 3500 
L 2284 0 
L 1503 0 
L 191 3500 
z
" transform="scale(0.015625)"/>
       <path id="DejaVuSans-6c" d="M 603 4863 
L 1178 4863 
L 1178 0 
L 603 0 
L 603 4863 
z
" transform="scale(0.015625)"/>
       <path id="DejaVuSans-74" d="M 1172 4494 
L 1172 3500 
L 2356 3500 
L 2356 3053 
L 1172 3053 
L 1172 1153 
Q 1172 725 1289 603 
Q 1406 481 1766 481 
L 2356 481 
L 2356 0 
L 1766 0 
Q 1100 0 847 248 
Q 594 497 594 1153 
L 594 3053 
L 172 3053 
L 172 3500 
L 594 3500 
L 594 4494 
L 1172 4494 
z
" transform="scale(0.015625)"/>
       <path id="DejaVuSans-63" d="M 3122 3366 
L 3122 2828 
Q 2878 2963 2633 3030 
Q 2388 3097 2138 3097 
Q 1578 3097 1268 2742 
Q 959 2388 959 1747 
Q 959 1106 1268 751 
Q 1578 397 2138 397 
Q 2388 397 2633 464 
Q 2878 531 3122 666 
L 3122 134 
Q 2881 22 2623 -34 
Q 2366 -91 2075 -91 
Q 1284 -91 818 406 
Q 353 903 353 1747 
Q 353 2603 823 3093 
Q 1294 3584 2113 3584 
Q 2378 3584 2631 3529 
Q 2884 3475 3122 3366 
z
" transform="scale(0.015625)"/>
       <path id="DejaVuSans-28" d="M 1984 4856 
Q 1566 4138 1362 3434 
Q 1159 2731 1159 2009 
Q 1159 1288 1364 580 
Q 1569 -128 1984 -844 
L 1484 -844 
Q 1016 -109 783 600 
Q 550 1309 550 2009 
Q 550 2706 781 3412 
Q 1013 4119 1484 4856 
L 1984 4856 
z
" transform="scale(0.015625)"/>
       <path id="DejaVuSans-45" d="M 628 4666 
L 3578 4666 
L 3578 4134 
L 1259 4134 
L 1259 2753 
L 3481 2753 
L 3481 2222 
L 1259 2222 
L 1259 531 
L 3634 531 
L 3634 0 
L 628 0 
L 628 4666 
z
" transform="scale(0.015625)"/>
       <path id="DejaVuSans-50" d="M 1259 4147 
L 1259 2394 
L 2053 2394 
Q 2494 2394 2734 2622 
Q 2975 2850 2975 3272 
Q 2975 3691 2734 3919 
Q 2494 4147 2053 4147 
L 1259 4147 
z
M 628 4666 
L 2053 4666 
Q 2838 4666 3239 4311 
Q 3641 3956 3641 3272 
Q 3641 2581 3239 2228 
Q 2838 1875 2053 1875 
L 1259 1875 
L 1259 0 
L 628 0 
L 628 4666 
z
" transform="scale(0.015625)"/>
       <path id="DejaVuSans-53" d="M 3425 4513 
L 3425 3897 
Q 3066 4069 2747 4153 
Q 2428 4238 2131 4238 
Q 1616 4238 1336 4038 
Q 1056 3838 1056 3469 
Q 1056 3159 1242 3001 
Q 1428 2844 1947 2747 
L 2328 2669 
Q 3034 2534 3370 2195 
Q 3706 1856 3706 1288 
Q 3706 609 3251 259 
Q 2797 -91 1919 -91 
Q 1588 -91 1214 -16 
Q 841 59 441 206 
L 441 856 
Q 825 641 1194 531 
Q 1563 422 1919 422 
Q 2459 422 2753 634 
Q 3047 847 3047 1241 
Q 3047 1584 2836 1778 
Q 2625 1972 2144 2069 
L 1759 2144 
Q 1053 2284 737 2584 
Q 422 2884 422 3419 
Q 422 4038 858 4394 
Q 1294 4750 2059 4750 
Q 2388 4750 2728 4690 
Q 3069 4631 3425 4513 
z
" transform="scale(0.015625)"/>
       <path id="DejaVuSans-29" d="M 513 4856 
L 1013 4856 
Q 1481 4119 1714 3412 
Q 1947 2706 1947 2009 
Q 1947 1309 1714 600 
Q 1481 -109 1013 -844 
L 513 -844 
Q 928 -128 1133 580 
Q 1338 1288 1338 2009 
Q 1338 2731 1133 3434 
Q 928 4138 513 4856 
z
" transform="scale(0.015625)"/>
      </defs>
      <use xlink:href="#DejaVuSans-4e"/>
      <use xlink:href="#DejaVuSans-6f" x="74.804688"/>
      <use xlink:href="#DejaVuSans-64" x="135.986328"/>
      <use xlink:href="#DejaVuSans-65" x="199.462891"/>
      <use xlink:href="#DejaVuSans-20" x="260.986328"/>
      <use xlink:href="#DejaVuSans-65" x="292.773438"/>
      <use xlink:href="#DejaVuSans-76" x="354.296875"/>
      <use xlink:href="#DejaVuSans-61" x="413.476562"/>
      <use xlink:href="#DejaVuSans-6c" x="474.755859"/>
      <use xlink:href="#DejaVuSans-75" x="502.539062"/>
      <use xlink:href="#DejaVuSans-61" x="565.917969"/>
      <use xlink:href="#DejaVuSans-74" x="627.197266"/>
      <use xlink:href="#DejaVuSans-69" x="666.40625"/>
      <use xlink:href="#DejaVuSans-6f" x="694.189453"/>
      <use xlink:href="#DejaVuSans-6e" x="755.371094"/>
      <use xlink:href="#DejaVuSans-73" x="818.75"/>
      <use xlink:href="#DejaVuSans-20" x="870.849609"/>
      <use xlink:href="#DejaVuSans-70" x="902.636719"/>
      <use xlink:href="#DejaVuSans-65" x="966.113281"/>
      <use xlink:href="#DejaVuSans-72" x="1027.636719"/>
      <use xlink:href="#DejaVuSans-20" x="1068.75"/>
      <use xlink:href="#DejaVuSans-73" x="1100.537109"/>
      <use xlink:href="#DejaVuSans-65" x="1152.636719"/>
      <use xlink:href="#DejaVuSans-63" x="1214.160156"/>
      <use xlink:href="#DejaVuSans-6f" x="1269.140625"/>
      <use xlink:href="#DejaVuSans-6e" x="1330.322266"/>
      <use xlink:href="#DejaVuSans-64" x="1393.701172"/>
      <use xlink:href="#DejaVuSans-20" x="1457.177734"/>
      <use xlink:href="#DejaVuSans-28" x="1488.964844"/>
      <use xlink:href="#DejaVuSans-4e" x="1527.978516"/>
      <use xlink:href="#DejaVuSans-45" x="1602.783203"/>
      <use xlink:href="#DejaVuSans-50" x="1665.966797"/>
      <use xlink:href="#DejaVuSans-53" x="1726.269531"/>
      <use xlink:href="#DejaVuSans-29" x="1789.746094"/>
     </g>
    </g>
   </g>
   <g id="line2d_58">
    <path d="M 147.665455 541.728 
L 168.610909 513.239252 
L 189.556364 498.638941 
L 210.501818 489.463081 
L 231.447273 482.291676 
L 252.392727 477.67279 
L 273.338182 473.733803 
L 294.283636 469.897141 
L 315.229091 466.848681 
L 336.174545 464.899344 
L 357.12 462.719465 
L 378.065455 461.176669 
L 399.010909 458.997533 
L 419.956364 456.325278 
L 440.901818 455.37444 
L 461.847273 455.933196 
L 482.792727 453.375919 
L 503.738182 452.769781 
L 524.683636 451.20082 
L 545.629091 451.910949 
L 566.574545 451.093651 
L 587.52 450.690584 
L 608.465455 449.978144 
L 629.410909 449.944524 
L 650.356364 449.181698 
L 671.301818 448.309689 
L 692.247273 447.962727 
L 713.192727 447.366749 
L 734.138182 447.543148 
L 755.083636 446.970189 
L 776.029091 447.02366 
L 796.974545 446.36294 
" clip-path="url(#p4f20ffe267)" style="fill: none; stroke: #000000; stroke-width: 0.1; stroke-linecap: square"/>
    <defs>
     <path id="m5a12e43ff2" d="M -3 6 
L 0 3 
L 3 6 
L 6 3 
L 3 0 
L 6 -3 
L 3 -6 
L 0 -3 
L -3 -6 
L -6 -3 
L -3 0 
L -6 3 
z
"/>
    </defs>
    <g clip-path="url(#p4f20ffe267)">
     <use xlink:href="#m5a12e43ff2" x="147.665455" y="541.728" style="fill: #17becf"/>
     <use xlink:href="#m5a12e43ff2" x="168.610909" y="513.239252" style="fill: #17becf"/>
     <use xlink:href="#m5a12e43ff2" x="189.556364" y="498.638941" style="fill: #17becf"/>
     <use xlink:href="#m5a12e43ff2" x="210.501818" y="489.463081" style="fill: #17becf"/>
     <use xlink:href="#m5a12e43ff2" x="231.447273" y="482.291676" style="fill: #17becf"/>
     <use xlink:href="#m5a12e43ff2" x="252.392727" y="477.67279" style="fill: #17becf"/>
     <use xlink:href="#m5a12e43ff2" x="273.338182" y="473.733803" style="fill: #17becf"/>
     <use xlink:href="#m5a12e43ff2" x="294.283636" y="469.897141" style="fill: #17becf"/>
     <use xlink:href="#m5a12e43ff2" x="315.229091" y="466.848681" style="fill: #17becf"/>
     <use xlink:href="#m5a12e43ff2" x="336.174545" y="464.899344" style="fill: #17becf"/>
     <use xlink:href="#m5a12e43ff2" x="357.12" y="462.719465" style="fill: #17becf"/>
     <use xlink:href="#m5a12e43ff2" x="378.065455" y="461.176669" style="fill: #17becf"/>
     <use xlink:href="#m5a12e43ff2" x="399.010909" y="458.997533" style="fill: #17becf"/>
     <use xlink:href="#m5a12e43ff2" x="419.956364" y="456.325278" style="fill: #17becf"/>
     <use xlink:href="#m5a12e43ff2" x="440.901818" y="455.37444" style="fill: #17becf"/>
     <use xlink:href="#m5a12e43ff2" x="461.847273" y="455.933196" style="fill: #17becf"/>
     <use xlink:href="#m5a12e43ff2" x="482.792727" y="453.375919" style="fill: #17becf"/>
     <use xlink:href="#m5a12e43ff2" x="503.738182" y="452.769781" style="fill: #17becf"/>
     <use xlink:href="#m5a12e43ff2" x="524.683636" y="451.20082" style="fill: #17becf"/>
     <use xlink:href="#m5a12e43ff2" x="545.629091" y="451.910949" style="fill: #17becf"/>
     <use xlink:href="#m5a12e43ff2" x="566.574545" y="451.093651" style="fill: #17becf"/>
     <use xlink:href="#m5a12e43ff2" x="587.52" y="450.690584" style="fill: #17becf"/>
     <use xlink:href="#m5a12e43ff2" x="608.465455" y="449.978144" style="fill: #17becf"/>
     <use xlink:href="#m5a12e43ff2" x="629.410909" y="449.944524" style="fill: #17becf"/>
     <use xlink:href="#m5a12e43ff2" x="650.356364" y="449.181698" style="fill: #17becf"/>
     <use xlink:href="#m5a12e43ff2" x="671.301818" y="448.309689" style="fill: #17becf"/>
     <use xlink:href="#m5a12e43ff2" x="692.247273" y="447.962727" style="fill: #17becf"/>
     <use xlink:href="#m5a12e43ff2" x="713.192727" y="447.366749" style="fill: #17becf"/>
     <use xlink:href="#m5a12e43ff2" x="734.138182" y="447.543148" style="fill: #17becf"/>
     <use xlink:href="#m5a12e43ff2" x="755.083636" y="446.970189" style="fill: #17becf"/>
     <use xlink:href="#m5a12e43ff2" x="776.029091" y="447.02366" style="fill: #17becf"/>
     <use xlink:href="#m5a12e43ff2" x="796.974545" y="446.36294" style="fill: #17becf"/>
    </g>
   </g>
   <g id="line2d_59">
    <path d="M 115.2 190.579162 
L 829.44 190.579162 
" clip-path="url(#p4f20ffe267)" style="fill: none; stroke-dasharray: 10.36,4.48; stroke-dashoffset: 0; stroke: #808080; stroke-width: 2.8"/>
   </g>
   <g id="line2d_60">
    <path d="M 147.665455 479.077536 
L 168.610909 456.374807 
L 189.556364 449.118159 
L 210.501818 439.873435 
L 231.447273 435.285908 
L 252.392727 434.543854 
L 273.338182 432.447337 
L 294.283636 429.724623 
L 315.229091 429.277129 
L 336.174545 427.764909 
L 357.12 426.722749 
L 378.065455 425.772201 
L 399.010909 433.777494 
L 419.956364 434.100015 
L 440.901818 433.510894 
L 461.847273 424.427277 
L 482.792727 422.864495 
L 503.738182 422.999194 
L 524.683636 422.51918 
L 545.629091 420.803163 
L 566.574545 420.50722 
L 587.52 420.204415 
L 608.465455 420.252254 
L 629.410909 420.136067 
L 650.356364 419.610691 
L 671.301818 418.790598 
L 692.247273 418.705884 
L 713.192727 419.156413 
L 734.138182 419.118354 
L 755.083636 418.954492 
L 776.029091 418.591714 
L 796.974545 418.425331 
" clip-path="url(#p4f20ffe267)" style="fill: none; stroke: #000000; stroke-width: 0.1; stroke-linecap: square"/>
    <defs>
     <path id="mf435ea2012" d="M 0 -6 
L -6 6 
L 6 6 
z
"/>
    </defs>
    <g clip-path="url(#p4f20ffe267)">
     <use xlink:href="#mf435ea2012" x="147.665455" y="479.077536" style="fill: #9467bd"/>
     <use xlink:href="#mf435ea2012" x="168.610909" y="456.374807" style="fill: #9467bd"/>
     <use xlink:href="#mf435ea2012" x="189.556364" y="449.118159" style="fill: #9467bd"/>
     <use xlink:href="#mf435ea2012" x="210.501818" y="439.873435" style="fill: #9467bd"/>
     <use xlink:href="#mf435ea2012" x="231.447273" y="435.285908" style="fill: #9467bd"/>
     <use xlink:href="#mf435ea2012" x="252.392727" y="434.543854" style="fill: #9467bd"/>
     <use xlink:href="#mf435ea2012" x="273.338182" y="432.447337" style="fill: #9467bd"/>
     <use xlink:href="#mf435ea2012" x="294.283636" y="429.724623" style="fill: #9467bd"/>
     <use xlink:href="#mf435ea2012" x="315.229091" y="429.277129" style="fill: #9467bd"/>
     <use xlink:href="#mf435ea2012" x="336.174545" y="427.764909" style="fill: #9467bd"/>
     <use xlink:href="#mf435ea2012" x="357.12" y="426.722749" style="fill: #9467bd"/>
     <use xlink:href="#mf435ea2012" x="378.065455" y="425.772201" style="fill: #9467bd"/>
     <use xlink:href="#mf435ea2012" x="399.010909" y="433.777494" style="fill: #9467bd"/>
     <use xlink:href="#mf435ea2012" x="419.956364" y="434.100015" style="fill: #9467bd"/>
     <use xlink:href="#mf435ea2012" x="440.901818" y="433.510894" style="fill: #9467bd"/>
     <use xlink:href="#mf435ea2012" x="461.847273" y="424.427277" style="fill: #9467bd"/>
     <use xlink:href="#mf435ea2012" x="482.792727" y="422.864495" style="fill: #9467bd"/>
     <use xlink:href="#mf435ea2012" x="503.738182" y="422.999194" style="fill: #9467bd"/>
     <use xlink:href="#mf435ea2012" x="524.683636" y="422.51918" style="fill: #9467bd"/>
     <use xlink:href="#mf435ea2012" x="545.629091" y="420.803163" style="fill: #9467bd"/>
     <use xlink:href="#mf435ea2012" x="566.574545" y="420.50722" style="fill: #9467bd"/>
     <use xlink:href="#mf435ea2012" x="587.52" y="420.204415" style="fill: #9467bd"/>
     <use xlink:href="#mf435ea2012" x="608.465455" y="420.252254" style="fill: #9467bd"/>
     <use xlink:href="#mf435ea2012" x="629.410909" y="420.136067" style="fill: #9467bd"/>
     <use xlink:href="#mf435ea2012" x="650.356364" y="419.610691" style="fill: #9467bd"/>
     <use xlink:href="#mf435ea2012" x="671.301818" y="418.790598" style="fill: #9467bd"/>
     <use xlink:href="#mf435ea2012" x="692.247273" y="418.705884" style="fill: #9467bd"/>
     <use xlink:href="#mf435ea2012" x="713.192727" y="419.156413" style="fill: #9467bd"/>
     <use xlink:href="#mf435ea2012" x="734.138182" y="419.118354" style="fill: #9467bd"/>
     <use xlink:href="#mf435ea2012" x="755.083636" y="418.954492" style="fill: #9467bd"/>
     <use xlink:href="#mf435ea2012" x="776.029091" y="418.591714" style="fill: #9467bd"/>
     <use xlink:href="#mf435ea2012" x="796.974545" y="418.425331" style="fill: #9467bd"/>
    </g>
   </g>
   <g id="line2d_61">
    <path d="M 115.2 190.579162 
L 829.44 190.579162 
" clip-path="url(#p4f20ffe267)" style="fill: none; stroke-dasharray: 10.36,4.48; stroke-dashoffset: 0; stroke: #808080; stroke-width: 2.8"/>
   </g>
   <g id="line2d_62">
    <path d="M 147.665455 490.110144 
L 168.610909 468.580006 
L 189.556364 458.448575 
L 210.501818 454.395927 
L 231.447273 449.761417 
L 252.392727 448.394782 
L 273.338182 447.094571 
L 294.283636 444.542203 
L 315.229091 443.304918 
L 336.174545 441.82415 
L 357.12 441.229908 
L 378.065455 440.461882 
L 399.010909 439.846112 
L 419.956364 439.568 
L 440.901818 439.158799 
L 461.847273 438.819314 
L 482.792727 438.547483 
L 503.738182 437.999996 
L 524.683636 438.258974 
L 545.629091 437.359819 
L 566.574545 436.862949 
L 587.52 436.942496 
L 608.465455 436.711295 
L 629.410909 436.368434 
L 650.356364 436.127376 
L 671.301818 435.491254 
L 692.247273 435.572645 
L 713.192727 435.744509 
L 734.138182 435.328427 
L 755.083636 435.470827 
L 776.029091 434.581478 
L 796.974545 434.593315 
" clip-path="url(#p4f20ffe267)" style="fill: none; stroke: #000000; stroke-width: 0.1; stroke-linecap: square"/>
    <defs>
     <path id="m12aa36d223" d="M 0 3 
C 0.795609 3 1.55874 2.683901 2.12132 2.12132 
C 2.683901 1.55874 3 0.795609 3 0 
C 3 -0.795609 2.683901 -1.55874 2.12132 -2.12132 
C 1.55874 -2.683901 0.795609 -3 0 -3 
C -0.795609 -3 -1.55874 -2.683901 -2.12132 -2.12132 
C -2.683901 -1.55874 -3 -0.795609 -3 0 
C -3 0.795609 -2.683901 1.55874 -2.12132 2.12132 
C -1.55874 2.683901 -0.795609 3 0 3 
z
"/>
    </defs>
    <g clip-path="url(#p4f20ffe267)">
     <use xlink:href="#m12aa36d223" x="147.665455" y="490.110144" style="fill: #1f77b4"/>
     <use xlink:href="#m12aa36d223" x="168.610909" y="468.580006" style="fill: #1f77b4"/>
     <use xlink:href="#m12aa36d223" x="189.556364" y="458.448575" style="fill: #1f77b4"/>
     <use xlink:href="#m12aa36d223" x="210.501818" y="454.395927" style="fill: #1f77b4"/>
     <use xlink:href="#m12aa36d223" x="231.447273" y="449.761417" style="fill: #1f77b4"/>
     <use xlink:href="#m12aa36d223" x="252.392727" y="448.394782" style="fill: #1f77b4"/>
     <use xlink:href="#m12aa36d223" x="273.338182" y="447.094571" style="fill: #1f77b4"/>
     <use xlink:href="#m12aa36d223" x="294.283636" y="444.542203" style="fill: #1f77b4"/>
     <use xlink:href="#m12aa36d223" x="315.229091" y="443.304918" style="fill: #1f77b4"/>
     <use xlink:href="#m12aa36d223" x="336.174545" y="441.82415" style="fill: #1f77b4"/>
     <use xlink:href="#m12aa36d223" x="357.12" y="441.229908" style="fill: #1f77b4"/>
     <use xlink:href="#m12aa36d223" x="378.065455" y="440.461882" style="fill: #1f77b4"/>
     <use xlink:href="#m12aa36d223" x="399.010909" y="439.846112" style="fill: #1f77b4"/>
     <use xlink:href="#m12aa36d223" x="419.956364" y="439.568" style="fill: #1f77b4"/>
     <use xlink:href="#m12aa36d223" x="440.901818" y="439.158799" style="fill: #1f77b4"/>
     <use xlink:href="#m12aa36d223" x="461.847273" y="438.819314" style="fill: #1f77b4"/>
     <use xlink:href="#m12aa36d223" x="482.792727" y="438.547483" style="fill: #1f77b4"/>
     <use xlink:href="#m12aa36d223" x="503.738182" y="437.999996" style="fill: #1f77b4"/>
     <use xlink:href="#m12aa36d223" x="524.683636" y="438.258974" style="fill: #1f77b4"/>
     <use xlink:href="#m12aa36d223" x="545.629091" y="437.359819" style="fill: #1f77b4"/>
     <use xlink:href="#m12aa36d223" x="566.574545" y="436.862949" style="fill: #1f77b4"/>
     <use xlink:href="#m12aa36d223" x="587.52" y="436.942496" style="fill: #1f77b4"/>
     <use xlink:href="#m12aa36d223" x="608.465455" y="436.711295" style="fill: #1f77b4"/>
     <use xlink:href="#m12aa36d223" x="629.410909" y="436.368434" style="fill: #1f77b4"/>
     <use xlink:href="#m12aa36d223" x="650.356364" y="436.127376" style="fill: #1f77b4"/>
     <use xlink:href="#m12aa36d223" x="671.301818" y="435.491254" style="fill: #1f77b4"/>
     <use xlink:href="#m12aa36d223" x="692.247273" y="435.572645" style="fill: #1f77b4"/>
     <use xlink:href="#m12aa36d223" x="713.192727" y="435.744509" style="fill: #1f77b4"/>
     <use xlink:href="#m12aa36d223" x="734.138182" y="435.328427" style="fill: #1f77b4"/>
     <use xlink:href="#m12aa36d223" x="755.083636" y="435.470827" style="fill: #1f77b4"/>
     <use xlink:href="#m12aa36d223" x="776.029091" y="434.581478" style="fill: #1f77b4"/>
     <use xlink:href="#m12aa36d223" x="796.974545" y="434.593315" style="fill: #1f77b4"/>
    </g>
   </g>
   <g id="line2d_63">
    <path d="M 115.2 190.579162 
L 829.44 190.579162 
" clip-path="url(#p4f20ffe267)" style="fill: none; stroke-dasharray: 10.36,4.48; stroke-dashoffset: 0; stroke: #808080; stroke-width: 2.8"/>
   </g>
   <g id="line2d_64">
    <path d="M 147.665455 268.897241 
L 168.610909 236.170551 
L 189.556364 225.04589 
L 210.501818 212.486997 
L 231.447273 206.527608 
L 252.392727 203.628893 
L 273.338182 198.412513 
L 294.283636 195.652961 
L 315.229091 191.53298 
L 336.174545 191.098575 
L 357.12 190.514193 
L 378.065455 188.767342 
L 399.010909 189.757798 
L 419.956364 184.001554 
L 440.901818 182.146283 
L 461.847273 179.183359 
L 482.792727 181.5936 
L 503.738182 178.118957 
L 524.683636 175.348242 
L 545.629091 175.621713 
L 566.574545 173.052421 
L 587.52 168.712281 
L 608.465455 167.676257 
L 629.410909 167.30422 
L 650.356364 168.357244 
L 671.301818 163.838364 
L 692.247273 165.001669 
L 713.192727 160.983252 
L 734.138182 165.271463 
L 755.083636 162.642476 
L 776.029091 156.339638 
L 796.974545 155.747163 
" clip-path="url(#p4f20ffe267)" style="fill: none; stroke: #000000; stroke-width: 0.1; stroke-linecap: square"/>
    <defs>
     <path id="m77fc6df695" d="M -0 8.485281 
L 5.091169 0 
L 0 -8.485281 
L -5.091169 -0 
z
"/>
    </defs>
    <g clip-path="url(#p4f20ffe267)">
     <use xlink:href="#m77fc6df695" x="147.665455" y="268.897241" style="fill: #2ca02c"/>
     <use xlink:href="#m77fc6df695" x="168.610909" y="236.170551" style="fill: #2ca02c"/>
     <use xlink:href="#m77fc6df695" x="189.556364" y="225.04589" style="fill: #2ca02c"/>
     <use xlink:href="#m77fc6df695" x="210.501818" y="212.486997" style="fill: #2ca02c"/>
     <use xlink:href="#m77fc6df695" x="231.447273" y="206.527608" style="fill: #2ca02c"/>
     <use xlink:href="#m77fc6df695" x="252.392727" y="203.628893" style="fill: #2ca02c"/>
     <use xlink:href="#m77fc6df695" x="273.338182" y="198.412513" style="fill: #2ca02c"/>
     <use xlink:href="#m77fc6df695" x="294.283636" y="195.652961" style="fill: #2ca02c"/>
     <use xlink:href="#m77fc6df695" x="315.229091" y="191.53298" style="fill: #2ca02c"/>
     <use xlink:href="#m77fc6df695" x="336.174545" y="191.098575" style="fill: #2ca02c"/>
     <use xlink:href="#m77fc6df695" x="357.12" y="190.514193" style="fill: #2ca02c"/>
     <use xlink:href="#m77fc6df695" x="378.065455" y="188.767342" style="fill: #2ca02c"/>
     <use xlink:href="#m77fc6df695" x="399.010909" y="189.757798" style="fill: #2ca02c"/>
     <use xlink:href="#m77fc6df695" x="419.956364" y="184.001554" style="fill: #2ca02c"/>
     <use xlink:href="#m77fc6df695" x="440.901818" y="182.146283" style="fill: #2ca02c"/>
     <use xlink:href="#m77fc6df695" x="461.847273" y="179.183359" style="fill: #2ca02c"/>
     <use xlink:href="#m77fc6df695" x="482.792727" y="181.5936" style="fill: #2ca02c"/>
     <use xlink:href="#m77fc6df695" x="503.738182" y="178.118957" style="fill: #2ca02c"/>
     <use xlink:href="#m77fc6df695" x="524.683636" y="175.348242" style="fill: #2ca02c"/>
     <use xlink:href="#m77fc6df695" x="545.629091" y="175.621713" style="fill: #2ca02c"/>
     <use xlink:href="#m77fc6df695" x="566.574545" y="173.052421" style="fill: #2ca02c"/>
     <use xlink:href="#m77fc6df695" x="587.52" y="168.712281" style="fill: #2ca02c"/>
     <use xlink:href="#m77fc6df695" x="608.465455" y="167.676257" style="fill: #2ca02c"/>
     <use xlink:href="#m77fc6df695" x="629.410909" y="167.30422" style="fill: #2ca02c"/>
     <use xlink:href="#m77fc6df695" x="650.356364" y="168.357244" style="fill: #2ca02c"/>
     <use xlink:href="#m77fc6df695" x="671.301818" y="163.838364" style="fill: #2ca02c"/>
     <use xlink:href="#m77fc6df695" x="692.247273" y="165.001669" style="fill: #2ca02c"/>
     <use xlink:href="#m77fc6df695" x="713.192727" y="160.983252" style="fill: #2ca02c"/>
     <use xlink:href="#m77fc6df695" x="734.138182" y="165.271463" style="fill: #2ca02c"/>
     <use xlink:href="#m77fc6df695" x="755.083636" y="162.642476" style="fill: #2ca02c"/>
     <use xlink:href="#m77fc6df695" x="776.029091" y="156.339638" style="fill: #2ca02c"/>
     <use xlink:href="#m77fc6df695" x="796.974545" y="155.747163" style="fill: #2ca02c"/>
    </g>
   </g>
   <g id="line2d_65">
    <path d="M 115.2 190.579162 
L 829.44 190.579162 
" clip-path="url(#p4f20ffe267)" style="fill: none; stroke-dasharray: 10.36,4.48; stroke-dashoffset: 0; stroke: #808080; stroke-width: 2.8"/>
   </g>
   <g id="line2d_66">
    <path d="M 147.665455 127.358815 
L 168.610909 119.61362 
L 189.556364 113.161481 
L 210.501818 109.582792 
L 231.447273 107.562124 
L 252.392727 105.691862 
L 273.338182 104.338461 
L 294.283636 103.556333 
L 315.229091 102.832708 
L 336.174545 102.280773 
L 357.12 102.073505 
L 378.065455 101.704975 
L 399.010909 101.100337 
L 419.956364 100.999156 
L 440.901818 100.782396 
L 461.847273 100.341547 
L 482.792727 100.66439 
L 503.738182 100.336201 
L 524.683636 100.164703 
L 545.629091 99.955964 
L 566.574545 99.787359 
L 587.52 99.697131 
L 608.465455 99.622311 
L 629.410909 99.322337 
L 650.356364 99.429917 
L 671.301818 99.267806 
L 692.247273 99.101086 
L 713.192727 98.945814 
L 734.138182 99.021677 
L 755.083636 98.737066 
L 776.029091 98.687262 
L 796.974545 98.208 
" clip-path="url(#p4f20ffe267)" style="fill: none; stroke: #000000; stroke-width: 0.1; stroke-linecap: square"/>
    <defs>
     <path id="m33fa29b62e" d="M 0 -6 
L -1.347084 -1.854102 
L -5.706339 -1.854102 
L -2.179628 0.708204 
L -3.526712 4.854102 
L -0 2.291796 
L 3.526712 4.854102 
L 2.179628 0.708204 
L 5.706339 -1.854102 
L 1.347084 -1.854102 
z
"/>
    </defs>
    <g clip-path="url(#p4f20ffe267)">
     <use xlink:href="#m33fa29b62e" x="147.665455" y="127.358815" style="fill: #d62728"/>
     <use xlink:href="#m33fa29b62e" x="168.610909" y="119.61362" style="fill: #d62728"/>
     <use xlink:href="#m33fa29b62e" x="189.556364" y="113.161481" style="fill: #d62728"/>
     <use xlink:href="#m33fa29b62e" x="210.501818" y="109.582792" style="fill: #d62728"/>
     <use xlink:href="#m33fa29b62e" x="231.447273" y="107.562124" style="fill: #d62728"/>
     <use xlink:href="#m33fa29b62e" x="252.392727" y="105.691862" style="fill: #d62728"/>
     <use xlink:href="#m33fa29b62e" x="273.338182" y="104.338461" style="fill: #d62728"/>
     <use xlink:href="#m33fa29b62e" x="294.283636" y="103.556333" style="fill: #d62728"/>
     <use xlink:href="#m33fa29b62e" x="315.229091" y="102.832708" style="fill: #d62728"/>
     <use xlink:href="#m33fa29b62e" x="336.174545" y="102.280773" style="fill: #d62728"/>
     <use xlink:href="#m33fa29b62e" x="357.12" y="102.073505" style="fill: #d62728"/>
     <use xlink:href="#m33fa29b62e" x="378.065455" y="101.704975" style="fill: #d62728"/>
     <use xlink:href="#m33fa29b62e" x="399.010909" y="101.100337" style="fill: #d62728"/>
     <use xlink:href="#m33fa29b62e" x="419.956364" y="100.999156" style="fill: #d62728"/>
     <use xlink:href="#m33fa29b62e" x="440.901818" y="100.782396" style="fill: #d62728"/>
     <use xlink:href="#m33fa29b62e" x="461.847273" y="100.341547" style="fill: #d62728"/>
     <use xlink:href="#m33fa29b62e" x="482.792727" y="100.66439" style="fill: #d62728"/>
     <use xlink:href="#m33fa29b62e" x="503.738182" y="100.336201" style="fill: #d62728"/>
     <use xlink:href="#m33fa29b62e" x="524.683636" y="100.164703" style="fill: #d62728"/>
     <use xlink:href="#m33fa29b62e" x="545.629091" y="99.955964" style="fill: #d62728"/>
     <use xlink:href="#m33fa29b62e" x="566.574545" y="99.787359" style="fill: #d62728"/>
     <use xlink:href="#m33fa29b62e" x="587.52" y="99.697131" style="fill: #d62728"/>
     <use xlink:href="#m33fa29b62e" x="608.465455" y="99.622311" style="fill: #d62728"/>
     <use xlink:href="#m33fa29b62e" x="629.410909" y="99.322337" style="fill: #d62728"/>
     <use xlink:href="#m33fa29b62e" x="650.356364" y="99.429917" style="fill: #d62728"/>
     <use xlink:href="#m33fa29b62e" x="671.301818" y="99.267806" style="fill: #d62728"/>
     <use xlink:href="#m33fa29b62e" x="692.247273" y="99.101086" style="fill: #d62728"/>
     <use xlink:href="#m33fa29b62e" x="713.192727" y="98.945814" style="fill: #d62728"/>
     <use xlink:href="#m33fa29b62e" x="734.138182" y="99.021677" style="fill: #d62728"/>
     <use xlink:href="#m33fa29b62e" x="755.083636" y="98.737066" style="fill: #d62728"/>
     <use xlink:href="#m33fa29b62e" x="776.029091" y="98.687262" style="fill: #d62728"/>
     <use xlink:href="#m33fa29b62e" x="796.974545" y="98.208" style="fill: #d62728"/>
    </g>
   </g>
   <g id="line2d_67">
    <path d="M 115.2 190.579162 
L 829.44 190.579162 
" clip-path="url(#p4f20ffe267)" style="fill: none; stroke-dasharray: 10.36,4.48; stroke-dashoffset: 0; stroke: #808080; stroke-width: 2.8"/>
   </g>
   <g id="patch_3">
    <path d="M 115.2 563.904 
L 115.2 76.032 
" style="fill: none; stroke: #000000; stroke-width: 0.8; stroke-linejoin: miter; stroke-linecap: square"/>
   </g>
   <g id="patch_4">
    <path d="M 829.44 563.904 
L 829.44 76.032 
" style="fill: none; stroke: #000000; stroke-width: 0.8; stroke-linejoin: miter; stroke-linecap: square"/>
   </g>
   <g id="patch_5">
    <path d="M 115.2 563.904 
L 829.44 563.904 
" style="fill: none; stroke: #000000; stroke-width: 0.8; stroke-linejoin: miter; stroke-linecap: square"/>
   </g>
   <g id="patch_6">
    <path d="M 115.2 76.032 
L 829.44 76.032 
" style="fill: none; stroke: #000000; stroke-width: 0.8; stroke-linejoin: miter; stroke-linecap: square"/>
   </g>
   <g id="text_15">
    <!-- $10^9$ for scale -->
    <g transform="translate(262.865455 216.96231)scale(0.11 -0.11)">
     <defs>
      <path id="DejaVuSans-66" d="M 2375 4863 
L 2375 4384 
L 1825 4384 
Q 1516 4384 1395 4259 
Q 1275 4134 1275 3809 
L 1275 3500 
L 2222 3500 
L 2222 3053 
L 1275 3053 
L 1275 0 
L 697 0 
L 697 3053 
L 147 3053 
L 147 3500 
L 697 3500 
L 697 3744 
Q 697 4328 969 4595 
Q 1241 4863 1831 4863 
L 2375 4863 
z
" transform="scale(0.015625)"/>
     </defs>
     <use xlink:href="#DejaVuSans-31" transform="translate(0 0.765625)"/>
     <use xlink:href="#DejaVuSans-30" transform="translate(63.623047 0.765625)"/>
     <use xlink:href="#DejaVuSans-39" transform="translate(128.203125 39.046875)scale(0.7)"/>
     <use xlink:href="#DejaVuSans-20" transform="translate(175.473633 0.765625)"/>
     <use xlink:href="#DejaVuSans-66" transform="translate(207.260742 0.765625)"/>
     <use xlink:href="#DejaVuSans-6f" transform="translate(242.46582 0.765625)"/>
     <use xlink:href="#DejaVuSans-72" transform="translate(303.647461 0.765625)"/>
     <use xlink:href="#DejaVuSans-20" transform="translate(344.760742 0.765625)"/>
     <use xlink:href="#DejaVuSans-73" transform="translate(376.547852 0.765625)"/>
     <use xlink:href="#DejaVuSans-63" transform="translate(428.647461 0.765625)"/>
     <use xlink:href="#DejaVuSans-61" transform="translate(483.62793 0.765625)"/>
     <use xlink:href="#DejaVuSans-6c" transform="translate(544.907227 0.765625)"/>
     <use xlink:href="#DejaVuSans-65" transform="translate(572.69043 0.765625)"/>
    </g>
   </g>
  </g>
 </g>
 <defs>
  <clipPath id="p4f20ffe267">
   <rect x="115.2" y="76.032" width="714.24" height="487.872"/>
  </clipPath>
 </defs>
</svg>
