<?xml version="1.0" encoding="utf-8" standalone="no"?>
<!DOCTYPE svg PUBLIC "-//W3C//DTD SVG 1.1//EN"
  "http://www.w3.org/Graphics/SVG/1.1/DTD/svg11.dtd">
<svg xmlns:xlink="http://www.w3.org/1999/xlink" width="432pt" height="288pt" viewBox="0 0 432 288" xmlns="http://www.w3.org/2000/svg" version="1.1">
 <metadata>
  <rdf:RDF xmlns:dc="http://purl.org/dc/elements/1.1/" xmlns:cc="http://creativecommons.org/ns#" xmlns:rdf="http://www.w3.org/1999/02/22-rdf-syntax-ns#">
   <cc:Work>
    <dc:type rdf:resource="http://purl.org/dc/dcmitype/StillImage"/>
    <dc:date>2022-04-08T16:26:47.250598</dc:date>
    <dc:format>image/svg+xml</dc:format>
    <dc:creator>
     <cc:Agent>
      <dc:title>Matplotlib v3.5.1, https://matplotlib.org/</dc:title>
     </cc:Agent>
    </dc:creator>
   </cc:Work>
  </rdf:RDF>
 </metadata>
 <defs>
  <style type="text/css">*{stroke-linejoin: round; stroke-linecap: butt}</style>
 </defs>
 <g id="figure_1">
  <g id="patch_1">
   <path d="M 0 288 
L 432 288 
L 432 0 
L 0 0 
L 0 288 
z
" style="fill: none"/>
  </g>
  <g id="axes_1">
   <g id="patch_2">
    <path d="M 54 252 
L 388.8 252 
L 388.8 34.56 
L 54 34.56 
z
" style="fill: #ffffff"/>
   </g>
   <g id="PolyCollection_1">
    <defs>
     <path id="ma817632c98" d="M 69.218182 -223.826382 
L 69.218182 -222.674216 
L 79.036364 -223.48182 
L 88.854545 -223.747574 
L 98.672727 -223.996964 
L 108.490909 -225.875729 
L 118.309091 -224.093727 
L 128.127273 -225.395232 
L 137.945455 -225.96301 
L 147.763636 -226.880097 
L 157.581818 -226.623861 
L 167.4 -224.26922 
L 177.218182 -226.280399 
L 187.036364 -228.579914 
L 196.854545 -227.526232 
L 206.672727 -228.129174 
L 216.490909 -228.208597 
L 226.309091 -230.061434 
L 236.127273 -229.205533 
L 245.945455 -229.052927 
L 255.763636 -229.60722 
L 265.581818 -230.147165 
L 275.4 -231.964699 
L 285.218182 -232.545691 
L 295.036364 -230.595025 
L 304.854545 -229.493024 
L 314.672727 -231.705404 
L 324.490909 -233.07542 
L 334.309091 -233.090429 
L 344.127273 -233.902237 
L 353.945455 -232.638113 
L 363.763636 -231.858906 
L 373.581818 -233.835457 
L 373.581818 -235.095153 
L 373.581818 -235.095153 
L 363.763636 -233.892049 
L 353.945455 -233.989581 
L 344.127273 -235.681843 
L 334.309091 -234.387331 
L 324.490909 -233.3059 
L 314.672727 -232.019049 
L 304.854545 -232.539711 
L 295.036364 -233.70203 
L 285.218182 -233.054705 
L 275.4 -232.404855 
L 265.581818 -231.928264 
L 255.763636 -230.44244 
L 245.945455 -232.229531 
L 236.127273 -229.605499 
L 226.309091 -231.259103 
L 216.490909 -229.157149 
L 206.672727 -231.009298 
L 196.854545 -229.794354 
L 187.036364 -229.175002 
L 177.218182 -229.408922 
L 167.4 -227.595267 
L 157.581818 -227.719955 
L 147.763636 -229.119821 
L 137.945455 -227.558672 
L 128.127273 -228.384071 
L 118.309091 -225.232947 
L 108.490909 -227.861074 
L 98.672727 -224.878189 
L 88.854545 -225.618769 
L 79.036364 -225.790202 
L 69.218182 -223.826382 
z
" style="stroke: #ffe4c4"/>
    </defs>
    <g clip-path="url(#p3d1b6f5b1b)">
     <use xlink:href="#ma817632c98" x="0" y="288" style="fill: #ffe4c4; stroke: #ffe4c4"/>
    </g>
   </g>
   <g id="PolyCollection_2">
    <defs>
     <path id="mdc5441cf6f" d="M 69.218182 -206.342957 
L 69.218182 -206.282429 
L 79.036364 -207.612304 
L 88.854545 -209.834097 
L 98.672727 -212.063648 
L 108.490909 -213.085867 
L 118.309091 -214.532587 
L 128.127273 -216.24814 
L 137.945455 -217.443285 
L 147.763636 -217.323512 
L 157.581818 -221.443336 
L 167.4 -220.332883 
L 177.218182 -221.384339 
L 187.036364 -223.373779 
L 196.854545 -224.307467 
L 206.672727 -224.273527 
L 216.490909 -225.255868 
L 226.309091 -226.408324 
L 236.127273 -227.261568 
L 245.945455 -227.244682 
L 255.763636 -228.753965 
L 265.581818 -229.51372 
L 275.4 -229.639572 
L 285.218182 -230.684239 
L 295.036364 -229.945793 
L 304.854545 -231.879928 
L 314.672727 -232.148945 
L 324.490909 -232.885698 
L 334.309091 -233.12437 
L 344.127273 -234.182999 
L 353.945455 -234.179024 
L 363.763636 -234.844337 
L 373.581818 -235.114654 
L 373.581818 -235.311612 
L 373.581818 -235.311612 
L 363.763636 -235.071725 
L 353.945455 -234.363057 
L 344.127273 -235.083675 
L 334.309091 -233.443722 
L 324.490909 -233.189239 
L 314.672727 -232.349003 
L 304.854545 -231.890488 
L 295.036364 -232.868464 
L 285.218182 -231.033641 
L 275.4 -230.341178 
L 265.581818 -229.575582 
L 255.763636 -228.927379 
L 245.945455 -227.809314 
L 236.127273 -227.383154 
L 226.309091 -227.20505 
L 216.490909 -225.999915 
L 206.672727 -225.745185 
L 196.854545 -224.541059 
L 187.036364 -223.85556 
L 177.218182 -221.471666 
L 167.4 -221.880827 
L 157.581818 -221.682315 
L 147.763636 -218.725679 
L 137.945455 -217.942255 
L 128.127273 -217.671545 
L 118.309091 -215.162681 
L 108.490909 -213.269145 
L 98.672727 -212.186194 
L 88.854545 -209.910541 
L 79.036364 -207.663092 
L 69.218182 -206.342957 
z
" style="stroke: #ffe4c4"/>
    </defs>
    <g clip-path="url(#p3d1b6f5b1b)">
     <use xlink:href="#mdc5441cf6f" x="0" y="288" style="fill: #ffe4c4; stroke: #ffe4c4"/>
    </g>
   </g>
   <g id="PolyCollection_3">
    <defs>
     <path id="mbe9416e8cd" d="M 69.218182 -205.850726 
L 69.218182 -205.688648 
L 79.036364 -206.693134 
L 88.854545 -210.16865 
L 98.672727 -212.652381 
L 108.490909 -215.181169 
L 118.309091 -217.031606 
L 128.127273 -219.223063 
L 137.945455 -220.793562 
L 147.763636 -222.958847 
L 157.581818 -224.713249 
L 167.4 -225.891788 
L 177.218182 -226.427818 
L 187.036364 -228.32884 
L 196.854545 -229.885546 
L 206.672727 -230.335211 
L 216.490909 -231.105029 
L 226.309091 -232.518787 
L 236.127273 -233.540667 
L 245.945455 -233.80775 
L 255.763636 -235.608904 
L 265.581818 -236.235817 
L 275.4 -236.736448 
L 285.218182 -237.782051 
L 295.036364 -238.534913 
L 304.854545 -238.886241 
L 314.672727 -239.804678 
L 324.490909 -240.732448 
L 334.309091 -240.690943 
L 344.127273 -241.417879 
L 353.945455 -241.964632 
L 363.763636 -242.324045 
L 373.581818 -242.92053 
L 373.581818 -243.556364 
L 373.581818 -243.556364 
L 363.763636 -242.521387 
L 353.945455 -242.003846 
L 344.127273 -242.04805 
L 334.309091 -240.750117 
L 324.490909 -240.809438 
L 314.672727 -239.910412 
L 304.854545 -239.105428 
L 295.036364 -238.857966 
L 285.218182 -237.894262 
L 275.4 -236.937971 
L 265.581818 -236.488492 
L 255.763636 -235.66016 
L 245.945455 -234.120086 
L 236.127273 -233.702708 
L 226.309091 -232.654724 
L 216.490909 -231.199891 
L 206.672727 -230.515951 
L 196.854545 -230.035074 
L 187.036364 -228.352702 
L 177.218182 -226.950863 
L 167.4 -225.922239 
L 157.581818 -224.834872 
L 147.763636 -223.058157 
L 137.945455 -220.912013 
L 128.127273 -219.56616 
L 118.309091 -217.102135 
L 108.490909 -215.468933 
L 98.672727 -212.758179 
L 88.854545 -210.282041 
L 79.036364 -206.732422 
L 69.218182 -205.850726 
z
" style="stroke: #ffe4c4"/>
    </defs>
    <g clip-path="url(#p3d1b6f5b1b)">
     <use xlink:href="#mbe9416e8cd" x="0" y="288" style="fill: #ffe4c4; stroke: #ffe4c4"/>
    </g>
   </g>
   <g id="PolyCollection_4">
    <defs>
     <path id="m7f6ad77819" d="M 69.218182 -45.942035 
L 69.218182 -45.883636 
L 79.036364 -47.038526 
L 88.854545 -48.335411 
L 98.672727 -49.63691 
L 108.490909 -51.349831 
L 118.309091 -51.60412 
L 128.127273 -52.628225 
L 137.945455 -53.438216 
L 147.763636 -53.920969 
L 157.581818 -55.512922 
L 167.4 -55.539941 
L 177.218182 -55.802607 
L 187.036364 -57.001556 
L 196.854545 -57.262736 
L 206.672727 -57.018559 
L 216.490909 -57.480131 
L 226.309091 -60.106085 
L 236.127273 -60.46825 
L 245.945455 -59.960275 
L 255.763636 -61.22206 
L 265.581818 -61.36642 
L 275.4 -60.716346 
L 285.218182 -60.757824 
L 295.036364 -61.085776 
L 304.854545 -62.122799 
L 314.672727 -61.527581 
L 324.490909 -60.599414 
L 334.309091 -60.619585 
L 344.127273 -60.659747 
L 353.945455 -59.350882 
L 363.763636 -58.49075 
L 373.581818 -57.024151 
L 373.581818 -57.081087 
L 373.581818 -57.081087 
L 363.763636 -58.602829 
L 353.945455 -59.411468 
L 344.127273 -60.750762 
L 334.309091 -60.642826 
L 324.490909 -60.608307 
L 314.672727 -61.537249 
L 304.854545 -62.194992 
L 295.036364 -61.113745 
L 285.218182 -60.845753 
L 275.4 -60.818167 
L 265.581818 -61.387103 
L 255.763636 -61.263807 
L 245.945455 -60.03478 
L 236.127273 -60.530493 
L 226.309091 -60.137116 
L 216.490909 -57.530309 
L 206.672727 -57.035502 
L 196.854545 -57.277244 
L 187.036364 -57.052017 
L 177.218182 -55.846322 
L 167.4 -55.55969 
L 157.581818 -55.560322 
L 147.763636 -53.958855 
L 137.945455 -53.442561 
L 128.127273 -52.645711 
L 118.309091 -51.644315 
L 108.490909 -51.415641 
L 98.672727 -49.673386 
L 88.854545 -48.358279 
L 79.036364 -47.056606 
L 69.218182 -45.942035 
z
" style="stroke: #ffe4c4"/>
    </defs>
    <g clip-path="url(#p3d1b6f5b1b)">
     <use xlink:href="#m7f6ad77819" x="0" y="288" style="fill: #ffe4c4; stroke: #ffe4c4"/>
    </g>
   </g>
   <g id="PolyCollection_5">
    <defs>
     <path id="m764a2486ad" d="M 69.218182 -113.985916 
L 69.218182 -113.985916 
L 79.036364 -113.988326 
L 88.854545 -113.991425 
L 98.672727 -113.993834 
L 108.490909 -113.995039 
L 118.309091 -113.998653 
L 128.127273 -114.000374 
L 137.945455 -114.003471 
L 147.763636 -114.005535 
L 157.581818 -114.007771 
L 167.4 -114.009835 
L 177.218182 -114.012587 
L 187.036364 -114.014135 
L 196.854545 -114.016026 
L 206.672727 -114.018433 
L 216.490909 -114.021184 
L 226.309091 -114.022903 
L 236.127273 -114.026168 
L 245.945455 -114.028574 
L 255.763636 -114.029777 
L 265.581818 -114.032183 
L 275.4 -114.033042 
L 285.218182 -114.03476 
L 295.036364 -114.038711 
L 304.854545 -114.041974 
L 314.672727 -114.04352 
L 324.490909 -114.044379 
L 334.309091 -114.047985 
L 344.127273 -114.049701 
L 353.945455 -114.052105 
L 363.763636 -114.053821 
L 373.581818 -114.05468 
L 373.581818 -114.05468 
L 373.581818 -114.05468 
L 363.763636 -114.053821 
L 353.945455 -114.052105 
L 344.127273 -114.049701 
L 334.309091 -114.047985 
L 324.490909 -114.044379 
L 314.672727 -114.04352 
L 304.854545 -114.041974 
L 295.036364 -114.038711 
L 285.218182 -114.03476 
L 275.4 -114.033042 
L 265.581818 -114.032183 
L 255.763636 -114.029777 
L 245.945455 -114.028574 
L 236.127273 -114.026168 
L 226.309091 -114.022903 
L 216.490909 -114.021184 
L 206.672727 -114.018433 
L 196.854545 -114.016026 
L 187.036364 -114.014135 
L 177.218182 -114.012587 
L 167.4 -114.009835 
L 157.581818 -114.007771 
L 147.763636 -114.005535 
L 137.945455 -114.003471 
L 128.127273 -114.000374 
L 118.309091 -113.998653 
L 108.490909 -113.995039 
L 98.672727 -113.993834 
L 88.854545 -113.991425 
L 79.036364 -113.988326 
L 69.218182 -113.985916 
z
" style="stroke: #ffe4c4"/>
    </defs>
    <g clip-path="url(#p3d1b6f5b1b)">
     <use xlink:href="#m764a2486ad" x="0" y="288" style="fill: #ffe4c4; stroke: #ffe4c4"/>
    </g>
   </g>
   <g id="matplotlib.axis_1">
    <g id="xtick_1">
     <g id="line2d_1">
      <defs>
       <path id="m7ebf2f339f" d="M 0 0 
L 0 3.5 
" style="stroke: #000000; stroke-width: 0.8"/>
      </defs>
      <g>
       <use xlink:href="#m7ebf2f339f" x="59.4" y="252" style="stroke: #000000; stroke-width: 0.8"/>
      </g>
     </g>
     <g id="text_1">
      <!-- 0 -->
      <g transform="translate(56.21875 266.598437)scale(0.1 -0.1)">
       <defs>
        <path id="DejaVuSans-30" d="M 2034 4250 
Q 1547 4250 1301 3770 
Q 1056 3291 1056 2328 
Q 1056 1369 1301 889 
Q 1547 409 2034 409 
Q 2525 409 2770 889 
Q 3016 1369 3016 2328 
Q 3016 3291 2770 3770 
Q 2525 4250 2034 4250 
z
M 2034 4750 
Q 2819 4750 3233 4129 
Q 3647 3509 3647 2328 
Q 3647 1150 3233 529 
Q 2819 -91 2034 -91 
Q 1250 -91 836 529 
Q 422 1150 422 2328 
Q 422 3509 836 4129 
Q 1250 4750 2034 4750 
z
" transform="scale(0.015625)"/>
       </defs>
       <use xlink:href="#DejaVuSans-30"/>
      </g>
     </g>
    </g>
    <g id="xtick_2">
     <g id="line2d_2">
      <g>
       <use xlink:href="#m7ebf2f339f" x="108.490909" y="252" style="stroke: #000000; stroke-width: 0.8"/>
      </g>
     </g>
     <g id="text_2">
      <!-- 10 -->
      <g transform="translate(102.128409 266.598437)scale(0.1 -0.1)">
       <defs>
        <path id="DejaVuSans-31" d="M 794 531 
L 1825 531 
L 1825 4091 
L 703 3866 
L 703 4441 
L 1819 4666 
L 2450 4666 
L 2450 531 
L 3481 531 
L 3481 0 
L 794 0 
L 794 531 
z
" transform="scale(0.015625)"/>
       </defs>
       <use xlink:href="#DejaVuSans-31"/>
       <use xlink:href="#DejaVuSans-30" x="63.623047"/>
      </g>
     </g>
    </g>
    <g id="xtick_3">
     <g id="line2d_3">
      <g>
       <use xlink:href="#m7ebf2f339f" x="157.581818" y="252" style="stroke: #000000; stroke-width: 0.8"/>
      </g>
     </g>
     <g id="text_3">
      <!-- 20 -->
      <g transform="translate(151.219318 266.598437)scale(0.1 -0.1)">
       <defs>
        <path id="DejaVuSans-32" d="M 1228 531 
L 3431 531 
L 3431 0 
L 469 0 
L 469 531 
Q 828 903 1448 1529 
Q 2069 2156 2228 2338 
Q 2531 2678 2651 2914 
Q 2772 3150 2772 3378 
Q 2772 3750 2511 3984 
Q 2250 4219 1831 4219 
Q 1534 4219 1204 4116 
Q 875 4013 500 3803 
L 500 4441 
Q 881 4594 1212 4672 
Q 1544 4750 1819 4750 
Q 2544 4750 2975 4387 
Q 3406 4025 3406 3419 
Q 3406 3131 3298 2873 
Q 3191 2616 2906 2266 
Q 2828 2175 2409 1742 
Q 1991 1309 1228 531 
z
" transform="scale(0.015625)"/>
       </defs>
       <use xlink:href="#DejaVuSans-32"/>
       <use xlink:href="#DejaVuSans-30" x="63.623047"/>
      </g>
     </g>
    </g>
    <g id="xtick_4">
     <g id="line2d_4">
      <g>
       <use xlink:href="#m7ebf2f339f" x="206.672727" y="252" style="stroke: #000000; stroke-width: 0.8"/>
      </g>
     </g>
     <g id="text_4">
      <!-- 30 -->
      <g transform="translate(200.310227 266.598437)scale(0.1 -0.1)">
       <defs>
        <path id="DejaVuSans-33" d="M 2597 2516 
Q 3050 2419 3304 2112 
Q 3559 1806 3559 1356 
Q 3559 666 3084 287 
Q 2609 -91 1734 -91 
Q 1441 -91 1130 -33 
Q 819 25 488 141 
L 488 750 
Q 750 597 1062 519 
Q 1375 441 1716 441 
Q 2309 441 2620 675 
Q 2931 909 2931 1356 
Q 2931 1769 2642 2001 
Q 2353 2234 1838 2234 
L 1294 2234 
L 1294 2753 
L 1863 2753 
Q 2328 2753 2575 2939 
Q 2822 3125 2822 3475 
Q 2822 3834 2567 4026 
Q 2313 4219 1838 4219 
Q 1578 4219 1281 4162 
Q 984 4106 628 3988 
L 628 4550 
Q 988 4650 1302 4700 
Q 1616 4750 1894 4750 
Q 2613 4750 3031 4423 
Q 3450 4097 3450 3541 
Q 3450 3153 3228 2886 
Q 3006 2619 2597 2516 
z
" transform="scale(0.015625)"/>
       </defs>
       <use xlink:href="#DejaVuSans-33"/>
       <use xlink:href="#DejaVuSans-30" x="63.623047"/>
      </g>
     </g>
    </g>
    <g id="xtick_5">
     <g id="line2d_5">
      <g>
       <use xlink:href="#m7ebf2f339f" x="255.763636" y="252" style="stroke: #000000; stroke-width: 0.8"/>
      </g>
     </g>
     <g id="text_5">
      <!-- 40 -->
      <g transform="translate(249.401136 266.598437)scale(0.1 -0.1)">
       <defs>
        <path id="DejaVuSans-34" d="M 2419 4116 
L 825 1625 
L 2419 1625 
L 2419 4116 
z
M 2253 4666 
L 3047 4666 
L 3047 1625 
L 3713 1625 
L 3713 1100 
L 3047 1100 
L 3047 0 
L 2419 0 
L 2419 1100 
L 313 1100 
L 313 1709 
L 2253 4666 
z
" transform="scale(0.015625)"/>
       </defs>
       <use xlink:href="#DejaVuSans-34"/>
       <use xlink:href="#DejaVuSans-30" x="63.623047"/>
      </g>
     </g>
    </g>
    <g id="xtick_6">
     <g id="line2d_6">
      <g>
       <use xlink:href="#m7ebf2f339f" x="304.854545" y="252" style="stroke: #000000; stroke-width: 0.8"/>
      </g>
     </g>
     <g id="text_6">
      <!-- 50 -->
      <g transform="translate(298.492045 266.598437)scale(0.1 -0.1)">
       <defs>
        <path id="DejaVuSans-35" d="M 691 4666 
L 3169 4666 
L 3169 4134 
L 1269 4134 
L 1269 2991 
Q 1406 3038 1543 3061 
Q 1681 3084 1819 3084 
Q 2600 3084 3056 2656 
Q 3513 2228 3513 1497 
Q 3513 744 3044 326 
Q 2575 -91 1722 -91 
Q 1428 -91 1123 -41 
Q 819 9 494 109 
L 494 744 
Q 775 591 1075 516 
Q 1375 441 1709 441 
Q 2250 441 2565 725 
Q 2881 1009 2881 1497 
Q 2881 1984 2565 2268 
Q 2250 2553 1709 2553 
Q 1456 2553 1204 2497 
Q 953 2441 691 2322 
L 691 4666 
z
" transform="scale(0.015625)"/>
       </defs>
       <use xlink:href="#DejaVuSans-35"/>
       <use xlink:href="#DejaVuSans-30" x="63.623047"/>
      </g>
     </g>
    </g>
    <g id="xtick_7">
     <g id="line2d_7">
      <g>
       <use xlink:href="#m7ebf2f339f" x="353.945455" y="252" style="stroke: #000000; stroke-width: 0.8"/>
      </g>
     </g>
     <g id="text_7">
      <!-- 60 -->
      <g transform="translate(347.582955 266.598437)scale(0.1 -0.1)">
       <defs>
        <path id="DejaVuSans-36" d="M 2113 2584 
Q 1688 2584 1439 2293 
Q 1191 2003 1191 1497 
Q 1191 994 1439 701 
Q 1688 409 2113 409 
Q 2538 409 2786 701 
Q 3034 994 3034 1497 
Q 3034 2003 2786 2293 
Q 2538 2584 2113 2584 
z
M 3366 4563 
L 3366 3988 
Q 3128 4100 2886 4159 
Q 2644 4219 2406 4219 
Q 1781 4219 1451 3797 
Q 1122 3375 1075 2522 
Q 1259 2794 1537 2939 
Q 1816 3084 2150 3084 
Q 2853 3084 3261 2657 
Q 3669 2231 3669 1497 
Q 3669 778 3244 343 
Q 2819 -91 2113 -91 
Q 1303 -91 875 529 
Q 447 1150 447 2328 
Q 447 3434 972 4092 
Q 1497 4750 2381 4750 
Q 2619 4750 2861 4703 
Q 3103 4656 3366 4563 
z
" transform="scale(0.015625)"/>
       </defs>
       <use xlink:href="#DejaVuSans-36"/>
       <use xlink:href="#DejaVuSans-30" x="63.623047"/>
      </g>
     </g>
    </g>
    <g id="text_8">
     <!-- Maximum program size (bin number) -->
     <g transform="translate(128.225 280.276563)scale(0.1 -0.1)">
      <defs>
       <path id="DejaVuSans-4d" d="M 628 4666 
L 1569 4666 
L 2759 1491 
L 3956 4666 
L 4897 4666 
L 4897 0 
L 4281 0 
L 4281 4097 
L 3078 897 
L 2444 897 
L 1241 4097 
L 1241 0 
L 628 0 
L 628 4666 
z
" transform="scale(0.015625)"/>
       <path id="DejaVuSans-61" d="M 2194 1759 
Q 1497 1759 1228 1600 
Q 959 1441 959 1056 
Q 959 750 1161 570 
Q 1363 391 1709 391 
Q 2188 391 2477 730 
Q 2766 1069 2766 1631 
L 2766 1759 
L 2194 1759 
z
M 3341 1997 
L 3341 0 
L 2766 0 
L 2766 531 
Q 2569 213 2275 61 
Q 1981 -91 1556 -91 
Q 1019 -91 701 211 
Q 384 513 384 1019 
Q 384 1609 779 1909 
Q 1175 2209 1959 2209 
L 2766 2209 
L 2766 2266 
Q 2766 2663 2505 2880 
Q 2244 3097 1772 3097 
Q 1472 3097 1187 3025 
Q 903 2953 641 2809 
L 641 3341 
Q 956 3463 1253 3523 
Q 1550 3584 1831 3584 
Q 2591 3584 2966 3190 
Q 3341 2797 3341 1997 
z
" transform="scale(0.015625)"/>
       <path id="DejaVuSans-78" d="M 3513 3500 
L 2247 1797 
L 3578 0 
L 2900 0 
L 1881 1375 
L 863 0 
L 184 0 
L 1544 1831 
L 300 3500 
L 978 3500 
L 1906 2253 
L 2834 3500 
L 3513 3500 
z
" transform="scale(0.015625)"/>
       <path id="DejaVuSans-69" d="M 603 3500 
L 1178 3500 
L 1178 0 
L 603 0 
L 603 3500 
z
M 603 4863 
L 1178 4863 
L 1178 4134 
L 603 4134 
L 603 4863 
z
" transform="scale(0.015625)"/>
       <path id="DejaVuSans-6d" d="M 3328 2828 
Q 3544 3216 3844 3400 
Q 4144 3584 4550 3584 
Q 5097 3584 5394 3201 
Q 5691 2819 5691 2113 
L 5691 0 
L 5113 0 
L 5113 2094 
Q 5113 2597 4934 2840 
Q 4756 3084 4391 3084 
Q 3944 3084 3684 2787 
Q 3425 2491 3425 1978 
L 3425 0 
L 2847 0 
L 2847 2094 
Q 2847 2600 2669 2842 
Q 2491 3084 2119 3084 
Q 1678 3084 1418 2786 
Q 1159 2488 1159 1978 
L 1159 0 
L 581 0 
L 581 3500 
L 1159 3500 
L 1159 2956 
Q 1356 3278 1631 3431 
Q 1906 3584 2284 3584 
Q 2666 3584 2933 3390 
Q 3200 3197 3328 2828 
z
" transform="scale(0.015625)"/>
       <path id="DejaVuSans-75" d="M 544 1381 
L 544 3500 
L 1119 3500 
L 1119 1403 
Q 1119 906 1312 657 
Q 1506 409 1894 409 
Q 2359 409 2629 706 
Q 2900 1003 2900 1516 
L 2900 3500 
L 3475 3500 
L 3475 0 
L 2900 0 
L 2900 538 
Q 2691 219 2414 64 
Q 2138 -91 1772 -91 
Q 1169 -91 856 284 
Q 544 659 544 1381 
z
M 1991 3584 
L 1991 3584 
z
" transform="scale(0.015625)"/>
       <path id="DejaVuSans-20" transform="scale(0.015625)"/>
       <path id="DejaVuSans-70" d="M 1159 525 
L 1159 -1331 
L 581 -1331 
L 581 3500 
L 1159 3500 
L 1159 2969 
Q 1341 3281 1617 3432 
Q 1894 3584 2278 3584 
Q 2916 3584 3314 3078 
Q 3713 2572 3713 1747 
Q 3713 922 3314 415 
Q 2916 -91 2278 -91 
Q 1894 -91 1617 61 
Q 1341 213 1159 525 
z
M 3116 1747 
Q 3116 2381 2855 2742 
Q 2594 3103 2138 3103 
Q 1681 3103 1420 2742 
Q 1159 2381 1159 1747 
Q 1159 1113 1420 752 
Q 1681 391 2138 391 
Q 2594 391 2855 752 
Q 3116 1113 3116 1747 
z
" transform="scale(0.015625)"/>
       <path id="DejaVuSans-72" d="M 2631 2963 
Q 2534 3019 2420 3045 
Q 2306 3072 2169 3072 
Q 1681 3072 1420 2755 
Q 1159 2438 1159 1844 
L 1159 0 
L 581 0 
L 581 3500 
L 1159 3500 
L 1159 2956 
Q 1341 3275 1631 3429 
Q 1922 3584 2338 3584 
Q 2397 3584 2469 3576 
Q 2541 3569 2628 3553 
L 2631 2963 
z
" transform="scale(0.015625)"/>
       <path id="DejaVuSans-6f" d="M 1959 3097 
Q 1497 3097 1228 2736 
Q 959 2375 959 1747 
Q 959 1119 1226 758 
Q 1494 397 1959 397 
Q 2419 397 2687 759 
Q 2956 1122 2956 1747 
Q 2956 2369 2687 2733 
Q 2419 3097 1959 3097 
z
M 1959 3584 
Q 2709 3584 3137 3096 
Q 3566 2609 3566 1747 
Q 3566 888 3137 398 
Q 2709 -91 1959 -91 
Q 1206 -91 779 398 
Q 353 888 353 1747 
Q 353 2609 779 3096 
Q 1206 3584 1959 3584 
z
" transform="scale(0.015625)"/>
       <path id="DejaVuSans-67" d="M 2906 1791 
Q 2906 2416 2648 2759 
Q 2391 3103 1925 3103 
Q 1463 3103 1205 2759 
Q 947 2416 947 1791 
Q 947 1169 1205 825 
Q 1463 481 1925 481 
Q 2391 481 2648 825 
Q 2906 1169 2906 1791 
z
M 3481 434 
Q 3481 -459 3084 -895 
Q 2688 -1331 1869 -1331 
Q 1566 -1331 1297 -1286 
Q 1028 -1241 775 -1147 
L 775 -588 
Q 1028 -725 1275 -790 
Q 1522 -856 1778 -856 
Q 2344 -856 2625 -561 
Q 2906 -266 2906 331 
L 2906 616 
Q 2728 306 2450 153 
Q 2172 0 1784 0 
Q 1141 0 747 490 
Q 353 981 353 1791 
Q 353 2603 747 3093 
Q 1141 3584 1784 3584 
Q 2172 3584 2450 3431 
Q 2728 3278 2906 2969 
L 2906 3500 
L 3481 3500 
L 3481 434 
z
" transform="scale(0.015625)"/>
       <path id="DejaVuSans-73" d="M 2834 3397 
L 2834 2853 
Q 2591 2978 2328 3040 
Q 2066 3103 1784 3103 
Q 1356 3103 1142 2972 
Q 928 2841 928 2578 
Q 928 2378 1081 2264 
Q 1234 2150 1697 2047 
L 1894 2003 
Q 2506 1872 2764 1633 
Q 3022 1394 3022 966 
Q 3022 478 2636 193 
Q 2250 -91 1575 -91 
Q 1294 -91 989 -36 
Q 684 19 347 128 
L 347 722 
Q 666 556 975 473 
Q 1284 391 1588 391 
Q 1994 391 2212 530 
Q 2431 669 2431 922 
Q 2431 1156 2273 1281 
Q 2116 1406 1581 1522 
L 1381 1569 
Q 847 1681 609 1914 
Q 372 2147 372 2553 
Q 372 3047 722 3315 
Q 1072 3584 1716 3584 
Q 2034 3584 2315 3537 
Q 2597 3491 2834 3397 
z
" transform="scale(0.015625)"/>
       <path id="DejaVuSans-7a" d="M 353 3500 
L 3084 3500 
L 3084 2975 
L 922 459 
L 3084 459 
L 3084 0 
L 275 0 
L 275 525 
L 2438 3041 
L 353 3041 
L 353 3500 
z
" transform="scale(0.015625)"/>
       <path id="DejaVuSans-65" d="M 3597 1894 
L 3597 1613 
L 953 1613 
Q 991 1019 1311 708 
Q 1631 397 2203 397 
Q 2534 397 2845 478 
Q 3156 559 3463 722 
L 3463 178 
Q 3153 47 2828 -22 
Q 2503 -91 2169 -91 
Q 1331 -91 842 396 
Q 353 884 353 1716 
Q 353 2575 817 3079 
Q 1281 3584 2069 3584 
Q 2775 3584 3186 3129 
Q 3597 2675 3597 1894 
z
M 3022 2063 
Q 3016 2534 2758 2815 
Q 2500 3097 2075 3097 
Q 1594 3097 1305 2825 
Q 1016 2553 972 2059 
L 3022 2063 
z
" transform="scale(0.015625)"/>
       <path id="DejaVuSans-28" d="M 1984 4856 
Q 1566 4138 1362 3434 
Q 1159 2731 1159 2009 
Q 1159 1288 1364 580 
Q 1569 -128 1984 -844 
L 1484 -844 
Q 1016 -109 783 600 
Q 550 1309 550 2009 
Q 550 2706 781 3412 
Q 1013 4119 1484 4856 
L 1984 4856 
z
" transform="scale(0.015625)"/>
       <path id="DejaVuSans-62" d="M 3116 1747 
Q 3116 2381 2855 2742 
Q 2594 3103 2138 3103 
Q 1681 3103 1420 2742 
Q 1159 2381 1159 1747 
Q 1159 1113 1420 752 
Q 1681 391 2138 391 
Q 2594 391 2855 752 
Q 3116 1113 3116 1747 
z
M 1159 2969 
Q 1341 3281 1617 3432 
Q 1894 3584 2278 3584 
Q 2916 3584 3314 3078 
Q 3713 2572 3713 1747 
Q 3713 922 3314 415 
Q 2916 -91 2278 -91 
Q 1894 -91 1617 61 
Q 1341 213 1159 525 
L 1159 0 
L 581 0 
L 581 4863 
L 1159 4863 
L 1159 2969 
z
" transform="scale(0.015625)"/>
       <path id="DejaVuSans-6e" d="M 3513 2113 
L 3513 0 
L 2938 0 
L 2938 2094 
Q 2938 2591 2744 2837 
Q 2550 3084 2163 3084 
Q 1697 3084 1428 2787 
Q 1159 2491 1159 1978 
L 1159 0 
L 581 0 
L 581 3500 
L 1159 3500 
L 1159 2956 
Q 1366 3272 1645 3428 
Q 1925 3584 2291 3584 
Q 2894 3584 3203 3211 
Q 3513 2838 3513 2113 
z
" transform="scale(0.015625)"/>
       <path id="DejaVuSans-29" d="M 513 4856 
L 1013 4856 
Q 1481 4119 1714 3412 
Q 1947 2706 1947 2009 
Q 1947 1309 1714 600 
Q 1481 -109 1013 -844 
L 513 -844 
Q 928 -128 1133 580 
Q 1338 1288 1338 2009 
Q 1338 2731 1133 3434 
Q 928 4138 513 4856 
z
" transform="scale(0.015625)"/>
      </defs>
      <use xlink:href="#DejaVuSans-4d"/>
      <use xlink:href="#DejaVuSans-61" x="86.279297"/>
      <use xlink:href="#DejaVuSans-78" x="147.558594"/>
      <use xlink:href="#DejaVuSans-69" x="206.738281"/>
      <use xlink:href="#DejaVuSans-6d" x="234.521484"/>
      <use xlink:href="#DejaVuSans-75" x="331.933594"/>
      <use xlink:href="#DejaVuSans-6d" x="395.3125"/>
      <use xlink:href="#DejaVuSans-20" x="492.724609"/>
      <use xlink:href="#DejaVuSans-70" x="524.511719"/>
      <use xlink:href="#DejaVuSans-72" x="587.988281"/>
      <use xlink:href="#DejaVuSans-6f" x="626.851562"/>
      <use xlink:href="#DejaVuSans-67" x="688.033203"/>
      <use xlink:href="#DejaVuSans-72" x="751.509766"/>
      <use xlink:href="#DejaVuSans-61" x="792.623047"/>
      <use xlink:href="#DejaVuSans-6d" x="853.902344"/>
      <use xlink:href="#DejaVuSans-20" x="951.314453"/>
      <use xlink:href="#DejaVuSans-73" x="983.101562"/>
      <use xlink:href="#DejaVuSans-69" x="1035.201172"/>
      <use xlink:href="#DejaVuSans-7a" x="1062.984375"/>
      <use xlink:href="#DejaVuSans-65" x="1115.474609"/>
      <use xlink:href="#DejaVuSans-20" x="1176.998047"/>
      <use xlink:href="#DejaVuSans-28" x="1208.785156"/>
      <use xlink:href="#DejaVuSans-62" x="1247.798828"/>
      <use xlink:href="#DejaVuSans-69" x="1311.275391"/>
      <use xlink:href="#DejaVuSans-6e" x="1339.058594"/>
      <use xlink:href="#DejaVuSans-20" x="1402.4375"/>
      <use xlink:href="#DejaVuSans-6e" x="1434.224609"/>
      <use xlink:href="#DejaVuSans-75" x="1497.603516"/>
      <use xlink:href="#DejaVuSans-6d" x="1560.982422"/>
      <use xlink:href="#DejaVuSans-62" x="1658.394531"/>
      <use xlink:href="#DejaVuSans-65" x="1721.871094"/>
      <use xlink:href="#DejaVuSans-72" x="1783.394531"/>
      <use xlink:href="#DejaVuSans-29" x="1824.507812"/>
     </g>
    </g>
   </g>
   <g id="matplotlib.axis_2">
    <g id="ytick_1">
     <g id="line2d_8">
      <defs>
       <path id="m9caf59dc1c" d="M 0 0 
L -3.5 0 
" style="stroke: #000000; stroke-width: 0.8"/>
      </defs>
      <g>
       <use xlink:href="#m9caf59dc1c" x="54" y="210.731617" style="stroke: #000000; stroke-width: 0.8"/>
      </g>
     </g>
     <g id="text_9">
      <!-- $\mathdefault{10^{-4}}$ -->
      <g transform="translate(23.5 214.530836)scale(0.1 -0.1)">
       <defs>
        <path id="DejaVuSans-2212" d="M 678 2272 
L 4684 2272 
L 4684 1741 
L 678 1741 
L 678 2272 
z
" transform="scale(0.015625)"/>
       </defs>
       <use xlink:href="#DejaVuSans-31" transform="translate(0 0.684375)"/>
       <use xlink:href="#DejaVuSans-30" transform="translate(63.623047 0.684375)"/>
       <use xlink:href="#DejaVuSans-2212" transform="translate(128.203125 38.965625)scale(0.7)"/>
       <use xlink:href="#DejaVuSans-34" transform="translate(186.855469 38.965625)scale(0.7)"/>
      </g>
     </g>
    </g>
    <g id="ytick_2">
     <g id="line2d_9">
      <g>
       <use xlink:href="#m9caf59dc1c" x="54" y="159.765493" style="stroke: #000000; stroke-width: 0.8"/>
      </g>
     </g>
     <g id="text_10">
      <!-- $\mathdefault{10^{-3}}$ -->
      <g transform="translate(23.5 163.564712)scale(0.1 -0.1)">
       <use xlink:href="#DejaVuSans-31" transform="translate(0 0.765625)"/>
       <use xlink:href="#DejaVuSans-30" transform="translate(63.623047 0.765625)"/>
       <use xlink:href="#DejaVuSans-2212" transform="translate(128.203125 39.046875)scale(0.7)"/>
       <use xlink:href="#DejaVuSans-33" transform="translate(186.855469 39.046875)scale(0.7)"/>
      </g>
     </g>
    </g>
    <g id="ytick_3">
     <g id="line2d_10">
      <g>
       <use xlink:href="#m9caf59dc1c" x="54" y="108.799369" style="stroke: #000000; stroke-width: 0.8"/>
      </g>
     </g>
     <g id="text_11">
      <!-- $\mathdefault{10^{-2}}$ -->
      <g transform="translate(23.5 112.598588)scale(0.1 -0.1)">
       <use xlink:href="#DejaVuSans-31" transform="translate(0 0.765625)"/>
       <use xlink:href="#DejaVuSans-30" transform="translate(63.623047 0.765625)"/>
       <use xlink:href="#DejaVuSans-2212" transform="translate(128.203125 39.046875)scale(0.7)"/>
       <use xlink:href="#DejaVuSans-32" transform="translate(186.855469 39.046875)scale(0.7)"/>
      </g>
     </g>
    </g>
    <g id="ytick_4">
     <g id="line2d_11">
      <g>
       <use xlink:href="#m9caf59dc1c" x="54" y="57.833245" style="stroke: #000000; stroke-width: 0.8"/>
      </g>
     </g>
     <g id="text_12">
      <!-- $\mathdefault{10^{-1}}$ -->
      <g transform="translate(23.5 61.632464)scale(0.1 -0.1)">
       <use xlink:href="#DejaVuSans-31" transform="translate(0 0.684375)"/>
       <use xlink:href="#DejaVuSans-30" transform="translate(63.623047 0.684375)"/>
       <use xlink:href="#DejaVuSans-2212" transform="translate(128.203125 38.965625)scale(0.7)"/>
       <use xlink:href="#DejaVuSans-31" transform="translate(186.855469 38.965625)scale(0.7)"/>
      </g>
     </g>
    </g>
    <g id="ytick_5">
     <g id="line2d_12">
      <defs>
       <path id="m4116f56f5e" d="M 0 0 
L -2 0 
" style="stroke: #000000; stroke-width: 0.6"/>
      </defs>
      <g>
       <use xlink:href="#m4116f56f5e" x="54" y="246.355409" style="stroke: #000000; stroke-width: 0.6"/>
      </g>
     </g>
    </g>
    <g id="ytick_6">
     <g id="line2d_13">
      <g>
       <use xlink:href="#m4116f56f5e" x="54" y="237.38072" style="stroke: #000000; stroke-width: 0.6"/>
      </g>
     </g>
    </g>
    <g id="ytick_7">
     <g id="line2d_14">
      <g>
       <use xlink:href="#m4116f56f5e" x="54" y="231.013077" style="stroke: #000000; stroke-width: 0.6"/>
      </g>
     </g>
    </g>
    <g id="ytick_8">
     <g id="line2d_15">
      <g>
       <use xlink:href="#m4116f56f5e" x="54" y="226.073949" style="stroke: #000000; stroke-width: 0.6"/>
      </g>
     </g>
    </g>
    <g id="ytick_9">
     <g id="line2d_16">
      <g>
       <use xlink:href="#m4116f56f5e" x="54" y="222.038388" style="stroke: #000000; stroke-width: 0.6"/>
      </g>
     </g>
    </g>
    <g id="ytick_10">
     <g id="line2d_17">
      <g>
       <use xlink:href="#m4116f56f5e" x="54" y="218.62637" style="stroke: #000000; stroke-width: 0.6"/>
      </g>
     </g>
    </g>
    <g id="ytick_11">
     <g id="line2d_18">
      <g>
       <use xlink:href="#m4116f56f5e" x="54" y="215.670745" style="stroke: #000000; stroke-width: 0.6"/>
      </g>
     </g>
    </g>
    <g id="ytick_12">
     <g id="line2d_19">
      <g>
       <use xlink:href="#m4116f56f5e" x="54" y="213.063699" style="stroke: #000000; stroke-width: 0.6"/>
      </g>
     </g>
    </g>
    <g id="ytick_13">
     <g id="line2d_20">
      <g>
       <use xlink:href="#m4116f56f5e" x="54" y="195.389285" style="stroke: #000000; stroke-width: 0.6"/>
      </g>
     </g>
    </g>
    <g id="ytick_14">
     <g id="line2d_21">
      <g>
       <use xlink:href="#m4116f56f5e" x="54" y="186.414596" style="stroke: #000000; stroke-width: 0.6"/>
      </g>
     </g>
    </g>
    <g id="ytick_15">
     <g id="line2d_22">
      <g>
       <use xlink:href="#m4116f56f5e" x="54" y="180.046953" style="stroke: #000000; stroke-width: 0.6"/>
      </g>
     </g>
    </g>
    <g id="ytick_16">
     <g id="line2d_23">
      <g>
       <use xlink:href="#m4116f56f5e" x="54" y="175.107825" style="stroke: #000000; stroke-width: 0.6"/>
      </g>
     </g>
    </g>
    <g id="ytick_17">
     <g id="line2d_24">
      <g>
       <use xlink:href="#m4116f56f5e" x="54" y="171.072264" style="stroke: #000000; stroke-width: 0.6"/>
      </g>
     </g>
    </g>
    <g id="ytick_18">
     <g id="line2d_25">
      <g>
       <use xlink:href="#m4116f56f5e" x="54" y="167.660246" style="stroke: #000000; stroke-width: 0.6"/>
      </g>
     </g>
    </g>
    <g id="ytick_19">
     <g id="line2d_26">
      <g>
       <use xlink:href="#m4116f56f5e" x="54" y="164.704621" style="stroke: #000000; stroke-width: 0.6"/>
      </g>
     </g>
    </g>
    <g id="ytick_20">
     <g id="line2d_27">
      <g>
       <use xlink:href="#m4116f56f5e" x="54" y="162.097575" style="stroke: #000000; stroke-width: 0.6"/>
      </g>
     </g>
    </g>
    <g id="ytick_21">
     <g id="line2d_28">
      <g>
       <use xlink:href="#m4116f56f5e" x="54" y="144.423161" style="stroke: #000000; stroke-width: 0.6"/>
      </g>
     </g>
    </g>
    <g id="ytick_22">
     <g id="line2d_29">
      <g>
       <use xlink:href="#m4116f56f5e" x="54" y="135.448472" style="stroke: #000000; stroke-width: 0.6"/>
      </g>
     </g>
    </g>
    <g id="ytick_23">
     <g id="line2d_30">
      <g>
       <use xlink:href="#m4116f56f5e" x="54" y="129.080829" style="stroke: #000000; stroke-width: 0.6"/>
      </g>
     </g>
    </g>
    <g id="ytick_24">
     <g id="line2d_31">
      <g>
       <use xlink:href="#m4116f56f5e" x="54" y="124.141701" style="stroke: #000000; stroke-width: 0.6"/>
      </g>
     </g>
    </g>
    <g id="ytick_25">
     <g id="line2d_32">
      <g>
       <use xlink:href="#m4116f56f5e" x="54" y="120.10614" style="stroke: #000000; stroke-width: 0.6"/>
      </g>
     </g>
    </g>
    <g id="ytick_26">
     <g id="line2d_33">
      <g>
       <use xlink:href="#m4116f56f5e" x="54" y="116.694122" style="stroke: #000000; stroke-width: 0.6"/>
      </g>
     </g>
    </g>
    <g id="ytick_27">
     <g id="line2d_34">
      <g>
       <use xlink:href="#m4116f56f5e" x="54" y="113.738497" style="stroke: #000000; stroke-width: 0.6"/>
      </g>
     </g>
    </g>
    <g id="ytick_28">
     <g id="line2d_35">
      <g>
       <use xlink:href="#m4116f56f5e" x="54" y="111.131451" style="stroke: #000000; stroke-width: 0.6"/>
      </g>
     </g>
    </g>
    <g id="ytick_29">
     <g id="line2d_36">
      <g>
       <use xlink:href="#m4116f56f5e" x="54" y="93.457037" style="stroke: #000000; stroke-width: 0.6"/>
      </g>
     </g>
    </g>
    <g id="ytick_30">
     <g id="line2d_37">
      <g>
       <use xlink:href="#m4116f56f5e" x="54" y="84.482348" style="stroke: #000000; stroke-width: 0.6"/>
      </g>
     </g>
    </g>
    <g id="ytick_31">
     <g id="line2d_38">
      <g>
       <use xlink:href="#m4116f56f5e" x="54" y="78.114705" style="stroke: #000000; stroke-width: 0.6"/>
      </g>
     </g>
    </g>
    <g id="ytick_32">
     <g id="line2d_39">
      <g>
       <use xlink:href="#m4116f56f5e" x="54" y="73.175577" style="stroke: #000000; stroke-width: 0.6"/>
      </g>
     </g>
    </g>
    <g id="ytick_33">
     <g id="line2d_40">
      <g>
       <use xlink:href="#m4116f56f5e" x="54" y="69.140016" style="stroke: #000000; stroke-width: 0.6"/>
      </g>
     </g>
    </g>
    <g id="ytick_34">
     <g id="line2d_41">
      <g>
       <use xlink:href="#m4116f56f5e" x="54" y="65.727998" style="stroke: #000000; stroke-width: 0.6"/>
      </g>
     </g>
    </g>
    <g id="ytick_35">
     <g id="line2d_42">
      <g>
       <use xlink:href="#m4116f56f5e" x="54" y="62.772373" style="stroke: #000000; stroke-width: 0.6"/>
      </g>
     </g>
    </g>
    <g id="ytick_36">
     <g id="line2d_43">
      <g>
       <use xlink:href="#m4116f56f5e" x="54" y="60.165327" style="stroke: #000000; stroke-width: 0.6"/>
      </g>
     </g>
    </g>
    <g id="ytick_37">
     <g id="line2d_44">
      <g>
       <use xlink:href="#m4116f56f5e" x="54" y="42.490913" style="stroke: #000000; stroke-width: 0.6"/>
      </g>
     </g>
    </g>
    <g id="text_13">
     <!-- Median average runtime -->
     <g transform="translate(17.420312 204.804219)rotate(-90)scale(0.1 -0.1)">
      <defs>
       <path id="DejaVuSans-64" d="M 2906 2969 
L 2906 4863 
L 3481 4863 
L 3481 0 
L 2906 0 
L 2906 525 
Q 2725 213 2448 61 
Q 2172 -91 1784 -91 
Q 1150 -91 751 415 
Q 353 922 353 1747 
Q 353 2572 751 3078 
Q 1150 3584 1784 3584 
Q 2172 3584 2448 3432 
Q 2725 3281 2906 2969 
z
M 947 1747 
Q 947 1113 1208 752 
Q 1469 391 1925 391 
Q 2381 391 2643 752 
Q 2906 1113 2906 1747 
Q 2906 2381 2643 2742 
Q 2381 3103 1925 3103 
Q 1469 3103 1208 2742 
Q 947 2381 947 1747 
z
" transform="scale(0.015625)"/>
       <path id="DejaVuSans-76" d="M 191 3500 
L 800 3500 
L 1894 563 
L 2988 3500 
L 3597 3500 
L 2284 0 
L 1503 0 
L 191 3500 
z
" transform="scale(0.015625)"/>
       <path id="DejaVuSans-74" d="M 1172 4494 
L 1172 3500 
L 2356 3500 
L 2356 3053 
L 1172 3053 
L 1172 1153 
Q 1172 725 1289 603 
Q 1406 481 1766 481 
L 2356 481 
L 2356 0 
L 1766 0 
Q 1100 0 847 248 
Q 594 497 594 1153 
L 594 3053 
L 172 3053 
L 172 3500 
L 594 3500 
L 594 4494 
L 1172 4494 
z
" transform="scale(0.015625)"/>
      </defs>
      <use xlink:href="#DejaVuSans-4d"/>
      <use xlink:href="#DejaVuSans-65" x="86.279297"/>
      <use xlink:href="#DejaVuSans-64" x="147.802734"/>
      <use xlink:href="#DejaVuSans-69" x="211.279297"/>
      <use xlink:href="#DejaVuSans-61" x="239.0625"/>
      <use xlink:href="#DejaVuSans-6e" x="300.341797"/>
      <use xlink:href="#DejaVuSans-20" x="363.720703"/>
      <use xlink:href="#DejaVuSans-61" x="395.507812"/>
      <use xlink:href="#DejaVuSans-76" x="456.787109"/>
      <use xlink:href="#DejaVuSans-65" x="515.966797"/>
      <use xlink:href="#DejaVuSans-72" x="577.490234"/>
      <use xlink:href="#DejaVuSans-61" x="618.603516"/>
      <use xlink:href="#DejaVuSans-67" x="679.882812"/>
      <use xlink:href="#DejaVuSans-65" x="743.359375"/>
      <use xlink:href="#DejaVuSans-20" x="804.882812"/>
      <use xlink:href="#DejaVuSans-72" x="836.669922"/>
      <use xlink:href="#DejaVuSans-75" x="877.783203"/>
      <use xlink:href="#DejaVuSans-6e" x="941.162109"/>
      <use xlink:href="#DejaVuSans-74" x="1004.541016"/>
      <use xlink:href="#DejaVuSans-69" x="1043.75"/>
      <use xlink:href="#DejaVuSans-6d" x="1071.533203"/>
      <use xlink:href="#DejaVuSans-65" x="1168.945312"/>
     </g>
    </g>
   </g>
   <g id="line2d_45">
    <path d="M 69.218182 64.742205 
L 79.036364 63.33391 
L 88.854545 63.297061 
L 98.672727 63.558038 
L 108.490909 61.109346 
L 118.309091 63.329334 
L 128.127273 61.059938 
L 137.945455 61.224783 
L 147.763636 59.971724 
L 157.581818 60.821308 
L 167.4 62.005341 
L 177.218182 60.100112 
L 187.036364 59.120542 
L 196.854545 59.310667 
L 206.672727 58.383952 
L 216.490909 59.312046 
L 226.309091 57.331632 
L 236.127273 58.593581 
L 245.945455 57.301833 
L 255.763636 57.97123 
L 265.581818 56.944375 
L 275.4 55.814129 
L 285.218182 55.198339 
L 295.036364 55.797001 
L 304.854545 56.931253 
L 314.672727 56.137218 
L 324.490909 54.80904 
L 334.309091 54.251623 
L 344.127273 53.19008 
L 353.945455 54.67584 
L 363.763636 55.101187 
L 373.581818 53.525734 
" clip-path="url(#p3d1b6f5b1b)" style="fill: none; stroke: #1f77b4; stroke-width: 1.5; stroke-linecap: square"/>
   </g>
   <g id="line2d_46">
    <path d="M 69.218182 81.687286 
L 79.036364 80.362287 
L 88.854545 78.127648 
L 98.672727 75.874994 
L 108.490909 74.822304 
L 118.309091 73.150124 
L 128.127273 71.028718 
L 137.945455 70.305824 
L 147.763636 69.964303 
L 157.581818 66.436852 
L 167.4 66.879616 
L 177.218182 66.571954 
L 187.036364 64.38402 
L 196.854545 63.575429 
L 206.672727 62.978416 
L 216.490909 62.368982 
L 226.309091 61.189728 
L 236.127273 60.677556 
L 245.945455 60.471202 
L 255.763636 59.159158 
L 265.581818 58.455328 
L 275.4 58.006845 
L 285.218182 57.140371 
L 295.036364 56.544667 
L 304.854545 56.114791 
L 314.672727 55.7508 
L 324.490909 54.962012 
L 334.309091 54.715378 
L 344.127273 53.362082 
L 353.945455 53.728768 
L 363.763636 53.041677 
L 373.581818 52.786648 
" clip-path="url(#p3d1b6f5b1b)" style="fill: none; stroke: #ff7f0e; stroke-width: 1.5; stroke-linecap: square"/>
   </g>
   <g id="line2d_47">
    <path d="M 69.218182 82.230165 
L 79.036364 81.287213 
L 88.854545 77.774582 
L 98.672727 75.294656 
L 108.490909 72.674481 
L 118.309091 70.933101 
L 128.127273 68.604724 
L 137.945455 67.147134 
L 147.763636 64.991442 
L 157.581818 63.225856 
L 167.4 62.092981 
L 177.218182 61.309115 
L 187.036364 59.659226 
L 196.854545 58.039564 
L 206.672727 57.574234 
L 216.490909 56.847489 
L 226.309091 55.41314 
L 236.127273 54.378164 
L 245.945455 54.035531 
L 255.763636 52.365453 
L 265.581818 51.637485 
L 275.4 51.162561 
L 285.218182 50.161772 
L 295.036364 49.302971 
L 304.854545 49.003894 
L 314.672727 48.142392 
L 324.490909 47.229023 
L 334.309091 47.27945 
L 344.127273 46.264793 
L 353.945455 46.015752 
L 363.763636 45.577064 
L 373.581818 44.75927 
" clip-path="url(#p3d1b6f5b1b)" style="fill: none; stroke: #2ca02c; stroke-width: 1.5; stroke-linecap: square"/>
   </g>
   <g id="line2d_48">
    <path d="M 69.218182 242.087145 
L 79.036364 240.952432 
L 88.854545 239.653152 
L 98.672727 238.344844 
L 108.490909 236.61724 
L 118.309091 236.375774 
L 128.127273 235.363031 
L 137.945455 234.559611 
L 147.763636 234.06008 
L 157.581818 232.463365 
L 167.4 232.450182 
L 177.218182 232.175525 
L 187.036364 230.973199 
L 196.854545 230.730008 
L 206.672727 230.972968 
L 216.490909 230.494766 
L 226.309091 227.878394 
L 236.127273 227.500607 
L 245.945455 228.002441 
L 255.763636 226.757057 
L 265.581818 226.623236 
L 275.4 227.232685 
L 285.218182 227.198168 
L 295.036364 226.900235 
L 304.854545 225.841075 
L 314.672727 226.467585 
L 324.490909 227.396139 
L 334.309091 227.368792 
L 344.127273 227.294699 
L 353.945455 228.618804 
L 363.763636 229.453139 
L 373.581818 230.947363 
" clip-path="url(#p3d1b6f5b1b)" style="fill: none; stroke: #d62728; stroke-width: 1.5; stroke-linecap: square"/>
   </g>
   <g id="line2d_49">
    <path d="M 69.218182 174.014084 
L 79.036364 174.011674 
L 88.854545 174.008575 
L 98.672727 174.006166 
L 108.490909 174.004961 
L 118.309091 174.001347 
L 128.127273 173.999626 
L 137.945455 173.996529 
L 147.763636 173.994465 
L 157.581818 173.992229 
L 167.4 173.990165 
L 177.218182 173.987413 
L 187.036364 173.985865 
L 196.854545 173.983974 
L 206.672727 173.981567 
L 216.490909 173.978816 
L 226.309091 173.977097 
L 236.127273 173.973832 
L 245.945455 173.971426 
L 255.763636 173.970223 
L 265.581818 173.967817 
L 275.4 173.966958 
L 285.218182 173.96524 
L 295.036364 173.961289 
L 304.854545 173.958026 
L 314.672727 173.95648 
L 324.490909 173.955621 
L 334.309091 173.952015 
L 344.127273 173.950299 
L 353.945455 173.947895 
L 363.763636 173.946179 
L 373.581818 173.94532 
" clip-path="url(#p3d1b6f5b1b)" style="fill: none; stroke: #9467bd; stroke-width: 1.5; stroke-linecap: square"/>
   </g>
   <g id="patch_3">
    <path d="M 54 252 
L 54 34.56 
" style="fill: none; stroke: #000000; stroke-width: 0.8; stroke-linejoin: miter; stroke-linecap: square"/>
   </g>
   <g id="patch_4">
    <path d="M 388.8 252 
L 388.8 34.56 
" style="fill: none; stroke: #000000; stroke-width: 0.8; stroke-linejoin: miter; stroke-linecap: square"/>
   </g>
   <g id="patch_5">
    <path d="M 54 252 
L 388.8 252 
" style="fill: none; stroke: #000000; stroke-width: 0.8; stroke-linejoin: miter; stroke-linecap: square"/>
   </g>
   <g id="patch_6">
    <path d="M 54 34.56 
L 388.8 34.56 
" style="fill: none; stroke: #000000; stroke-width: 0.8; stroke-linejoin: miter; stroke-linecap: square"/>
   </g>
   <g id="text_14">
    <!-- Median Average Runtime vs. Max. Program Size (1000 f.c., nicolau_b) -->
    <g transform="translate(13.146563 28.56)scale(0.12 -0.12)">
     <defs>
      <path id="DejaVuSans-41" d="M 2188 4044 
L 1331 1722 
L 3047 1722 
L 2188 4044 
z
M 1831 4666 
L 2547 4666 
L 4325 0 
L 3669 0 
L 3244 1197 
L 1141 1197 
L 716 0 
L 50 0 
L 1831 4666 
z
" transform="scale(0.015625)"/>
      <path id="DejaVuSans-52" d="M 2841 2188 
Q 3044 2119 3236 1894 
Q 3428 1669 3622 1275 
L 4263 0 
L 3584 0 
L 2988 1197 
Q 2756 1666 2539 1819 
Q 2322 1972 1947 1972 
L 1259 1972 
L 1259 0 
L 628 0 
L 628 4666 
L 2053 4666 
Q 2853 4666 3247 4331 
Q 3641 3997 3641 3322 
Q 3641 2881 3436 2590 
Q 3231 2300 2841 2188 
z
M 1259 4147 
L 1259 2491 
L 2053 2491 
Q 2509 2491 2742 2702 
Q 2975 2913 2975 3322 
Q 2975 3731 2742 3939 
Q 2509 4147 2053 4147 
L 1259 4147 
z
" transform="scale(0.015625)"/>
      <path id="DejaVuSans-2e" d="M 684 794 
L 1344 794 
L 1344 0 
L 684 0 
L 684 794 
z
" transform="scale(0.015625)"/>
      <path id="DejaVuSans-50" d="M 1259 4147 
L 1259 2394 
L 2053 2394 
Q 2494 2394 2734 2622 
Q 2975 2850 2975 3272 
Q 2975 3691 2734 3919 
Q 2494 4147 2053 4147 
L 1259 4147 
z
M 628 4666 
L 2053 4666 
Q 2838 4666 3239 4311 
Q 3641 3956 3641 3272 
Q 3641 2581 3239 2228 
Q 2838 1875 2053 1875 
L 1259 1875 
L 1259 0 
L 628 0 
L 628 4666 
z
" transform="scale(0.015625)"/>
      <path id="DejaVuSans-53" d="M 3425 4513 
L 3425 3897 
Q 3066 4069 2747 4153 
Q 2428 4238 2131 4238 
Q 1616 4238 1336 4038 
Q 1056 3838 1056 3469 
Q 1056 3159 1242 3001 
Q 1428 2844 1947 2747 
L 2328 2669 
Q 3034 2534 3370 2195 
Q 3706 1856 3706 1288 
Q 3706 609 3251 259 
Q 2797 -91 1919 -91 
Q 1588 -91 1214 -16 
Q 841 59 441 206 
L 441 856 
Q 825 641 1194 531 
Q 1563 422 1919 422 
Q 2459 422 2753 634 
Q 3047 847 3047 1241 
Q 3047 1584 2836 1778 
Q 2625 1972 2144 2069 
L 1759 2144 
Q 1053 2284 737 2584 
Q 422 2884 422 3419 
Q 422 4038 858 4394 
Q 1294 4750 2059 4750 
Q 2388 4750 2728 4690 
Q 3069 4631 3425 4513 
z
" transform="scale(0.015625)"/>
      <path id="DejaVuSans-66" d="M 2375 4863 
L 2375 4384 
L 1825 4384 
Q 1516 4384 1395 4259 
Q 1275 4134 1275 3809 
L 1275 3500 
L 2222 3500 
L 2222 3053 
L 1275 3053 
L 1275 0 
L 697 0 
L 697 3053 
L 147 3053 
L 147 3500 
L 697 3500 
L 697 3744 
Q 697 4328 969 4595 
Q 1241 4863 1831 4863 
L 2375 4863 
z
" transform="scale(0.015625)"/>
      <path id="DejaVuSans-63" d="M 3122 3366 
L 3122 2828 
Q 2878 2963 2633 3030 
Q 2388 3097 2138 3097 
Q 1578 3097 1268 2742 
Q 959 2388 959 1747 
Q 959 1106 1268 751 
Q 1578 397 2138 397 
Q 2388 397 2633 464 
Q 2878 531 3122 666 
L 3122 134 
Q 2881 22 2623 -34 
Q 2366 -91 2075 -91 
Q 1284 -91 818 406 
Q 353 903 353 1747 
Q 353 2603 823 3093 
Q 1294 3584 2113 3584 
Q 2378 3584 2631 3529 
Q 2884 3475 3122 3366 
z
" transform="scale(0.015625)"/>
      <path id="DejaVuSans-2c" d="M 750 794 
L 1409 794 
L 1409 256 
L 897 -744 
L 494 -744 
L 750 256 
L 750 794 
z
" transform="scale(0.015625)"/>
      <path id="DejaVuSans-6c" d="M 603 4863 
L 1178 4863 
L 1178 0 
L 603 0 
L 603 4863 
z
" transform="scale(0.015625)"/>
      <path id="DejaVuSans-5f" d="M 3263 -1063 
L 3263 -1509 
L -63 -1509 
L -63 -1063 
L 3263 -1063 
z
" transform="scale(0.015625)"/>
     </defs>
     <use xlink:href="#DejaVuSans-4d"/>
     <use xlink:href="#DejaVuSans-65" x="86.279297"/>
     <use xlink:href="#DejaVuSans-64" x="147.802734"/>
     <use xlink:href="#DejaVuSans-69" x="211.279297"/>
     <use xlink:href="#DejaVuSans-61" x="239.0625"/>
     <use xlink:href="#DejaVuSans-6e" x="300.341797"/>
     <use xlink:href="#DejaVuSans-20" x="363.720703"/>
     <use xlink:href="#DejaVuSans-41" x="395.507812"/>
     <use xlink:href="#DejaVuSans-76" x="458.041016"/>
     <use xlink:href="#DejaVuSans-65" x="517.220703"/>
     <use xlink:href="#DejaVuSans-72" x="578.744141"/>
     <use xlink:href="#DejaVuSans-61" x="619.857422"/>
     <use xlink:href="#DejaVuSans-67" x="681.136719"/>
     <use xlink:href="#DejaVuSans-65" x="744.613281"/>
     <use xlink:href="#DejaVuSans-20" x="806.136719"/>
     <use xlink:href="#DejaVuSans-52" x="837.923828"/>
     <use xlink:href="#DejaVuSans-75" x="902.90625"/>
     <use xlink:href="#DejaVuSans-6e" x="966.285156"/>
     <use xlink:href="#DejaVuSans-74" x="1029.664062"/>
     <use xlink:href="#DejaVuSans-69" x="1068.873047"/>
     <use xlink:href="#DejaVuSans-6d" x="1096.65625"/>
     <use xlink:href="#DejaVuSans-65" x="1194.068359"/>
     <use xlink:href="#DejaVuSans-20" x="1255.591797"/>
     <use xlink:href="#DejaVuSans-76" x="1287.378906"/>
     <use xlink:href="#DejaVuSans-73" x="1346.558594"/>
     <use xlink:href="#DejaVuSans-2e" x="1398.658203"/>
     <use xlink:href="#DejaVuSans-20" x="1430.445312"/>
     <use xlink:href="#DejaVuSans-4d" x="1462.232422"/>
     <use xlink:href="#DejaVuSans-61" x="1548.511719"/>
     <use xlink:href="#DejaVuSans-78" x="1609.791016"/>
     <use xlink:href="#DejaVuSans-2e" x="1668.970703"/>
     <use xlink:href="#DejaVuSans-20" x="1700.757812"/>
     <use xlink:href="#DejaVuSans-50" x="1732.544922"/>
     <use xlink:href="#DejaVuSans-72" x="1791.097656"/>
     <use xlink:href="#DejaVuSans-6f" x="1829.960938"/>
     <use xlink:href="#DejaVuSans-67" x="1891.142578"/>
     <use xlink:href="#DejaVuSans-72" x="1954.619141"/>
     <use xlink:href="#DejaVuSans-61" x="1995.732422"/>
     <use xlink:href="#DejaVuSans-6d" x="2057.011719"/>
     <use xlink:href="#DejaVuSans-20" x="2154.423828"/>
     <use xlink:href="#DejaVuSans-53" x="2186.210938"/>
     <use xlink:href="#DejaVuSans-69" x="2249.6875"/>
     <use xlink:href="#DejaVuSans-7a" x="2277.470703"/>
     <use xlink:href="#DejaVuSans-65" x="2329.960938"/>
     <use xlink:href="#DejaVuSans-20" x="2391.484375"/>
     <use xlink:href="#DejaVuSans-28" x="2423.271484"/>
     <use xlink:href="#DejaVuSans-31" x="2462.285156"/>
     <use xlink:href="#DejaVuSans-30" x="2525.908203"/>
     <use xlink:href="#DejaVuSans-30" x="2589.53125"/>
     <use xlink:href="#DejaVuSans-30" x="2653.154297"/>
     <use xlink:href="#DejaVuSans-20" x="2716.777344"/>
     <use xlink:href="#DejaVuSans-66" x="2748.564453"/>
     <use xlink:href="#DejaVuSans-2e" x="2776.519531"/>
     <use xlink:href="#DejaVuSans-63" x="2808.306641"/>
     <use xlink:href="#DejaVuSans-2e" x="2863.287109"/>
     <use xlink:href="#DejaVuSans-2c" x="2895.074219"/>
     <use xlink:href="#DejaVuSans-20" x="2926.861328"/>
     <use xlink:href="#DejaVuSans-6e" x="2958.648438"/>
     <use xlink:href="#DejaVuSans-69" x="3022.027344"/>
     <use xlink:href="#DejaVuSans-63" x="3049.810547"/>
     <use xlink:href="#DejaVuSans-6f" x="3104.791016"/>
     <use xlink:href="#DejaVuSans-6c" x="3165.972656"/>
     <use xlink:href="#DejaVuSans-61" x="3193.755859"/>
     <use xlink:href="#DejaVuSans-75" x="3255.035156"/>
     <use xlink:href="#DejaVuSans-5f" x="3318.414062"/>
     <use xlink:href="#DejaVuSans-62" x="3368.414062"/>
     <use xlink:href="#DejaVuSans-29" x="3431.890625"/>
    </g>
   </g>
   <g id="legend_1">
    <g id="patch_7">
     <path d="M 61 115.950625 
L 171.19375 115.950625 
Q 173.19375 115.950625 173.19375 113.950625 
L 173.19375 41.56 
Q 173.19375 39.56 171.19375 39.56 
L 61 39.56 
Q 59 39.56 59 41.56 
L 59 113.950625 
Q 59 115.950625 61 115.950625 
z
" style="fill: #ffffff; opacity: 0.8; stroke: #cccccc; stroke-linejoin: miter"/>
    </g>
    <g id="line2d_50">
     <path d="M 63 47.658437 
L 73 47.658437 
L 83 47.658437 
" style="fill: none; stroke: #1f77b4; stroke-width: 1.5; stroke-linecap: square"/>
    </g>
    <g id="text_15">
     <!-- DEAP -->
     <g transform="translate(91 51.158437)scale(0.1 -0.1)">
      <defs>
       <path id="DejaVuSans-44" d="M 1259 4147 
L 1259 519 
L 2022 519 
Q 2988 519 3436 956 
Q 3884 1394 3884 2338 
Q 3884 3275 3436 3711 
Q 2988 4147 2022 4147 
L 1259 4147 
z
M 628 4666 
L 1925 4666 
Q 3281 4666 3915 4102 
Q 4550 3538 4550 2338 
Q 4550 1131 3912 565 
Q 3275 0 1925 0 
L 628 0 
L 628 4666 
z
" transform="scale(0.015625)"/>
       <path id="DejaVuSans-45" d="M 628 4666 
L 3578 4666 
L 3578 4134 
L 1259 4134 
L 1259 2753 
L 3481 2753 
L 3481 2222 
L 1259 2222 
L 1259 531 
L 3634 531 
L 3634 0 
L 628 0 
L 628 4666 
z
" transform="scale(0.015625)"/>
      </defs>
      <use xlink:href="#DejaVuSans-44"/>
      <use xlink:href="#DejaVuSans-45" x="77.001953"/>
      <use xlink:href="#DejaVuSans-41" x="140.185547"/>
      <use xlink:href="#DejaVuSans-50" x="208.59375"/>
     </g>
    </g>
    <g id="line2d_51">
     <path d="M 63 62.336562 
L 73 62.336562 
L 83 62.336562 
" style="fill: none; stroke: #ff7f0e; stroke-width: 1.5; stroke-linecap: square"/>
    </g>
    <g id="text_16">
     <!-- TensorGP (CPU) -->
     <g transform="translate(91 65.836562)scale(0.1 -0.1)">
      <defs>
       <path id="DejaVuSans-54" d="M -19 4666 
L 3928 4666 
L 3928 4134 
L 2272 4134 
L 2272 0 
L 1638 0 
L 1638 4134 
L -19 4134 
L -19 4666 
z
" transform="scale(0.015625)"/>
       <path id="DejaVuSans-47" d="M 3809 666 
L 3809 1919 
L 2778 1919 
L 2778 2438 
L 4434 2438 
L 4434 434 
Q 4069 175 3628 42 
Q 3188 -91 2688 -91 
Q 1594 -91 976 548 
Q 359 1188 359 2328 
Q 359 3472 976 4111 
Q 1594 4750 2688 4750 
Q 3144 4750 3555 4637 
Q 3966 4525 4313 4306 
L 4313 3634 
Q 3963 3931 3569 4081 
Q 3175 4231 2741 4231 
Q 1884 4231 1454 3753 
Q 1025 3275 1025 2328 
Q 1025 1384 1454 906 
Q 1884 428 2741 428 
Q 3075 428 3337 486 
Q 3600 544 3809 666 
z
" transform="scale(0.015625)"/>
       <path id="DejaVuSans-43" d="M 4122 4306 
L 4122 3641 
Q 3803 3938 3442 4084 
Q 3081 4231 2675 4231 
Q 1875 4231 1450 3742 
Q 1025 3253 1025 2328 
Q 1025 1406 1450 917 
Q 1875 428 2675 428 
Q 3081 428 3442 575 
Q 3803 722 4122 1019 
L 4122 359 
Q 3791 134 3420 21 
Q 3050 -91 2638 -91 
Q 1578 -91 968 557 
Q 359 1206 359 2328 
Q 359 3453 968 4101 
Q 1578 4750 2638 4750 
Q 3056 4750 3426 4639 
Q 3797 4528 4122 4306 
z
" transform="scale(0.015625)"/>
       <path id="DejaVuSans-55" d="M 556 4666 
L 1191 4666 
L 1191 1831 
Q 1191 1081 1462 751 
Q 1734 422 2344 422 
Q 2950 422 3222 751 
Q 3494 1081 3494 1831 
L 3494 4666 
L 4128 4666 
L 4128 1753 
Q 4128 841 3676 375 
Q 3225 -91 2344 -91 
Q 1459 -91 1007 375 
Q 556 841 556 1753 
L 556 4666 
z
" transform="scale(0.015625)"/>
      </defs>
      <use xlink:href="#DejaVuSans-54"/>
      <use xlink:href="#DejaVuSans-65" x="44.083984"/>
      <use xlink:href="#DejaVuSans-6e" x="105.607422"/>
      <use xlink:href="#DejaVuSans-73" x="168.986328"/>
      <use xlink:href="#DejaVuSans-6f" x="221.085938"/>
      <use xlink:href="#DejaVuSans-72" x="282.267578"/>
      <use xlink:href="#DejaVuSans-47" x="323.380859"/>
      <use xlink:href="#DejaVuSans-50" x="400.871094"/>
      <use xlink:href="#DejaVuSans-20" x="461.173828"/>
      <use xlink:href="#DejaVuSans-28" x="492.960938"/>
      <use xlink:href="#DejaVuSans-43" x="531.974609"/>
      <use xlink:href="#DejaVuSans-50" x="601.798828"/>
      <use xlink:href="#DejaVuSans-55" x="662.101562"/>
      <use xlink:href="#DejaVuSans-29" x="735.294922"/>
     </g>
    </g>
    <g id="line2d_52">
     <path d="M 63 77.014687 
L 73 77.014687 
L 83 77.014687 
" style="fill: none; stroke: #2ca02c; stroke-width: 1.5; stroke-linecap: square"/>
    </g>
    <g id="text_17">
     <!-- TensorGP (GPU) -->
     <g transform="translate(91 80.514687)scale(0.1 -0.1)">
      <use xlink:href="#DejaVuSans-54"/>
      <use xlink:href="#DejaVuSans-65" x="44.083984"/>
      <use xlink:href="#DejaVuSans-6e" x="105.607422"/>
      <use xlink:href="#DejaVuSans-73" x="168.986328"/>
      <use xlink:href="#DejaVuSans-6f" x="221.085938"/>
      <use xlink:href="#DejaVuSans-72" x="282.267578"/>
      <use xlink:href="#DejaVuSans-47" x="323.380859"/>
      <use xlink:href="#DejaVuSans-50" x="400.871094"/>
      <use xlink:href="#DejaVuSans-20" x="461.173828"/>
      <use xlink:href="#DejaVuSans-28" x="492.960938"/>
      <use xlink:href="#DejaVuSans-47" x="531.974609"/>
      <use xlink:href="#DejaVuSans-50" x="609.464844"/>
      <use xlink:href="#DejaVuSans-55" x="669.767578"/>
      <use xlink:href="#DejaVuSans-29" x="742.960938"/>
     </g>
    </g>
    <g id="line2d_53">
     <path d="M 63 91.692813 
L 73 91.692813 
L 83 91.692813 
" style="fill: none; stroke: #d62728; stroke-width: 1.5; stroke-linecap: square"/>
    </g>
    <g id="text_18">
     <!-- Operon -->
     <g transform="translate(91 95.192813)scale(0.1 -0.1)">
      <defs>
       <path id="DejaVuSans-4f" d="M 2522 4238 
Q 1834 4238 1429 3725 
Q 1025 3213 1025 2328 
Q 1025 1447 1429 934 
Q 1834 422 2522 422 
Q 3209 422 3611 934 
Q 4013 1447 4013 2328 
Q 4013 3213 3611 3725 
Q 3209 4238 2522 4238 
z
M 2522 4750 
Q 3503 4750 4090 4092 
Q 4678 3434 4678 2328 
Q 4678 1225 4090 567 
Q 3503 -91 2522 -91 
Q 1538 -91 948 565 
Q 359 1222 359 2328 
Q 359 3434 948 4092 
Q 1538 4750 2522 4750 
z
" transform="scale(0.015625)"/>
      </defs>
      <use xlink:href="#DejaVuSans-4f"/>
      <use xlink:href="#DejaVuSans-70" x="78.710938"/>
      <use xlink:href="#DejaVuSans-65" x="142.1875"/>
      <use xlink:href="#DejaVuSans-72" x="203.710938"/>
      <use xlink:href="#DejaVuSans-6f" x="242.574219"/>
      <use xlink:href="#DejaVuSans-6e" x="303.755859"/>
     </g>
    </g>
    <g id="line2d_54">
     <path d="M 63 106.370937 
L 73 106.370937 
L 83 106.370937 
" style="fill: none; stroke: #9467bd; stroke-width: 1.5; stroke-linecap: square"/>
    </g>
    <g id="text_19">
     <!-- FPGA -->
     <g transform="translate(91 109.870937)scale(0.1 -0.1)">
      <defs>
       <path id="DejaVuSans-46" d="M 628 4666 
L 3309 4666 
L 3309 4134 
L 1259 4134 
L 1259 2759 
L 3109 2759 
L 3109 2228 
L 1259 2228 
L 1259 0 
L 628 0 
L 628 4666 
z
" transform="scale(0.015625)"/>
      </defs>
      <use xlink:href="#DejaVuSans-46"/>
      <use xlink:href="#DejaVuSans-50" x="57.519531"/>
      <use xlink:href="#DejaVuSans-47" x="117.822266"/>
      <use xlink:href="#DejaVuSans-41" x="195.3125"/>
     </g>
    </g>
   </g>
  </g>
 </g>
 <defs>
  <clipPath id="p3d1b6f5b1b">
   <rect x="54" y="34.56" width="334.8" height="217.44"/>
  </clipPath>
 </defs>
</svg>
