<?xml version="1.0" encoding="utf-8" standalone="no"?>
<!DOCTYPE svg PUBLIC "-//W3C//DTD SVG 1.1//EN"
  "http://www.w3.org/Graphics/SVG/1.1/DTD/svg11.dtd">
<svg xmlns:xlink="http://www.w3.org/1999/xlink" width="921.6pt" height="633.6pt" viewBox="0 0 921.6 633.6" xmlns="http://www.w3.org/2000/svg" version="1.1">
 <metadata>
  <rdf:RDF xmlns:dc="http://purl.org/dc/elements/1.1/" xmlns:cc="http://creativecommons.org/ns#" xmlns:rdf="http://www.w3.org/1999/02/22-rdf-syntax-ns#">
   <cc:Work>
    <dc:type rdf:resource="http://purl.org/dc/dcmitype/StillImage"/>
    <dc:date>2022-11-02T00:25:57.240432</dc:date>
    <dc:format>image/svg+xml</dc:format>
    <dc:creator>
     <cc:Agent>
      <dc:title>Matplotlib v3.5.3, https://matplotlib.org/</dc:title>
     </cc:Agent>
    </dc:creator>
   </cc:Work>
  </rdf:RDF>
 </metadata>
 <defs>
  <style type="text/css">*{stroke-linejoin: round; stroke-linecap: butt}</style>
 </defs>
 <g id="figure_1">
  <g id="patch_1">
   <path d="M 0 633.6 
L 921.6 633.6 
L 921.6 0 
L 0 0 
z
" style="fill: #ffffff"/>
  </g>
  <g id="axes_1">
   <g id="patch_2">
    <path d="M 115.2 563.904 
L 829.44 563.904 
L 829.44 76.032 
L 115.2 76.032 
z
" style="fill: #ffffff"/>
   </g>
   <g id="PolyCollection_1">
    <defs>
     <path id="m40d77e52d5" d="M 147.665455 -91.872 
L 147.665455 -91.872 
L 168.610909 -117.623367 
L 189.556364 -125.918511 
L 210.501818 -135.743086 
L 231.447273 -138.620292 
L 252.392727 -140.071328 
L 273.338182 -141.719824 
L 294.283636 -143.232382 
L 315.229091 -145.140882 
L 336.174545 -146.312158 
L 357.12 -145.473839 
L 378.065455 -147.670947 
L 399.010909 -146.90836 
L 419.956364 -147.429865 
L 440.901818 -147.702323 
L 461.847273 -148.700282 
L 482.792727 -148.445554 
L 503.738182 -148.762229 
L 524.683636 -149.140783 
L 545.629091 -149.67265 
L 566.574545 -149.60189 
L 587.52 -150.242958 
L 608.465455 -149.835372 
L 629.410909 -149.992581 
L 650.356364 -149.692534 
L 671.301818 -151.262546 
L 692.247273 -151.091202 
L 713.192727 -151.281978 
L 734.138182 -151.012532 
L 755.083636 -151.393215 
L 776.029091 -152.305415 
L 796.974545 -152.006887 
L 796.974545 -152.006887 
L 796.974545 -152.006887 
L 776.029091 -152.305415 
L 755.083636 -151.393215 
L 734.138182 -151.012532 
L 713.192727 -151.281978 
L 692.247273 -151.091202 
L 671.301818 -151.262546 
L 650.356364 -149.692534 
L 629.410909 -149.992581 
L 608.465455 -149.835372 
L 587.52 -150.242958 
L 566.574545 -149.60189 
L 545.629091 -149.67265 
L 524.683636 -149.140783 
L 503.738182 -148.762229 
L 482.792727 -148.445554 
L 461.847273 -148.700282 
L 440.901818 -147.702323 
L 419.956364 -147.429865 
L 399.010909 -146.90836 
L 378.065455 -147.670947 
L 357.12 -145.473839 
L 336.174545 -146.312158 
L 315.229091 -145.140882 
L 294.283636 -143.232382 
L 273.338182 -141.719824 
L 252.392727 -140.071328 
L 231.447273 -138.620292 
L 210.501818 -135.743086 
L 189.556364 -125.918511 
L 168.610909 -117.623367 
L 147.665455 -91.872 
z
" style="stroke: #deb887; stroke-width: 0.48"/>
    </defs>
    <g clip-path="url(#pcb1a7c2ee6)">
     <use xlink:href="#m40d77e52d5" x="0" y="633.6" style="fill: #deb887; stroke: #deb887; stroke-width: 0.48"/>
    </g>
   </g>
   <g id="PolyCollection_2">
    <defs>
     <path id="mf0528f2456" d="M 147.665455 -218.381319 
L 147.665455 -218.381319 
L 168.610909 -257.524001 
L 189.556364 -266.312208 
L 210.501818 -271.889338 
L 231.447273 -284.713007 
L 252.392727 -286.819816 
L 273.338182 -283.36047 
L 294.283636 -285.127525 
L 315.229091 -288.398735 
L 336.174545 -291.783454 
L 357.12 -291.687462 
L 378.065455 -294.448729 
L 399.010909 -291.584858 
L 419.956364 -292.939354 
L 440.901818 -296.668776 
L 461.847273 -294.797184 
L 482.792727 -292.534753 
L 503.738182 -296.950366 
L 524.683636 -297.39048 
L 545.629091 -300.780411 
L 566.574545 -300.934518 
L 587.52 -302.043852 
L 608.465455 -304.260067 
L 629.410909 -302.686154 
L 650.356364 -302.695115 
L 671.301818 -308.739681 
L 692.247273 -290.994351 
L 713.192727 -300.810194 
L 734.138182 -305.303829 
L 755.083636 -307.146627 
L 776.029091 -307.481771 
L 796.974545 -311.320499 
L 796.974545 -311.320499 
L 796.974545 -311.320499 
L 776.029091 -307.481771 
L 755.083636 -307.146627 
L 734.138182 -305.303829 
L 713.192727 -300.810194 
L 692.247273 -290.994351 
L 671.301818 -308.739681 
L 650.356364 -302.695115 
L 629.410909 -302.686154 
L 608.465455 -304.260067 
L 587.52 -302.043852 
L 566.574545 -300.934518 
L 545.629091 -300.780411 
L 524.683636 -297.39048 
L 503.738182 -296.950366 
L 482.792727 -292.534753 
L 461.847273 -294.797184 
L 440.901818 -296.668776 
L 419.956364 -292.939354 
L 399.010909 -291.584858 
L 378.065455 -294.448729 
L 357.12 -291.687462 
L 336.174545 -291.783454 
L 315.229091 -288.398735 
L 294.283636 -285.127525 
L 273.338182 -283.36047 
L 252.392727 -286.819816 
L 231.447273 -284.713007 
L 210.501818 -271.889338 
L 189.556364 -266.312208 
L 168.610909 -257.524001 
L 147.665455 -218.381319 
z
" style="stroke: #deb887; stroke-width: 0.48"/>
    </defs>
    <g clip-path="url(#pcb1a7c2ee6)">
     <use xlink:href="#mf0528f2456" x="0" y="633.6" style="fill: #deb887; stroke: #deb887; stroke-width: 0.48"/>
    </g>
   </g>
   <g id="PolyCollection_3">
    <defs>
     <path id="md8ecb32098" d="M 147.665455 -245.197097 
L 147.665455 -245.197097 
L 168.610909 -284.239554 
L 189.556364 -297.401942 
L 210.501818 -306.54333 
L 231.447273 -310.446336 
L 252.392727 -304.614276 
L 273.338182 -316.949825 
L 294.283636 -319.299836 
L 315.229091 -321.772634 
L 336.174545 -323.719956 
L 357.12 -324.709354 
L 378.065455 -325.774622 
L 399.010909 -326.868997 
L 419.956364 -327.578025 
L 440.901818 -328.490142 
L 461.847273 -328.706561 
L 482.792727 -328.988716 
L 503.738182 -329.421615 
L 524.683636 -329.228221 
L 545.629091 -330.595765 
L 566.574545 -331.429788 
L 587.52 -331.312705 
L 608.465455 -331.620959 
L 629.410909 -331.915995 
L 650.356364 -332.511368 
L 671.301818 -333.700691 
L 692.247273 -333.549832 
L 713.192727 -332.885246 
L 734.138182 -333.794373 
L 755.083636 -333.747773 
L 776.029091 -335.086461 
L 796.974545 -334.689545 
L 796.974545 -334.689545 
L 796.974545 -334.689545 
L 776.029091 -335.086461 
L 755.083636 -333.747773 
L 734.138182 -333.794373 
L 713.192727 -332.885246 
L 692.247273 -333.549832 
L 671.301818 -333.700691 
L 650.356364 -332.511368 
L 629.410909 -331.915995 
L 608.465455 -331.620959 
L 587.52 -331.312705 
L 566.574545 -331.429788 
L 545.629091 -330.595765 
L 524.683636 -329.228221 
L 503.738182 -329.421615 
L 482.792727 -328.988716 
L 461.847273 -328.706561 
L 440.901818 -328.490142 
L 419.956364 -327.578025 
L 399.010909 -326.868997 
L 378.065455 -325.774622 
L 357.12 -324.709354 
L 336.174545 -323.719956 
L 315.229091 -321.772634 
L 294.283636 -319.299836 
L 273.338182 -316.949825 
L 252.392727 -304.614276 
L 231.447273 -310.446336 
L 210.501818 -306.54333 
L 189.556364 -297.401942 
L 168.610909 -284.239554 
L 147.665455 -245.197097 
z
" style="stroke: #deb887; stroke-width: 0.48"/>
    </defs>
    <g clip-path="url(#pcb1a7c2ee6)">
     <use xlink:href="#md8ecb32098" x="0" y="633.6" style="fill: #deb887; stroke: #deb887; stroke-width: 0.48"/>
    </g>
   </g>
   <g id="PolyCollection_4">
    <defs>
     <path id="m72078dbe4c" d="M 147.665455 -418.561068 
L 147.665455 -418.561068 
L 168.610909 -436.461036 
L 189.556364 -434.512635 
L 210.501818 -437.358467 
L 231.447273 -442.063162 
L 252.392727 -444.622504 
L 273.338182 -451.537167 
L 294.283636 -451.323753 
L 315.229091 -445.639965 
L 336.174545 -454.811401 
L 357.12 -449.009212 
L 378.065455 -454.133776 
L 399.010909 -460.265519 
L 419.956364 -459.064245 
L 440.901818 -470.302587 
L 461.847273 -468.938277 
L 482.792727 -462.919852 
L 503.738182 -466.638729 
L 524.683636 -463.140237 
L 545.629091 -474.111181 
L 566.574545 -478.34662 
L 587.52 -483.870697 
L 608.465455 -486.671858 
L 629.410909 -494.311044 
L 650.356364 -484.732411 
L 671.301818 -496.084606 
L 692.247273 -502.430281 
L 713.192727 -505.139436 
L 734.138182 -507.745487 
L 755.083636 -518.63302 
L 776.029091 -522.832541 
L 796.974545 -529.10089 
L 796.974545 -529.10089 
L 796.974545 -535.392 
L 776.029091 -525.51628 
L 755.083636 -521.69883 
L 734.138182 -509.778128 
L 713.192727 -511.333102 
L 692.247273 -507.287095 
L 671.301818 -500.556416 
L 650.356364 -495.051898 
L 629.410909 -497.589931 
L 608.465455 -493.662415 
L 587.52 -486.808489 
L 566.574545 -483.328108 
L 545.629091 -476.374007 
L 524.683636 -471.396182 
L 503.738182 -468.868764 
L 482.792727 -467.066268 
L 461.847273 -478.877001 
L 440.901818 -473.081443 
L 419.956364 -465.250383 
L 399.010909 -463.834414 
L 378.065455 -459.669339 
L 357.12 -452.522504 
L 336.174545 -456.805965 
L 315.229091 -449.839183 
L 294.283636 -455.010924 
L 273.338182 -454.728127 
L 252.392727 -448.247012 
L 231.447273 -444.052614 
L 210.501818 -451.412362 
L 189.556364 -449.142948 
L 168.610909 -444.094537 
L 147.665455 -430.911827 
z
" style="stroke: #deb887; stroke-width: 0.48"/>
    </defs>
    <g clip-path="url(#pcb1a7c2ee6)">
     <use xlink:href="#m72078dbe4c" x="0" y="633.6" style="fill: #deb887; stroke: #deb887; stroke-width: 0.48"/>
    </g>
   </g>
   <g id="PolyCollection_5">
    <defs>
     <path id="m844c479365" d="M 147.665455 -280.709136 
L 147.665455 -280.709136 
L 168.610909 -334.510511 
L 189.556364 -362.005511 
L 210.501818 -383.815055 
L 231.447273 -396.473593 
L 252.392727 -408.183358 
L 273.338182 -417.919381 
L 294.283636 -426.051624 
L 315.229091 -433.536802 
L 336.174545 -439.901562 
L 357.12 -445.709845 
L 378.065455 -451.050568 
L 399.010909 -455.837156 
L 419.956364 -460.593234 
L 440.901818 -464.447314 
L 461.847273 -468.508244 
L 482.792727 -472.04734 
L 503.738182 -475.490397 
L 524.683636 -478.832853 
L 545.629091 -481.75492 
L 566.574545 -484.723615 
L 587.52 -487.525762 
L 608.465455 -490.228538 
L 629.410909 -492.734491 
L 650.356364 -495.173239 
L 671.301818 -497.607188 
L 692.247273 -499.871001 
L 713.192727 -501.913182 
L 734.138182 -504.140865 
L 755.083636 -506.166924 
L 776.029091 -508.054101 
L 796.974545 -509.857117 
L 796.974545 -509.857117 
L 796.974545 -509.857117 
L 776.029091 -508.054101 
L 755.083636 -506.166924 
L 734.138182 -504.140865 
L 713.192727 -501.913182 
L 692.247273 -499.871001 
L 671.301818 -497.607188 
L 650.356364 -495.173239 
L 629.410909 -492.734491 
L 608.465455 -490.228538 
L 587.52 -487.525762 
L 566.574545 -484.723615 
L 545.629091 -481.75492 
L 524.683636 -478.832853 
L 503.738182 -475.490397 
L 482.792727 -472.04734 
L 461.847273 -468.508244 
L 440.901818 -464.447314 
L 419.956364 -460.593234 
L 399.010909 -455.837156 
L 378.065455 -451.050568 
L 357.12 -445.709845 
L 336.174545 -439.901562 
L 315.229091 -433.536802 
L 294.283636 -426.051624 
L 273.338182 -417.919381 
L 252.392727 -408.183358 
L 231.447273 -396.473593 
L 210.501818 -383.815055 
L 189.556364 -362.005511 
L 168.610909 -334.510511 
L 147.665455 -280.709136 
z
" style="stroke: #deb887; stroke-width: 0.48"/>
    </defs>
    <g clip-path="url(#pcb1a7c2ee6)">
     <use xlink:href="#m844c479365" x="0" y="633.6" style="fill: #deb887; stroke: #deb887; stroke-width: 0.48"/>
    </g>
   </g>
   <g id="matplotlib.axis_1">
    <g id="xtick_1">
     <g id="line2d_1">
      <defs>
       <path id="md04fb02a96" d="M 0 0 
L 0 3.5 
" style="stroke: #000000; stroke-width: 1.6"/>
      </defs>
      <g>
       <use xlink:href="#md04fb02a96" x="147.665455" y="563.904" style="stroke: #000000; stroke-width: 1.6"/>
      </g>
     </g>
     <g id="text_1">
      <!-- 1, 8 -->
      <g transform="translate(137.170767 586.962281)scale(0.11 -0.11)">
       <defs>
        <path id="DejaVuSans-31" d="M 794 531 
L 1825 531 
L 1825 4091 
L 703 3866 
L 703 4441 
L 1819 4666 
L 2450 4666 
L 2450 531 
L 3481 531 
L 3481 0 
L 794 0 
L 794 531 
z
" transform="scale(0.015625)"/>
        <path id="DejaVuSans-2c" d="M 750 794 
L 1409 794 
L 1409 256 
L 897 -744 
L 494 -744 
L 750 256 
L 750 794 
z
" transform="scale(0.015625)"/>
        <path id="DejaVuSans-20" transform="scale(0.015625)"/>
        <path id="DejaVuSans-38" d="M 2034 2216 
Q 1584 2216 1326 1975 
Q 1069 1734 1069 1313 
Q 1069 891 1326 650 
Q 1584 409 2034 409 
Q 2484 409 2743 651 
Q 3003 894 3003 1313 
Q 3003 1734 2745 1975 
Q 2488 2216 2034 2216 
z
M 1403 2484 
Q 997 2584 770 2862 
Q 544 3141 544 3541 
Q 544 4100 942 4425 
Q 1341 4750 2034 4750 
Q 2731 4750 3128 4425 
Q 3525 4100 3525 3541 
Q 3525 3141 3298 2862 
Q 3072 2584 2669 2484 
Q 3125 2378 3379 2068 
Q 3634 1759 3634 1313 
Q 3634 634 3220 271 
Q 2806 -91 2034 -91 
Q 1263 -91 848 271 
Q 434 634 434 1313 
Q 434 1759 690 2068 
Q 947 2378 1403 2484 
z
M 1172 3481 
Q 1172 3119 1398 2916 
Q 1625 2713 2034 2713 
Q 2441 2713 2670 2916 
Q 2900 3119 2900 3481 
Q 2900 3844 2670 4047 
Q 2441 4250 2034 4250 
Q 1625 4250 1398 4047 
Q 1172 3844 1172 3481 
z
" transform="scale(0.015625)"/>
       </defs>
       <use xlink:href="#DejaVuSans-31"/>
       <use xlink:href="#DejaVuSans-2c" x="63.623047"/>
       <use xlink:href="#DejaVuSans-20" x="95.410156"/>
       <use xlink:href="#DejaVuSans-38" x="127.197266"/>
      </g>
     </g>
    </g>
    <g id="xtick_2">
     <g id="line2d_2">
      <g>
       <use xlink:href="#md04fb02a96" x="273.338182" y="563.904" style="stroke: #000000; stroke-width: 1.6"/>
      </g>
     </g>
     <g id="text_2">
      <!-- 7, 56 -->
      <g transform="translate(259.344119 586.962281)scale(0.11 -0.11)">
       <defs>
        <path id="DejaVuSans-37" d="M 525 4666 
L 3525 4666 
L 3525 4397 
L 1831 0 
L 1172 0 
L 2766 4134 
L 525 4134 
L 525 4666 
z
" transform="scale(0.015625)"/>
        <path id="DejaVuSans-35" d="M 691 4666 
L 3169 4666 
L 3169 4134 
L 1269 4134 
L 1269 2991 
Q 1406 3038 1543 3061 
Q 1681 3084 1819 3084 
Q 2600 3084 3056 2656 
Q 3513 2228 3513 1497 
Q 3513 744 3044 326 
Q 2575 -91 1722 -91 
Q 1428 -91 1123 -41 
Q 819 9 494 109 
L 494 744 
Q 775 591 1075 516 
Q 1375 441 1709 441 
Q 2250 441 2565 725 
Q 2881 1009 2881 1497 
Q 2881 1984 2565 2268 
Q 2250 2553 1709 2553 
Q 1456 2553 1204 2497 
Q 953 2441 691 2322 
L 691 4666 
z
" transform="scale(0.015625)"/>
        <path id="DejaVuSans-36" d="M 2113 2584 
Q 1688 2584 1439 2293 
Q 1191 2003 1191 1497 
Q 1191 994 1439 701 
Q 1688 409 2113 409 
Q 2538 409 2786 701 
Q 3034 994 3034 1497 
Q 3034 2003 2786 2293 
Q 2538 2584 2113 2584 
z
M 3366 4563 
L 3366 3988 
Q 3128 4100 2886 4159 
Q 2644 4219 2406 4219 
Q 1781 4219 1451 3797 
Q 1122 3375 1075 2522 
Q 1259 2794 1537 2939 
Q 1816 3084 2150 3084 
Q 2853 3084 3261 2657 
Q 3669 2231 3669 1497 
Q 3669 778 3244 343 
Q 2819 -91 2113 -91 
Q 1303 -91 875 529 
Q 447 1150 447 2328 
Q 447 3434 972 4092 
Q 1497 4750 2381 4750 
Q 2619 4750 2861 4703 
Q 3103 4656 3366 4563 
z
" transform="scale(0.015625)"/>
       </defs>
       <use xlink:href="#DejaVuSans-37"/>
       <use xlink:href="#DejaVuSans-2c" x="63.623047"/>
       <use xlink:href="#DejaVuSans-20" x="95.410156"/>
       <use xlink:href="#DejaVuSans-35" x="127.197266"/>
       <use xlink:href="#DejaVuSans-36" x="190.820312"/>
      </g>
     </g>
    </g>
    <g id="xtick_3">
     <g id="line2d_3">
      <g>
       <use xlink:href="#md04fb02a96" x="399.010909" y="563.904" style="stroke: #000000; stroke-width: 1.6"/>
      </g>
     </g>
     <g id="text_3">
      <!-- 13, 104 -->
      <g transform="translate(378.018097 586.962281)scale(0.11 -0.11)">
       <defs>
        <path id="DejaVuSans-33" d="M 2597 2516 
Q 3050 2419 3304 2112 
Q 3559 1806 3559 1356 
Q 3559 666 3084 287 
Q 2609 -91 1734 -91 
Q 1441 -91 1130 -33 
Q 819 25 488 141 
L 488 750 
Q 750 597 1062 519 
Q 1375 441 1716 441 
Q 2309 441 2620 675 
Q 2931 909 2931 1356 
Q 2931 1769 2642 2001 
Q 2353 2234 1838 2234 
L 1294 2234 
L 1294 2753 
L 1863 2753 
Q 2328 2753 2575 2939 
Q 2822 3125 2822 3475 
Q 2822 3834 2567 4026 
Q 2313 4219 1838 4219 
Q 1578 4219 1281 4162 
Q 984 4106 628 3988 
L 628 4550 
Q 988 4650 1302 4700 
Q 1616 4750 1894 4750 
Q 2613 4750 3031 4423 
Q 3450 4097 3450 3541 
Q 3450 3153 3228 2886 
Q 3006 2619 2597 2516 
z
" transform="scale(0.015625)"/>
        <path id="DejaVuSans-30" d="M 2034 4250 
Q 1547 4250 1301 3770 
Q 1056 3291 1056 2328 
Q 1056 1369 1301 889 
Q 1547 409 2034 409 
Q 2525 409 2770 889 
Q 3016 1369 3016 2328 
Q 3016 3291 2770 3770 
Q 2525 4250 2034 4250 
z
M 2034 4750 
Q 2819 4750 3233 4129 
Q 3647 3509 3647 2328 
Q 3647 1150 3233 529 
Q 2819 -91 2034 -91 
Q 1250 -91 836 529 
Q 422 1150 422 2328 
Q 422 3509 836 4129 
Q 1250 4750 2034 4750 
z
" transform="scale(0.015625)"/>
        <path id="DejaVuSans-34" d="M 2419 4116 
L 825 1625 
L 2419 1625 
L 2419 4116 
z
M 2253 4666 
L 3047 4666 
L 3047 1625 
L 3713 1625 
L 3713 1100 
L 3047 1100 
L 3047 0 
L 2419 0 
L 2419 1100 
L 313 1100 
L 313 1709 
L 2253 4666 
z
" transform="scale(0.015625)"/>
       </defs>
       <use xlink:href="#DejaVuSans-31"/>
       <use xlink:href="#DejaVuSans-33" x="63.623047"/>
       <use xlink:href="#DejaVuSans-2c" x="127.246094"/>
       <use xlink:href="#DejaVuSans-20" x="159.033203"/>
       <use xlink:href="#DejaVuSans-31" x="190.820312"/>
       <use xlink:href="#DejaVuSans-30" x="254.443359"/>
       <use xlink:href="#DejaVuSans-34" x="318.066406"/>
      </g>
     </g>
    </g>
    <g id="xtick_4">
     <g id="line2d_4">
      <g>
       <use xlink:href="#md04fb02a96" x="524.683636" y="563.904" style="stroke: #000000; stroke-width: 1.6"/>
      </g>
     </g>
     <g id="text_4">
      <!-- 19, 152 -->
      <g transform="translate(503.690824 586.962281)scale(0.11 -0.11)">
       <defs>
        <path id="DejaVuSans-39" d="M 703 97 
L 703 672 
Q 941 559 1184 500 
Q 1428 441 1663 441 
Q 2288 441 2617 861 
Q 2947 1281 2994 2138 
Q 2813 1869 2534 1725 
Q 2256 1581 1919 1581 
Q 1219 1581 811 2004 
Q 403 2428 403 3163 
Q 403 3881 828 4315 
Q 1253 4750 1959 4750 
Q 2769 4750 3195 4129 
Q 3622 3509 3622 2328 
Q 3622 1225 3098 567 
Q 2575 -91 1691 -91 
Q 1453 -91 1209 -44 
Q 966 3 703 97 
z
M 1959 2075 
Q 2384 2075 2632 2365 
Q 2881 2656 2881 3163 
Q 2881 3666 2632 3958 
Q 2384 4250 1959 4250 
Q 1534 4250 1286 3958 
Q 1038 3666 1038 3163 
Q 1038 2656 1286 2365 
Q 1534 2075 1959 2075 
z
" transform="scale(0.015625)"/>
        <path id="DejaVuSans-32" d="M 1228 531 
L 3431 531 
L 3431 0 
L 469 0 
L 469 531 
Q 828 903 1448 1529 
Q 2069 2156 2228 2338 
Q 2531 2678 2651 2914 
Q 2772 3150 2772 3378 
Q 2772 3750 2511 3984 
Q 2250 4219 1831 4219 
Q 1534 4219 1204 4116 
Q 875 4013 500 3803 
L 500 4441 
Q 881 4594 1212 4672 
Q 1544 4750 1819 4750 
Q 2544 4750 2975 4387 
Q 3406 4025 3406 3419 
Q 3406 3131 3298 2873 
Q 3191 2616 2906 2266 
Q 2828 2175 2409 1742 
Q 1991 1309 1228 531 
z
" transform="scale(0.015625)"/>
       </defs>
       <use xlink:href="#DejaVuSans-31"/>
       <use xlink:href="#DejaVuSans-39" x="63.623047"/>
       <use xlink:href="#DejaVuSans-2c" x="127.246094"/>
       <use xlink:href="#DejaVuSans-20" x="159.033203"/>
       <use xlink:href="#DejaVuSans-31" x="190.820312"/>
       <use xlink:href="#DejaVuSans-35" x="254.443359"/>
       <use xlink:href="#DejaVuSans-32" x="318.066406"/>
      </g>
     </g>
    </g>
    <g id="xtick_5">
     <g id="line2d_5">
      <g>
       <use xlink:href="#md04fb02a96" x="650.356364" y="563.904" style="stroke: #000000; stroke-width: 1.6"/>
      </g>
     </g>
     <g id="text_5">
      <!-- 25, 200 -->
      <g transform="translate(629.363551 586.962281)scale(0.11 -0.11)">
       <use xlink:href="#DejaVuSans-32"/>
       <use xlink:href="#DejaVuSans-35" x="63.623047"/>
       <use xlink:href="#DejaVuSans-2c" x="127.246094"/>
       <use xlink:href="#DejaVuSans-20" x="159.033203"/>
       <use xlink:href="#DejaVuSans-32" x="190.820312"/>
       <use xlink:href="#DejaVuSans-30" x="254.443359"/>
       <use xlink:href="#DejaVuSans-30" x="318.066406"/>
      </g>
     </g>
    </g>
    <g id="xtick_6">
     <g id="line2d_6">
      <g>
       <use xlink:href="#md04fb02a96" x="776.029091" y="563.904" style="stroke: #000000; stroke-width: 1.6"/>
      </g>
     </g>
     <g id="text_6">
      <!-- 31, 248 -->
      <g transform="translate(755.036278 586.962281)scale(0.11 -0.11)">
       <use xlink:href="#DejaVuSans-33"/>
       <use xlink:href="#DejaVuSans-31" x="63.623047"/>
       <use xlink:href="#DejaVuSans-2c" x="127.246094"/>
       <use xlink:href="#DejaVuSans-20" x="159.033203"/>
       <use xlink:href="#DejaVuSans-32" x="190.820312"/>
       <use xlink:href="#DejaVuSans-34" x="254.443359"/>
       <use xlink:href="#DejaVuSans-38" x="318.066406"/>
      </g>
     </g>
    </g>
    <g id="text_7">
     <!-- Bin number, maximum program size -->
     <g transform="translate(343.975 603.88775)scale(0.14 -0.14)">
      <defs>
       <path id="DejaVuSans-42" d="M 1259 2228 
L 1259 519 
L 2272 519 
Q 2781 519 3026 730 
Q 3272 941 3272 1375 
Q 3272 1813 3026 2020 
Q 2781 2228 2272 2228 
L 1259 2228 
z
M 1259 4147 
L 1259 2741 
L 2194 2741 
Q 2656 2741 2882 2914 
Q 3109 3088 3109 3444 
Q 3109 3797 2882 3972 
Q 2656 4147 2194 4147 
L 1259 4147 
z
M 628 4666 
L 2241 4666 
Q 2963 4666 3353 4366 
Q 3744 4066 3744 3513 
Q 3744 3084 3544 2831 
Q 3344 2578 2956 2516 
Q 3422 2416 3680 2098 
Q 3938 1781 3938 1306 
Q 3938 681 3513 340 
Q 3088 0 2303 0 
L 628 0 
L 628 4666 
z
" transform="scale(0.015625)"/>
       <path id="DejaVuSans-69" d="M 603 3500 
L 1178 3500 
L 1178 0 
L 603 0 
L 603 3500 
z
M 603 4863 
L 1178 4863 
L 1178 4134 
L 603 4134 
L 603 4863 
z
" transform="scale(0.015625)"/>
       <path id="DejaVuSans-6e" d="M 3513 2113 
L 3513 0 
L 2938 0 
L 2938 2094 
Q 2938 2591 2744 2837 
Q 2550 3084 2163 3084 
Q 1697 3084 1428 2787 
Q 1159 2491 1159 1978 
L 1159 0 
L 581 0 
L 581 3500 
L 1159 3500 
L 1159 2956 
Q 1366 3272 1645 3428 
Q 1925 3584 2291 3584 
Q 2894 3584 3203 3211 
Q 3513 2838 3513 2113 
z
" transform="scale(0.015625)"/>
       <path id="DejaVuSans-75" d="M 544 1381 
L 544 3500 
L 1119 3500 
L 1119 1403 
Q 1119 906 1312 657 
Q 1506 409 1894 409 
Q 2359 409 2629 706 
Q 2900 1003 2900 1516 
L 2900 3500 
L 3475 3500 
L 3475 0 
L 2900 0 
L 2900 538 
Q 2691 219 2414 64 
Q 2138 -91 1772 -91 
Q 1169 -91 856 284 
Q 544 659 544 1381 
z
M 1991 3584 
L 1991 3584 
z
" transform="scale(0.015625)"/>
       <path id="DejaVuSans-6d" d="M 3328 2828 
Q 3544 3216 3844 3400 
Q 4144 3584 4550 3584 
Q 5097 3584 5394 3201 
Q 5691 2819 5691 2113 
L 5691 0 
L 5113 0 
L 5113 2094 
Q 5113 2597 4934 2840 
Q 4756 3084 4391 3084 
Q 3944 3084 3684 2787 
Q 3425 2491 3425 1978 
L 3425 0 
L 2847 0 
L 2847 2094 
Q 2847 2600 2669 2842 
Q 2491 3084 2119 3084 
Q 1678 3084 1418 2786 
Q 1159 2488 1159 1978 
L 1159 0 
L 581 0 
L 581 3500 
L 1159 3500 
L 1159 2956 
Q 1356 3278 1631 3431 
Q 1906 3584 2284 3584 
Q 2666 3584 2933 3390 
Q 3200 3197 3328 2828 
z
" transform="scale(0.015625)"/>
       <path id="DejaVuSans-62" d="M 3116 1747 
Q 3116 2381 2855 2742 
Q 2594 3103 2138 3103 
Q 1681 3103 1420 2742 
Q 1159 2381 1159 1747 
Q 1159 1113 1420 752 
Q 1681 391 2138 391 
Q 2594 391 2855 752 
Q 3116 1113 3116 1747 
z
M 1159 2969 
Q 1341 3281 1617 3432 
Q 1894 3584 2278 3584 
Q 2916 3584 3314 3078 
Q 3713 2572 3713 1747 
Q 3713 922 3314 415 
Q 2916 -91 2278 -91 
Q 1894 -91 1617 61 
Q 1341 213 1159 525 
L 1159 0 
L 581 0 
L 581 4863 
L 1159 4863 
L 1159 2969 
z
" transform="scale(0.015625)"/>
       <path id="DejaVuSans-65" d="M 3597 1894 
L 3597 1613 
L 953 1613 
Q 991 1019 1311 708 
Q 1631 397 2203 397 
Q 2534 397 2845 478 
Q 3156 559 3463 722 
L 3463 178 
Q 3153 47 2828 -22 
Q 2503 -91 2169 -91 
Q 1331 -91 842 396 
Q 353 884 353 1716 
Q 353 2575 817 3079 
Q 1281 3584 2069 3584 
Q 2775 3584 3186 3129 
Q 3597 2675 3597 1894 
z
M 3022 2063 
Q 3016 2534 2758 2815 
Q 2500 3097 2075 3097 
Q 1594 3097 1305 2825 
Q 1016 2553 972 2059 
L 3022 2063 
z
" transform="scale(0.015625)"/>
       <path id="DejaVuSans-72" d="M 2631 2963 
Q 2534 3019 2420 3045 
Q 2306 3072 2169 3072 
Q 1681 3072 1420 2755 
Q 1159 2438 1159 1844 
L 1159 0 
L 581 0 
L 581 3500 
L 1159 3500 
L 1159 2956 
Q 1341 3275 1631 3429 
Q 1922 3584 2338 3584 
Q 2397 3584 2469 3576 
Q 2541 3569 2628 3553 
L 2631 2963 
z
" transform="scale(0.015625)"/>
       <path id="DejaVuSans-61" d="M 2194 1759 
Q 1497 1759 1228 1600 
Q 959 1441 959 1056 
Q 959 750 1161 570 
Q 1363 391 1709 391 
Q 2188 391 2477 730 
Q 2766 1069 2766 1631 
L 2766 1759 
L 2194 1759 
z
M 3341 1997 
L 3341 0 
L 2766 0 
L 2766 531 
Q 2569 213 2275 61 
Q 1981 -91 1556 -91 
Q 1019 -91 701 211 
Q 384 513 384 1019 
Q 384 1609 779 1909 
Q 1175 2209 1959 2209 
L 2766 2209 
L 2766 2266 
Q 2766 2663 2505 2880 
Q 2244 3097 1772 3097 
Q 1472 3097 1187 3025 
Q 903 2953 641 2809 
L 641 3341 
Q 956 3463 1253 3523 
Q 1550 3584 1831 3584 
Q 2591 3584 2966 3190 
Q 3341 2797 3341 1997 
z
" transform="scale(0.015625)"/>
       <path id="DejaVuSans-78" d="M 3513 3500 
L 2247 1797 
L 3578 0 
L 2900 0 
L 1881 1375 
L 863 0 
L 184 0 
L 1544 1831 
L 300 3500 
L 978 3500 
L 1906 2253 
L 2834 3500 
L 3513 3500 
z
" transform="scale(0.015625)"/>
       <path id="DejaVuSans-70" d="M 1159 525 
L 1159 -1331 
L 581 -1331 
L 581 3500 
L 1159 3500 
L 1159 2969 
Q 1341 3281 1617 3432 
Q 1894 3584 2278 3584 
Q 2916 3584 3314 3078 
Q 3713 2572 3713 1747 
Q 3713 922 3314 415 
Q 2916 -91 2278 -91 
Q 1894 -91 1617 61 
Q 1341 213 1159 525 
z
M 3116 1747 
Q 3116 2381 2855 2742 
Q 2594 3103 2138 3103 
Q 1681 3103 1420 2742 
Q 1159 2381 1159 1747 
Q 1159 1113 1420 752 
Q 1681 391 2138 391 
Q 2594 391 2855 752 
Q 3116 1113 3116 1747 
z
" transform="scale(0.015625)"/>
       <path id="DejaVuSans-6f" d="M 1959 3097 
Q 1497 3097 1228 2736 
Q 959 2375 959 1747 
Q 959 1119 1226 758 
Q 1494 397 1959 397 
Q 2419 397 2687 759 
Q 2956 1122 2956 1747 
Q 2956 2369 2687 2733 
Q 2419 3097 1959 3097 
z
M 1959 3584 
Q 2709 3584 3137 3096 
Q 3566 2609 3566 1747 
Q 3566 888 3137 398 
Q 2709 -91 1959 -91 
Q 1206 -91 779 398 
Q 353 888 353 1747 
Q 353 2609 779 3096 
Q 1206 3584 1959 3584 
z
" transform="scale(0.015625)"/>
       <path id="DejaVuSans-67" d="M 2906 1791 
Q 2906 2416 2648 2759 
Q 2391 3103 1925 3103 
Q 1463 3103 1205 2759 
Q 947 2416 947 1791 
Q 947 1169 1205 825 
Q 1463 481 1925 481 
Q 2391 481 2648 825 
Q 2906 1169 2906 1791 
z
M 3481 434 
Q 3481 -459 3084 -895 
Q 2688 -1331 1869 -1331 
Q 1566 -1331 1297 -1286 
Q 1028 -1241 775 -1147 
L 775 -588 
Q 1028 -725 1275 -790 
Q 1522 -856 1778 -856 
Q 2344 -856 2625 -561 
Q 2906 -266 2906 331 
L 2906 616 
Q 2728 306 2450 153 
Q 2172 0 1784 0 
Q 1141 0 747 490 
Q 353 981 353 1791 
Q 353 2603 747 3093 
Q 1141 3584 1784 3584 
Q 2172 3584 2450 3431 
Q 2728 3278 2906 2969 
L 2906 3500 
L 3481 3500 
L 3481 434 
z
" transform="scale(0.015625)"/>
       <path id="DejaVuSans-73" d="M 2834 3397 
L 2834 2853 
Q 2591 2978 2328 3040 
Q 2066 3103 1784 3103 
Q 1356 3103 1142 2972 
Q 928 2841 928 2578 
Q 928 2378 1081 2264 
Q 1234 2150 1697 2047 
L 1894 2003 
Q 2506 1872 2764 1633 
Q 3022 1394 3022 966 
Q 3022 478 2636 193 
Q 2250 -91 1575 -91 
Q 1294 -91 989 -36 
Q 684 19 347 128 
L 347 722 
Q 666 556 975 473 
Q 1284 391 1588 391 
Q 1994 391 2212 530 
Q 2431 669 2431 922 
Q 2431 1156 2273 1281 
Q 2116 1406 1581 1522 
L 1381 1569 
Q 847 1681 609 1914 
Q 372 2147 372 2553 
Q 372 3047 722 3315 
Q 1072 3584 1716 3584 
Q 2034 3584 2315 3537 
Q 2597 3491 2834 3397 
z
" transform="scale(0.015625)"/>
       <path id="DejaVuSans-7a" d="M 353 3500 
L 3084 3500 
L 3084 2975 
L 922 459 
L 3084 459 
L 3084 0 
L 275 0 
L 275 525 
L 2438 3041 
L 353 3041 
L 353 3500 
z
" transform="scale(0.015625)"/>
      </defs>
      <use xlink:href="#DejaVuSans-42"/>
      <use xlink:href="#DejaVuSans-69" x="68.603516"/>
      <use xlink:href="#DejaVuSans-6e" x="96.386719"/>
      <use xlink:href="#DejaVuSans-20" x="159.765625"/>
      <use xlink:href="#DejaVuSans-6e" x="191.552734"/>
      <use xlink:href="#DejaVuSans-75" x="254.931641"/>
      <use xlink:href="#DejaVuSans-6d" x="318.310547"/>
      <use xlink:href="#DejaVuSans-62" x="415.722656"/>
      <use xlink:href="#DejaVuSans-65" x="479.199219"/>
      <use xlink:href="#DejaVuSans-72" x="540.722656"/>
      <use xlink:href="#DejaVuSans-2c" x="581.835938"/>
      <use xlink:href="#DejaVuSans-20" x="613.623047"/>
      <use xlink:href="#DejaVuSans-6d" x="645.410156"/>
      <use xlink:href="#DejaVuSans-61" x="742.822266"/>
      <use xlink:href="#DejaVuSans-78" x="804.101562"/>
      <use xlink:href="#DejaVuSans-69" x="863.28125"/>
      <use xlink:href="#DejaVuSans-6d" x="891.064453"/>
      <use xlink:href="#DejaVuSans-75" x="988.476562"/>
      <use xlink:href="#DejaVuSans-6d" x="1051.855469"/>
      <use xlink:href="#DejaVuSans-20" x="1149.267578"/>
      <use xlink:href="#DejaVuSans-70" x="1181.054688"/>
      <use xlink:href="#DejaVuSans-72" x="1244.53125"/>
      <use xlink:href="#DejaVuSans-6f" x="1283.394531"/>
      <use xlink:href="#DejaVuSans-67" x="1344.576172"/>
      <use xlink:href="#DejaVuSans-72" x="1408.052734"/>
      <use xlink:href="#DejaVuSans-61" x="1449.166016"/>
      <use xlink:href="#DejaVuSans-6d" x="1510.445312"/>
      <use xlink:href="#DejaVuSans-20" x="1607.857422"/>
      <use xlink:href="#DejaVuSans-73" x="1639.644531"/>
      <use xlink:href="#DejaVuSans-69" x="1691.744141"/>
      <use xlink:href="#DejaVuSans-7a" x="1719.527344"/>
      <use xlink:href="#DejaVuSans-65" x="1772.017578"/>
     </g>
    </g>
   </g>
   <g id="matplotlib.axis_2">
    <g id="ytick_1">
     <g id="line2d_7">
      <defs>
       <path id="m22d668ec5e" d="M 0 0 
L -3.5 0 
" style="stroke: #000000; stroke-width: 1.6"/>
      </defs>
      <g>
       <use xlink:href="#m22d668ec5e" x="115.2" y="476.009332" style="stroke: #000000; stroke-width: 1.6"/>
      </g>
     </g>
     <g id="text_8">
      <!-- $\mathdefault{10^{8}}$ -->
      <g transform="translate(81.14 480.188473)scale(0.11 -0.11)">
       <use xlink:href="#DejaVuSans-31" transform="translate(0 0.765625)"/>
       <use xlink:href="#DejaVuSans-30" transform="translate(63.623047 0.765625)"/>
       <use xlink:href="#DejaVuSans-38" transform="translate(128.203125 39.046875)scale(0.7)"/>
      </g>
     </g>
    </g>
    <g id="ytick_2">
     <g id="line2d_8">
      <g>
       <use xlink:href="#m22d668ec5e" x="115.2" y="340.493971" style="stroke: #000000; stroke-width: 1.6"/>
      </g>
     </g>
     <g id="text_9">
      <!-- $\mathdefault{10^{9}}$ -->
      <g transform="translate(81.14 344.673112)scale(0.11 -0.11)">
       <use xlink:href="#DejaVuSans-31" transform="translate(0 0.765625)"/>
       <use xlink:href="#DejaVuSans-30" transform="translate(63.623047 0.765625)"/>
       <use xlink:href="#DejaVuSans-39" transform="translate(128.203125 39.046875)scale(0.7)"/>
      </g>
     </g>
    </g>
    <g id="ytick_3">
     <g id="line2d_9">
      <g>
       <use xlink:href="#m22d668ec5e" x="115.2" y="204.97861" style="stroke: #000000; stroke-width: 1.6"/>
      </g>
     </g>
     <g id="text_10">
      <!-- $\mathdefault{10^{10}}$ -->
      <g transform="translate(76.19 209.15775)scale(0.11 -0.11)">
       <use xlink:href="#DejaVuSans-31" transform="translate(0 0.765625)"/>
       <use xlink:href="#DejaVuSans-30" transform="translate(63.623047 0.765625)"/>
       <use xlink:href="#DejaVuSans-31" transform="translate(128.203125 39.046875)scale(0.7)"/>
       <use xlink:href="#DejaVuSans-30" transform="translate(172.739258 39.046875)scale(0.7)"/>
      </g>
     </g>
    </g>
    <g id="ytick_4">
     <g id="line2d_10">
      <defs>
       <path id="m08fa99c336" d="M 0 0 
L -2 0 
" style="stroke: #000000; stroke-width: 0.8"/>
      </defs>
      <g>
       <use xlink:href="#m08fa99c336" x="115.2" y="546.867435" style="stroke: #000000; stroke-width: 0.8"/>
      </g>
     </g>
    </g>
    <g id="ytick_5">
     <g id="line2d_11">
      <g>
       <use xlink:href="#m08fa99c336" x="115.2" y="529.936317" style="stroke: #000000; stroke-width: 0.8"/>
      </g>
     </g>
    </g>
    <g id="ytick_6">
     <g id="line2d_12">
      <g>
       <use xlink:href="#m08fa99c336" x="115.2" y="516.803521" style="stroke: #000000; stroke-width: 0.8"/>
      </g>
     </g>
    </g>
    <g id="ytick_7">
     <g id="line2d_13">
      <g>
       <use xlink:href="#m08fa99c336" x="115.2" y="506.073246" style="stroke: #000000; stroke-width: 0.8"/>
      </g>
     </g>
    </g>
    <g id="ytick_8">
     <g id="line2d_14">
      <g>
       <use xlink:href="#m08fa99c336" x="115.2" y="497.000928" style="stroke: #000000; stroke-width: 0.8"/>
      </g>
     </g>
    </g>
    <g id="ytick_9">
     <g id="line2d_15">
      <g>
       <use xlink:href="#m08fa99c336" x="115.2" y="489.142128" style="stroke: #000000; stroke-width: 0.8"/>
      </g>
     </g>
    </g>
    <g id="ytick_10">
     <g id="line2d_16">
      <g>
       <use xlink:href="#m08fa99c336" x="115.2" y="482.210175" style="stroke: #000000; stroke-width: 0.8"/>
      </g>
     </g>
    </g>
    <g id="ytick_11">
     <g id="line2d_17">
      <g>
       <use xlink:href="#m08fa99c336" x="115.2" y="435.215144" style="stroke: #000000; stroke-width: 0.8"/>
      </g>
     </g>
    </g>
    <g id="ytick_12">
     <g id="line2d_18">
      <g>
       <use xlink:href="#m08fa99c336" x="115.2" y="411.352073" style="stroke: #000000; stroke-width: 0.8"/>
      </g>
     </g>
    </g>
    <g id="ytick_13">
     <g id="line2d_19">
      <g>
       <use xlink:href="#m08fa99c336" x="115.2" y="394.420955" style="stroke: #000000; stroke-width: 0.8"/>
      </g>
     </g>
    </g>
    <g id="ytick_14">
     <g id="line2d_20">
      <g>
       <use xlink:href="#m08fa99c336" x="115.2" y="381.28816" style="stroke: #000000; stroke-width: 0.8"/>
      </g>
     </g>
    </g>
    <g id="ytick_15">
     <g id="line2d_21">
      <g>
       <use xlink:href="#m08fa99c336" x="115.2" y="370.557885" style="stroke: #000000; stroke-width: 0.8"/>
      </g>
     </g>
    </g>
    <g id="ytick_16">
     <g id="line2d_22">
      <g>
       <use xlink:href="#m08fa99c336" x="115.2" y="361.485566" style="stroke: #000000; stroke-width: 0.8"/>
      </g>
     </g>
    </g>
    <g id="ytick_17">
     <g id="line2d_23">
      <g>
       <use xlink:href="#m08fa99c336" x="115.2" y="353.626767" style="stroke: #000000; stroke-width: 0.8"/>
      </g>
     </g>
    </g>
    <g id="ytick_18">
     <g id="line2d_24">
      <g>
       <use xlink:href="#m08fa99c336" x="115.2" y="346.694814" style="stroke: #000000; stroke-width: 0.8"/>
      </g>
     </g>
    </g>
    <g id="ytick_19">
     <g id="line2d_25">
      <g>
       <use xlink:href="#m08fa99c336" x="115.2" y="299.699782" style="stroke: #000000; stroke-width: 0.8"/>
      </g>
     </g>
    </g>
    <g id="ytick_20">
     <g id="line2d_26">
      <g>
       <use xlink:href="#m08fa99c336" x="115.2" y="275.836712" style="stroke: #000000; stroke-width: 0.8"/>
      </g>
     </g>
    </g>
    <g id="ytick_21">
     <g id="line2d_27">
      <g>
       <use xlink:href="#m08fa99c336" x="115.2" y="258.905594" style="stroke: #000000; stroke-width: 0.8"/>
      </g>
     </g>
    </g>
    <g id="ytick_22">
     <g id="line2d_28">
      <g>
       <use xlink:href="#m08fa99c336" x="115.2" y="245.772798" style="stroke: #000000; stroke-width: 0.8"/>
      </g>
     </g>
    </g>
    <g id="ytick_23">
     <g id="line2d_29">
      <g>
       <use xlink:href="#m08fa99c336" x="115.2" y="235.042523" style="stroke: #000000; stroke-width: 0.8"/>
      </g>
     </g>
    </g>
    <g id="ytick_24">
     <g id="line2d_30">
      <g>
       <use xlink:href="#m08fa99c336" x="115.2" y="225.970205" style="stroke: #000000; stroke-width: 0.8"/>
      </g>
     </g>
    </g>
    <g id="ytick_25">
     <g id="line2d_31">
      <g>
       <use xlink:href="#m08fa99c336" x="115.2" y="218.111405" style="stroke: #000000; stroke-width: 0.8"/>
      </g>
     </g>
    </g>
    <g id="ytick_26">
     <g id="line2d_32">
      <g>
       <use xlink:href="#m08fa99c336" x="115.2" y="211.179453" style="stroke: #000000; stroke-width: 0.8"/>
      </g>
     </g>
    </g>
    <g id="ytick_27">
     <g id="line2d_33">
      <g>
       <use xlink:href="#m08fa99c336" x="115.2" y="164.184421" style="stroke: #000000; stroke-width: 0.8"/>
      </g>
     </g>
    </g>
    <g id="ytick_28">
     <g id="line2d_34">
      <g>
       <use xlink:href="#m08fa99c336" x="115.2" y="140.32135" style="stroke: #000000; stroke-width: 0.8"/>
      </g>
     </g>
    </g>
    <g id="ytick_29">
     <g id="line2d_35">
      <g>
       <use xlink:href="#m08fa99c336" x="115.2" y="123.390232" style="stroke: #000000; stroke-width: 0.8"/>
      </g>
     </g>
    </g>
    <g id="ytick_30">
     <g id="line2d_36">
      <g>
       <use xlink:href="#m08fa99c336" x="115.2" y="110.257437" style="stroke: #000000; stroke-width: 0.8"/>
      </g>
     </g>
    </g>
    <g id="ytick_31">
     <g id="line2d_37">
      <g>
       <use xlink:href="#m08fa99c336" x="115.2" y="99.527162" style="stroke: #000000; stroke-width: 0.8"/>
      </g>
     </g>
    </g>
    <g id="ytick_32">
     <g id="line2d_38">
      <g>
       <use xlink:href="#m08fa99c336" x="115.2" y="90.454843" style="stroke: #000000; stroke-width: 0.8"/>
      </g>
     </g>
    </g>
    <g id="ytick_33">
     <g id="line2d_39">
      <g>
       <use xlink:href="#m08fa99c336" x="115.2" y="82.596044" style="stroke: #000000; stroke-width: 0.8"/>
      </g>
     </g>
    </g>
    <g id="text_11">
     <!-- Node evaluations per second (NEPS) -->
     <g transform="translate(69.278437 447.984875)rotate(-90)scale(0.14 -0.14)">
      <defs>
       <path id="DejaVuSans-4e" d="M 628 4666 
L 1478 4666 
L 3547 763 
L 3547 4666 
L 4159 4666 
L 4159 0 
L 3309 0 
L 1241 3903 
L 1241 0 
L 628 0 
L 628 4666 
z
" transform="scale(0.015625)"/>
       <path id="DejaVuSans-64" d="M 2906 2969 
L 2906 4863 
L 3481 4863 
L 3481 0 
L 2906 0 
L 2906 525 
Q 2725 213 2448 61 
Q 2172 -91 1784 -91 
Q 1150 -91 751 415 
Q 353 922 353 1747 
Q 353 2572 751 3078 
Q 1150 3584 1784 3584 
Q 2172 3584 2448 3432 
Q 2725 3281 2906 2969 
z
M 947 1747 
Q 947 1113 1208 752 
Q 1469 391 1925 391 
Q 2381 391 2643 752 
Q 2906 1113 2906 1747 
Q 2906 2381 2643 2742 
Q 2381 3103 1925 3103 
Q 1469 3103 1208 2742 
Q 947 2381 947 1747 
z
" transform="scale(0.015625)"/>
       <path id="DejaVuSans-76" d="M 191 3500 
L 800 3500 
L 1894 563 
L 2988 3500 
L 3597 3500 
L 2284 0 
L 1503 0 
L 191 3500 
z
" transform="scale(0.015625)"/>
       <path id="DejaVuSans-6c" d="M 603 4863 
L 1178 4863 
L 1178 0 
L 603 0 
L 603 4863 
z
" transform="scale(0.015625)"/>
       <path id="DejaVuSans-74" d="M 1172 4494 
L 1172 3500 
L 2356 3500 
L 2356 3053 
L 1172 3053 
L 1172 1153 
Q 1172 725 1289 603 
Q 1406 481 1766 481 
L 2356 481 
L 2356 0 
L 1766 0 
Q 1100 0 847 248 
Q 594 497 594 1153 
L 594 3053 
L 172 3053 
L 172 3500 
L 594 3500 
L 594 4494 
L 1172 4494 
z
" transform="scale(0.015625)"/>
       <path id="DejaVuSans-63" d="M 3122 3366 
L 3122 2828 
Q 2878 2963 2633 3030 
Q 2388 3097 2138 3097 
Q 1578 3097 1268 2742 
Q 959 2388 959 1747 
Q 959 1106 1268 751 
Q 1578 397 2138 397 
Q 2388 397 2633 464 
Q 2878 531 3122 666 
L 3122 134 
Q 2881 22 2623 -34 
Q 2366 -91 2075 -91 
Q 1284 -91 818 406 
Q 353 903 353 1747 
Q 353 2603 823 3093 
Q 1294 3584 2113 3584 
Q 2378 3584 2631 3529 
Q 2884 3475 3122 3366 
z
" transform="scale(0.015625)"/>
       <path id="DejaVuSans-28" d="M 1984 4856 
Q 1566 4138 1362 3434 
Q 1159 2731 1159 2009 
Q 1159 1288 1364 580 
Q 1569 -128 1984 -844 
L 1484 -844 
Q 1016 -109 783 600 
Q 550 1309 550 2009 
Q 550 2706 781 3412 
Q 1013 4119 1484 4856 
L 1984 4856 
z
" transform="scale(0.015625)"/>
       <path id="DejaVuSans-45" d="M 628 4666 
L 3578 4666 
L 3578 4134 
L 1259 4134 
L 1259 2753 
L 3481 2753 
L 3481 2222 
L 1259 2222 
L 1259 531 
L 3634 531 
L 3634 0 
L 628 0 
L 628 4666 
z
" transform="scale(0.015625)"/>
       <path id="DejaVuSans-50" d="M 1259 4147 
L 1259 2394 
L 2053 2394 
Q 2494 2394 2734 2622 
Q 2975 2850 2975 3272 
Q 2975 3691 2734 3919 
Q 2494 4147 2053 4147 
L 1259 4147 
z
M 628 4666 
L 2053 4666 
Q 2838 4666 3239 4311 
Q 3641 3956 3641 3272 
Q 3641 2581 3239 2228 
Q 2838 1875 2053 1875 
L 1259 1875 
L 1259 0 
L 628 0 
L 628 4666 
z
" transform="scale(0.015625)"/>
       <path id="DejaVuSans-53" d="M 3425 4513 
L 3425 3897 
Q 3066 4069 2747 4153 
Q 2428 4238 2131 4238 
Q 1616 4238 1336 4038 
Q 1056 3838 1056 3469 
Q 1056 3159 1242 3001 
Q 1428 2844 1947 2747 
L 2328 2669 
Q 3034 2534 3370 2195 
Q 3706 1856 3706 1288 
Q 3706 609 3251 259 
Q 2797 -91 1919 -91 
Q 1588 -91 1214 -16 
Q 841 59 441 206 
L 441 856 
Q 825 641 1194 531 
Q 1563 422 1919 422 
Q 2459 422 2753 634 
Q 3047 847 3047 1241 
Q 3047 1584 2836 1778 
Q 2625 1972 2144 2069 
L 1759 2144 
Q 1053 2284 737 2584 
Q 422 2884 422 3419 
Q 422 4038 858 4394 
Q 1294 4750 2059 4750 
Q 2388 4750 2728 4690 
Q 3069 4631 3425 4513 
z
" transform="scale(0.015625)"/>
       <path id="DejaVuSans-29" d="M 513 4856 
L 1013 4856 
Q 1481 4119 1714 3412 
Q 1947 2706 1947 2009 
Q 1947 1309 1714 600 
Q 1481 -109 1013 -844 
L 513 -844 
Q 928 -128 1133 580 
Q 1338 1288 1338 2009 
Q 1338 2731 1133 3434 
Q 928 4138 513 4856 
z
" transform="scale(0.015625)"/>
      </defs>
      <use xlink:href="#DejaVuSans-4e"/>
      <use xlink:href="#DejaVuSans-6f" x="74.804688"/>
      <use xlink:href="#DejaVuSans-64" x="135.986328"/>
      <use xlink:href="#DejaVuSans-65" x="199.462891"/>
      <use xlink:href="#DejaVuSans-20" x="260.986328"/>
      <use xlink:href="#DejaVuSans-65" x="292.773438"/>
      <use xlink:href="#DejaVuSans-76" x="354.296875"/>
      <use xlink:href="#DejaVuSans-61" x="413.476562"/>
      <use xlink:href="#DejaVuSans-6c" x="474.755859"/>
      <use xlink:href="#DejaVuSans-75" x="502.539062"/>
      <use xlink:href="#DejaVuSans-61" x="565.917969"/>
      <use xlink:href="#DejaVuSans-74" x="627.197266"/>
      <use xlink:href="#DejaVuSans-69" x="666.40625"/>
      <use xlink:href="#DejaVuSans-6f" x="694.189453"/>
      <use xlink:href="#DejaVuSans-6e" x="755.371094"/>
      <use xlink:href="#DejaVuSans-73" x="818.75"/>
      <use xlink:href="#DejaVuSans-20" x="870.849609"/>
      <use xlink:href="#DejaVuSans-70" x="902.636719"/>
      <use xlink:href="#DejaVuSans-65" x="966.113281"/>
      <use xlink:href="#DejaVuSans-72" x="1027.636719"/>
      <use xlink:href="#DejaVuSans-20" x="1068.75"/>
      <use xlink:href="#DejaVuSans-73" x="1100.537109"/>
      <use xlink:href="#DejaVuSans-65" x="1152.636719"/>
      <use xlink:href="#DejaVuSans-63" x="1214.160156"/>
      <use xlink:href="#DejaVuSans-6f" x="1269.140625"/>
      <use xlink:href="#DejaVuSans-6e" x="1330.322266"/>
      <use xlink:href="#DejaVuSans-64" x="1393.701172"/>
      <use xlink:href="#DejaVuSans-20" x="1457.177734"/>
      <use xlink:href="#DejaVuSans-28" x="1488.964844"/>
      <use xlink:href="#DejaVuSans-4e" x="1527.978516"/>
      <use xlink:href="#DejaVuSans-45" x="1602.783203"/>
      <use xlink:href="#DejaVuSans-50" x="1665.966797"/>
      <use xlink:href="#DejaVuSans-53" x="1726.269531"/>
      <use xlink:href="#DejaVuSans-29" x="1789.746094"/>
     </g>
    </g>
   </g>
   <g id="line2d_40">
    <defs>
     <path id="m6fa001d4f5" d="M -4 4 
L 4 -4 
M -4 -4 
L 4 4 
"/>
    </defs>
    <g clip-path="url(#pcb1a7c2ee6)">
     <use xlink:href="#m6fa001d4f5" x="147.665455" y="541.728" style="fill: #17becf"/>
     <use xlink:href="#m6fa001d4f5" x="168.610909" y="515.976633" style="fill: #17becf"/>
     <use xlink:href="#m6fa001d4f5" x="189.556364" y="507.681489" style="fill: #17becf"/>
     <use xlink:href="#m6fa001d4f5" x="210.501818" y="497.856914" style="fill: #17becf"/>
     <use xlink:href="#m6fa001d4f5" x="231.447273" y="494.979708" style="fill: #17becf"/>
     <use xlink:href="#m6fa001d4f5" x="252.392727" y="493.528672" style="fill: #17becf"/>
     <use xlink:href="#m6fa001d4f5" x="273.338182" y="491.880176" style="fill: #17becf"/>
     <use xlink:href="#m6fa001d4f5" x="294.283636" y="490.367618" style="fill: #17becf"/>
     <use xlink:href="#m6fa001d4f5" x="315.229091" y="488.459118" style="fill: #17becf"/>
     <use xlink:href="#m6fa001d4f5" x="336.174545" y="487.287842" style="fill: #17becf"/>
     <use xlink:href="#m6fa001d4f5" x="357.12" y="488.126161" style="fill: #17becf"/>
     <use xlink:href="#m6fa001d4f5" x="378.065455" y="485.929053" style="fill: #17becf"/>
     <use xlink:href="#m6fa001d4f5" x="399.010909" y="486.69164" style="fill: #17becf"/>
     <use xlink:href="#m6fa001d4f5" x="419.956364" y="486.170135" style="fill: #17becf"/>
     <use xlink:href="#m6fa001d4f5" x="440.901818" y="485.897677" style="fill: #17becf"/>
     <use xlink:href="#m6fa001d4f5" x="461.847273" y="484.899718" style="fill: #17becf"/>
     <use xlink:href="#m6fa001d4f5" x="482.792727" y="485.154446" style="fill: #17becf"/>
     <use xlink:href="#m6fa001d4f5" x="503.738182" y="484.837771" style="fill: #17becf"/>
     <use xlink:href="#m6fa001d4f5" x="524.683636" y="484.459217" style="fill: #17becf"/>
     <use xlink:href="#m6fa001d4f5" x="545.629091" y="483.92735" style="fill: #17becf"/>
     <use xlink:href="#m6fa001d4f5" x="566.574545" y="483.99811" style="fill: #17becf"/>
     <use xlink:href="#m6fa001d4f5" x="587.52" y="483.357042" style="fill: #17becf"/>
     <use xlink:href="#m6fa001d4f5" x="608.465455" y="483.764628" style="fill: #17becf"/>
     <use xlink:href="#m6fa001d4f5" x="629.410909" y="483.607419" style="fill: #17becf"/>
     <use xlink:href="#m6fa001d4f5" x="650.356364" y="483.907466" style="fill: #17becf"/>
     <use xlink:href="#m6fa001d4f5" x="671.301818" y="482.337454" style="fill: #17becf"/>
     <use xlink:href="#m6fa001d4f5" x="692.247273" y="482.508798" style="fill: #17becf"/>
     <use xlink:href="#m6fa001d4f5" x="713.192727" y="482.318022" style="fill: #17becf"/>
     <use xlink:href="#m6fa001d4f5" x="734.138182" y="482.587468" style="fill: #17becf"/>
     <use xlink:href="#m6fa001d4f5" x="755.083636" y="482.206785" style="fill: #17becf"/>
     <use xlink:href="#m6fa001d4f5" x="776.029091" y="481.294585" style="fill: #17becf"/>
     <use xlink:href="#m6fa001d4f5" x="796.974545" y="481.593113" style="fill: #17becf"/>
    </g>
   </g>
   <g id="line2d_41">
    <path d="M 115.2 340.493971 
L 829.44 340.493971 
" clip-path="url(#pcb1a7c2ee6)" style="fill: none; stroke-dasharray: 10.36,4.48; stroke-dashoffset: 0; stroke: #808080; stroke-width: 2.8"/>
   </g>
   <g id="line2d_42">
    <defs>
     <path id="m336bfaf781" d="M 0 -4 
L -4 4 
L 4 4 
z
"/>
    </defs>
    <g clip-path="url(#pcb1a7c2ee6)">
     <use xlink:href="#m336bfaf781" x="147.665455" y="415.218681" style="fill: #9467bd"/>
     <use xlink:href="#m336bfaf781" x="168.610909" y="376.075999" style="fill: #9467bd"/>
     <use xlink:href="#m336bfaf781" x="189.556364" y="367.287792" style="fill: #9467bd"/>
     <use xlink:href="#m336bfaf781" x="210.501818" y="361.710662" style="fill: #9467bd"/>
     <use xlink:href="#m336bfaf781" x="231.447273" y="348.886993" style="fill: #9467bd"/>
     <use xlink:href="#m336bfaf781" x="252.392727" y="346.780184" style="fill: #9467bd"/>
     <use xlink:href="#m336bfaf781" x="273.338182" y="350.23953" style="fill: #9467bd"/>
     <use xlink:href="#m336bfaf781" x="294.283636" y="348.472475" style="fill: #9467bd"/>
     <use xlink:href="#m336bfaf781" x="315.229091" y="345.201265" style="fill: #9467bd"/>
     <use xlink:href="#m336bfaf781" x="336.174545" y="341.816546" style="fill: #9467bd"/>
     <use xlink:href="#m336bfaf781" x="357.12" y="341.912538" style="fill: #9467bd"/>
     <use xlink:href="#m336bfaf781" x="378.065455" y="339.151271" style="fill: #9467bd"/>
     <use xlink:href="#m336bfaf781" x="399.010909" y="342.015142" style="fill: #9467bd"/>
     <use xlink:href="#m336bfaf781" x="419.956364" y="340.660646" style="fill: #9467bd"/>
     <use xlink:href="#m336bfaf781" x="440.901818" y="336.931224" style="fill: #9467bd"/>
     <use xlink:href="#m336bfaf781" x="461.847273" y="338.802816" style="fill: #9467bd"/>
     <use xlink:href="#m336bfaf781" x="482.792727" y="341.065247" style="fill: #9467bd"/>
     <use xlink:href="#m336bfaf781" x="503.738182" y="336.649634" style="fill: #9467bd"/>
     <use xlink:href="#m336bfaf781" x="524.683636" y="336.20952" style="fill: #9467bd"/>
     <use xlink:href="#m336bfaf781" x="545.629091" y="332.819589" style="fill: #9467bd"/>
     <use xlink:href="#m336bfaf781" x="566.574545" y="332.665482" style="fill: #9467bd"/>
     <use xlink:href="#m336bfaf781" x="587.52" y="331.556148" style="fill: #9467bd"/>
     <use xlink:href="#m336bfaf781" x="608.465455" y="329.339933" style="fill: #9467bd"/>
     <use xlink:href="#m336bfaf781" x="629.410909" y="330.913846" style="fill: #9467bd"/>
     <use xlink:href="#m336bfaf781" x="650.356364" y="330.904885" style="fill: #9467bd"/>
     <use xlink:href="#m336bfaf781" x="671.301818" y="324.860319" style="fill: #9467bd"/>
     <use xlink:href="#m336bfaf781" x="692.247273" y="342.605649" style="fill: #9467bd"/>
     <use xlink:href="#m336bfaf781" x="713.192727" y="332.789806" style="fill: #9467bd"/>
     <use xlink:href="#m336bfaf781" x="734.138182" y="328.296171" style="fill: #9467bd"/>
     <use xlink:href="#m336bfaf781" x="755.083636" y="326.453373" style="fill: #9467bd"/>
     <use xlink:href="#m336bfaf781" x="776.029091" y="326.118229" style="fill: #9467bd"/>
     <use xlink:href="#m336bfaf781" x="796.974545" y="322.279501" style="fill: #9467bd"/>
    </g>
   </g>
   <g id="line2d_43">
    <path d="M 115.2 340.493971 
L 829.44 340.493971 
" clip-path="url(#pcb1a7c2ee6)" style="fill: none; stroke-dasharray: 10.36,4.48; stroke-dashoffset: 0; stroke: #808080; stroke-width: 2.8"/>
   </g>
   <g id="line2d_44">
    <defs>
     <path id="m85d3835529" d="M 0 2 
C 0.530406 2 1.03916 1.789267 1.414214 1.414214 
C 1.789267 1.03916 2 0.530406 2 0 
C 2 -0.530406 1.789267 -1.03916 1.414214 -1.414214 
C 1.03916 -1.789267 0.530406 -2 0 -2 
C -0.530406 -2 -1.03916 -1.789267 -1.414214 -1.414214 
C -1.789267 -1.03916 -2 -0.530406 -2 0 
C -2 0.530406 -1.789267 1.03916 -1.414214 1.414214 
C -1.03916 1.789267 -0.530406 2 0 2 
z
"/>
    </defs>
    <g clip-path="url(#pcb1a7c2ee6)">
     <use xlink:href="#m85d3835529" x="147.665455" y="388.402903" style="fill: #1f77b4"/>
     <use xlink:href="#m85d3835529" x="168.610909" y="349.360446" style="fill: #1f77b4"/>
     <use xlink:href="#m85d3835529" x="189.556364" y="336.198058" style="fill: #1f77b4"/>
     <use xlink:href="#m85d3835529" x="210.501818" y="327.05667" style="fill: #1f77b4"/>
     <use xlink:href="#m85d3835529" x="231.447273" y="323.153664" style="fill: #1f77b4"/>
     <use xlink:href="#m85d3835529" x="252.392727" y="328.985724" style="fill: #1f77b4"/>
     <use xlink:href="#m85d3835529" x="273.338182" y="316.650175" style="fill: #1f77b4"/>
     <use xlink:href="#m85d3835529" x="294.283636" y="314.300164" style="fill: #1f77b4"/>
     <use xlink:href="#m85d3835529" x="315.229091" y="311.827366" style="fill: #1f77b4"/>
     <use xlink:href="#m85d3835529" x="336.174545" y="309.880044" style="fill: #1f77b4"/>
     <use xlink:href="#m85d3835529" x="357.12" y="308.890646" style="fill: #1f77b4"/>
     <use xlink:href="#m85d3835529" x="378.065455" y="307.825378" style="fill: #1f77b4"/>
     <use xlink:href="#m85d3835529" x="399.010909" y="306.731003" style="fill: #1f77b4"/>
     <use xlink:href="#m85d3835529" x="419.956364" y="306.021975" style="fill: #1f77b4"/>
     <use xlink:href="#m85d3835529" x="440.901818" y="305.109858" style="fill: #1f77b4"/>
     <use xlink:href="#m85d3835529" x="461.847273" y="304.893439" style="fill: #1f77b4"/>
     <use xlink:href="#m85d3835529" x="482.792727" y="304.611284" style="fill: #1f77b4"/>
     <use xlink:href="#m85d3835529" x="503.738182" y="304.178385" style="fill: #1f77b4"/>
     <use xlink:href="#m85d3835529" x="524.683636" y="304.371779" style="fill: #1f77b4"/>
     <use xlink:href="#m85d3835529" x="545.629091" y="303.004235" style="fill: #1f77b4"/>
     <use xlink:href="#m85d3835529" x="566.574545" y="302.170212" style="fill: #1f77b4"/>
     <use xlink:href="#m85d3835529" x="587.52" y="302.287295" style="fill: #1f77b4"/>
     <use xlink:href="#m85d3835529" x="608.465455" y="301.979041" style="fill: #1f77b4"/>
     <use xlink:href="#m85d3835529" x="629.410909" y="301.684005" style="fill: #1f77b4"/>
     <use xlink:href="#m85d3835529" x="650.356364" y="301.088632" style="fill: #1f77b4"/>
     <use xlink:href="#m85d3835529" x="671.301818" y="299.899309" style="fill: #1f77b4"/>
     <use xlink:href="#m85d3835529" x="692.247273" y="300.050168" style="fill: #1f77b4"/>
     <use xlink:href="#m85d3835529" x="713.192727" y="300.714754" style="fill: #1f77b4"/>
     <use xlink:href="#m85d3835529" x="734.138182" y="299.805627" style="fill: #1f77b4"/>
     <use xlink:href="#m85d3835529" x="755.083636" y="299.852227" style="fill: #1f77b4"/>
     <use xlink:href="#m85d3835529" x="776.029091" y="298.513539" style="fill: #1f77b4"/>
     <use xlink:href="#m85d3835529" x="796.974545" y="298.910455" style="fill: #1f77b4"/>
    </g>
   </g>
   <g id="line2d_45">
    <path d="M 115.2 340.493971 
L 829.44 340.493971 
" clip-path="url(#pcb1a7c2ee6)" style="fill: none; stroke-dasharray: 10.36,4.48; stroke-dashoffset: 0; stroke: #808080; stroke-width: 2.8"/>
   </g>
   <g id="line2d_46">
    <defs>
     <path id="mb0e3f0db4e" d="M -0 5.656854 
L 3.394113 0 
L 0 -5.656854 
L -3.394113 -0 
z
"/>
    </defs>
    <g clip-path="url(#pcb1a7c2ee6)">
     <use xlink:href="#mb0e3f0db4e" x="147.665455" y="208.540161" style="fill: #2ca02c"/>
     <use xlink:href="#mb0e3f0db4e" x="168.610909" y="193.198539" style="fill: #2ca02c"/>
     <use xlink:href="#mb0e3f0db4e" x="189.556364" y="191.318759" style="fill: #2ca02c"/>
     <use xlink:href="#mb0e3f0db4e" x="210.501818" y="188.79608" style="fill: #2ca02c"/>
     <use xlink:href="#mb0e3f0db4e" x="231.447273" y="190.533706" style="fill: #2ca02c"/>
     <use xlink:href="#mb0e3f0db4e" x="252.392727" y="187.137344" style="fill: #2ca02c"/>
     <use xlink:href="#mb0e3f0db4e" x="273.338182" y="180.445729" style="fill: #2ca02c"/>
     <use xlink:href="#mb0e3f0db4e" x="294.283636" y="180.403791" style="fill: #2ca02c"/>
     <use xlink:href="#mb0e3f0db4e" x="315.229091" y="185.822982" style="fill: #2ca02c"/>
     <use xlink:href="#mb0e3f0db4e" x="336.174545" y="177.782868" style="fill: #2ca02c"/>
     <use xlink:href="#mb0e3f0db4e" x="357.12" y="182.80793" style="fill: #2ca02c"/>
     <use xlink:href="#mb0e3f0db4e" x="378.065455" y="176.633385" style="fill: #2ca02c"/>
     <use xlink:href="#mb0e3f0db4e" x="399.010909" y="171.522985" style="fill: #2ca02c"/>
     <use xlink:href="#mb0e3f0db4e" x="419.956364" y="171.361445" style="fill: #2ca02c"/>
     <use xlink:href="#mb0e3f0db4e" x="440.901818" y="161.891586" style="fill: #2ca02c"/>
     <use xlink:href="#mb0e3f0db4e" x="461.847273" y="159.482813" style="fill: #2ca02c"/>
     <use xlink:href="#mb0e3f0db4e" x="482.792727" y="168.570432" style="fill: #2ca02c"/>
     <use xlink:href="#mb0e3f0db4e" x="503.738182" y="165.835692" style="fill: #2ca02c"/>
     <use xlink:href="#mb0e3f0db4e" x="524.683636" y="166.187142" style="fill: #2ca02c"/>
     <use xlink:href="#mb0e3f0db4e" x="545.629091" y="158.346531" style="fill: #2ca02c"/>
     <use xlink:href="#mb0e3f0db4e" x="566.574545" y="152.709946" style="fill: #2ca02c"/>
     <use xlink:href="#mb0e3f0db4e" x="587.52" y="148.242078" style="fill: #2ca02c"/>
     <use xlink:href="#mb0e3f0db4e" x="608.465455" y="143.329133" style="fill: #2ca02c"/>
     <use xlink:href="#mb0e3f0db4e" x="629.410909" y="137.626681" style="fill: #2ca02c"/>
     <use xlink:href="#mb0e3f0db4e" x="650.356364" y="143.481955" style="fill: #2ca02c"/>
     <use xlink:href="#mb0e3f0db4e" x="671.301818" y="135.237027" style="fill: #2ca02c"/>
     <use xlink:href="#mb0e3f0db4e" x="692.247273" y="128.691226" style="fill: #2ca02c"/>
     <use xlink:href="#mb0e3f0db4e" x="713.192727" y="125.282292" style="fill: #2ca02c"/>
     <use xlink:href="#mb0e3f0db4e" x="734.138182" y="124.829418" style="fill: #2ca02c"/>
     <use xlink:href="#mb0e3f0db4e" x="755.083636" y="113.414114" style="fill: #2ca02c"/>
     <use xlink:href="#mb0e3f0db4e" x="776.029091" y="109.410293" style="fill: #2ca02c"/>
     <use xlink:href="#mb0e3f0db4e" x="796.974545" y="101.269535" style="fill: #2ca02c"/>
    </g>
   </g>
   <g id="line2d_47">
    <path d="M 115.2 340.493971 
L 829.44 340.493971 
" clip-path="url(#pcb1a7c2ee6)" style="fill: none; stroke-dasharray: 10.36,4.48; stroke-dashoffset: 0; stroke: #808080; stroke-width: 2.8"/>
   </g>
   <g id="line2d_48">
    <defs>
     <path id="m255a68257f" d="M 0 -4 
L -0.898056 -1.236068 
L -3.804226 -1.236068 
L -1.453085 0.472136 
L -2.351141 3.236068 
L -0 1.527864 
L 2.351141 3.236068 
L 1.453085 0.472136 
L 3.804226 -1.236068 
L 0.898056 -1.236068 
z
"/>
    </defs>
    <g clip-path="url(#pcb1a7c2ee6)">
     <use xlink:href="#m255a68257f" x="147.665455" y="352.890864" style="fill: #d62728"/>
     <use xlink:href="#m255a68257f" x="168.610909" y="299.089489" style="fill: #d62728"/>
     <use xlink:href="#m255a68257f" x="189.556364" y="271.594489" style="fill: #d62728"/>
     <use xlink:href="#m255a68257f" x="210.501818" y="249.784945" style="fill: #d62728"/>
     <use xlink:href="#m255a68257f" x="231.447273" y="237.126407" style="fill: #d62728"/>
     <use xlink:href="#m255a68257f" x="252.392727" y="225.416642" style="fill: #d62728"/>
     <use xlink:href="#m255a68257f" x="273.338182" y="215.680619" style="fill: #d62728"/>
     <use xlink:href="#m255a68257f" x="294.283636" y="207.548376" style="fill: #d62728"/>
     <use xlink:href="#m255a68257f" x="315.229091" y="200.063198" style="fill: #d62728"/>
     <use xlink:href="#m255a68257f" x="336.174545" y="193.698438" style="fill: #d62728"/>
     <use xlink:href="#m255a68257f" x="357.12" y="187.890155" style="fill: #d62728"/>
     <use xlink:href="#m255a68257f" x="378.065455" y="182.549432" style="fill: #d62728"/>
     <use xlink:href="#m255a68257f" x="399.010909" y="177.762844" style="fill: #d62728"/>
     <use xlink:href="#m255a68257f" x="419.956364" y="173.006766" style="fill: #d62728"/>
     <use xlink:href="#m255a68257f" x="440.901818" y="169.152686" style="fill: #d62728"/>
     <use xlink:href="#m255a68257f" x="461.847273" y="165.091756" style="fill: #d62728"/>
     <use xlink:href="#m255a68257f" x="482.792727" y="161.55266" style="fill: #d62728"/>
     <use xlink:href="#m255a68257f" x="503.738182" y="158.109603" style="fill: #d62728"/>
     <use xlink:href="#m255a68257f" x="524.683636" y="154.767147" style="fill: #d62728"/>
     <use xlink:href="#m255a68257f" x="545.629091" y="151.84508" style="fill: #d62728"/>
     <use xlink:href="#m255a68257f" x="566.574545" y="148.876385" style="fill: #d62728"/>
     <use xlink:href="#m255a68257f" x="587.52" y="146.074238" style="fill: #d62728"/>
     <use xlink:href="#m255a68257f" x="608.465455" y="143.371462" style="fill: #d62728"/>
     <use xlink:href="#m255a68257f" x="629.410909" y="140.865509" style="fill: #d62728"/>
     <use xlink:href="#m255a68257f" x="650.356364" y="138.426761" style="fill: #d62728"/>
     <use xlink:href="#m255a68257f" x="671.301818" y="135.992812" style="fill: #d62728"/>
     <use xlink:href="#m255a68257f" x="692.247273" y="133.728999" style="fill: #d62728"/>
     <use xlink:href="#m255a68257f" x="713.192727" y="131.686818" style="fill: #d62728"/>
     <use xlink:href="#m255a68257f" x="734.138182" y="129.459135" style="fill: #d62728"/>
     <use xlink:href="#m255a68257f" x="755.083636" y="127.433076" style="fill: #d62728"/>
     <use xlink:href="#m255a68257f" x="776.029091" y="125.545899" style="fill: #d62728"/>
     <use xlink:href="#m255a68257f" x="796.974545" y="123.742883" style="fill: #d62728"/>
    </g>
   </g>
   <g id="line2d_49">
    <path d="M 115.2 340.493971 
L 829.44 340.493971 
" clip-path="url(#pcb1a7c2ee6)" style="fill: none; stroke-dasharray: 10.36,4.48; stroke-dashoffset: 0; stroke: #808080; stroke-width: 2.8"/>
   </g>
   <g id="patch_3">
    <path d="M 115.2 563.904 
L 115.2 76.032 
" style="fill: none; stroke: #000000; stroke-width: 0.8; stroke-linejoin: miter; stroke-linecap: square"/>
   </g>
   <g id="patch_4">
    <path d="M 829.44 563.904 
L 829.44 76.032 
" style="fill: none; stroke: #000000; stroke-width: 0.8; stroke-linejoin: miter; stroke-linecap: square"/>
   </g>
   <g id="patch_5">
    <path d="M 115.2 563.904 
L 829.44 563.904 
" style="fill: none; stroke: #000000; stroke-width: 0.8; stroke-linejoin: miter; stroke-linecap: square"/>
   </g>
   <g id="patch_6">
    <path d="M 115.2 76.032 
L 829.44 76.032 
" style="fill: none; stroke: #000000; stroke-width: 0.8; stroke-linejoin: miter; stroke-linecap: square"/>
   </g>
   <g id="text_12">
    <!-- $10^9$ for scale -->
    <g transform="translate(262.865455 370.557885)scale(0.11 -0.11)">
     <defs>
      <path id="DejaVuSans-66" d="M 2375 4863 
L 2375 4384 
L 1825 4384 
Q 1516 4384 1395 4259 
Q 1275 4134 1275 3809 
L 1275 3500 
L 2222 3500 
L 2222 3053 
L 1275 3053 
L 1275 0 
L 697 0 
L 697 3053 
L 147 3053 
L 147 3500 
L 697 3500 
L 697 3744 
Q 697 4328 969 4595 
Q 1241 4863 1831 4863 
L 2375 4863 
z
" transform="scale(0.015625)"/>
     </defs>
     <use xlink:href="#DejaVuSans-31" transform="translate(0 0.765625)"/>
     <use xlink:href="#DejaVuSans-30" transform="translate(63.623047 0.765625)"/>
     <use xlink:href="#DejaVuSans-39" transform="translate(128.203125 39.046875)scale(0.7)"/>
     <use xlink:href="#DejaVuSans-20" transform="translate(175.473633 0.765625)"/>
     <use xlink:href="#DejaVuSans-66" transform="translate(207.260742 0.765625)"/>
     <use xlink:href="#DejaVuSans-6f" transform="translate(242.46582 0.765625)"/>
     <use xlink:href="#DejaVuSans-72" transform="translate(303.647461 0.765625)"/>
     <use xlink:href="#DejaVuSans-20" transform="translate(344.760742 0.765625)"/>
     <use xlink:href="#DejaVuSans-73" transform="translate(376.547852 0.765625)"/>
     <use xlink:href="#DejaVuSans-63" transform="translate(428.647461 0.765625)"/>
     <use xlink:href="#DejaVuSans-61" transform="translate(483.62793 0.765625)"/>
     <use xlink:href="#DejaVuSans-6c" transform="translate(544.907227 0.765625)"/>
     <use xlink:href="#DejaVuSans-65" transform="translate(572.69043 0.765625)"/>
    </g>
   </g>
  </g>
 </g>
 <defs>
  <clipPath id="pcb1a7c2ee6">
   <rect x="115.2" y="76.032" width="714.24" height="487.872"/>
  </clipPath>
 </defs>
</svg>
