<?xml version="1.0" encoding="utf-8" standalone="no"?>
<!DOCTYPE svg PUBLIC "-//W3C//DTD SVG 1.1//EN"
  "http://www.w3.org/Graphics/SVG/1.1/DTD/svg11.dtd">
<svg xmlns:xlink="http://www.w3.org/1999/xlink" width="921.6pt" height="633.6pt" viewBox="0 0 921.6 633.6" xmlns="http://www.w3.org/2000/svg" version="1.1">
 <metadata>
  <rdf:RDF xmlns:dc="http://purl.org/dc/elements/1.1/" xmlns:cc="http://creativecommons.org/ns#" xmlns:rdf="http://www.w3.org/1999/02/22-rdf-syntax-ns#">
   <cc:Work>
    <dc:type rdf:resource="http://purl.org/dc/dcmitype/StillImage"/>
    <dc:date>2022-11-02T20:24:28.706187</dc:date>
    <dc:format>image/svg+xml</dc:format>
    <dc:creator>
     <cc:Agent>
      <dc:title>Matplotlib v3.5.3, https://matplotlib.org/</dc:title>
     </cc:Agent>
    </dc:creator>
   </cc:Work>
  </rdf:RDF>
 </metadata>
 <defs>
  <style type="text/css">*{stroke-linejoin: round; stroke-linecap: butt}</style>
 </defs>
 <g id="figure_1">
  <g id="patch_1">
   <path d="M 0 633.6 
L 921.6 633.6 
L 921.6 0 
L 0 0 
z
" style="fill: #ffffff"/>
  </g>
  <g id="axes_1">
   <g id="patch_2">
    <path d="M 115.2 563.904 
L 829.44 563.904 
L 829.44 76.032 
L 115.2 76.032 
z
" style="fill: #ffffff"/>
   </g>
   <g id="patch_3">
    <path d="M 147.665455 563.904 
L 164.000274 563.904 
L 164.000274 162.977877 
L 147.665455 162.977877 
z
" clip-path="url(#pe10ab87098)" style="fill: #1f77b4"/>
   </g>
   <g id="patch_4">
    <path d="M 168.083979 563.904 
L 184.418799 563.904 
L 184.418799 121.113154 
L 168.083979 121.113154 
z
" clip-path="url(#pe10ab87098)" style="fill: #1f77b4"/>
   </g>
   <g id="patch_5">
    <path d="M 188.502504 563.904 
L 204.837324 563.904 
L 204.837324 109.319613 
L 188.502504 109.319613 
z
" clip-path="url(#pe10ab87098)" style="fill: #1f77b4"/>
   </g>
   <g id="patch_6">
    <path d="M 208.921029 563.904 
L 225.255849 563.904 
L 225.255849 102.494249 
L 208.921029 102.494249 
z
" clip-path="url(#pe10ab87098)" style="fill: #1f77b4"/>
   </g>
   <g id="patch_7">
    <path d="M 229.339554 563.904 
L 245.674374 563.904 
L 245.674374 99.264 
L 229.339554 99.264 
z
" clip-path="url(#pe10ab87098)" style="fill: #1f77b4"/>
   </g>
   <g id="patch_8">
    <path d="M 249.758079 563.904 
L 266.092899 563.904 
L 266.092899 100.725526 
L 249.758079 100.725526 
z
" clip-path="url(#pe10ab87098)" style="fill: #1f77b4"/>
   </g>
   <g id="patch_9">
    <path d="M 270.176604 563.904 
L 286.511424 563.904 
L 286.511424 100.109103 
L 270.176604 100.109103 
z
" clip-path="url(#pe10ab87098)" style="fill: #1f77b4"/>
   </g>
   <g id="patch_10">
    <path d="M 290.595129 563.904 
L 306.929949 563.904 
L 306.929949 102.192726 
L 290.595129 102.192726 
z
" clip-path="url(#pe10ab87098)" style="fill: #1f77b4"/>
   </g>
   <g id="patch_11">
    <path d="M 311.013654 563.904 
L 327.348473 563.904 
L 327.348473 100.943996 
L 311.013654 100.943996 
z
" clip-path="url(#pe10ab87098)" style="fill: #1f77b4"/>
   </g>
   <g id="patch_12">
    <path d="M 331.432178 563.904 
L 347.766998 563.904 
L 347.766998 102.234054 
L 331.432178 102.234054 
z
" clip-path="url(#pe10ab87098)" style="fill: #1f77b4"/>
   </g>
   <g id="patch_13">
    <path d="M 351.850703 563.904 
L 368.185523 563.904 
L 368.185523 105.103054 
L 351.850703 105.103054 
z
" clip-path="url(#pe10ab87098)" style="fill: #1f77b4"/>
   </g>
   <g id="patch_14">
    <path d="M 372.269228 563.904 
L 388.604048 563.904 
L 388.604048 108.884888 
L 372.269228 108.884888 
z
" clip-path="url(#pe10ab87098)" style="fill: #1f77b4"/>
   </g>
   <g id="patch_15">
    <path d="M 392.687753 563.904 
L 409.022573 563.904 
L 409.022573 110.149287 
L 392.687753 110.149287 
z
" clip-path="url(#pe10ab87098)" style="fill: #1f77b4"/>
   </g>
   <g id="patch_16">
    <path d="M 413.106278 563.904 
L 429.441098 563.904 
L 429.441098 114.138996 
L 413.106278 114.138996 
z
" clip-path="url(#pe10ab87098)" style="fill: #1f77b4"/>
   </g>
   <g id="patch_17">
    <path d="M 433.524803 563.904 
L 449.859623 563.904 
L 449.859623 120.138667 
L 433.524803 120.138667 
z
" clip-path="url(#pe10ab87098)" style="fill: #1f77b4"/>
   </g>
   <g id="patch_18">
    <path d="M 453.943328 563.904 
L 470.278148 563.904 
L 470.278148 125.489994 
L 453.943328 125.489994 
z
" clip-path="url(#pe10ab87098)" style="fill: #1f77b4"/>
   </g>
   <g id="patch_19">
    <path d="M 474.361852 563.904 
L 490.696672 563.904 
L 490.696672 112.112919 
L 474.361852 112.112919 
z
" clip-path="url(#pe10ab87098)" style="fill: #1f77b4"/>
   </g>
   <g id="patch_20">
    <path d="M 494.780377 563.904 
L 511.115197 563.904 
L 511.115197 116.201416 
L 494.780377 116.201416 
z
" clip-path="url(#pe10ab87098)" style="fill: #1f77b4"/>
   </g>
   <g id="patch_21">
    <path d="M 515.198902 563.904 
L 531.533722 563.904 
L 531.533722 121.04565 
L 515.198902 121.04565 
z
" clip-path="url(#pe10ab87098)" style="fill: #1f77b4"/>
   </g>
   <g id="patch_22">
    <path d="M 535.617427 563.904 
L 551.952247 563.904 
L 551.952247 125.822038 
L 535.617427 125.822038 
z
" clip-path="url(#pe10ab87098)" style="fill: #1f77b4"/>
   </g>
   <g id="patch_23">
    <path d="M 556.035952 563.904 
L 572.370772 563.904 
L 572.370772 129.633648 
L 556.035952 129.633648 
z
" clip-path="url(#pe10ab87098)" style="fill: #1f77b4"/>
   </g>
   <g id="patch_24">
    <path d="M 576.454477 563.904 
L 592.789297 563.904 
L 592.789297 135.631376 
L 576.454477 135.631376 
z
" clip-path="url(#pe10ab87098)" style="fill: #1f77b4"/>
   </g>
   <g id="patch_25">
    <path d="M 596.873002 563.904 
L 613.207822 563.904 
L 613.207822 138.784434 
L 596.873002 138.784434 
z
" clip-path="url(#pe10ab87098)" style="fill: #1f77b4"/>
   </g>
   <g id="patch_26">
    <path d="M 617.291527 563.904 
L 633.626346 563.904 
L 633.626346 144.8004 
L 617.291527 144.8004 
z
" clip-path="url(#pe10ab87098)" style="fill: #1f77b4"/>
   </g>
   <g id="patch_27">
    <path d="M 637.710051 563.904 
L 654.044871 563.904 
L 654.044871 139.916225 
L 637.710051 139.916225 
z
" clip-path="url(#pe10ab87098)" style="fill: #1f77b4"/>
   </g>
   <g id="patch_28">
    <path d="M 658.128576 563.904 
L 674.463396 563.904 
L 674.463396 143.753559 
L 658.128576 143.753559 
z
" clip-path="url(#pe10ab87098)" style="fill: #1f77b4"/>
   </g>
   <g id="patch_29">
    <path d="M 678.547101 563.904 
L 694.881921 563.904 
L 694.881921 147.377345 
L 678.547101 147.377345 
z
" clip-path="url(#pe10ab87098)" style="fill: #1f77b4"/>
   </g>
   <g id="patch_30">
    <path d="M 698.965626 563.904 
L 715.300446 563.904 
L 715.300446 152.443047 
L 698.965626 152.443047 
z
" clip-path="url(#pe10ab87098)" style="fill: #1f77b4"/>
   </g>
   <g id="patch_31">
    <path d="M 719.384151 563.904 
L 735.718971 563.904 
L 735.718971 151.844313 
L 719.384151 151.844313 
z
" clip-path="url(#pe10ab87098)" style="fill: #1f77b4"/>
   </g>
   <g id="patch_32">
    <path d="M 739.802676 563.904 
L 756.137496 563.904 
L 756.137496 156.127421 
L 739.802676 156.127421 
z
" clip-path="url(#pe10ab87098)" style="fill: #1f77b4"/>
   </g>
   <g id="patch_33">
    <path d="M 760.221201 563.904 
L 776.556021 563.904 
L 776.556021 158.721525 
L 760.221201 158.721525 
z
" clip-path="url(#pe10ab87098)" style="fill: #1f77b4"/>
   </g>
   <g id="patch_34">
    <path d="M 780.639726 563.904 
L 796.974545 563.904 
L 796.974545 163.17052 
L 780.639726 163.17052 
z
" clip-path="url(#pe10ab87098)" style="fill: #1f77b4"/>
   </g>
   <g id="patch_35">
    <path d="M 147.665455 563.904 
L 164.000274 563.904 
L 164.000274 167.078724 
L 147.665455 167.078724 
z
" clip-path="url(#pe10ab87098)" style="fill: #ff7f0e"/>
   </g>
   <g id="patch_36">
    <path d="M 168.083979 563.904 
L 184.418799 563.904 
L 184.418799 208.943448 
L 168.083979 208.943448 
z
" clip-path="url(#pe10ab87098)" style="fill: #ff7f0e"/>
   </g>
   <g id="patch_37">
    <path d="M 188.502504 563.904 
L 204.837324 563.904 
L 204.837324 220.736989 
L 188.502504 220.736989 
z
" clip-path="url(#pe10ab87098)" style="fill: #ff7f0e"/>
   </g>
   <g id="patch_38">
    <path d="M 208.921029 563.904 
L 225.255849 563.904 
L 225.255849 227.562353 
L 208.921029 227.562353 
z
" clip-path="url(#pe10ab87098)" style="fill: #ff7f0e"/>
   </g>
   <g id="patch_39">
    <path d="M 229.339554 563.904 
L 245.674374 563.904 
L 245.674374 230.792601 
L 229.339554 230.792601 
z
" clip-path="url(#pe10ab87098)" style="fill: #ff7f0e"/>
   </g>
   <g id="patch_40">
    <path d="M 249.758079 563.904 
L 266.092899 563.904 
L 266.092899 229.331075 
L 249.758079 229.331075 
z
" clip-path="url(#pe10ab87098)" style="fill: #ff7f0e"/>
   </g>
   <g id="patch_41">
    <path d="M 270.176604 563.904 
L 286.511424 563.904 
L 286.511424 229.947499 
L 270.176604 229.947499 
z
" clip-path="url(#pe10ab87098)" style="fill: #ff7f0e"/>
   </g>
   <g id="patch_42">
    <path d="M 290.595129 563.904 
L 306.929949 563.904 
L 306.929949 227.863876 
L 290.595129 227.863876 
z
" clip-path="url(#pe10ab87098)" style="fill: #ff7f0e"/>
   </g>
   <g id="patch_43">
    <path d="M 311.013654 563.904 
L 327.348473 563.904 
L 327.348473 229.112605 
L 311.013654 229.112605 
z
" clip-path="url(#pe10ab87098)" style="fill: #ff7f0e"/>
   </g>
   <g id="patch_44">
    <path d="M 331.432178 563.904 
L 347.766998 563.904 
L 347.766998 227.822547 
L 331.432178 227.822547 
z
" clip-path="url(#pe10ab87098)" style="fill: #ff7f0e"/>
   </g>
   <g id="patch_45">
    <path d="M 351.850703 563.904 
L 368.185523 563.904 
L 368.185523 224.953548 
L 351.850703 224.953548 
z
" clip-path="url(#pe10ab87098)" style="fill: #ff7f0e"/>
   </g>
   <g id="patch_46">
    <path d="M 372.269228 563.904 
L 388.604048 563.904 
L 388.604048 221.171713 
L 372.269228 221.171713 
z
" clip-path="url(#pe10ab87098)" style="fill: #ff7f0e"/>
   </g>
   <g id="patch_47">
    <path d="M 392.687753 563.904 
L 409.022573 563.904 
L 409.022573 219.907315 
L 392.687753 219.907315 
z
" clip-path="url(#pe10ab87098)" style="fill: #ff7f0e"/>
   </g>
   <g id="patch_48">
    <path d="M 413.106278 563.904 
L 429.441098 563.904 
L 429.441098 215.917606 
L 413.106278 215.917606 
z
" clip-path="url(#pe10ab87098)" style="fill: #ff7f0e"/>
   </g>
   <g id="patch_49">
    <path d="M 433.524803 563.904 
L 449.859623 563.904 
L 449.859623 209.917935 
L 433.524803 209.917935 
z
" clip-path="url(#pe10ab87098)" style="fill: #ff7f0e"/>
   </g>
   <g id="patch_50">
    <path d="M 453.943328 563.904 
L 470.278148 563.904 
L 470.278148 204.566608 
L 453.943328 204.566608 
z
" clip-path="url(#pe10ab87098)" style="fill: #ff7f0e"/>
   </g>
   <g id="patch_51">
    <path d="M 474.361852 563.904 
L 490.696672 563.904 
L 490.696672 217.943682 
L 474.361852 217.943682 
z
" clip-path="url(#pe10ab87098)" style="fill: #ff7f0e"/>
   </g>
   <g id="patch_52">
    <path d="M 494.780377 563.904 
L 511.115197 563.904 
L 511.115197 213.855185 
L 494.780377 213.855185 
z
" clip-path="url(#pe10ab87098)" style="fill: #ff7f0e"/>
   </g>
   <g id="patch_53">
    <path d="M 515.198902 563.904 
L 531.533722 563.904 
L 531.533722 209.010952 
L 515.198902 209.010952 
z
" clip-path="url(#pe10ab87098)" style="fill: #ff7f0e"/>
   </g>
   <g id="patch_54">
    <path d="M 535.617427 563.904 
L 551.952247 563.904 
L 551.952247 204.234564 
L 535.617427 204.234564 
z
" clip-path="url(#pe10ab87098)" style="fill: #ff7f0e"/>
   </g>
   <g id="patch_55">
    <path d="M 556.035952 563.904 
L 572.370772 563.904 
L 572.370772 200.422953 
L 556.035952 200.422953 
z
" clip-path="url(#pe10ab87098)" style="fill: #ff7f0e"/>
   </g>
   <g id="patch_56">
    <path d="M 576.454477 563.904 
L 592.789297 563.904 
L 592.789297 194.425226 
L 576.454477 194.425226 
z
" clip-path="url(#pe10ab87098)" style="fill: #ff7f0e"/>
   </g>
   <g id="patch_57">
    <path d="M 596.873002 563.904 
L 613.207822 563.904 
L 613.207822 191.272167 
L 596.873002 191.272167 
z
" clip-path="url(#pe10ab87098)" style="fill: #ff7f0e"/>
   </g>
   <g id="patch_58">
    <path d="M 617.291527 563.904 
L 633.626346 563.904 
L 633.626346 185.256202 
L 617.291527 185.256202 
z
" clip-path="url(#pe10ab87098)" style="fill: #ff7f0e"/>
   </g>
   <g id="patch_59">
    <path d="M 637.710051 563.904 
L 654.044871 563.904 
L 654.044871 190.140377 
L 637.710051 190.140377 
z
" clip-path="url(#pe10ab87098)" style="fill: #ff7f0e"/>
   </g>
   <g id="patch_60">
    <path d="M 658.128576 563.904 
L 674.463396 563.904 
L 674.463396 186.303043 
L 658.128576 186.303043 
z
" clip-path="url(#pe10ab87098)" style="fill: #ff7f0e"/>
   </g>
   <g id="patch_61">
    <path d="M 678.547101 563.904 
L 694.881921 563.904 
L 694.881921 182.679257 
L 678.547101 182.679257 
z
" clip-path="url(#pe10ab87098)" style="fill: #ff7f0e"/>
   </g>
   <g id="patch_62">
    <path d="M 698.965626 563.904 
L 715.300446 563.904 
L 715.300446 177.613554 
L 698.965626 177.613554 
z
" clip-path="url(#pe10ab87098)" style="fill: #ff7f0e"/>
   </g>
   <g id="patch_63">
    <path d="M 719.384151 563.904 
L 735.718971 563.904 
L 735.718971 178.212288 
L 719.384151 178.212288 
z
" clip-path="url(#pe10ab87098)" style="fill: #ff7f0e"/>
   </g>
   <g id="patch_64">
    <path d="M 739.802676 563.904 
L 756.137496 563.904 
L 756.137496 173.92918 
L 739.802676 173.92918 
z
" clip-path="url(#pe10ab87098)" style="fill: #ff7f0e"/>
   </g>
   <g id="patch_65">
    <path d="M 760.221201 563.904 
L 776.556021 563.904 
L 776.556021 171.335077 
L 760.221201 171.335077 
z
" clip-path="url(#pe10ab87098)" style="fill: #ff7f0e"/>
   </g>
   <g id="patch_66">
    <path d="M 780.639726 563.904 
L 796.974545 563.904 
L 796.974545 166.886081 
L 780.639726 166.886081 
z
" clip-path="url(#pe10ab87098)" style="fill: #ff7f0e"/>
   </g>
   <g id="patch_67">
    <path d="M 147.665455 563.904 
L 164.000274 563.904 
L 164.000274 240.620577 
L 147.665455 240.620577 
z
" clip-path="url(#pe10ab87098)" style="fill: #2ca02c"/>
   </g>
   <g id="patch_68">
    <path d="M 168.083979 563.904 
L 184.418799 563.904 
L 184.418799 267.840696 
L 168.083979 267.840696 
z
" clip-path="url(#pe10ab87098)" style="fill: #2ca02c"/>
   </g>
   <g id="patch_69">
    <path d="M 188.502504 563.904 
L 204.837324 563.904 
L 204.837324 277.210343 
L 188.502504 277.210343 
z
" clip-path="url(#pe10ab87098)" style="fill: #2ca02c"/>
   </g>
   <g id="patch_70">
    <path d="M 208.921029 563.904 
L 225.255849 563.904 
L 225.255849 283.979384 
L 208.921029 283.979384 
z
" clip-path="url(#pe10ab87098)" style="fill: #2ca02c"/>
   </g>
   <g id="patch_71">
    <path d="M 229.339554 563.904 
L 245.674374 563.904 
L 245.674374 286.011791 
L 229.339554 286.011791 
z
" clip-path="url(#pe10ab87098)" style="fill: #2ca02c"/>
   </g>
   <g id="patch_72">
    <path d="M 249.758079 563.904 
L 266.092899 563.904 
L 266.092899 285.693946 
L 249.758079 285.693946 
z
" clip-path="url(#pe10ab87098)" style="fill: #2ca02c"/>
   </g>
   <g id="patch_73">
    <path d="M 270.176604 563.904 
L 286.511424 563.904 
L 286.511424 285.7273 
L 270.176604 285.7273 
z
" clip-path="url(#pe10ab87098)" style="fill: #2ca02c"/>
   </g>
   <g id="patch_74">
    <path d="M 290.595129 563.904 
L 306.929949 563.904 
L 306.929949 285.536197 
L 290.595129 285.536197 
z
" clip-path="url(#pe10ab87098)" style="fill: #2ca02c"/>
   </g>
   <g id="patch_75">
    <path d="M 311.013654 563.904 
L 327.348473 563.904 
L 327.348473 284.780999 
L 311.013654 284.780999 
z
" clip-path="url(#pe10ab87098)" style="fill: #2ca02c"/>
   </g>
   <g id="patch_76">
    <path d="M 331.432178 563.904 
L 347.766998 563.904 
L 347.766998 283.300762 
L 331.432178 283.300762 
z
" clip-path="url(#pe10ab87098)" style="fill: #2ca02c"/>
   </g>
   <g id="patch_77">
    <path d="M 351.850703 563.904 
L 368.185523 563.904 
L 368.185523 281.887135 
L 351.850703 281.887135 
z
" clip-path="url(#pe10ab87098)" style="fill: #2ca02c"/>
   </g>
   <g id="patch_78">
    <path d="M 372.269228 563.904 
L 388.604048 563.904 
L 388.604048 278.604572 
L 372.269228 278.604572 
z
" clip-path="url(#pe10ab87098)" style="fill: #2ca02c"/>
   </g>
   <g id="patch_79">
    <path d="M 392.687753 563.904 
L 409.022573 563.904 
L 409.022573 276.662435 
L 392.687753 276.662435 
z
" clip-path="url(#pe10ab87098)" style="fill: #2ca02c"/>
   </g>
   <g id="patch_80">
    <path d="M 413.106278 563.904 
L 429.441098 563.904 
L 429.441098 273.89022 
L 413.106278 273.89022 
z
" clip-path="url(#pe10ab87098)" style="fill: #2ca02c"/>
   </g>
   <g id="patch_81">
    <path d="M 433.524803 563.904 
L 449.859623 563.904 
L 449.859623 268.797581 
L 433.524803 268.797581 
z
" clip-path="url(#pe10ab87098)" style="fill: #2ca02c"/>
   </g>
   <g id="patch_82">
    <path d="M 453.943328 563.904 
L 470.278148 563.904 
L 470.278148 265.313957 
L 453.943328 265.313957 
z
" clip-path="url(#pe10ab87098)" style="fill: #2ca02c"/>
   </g>
   <g id="patch_83">
    <path d="M 474.361852 563.904 
L 490.696672 563.904 
L 490.696672 274.65049 
L 474.361852 274.65049 
z
" clip-path="url(#pe10ab87098)" style="fill: #2ca02c"/>
   </g>
   <g id="patch_84">
    <path d="M 494.780377 563.904 
L 511.115197 563.904 
L 511.115197 272.128324 
L 494.780377 272.128324 
z
" clip-path="url(#pe10ab87098)" style="fill: #2ca02c"/>
   </g>
   <g id="patch_85">
    <path d="M 515.198902 563.904 
L 531.533722 563.904 
L 531.533722 267.748904 
L 515.198902 267.748904 
z
" clip-path="url(#pe10ab87098)" style="fill: #2ca02c"/>
   </g>
   <g id="patch_86">
    <path d="M 535.617427 563.904 
L 551.952247 563.904 
L 551.952247 264.432451 
L 535.617427 264.432451 
z
" clip-path="url(#pe10ab87098)" style="fill: #2ca02c"/>
   </g>
   <g id="patch_87">
    <path d="M 556.035952 563.904 
L 572.370772 563.904 
L 572.370772 260.607829 
L 556.035952 260.607829 
z
" clip-path="url(#pe10ab87098)" style="fill: #2ca02c"/>
   </g>
   <g id="patch_88">
    <path d="M 576.454477 563.904 
L 592.789297 563.904 
L 592.789297 255.738618 
L 576.454477 255.738618 
z
" clip-path="url(#pe10ab87098)" style="fill: #2ca02c"/>
   </g>
   <g id="patch_89">
    <path d="M 596.873002 563.904 
L 613.207822 563.904 
L 613.207822 253.172476 
L 596.873002 253.172476 
z
" clip-path="url(#pe10ab87098)" style="fill: #2ca02c"/>
   </g>
   <g id="patch_90">
    <path d="M 617.291527 563.904 
L 633.626346 563.904 
L 633.626346 248.771769 
L 617.291527 248.771769 
z
" clip-path="url(#pe10ab87098)" style="fill: #2ca02c"/>
   </g>
   <g id="patch_91">
    <path d="M 637.710051 563.904 
L 654.044871 563.904 
L 654.044871 252.652996 
L 637.710051 252.652996 
z
" clip-path="url(#pe10ab87098)" style="fill: #2ca02c"/>
   </g>
   <g id="patch_92">
    <path d="M 658.128576 563.904 
L 674.463396 563.904 
L 674.463396 249.65492 
L 658.128576 249.65492 
z
" clip-path="url(#pe10ab87098)" style="fill: #2ca02c"/>
   </g>
   <g id="patch_93">
    <path d="M 678.547101 563.904 
L 694.881921 563.904 
L 694.881921 245.802123 
L 678.547101 245.802123 
z
" clip-path="url(#pe10ab87098)" style="fill: #2ca02c"/>
   </g>
   <g id="patch_94">
    <path d="M 698.965626 563.904 
L 715.300446 563.904 
L 715.300446 241.304652 
L 698.965626 241.304652 
z
" clip-path="url(#pe10ab87098)" style="fill: #2ca02c"/>
   </g>
   <g id="patch_95">
    <path d="M 719.384151 563.904 
L 735.718971 563.904 
L 735.718971 242.804452 
L 719.384151 242.804452 
z
" clip-path="url(#pe10ab87098)" style="fill: #2ca02c"/>
   </g>
   <g id="patch_96">
    <path d="M 739.802676 563.904 
L 756.137496 563.904 
L 756.137496 238.905764 
L 739.802676 238.905764 
z
" clip-path="url(#pe10ab87098)" style="fill: #2ca02c"/>
   </g>
   <g id="patch_97">
    <path d="M 760.221201 563.904 
L 776.556021 563.904 
L 776.556021 236.754732 
L 760.221201 236.754732 
z
" clip-path="url(#pe10ab87098)" style="fill: #2ca02c"/>
   </g>
   <g id="patch_98">
    <path d="M 780.639726 563.904 
L 796.974545 563.904 
L 796.974545 232.322617 
L 780.639726 232.322617 
z
" clip-path="url(#pe10ab87098)" style="fill: #2ca02c"/>
   </g>
   <g id="patch_99">
    <path d="M 147.665455 563.904 
L 164.000274 563.904 
L 164.000274 490.362147 
L 147.665455 490.362147 
z
" clip-path="url(#pe10ab87098)" style="fill: #d62728"/>
   </g>
   <g id="patch_100">
    <path d="M 168.083979 563.904 
L 184.418799 563.904 
L 184.418799 505.006752 
L 168.083979 505.006752 
z
" clip-path="url(#pe10ab87098)" style="fill: #d62728"/>
   </g>
   <g id="patch_101">
    <path d="M 188.502504 563.904 
L 204.837324 563.904 
L 204.837324 507.430646 
L 188.502504 507.430646 
z
" clip-path="url(#pe10ab87098)" style="fill: #d62728"/>
   </g>
   <g id="patch_102">
    <path d="M 208.921029 563.904 
L 225.255849 563.904 
L 225.255849 507.486969 
L 208.921029 507.486969 
z
" clip-path="url(#pe10ab87098)" style="fill: #d62728"/>
   </g>
   <g id="patch_103">
    <path d="M 229.339554 563.904 
L 245.674374 563.904 
L 245.674374 508.68481 
L 229.339554 508.68481 
z
" clip-path="url(#pe10ab87098)" style="fill: #d62728"/>
   </g>
   <g id="patch_104">
    <path d="M 249.758079 563.904 
L 266.092899 563.904 
L 266.092899 507.541129 
L 249.758079 507.541129 
z
" clip-path="url(#pe10ab87098)" style="fill: #d62728"/>
   </g>
   <g id="patch_105">
    <path d="M 270.176604 563.904 
L 286.511424 563.904 
L 286.511424 508.124199 
L 270.176604 508.124199 
z
" clip-path="url(#pe10ab87098)" style="fill: #d62728"/>
   </g>
   <g id="patch_106">
    <path d="M 290.595129 563.904 
L 306.929949 563.904 
L 306.929949 506.231678 
L 290.595129 506.231678 
z
" clip-path="url(#pe10ab87098)" style="fill: #d62728"/>
   </g>
   <g id="patch_107">
    <path d="M 311.013654 563.904 
L 327.348473 563.904 
L 327.348473 508.235606 
L 311.013654 508.235606 
z
" clip-path="url(#pe10ab87098)" style="fill: #d62728"/>
   </g>
   <g id="patch_108">
    <path d="M 331.432178 563.904 
L 347.766998 563.904 
L 347.766998 508.425785 
L 331.432178 508.425785 
z
" clip-path="url(#pe10ab87098)" style="fill: #d62728"/>
   </g>
   <g id="patch_109">
    <path d="M 351.850703 563.904 
L 368.185523 563.904 
L 368.185523 506.970413 
L 351.850703 506.970413 
z
" clip-path="url(#pe10ab87098)" style="fill: #d62728"/>
   </g>
   <g id="patch_110">
    <path d="M 372.269228 563.904 
L 388.604048 563.904 
L 388.604048 506.471141 
L 372.269228 506.471141 
z
" clip-path="url(#pe10ab87098)" style="fill: #d62728"/>
   </g>
   <g id="patch_111">
    <path d="M 392.687753 563.904 
L 409.022573 563.904 
L 409.022573 507.148879 
L 392.687753 507.148879 
z
" clip-path="url(#pe10ab87098)" style="fill: #d62728"/>
   </g>
   <g id="patch_112">
    <path d="M 413.106278 563.904 
L 429.441098 563.904 
L 429.441098 505.931386 
L 413.106278 505.931386 
z
" clip-path="url(#pe10ab87098)" style="fill: #d62728"/>
   </g>
   <g id="patch_113">
    <path d="M 433.524803 563.904 
L 449.859623 563.904 
L 449.859623 505.024353 
L 433.524803 505.024353 
z
" clip-path="url(#pe10ab87098)" style="fill: #d62728"/>
   </g>
   <g id="patch_114">
    <path d="M 453.943328 563.904 
L 470.278148 563.904 
L 470.278148 503.156651 
L 453.943328 503.156651 
z
" clip-path="url(#pe10ab87098)" style="fill: #d62728"/>
   </g>
   <g id="patch_115">
    <path d="M 474.361852 563.904 
L 490.696672 563.904 
L 490.696672 507.197192 
L 474.361852 507.197192 
z
" clip-path="url(#pe10ab87098)" style="fill: #d62728"/>
   </g>
   <g id="patch_116">
    <path d="M 494.780377 563.904 
L 511.115197 563.904 
L 511.115197 505.630862 
L 494.780377 505.630862 
z
" clip-path="url(#pe10ab87098)" style="fill: #d62728"/>
   </g>
   <g id="patch_117">
    <path d="M 515.198902 563.904 
L 531.533722 563.904 
L 531.533722 505.166048 
L 515.198902 505.166048 
z
" clip-path="url(#pe10ab87098)" style="fill: #d62728"/>
   </g>
   <g id="patch_118">
    <path d="M 535.617427 563.904 
L 551.952247 563.904 
L 551.952247 503.706113 
L 535.617427 503.706113 
z
" clip-path="url(#pe10ab87098)" style="fill: #d62728"/>
   </g>
   <g id="patch_119">
    <path d="M 556.035952 563.904 
L 572.370772 563.904 
L 572.370772 503.719125 
L 556.035952 503.719125 
z
" clip-path="url(#pe10ab87098)" style="fill: #d62728"/>
   </g>
   <g id="patch_120">
    <path d="M 576.454477 563.904 
L 592.789297 563.904 
L 592.789297 502.590608 
L 576.454477 502.590608 
z
" clip-path="url(#pe10ab87098)" style="fill: #d62728"/>
   </g>
   <g id="patch_121">
    <path d="M 596.873002 563.904 
L 613.207822 563.904 
L 613.207822 502.003691 
L 596.873002 502.003691 
z
" clip-path="url(#pe10ab87098)" style="fill: #d62728"/>
   </g>
   <g id="patch_122">
    <path d="M 617.291527 563.904 
L 633.626346 563.904 
L 633.626346 500.388432 
L 617.291527 500.388432 
z
" clip-path="url(#pe10ab87098)" style="fill: #d62728"/>
   </g>
   <g id="patch_123">
    <path d="M 637.710051 563.904 
L 654.044871 563.904 
L 654.044871 501.391381 
L 637.710051 501.391381 
z
" clip-path="url(#pe10ab87098)" style="fill: #d62728"/>
   </g>
   <g id="patch_124">
    <path d="M 658.128576 563.904 
L 674.463396 563.904 
L 674.463396 500.552123 
L 658.128576 500.552123 
z
" clip-path="url(#pe10ab87098)" style="fill: #d62728"/>
   </g>
   <g id="patch_125">
    <path d="M 678.547101 563.904 
L 694.881921 563.904 
L 694.881921 500.781134 
L 678.547101 500.781134 
z
" clip-path="url(#pe10ab87098)" style="fill: #d62728"/>
   </g>
   <g id="patch_126">
    <path d="M 698.965626 563.904 
L 715.300446 563.904 
L 715.300446 500.212902 
L 698.965626 500.212902 
z
" clip-path="url(#pe10ab87098)" style="fill: #d62728"/>
   </g>
   <g id="patch_127">
    <path d="M 719.384151 563.904 
L 735.718971 563.904 
L 735.718971 499.311837 
L 719.384151 499.311837 
z
" clip-path="url(#pe10ab87098)" style="fill: #d62728"/>
   </g>
   <g id="patch_128">
    <path d="M 739.802676 563.904 
L 756.137496 563.904 
L 756.137496 498.927416 
L 739.802676 498.927416 
z
" clip-path="url(#pe10ab87098)" style="fill: #d62728"/>
   </g>
   <g id="patch_129">
    <path d="M 760.221201 563.904 
L 776.556021 563.904 
L 776.556021 498.484344 
L 760.221201 498.484344 
z
" clip-path="url(#pe10ab87098)" style="fill: #d62728"/>
   </g>
   <g id="patch_130">
    <path d="M 780.639726 563.904 
L 796.974545 563.904 
L 796.974545 498.467464 
L 780.639726 498.467464 
z
" clip-path="url(#pe10ab87098)" style="fill: #d62728"/>
   </g>
   <g id="matplotlib.axis_1">
    <g id="xtick_1">
     <g id="line2d_1">
      <defs>
       <path id="m4cd9aea494" d="M 0 0 
L 0 3.5 
" style="stroke: #000000; stroke-width: 1.6"/>
      </defs>
      <g>
       <use xlink:href="#m4cd9aea494" x="135.41434" y="563.904" style="stroke: #000000; stroke-width: 1.6"/>
      </g>
     </g>
     <g id="text_1">
      <!-- 0 -->
      <g transform="translate(130.32434 590.7615)scale(0.16 -0.16)">
       <defs>
        <path id="DejaVuSans-30" d="M 2034 4250 
Q 1547 4250 1301 3770 
Q 1056 3291 1056 2328 
Q 1056 1369 1301 889 
Q 1547 409 2034 409 
Q 2525 409 2770 889 
Q 3016 1369 3016 2328 
Q 3016 3291 2770 3770 
Q 2525 4250 2034 4250 
z
M 2034 4750 
Q 2819 4750 3233 4129 
Q 3647 3509 3647 2328 
Q 3647 1150 3233 529 
Q 2819 -91 2034 -91 
Q 1250 -91 836 529 
Q 422 1150 422 2328 
Q 422 3509 836 4129 
Q 1250 4750 2034 4750 
z
" transform="scale(0.015625)"/>
       </defs>
       <use xlink:href="#DejaVuSans-30"/>
      </g>
     </g>
    </g>
    <g id="xtick_2">
     <g id="line2d_2">
      <g>
       <use xlink:href="#m4cd9aea494" x="237.506964" y="563.904" style="stroke: #000000; stroke-width: 1.6"/>
      </g>
     </g>
     <g id="text_2">
      <!-- 5 -->
      <g transform="translate(232.416964 590.7615)scale(0.16 -0.16)">
       <defs>
        <path id="DejaVuSans-35" d="M 691 4666 
L 3169 4666 
L 3169 4134 
L 1269 4134 
L 1269 2991 
Q 1406 3038 1543 3061 
Q 1681 3084 1819 3084 
Q 2600 3084 3056 2656 
Q 3513 2228 3513 1497 
Q 3513 744 3044 326 
Q 2575 -91 1722 -91 
Q 1428 -91 1123 -41 
Q 819 9 494 109 
L 494 744 
Q 775 591 1075 516 
Q 1375 441 1709 441 
Q 2250 441 2565 725 
Q 2881 1009 2881 1497 
Q 2881 1984 2565 2268 
Q 2250 2553 1709 2553 
Q 1456 2553 1204 2497 
Q 953 2441 691 2322 
L 691 4666 
z
" transform="scale(0.015625)"/>
       </defs>
       <use xlink:href="#DejaVuSans-35"/>
      </g>
     </g>
    </g>
    <g id="xtick_3">
     <g id="line2d_3">
      <g>
       <use xlink:href="#m4cd9aea494" x="339.599588" y="563.904" style="stroke: #000000; stroke-width: 1.6"/>
      </g>
     </g>
     <g id="text_3">
      <!-- 10 -->
      <g transform="translate(329.419588 590.7615)scale(0.16 -0.16)">
       <defs>
        <path id="DejaVuSans-31" d="M 794 531 
L 1825 531 
L 1825 4091 
L 703 3866 
L 703 4441 
L 1819 4666 
L 2450 4666 
L 2450 531 
L 3481 531 
L 3481 0 
L 794 0 
L 794 531 
z
" transform="scale(0.015625)"/>
       </defs>
       <use xlink:href="#DejaVuSans-31"/>
       <use xlink:href="#DejaVuSans-30" x="63.623047"/>
      </g>
     </g>
    </g>
    <g id="xtick_4">
     <g id="line2d_4">
      <g>
       <use xlink:href="#m4cd9aea494" x="441.692213" y="563.904" style="stroke: #000000; stroke-width: 1.6"/>
      </g>
     </g>
     <g id="text_4">
      <!-- 15 -->
      <g transform="translate(431.512213 590.7615)scale(0.16 -0.16)">
       <use xlink:href="#DejaVuSans-31"/>
       <use xlink:href="#DejaVuSans-35" x="63.623047"/>
      </g>
     </g>
    </g>
    <g id="xtick_5">
     <g id="line2d_5">
      <g>
       <use xlink:href="#m4cd9aea494" x="543.784837" y="563.904" style="stroke: #000000; stroke-width: 1.6"/>
      </g>
     </g>
     <g id="text_5">
      <!-- 20 -->
      <g transform="translate(533.604837 590.7615)scale(0.16 -0.16)">
       <defs>
        <path id="DejaVuSans-32" d="M 1228 531 
L 3431 531 
L 3431 0 
L 469 0 
L 469 531 
Q 828 903 1448 1529 
Q 2069 2156 2228 2338 
Q 2531 2678 2651 2914 
Q 2772 3150 2772 3378 
Q 2772 3750 2511 3984 
Q 2250 4219 1831 4219 
Q 1534 4219 1204 4116 
Q 875 4013 500 3803 
L 500 4441 
Q 881 4594 1212 4672 
Q 1544 4750 1819 4750 
Q 2544 4750 2975 4387 
Q 3406 4025 3406 3419 
Q 3406 3131 3298 2873 
Q 3191 2616 2906 2266 
Q 2828 2175 2409 1742 
Q 1991 1309 1228 531 
z
" transform="scale(0.015625)"/>
       </defs>
       <use xlink:href="#DejaVuSans-32"/>
       <use xlink:href="#DejaVuSans-30" x="63.623047"/>
      </g>
     </g>
    </g>
    <g id="xtick_6">
     <g id="line2d_6">
      <g>
       <use xlink:href="#m4cd9aea494" x="645.877461" y="563.904" style="stroke: #000000; stroke-width: 1.6"/>
      </g>
     </g>
     <g id="text_6">
      <!-- 25 -->
      <g transform="translate(635.697461 590.7615)scale(0.16 -0.16)">
       <use xlink:href="#DejaVuSans-32"/>
       <use xlink:href="#DejaVuSans-35" x="63.623047"/>
      </g>
     </g>
    </g>
    <g id="xtick_7">
     <g id="line2d_7">
      <g>
       <use xlink:href="#m4cd9aea494" x="747.970086" y="563.904" style="stroke: #000000; stroke-width: 1.6"/>
      </g>
     </g>
     <g id="text_7">
      <!-- 30 -->
      <g transform="translate(737.790086 590.7615)scale(0.16 -0.16)">
       <defs>
        <path id="DejaVuSans-33" d="M 2597 2516 
Q 3050 2419 3304 2112 
Q 3559 1806 3559 1356 
Q 3559 666 3084 287 
Q 2609 -91 1734 -91 
Q 1441 -91 1130 -33 
Q 819 25 488 141 
L 488 750 
Q 750 597 1062 519 
Q 1375 441 1716 441 
Q 2309 441 2620 675 
Q 2931 909 2931 1356 
Q 2931 1769 2642 2001 
Q 2353 2234 1838 2234 
L 1294 2234 
L 1294 2753 
L 1863 2753 
Q 2328 2753 2575 2939 
Q 2822 3125 2822 3475 
Q 2822 3834 2567 4026 
Q 2313 4219 1838 4219 
Q 1578 4219 1281 4162 
Q 984 4106 628 3988 
L 628 4550 
Q 988 4650 1302 4700 
Q 1616 4750 1894 4750 
Q 2613 4750 3031 4423 
Q 3450 4097 3450 3541 
Q 3450 3153 3228 2886 
Q 3006 2619 2597 2516 
z
" transform="scale(0.015625)"/>
       </defs>
       <use xlink:href="#DejaVuSans-33"/>
       <use xlink:href="#DejaVuSans-30" x="63.623047"/>
      </g>
     </g>
    </g>
    <g id="text_8">
     <!-- Size bin number -->
     <g transform="translate(400.708625 611.46225)scale(0.176 -0.176)">
      <defs>
       <path id="DejaVuSans-53" d="M 3425 4513 
L 3425 3897 
Q 3066 4069 2747 4153 
Q 2428 4238 2131 4238 
Q 1616 4238 1336 4038 
Q 1056 3838 1056 3469 
Q 1056 3159 1242 3001 
Q 1428 2844 1947 2747 
L 2328 2669 
Q 3034 2534 3370 2195 
Q 3706 1856 3706 1288 
Q 3706 609 3251 259 
Q 2797 -91 1919 -91 
Q 1588 -91 1214 -16 
Q 841 59 441 206 
L 441 856 
Q 825 641 1194 531 
Q 1563 422 1919 422 
Q 2459 422 2753 634 
Q 3047 847 3047 1241 
Q 3047 1584 2836 1778 
Q 2625 1972 2144 2069 
L 1759 2144 
Q 1053 2284 737 2584 
Q 422 2884 422 3419 
Q 422 4038 858 4394 
Q 1294 4750 2059 4750 
Q 2388 4750 2728 4690 
Q 3069 4631 3425 4513 
z
" transform="scale(0.015625)"/>
       <path id="DejaVuSans-69" d="M 603 3500 
L 1178 3500 
L 1178 0 
L 603 0 
L 603 3500 
z
M 603 4863 
L 1178 4863 
L 1178 4134 
L 603 4134 
L 603 4863 
z
" transform="scale(0.015625)"/>
       <path id="DejaVuSans-7a" d="M 353 3500 
L 3084 3500 
L 3084 2975 
L 922 459 
L 3084 459 
L 3084 0 
L 275 0 
L 275 525 
L 2438 3041 
L 353 3041 
L 353 3500 
z
" transform="scale(0.015625)"/>
       <path id="DejaVuSans-65" d="M 3597 1894 
L 3597 1613 
L 953 1613 
Q 991 1019 1311 708 
Q 1631 397 2203 397 
Q 2534 397 2845 478 
Q 3156 559 3463 722 
L 3463 178 
Q 3153 47 2828 -22 
Q 2503 -91 2169 -91 
Q 1331 -91 842 396 
Q 353 884 353 1716 
Q 353 2575 817 3079 
Q 1281 3584 2069 3584 
Q 2775 3584 3186 3129 
Q 3597 2675 3597 1894 
z
M 3022 2063 
Q 3016 2534 2758 2815 
Q 2500 3097 2075 3097 
Q 1594 3097 1305 2825 
Q 1016 2553 972 2059 
L 3022 2063 
z
" transform="scale(0.015625)"/>
       <path id="DejaVuSans-20" transform="scale(0.015625)"/>
       <path id="DejaVuSans-62" d="M 3116 1747 
Q 3116 2381 2855 2742 
Q 2594 3103 2138 3103 
Q 1681 3103 1420 2742 
Q 1159 2381 1159 1747 
Q 1159 1113 1420 752 
Q 1681 391 2138 391 
Q 2594 391 2855 752 
Q 3116 1113 3116 1747 
z
M 1159 2969 
Q 1341 3281 1617 3432 
Q 1894 3584 2278 3584 
Q 2916 3584 3314 3078 
Q 3713 2572 3713 1747 
Q 3713 922 3314 415 
Q 2916 -91 2278 -91 
Q 1894 -91 1617 61 
Q 1341 213 1159 525 
L 1159 0 
L 581 0 
L 581 4863 
L 1159 4863 
L 1159 2969 
z
" transform="scale(0.015625)"/>
       <path id="DejaVuSans-6e" d="M 3513 2113 
L 3513 0 
L 2938 0 
L 2938 2094 
Q 2938 2591 2744 2837 
Q 2550 3084 2163 3084 
Q 1697 3084 1428 2787 
Q 1159 2491 1159 1978 
L 1159 0 
L 581 0 
L 581 3500 
L 1159 3500 
L 1159 2956 
Q 1366 3272 1645 3428 
Q 1925 3584 2291 3584 
Q 2894 3584 3203 3211 
Q 3513 2838 3513 2113 
z
" transform="scale(0.015625)"/>
       <path id="DejaVuSans-75" d="M 544 1381 
L 544 3500 
L 1119 3500 
L 1119 1403 
Q 1119 906 1312 657 
Q 1506 409 1894 409 
Q 2359 409 2629 706 
Q 2900 1003 2900 1516 
L 2900 3500 
L 3475 3500 
L 3475 0 
L 2900 0 
L 2900 538 
Q 2691 219 2414 64 
Q 2138 -91 1772 -91 
Q 1169 -91 856 284 
Q 544 659 544 1381 
z
M 1991 3584 
L 1991 3584 
z
" transform="scale(0.015625)"/>
       <path id="DejaVuSans-6d" d="M 3328 2828 
Q 3544 3216 3844 3400 
Q 4144 3584 4550 3584 
Q 5097 3584 5394 3201 
Q 5691 2819 5691 2113 
L 5691 0 
L 5113 0 
L 5113 2094 
Q 5113 2597 4934 2840 
Q 4756 3084 4391 3084 
Q 3944 3084 3684 2787 
Q 3425 2491 3425 1978 
L 3425 0 
L 2847 0 
L 2847 2094 
Q 2847 2600 2669 2842 
Q 2491 3084 2119 3084 
Q 1678 3084 1418 2786 
Q 1159 2488 1159 1978 
L 1159 0 
L 581 0 
L 581 3500 
L 1159 3500 
L 1159 2956 
Q 1356 3278 1631 3431 
Q 1906 3584 2284 3584 
Q 2666 3584 2933 3390 
Q 3200 3197 3328 2828 
z
" transform="scale(0.015625)"/>
       <path id="DejaVuSans-72" d="M 2631 2963 
Q 2534 3019 2420 3045 
Q 2306 3072 2169 3072 
Q 1681 3072 1420 2755 
Q 1159 2438 1159 1844 
L 1159 0 
L 581 0 
L 581 3500 
L 1159 3500 
L 1159 2956 
Q 1341 3275 1631 3429 
Q 1922 3584 2338 3584 
Q 2397 3584 2469 3576 
Q 2541 3569 2628 3553 
L 2631 2963 
z
" transform="scale(0.015625)"/>
      </defs>
      <use xlink:href="#DejaVuSans-53"/>
      <use xlink:href="#DejaVuSans-69" x="63.476562"/>
      <use xlink:href="#DejaVuSans-7a" x="91.259766"/>
      <use xlink:href="#DejaVuSans-65" x="143.75"/>
      <use xlink:href="#DejaVuSans-20" x="205.273438"/>
      <use xlink:href="#DejaVuSans-62" x="237.060547"/>
      <use xlink:href="#DejaVuSans-69" x="300.537109"/>
      <use xlink:href="#DejaVuSans-6e" x="328.320312"/>
      <use xlink:href="#DejaVuSans-20" x="391.699219"/>
      <use xlink:href="#DejaVuSans-6e" x="423.486328"/>
      <use xlink:href="#DejaVuSans-75" x="486.865234"/>
      <use xlink:href="#DejaVuSans-6d" x="550.244141"/>
      <use xlink:href="#DejaVuSans-62" x="647.65625"/>
      <use xlink:href="#DejaVuSans-65" x="711.132812"/>
      <use xlink:href="#DejaVuSans-72" x="772.65625"/>
     </g>
    </g>
   </g>
   <g id="matplotlib.axis_2">
    <g id="ytick_1">
     <g id="line2d_8">
      <defs>
       <path id="m2f0787b436" d="M 0 0 
L -3.5 0 
" style="stroke: #000000; stroke-width: 1.6"/>
      </defs>
      <g>
       <use xlink:href="#m2f0787b436" x="115.2" y="563.904" style="stroke: #000000; stroke-width: 1.6"/>
      </g>
     </g>
     <g id="text_9">
      <!-- 0.0 -->
      <g transform="translate(75.055 569.98275)scale(0.16 -0.16)">
       <defs>
        <path id="DejaVuSans-2e" d="M 684 794 
L 1344 794 
L 1344 0 
L 684 0 
L 684 794 
z
" transform="scale(0.015625)"/>
       </defs>
       <use xlink:href="#DejaVuSans-30"/>
       <use xlink:href="#DejaVuSans-2e" x="63.623047"/>
       <use xlink:href="#DejaVuSans-30" x="95.410156"/>
      </g>
     </g>
    </g>
    <g id="ytick_2">
     <g id="line2d_9">
      <g>
       <use xlink:href="#m2f0787b436" x="115.2" y="484.12886" style="stroke: #000000; stroke-width: 1.6"/>
      </g>
     </g>
     <g id="text_10">
      <!-- 0.1 -->
      <g transform="translate(75.055 490.20761)scale(0.16 -0.16)">
       <use xlink:href="#DejaVuSans-30"/>
       <use xlink:href="#DejaVuSans-2e" x="63.623047"/>
       <use xlink:href="#DejaVuSans-31" x="95.410156"/>
      </g>
     </g>
    </g>
    <g id="ytick_3">
     <g id="line2d_10">
      <g>
       <use xlink:href="#m2f0787b436" x="115.2" y="404.35372" style="stroke: #000000; stroke-width: 1.6"/>
      </g>
     </g>
     <g id="text_11">
      <!-- 0.2 -->
      <g transform="translate(75.055 410.43247)scale(0.16 -0.16)">
       <use xlink:href="#DejaVuSans-30"/>
       <use xlink:href="#DejaVuSans-2e" x="63.623047"/>
       <use xlink:href="#DejaVuSans-32" x="95.410156"/>
      </g>
     </g>
    </g>
    <g id="ytick_4">
     <g id="line2d_11">
      <g>
       <use xlink:href="#m2f0787b436" x="115.2" y="324.57858" style="stroke: #000000; stroke-width: 1.6"/>
      </g>
     </g>
     <g id="text_12">
      <!-- 0.3 -->
      <g transform="translate(75.055 330.65733)scale(0.16 -0.16)">
       <use xlink:href="#DejaVuSans-30"/>
       <use xlink:href="#DejaVuSans-2e" x="63.623047"/>
       <use xlink:href="#DejaVuSans-33" x="95.410156"/>
      </g>
     </g>
    </g>
    <g id="ytick_5">
     <g id="line2d_12">
      <g>
       <use xlink:href="#m2f0787b436" x="115.2" y="244.803441" style="stroke: #000000; stroke-width: 1.6"/>
      </g>
     </g>
     <g id="text_13">
      <!-- 0.4 -->
      <g transform="translate(75.055 250.882191)scale(0.16 -0.16)">
       <defs>
        <path id="DejaVuSans-34" d="M 2419 4116 
L 825 1625 
L 2419 1625 
L 2419 4116 
z
M 2253 4666 
L 3047 4666 
L 3047 1625 
L 3713 1625 
L 3713 1100 
L 3047 1100 
L 3047 0 
L 2419 0 
L 2419 1100 
L 313 1100 
L 313 1709 
L 2253 4666 
z
" transform="scale(0.015625)"/>
       </defs>
       <use xlink:href="#DejaVuSans-30"/>
       <use xlink:href="#DejaVuSans-2e" x="63.623047"/>
       <use xlink:href="#DejaVuSans-34" x="95.410156"/>
      </g>
     </g>
    </g>
    <g id="ytick_6">
     <g id="line2d_13">
      <g>
       <use xlink:href="#m2f0787b436" x="115.2" y="165.028301" style="stroke: #000000; stroke-width: 1.6"/>
      </g>
     </g>
     <g id="text_14">
      <!-- 0.5 -->
      <g transform="translate(75.055 171.107051)scale(0.16 -0.16)">
       <use xlink:href="#DejaVuSans-30"/>
       <use xlink:href="#DejaVuSans-2e" x="63.623047"/>
       <use xlink:href="#DejaVuSans-35" x="95.410156"/>
      </g>
     </g>
    </g>
    <g id="ytick_7">
     <g id="line2d_14">
      <g>
       <use xlink:href="#m2f0787b436" x="115.2" y="85.253161" style="stroke: #000000; stroke-width: 1.6"/>
      </g>
     </g>
     <g id="text_15">
      <!-- 0.6 -->
      <g transform="translate(75.055 91.331911)scale(0.16 -0.16)">
       <defs>
        <path id="DejaVuSans-36" d="M 2113 2584 
Q 1688 2584 1439 2293 
Q 1191 2003 1191 1497 
Q 1191 994 1439 701 
Q 1688 409 2113 409 
Q 2538 409 2786 701 
Q 3034 994 3034 1497 
Q 3034 2003 2786 2293 
Q 2538 2584 2113 2584 
z
M 3366 4563 
L 3366 3988 
Q 3128 4100 2886 4159 
Q 2644 4219 2406 4219 
Q 1781 4219 1451 3797 
Q 1122 3375 1075 2522 
Q 1259 2794 1537 2939 
Q 1816 3084 2150 3084 
Q 2853 3084 3261 2657 
Q 3669 2231 3669 1497 
Q 3669 778 3244 343 
Q 2819 -91 2113 -91 
Q 1303 -91 875 529 
Q 447 1150 447 2328 
Q 447 3434 972 4092 
Q 1497 4750 2381 4750 
Q 2619 4750 2861 4703 
Q 3103 4656 3366 4563 
z
" transform="scale(0.015625)"/>
       </defs>
       <use xlink:href="#DejaVuSans-30"/>
       <use xlink:href="#DejaVuSans-2e" x="63.623047"/>
       <use xlink:href="#DejaVuSans-36" x="95.410156"/>
      </g>
     </g>
    </g>
    <g id="text_16">
     <!-- Node type proportions -->
     <g transform="translate(67.39475 418.6105)rotate(-90)scale(0.176 -0.176)">
      <defs>
       <path id="DejaVuSans-4e" d="M 628 4666 
L 1478 4666 
L 3547 763 
L 3547 4666 
L 4159 4666 
L 4159 0 
L 3309 0 
L 1241 3903 
L 1241 0 
L 628 0 
L 628 4666 
z
" transform="scale(0.015625)"/>
       <path id="DejaVuSans-6f" d="M 1959 3097 
Q 1497 3097 1228 2736 
Q 959 2375 959 1747 
Q 959 1119 1226 758 
Q 1494 397 1959 397 
Q 2419 397 2687 759 
Q 2956 1122 2956 1747 
Q 2956 2369 2687 2733 
Q 2419 3097 1959 3097 
z
M 1959 3584 
Q 2709 3584 3137 3096 
Q 3566 2609 3566 1747 
Q 3566 888 3137 398 
Q 2709 -91 1959 -91 
Q 1206 -91 779 398 
Q 353 888 353 1747 
Q 353 2609 779 3096 
Q 1206 3584 1959 3584 
z
" transform="scale(0.015625)"/>
       <path id="DejaVuSans-64" d="M 2906 2969 
L 2906 4863 
L 3481 4863 
L 3481 0 
L 2906 0 
L 2906 525 
Q 2725 213 2448 61 
Q 2172 -91 1784 -91 
Q 1150 -91 751 415 
Q 353 922 353 1747 
Q 353 2572 751 3078 
Q 1150 3584 1784 3584 
Q 2172 3584 2448 3432 
Q 2725 3281 2906 2969 
z
M 947 1747 
Q 947 1113 1208 752 
Q 1469 391 1925 391 
Q 2381 391 2643 752 
Q 2906 1113 2906 1747 
Q 2906 2381 2643 2742 
Q 2381 3103 1925 3103 
Q 1469 3103 1208 2742 
Q 947 2381 947 1747 
z
" transform="scale(0.015625)"/>
       <path id="DejaVuSans-74" d="M 1172 4494 
L 1172 3500 
L 2356 3500 
L 2356 3053 
L 1172 3053 
L 1172 1153 
Q 1172 725 1289 603 
Q 1406 481 1766 481 
L 2356 481 
L 2356 0 
L 1766 0 
Q 1100 0 847 248 
Q 594 497 594 1153 
L 594 3053 
L 172 3053 
L 172 3500 
L 594 3500 
L 594 4494 
L 1172 4494 
z
" transform="scale(0.015625)"/>
       <path id="DejaVuSans-79" d="M 2059 -325 
Q 1816 -950 1584 -1140 
Q 1353 -1331 966 -1331 
L 506 -1331 
L 506 -850 
L 844 -850 
Q 1081 -850 1212 -737 
Q 1344 -625 1503 -206 
L 1606 56 
L 191 3500 
L 800 3500 
L 1894 763 
L 2988 3500 
L 3597 3500 
L 2059 -325 
z
" transform="scale(0.015625)"/>
       <path id="DejaVuSans-70" d="M 1159 525 
L 1159 -1331 
L 581 -1331 
L 581 3500 
L 1159 3500 
L 1159 2969 
Q 1341 3281 1617 3432 
Q 1894 3584 2278 3584 
Q 2916 3584 3314 3078 
Q 3713 2572 3713 1747 
Q 3713 922 3314 415 
Q 2916 -91 2278 -91 
Q 1894 -91 1617 61 
Q 1341 213 1159 525 
z
M 3116 1747 
Q 3116 2381 2855 2742 
Q 2594 3103 2138 3103 
Q 1681 3103 1420 2742 
Q 1159 2381 1159 1747 
Q 1159 1113 1420 752 
Q 1681 391 2138 391 
Q 2594 391 2855 752 
Q 3116 1113 3116 1747 
z
" transform="scale(0.015625)"/>
       <path id="DejaVuSans-73" d="M 2834 3397 
L 2834 2853 
Q 2591 2978 2328 3040 
Q 2066 3103 1784 3103 
Q 1356 3103 1142 2972 
Q 928 2841 928 2578 
Q 928 2378 1081 2264 
Q 1234 2150 1697 2047 
L 1894 2003 
Q 2506 1872 2764 1633 
Q 3022 1394 3022 966 
Q 3022 478 2636 193 
Q 2250 -91 1575 -91 
Q 1294 -91 989 -36 
Q 684 19 347 128 
L 347 722 
Q 666 556 975 473 
Q 1284 391 1588 391 
Q 1994 391 2212 530 
Q 2431 669 2431 922 
Q 2431 1156 2273 1281 
Q 2116 1406 1581 1522 
L 1381 1569 
Q 847 1681 609 1914 
Q 372 2147 372 2553 
Q 372 3047 722 3315 
Q 1072 3584 1716 3584 
Q 2034 3584 2315 3537 
Q 2597 3491 2834 3397 
z
" transform="scale(0.015625)"/>
      </defs>
      <use xlink:href="#DejaVuSans-4e"/>
      <use xlink:href="#DejaVuSans-6f" x="74.804688"/>
      <use xlink:href="#DejaVuSans-64" x="135.986328"/>
      <use xlink:href="#DejaVuSans-65" x="199.462891"/>
      <use xlink:href="#DejaVuSans-20" x="260.986328"/>
      <use xlink:href="#DejaVuSans-74" x="292.773438"/>
      <use xlink:href="#DejaVuSans-79" x="331.982422"/>
      <use xlink:href="#DejaVuSans-70" x="391.162109"/>
      <use xlink:href="#DejaVuSans-65" x="454.638672"/>
      <use xlink:href="#DejaVuSans-20" x="516.162109"/>
      <use xlink:href="#DejaVuSans-70" x="547.949219"/>
      <use xlink:href="#DejaVuSans-72" x="611.425781"/>
      <use xlink:href="#DejaVuSans-6f" x="650.289062"/>
      <use xlink:href="#DejaVuSans-70" x="711.470703"/>
      <use xlink:href="#DejaVuSans-6f" x="774.947266"/>
      <use xlink:href="#DejaVuSans-72" x="836.128906"/>
      <use xlink:href="#DejaVuSans-74" x="877.242188"/>
      <use xlink:href="#DejaVuSans-69" x="916.451172"/>
      <use xlink:href="#DejaVuSans-6f" x="944.234375"/>
      <use xlink:href="#DejaVuSans-6e" x="1005.416016"/>
      <use xlink:href="#DejaVuSans-73" x="1068.794922"/>
     </g>
    </g>
   </g>
   <g id="patch_131">
    <path d="M 115.2 563.904 
L 115.2 76.032 
" style="fill: none; stroke: #000000; stroke-width: 0.8; stroke-linejoin: miter; stroke-linecap: square"/>
   </g>
   <g id="patch_132">
    <path d="M 829.44 563.904 
L 829.44 76.032 
" style="fill: none; stroke: #000000; stroke-width: 0.8; stroke-linejoin: miter; stroke-linecap: square"/>
   </g>
   <g id="patch_133">
    <path d="M 115.2 563.904 
L 829.44 563.904 
" style="fill: none; stroke: #000000; stroke-width: 0.8; stroke-linejoin: miter; stroke-linecap: square"/>
   </g>
   <g id="patch_134">
    <path d="M 115.2 76.032 
L 829.44 76.032 
" style="fill: none; stroke: #000000; stroke-width: 0.8; stroke-linejoin: miter; stroke-linecap: square"/>
   </g>
   <g id="text_17">
    <!-- Proportions of each node type, per size bin (nicolau_b) -->
    <g transform="translate(210.189 70.032)scale(0.192 -0.192)">
     <defs>
      <path id="DejaVuSans-50" d="M 1259 4147 
L 1259 2394 
L 2053 2394 
Q 2494 2394 2734 2622 
Q 2975 2850 2975 3272 
Q 2975 3691 2734 3919 
Q 2494 4147 2053 4147 
L 1259 4147 
z
M 628 4666 
L 2053 4666 
Q 2838 4666 3239 4311 
Q 3641 3956 3641 3272 
Q 3641 2581 3239 2228 
Q 2838 1875 2053 1875 
L 1259 1875 
L 1259 0 
L 628 0 
L 628 4666 
z
" transform="scale(0.015625)"/>
      <path id="DejaVuSans-66" d="M 2375 4863 
L 2375 4384 
L 1825 4384 
Q 1516 4384 1395 4259 
Q 1275 4134 1275 3809 
L 1275 3500 
L 2222 3500 
L 2222 3053 
L 1275 3053 
L 1275 0 
L 697 0 
L 697 3053 
L 147 3053 
L 147 3500 
L 697 3500 
L 697 3744 
Q 697 4328 969 4595 
Q 1241 4863 1831 4863 
L 2375 4863 
z
" transform="scale(0.015625)"/>
      <path id="DejaVuSans-61" d="M 2194 1759 
Q 1497 1759 1228 1600 
Q 959 1441 959 1056 
Q 959 750 1161 570 
Q 1363 391 1709 391 
Q 2188 391 2477 730 
Q 2766 1069 2766 1631 
L 2766 1759 
L 2194 1759 
z
M 3341 1997 
L 3341 0 
L 2766 0 
L 2766 531 
Q 2569 213 2275 61 
Q 1981 -91 1556 -91 
Q 1019 -91 701 211 
Q 384 513 384 1019 
Q 384 1609 779 1909 
Q 1175 2209 1959 2209 
L 2766 2209 
L 2766 2266 
Q 2766 2663 2505 2880 
Q 2244 3097 1772 3097 
Q 1472 3097 1187 3025 
Q 903 2953 641 2809 
L 641 3341 
Q 956 3463 1253 3523 
Q 1550 3584 1831 3584 
Q 2591 3584 2966 3190 
Q 3341 2797 3341 1997 
z
" transform="scale(0.015625)"/>
      <path id="DejaVuSans-63" d="M 3122 3366 
L 3122 2828 
Q 2878 2963 2633 3030 
Q 2388 3097 2138 3097 
Q 1578 3097 1268 2742 
Q 959 2388 959 1747 
Q 959 1106 1268 751 
Q 1578 397 2138 397 
Q 2388 397 2633 464 
Q 2878 531 3122 666 
L 3122 134 
Q 2881 22 2623 -34 
Q 2366 -91 2075 -91 
Q 1284 -91 818 406 
Q 353 903 353 1747 
Q 353 2603 823 3093 
Q 1294 3584 2113 3584 
Q 2378 3584 2631 3529 
Q 2884 3475 3122 3366 
z
" transform="scale(0.015625)"/>
      <path id="DejaVuSans-68" d="M 3513 2113 
L 3513 0 
L 2938 0 
L 2938 2094 
Q 2938 2591 2744 2837 
Q 2550 3084 2163 3084 
Q 1697 3084 1428 2787 
Q 1159 2491 1159 1978 
L 1159 0 
L 581 0 
L 581 4863 
L 1159 4863 
L 1159 2956 
Q 1366 3272 1645 3428 
Q 1925 3584 2291 3584 
Q 2894 3584 3203 3211 
Q 3513 2838 3513 2113 
z
" transform="scale(0.015625)"/>
      <path id="DejaVuSans-2c" d="M 750 794 
L 1409 794 
L 1409 256 
L 897 -744 
L 494 -744 
L 750 256 
L 750 794 
z
" transform="scale(0.015625)"/>
      <path id="DejaVuSans-28" d="M 1984 4856 
Q 1566 4138 1362 3434 
Q 1159 2731 1159 2009 
Q 1159 1288 1364 580 
Q 1569 -128 1984 -844 
L 1484 -844 
Q 1016 -109 783 600 
Q 550 1309 550 2009 
Q 550 2706 781 3412 
Q 1013 4119 1484 4856 
L 1984 4856 
z
" transform="scale(0.015625)"/>
      <path id="DejaVuSans-6c" d="M 603 4863 
L 1178 4863 
L 1178 0 
L 603 0 
L 603 4863 
z
" transform="scale(0.015625)"/>
      <path id="DejaVuSans-5f" d="M 3263 -1063 
L 3263 -1509 
L -63 -1509 
L -63 -1063 
L 3263 -1063 
z
" transform="scale(0.015625)"/>
      <path id="DejaVuSans-29" d="M 513 4856 
L 1013 4856 
Q 1481 4119 1714 3412 
Q 1947 2706 1947 2009 
Q 1947 1309 1714 600 
Q 1481 -109 1013 -844 
L 513 -844 
Q 928 -128 1133 580 
Q 1338 1288 1338 2009 
Q 1338 2731 1133 3434 
Q 928 4138 513 4856 
z
" transform="scale(0.015625)"/>
     </defs>
     <use xlink:href="#DejaVuSans-50"/>
     <use xlink:href="#DejaVuSans-72" x="58.552734"/>
     <use xlink:href="#DejaVuSans-6f" x="97.416016"/>
     <use xlink:href="#DejaVuSans-70" x="158.597656"/>
     <use xlink:href="#DejaVuSans-6f" x="222.074219"/>
     <use xlink:href="#DejaVuSans-72" x="283.255859"/>
     <use xlink:href="#DejaVuSans-74" x="324.369141"/>
     <use xlink:href="#DejaVuSans-69" x="363.578125"/>
     <use xlink:href="#DejaVuSans-6f" x="391.361328"/>
     <use xlink:href="#DejaVuSans-6e" x="452.542969"/>
     <use xlink:href="#DejaVuSans-73" x="515.921875"/>
     <use xlink:href="#DejaVuSans-20" x="568.021484"/>
     <use xlink:href="#DejaVuSans-6f" x="599.808594"/>
     <use xlink:href="#DejaVuSans-66" x="660.990234"/>
     <use xlink:href="#DejaVuSans-20" x="696.195312"/>
     <use xlink:href="#DejaVuSans-65" x="727.982422"/>
     <use xlink:href="#DejaVuSans-61" x="789.505859"/>
     <use xlink:href="#DejaVuSans-63" x="850.785156"/>
     <use xlink:href="#DejaVuSans-68" x="905.765625"/>
     <use xlink:href="#DejaVuSans-20" x="969.144531"/>
     <use xlink:href="#DejaVuSans-6e" x="1000.931641"/>
     <use xlink:href="#DejaVuSans-6f" x="1064.310547"/>
     <use xlink:href="#DejaVuSans-64" x="1125.492188"/>
     <use xlink:href="#DejaVuSans-65" x="1188.96875"/>
     <use xlink:href="#DejaVuSans-20" x="1250.492188"/>
     <use xlink:href="#DejaVuSans-74" x="1282.279297"/>
     <use xlink:href="#DejaVuSans-79" x="1321.488281"/>
     <use xlink:href="#DejaVuSans-70" x="1380.667969"/>
     <use xlink:href="#DejaVuSans-65" x="1444.144531"/>
     <use xlink:href="#DejaVuSans-2c" x="1505.667969"/>
     <use xlink:href="#DejaVuSans-20" x="1537.455078"/>
     <use xlink:href="#DejaVuSans-70" x="1569.242188"/>
     <use xlink:href="#DejaVuSans-65" x="1632.71875"/>
     <use xlink:href="#DejaVuSans-72" x="1694.242188"/>
     <use xlink:href="#DejaVuSans-20" x="1735.355469"/>
     <use xlink:href="#DejaVuSans-73" x="1767.142578"/>
     <use xlink:href="#DejaVuSans-69" x="1819.242188"/>
     <use xlink:href="#DejaVuSans-7a" x="1847.025391"/>
     <use xlink:href="#DejaVuSans-65" x="1899.515625"/>
     <use xlink:href="#DejaVuSans-20" x="1961.039062"/>
     <use xlink:href="#DejaVuSans-62" x="1992.826172"/>
     <use xlink:href="#DejaVuSans-69" x="2056.302734"/>
     <use xlink:href="#DejaVuSans-6e" x="2084.085938"/>
     <use xlink:href="#DejaVuSans-20" x="2147.464844"/>
     <use xlink:href="#DejaVuSans-28" x="2179.251953"/>
     <use xlink:href="#DejaVuSans-6e" x="2218.265625"/>
     <use xlink:href="#DejaVuSans-69" x="2281.644531"/>
     <use xlink:href="#DejaVuSans-63" x="2309.427734"/>
     <use xlink:href="#DejaVuSans-6f" x="2364.408203"/>
     <use xlink:href="#DejaVuSans-6c" x="2425.589844"/>
     <use xlink:href="#DejaVuSans-61" x="2453.373047"/>
     <use xlink:href="#DejaVuSans-75" x="2514.652344"/>
     <use xlink:href="#DejaVuSans-5f" x="2578.03125"/>
     <use xlink:href="#DejaVuSans-62" x="2628.03125"/>
     <use xlink:href="#DejaVuSans-29" x="2691.507812"/>
    </g>
   </g>
   <g id="legend_1">
    <g id="patch_135">
     <path d="M 553.3375 182.772 
L 818.24 182.772 
Q 821.44 182.772 821.44 179.572 
L 821.44 87.232 
Q 821.44 84.032 818.24 84.032 
L 553.3375 84.032 
Q 550.1375 84.032 550.1375 87.232 
L 550.1375 179.572 
Q 550.1375 182.772 553.3375 182.772 
z
" style="fill: #ffffff; opacity: 0.8; stroke: #cccccc; stroke-width: 0.48; stroke-linejoin: miter"/>
    </g>
    <g id="patch_136">
     <path d="M 556.5375 102.5895 
L 588.5375 102.5895 
L 588.5375 91.3895 
L 556.5375 91.3895 
z
" style="fill: #1f77b4"/>
    </g>
    <g id="text_18">
     <!-- Function node proportions -->
     <g transform="translate(601.3375 102.5895)scale(0.16 -0.16)">
      <defs>
       <path id="DejaVuSans-46" d="M 628 4666 
L 3309 4666 
L 3309 4134 
L 1259 4134 
L 1259 2759 
L 3109 2759 
L 3109 2228 
L 1259 2228 
L 1259 0 
L 628 0 
L 628 4666 
z
" transform="scale(0.015625)"/>
      </defs>
      <use xlink:href="#DejaVuSans-46"/>
      <use xlink:href="#DejaVuSans-75" x="52.019531"/>
      <use xlink:href="#DejaVuSans-6e" x="115.398438"/>
      <use xlink:href="#DejaVuSans-63" x="178.777344"/>
      <use xlink:href="#DejaVuSans-74" x="233.757812"/>
      <use xlink:href="#DejaVuSans-69" x="272.966797"/>
      <use xlink:href="#DejaVuSans-6f" x="300.75"/>
      <use xlink:href="#DejaVuSans-6e" x="361.931641"/>
      <use xlink:href="#DejaVuSans-20" x="425.310547"/>
      <use xlink:href="#DejaVuSans-6e" x="457.097656"/>
      <use xlink:href="#DejaVuSans-6f" x="520.476562"/>
      <use xlink:href="#DejaVuSans-64" x="581.658203"/>
      <use xlink:href="#DejaVuSans-65" x="645.134766"/>
      <use xlink:href="#DejaVuSans-20" x="706.658203"/>
      <use xlink:href="#DejaVuSans-70" x="738.445312"/>
      <use xlink:href="#DejaVuSans-72" x="801.921875"/>
      <use xlink:href="#DejaVuSans-6f" x="840.785156"/>
      <use xlink:href="#DejaVuSans-70" x="901.966797"/>
      <use xlink:href="#DejaVuSans-6f" x="965.443359"/>
      <use xlink:href="#DejaVuSans-72" x="1026.625"/>
      <use xlink:href="#DejaVuSans-74" x="1067.738281"/>
      <use xlink:href="#DejaVuSans-69" x="1106.947266"/>
      <use xlink:href="#DejaVuSans-6f" x="1134.730469"/>
      <use xlink:href="#DejaVuSans-6e" x="1195.912109"/>
      <use xlink:href="#DejaVuSans-73" x="1259.291016"/>
     </g>
    </g>
    <g id="patch_137">
     <path d="M 556.5375 126.0745 
L 588.5375 126.0745 
L 588.5375 114.8745 
L 556.5375 114.8745 
z
" style="fill: #ff7f0e"/>
    </g>
    <g id="text_19">
     <!-- Terminal node proportions -->
     <g transform="translate(601.3375 126.0745)scale(0.16 -0.16)">
      <defs>
       <path id="DejaVuSans-54" d="M -19 4666 
L 3928 4666 
L 3928 4134 
L 2272 4134 
L 2272 0 
L 1638 0 
L 1638 4134 
L -19 4134 
L -19 4666 
z
" transform="scale(0.015625)"/>
      </defs>
      <use xlink:href="#DejaVuSans-54"/>
      <use xlink:href="#DejaVuSans-65" x="44.083984"/>
      <use xlink:href="#DejaVuSans-72" x="105.607422"/>
      <use xlink:href="#DejaVuSans-6d" x="144.970703"/>
      <use xlink:href="#DejaVuSans-69" x="242.382812"/>
      <use xlink:href="#DejaVuSans-6e" x="270.166016"/>
      <use xlink:href="#DejaVuSans-61" x="333.544922"/>
      <use xlink:href="#DejaVuSans-6c" x="394.824219"/>
      <use xlink:href="#DejaVuSans-20" x="422.607422"/>
      <use xlink:href="#DejaVuSans-6e" x="454.394531"/>
      <use xlink:href="#DejaVuSans-6f" x="517.773438"/>
      <use xlink:href="#DejaVuSans-64" x="578.955078"/>
      <use xlink:href="#DejaVuSans-65" x="642.431641"/>
      <use xlink:href="#DejaVuSans-20" x="703.955078"/>
      <use xlink:href="#DejaVuSans-70" x="735.742188"/>
      <use xlink:href="#DejaVuSans-72" x="799.21875"/>
      <use xlink:href="#DejaVuSans-6f" x="838.082031"/>
      <use xlink:href="#DejaVuSans-70" x="899.263672"/>
      <use xlink:href="#DejaVuSans-6f" x="962.740234"/>
      <use xlink:href="#DejaVuSans-72" x="1023.921875"/>
      <use xlink:href="#DejaVuSans-74" x="1065.035156"/>
      <use xlink:href="#DejaVuSans-69" x="1104.244141"/>
      <use xlink:href="#DejaVuSans-6f" x="1132.027344"/>
      <use xlink:href="#DejaVuSans-6e" x="1193.208984"/>
      <use xlink:href="#DejaVuSans-73" x="1256.587891"/>
     </g>
    </g>
    <g id="patch_138">
     <path d="M 556.5375 149.5595 
L 588.5375 149.5595 
L 588.5375 138.3595 
L 556.5375 138.3595 
z
" style="fill: #2ca02c"/>
    </g>
    <g id="text_20">
     <!-- Variable node proportions -->
     <g transform="translate(601.3375 149.5595)scale(0.16 -0.16)">
      <defs>
       <path id="DejaVuSans-56" d="M 1831 0 
L 50 4666 
L 709 4666 
L 2188 738 
L 3669 4666 
L 4325 4666 
L 2547 0 
L 1831 0 
z
" transform="scale(0.015625)"/>
      </defs>
      <use xlink:href="#DejaVuSans-56"/>
      <use xlink:href="#DejaVuSans-61" x="60.658203"/>
      <use xlink:href="#DejaVuSans-72" x="121.9375"/>
      <use xlink:href="#DejaVuSans-69" x="163.050781"/>
      <use xlink:href="#DejaVuSans-61" x="190.833984"/>
      <use xlink:href="#DejaVuSans-62" x="252.113281"/>
      <use xlink:href="#DejaVuSans-6c" x="315.589844"/>
      <use xlink:href="#DejaVuSans-65" x="343.373047"/>
      <use xlink:href="#DejaVuSans-20" x="404.896484"/>
      <use xlink:href="#DejaVuSans-6e" x="436.683594"/>
      <use xlink:href="#DejaVuSans-6f" x="500.0625"/>
      <use xlink:href="#DejaVuSans-64" x="561.244141"/>
      <use xlink:href="#DejaVuSans-65" x="624.720703"/>
      <use xlink:href="#DejaVuSans-20" x="686.244141"/>
      <use xlink:href="#DejaVuSans-70" x="718.03125"/>
      <use xlink:href="#DejaVuSans-72" x="781.507812"/>
      <use xlink:href="#DejaVuSans-6f" x="820.371094"/>
      <use xlink:href="#DejaVuSans-70" x="881.552734"/>
      <use xlink:href="#DejaVuSans-6f" x="945.029297"/>
      <use xlink:href="#DejaVuSans-72" x="1006.210938"/>
      <use xlink:href="#DejaVuSans-74" x="1047.324219"/>
      <use xlink:href="#DejaVuSans-69" x="1086.533203"/>
      <use xlink:href="#DejaVuSans-6f" x="1114.316406"/>
      <use xlink:href="#DejaVuSans-6e" x="1175.498047"/>
      <use xlink:href="#DejaVuSans-73" x="1238.876953"/>
     </g>
    </g>
    <g id="patch_139">
     <path d="M 556.5375 173.0445 
L 588.5375 173.0445 
L 588.5375 161.8445 
L 556.5375 161.8445 
z
" style="fill: #d62728"/>
    </g>
    <g id="text_21">
     <!-- Constant node proportions -->
     <g transform="translate(601.3375 173.0445)scale(0.16 -0.16)">
      <defs>
       <path id="DejaVuSans-43" d="M 4122 4306 
L 4122 3641 
Q 3803 3938 3442 4084 
Q 3081 4231 2675 4231 
Q 1875 4231 1450 3742 
Q 1025 3253 1025 2328 
Q 1025 1406 1450 917 
Q 1875 428 2675 428 
Q 3081 428 3442 575 
Q 3803 722 4122 1019 
L 4122 359 
Q 3791 134 3420 21 
Q 3050 -91 2638 -91 
Q 1578 -91 968 557 
Q 359 1206 359 2328 
Q 359 3453 968 4101 
Q 1578 4750 2638 4750 
Q 3056 4750 3426 4639 
Q 3797 4528 4122 4306 
z
" transform="scale(0.015625)"/>
      </defs>
      <use xlink:href="#DejaVuSans-43"/>
      <use xlink:href="#DejaVuSans-6f" x="69.824219"/>
      <use xlink:href="#DejaVuSans-6e" x="131.005859"/>
      <use xlink:href="#DejaVuSans-73" x="194.384766"/>
      <use xlink:href="#DejaVuSans-74" x="246.484375"/>
      <use xlink:href="#DejaVuSans-61" x="285.693359"/>
      <use xlink:href="#DejaVuSans-6e" x="346.972656"/>
      <use xlink:href="#DejaVuSans-74" x="410.351562"/>
      <use xlink:href="#DejaVuSans-20" x="449.560547"/>
      <use xlink:href="#DejaVuSans-6e" x="481.347656"/>
      <use xlink:href="#DejaVuSans-6f" x="544.726562"/>
      <use xlink:href="#DejaVuSans-64" x="605.908203"/>
      <use xlink:href="#DejaVuSans-65" x="669.384766"/>
      <use xlink:href="#DejaVuSans-20" x="730.908203"/>
      <use xlink:href="#DejaVuSans-70" x="762.695312"/>
      <use xlink:href="#DejaVuSans-72" x="826.171875"/>
      <use xlink:href="#DejaVuSans-6f" x="865.035156"/>
      <use xlink:href="#DejaVuSans-70" x="926.216797"/>
      <use xlink:href="#DejaVuSans-6f" x="989.693359"/>
      <use xlink:href="#DejaVuSans-72" x="1050.875"/>
      <use xlink:href="#DejaVuSans-74" x="1091.988281"/>
      <use xlink:href="#DejaVuSans-69" x="1131.197266"/>
      <use xlink:href="#DejaVuSans-6f" x="1158.980469"/>
      <use xlink:href="#DejaVuSans-6e" x="1220.162109"/>
      <use xlink:href="#DejaVuSans-73" x="1283.541016"/>
     </g>
    </g>
   </g>
  </g>
 </g>
 <defs>
  <clipPath id="pe10ab87098">
   <rect x="115.2" y="76.032" width="714.24" height="487.872"/>
  </clipPath>
 </defs>
</svg>
