<?xml version="1.0" encoding="utf-8" standalone="no"?>
<!DOCTYPE svg PUBLIC "-//W3C//DTD SVG 1.1//EN"
  "http://www.w3.org/Graphics/SVG/1.1/DTD/svg11.dtd">
<svg xmlns:xlink="http://www.w3.org/1999/xlink" width="460.8pt" height="345.6pt" viewBox="0 0 460.8 345.6" xmlns="http://www.w3.org/2000/svg" version="1.1">
 <metadata>
  <rdf:RDF xmlns:dc="http://purl.org/dc/elements/1.1/" xmlns:cc="http://creativecommons.org/ns#" xmlns:rdf="http://www.w3.org/1999/02/22-rdf-syntax-ns#">
   <cc:Work>
    <dc:type rdf:resource="http://purl.org/dc/dcmitype/StillImage"/>
    <dc:date>2022-10-27T11:04:50.687799</dc:date>
    <dc:format>image/svg+xml</dc:format>
    <dc:creator>
     <cc:Agent>
      <dc:title>Matplotlib v3.5.3, https://matplotlib.org/</dc:title>
     </cc:Agent>
    </dc:creator>
   </cc:Work>
  </rdf:RDF>
 </metadata>
 <defs>
  <style type="text/css">*{stroke-linejoin: round; stroke-linecap: butt}</style>
 </defs>
 <g id="figure_1">
  <g id="patch_1">
   <path d="M 0 345.6 
L 460.8 345.6 
L 460.8 0 
L 0 0 
z
" style="fill: #ffffff"/>
  </g>
  <g id="axes_1">
   <g id="patch_2">
    <path d="M 57.6 307.584 
L 414.72 307.584 
L 414.72 41.472 
L 57.6 41.472 
z
" style="fill: #ffffff"/>
   </g>
   <g id="patch_3">
    <path d="M 73.832727 307.584 
L 82.000137 307.584 
L 82.000137 93.107975 
L 73.832727 93.107975 
z
" clip-path="url(#pf3d1c37a78)" style="fill: #1f77b4"/>
   </g>
   <g id="patch_4">
    <path d="M 84.04199 307.584 
L 92.2094 307.584 
L 92.2094 65.006149 
L 84.04199 65.006149 
z
" clip-path="url(#pf3d1c37a78)" style="fill: #1f77b4"/>
   </g>
   <g id="patch_5">
    <path d="M 94.251252 307.584 
L 102.418662 307.584 
L 102.418662 62.694839 
L 94.251252 62.694839 
z
" clip-path="url(#pf3d1c37a78)" style="fill: #1f77b4"/>
   </g>
   <g id="patch_6">
    <path d="M 104.460515 307.584 
L 112.627925 307.584 
L 112.627925 57.37614 
L 104.460515 57.37614 
z
" clip-path="url(#pf3d1c37a78)" style="fill: #1f77b4"/>
   </g>
   <g id="patch_7">
    <path d="M 114.669777 307.584 
L 122.837187 307.584 
L 122.837187 54.290347 
L 114.669777 54.290347 
z
" clip-path="url(#pf3d1c37a78)" style="fill: #1f77b4"/>
   </g>
   <g id="patch_8">
    <path d="M 124.879039 307.584 
L 133.046449 307.584 
L 133.046449 54.144 
L 124.879039 54.144 
z
" clip-path="url(#pf3d1c37a78)" style="fill: #1f77b4"/>
   </g>
   <g id="patch_9">
    <path d="M 135.088302 307.584 
L 143.255712 307.584 
L 143.255712 54.955806 
L 135.088302 54.955806 
z
" clip-path="url(#pf3d1c37a78)" style="fill: #1f77b4"/>
   </g>
   <g id="patch_10">
    <path d="M 145.297564 307.584 
L 153.464974 307.584 
L 153.464974 57.012713 
L 145.297564 57.012713 
z
" clip-path="url(#pf3d1c37a78)" style="fill: #1f77b4"/>
   </g>
   <g id="patch_11">
    <path d="M 155.506827 307.584 
L 163.674237 307.584 
L 163.674237 55.908928 
L 155.506827 55.908928 
z
" clip-path="url(#pf3d1c37a78)" style="fill: #1f77b4"/>
   </g>
   <g id="patch_12">
    <path d="M 165.716089 307.584 
L 173.883499 307.584 
L 173.883499 58.227407 
L 165.716089 58.227407 
z
" clip-path="url(#pf3d1c37a78)" style="fill: #1f77b4"/>
   </g>
   <g id="patch_13">
    <path d="M 175.925352 307.584 
L 184.092762 307.584 
L 184.092762 58.109426 
L 175.925352 58.109426 
z
" clip-path="url(#pf3d1c37a78)" style="fill: #1f77b4"/>
   </g>
   <g id="patch_14">
    <path d="M 186.134614 307.584 
L 194.302024 307.584 
L 194.302024 59.374978 
L 186.134614 59.374978 
z
" clip-path="url(#pf3d1c37a78)" style="fill: #1f77b4"/>
   </g>
   <g id="patch_15">
    <path d="M 196.343877 307.584 
L 204.511286 307.584 
L 204.511286 61.96416 
L 196.343877 61.96416 
z
" clip-path="url(#pf3d1c37a78)" style="fill: #1f77b4"/>
   </g>
   <g id="patch_16">
    <path d="M 206.553139 307.584 
L 214.720549 307.584 
L 214.720549 62.712187 
L 206.553139 62.712187 
z
" clip-path="url(#pf3d1c37a78)" style="fill: #1f77b4"/>
   </g>
   <g id="patch_17">
    <path d="M 216.762401 307.584 
L 224.929811 307.584 
L 224.929811 66.833721 
L 216.762401 66.833721 
z
" clip-path="url(#pf3d1c37a78)" style="fill: #1f77b4"/>
   </g>
   <g id="patch_18">
    <path d="M 226.971664 307.584 
L 235.139074 307.584 
L 235.139074 70.453785 
L 226.971664 70.453785 
z
" clip-path="url(#pf3d1c37a78)" style="fill: #1f77b4"/>
   </g>
   <g id="patch_19">
    <path d="M 237.180926 307.584 
L 245.348336 307.584 
L 245.348336 62.618511 
L 237.180926 62.618511 
z
" clip-path="url(#pf3d1c37a78)" style="fill: #1f77b4"/>
   </g>
   <g id="patch_20">
    <path d="M 247.390189 307.584 
L 255.557599 307.584 
L 255.557599 64.147505 
L 247.390189 64.147505 
z
" clip-path="url(#pf3d1c37a78)" style="fill: #1f77b4"/>
   </g>
   <g id="patch_21">
    <path d="M 257.599451 307.584 
L 265.766861 307.584 
L 265.766861 66.017511 
L 257.599451 66.017511 
z
" clip-path="url(#pf3d1c37a78)" style="fill: #1f77b4"/>
   </g>
   <g id="patch_22">
    <path d="M 267.808714 307.584 
L 275.976123 307.584 
L 275.976123 68.702448 
L 267.808714 68.702448 
z
" clip-path="url(#pf3d1c37a78)" style="fill: #1f77b4"/>
   </g>
   <g id="patch_23">
    <path d="M 278.017976 307.584 
L 286.185386 307.584 
L 286.185386 72.210708 
L 278.017976 72.210708 
z
" clip-path="url(#pf3d1c37a78)" style="fill: #1f77b4"/>
   </g>
   <g id="patch_24">
    <path d="M 288.227238 307.584 
L 296.394648 307.584 
L 296.394648 74.646878 
L 288.227238 74.646878 
z
" clip-path="url(#pf3d1c37a78)" style="fill: #1f77b4"/>
   </g>
   <g id="patch_25">
    <path d="M 298.436501 307.584 
L 306.603911 307.584 
L 306.603911 76.676146 
L 298.436501 76.676146 
z
" clip-path="url(#pf3d1c37a78)" style="fill: #1f77b4"/>
   </g>
   <g id="patch_26">
    <path d="M 308.645763 307.584 
L 316.813173 307.584 
L 316.813173 78.478816 
L 308.645763 78.478816 
z
" clip-path="url(#pf3d1c37a78)" style="fill: #1f77b4"/>
   </g>
   <g id="patch_27">
    <path d="M 318.855026 307.584 
L 327.022436 307.584 
L 327.022436 76.666782 
L 318.855026 76.666782 
z
" clip-path="url(#pf3d1c37a78)" style="fill: #1f77b4"/>
   </g>
   <g id="patch_28">
    <path d="M 329.064288 307.584 
L 337.231698 307.584 
L 337.231698 79.598449 
L 329.064288 79.598449 
z
" clip-path="url(#pf3d1c37a78)" style="fill: #1f77b4"/>
   </g>
   <g id="patch_29">
    <path d="M 339.273551 307.584 
L 347.440961 307.584 
L 347.440961 81.446877 
L 339.273551 81.446877 
z
" clip-path="url(#pf3d1c37a78)" style="fill: #1f77b4"/>
   </g>
   <g id="patch_30">
    <path d="M 349.482813 307.584 
L 357.650223 307.584 
L 357.650223 83.2507 
L 349.482813 83.2507 
z
" clip-path="url(#pf3d1c37a78)" style="fill: #1f77b4"/>
   </g>
   <g id="patch_31">
    <path d="M 359.692075 307.584 
L 367.859485 307.584 
L 367.859485 83.612537 
L 359.692075 83.612537 
z
" clip-path="url(#pf3d1c37a78)" style="fill: #1f77b4"/>
   </g>
   <g id="patch_32">
    <path d="M 369.901338 307.584 
L 378.068748 307.584 
L 378.068748 86.253383 
L 369.901338 86.253383 
z
" clip-path="url(#pf3d1c37a78)" style="fill: #1f77b4"/>
   </g>
   <g id="patch_33">
    <path d="M 380.1106 307.584 
L 388.27801 307.584 
L 388.27801 87.471172 
L 380.1106 87.471172 
z
" clip-path="url(#pf3d1c37a78)" style="fill: #1f77b4"/>
   </g>
   <g id="patch_34">
    <path d="M 390.319863 307.584 
L 398.487273 307.584 
L 398.487273 89.836951 
L 390.319863 89.836951 
z
" clip-path="url(#pf3d1c37a78)" style="fill: #1f77b4"/>
   </g>
   <g id="patch_35">
    <path d="M 73.832727 307.584 
L 82.000137 307.584 
L 82.000137 88.488491 
L 73.832727 88.488491 
z
" clip-path="url(#pf3d1c37a78)" style="fill: #ff7f0e"/>
   </g>
   <g id="patch_36">
    <path d="M 84.04199 307.584 
L 92.2094 307.584 
L 92.2094 116.590316 
L 84.04199 116.590316 
z
" clip-path="url(#pf3d1c37a78)" style="fill: #ff7f0e"/>
   </g>
   <g id="patch_37">
    <path d="M 94.251252 307.584 
L 102.418662 307.584 
L 102.418662 118.901627 
L 94.251252 118.901627 
z
" clip-path="url(#pf3d1c37a78)" style="fill: #ff7f0e"/>
   </g>
   <g id="patch_38">
    <path d="M 104.460515 307.584 
L 112.627925 307.584 
L 112.627925 124.220326 
L 104.460515 124.220326 
z
" clip-path="url(#pf3d1c37a78)" style="fill: #ff7f0e"/>
   </g>
   <g id="patch_39">
    <path d="M 114.669777 307.584 
L 122.837187 307.584 
L 122.837187 127.306119 
L 114.669777 127.306119 
z
" clip-path="url(#pf3d1c37a78)" style="fill: #ff7f0e"/>
   </g>
   <g id="patch_40">
    <path d="M 124.879039 307.584 
L 133.046449 307.584 
L 133.046449 127.452466 
L 124.879039 127.452466 
z
" clip-path="url(#pf3d1c37a78)" style="fill: #ff7f0e"/>
   </g>
   <g id="patch_41">
    <path d="M 135.088302 307.584 
L 143.255712 307.584 
L 143.255712 126.640659 
L 135.088302 126.640659 
z
" clip-path="url(#pf3d1c37a78)" style="fill: #ff7f0e"/>
   </g>
   <g id="patch_42">
    <path d="M 145.297564 307.584 
L 153.464974 307.584 
L 153.464974 124.583753 
L 145.297564 124.583753 
z
" clip-path="url(#pf3d1c37a78)" style="fill: #ff7f0e"/>
   </g>
   <g id="patch_43">
    <path d="M 155.506827 307.584 
L 163.674237 307.584 
L 163.674237 125.687538 
L 155.506827 125.687538 
z
" clip-path="url(#pf3d1c37a78)" style="fill: #ff7f0e"/>
   </g>
   <g id="patch_44">
    <path d="M 165.716089 307.584 
L 173.883499 307.584 
L 173.883499 123.369059 
L 165.716089 123.369059 
z
" clip-path="url(#pf3d1c37a78)" style="fill: #ff7f0e"/>
   </g>
   <g id="patch_45">
    <path d="M 175.925352 307.584 
L 184.092762 307.584 
L 184.092762 123.487039 
L 175.925352 123.487039 
z
" clip-path="url(#pf3d1c37a78)" style="fill: #ff7f0e"/>
   </g>
   <g id="patch_46">
    <path d="M 186.134614 307.584 
L 194.302024 307.584 
L 194.302024 122.221488 
L 186.134614 122.221488 
z
" clip-path="url(#pf3d1c37a78)" style="fill: #ff7f0e"/>
   </g>
   <g id="patch_47">
    <path d="M 196.343877 307.584 
L 204.511286 307.584 
L 204.511286 119.632305 
L 196.343877 119.632305 
z
" clip-path="url(#pf3d1c37a78)" style="fill: #ff7f0e"/>
   </g>
   <g id="patch_48">
    <path d="M 206.553139 307.584 
L 214.720549 307.584 
L 214.720549 118.884278 
L 206.553139 118.884278 
z
" clip-path="url(#pf3d1c37a78)" style="fill: #ff7f0e"/>
   </g>
   <g id="patch_49">
    <path d="M 216.762401 307.584 
L 224.929811 307.584 
L 224.929811 114.762745 
L 216.762401 114.762745 
z
" clip-path="url(#pf3d1c37a78)" style="fill: #ff7f0e"/>
   </g>
   <g id="patch_50">
    <path d="M 226.971664 307.584 
L 235.139074 307.584 
L 235.139074 111.142681 
L 226.971664 111.142681 
z
" clip-path="url(#pf3d1c37a78)" style="fill: #ff7f0e"/>
   </g>
   <g id="patch_51">
    <path d="M 237.180926 307.584 
L 245.348336 307.584 
L 245.348336 118.977954 
L 237.180926 118.977954 
z
" clip-path="url(#pf3d1c37a78)" style="fill: #ff7f0e"/>
   </g>
   <g id="patch_52">
    <path d="M 247.390189 307.584 
L 255.557599 307.584 
L 255.557599 117.44896 
L 247.390189 117.44896 
z
" clip-path="url(#pf3d1c37a78)" style="fill: #ff7f0e"/>
   </g>
   <g id="patch_53">
    <path d="M 257.599451 307.584 
L 265.766861 307.584 
L 265.766861 115.578955 
L 257.599451 115.578955 
z
" clip-path="url(#pf3d1c37a78)" style="fill: #ff7f0e"/>
   </g>
   <g id="patch_54">
    <path d="M 267.808714 307.584 
L 275.976123 307.584 
L 275.976123 112.894018 
L 267.808714 112.894018 
z
" clip-path="url(#pf3d1c37a78)" style="fill: #ff7f0e"/>
   </g>
   <g id="patch_55">
    <path d="M 278.017976 307.584 
L 286.185386 307.584 
L 286.185386 109.385758 
L 278.017976 109.385758 
z
" clip-path="url(#pf3d1c37a78)" style="fill: #ff7f0e"/>
   </g>
   <g id="patch_56">
    <path d="M 288.227238 307.584 
L 296.394648 307.584 
L 296.394648 106.949588 
L 288.227238 106.949588 
z
" clip-path="url(#pf3d1c37a78)" style="fill: #ff7f0e"/>
   </g>
   <g id="patch_57">
    <path d="M 298.436501 307.584 
L 306.603911 307.584 
L 306.603911 104.92032 
L 298.436501 104.92032 
z
" clip-path="url(#pf3d1c37a78)" style="fill: #ff7f0e"/>
   </g>
   <g id="patch_58">
    <path d="M 308.645763 307.584 
L 316.813173 307.584 
L 316.813173 103.11765 
L 308.645763 103.11765 
z
" clip-path="url(#pf3d1c37a78)" style="fill: #ff7f0e"/>
   </g>
   <g id="patch_59">
    <path d="M 318.855026 307.584 
L 327.022436 307.584 
L 327.022436 104.929683 
L 318.855026 104.929683 
z
" clip-path="url(#pf3d1c37a78)" style="fill: #ff7f0e"/>
   </g>
   <g id="patch_60">
    <path d="M 329.064288 307.584 
L 337.231698 307.584 
L 337.231698 101.998017 
L 329.064288 101.998017 
z
" clip-path="url(#pf3d1c37a78)" style="fill: #ff7f0e"/>
   </g>
   <g id="patch_61">
    <path d="M 339.273551 307.584 
L 347.440961 307.584 
L 347.440961 100.149588 
L 339.273551 100.149588 
z
" clip-path="url(#pf3d1c37a78)" style="fill: #ff7f0e"/>
   </g>
   <g id="patch_62">
    <path d="M 349.482813 307.584 
L 357.650223 307.584 
L 357.650223 98.345766 
L 349.482813 98.345766 
z
" clip-path="url(#pf3d1c37a78)" style="fill: #ff7f0e"/>
   </g>
   <g id="patch_63">
    <path d="M 359.692075 307.584 
L 367.859485 307.584 
L 367.859485 97.983928 
L 359.692075 97.983928 
z
" clip-path="url(#pf3d1c37a78)" style="fill: #ff7f0e"/>
   </g>
   <g id="patch_64">
    <path d="M 369.901338 307.584 
L 378.068748 307.584 
L 378.068748 95.343083 
L 369.901338 95.343083 
z
" clip-path="url(#pf3d1c37a78)" style="fill: #ff7f0e"/>
   </g>
   <g id="patch_65">
    <path d="M 380.1106 307.584 
L 388.27801 307.584 
L 388.27801 94.125294 
L 380.1106 94.125294 
z
" clip-path="url(#pf3d1c37a78)" style="fill: #ff7f0e"/>
   </g>
   <g id="patch_66">
    <path d="M 390.319863 307.584 
L 398.487273 307.584 
L 398.487273 91.759514 
L 390.319863 91.759514 
z
" clip-path="url(#pf3d1c37a78)" style="fill: #ff7f0e"/>
   </g>
   <g id="patch_67">
    <path d="M 73.832727 307.584 
L 82.000137 307.584 
L 82.000137 130.72377 
L 73.832727 130.72377 
z
" clip-path="url(#pf3d1c37a78)" style="fill: #2ca02c"/>
   </g>
   <g id="patch_68">
    <path d="M 84.04199 307.584 
L 92.2094 307.584 
L 92.2094 149.392556 
L 84.04199 149.392556 
z
" clip-path="url(#pf3d1c37a78)" style="fill: #2ca02c"/>
   </g>
   <g id="patch_69">
    <path d="M 94.251252 307.584 
L 102.418662 307.584 
L 102.418662 152.227775 
L 94.251252 152.227775 
z
" clip-path="url(#pf3d1c37a78)" style="fill: #2ca02c"/>
   </g>
   <g id="patch_70">
    <path d="M 104.460515 307.584 
L 112.627925 307.584 
L 112.627925 157.184582 
L 104.460515 157.184582 
z
" clip-path="url(#pf3d1c37a78)" style="fill: #2ca02c"/>
   </g>
   <g id="patch_71">
    <path d="M 114.669777 307.584 
L 122.837187 307.584 
L 122.837187 155.552423 
L 114.669777 155.552423 
z
" clip-path="url(#pf3d1c37a78)" style="fill: #2ca02c"/>
   </g>
   <g id="patch_72">
    <path d="M 124.879039 307.584 
L 133.046449 307.584 
L 133.046449 157.562651 
L 124.879039 157.562651 
z
" clip-path="url(#pf3d1c37a78)" style="fill: #2ca02c"/>
   </g>
   <g id="patch_73">
    <path d="M 135.088302 307.584 
L 143.255712 307.584 
L 143.255712 157.994768 
L 135.088302 157.994768 
z
" clip-path="url(#pf3d1c37a78)" style="fill: #2ca02c"/>
   </g>
   <g id="patch_74">
    <path d="M 145.297564 307.584 
L 153.464974 307.584 
L 153.464974 153.845922 
L 145.297564 153.845922 
z
" clip-path="url(#pf3d1c37a78)" style="fill: #2ca02c"/>
   </g>
   <g id="patch_75">
    <path d="M 155.506827 307.584 
L 163.674237 307.584 
L 163.674237 156.814994 
L 155.506827 156.814994 
z
" clip-path="url(#pf3d1c37a78)" style="fill: #2ca02c"/>
   </g>
   <g id="patch_76">
    <path d="M 165.716089 307.584 
L 173.883499 307.584 
L 173.883499 153.865591 
L 165.716089 153.865591 
z
" clip-path="url(#pf3d1c37a78)" style="fill: #2ca02c"/>
   </g>
   <g id="patch_77">
    <path d="M 175.925352 307.584 
L 184.092762 307.584 
L 184.092762 153.796661 
L 175.925352 153.796661 
z
" clip-path="url(#pf3d1c37a78)" style="fill: #2ca02c"/>
   </g>
   <g id="patch_78">
    <path d="M 186.134614 307.584 
L 194.302024 307.584 
L 194.302024 153.553449 
L 186.134614 153.553449 
z
" clip-path="url(#pf3d1c37a78)" style="fill: #2ca02c"/>
   </g>
   <g id="patch_79">
    <path d="M 196.343877 307.584 
L 204.511286 307.584 
L 204.511286 151.3784 
L 196.343877 151.3784 
z
" clip-path="url(#pf3d1c37a78)" style="fill: #2ca02c"/>
   </g>
   <g id="patch_80">
    <path d="M 206.553139 307.584 
L 214.720549 307.584 
L 214.720549 150.215201 
L 206.553139 150.215201 
z
" clip-path="url(#pf3d1c37a78)" style="fill: #2ca02c"/>
   </g>
   <g id="patch_81">
    <path d="M 216.762401 307.584 
L 224.929811 307.584 
L 224.929811 146.230708 
L 216.762401 146.230708 
z
" clip-path="url(#pf3d1c37a78)" style="fill: #2ca02c"/>
   </g>
   <g id="patch_82">
    <path d="M 226.971664 307.584 
L 235.139074 307.584 
L 235.139074 146.077043 
L 226.971664 146.077043 
z
" clip-path="url(#pf3d1c37a78)" style="fill: #2ca02c"/>
   </g>
   <g id="patch_83">
    <path d="M 237.180926 307.584 
L 245.348336 307.584 
L 245.348336 150.084277 
L 237.180926 150.084277 
z
" clip-path="url(#pf3d1c37a78)" style="fill: #2ca02c"/>
   </g>
   <g id="patch_84">
    <path d="M 247.390189 307.584 
L 255.557599 307.584 
L 255.557599 148.668039 
L 247.390189 148.668039 
z
" clip-path="url(#pf3d1c37a78)" style="fill: #2ca02c"/>
   </g>
   <g id="patch_85">
    <path d="M 257.599451 307.584 
L 265.766861 307.584 
L 265.766861 149.584119 
L 257.599451 149.584119 
z
" clip-path="url(#pf3d1c37a78)" style="fill: #2ca02c"/>
   </g>
   <g id="patch_86">
    <path d="M 267.808714 307.584 
L 275.976123 307.584 
L 275.976123 144.341771 
L 267.808714 144.341771 
z
" clip-path="url(#pf3d1c37a78)" style="fill: #2ca02c"/>
   </g>
   <g id="patch_87">
    <path d="M 278.017976 307.584 
L 286.185386 307.584 
L 286.185386 141.202984 
L 278.017976 141.202984 
z
" clip-path="url(#pf3d1c37a78)" style="fill: #2ca02c"/>
   </g>
   <g id="patch_88">
    <path d="M 288.227238 307.584 
L 296.394648 307.584 
L 296.394648 139.90071 
L 288.227238 139.90071 
z
" clip-path="url(#pf3d1c37a78)" style="fill: #2ca02c"/>
   </g>
   <g id="patch_89">
    <path d="M 298.436501 307.584 
L 306.603911 307.584 
L 306.603911 138.982231 
L 298.436501 138.982231 
z
" clip-path="url(#pf3d1c37a78)" style="fill: #2ca02c"/>
   </g>
   <g id="patch_90">
    <path d="M 308.645763 307.584 
L 316.813173 307.584 
L 316.813173 136.586897 
L 308.645763 136.586897 
z
" clip-path="url(#pf3d1c37a78)" style="fill: #2ca02c"/>
   </g>
   <g id="patch_91">
    <path d="M 318.855026 307.584 
L 327.022436 307.584 
L 327.022436 138.351685 
L 318.855026 138.351685 
z
" clip-path="url(#pf3d1c37a78)" style="fill: #2ca02c"/>
   </g>
   <g id="patch_92">
    <path d="M 329.064288 307.584 
L 337.231698 307.584 
L 337.231698 135.473203 
L 329.064288 135.473203 
z
" clip-path="url(#pf3d1c37a78)" style="fill: #2ca02c"/>
   </g>
   <g id="patch_93">
    <path d="M 339.273551 307.584 
L 347.440961 307.584 
L 347.440961 134.321066 
L 339.273551 134.321066 
z
" clip-path="url(#pf3d1c37a78)" style="fill: #2ca02c"/>
   </g>
   <g id="patch_94">
    <path d="M 349.482813 307.584 
L 357.650223 307.584 
L 357.650223 134.767806 
L 349.482813 134.767806 
z
" clip-path="url(#pf3d1c37a78)" style="fill: #2ca02c"/>
   </g>
   <g id="patch_95">
    <path d="M 359.692075 307.584 
L 367.859485 307.584 
L 367.859485 132.890111 
L 359.692075 132.890111 
z
" clip-path="url(#pf3d1c37a78)" style="fill: #2ca02c"/>
   </g>
   <g id="patch_96">
    <path d="M 369.901338 307.584 
L 378.068748 307.584 
L 378.068748 130.528095 
L 369.901338 130.528095 
z
" clip-path="url(#pf3d1c37a78)" style="fill: #2ca02c"/>
   </g>
   <g id="patch_97">
    <path d="M 380.1106 307.584 
L 388.27801 307.584 
L 388.27801 128.657418 
L 380.1106 128.657418 
z
" clip-path="url(#pf3d1c37a78)" style="fill: #2ca02c"/>
   </g>
   <g id="patch_98">
    <path d="M 390.319863 307.584 
L 398.487273 307.584 
L 398.487273 127.494983 
L 390.319863 127.494983 
z
" clip-path="url(#pf3d1c37a78)" style="fill: #2ca02c"/>
   </g>
   <g id="patch_99">
    <path d="M 73.832727 307.584 
L 82.000137 307.584 
L 82.000137 265.348721 
L 73.832727 265.348721 
z
" clip-path="url(#pf3d1c37a78)" style="fill: #d62728"/>
   </g>
   <g id="patch_100">
    <path d="M 84.04199 307.584 
L 92.2094 307.584 
L 92.2094 274.781761 
L 84.04199 274.781761 
z
" clip-path="url(#pf3d1c37a78)" style="fill: #d62728"/>
   </g>
   <g id="patch_101">
    <path d="M 94.251252 307.584 
L 102.418662 307.584 
L 102.418662 274.257851 
L 94.251252 274.257851 
z
" clip-path="url(#pf3d1c37a78)" style="fill: #d62728"/>
   </g>
   <g id="patch_102">
    <path d="M 104.460515 307.584 
L 112.627925 307.584 
L 112.627925 274.619744 
L 104.460515 274.619744 
z
" clip-path="url(#pf3d1c37a78)" style="fill: #d62728"/>
   </g>
   <g id="patch_103">
    <path d="M 114.669777 307.584 
L 122.837187 307.584 
L 122.837187 279.337696 
L 114.669777 279.337696 
z
" clip-path="url(#pf3d1c37a78)" style="fill: #d62728"/>
   </g>
   <g id="patch_104">
    <path d="M 124.879039 307.584 
L 133.046449 307.584 
L 133.046449 277.473815 
L 124.879039 277.473815 
z
" clip-path="url(#pf3d1c37a78)" style="fill: #d62728"/>
   </g>
   <g id="patch_105">
    <path d="M 135.088302 307.584 
L 143.255712 307.584 
L 143.255712 276.229892 
L 135.088302 276.229892 
z
" clip-path="url(#pf3d1c37a78)" style="fill: #d62728"/>
   </g>
   <g id="patch_106">
    <path d="M 145.297564 307.584 
L 153.464974 307.584 
L 153.464974 278.321831 
L 145.297564 278.321831 
z
" clip-path="url(#pf3d1c37a78)" style="fill: #d62728"/>
   </g>
   <g id="patch_107">
    <path d="M 155.506827 307.584 
L 163.674237 307.584 
L 163.674237 276.456544 
L 155.506827 276.456544 
z
" clip-path="url(#pf3d1c37a78)" style="fill: #d62728"/>
   </g>
   <g id="patch_108">
    <path d="M 165.716089 307.584 
L 173.883499 307.584 
L 173.883499 277.087468 
L 165.716089 277.087468 
z
" clip-path="url(#pf3d1c37a78)" style="fill: #d62728"/>
   </g>
   <g id="patch_109">
    <path d="M 175.925352 307.584 
L 184.092762 307.584 
L 184.092762 277.274379 
L 175.925352 277.274379 
z
" clip-path="url(#pf3d1c37a78)" style="fill: #d62728"/>
   </g>
   <g id="patch_110">
    <path d="M 186.134614 307.584 
L 194.302024 307.584 
L 194.302024 276.252039 
L 186.134614 276.252039 
z
" clip-path="url(#pf3d1c37a78)" style="fill: #d62728"/>
   </g>
   <g id="patch_111">
    <path d="M 196.343877 307.584 
L 204.511286 307.584 
L 204.511286 275.837905 
L 196.343877 275.837905 
z
" clip-path="url(#pf3d1c37a78)" style="fill: #d62728"/>
   </g>
   <g id="patch_112">
    <path d="M 206.553139 307.584 
L 214.720549 307.584 
L 214.720549 276.253077 
L 206.553139 276.253077 
z
" clip-path="url(#pf3d1c37a78)" style="fill: #d62728"/>
   </g>
   <g id="patch_113">
    <path d="M 216.762401 307.584 
L 224.929811 307.584 
L 224.929811 276.116036 
L 216.762401 276.116036 
z
" clip-path="url(#pf3d1c37a78)" style="fill: #d62728"/>
   </g>
   <g id="patch_114">
    <path d="M 226.971664 307.584 
L 235.139074 307.584 
L 235.139074 272.649638 
L 226.971664 272.649638 
z
" clip-path="url(#pf3d1c37a78)" style="fill: #d62728"/>
   </g>
   <g id="patch_115">
    <path d="M 237.180926 307.584 
L 245.348336 307.584 
L 245.348336 276.477677 
L 237.180926 276.477677 
z
" clip-path="url(#pf3d1c37a78)" style="fill: #d62728"/>
   </g>
   <g id="patch_116">
    <path d="M 247.390189 307.584 
L 255.557599 307.584 
L 255.557599 276.364921 
L 247.390189 276.364921 
z
" clip-path="url(#pf3d1c37a78)" style="fill: #d62728"/>
   </g>
   <g id="patch_117">
    <path d="M 257.599451 307.584 
L 265.766861 307.584 
L 265.766861 273.578836 
L 257.599451 273.578836 
z
" clip-path="url(#pf3d1c37a78)" style="fill: #d62728"/>
   </g>
   <g id="patch_118">
    <path d="M 267.808714 307.584 
L 275.976123 307.584 
L 275.976123 276.136247 
L 267.808714 276.136247 
z
" clip-path="url(#pf3d1c37a78)" style="fill: #d62728"/>
   </g>
   <g id="patch_119">
    <path d="M 278.017976 307.584 
L 286.185386 307.584 
L 286.185386 275.766773 
L 278.017976 275.766773 
z
" clip-path="url(#pf3d1c37a78)" style="fill: #d62728"/>
   </g>
   <g id="patch_120">
    <path d="M 288.227238 307.584 
L 296.394648 307.584 
L 296.394648 274.632878 
L 288.227238 274.632878 
z
" clip-path="url(#pf3d1c37a78)" style="fill: #d62728"/>
   </g>
   <g id="patch_121">
    <path d="M 298.436501 307.584 
L 306.603911 307.584 
L 306.603911 273.522089 
L 298.436501 273.522089 
z
" clip-path="url(#pf3d1c37a78)" style="fill: #d62728"/>
   </g>
   <g id="patch_122">
    <path d="M 308.645763 307.584 
L 316.813173 307.584 
L 316.813173 274.114752 
L 308.645763 274.114752 
z
" clip-path="url(#pf3d1c37a78)" style="fill: #d62728"/>
   </g>
   <g id="patch_123">
    <path d="M 318.855026 307.584 
L 327.022436 307.584 
L 327.022436 274.161998 
L 318.855026 274.161998 
z
" clip-path="url(#pf3d1c37a78)" style="fill: #d62728"/>
   </g>
   <g id="patch_124">
    <path d="M 329.064288 307.584 
L 337.231698 307.584 
L 337.231698 274.108814 
L 329.064288 274.108814 
z
" clip-path="url(#pf3d1c37a78)" style="fill: #d62728"/>
   </g>
   <g id="patch_125">
    <path d="M 339.273551 307.584 
L 347.440961 307.584 
L 347.440961 273.412522 
L 339.273551 273.412522 
z
" clip-path="url(#pf3d1c37a78)" style="fill: #d62728"/>
   </g>
   <g id="patch_126">
    <path d="M 349.482813 307.584 
L 357.650223 307.584 
L 357.650223 271.16196 
L 349.482813 271.16196 
z
" clip-path="url(#pf3d1c37a78)" style="fill: #d62728"/>
   </g>
   <g id="patch_127">
    <path d="M 359.692075 307.584 
L 367.859485 307.584 
L 367.859485 272.677817 
L 359.692075 272.677817 
z
" clip-path="url(#pf3d1c37a78)" style="fill: #d62728"/>
   </g>
   <g id="patch_128">
    <path d="M 369.901338 307.584 
L 378.068748 307.584 
L 378.068748 272.398988 
L 369.901338 272.398988 
z
" clip-path="url(#pf3d1c37a78)" style="fill: #d62728"/>
   </g>
   <g id="patch_129">
    <path d="M 380.1106 307.584 
L 388.27801 307.584 
L 388.27801 273.051877 
L 380.1106 273.051877 
z
" clip-path="url(#pf3d1c37a78)" style="fill: #d62728"/>
   </g>
   <g id="patch_130">
    <path d="M 390.319863 307.584 
L 398.487273 307.584 
L 398.487273 271.848531 
L 390.319863 271.848531 
z
" clip-path="url(#pf3d1c37a78)" style="fill: #d62728"/>
   </g>
   <g id="matplotlib.axis_1">
    <g id="xtick_1">
     <g id="line2d_1">
      <defs>
       <path id="mbce41180d1" d="M 0 0 
L 0 3.5 
" style="stroke: #000000; stroke-width: 0.8"/>
      </defs>
      <g>
       <use xlink:href="#mbce41180d1" x="67.70717" y="307.584" style="stroke: #000000; stroke-width: 0.8"/>
      </g>
     </g>
     <g id="text_1">
      <!-- 0 -->
      <g transform="translate(64.52592 322.182437)scale(0.1 -0.1)">
       <defs>
        <path id="DejaVuSans-30" d="M 2034 4250 
Q 1547 4250 1301 3770 
Q 1056 3291 1056 2328 
Q 1056 1369 1301 889 
Q 1547 409 2034 409 
Q 2525 409 2770 889 
Q 3016 1369 3016 2328 
Q 3016 3291 2770 3770 
Q 2525 4250 2034 4250 
z
M 2034 4750 
Q 2819 4750 3233 4129 
Q 3647 3509 3647 2328 
Q 3647 1150 3233 529 
Q 2819 -91 2034 -91 
Q 1250 -91 836 529 
Q 422 1150 422 2328 
Q 422 3509 836 4129 
Q 1250 4750 2034 4750 
z
" transform="scale(0.015625)"/>
       </defs>
       <use xlink:href="#DejaVuSans-30"/>
      </g>
     </g>
    </g>
    <g id="xtick_2">
     <g id="line2d_2">
      <g>
       <use xlink:href="#mbce41180d1" x="118.753482" y="307.584" style="stroke: #000000; stroke-width: 0.8"/>
      </g>
     </g>
     <g id="text_2">
      <!-- 5 -->
      <g transform="translate(115.572232 322.182437)scale(0.1 -0.1)">
       <defs>
        <path id="DejaVuSans-35" d="M 691 4666 
L 3169 4666 
L 3169 4134 
L 1269 4134 
L 1269 2991 
Q 1406 3038 1543 3061 
Q 1681 3084 1819 3084 
Q 2600 3084 3056 2656 
Q 3513 2228 3513 1497 
Q 3513 744 3044 326 
Q 2575 -91 1722 -91 
Q 1428 -91 1123 -41 
Q 819 9 494 109 
L 494 744 
Q 775 591 1075 516 
Q 1375 441 1709 441 
Q 2250 441 2565 725 
Q 2881 1009 2881 1497 
Q 2881 1984 2565 2268 
Q 2250 2553 1709 2553 
Q 1456 2553 1204 2497 
Q 953 2441 691 2322 
L 691 4666 
z
" transform="scale(0.015625)"/>
       </defs>
       <use xlink:href="#DejaVuSans-35"/>
      </g>
     </g>
    </g>
    <g id="xtick_3">
     <g id="line2d_3">
      <g>
       <use xlink:href="#mbce41180d1" x="169.799794" y="307.584" style="stroke: #000000; stroke-width: 0.8"/>
      </g>
     </g>
     <g id="text_3">
      <!-- 10 -->
      <g transform="translate(163.437294 322.182437)scale(0.1 -0.1)">
       <defs>
        <path id="DejaVuSans-31" d="M 794 531 
L 1825 531 
L 1825 4091 
L 703 3866 
L 703 4441 
L 1819 4666 
L 2450 4666 
L 2450 531 
L 3481 531 
L 3481 0 
L 794 0 
L 794 531 
z
" transform="scale(0.015625)"/>
       </defs>
       <use xlink:href="#DejaVuSans-31"/>
       <use xlink:href="#DejaVuSans-30" x="63.623047"/>
      </g>
     </g>
    </g>
    <g id="xtick_4">
     <g id="line2d_4">
      <g>
       <use xlink:href="#mbce41180d1" x="220.846106" y="307.584" style="stroke: #000000; stroke-width: 0.8"/>
      </g>
     </g>
     <g id="text_4">
      <!-- 15 -->
      <g transform="translate(214.483606 322.182437)scale(0.1 -0.1)">
       <use xlink:href="#DejaVuSans-31"/>
       <use xlink:href="#DejaVuSans-35" x="63.623047"/>
      </g>
     </g>
    </g>
    <g id="xtick_5">
     <g id="line2d_5">
      <g>
       <use xlink:href="#mbce41180d1" x="271.892419" y="307.584" style="stroke: #000000; stroke-width: 0.8"/>
      </g>
     </g>
     <g id="text_5">
      <!-- 20 -->
      <g transform="translate(265.529919 322.182437)scale(0.1 -0.1)">
       <defs>
        <path id="DejaVuSans-32" d="M 1228 531 
L 3431 531 
L 3431 0 
L 469 0 
L 469 531 
Q 828 903 1448 1529 
Q 2069 2156 2228 2338 
Q 2531 2678 2651 2914 
Q 2772 3150 2772 3378 
Q 2772 3750 2511 3984 
Q 2250 4219 1831 4219 
Q 1534 4219 1204 4116 
Q 875 4013 500 3803 
L 500 4441 
Q 881 4594 1212 4672 
Q 1544 4750 1819 4750 
Q 2544 4750 2975 4387 
Q 3406 4025 3406 3419 
Q 3406 3131 3298 2873 
Q 3191 2616 2906 2266 
Q 2828 2175 2409 1742 
Q 1991 1309 1228 531 
z
" transform="scale(0.015625)"/>
       </defs>
       <use xlink:href="#DejaVuSans-32"/>
       <use xlink:href="#DejaVuSans-30" x="63.623047"/>
      </g>
     </g>
    </g>
    <g id="xtick_6">
     <g id="line2d_6">
      <g>
       <use xlink:href="#mbce41180d1" x="322.938731" y="307.584" style="stroke: #000000; stroke-width: 0.8"/>
      </g>
     </g>
     <g id="text_6">
      <!-- 25 -->
      <g transform="translate(316.576231 322.182437)scale(0.1 -0.1)">
       <use xlink:href="#DejaVuSans-32"/>
       <use xlink:href="#DejaVuSans-35" x="63.623047"/>
      </g>
     </g>
    </g>
    <g id="xtick_7">
     <g id="line2d_7">
      <g>
       <use xlink:href="#mbce41180d1" x="373.985043" y="307.584" style="stroke: #000000; stroke-width: 0.8"/>
      </g>
     </g>
     <g id="text_7">
      <!-- 30 -->
      <g transform="translate(367.622543 322.182437)scale(0.1 -0.1)">
       <defs>
        <path id="DejaVuSans-33" d="M 2597 2516 
Q 3050 2419 3304 2112 
Q 3559 1806 3559 1356 
Q 3559 666 3084 287 
Q 2609 -91 1734 -91 
Q 1441 -91 1130 -33 
Q 819 25 488 141 
L 488 750 
Q 750 597 1062 519 
Q 1375 441 1716 441 
Q 2309 441 2620 675 
Q 2931 909 2931 1356 
Q 2931 1769 2642 2001 
Q 2353 2234 1838 2234 
L 1294 2234 
L 1294 2753 
L 1863 2753 
Q 2328 2753 2575 2939 
Q 2822 3125 2822 3475 
Q 2822 3834 2567 4026 
Q 2313 4219 1838 4219 
Q 1578 4219 1281 4162 
Q 984 4106 628 3988 
L 628 4550 
Q 988 4650 1302 4700 
Q 1616 4750 1894 4750 
Q 2613 4750 3031 4423 
Q 3450 4097 3450 3541 
Q 3450 3153 3228 2886 
Q 3006 2619 2597 2516 
z
" transform="scale(0.015625)"/>
       </defs>
       <use xlink:href="#DejaVuSans-33"/>
       <use xlink:href="#DejaVuSans-30" x="63.623047"/>
      </g>
     </g>
    </g>
    <g id="text_8">
     <!-- Size bin number -->
     <g transform="translate(195.471719 335.860562)scale(0.1 -0.1)">
      <defs>
       <path id="DejaVuSans-53" d="M 3425 4513 
L 3425 3897 
Q 3066 4069 2747 4153 
Q 2428 4238 2131 4238 
Q 1616 4238 1336 4038 
Q 1056 3838 1056 3469 
Q 1056 3159 1242 3001 
Q 1428 2844 1947 2747 
L 2328 2669 
Q 3034 2534 3370 2195 
Q 3706 1856 3706 1288 
Q 3706 609 3251 259 
Q 2797 -91 1919 -91 
Q 1588 -91 1214 -16 
Q 841 59 441 206 
L 441 856 
Q 825 641 1194 531 
Q 1563 422 1919 422 
Q 2459 422 2753 634 
Q 3047 847 3047 1241 
Q 3047 1584 2836 1778 
Q 2625 1972 2144 2069 
L 1759 2144 
Q 1053 2284 737 2584 
Q 422 2884 422 3419 
Q 422 4038 858 4394 
Q 1294 4750 2059 4750 
Q 2388 4750 2728 4690 
Q 3069 4631 3425 4513 
z
" transform="scale(0.015625)"/>
       <path id="DejaVuSans-69" d="M 603 3500 
L 1178 3500 
L 1178 0 
L 603 0 
L 603 3500 
z
M 603 4863 
L 1178 4863 
L 1178 4134 
L 603 4134 
L 603 4863 
z
" transform="scale(0.015625)"/>
       <path id="DejaVuSans-7a" d="M 353 3500 
L 3084 3500 
L 3084 2975 
L 922 459 
L 3084 459 
L 3084 0 
L 275 0 
L 275 525 
L 2438 3041 
L 353 3041 
L 353 3500 
z
" transform="scale(0.015625)"/>
       <path id="DejaVuSans-65" d="M 3597 1894 
L 3597 1613 
L 953 1613 
Q 991 1019 1311 708 
Q 1631 397 2203 397 
Q 2534 397 2845 478 
Q 3156 559 3463 722 
L 3463 178 
Q 3153 47 2828 -22 
Q 2503 -91 2169 -91 
Q 1331 -91 842 396 
Q 353 884 353 1716 
Q 353 2575 817 3079 
Q 1281 3584 2069 3584 
Q 2775 3584 3186 3129 
Q 3597 2675 3597 1894 
z
M 3022 2063 
Q 3016 2534 2758 2815 
Q 2500 3097 2075 3097 
Q 1594 3097 1305 2825 
Q 1016 2553 972 2059 
L 3022 2063 
z
" transform="scale(0.015625)"/>
       <path id="DejaVuSans-20" transform="scale(0.015625)"/>
       <path id="DejaVuSans-62" d="M 3116 1747 
Q 3116 2381 2855 2742 
Q 2594 3103 2138 3103 
Q 1681 3103 1420 2742 
Q 1159 2381 1159 1747 
Q 1159 1113 1420 752 
Q 1681 391 2138 391 
Q 2594 391 2855 752 
Q 3116 1113 3116 1747 
z
M 1159 2969 
Q 1341 3281 1617 3432 
Q 1894 3584 2278 3584 
Q 2916 3584 3314 3078 
Q 3713 2572 3713 1747 
Q 3713 922 3314 415 
Q 2916 -91 2278 -91 
Q 1894 -91 1617 61 
Q 1341 213 1159 525 
L 1159 0 
L 581 0 
L 581 4863 
L 1159 4863 
L 1159 2969 
z
" transform="scale(0.015625)"/>
       <path id="DejaVuSans-6e" d="M 3513 2113 
L 3513 0 
L 2938 0 
L 2938 2094 
Q 2938 2591 2744 2837 
Q 2550 3084 2163 3084 
Q 1697 3084 1428 2787 
Q 1159 2491 1159 1978 
L 1159 0 
L 581 0 
L 581 3500 
L 1159 3500 
L 1159 2956 
Q 1366 3272 1645 3428 
Q 1925 3584 2291 3584 
Q 2894 3584 3203 3211 
Q 3513 2838 3513 2113 
z
" transform="scale(0.015625)"/>
       <path id="DejaVuSans-75" d="M 544 1381 
L 544 3500 
L 1119 3500 
L 1119 1403 
Q 1119 906 1312 657 
Q 1506 409 1894 409 
Q 2359 409 2629 706 
Q 2900 1003 2900 1516 
L 2900 3500 
L 3475 3500 
L 3475 0 
L 2900 0 
L 2900 538 
Q 2691 219 2414 64 
Q 2138 -91 1772 -91 
Q 1169 -91 856 284 
Q 544 659 544 1381 
z
M 1991 3584 
L 1991 3584 
z
" transform="scale(0.015625)"/>
       <path id="DejaVuSans-6d" d="M 3328 2828 
Q 3544 3216 3844 3400 
Q 4144 3584 4550 3584 
Q 5097 3584 5394 3201 
Q 5691 2819 5691 2113 
L 5691 0 
L 5113 0 
L 5113 2094 
Q 5113 2597 4934 2840 
Q 4756 3084 4391 3084 
Q 3944 3084 3684 2787 
Q 3425 2491 3425 1978 
L 3425 0 
L 2847 0 
L 2847 2094 
Q 2847 2600 2669 2842 
Q 2491 3084 2119 3084 
Q 1678 3084 1418 2786 
Q 1159 2488 1159 1978 
L 1159 0 
L 581 0 
L 581 3500 
L 1159 3500 
L 1159 2956 
Q 1356 3278 1631 3431 
Q 1906 3584 2284 3584 
Q 2666 3584 2933 3390 
Q 3200 3197 3328 2828 
z
" transform="scale(0.015625)"/>
       <path id="DejaVuSans-72" d="M 2631 2963 
Q 2534 3019 2420 3045 
Q 2306 3072 2169 3072 
Q 1681 3072 1420 2755 
Q 1159 2438 1159 1844 
L 1159 0 
L 581 0 
L 581 3500 
L 1159 3500 
L 1159 2956 
Q 1341 3275 1631 3429 
Q 1922 3584 2338 3584 
Q 2397 3584 2469 3576 
Q 2541 3569 2628 3553 
L 2631 2963 
z
" transform="scale(0.015625)"/>
      </defs>
      <use xlink:href="#DejaVuSans-53"/>
      <use xlink:href="#DejaVuSans-69" x="63.476562"/>
      <use xlink:href="#DejaVuSans-7a" x="91.259766"/>
      <use xlink:href="#DejaVuSans-65" x="143.75"/>
      <use xlink:href="#DejaVuSans-20" x="205.273438"/>
      <use xlink:href="#DejaVuSans-62" x="237.060547"/>
      <use xlink:href="#DejaVuSans-69" x="300.537109"/>
      <use xlink:href="#DejaVuSans-6e" x="328.320312"/>
      <use xlink:href="#DejaVuSans-20" x="391.699219"/>
      <use xlink:href="#DejaVuSans-6e" x="423.486328"/>
      <use xlink:href="#DejaVuSans-75" x="486.865234"/>
      <use xlink:href="#DejaVuSans-6d" x="550.244141"/>
      <use xlink:href="#DejaVuSans-62" x="647.65625"/>
      <use xlink:href="#DejaVuSans-65" x="711.132812"/>
      <use xlink:href="#DejaVuSans-72" x="772.65625"/>
     </g>
    </g>
   </g>
   <g id="matplotlib.axis_2">
    <g id="ytick_1">
     <g id="line2d_8">
      <defs>
       <path id="mca948dbda7" d="M 0 0 
L -3.5 0 
" style="stroke: #000000; stroke-width: 0.8"/>
      </defs>
      <g>
       <use xlink:href="#mca948dbda7" x="57.6" y="307.584" style="stroke: #000000; stroke-width: 0.8"/>
      </g>
     </g>
     <g id="text_9">
      <!-- 0.0 -->
      <g transform="translate(34.696875 311.383219)scale(0.1 -0.1)">
       <defs>
        <path id="DejaVuSans-2e" d="M 684 794 
L 1344 794 
L 1344 0 
L 684 0 
L 684 794 
z
" transform="scale(0.015625)"/>
       </defs>
       <use xlink:href="#DejaVuSans-30"/>
       <use xlink:href="#DejaVuSans-2e" x="63.623047"/>
       <use xlink:href="#DejaVuSans-30" x="95.410156"/>
      </g>
     </g>
    </g>
    <g id="ytick_2">
     <g id="line2d_9">
      <g>
       <use xlink:href="#mca948dbda7" x="57.6" y="264.226847" style="stroke: #000000; stroke-width: 0.8"/>
      </g>
     </g>
     <g id="text_10">
      <!-- 0.1 -->
      <g transform="translate(34.696875 268.026065)scale(0.1 -0.1)">
       <use xlink:href="#DejaVuSans-30"/>
       <use xlink:href="#DejaVuSans-2e" x="63.623047"/>
       <use xlink:href="#DejaVuSans-31" x="95.410156"/>
      </g>
     </g>
    </g>
    <g id="ytick_3">
     <g id="line2d_10">
      <g>
       <use xlink:href="#mca948dbda7" x="57.6" y="220.869693" style="stroke: #000000; stroke-width: 0.8"/>
      </g>
     </g>
     <g id="text_11">
      <!-- 0.2 -->
      <g transform="translate(34.696875 224.668912)scale(0.1 -0.1)">
       <use xlink:href="#DejaVuSans-30"/>
       <use xlink:href="#DejaVuSans-2e" x="63.623047"/>
       <use xlink:href="#DejaVuSans-32" x="95.410156"/>
      </g>
     </g>
    </g>
    <g id="ytick_4">
     <g id="line2d_11">
      <g>
       <use xlink:href="#mca948dbda7" x="57.6" y="177.51254" style="stroke: #000000; stroke-width: 0.8"/>
      </g>
     </g>
     <g id="text_12">
      <!-- 0.3 -->
      <g transform="translate(34.696875 181.311758)scale(0.1 -0.1)">
       <use xlink:href="#DejaVuSans-30"/>
       <use xlink:href="#DejaVuSans-2e" x="63.623047"/>
       <use xlink:href="#DejaVuSans-33" x="95.410156"/>
      </g>
     </g>
    </g>
    <g id="ytick_5">
     <g id="line2d_12">
      <g>
       <use xlink:href="#mca948dbda7" x="57.6" y="134.155386" style="stroke: #000000; stroke-width: 0.8"/>
      </g>
     </g>
     <g id="text_13">
      <!-- 0.4 -->
      <g transform="translate(34.696875 137.954605)scale(0.1 -0.1)">
       <defs>
        <path id="DejaVuSans-34" d="M 2419 4116 
L 825 1625 
L 2419 1625 
L 2419 4116 
z
M 2253 4666 
L 3047 4666 
L 3047 1625 
L 3713 1625 
L 3713 1100 
L 3047 1100 
L 3047 0 
L 2419 0 
L 2419 1100 
L 313 1100 
L 313 1709 
L 2253 4666 
z
" transform="scale(0.015625)"/>
       </defs>
       <use xlink:href="#DejaVuSans-30"/>
       <use xlink:href="#DejaVuSans-2e" x="63.623047"/>
       <use xlink:href="#DejaVuSans-34" x="95.410156"/>
      </g>
     </g>
    </g>
    <g id="ytick_6">
     <g id="line2d_13">
      <g>
       <use xlink:href="#mca948dbda7" x="57.6" y="90.798233" style="stroke: #000000; stroke-width: 0.8"/>
      </g>
     </g>
     <g id="text_14">
      <!-- 0.5 -->
      <g transform="translate(34.696875 94.597452)scale(0.1 -0.1)">
       <use xlink:href="#DejaVuSans-30"/>
       <use xlink:href="#DejaVuSans-2e" x="63.623047"/>
       <use xlink:href="#DejaVuSans-35" x="95.410156"/>
      </g>
     </g>
    </g>
    <g id="ytick_7">
     <g id="line2d_14">
      <g>
       <use xlink:href="#mca948dbda7" x="57.6" y="47.441079" style="stroke: #000000; stroke-width: 0.8"/>
      </g>
     </g>
     <g id="text_15">
      <!-- 0.6 -->
      <g transform="translate(34.696875 51.240298)scale(0.1 -0.1)">
       <defs>
        <path id="DejaVuSans-36" d="M 2113 2584 
Q 1688 2584 1439 2293 
Q 1191 2003 1191 1497 
Q 1191 994 1439 701 
Q 1688 409 2113 409 
Q 2538 409 2786 701 
Q 3034 994 3034 1497 
Q 3034 2003 2786 2293 
Q 2538 2584 2113 2584 
z
M 3366 4563 
L 3366 3988 
Q 3128 4100 2886 4159 
Q 2644 4219 2406 4219 
Q 1781 4219 1451 3797 
Q 1122 3375 1075 2522 
Q 1259 2794 1537 2939 
Q 1816 3084 2150 3084 
Q 2853 3084 3261 2657 
Q 3669 2231 3669 1497 
Q 3669 778 3244 343 
Q 2819 -91 2113 -91 
Q 1303 -91 875 529 
Q 447 1150 447 2328 
Q 447 3434 972 4092 
Q 1497 4750 2381 4750 
Q 2619 4750 2861 4703 
Q 3103 4656 3366 4563 
z
" transform="scale(0.015625)"/>
       </defs>
       <use xlink:href="#DejaVuSans-30"/>
       <use xlink:href="#DejaVuSans-2e" x="63.623047"/>
       <use xlink:href="#DejaVuSans-36" x="95.410156"/>
      </g>
     </g>
    </g>
    <g id="text_16">
     <!-- Node type proportions -->
     <g transform="translate(28.617187 230.574875)rotate(-90)scale(0.1 -0.1)">
      <defs>
       <path id="DejaVuSans-4e" d="M 628 4666 
L 1478 4666 
L 3547 763 
L 3547 4666 
L 4159 4666 
L 4159 0 
L 3309 0 
L 1241 3903 
L 1241 0 
L 628 0 
L 628 4666 
z
" transform="scale(0.015625)"/>
       <path id="DejaVuSans-6f" d="M 1959 3097 
Q 1497 3097 1228 2736 
Q 959 2375 959 1747 
Q 959 1119 1226 758 
Q 1494 397 1959 397 
Q 2419 397 2687 759 
Q 2956 1122 2956 1747 
Q 2956 2369 2687 2733 
Q 2419 3097 1959 3097 
z
M 1959 3584 
Q 2709 3584 3137 3096 
Q 3566 2609 3566 1747 
Q 3566 888 3137 398 
Q 2709 -91 1959 -91 
Q 1206 -91 779 398 
Q 353 888 353 1747 
Q 353 2609 779 3096 
Q 1206 3584 1959 3584 
z
" transform="scale(0.015625)"/>
       <path id="DejaVuSans-64" d="M 2906 2969 
L 2906 4863 
L 3481 4863 
L 3481 0 
L 2906 0 
L 2906 525 
Q 2725 213 2448 61 
Q 2172 -91 1784 -91 
Q 1150 -91 751 415 
Q 353 922 353 1747 
Q 353 2572 751 3078 
Q 1150 3584 1784 3584 
Q 2172 3584 2448 3432 
Q 2725 3281 2906 2969 
z
M 947 1747 
Q 947 1113 1208 752 
Q 1469 391 1925 391 
Q 2381 391 2643 752 
Q 2906 1113 2906 1747 
Q 2906 2381 2643 2742 
Q 2381 3103 1925 3103 
Q 1469 3103 1208 2742 
Q 947 2381 947 1747 
z
" transform="scale(0.015625)"/>
       <path id="DejaVuSans-74" d="M 1172 4494 
L 1172 3500 
L 2356 3500 
L 2356 3053 
L 1172 3053 
L 1172 1153 
Q 1172 725 1289 603 
Q 1406 481 1766 481 
L 2356 481 
L 2356 0 
L 1766 0 
Q 1100 0 847 248 
Q 594 497 594 1153 
L 594 3053 
L 172 3053 
L 172 3500 
L 594 3500 
L 594 4494 
L 1172 4494 
z
" transform="scale(0.015625)"/>
       <path id="DejaVuSans-79" d="M 2059 -325 
Q 1816 -950 1584 -1140 
Q 1353 -1331 966 -1331 
L 506 -1331 
L 506 -850 
L 844 -850 
Q 1081 -850 1212 -737 
Q 1344 -625 1503 -206 
L 1606 56 
L 191 3500 
L 800 3500 
L 1894 763 
L 2988 3500 
L 3597 3500 
L 2059 -325 
z
" transform="scale(0.015625)"/>
       <path id="DejaVuSans-70" d="M 1159 525 
L 1159 -1331 
L 581 -1331 
L 581 3500 
L 1159 3500 
L 1159 2969 
Q 1341 3281 1617 3432 
Q 1894 3584 2278 3584 
Q 2916 3584 3314 3078 
Q 3713 2572 3713 1747 
Q 3713 922 3314 415 
Q 2916 -91 2278 -91 
Q 1894 -91 1617 61 
Q 1341 213 1159 525 
z
M 3116 1747 
Q 3116 2381 2855 2742 
Q 2594 3103 2138 3103 
Q 1681 3103 1420 2742 
Q 1159 2381 1159 1747 
Q 1159 1113 1420 752 
Q 1681 391 2138 391 
Q 2594 391 2855 752 
Q 3116 1113 3116 1747 
z
" transform="scale(0.015625)"/>
       <path id="DejaVuSans-73" d="M 2834 3397 
L 2834 2853 
Q 2591 2978 2328 3040 
Q 2066 3103 1784 3103 
Q 1356 3103 1142 2972 
Q 928 2841 928 2578 
Q 928 2378 1081 2264 
Q 1234 2150 1697 2047 
L 1894 2003 
Q 2506 1872 2764 1633 
Q 3022 1394 3022 966 
Q 3022 478 2636 193 
Q 2250 -91 1575 -91 
Q 1294 -91 989 -36 
Q 684 19 347 128 
L 347 722 
Q 666 556 975 473 
Q 1284 391 1588 391 
Q 1994 391 2212 530 
Q 2431 669 2431 922 
Q 2431 1156 2273 1281 
Q 2116 1406 1581 1522 
L 1381 1569 
Q 847 1681 609 1914 
Q 372 2147 372 2553 
Q 372 3047 722 3315 
Q 1072 3584 1716 3584 
Q 2034 3584 2315 3537 
Q 2597 3491 2834 3397 
z
" transform="scale(0.015625)"/>
      </defs>
      <use xlink:href="#DejaVuSans-4e"/>
      <use xlink:href="#DejaVuSans-6f" x="74.804688"/>
      <use xlink:href="#DejaVuSans-64" x="135.986328"/>
      <use xlink:href="#DejaVuSans-65" x="199.462891"/>
      <use xlink:href="#DejaVuSans-20" x="260.986328"/>
      <use xlink:href="#DejaVuSans-74" x="292.773438"/>
      <use xlink:href="#DejaVuSans-79" x="331.982422"/>
      <use xlink:href="#DejaVuSans-70" x="391.162109"/>
      <use xlink:href="#DejaVuSans-65" x="454.638672"/>
      <use xlink:href="#DejaVuSans-20" x="516.162109"/>
      <use xlink:href="#DejaVuSans-70" x="547.949219"/>
      <use xlink:href="#DejaVuSans-72" x="611.425781"/>
      <use xlink:href="#DejaVuSans-6f" x="650.289062"/>
      <use xlink:href="#DejaVuSans-70" x="711.470703"/>
      <use xlink:href="#DejaVuSans-6f" x="774.947266"/>
      <use xlink:href="#DejaVuSans-72" x="836.128906"/>
      <use xlink:href="#DejaVuSans-74" x="877.242188"/>
      <use xlink:href="#DejaVuSans-69" x="916.451172"/>
      <use xlink:href="#DejaVuSans-6f" x="944.234375"/>
      <use xlink:href="#DejaVuSans-6e" x="1005.416016"/>
      <use xlink:href="#DejaVuSans-73" x="1068.794922"/>
     </g>
    </g>
   </g>
   <g id="patch_131">
    <path d="M 57.6 307.584 
L 57.6 41.472 
" style="fill: none; stroke: #000000; stroke-width: 0.8; stroke-linejoin: miter; stroke-linecap: square"/>
   </g>
   <g id="patch_132">
    <path d="M 414.72 307.584 
L 414.72 41.472 
" style="fill: none; stroke: #000000; stroke-width: 0.8; stroke-linejoin: miter; stroke-linecap: square"/>
   </g>
   <g id="patch_133">
    <path d="M 57.6 307.584 
L 414.72 307.584 
" style="fill: none; stroke: #000000; stroke-width: 0.8; stroke-linejoin: miter; stroke-linecap: square"/>
   </g>
   <g id="patch_134">
    <path d="M 57.6 41.472 
L 414.72 41.472 
" style="fill: none; stroke: #000000; stroke-width: 0.8; stroke-linejoin: miter; stroke-linecap: square"/>
   </g>
   <g id="text_17">
    <!-- Proportions of each node type, per size bin (nicolau_b) -->
    <g transform="translate(72.328125 35.472)scale(0.12 -0.12)">
     <defs>
      <path id="DejaVuSans-50" d="M 1259 4147 
L 1259 2394 
L 2053 2394 
Q 2494 2394 2734 2622 
Q 2975 2850 2975 3272 
Q 2975 3691 2734 3919 
Q 2494 4147 2053 4147 
L 1259 4147 
z
M 628 4666 
L 2053 4666 
Q 2838 4666 3239 4311 
Q 3641 3956 3641 3272 
Q 3641 2581 3239 2228 
Q 2838 1875 2053 1875 
L 1259 1875 
L 1259 0 
L 628 0 
L 628 4666 
z
" transform="scale(0.015625)"/>
      <path id="DejaVuSans-66" d="M 2375 4863 
L 2375 4384 
L 1825 4384 
Q 1516 4384 1395 4259 
Q 1275 4134 1275 3809 
L 1275 3500 
L 2222 3500 
L 2222 3053 
L 1275 3053 
L 1275 0 
L 697 0 
L 697 3053 
L 147 3053 
L 147 3500 
L 697 3500 
L 697 3744 
Q 697 4328 969 4595 
Q 1241 4863 1831 4863 
L 2375 4863 
z
" transform="scale(0.015625)"/>
      <path id="DejaVuSans-61" d="M 2194 1759 
Q 1497 1759 1228 1600 
Q 959 1441 959 1056 
Q 959 750 1161 570 
Q 1363 391 1709 391 
Q 2188 391 2477 730 
Q 2766 1069 2766 1631 
L 2766 1759 
L 2194 1759 
z
M 3341 1997 
L 3341 0 
L 2766 0 
L 2766 531 
Q 2569 213 2275 61 
Q 1981 -91 1556 -91 
Q 1019 -91 701 211 
Q 384 513 384 1019 
Q 384 1609 779 1909 
Q 1175 2209 1959 2209 
L 2766 2209 
L 2766 2266 
Q 2766 2663 2505 2880 
Q 2244 3097 1772 3097 
Q 1472 3097 1187 3025 
Q 903 2953 641 2809 
L 641 3341 
Q 956 3463 1253 3523 
Q 1550 3584 1831 3584 
Q 2591 3584 2966 3190 
Q 3341 2797 3341 1997 
z
" transform="scale(0.015625)"/>
      <path id="DejaVuSans-63" d="M 3122 3366 
L 3122 2828 
Q 2878 2963 2633 3030 
Q 2388 3097 2138 3097 
Q 1578 3097 1268 2742 
Q 959 2388 959 1747 
Q 959 1106 1268 751 
Q 1578 397 2138 397 
Q 2388 397 2633 464 
Q 2878 531 3122 666 
L 3122 134 
Q 2881 22 2623 -34 
Q 2366 -91 2075 -91 
Q 1284 -91 818 406 
Q 353 903 353 1747 
Q 353 2603 823 3093 
Q 1294 3584 2113 3584 
Q 2378 3584 2631 3529 
Q 2884 3475 3122 3366 
z
" transform="scale(0.015625)"/>
      <path id="DejaVuSans-68" d="M 3513 2113 
L 3513 0 
L 2938 0 
L 2938 2094 
Q 2938 2591 2744 2837 
Q 2550 3084 2163 3084 
Q 1697 3084 1428 2787 
Q 1159 2491 1159 1978 
L 1159 0 
L 581 0 
L 581 4863 
L 1159 4863 
L 1159 2956 
Q 1366 3272 1645 3428 
Q 1925 3584 2291 3584 
Q 2894 3584 3203 3211 
Q 3513 2838 3513 2113 
z
" transform="scale(0.015625)"/>
      <path id="DejaVuSans-2c" d="M 750 794 
L 1409 794 
L 1409 256 
L 897 -744 
L 494 -744 
L 750 256 
L 750 794 
z
" transform="scale(0.015625)"/>
      <path id="DejaVuSans-28" d="M 1984 4856 
Q 1566 4138 1362 3434 
Q 1159 2731 1159 2009 
Q 1159 1288 1364 580 
Q 1569 -128 1984 -844 
L 1484 -844 
Q 1016 -109 783 600 
Q 550 1309 550 2009 
Q 550 2706 781 3412 
Q 1013 4119 1484 4856 
L 1984 4856 
z
" transform="scale(0.015625)"/>
      <path id="DejaVuSans-6c" d="M 603 4863 
L 1178 4863 
L 1178 0 
L 603 0 
L 603 4863 
z
" transform="scale(0.015625)"/>
      <path id="DejaVuSans-5f" d="M 3263 -1063 
L 3263 -1509 
L -63 -1509 
L -63 -1063 
L 3263 -1063 
z
" transform="scale(0.015625)"/>
      <path id="DejaVuSans-29" d="M 513 4856 
L 1013 4856 
Q 1481 4119 1714 3412 
Q 1947 2706 1947 2009 
Q 1947 1309 1714 600 
Q 1481 -109 1013 -844 
L 513 -844 
Q 928 -128 1133 580 
Q 1338 1288 1338 2009 
Q 1338 2731 1133 3434 
Q 928 4138 513 4856 
z
" transform="scale(0.015625)"/>
     </defs>
     <use xlink:href="#DejaVuSans-50"/>
     <use xlink:href="#DejaVuSans-72" x="58.552734"/>
     <use xlink:href="#DejaVuSans-6f" x="97.416016"/>
     <use xlink:href="#DejaVuSans-70" x="158.597656"/>
     <use xlink:href="#DejaVuSans-6f" x="222.074219"/>
     <use xlink:href="#DejaVuSans-72" x="283.255859"/>
     <use xlink:href="#DejaVuSans-74" x="324.369141"/>
     <use xlink:href="#DejaVuSans-69" x="363.578125"/>
     <use xlink:href="#DejaVuSans-6f" x="391.361328"/>
     <use xlink:href="#DejaVuSans-6e" x="452.542969"/>
     <use xlink:href="#DejaVuSans-73" x="515.921875"/>
     <use xlink:href="#DejaVuSans-20" x="568.021484"/>
     <use xlink:href="#DejaVuSans-6f" x="599.808594"/>
     <use xlink:href="#DejaVuSans-66" x="660.990234"/>
     <use xlink:href="#DejaVuSans-20" x="696.195312"/>
     <use xlink:href="#DejaVuSans-65" x="727.982422"/>
     <use xlink:href="#DejaVuSans-61" x="789.505859"/>
     <use xlink:href="#DejaVuSans-63" x="850.785156"/>
     <use xlink:href="#DejaVuSans-68" x="905.765625"/>
     <use xlink:href="#DejaVuSans-20" x="969.144531"/>
     <use xlink:href="#DejaVuSans-6e" x="1000.931641"/>
     <use xlink:href="#DejaVuSans-6f" x="1064.310547"/>
     <use xlink:href="#DejaVuSans-64" x="1125.492188"/>
     <use xlink:href="#DejaVuSans-65" x="1188.96875"/>
     <use xlink:href="#DejaVuSans-20" x="1250.492188"/>
     <use xlink:href="#DejaVuSans-74" x="1282.279297"/>
     <use xlink:href="#DejaVuSans-79" x="1321.488281"/>
     <use xlink:href="#DejaVuSans-70" x="1380.667969"/>
     <use xlink:href="#DejaVuSans-65" x="1444.144531"/>
     <use xlink:href="#DejaVuSans-2c" x="1505.667969"/>
     <use xlink:href="#DejaVuSans-20" x="1537.455078"/>
     <use xlink:href="#DejaVuSans-70" x="1569.242188"/>
     <use xlink:href="#DejaVuSans-65" x="1632.71875"/>
     <use xlink:href="#DejaVuSans-72" x="1694.242188"/>
     <use xlink:href="#DejaVuSans-20" x="1735.355469"/>
     <use xlink:href="#DejaVuSans-73" x="1767.142578"/>
     <use xlink:href="#DejaVuSans-69" x="1819.242188"/>
     <use xlink:href="#DejaVuSans-7a" x="1847.025391"/>
     <use xlink:href="#DejaVuSans-65" x="1899.515625"/>
     <use xlink:href="#DejaVuSans-20" x="1961.039062"/>
     <use xlink:href="#DejaVuSans-62" x="1992.826172"/>
     <use xlink:href="#DejaVuSans-69" x="2056.302734"/>
     <use xlink:href="#DejaVuSans-6e" x="2084.085938"/>
     <use xlink:href="#DejaVuSans-20" x="2147.464844"/>
     <use xlink:href="#DejaVuSans-28" x="2179.251953"/>
     <use xlink:href="#DejaVuSans-6e" x="2218.265625"/>
     <use xlink:href="#DejaVuSans-69" x="2281.644531"/>
     <use xlink:href="#DejaVuSans-63" x="2309.427734"/>
     <use xlink:href="#DejaVuSans-6f" x="2364.408203"/>
     <use xlink:href="#DejaVuSans-6c" x="2425.589844"/>
     <use xlink:href="#DejaVuSans-61" x="2453.373047"/>
     <use xlink:href="#DejaVuSans-75" x="2514.652344"/>
     <use xlink:href="#DejaVuSans-5f" x="2578.03125"/>
     <use xlink:href="#DejaVuSans-62" x="2628.03125"/>
     <use xlink:href="#DejaVuSans-29" x="2691.507812"/>
    </g>
   </g>
   <g id="legend_1">
    <g id="patch_135">
     <path d="M 242.155937 108.1845 
L 407.72 108.1845 
Q 409.72 108.1845 409.72 106.1845 
L 409.72 48.472 
Q 409.72 46.472 407.72 46.472 
L 242.155937 46.472 
Q 240.155937 46.472 240.155937 48.472 
L 240.155937 106.1845 
Q 240.155937 108.1845 242.155937 108.1845 
z
" style="fill: #ffffff; opacity: 0.8; stroke: #cccccc; stroke-linejoin: miter"/>
    </g>
    <g id="patch_136">
     <path d="M 244.155937 58.070438 
L 264.155937 58.070438 
L 264.155937 51.070438 
L 244.155937 51.070438 
z
" style="fill: #1f77b4"/>
    </g>
    <g id="text_18">
     <!-- Function node proportions -->
     <g transform="translate(272.155937 58.070438)scale(0.1 -0.1)">
      <defs>
       <path id="DejaVuSans-46" d="M 628 4666 
L 3309 4666 
L 3309 4134 
L 1259 4134 
L 1259 2759 
L 3109 2759 
L 3109 2228 
L 1259 2228 
L 1259 0 
L 628 0 
L 628 4666 
z
" transform="scale(0.015625)"/>
      </defs>
      <use xlink:href="#DejaVuSans-46"/>
      <use xlink:href="#DejaVuSans-75" x="52.019531"/>
      <use xlink:href="#DejaVuSans-6e" x="115.398438"/>
      <use xlink:href="#DejaVuSans-63" x="178.777344"/>
      <use xlink:href="#DejaVuSans-74" x="233.757812"/>
      <use xlink:href="#DejaVuSans-69" x="272.966797"/>
      <use xlink:href="#DejaVuSans-6f" x="300.75"/>
      <use xlink:href="#DejaVuSans-6e" x="361.931641"/>
      <use xlink:href="#DejaVuSans-20" x="425.310547"/>
      <use xlink:href="#DejaVuSans-6e" x="457.097656"/>
      <use xlink:href="#DejaVuSans-6f" x="520.476562"/>
      <use xlink:href="#DejaVuSans-64" x="581.658203"/>
      <use xlink:href="#DejaVuSans-65" x="645.134766"/>
      <use xlink:href="#DejaVuSans-20" x="706.658203"/>
      <use xlink:href="#DejaVuSans-70" x="738.445312"/>
      <use xlink:href="#DejaVuSans-72" x="801.921875"/>
      <use xlink:href="#DejaVuSans-6f" x="840.785156"/>
      <use xlink:href="#DejaVuSans-70" x="901.966797"/>
      <use xlink:href="#DejaVuSans-6f" x="965.443359"/>
      <use xlink:href="#DejaVuSans-72" x="1026.625"/>
      <use xlink:href="#DejaVuSans-74" x="1067.738281"/>
      <use xlink:href="#DejaVuSans-69" x="1106.947266"/>
      <use xlink:href="#DejaVuSans-6f" x="1134.730469"/>
      <use xlink:href="#DejaVuSans-6e" x="1195.912109"/>
      <use xlink:href="#DejaVuSans-73" x="1259.291016"/>
     </g>
    </g>
    <g id="patch_137">
     <path d="M 244.155937 72.748563 
L 264.155937 72.748563 
L 264.155937 65.748563 
L 244.155937 65.748563 
z
" style="fill: #ff7f0e"/>
    </g>
    <g id="text_19">
     <!-- Terminal node proportions -->
     <g transform="translate(272.155937 72.748563)scale(0.1 -0.1)">
      <defs>
       <path id="DejaVuSans-54" d="M -19 4666 
L 3928 4666 
L 3928 4134 
L 2272 4134 
L 2272 0 
L 1638 0 
L 1638 4134 
L -19 4134 
L -19 4666 
z
" transform="scale(0.015625)"/>
      </defs>
      <use xlink:href="#DejaVuSans-54"/>
      <use xlink:href="#DejaVuSans-65" x="44.083984"/>
      <use xlink:href="#DejaVuSans-72" x="105.607422"/>
      <use xlink:href="#DejaVuSans-6d" x="144.970703"/>
      <use xlink:href="#DejaVuSans-69" x="242.382812"/>
      <use xlink:href="#DejaVuSans-6e" x="270.166016"/>
      <use xlink:href="#DejaVuSans-61" x="333.544922"/>
      <use xlink:href="#DejaVuSans-6c" x="394.824219"/>
      <use xlink:href="#DejaVuSans-20" x="422.607422"/>
      <use xlink:href="#DejaVuSans-6e" x="454.394531"/>
      <use xlink:href="#DejaVuSans-6f" x="517.773438"/>
      <use xlink:href="#DejaVuSans-64" x="578.955078"/>
      <use xlink:href="#DejaVuSans-65" x="642.431641"/>
      <use xlink:href="#DejaVuSans-20" x="703.955078"/>
      <use xlink:href="#DejaVuSans-70" x="735.742188"/>
      <use xlink:href="#DejaVuSans-72" x="799.21875"/>
      <use xlink:href="#DejaVuSans-6f" x="838.082031"/>
      <use xlink:href="#DejaVuSans-70" x="899.263672"/>
      <use xlink:href="#DejaVuSans-6f" x="962.740234"/>
      <use xlink:href="#DejaVuSans-72" x="1023.921875"/>
      <use xlink:href="#DejaVuSans-74" x="1065.035156"/>
      <use xlink:href="#DejaVuSans-69" x="1104.244141"/>
      <use xlink:href="#DejaVuSans-6f" x="1132.027344"/>
      <use xlink:href="#DejaVuSans-6e" x="1193.208984"/>
      <use xlink:href="#DejaVuSans-73" x="1256.587891"/>
     </g>
    </g>
    <g id="patch_138">
     <path d="M 244.155937 87.426688 
L 264.155937 87.426688 
L 264.155937 80.426688 
L 244.155937 80.426688 
z
" style="fill: #2ca02c"/>
    </g>
    <g id="text_20">
     <!-- Variable node proportions -->
     <g transform="translate(272.155937 87.426688)scale(0.1 -0.1)">
      <defs>
       <path id="DejaVuSans-56" d="M 1831 0 
L 50 4666 
L 709 4666 
L 2188 738 
L 3669 4666 
L 4325 4666 
L 2547 0 
L 1831 0 
z
" transform="scale(0.015625)"/>
      </defs>
      <use xlink:href="#DejaVuSans-56"/>
      <use xlink:href="#DejaVuSans-61" x="60.658203"/>
      <use xlink:href="#DejaVuSans-72" x="121.9375"/>
      <use xlink:href="#DejaVuSans-69" x="163.050781"/>
      <use xlink:href="#DejaVuSans-61" x="190.833984"/>
      <use xlink:href="#DejaVuSans-62" x="252.113281"/>
      <use xlink:href="#DejaVuSans-6c" x="315.589844"/>
      <use xlink:href="#DejaVuSans-65" x="343.373047"/>
      <use xlink:href="#DejaVuSans-20" x="404.896484"/>
      <use xlink:href="#DejaVuSans-6e" x="436.683594"/>
      <use xlink:href="#DejaVuSans-6f" x="500.0625"/>
      <use xlink:href="#DejaVuSans-64" x="561.244141"/>
      <use xlink:href="#DejaVuSans-65" x="624.720703"/>
      <use xlink:href="#DejaVuSans-20" x="686.244141"/>
      <use xlink:href="#DejaVuSans-70" x="718.03125"/>
      <use xlink:href="#DejaVuSans-72" x="781.507812"/>
      <use xlink:href="#DejaVuSans-6f" x="820.371094"/>
      <use xlink:href="#DejaVuSans-70" x="881.552734"/>
      <use xlink:href="#DejaVuSans-6f" x="945.029297"/>
      <use xlink:href="#DejaVuSans-72" x="1006.210938"/>
      <use xlink:href="#DejaVuSans-74" x="1047.324219"/>
      <use xlink:href="#DejaVuSans-69" x="1086.533203"/>
      <use xlink:href="#DejaVuSans-6f" x="1114.316406"/>
      <use xlink:href="#DejaVuSans-6e" x="1175.498047"/>
      <use xlink:href="#DejaVuSans-73" x="1238.876953"/>
     </g>
    </g>
    <g id="patch_139">
     <path d="M 244.155937 102.104813 
L 264.155937 102.104813 
L 264.155937 95.104813 
L 244.155937 95.104813 
z
" style="fill: #d62728"/>
    </g>
    <g id="text_21">
     <!-- Constant node proportions -->
     <g transform="translate(272.155937 102.104813)scale(0.1 -0.1)">
      <defs>
       <path id="DejaVuSans-43" d="M 4122 4306 
L 4122 3641 
Q 3803 3938 3442 4084 
Q 3081 4231 2675 4231 
Q 1875 4231 1450 3742 
Q 1025 3253 1025 2328 
Q 1025 1406 1450 917 
Q 1875 428 2675 428 
Q 3081 428 3442 575 
Q 3803 722 4122 1019 
L 4122 359 
Q 3791 134 3420 21 
Q 3050 -91 2638 -91 
Q 1578 -91 968 557 
Q 359 1206 359 2328 
Q 359 3453 968 4101 
Q 1578 4750 2638 4750 
Q 3056 4750 3426 4639 
Q 3797 4528 4122 4306 
z
" transform="scale(0.015625)"/>
      </defs>
      <use xlink:href="#DejaVuSans-43"/>
      <use xlink:href="#DejaVuSans-6f" x="69.824219"/>
      <use xlink:href="#DejaVuSans-6e" x="131.005859"/>
      <use xlink:href="#DejaVuSans-73" x="194.384766"/>
      <use xlink:href="#DejaVuSans-74" x="246.484375"/>
      <use xlink:href="#DejaVuSans-61" x="285.693359"/>
      <use xlink:href="#DejaVuSans-6e" x="346.972656"/>
      <use xlink:href="#DejaVuSans-74" x="410.351562"/>
      <use xlink:href="#DejaVuSans-20" x="449.560547"/>
      <use xlink:href="#DejaVuSans-6e" x="481.347656"/>
      <use xlink:href="#DejaVuSans-6f" x="544.726562"/>
      <use xlink:href="#DejaVuSans-64" x="605.908203"/>
      <use xlink:href="#DejaVuSans-65" x="669.384766"/>
      <use xlink:href="#DejaVuSans-20" x="730.908203"/>
      <use xlink:href="#DejaVuSans-70" x="762.695312"/>
      <use xlink:href="#DejaVuSans-72" x="826.171875"/>
      <use xlink:href="#DejaVuSans-6f" x="865.035156"/>
      <use xlink:href="#DejaVuSans-70" x="926.216797"/>
      <use xlink:href="#DejaVuSans-6f" x="989.693359"/>
      <use xlink:href="#DejaVuSans-72" x="1050.875"/>
      <use xlink:href="#DejaVuSans-74" x="1091.988281"/>
      <use xlink:href="#DejaVuSans-69" x="1131.197266"/>
      <use xlink:href="#DejaVuSans-6f" x="1158.980469"/>
      <use xlink:href="#DejaVuSans-6e" x="1220.162109"/>
      <use xlink:href="#DejaVuSans-73" x="1283.541016"/>
     </g>
    </g>
   </g>
  </g>
 </g>
 <defs>
  <clipPath id="pf3d1c37a78">
   <rect x="57.6" y="41.472" width="357.12" height="266.112"/>
  </clipPath>
 </defs>
</svg>
