<?xml version="1.0" encoding="utf-8" standalone="no"?>
<!DOCTYPE svg PUBLIC "-//W3C//DTD SVG 1.1//EN"
  "http://www.w3.org/Graphics/SVG/1.1/DTD/svg11.dtd">
<svg xmlns:xlink="http://www.w3.org/1999/xlink" width="921.6pt" height="633.6pt" viewBox="0 0 921.6 633.6" xmlns="http://www.w3.org/2000/svg" version="1.1">
 <metadata>
  <rdf:RDF xmlns:dc="http://purl.org/dc/elements/1.1/" xmlns:cc="http://creativecommons.org/ns#" xmlns:rdf="http://www.w3.org/1999/02/22-rdf-syntax-ns#">
   <cc:Work>
    <dc:type rdf:resource="http://purl.org/dc/dcmitype/StillImage"/>
    <dc:date>2022-11-02T20:24:27.982550</dc:date>
    <dc:format>image/svg+xml</dc:format>
    <dc:creator>
     <cc:Agent>
      <dc:title>Matplotlib v3.5.3, https://matplotlib.org/</dc:title>
     </cc:Agent>
    </dc:creator>
   </cc:Work>
  </rdf:RDF>
 </metadata>
 <defs>
  <style type="text/css">*{stroke-linejoin: round; stroke-linecap: butt}</style>
 </defs>
 <g id="figure_1">
  <g id="patch_1">
   <path d="M 0 633.6 
L 921.6 633.6 
L 921.6 0 
L 0 0 
z
" style="fill: #ffffff"/>
  </g>
  <g id="axes_1">
   <g id="patch_2">
    <path d="M 115.2 563.904 
L 829.44 563.904 
L 829.44 76.032 
L 115.2 76.032 
z
" style="fill: #ffffff"/>
   </g>
   <g id="patch_3">
    <path d="M 147.665455 563.904 
L 149.704102 563.904 
L 149.704102 519.119422 
L 147.665455 519.119422 
z
" clip-path="url(#p9abe3a536b)" style="fill: #1f77b4"/>
   </g>
   <g id="patch_4">
    <path d="M 150.213763 563.904 
L 152.25241 563.904 
L 152.25241 534.047614 
L 150.213763 534.047614 
z
" clip-path="url(#p9abe3a536b)" style="fill: #1f77b4"/>
   </g>
   <g id="patch_5">
    <path d="M 152.762072 563.904 
L 154.800719 563.904 
L 154.800719 308.258699 
L 152.762072 308.258699 
z
" clip-path="url(#p9abe3a536b)" style="fill: #1f77b4"/>
   </g>
   <g id="patch_6">
    <path d="M 155.310381 563.904 
L 157.349028 563.904 
L 157.349028 395.961831 
L 155.310381 395.961831 
z
" clip-path="url(#p9abe3a536b)" style="fill: #1f77b4"/>
   </g>
   <g id="patch_7">
    <path d="M 157.85869 563.904 
L 159.897337 563.904 
L 159.897337 164.574843 
L 157.85869 164.574843 
z
" clip-path="url(#p9abe3a536b)" style="fill: #1f77b4"/>
   </g>
   <g id="patch_8">
    <path d="M 160.406999 563.904 
L 162.445646 563.904 
L 162.445646 356.775325 
L 160.406999 356.775325 
z
" clip-path="url(#p9abe3a536b)" style="fill: #1f77b4"/>
   </g>
   <g id="patch_9">
    <path d="M 162.955308 563.904 
L 164.993955 563.904 
L 164.993955 222.42159 
L 162.955308 222.42159 
z
" clip-path="url(#p9abe3a536b)" style="fill: #1f77b4"/>
   </g>
   <g id="patch_10">
    <path d="M 165.503616 563.904 
L 167.542263 563.904 
L 167.542263 99.264 
L 165.503616 99.264 
z
" clip-path="url(#p9abe3a536b)" style="fill: #1f77b4"/>
   </g>
   <g id="patch_11">
    <path d="M 168.051925 563.904 
L 170.090572 563.904 
L 170.090572 412.756048 
L 168.051925 412.756048 
z
" clip-path="url(#p9abe3a536b)" style="fill: #1f77b4"/>
   </g>
   <g id="patch_12">
    <path d="M 170.600234 563.904 
L 172.638881 563.904 
L 172.638881 349.311229 
L 170.600234 349.311229 
z
" clip-path="url(#p9abe3a536b)" style="fill: #1f77b4"/>
   </g>
   <g id="patch_13">
    <path d="M 173.148543 563.904 
L 175.18719 563.904 
L 175.18719 339.981108 
L 173.148543 339.981108 
z
" clip-path="url(#p9abe3a536b)" style="fill: #1f77b4"/>
   </g>
   <g id="patch_14">
    <path d="M 175.696852 563.904 
L 177.735499 563.904 
L 177.735499 332.517012 
L 175.696852 332.517012 
z
" clip-path="url(#p9abe3a536b)" style="fill: #1f77b4"/>
   </g>
   <g id="patch_15">
    <path d="M 178.245161 563.904 
L 180.283808 563.904 
L 180.283808 270.938217 
L 178.245161 270.938217 
z
" clip-path="url(#p9abe3a536b)" style="fill: #1f77b4"/>
   </g>
   <g id="patch_16">
    <path d="M 180.793469 563.904 
L 182.832116 563.904 
L 182.832116 295.19653 
L 180.793469 295.19653 
z
" clip-path="url(#p9abe3a536b)" style="fill: #1f77b4"/>
   </g>
   <g id="patch_17">
    <path d="M 183.341778 563.904 
L 185.380425 563.904 
L 185.380425 339.981108 
L 183.341778 339.981108 
z
" clip-path="url(#p9abe3a536b)" style="fill: #1f77b4"/>
   </g>
   <g id="patch_18">
    <path d="M 185.890087 563.904 
L 187.928734 563.904 
L 187.928734 259.742072 
L 185.890087 259.742072 
z
" clip-path="url(#p9abe3a536b)" style="fill: #1f77b4"/>
   </g>
   <g id="patch_19">
    <path d="M 188.438396 563.904 
L 190.477043 563.904 
L 190.477043 394.095807 
L 188.438396 394.095807 
z
" clip-path="url(#p9abe3a536b)" style="fill: #1f77b4"/>
   </g>
   <g id="patch_20">
    <path d="M 190.986705 563.904 
L 193.025352 563.904 
L 193.025352 347.445205 
L 190.986705 347.445205 
z
" clip-path="url(#p9abe3a536b)" style="fill: #1f77b4"/>
   </g>
   <g id="patch_21">
    <path d="M 193.535014 563.904 
L 195.573661 563.904 
L 195.573661 353.043277 
L 193.535014 353.043277 
z
" clip-path="url(#p9abe3a536b)" style="fill: #1f77b4"/>
   </g>
   <g id="patch_22">
    <path d="M 196.083322 563.904 
L 198.121969 563.904 
L 198.121969 341.847133 
L 196.083322 341.847133 
z
" clip-path="url(#p9abe3a536b)" style="fill: #1f77b4"/>
   </g>
   <g id="patch_23">
    <path d="M 198.631631 563.904 
L 200.670278 563.904 
L 200.670278 313.856771 
L 198.631631 313.856771 
z
" clip-path="url(#p9abe3a536b)" style="fill: #1f77b4"/>
   </g>
   <g id="patch_24">
    <path d="M 201.17994 563.904 
L 203.218587 563.904 
L 203.218587 297.062554 
L 201.17994 297.062554 
z
" clip-path="url(#p9abe3a536b)" style="fill: #1f77b4"/>
   </g>
   <g id="patch_25">
    <path d="M 203.728249 563.904 
L 205.766896 563.904 
L 205.766896 326.91894 
L 203.728249 326.91894 
z
" clip-path="url(#p9abe3a536b)" style="fill: #1f77b4"/>
   </g>
   <g id="patch_26">
    <path d="M 206.276558 563.904 
L 208.315205 563.904 
L 208.315205 226.153639 
L 206.276558 226.153639 
z
" clip-path="url(#p9abe3a536b)" style="fill: #1f77b4"/>
   </g>
   <g id="patch_27">
    <path d="M 208.824867 563.904 
L 210.863514 563.904 
L 210.863514 416.488096 
L 208.824867 416.488096 
z
" clip-path="url(#p9abe3a536b)" style="fill: #1f77b4"/>
   </g>
   <g id="patch_28">
    <path d="M 211.373175 563.904 
L 213.411822 563.904 
L 213.411822 339.981108 
L 211.373175 339.981108 
z
" clip-path="url(#p9abe3a536b)" style="fill: #1f77b4"/>
   </g>
   <g id="patch_29">
    <path d="M 213.921484 563.904 
L 215.960131 563.904 
L 215.960131 328.784964 
L 213.921484 328.784964 
z
" clip-path="url(#p9abe3a536b)" style="fill: #1f77b4"/>
   </g>
   <g id="patch_30">
    <path d="M 216.469793 563.904 
L 218.50844 563.904 
L 218.50844 317.588819 
L 216.469793 317.588819 
z
" clip-path="url(#p9abe3a536b)" style="fill: #1f77b4"/>
   </g>
   <g id="patch_31">
    <path d="M 219.018102 563.904 
L 221.056749 563.904 
L 221.056749 308.258699 
L 219.018102 308.258699 
z
" clip-path="url(#p9abe3a536b)" style="fill: #1f77b4"/>
   </g>
   <g id="patch_32">
    <path d="M 221.566411 563.904 
L 223.605058 563.904 
L 223.605058 304.526651 
L 221.566411 304.526651 
z
" clip-path="url(#p9abe3a536b)" style="fill: #1f77b4"/>
   </g>
   <g id="patch_33">
    <path d="M 224.11472 563.904 
L 226.153367 563.904 
L 226.153367 360.507373 
L 224.11472 360.507373 
z
" clip-path="url(#p9abe3a536b)" style="fill: #1f77b4"/>
   </g>
   <g id="patch_34">
    <path d="M 226.663028 563.904 
L 228.701675 563.904 
L 228.701675 224.287614 
L 226.663028 224.287614 
z
" clip-path="url(#p9abe3a536b)" style="fill: #1f77b4"/>
   </g>
   <g id="patch_35">
    <path d="M 229.211337 563.904 
L 231.249984 563.904 
L 231.249984 422.086169 
L 229.211337 422.086169 
z
" clip-path="url(#p9abe3a536b)" style="fill: #1f77b4"/>
   </g>
   <g id="patch_36">
    <path d="M 231.759646 563.904 
L 233.798293 563.904 
L 233.798293 330.650988 
L 231.759646 330.650988 
z
" clip-path="url(#p9abe3a536b)" style="fill: #1f77b4"/>
   </g>
   <g id="patch_37">
    <path d="M 234.307955 563.904 
L 236.346602 563.904 
L 236.346602 295.19653 
L 234.307955 295.19653 
z
" clip-path="url(#p9abe3a536b)" style="fill: #1f77b4"/>
   </g>
   <g id="patch_38">
    <path d="M 236.856264 563.904 
L 238.894911 563.904 
L 238.894911 341.847133 
L 236.856264 341.847133 
z
" clip-path="url(#p9abe3a536b)" style="fill: #1f77b4"/>
   </g>
   <g id="patch_39">
    <path d="M 239.404573 563.904 
L 241.44322 563.904 
L 241.44322 347.445205 
L 239.404573 347.445205 
z
" clip-path="url(#p9abe3a536b)" style="fill: #1f77b4"/>
   </g>
   <g id="patch_40">
    <path d="M 241.952881 563.904 
L 243.991528 563.904 
L 243.991528 325.052916 
L 241.952881 325.052916 
z
" clip-path="url(#p9abe3a536b)" style="fill: #1f77b4"/>
   </g>
   <g id="patch_41">
    <path d="M 244.50119 563.904 
L 246.539837 563.904 
L 246.539837 325.052916 
L 244.50119 325.052916 
z
" clip-path="url(#p9abe3a536b)" style="fill: #1f77b4"/>
   </g>
   <g id="patch_42">
    <path d="M 247.049499 563.904 
L 249.088146 563.904 
L 249.088146 213.09147 
L 247.049499 213.09147 
z
" clip-path="url(#p9abe3a536b)" style="fill: #1f77b4"/>
   </g>
   <g id="patch_43">
    <path d="M 249.597808 563.904 
L 251.636455 563.904 
L 251.636455 394.095807 
L 249.597808 394.095807 
z
" clip-path="url(#p9abe3a536b)" style="fill: #1f77b4"/>
   </g>
   <g id="patch_44">
    <path d="M 252.146117 563.904 
L 254.184764 563.904 
L 254.184764 341.847133 
L 252.146117 341.847133 
z
" clip-path="url(#p9abe3a536b)" style="fill: #1f77b4"/>
   </g>
   <g id="patch_45">
    <path d="M 254.694426 563.904 
L 256.733073 563.904 
L 256.733073 310.124723 
L 254.694426 310.124723 
z
" clip-path="url(#p9abe3a536b)" style="fill: #1f77b4"/>
   </g>
   <g id="patch_46">
    <path d="M 257.242734 563.904 
L 259.281381 563.904 
L 259.281381 308.258699 
L 257.242734 308.258699 
z
" clip-path="url(#p9abe3a536b)" style="fill: #1f77b4"/>
   </g>
   <g id="patch_47">
    <path d="M 259.791043 563.904 
L 261.82969 563.904 
L 261.82969 343.713157 
L 259.791043 343.713157 
z
" clip-path="url(#p9abe3a536b)" style="fill: #1f77b4"/>
   </g>
   <g id="patch_48">
    <path d="M 262.339352 563.904 
L 264.377999 563.904 
L 264.377999 308.258699 
L 262.339352 308.258699 
z
" clip-path="url(#p9abe3a536b)" style="fill: #1f77b4"/>
   </g>
   <g id="patch_49">
    <path d="M 264.887661 563.904 
L 266.926308 563.904 
L 266.926308 323.186892 
L 264.887661 323.186892 
z
" clip-path="url(#p9abe3a536b)" style="fill: #1f77b4"/>
   </g>
   <g id="patch_50">
    <path d="M 267.43597 563.904 
L 269.474617 563.904 
L 269.474617 270.938217 
L 267.43597 270.938217 
z
" clip-path="url(#p9abe3a536b)" style="fill: #1f77b4"/>
   </g>
   <g id="patch_51">
    <path d="M 269.984279 563.904 
L 272.022926 563.904 
L 272.022926 409.024 
L 269.984279 409.024 
z
" clip-path="url(#p9abe3a536b)" style="fill: #1f77b4"/>
   </g>
   <g id="patch_52">
    <path d="M 272.532587 563.904 
L 274.571234 563.904 
L 274.571234 338.115084 
L 272.532587 338.115084 
z
" clip-path="url(#p9abe3a536b)" style="fill: #1f77b4"/>
   </g>
   <g id="patch_53">
    <path d="M 275.080896 563.904 
L 277.119543 563.904 
L 277.119543 334.383036 
L 275.080896 334.383036 
z
" clip-path="url(#p9abe3a536b)" style="fill: #1f77b4"/>
   </g>
   <g id="patch_54">
    <path d="M 277.629205 563.904 
L 279.667852 563.904 
L 279.667852 308.258699 
L 277.629205 308.258699 
z
" clip-path="url(#p9abe3a536b)" style="fill: #1f77b4"/>
   </g>
   <g id="patch_55">
    <path d="M 280.177514 563.904 
L 282.216161 563.904 
L 282.216161 321.320867 
L 280.177514 321.320867 
z
" clip-path="url(#p9abe3a536b)" style="fill: #1f77b4"/>
   </g>
   <g id="patch_56">
    <path d="M 282.725823 563.904 
L 284.76447 563.904 
L 284.76447 339.981108 
L 282.725823 339.981108 
z
" clip-path="url(#p9abe3a536b)" style="fill: #1f77b4"/>
   </g>
   <g id="patch_57">
    <path d="M 285.274132 563.904 
L 287.312779 563.904 
L 287.312779 328.784964 
L 285.274132 328.784964 
z
" clip-path="url(#p9abe3a536b)" style="fill: #1f77b4"/>
   </g>
   <g id="patch_58">
    <path d="M 287.82244 563.904 
L 289.861087 563.904 
L 289.861087 220.555566 
L 287.82244 220.555566 
z
" clip-path="url(#p9abe3a536b)" style="fill: #1f77b4"/>
   </g>
   <g id="patch_59">
    <path d="M 290.370749 563.904 
L 292.409396 563.904 
L 292.409396 420.220145 
L 290.370749 420.220145 
z
" clip-path="url(#p9abe3a536b)" style="fill: #1f77b4"/>
   </g>
   <g id="patch_60">
    <path d="M 292.919058 563.904 
L 294.957705 563.904 
L 294.957705 353.043277 
L 292.919058 353.043277 
z
" clip-path="url(#p9abe3a536b)" style="fill: #1f77b4"/>
   </g>
   <g id="patch_61">
    <path d="M 295.467367 563.904 
L 297.506014 563.904 
L 297.506014 311.990747 
L 295.467367 311.990747 
z
" clip-path="url(#p9abe3a536b)" style="fill: #1f77b4"/>
   </g>
   <g id="patch_62">
    <path d="M 298.015676 563.904 
L 300.054323 563.904 
L 300.054323 315.722795 
L 298.015676 315.722795 
z
" clip-path="url(#p9abe3a536b)" style="fill: #1f77b4"/>
   </g>
   <g id="patch_63">
    <path d="M 300.563985 563.904 
L 302.602632 563.904 
L 302.602632 317.588819 
L 300.563985 317.588819 
z
" clip-path="url(#p9abe3a536b)" style="fill: #1f77b4"/>
   </g>
   <g id="patch_64">
    <path d="M 303.112293 563.904 
L 305.15094 563.904 
L 305.15094 334.383036 
L 303.112293 334.383036 
z
" clip-path="url(#p9abe3a536b)" style="fill: #1f77b4"/>
   </g>
   <g id="patch_65">
    <path d="M 305.660602 563.904 
L 307.699249 563.904 
L 307.699249 326.91894 
L 305.660602 326.91894 
z
" clip-path="url(#p9abe3a536b)" style="fill: #1f77b4"/>
   </g>
   <g id="patch_66">
    <path d="M 308.208911 563.904 
L 310.247558 563.904 
L 310.247558 220.555566 
L 308.208911 220.555566 
z
" clip-path="url(#p9abe3a536b)" style="fill: #1f77b4"/>
   </g>
   <g id="patch_67">
    <path d="M 310.75722 563.904 
L 312.795867 563.904 
L 312.795867 416.488096 
L 310.75722 416.488096 
z
" clip-path="url(#p9abe3a536b)" style="fill: #1f77b4"/>
   </g>
   <g id="patch_68">
    <path d="M 313.305529 563.904 
L 315.344176 563.904 
L 315.344176 330.650988 
L 313.305529 330.650988 
z
" clip-path="url(#p9abe3a536b)" style="fill: #1f77b4"/>
   </g>
   <g id="patch_69">
    <path d="M 315.853838 563.904 
L 317.892485 563.904 
L 317.892485 338.115084 
L 315.853838 338.115084 
z
" clip-path="url(#p9abe3a536b)" style="fill: #1f77b4"/>
   </g>
   <g id="patch_70">
    <path d="M 318.402146 563.904 
L 320.440793 563.904 
L 320.440793 310.124723 
L 318.402146 310.124723 
z
" clip-path="url(#p9abe3a536b)" style="fill: #1f77b4"/>
   </g>
   <g id="patch_71">
    <path d="M 320.950455 563.904 
L 322.989102 563.904 
L 322.989102 332.517012 
L 320.950455 332.517012 
z
" clip-path="url(#p9abe3a536b)" style="fill: #1f77b4"/>
   </g>
   <g id="patch_72">
    <path d="M 323.498764 563.904 
L 325.537411 563.904 
L 325.537411 297.062554 
L 323.498764 297.062554 
z
" clip-path="url(#p9abe3a536b)" style="fill: #1f77b4"/>
   </g>
   <g id="patch_73">
    <path d="M 326.047073 563.904 
L 328.08572 563.904 
L 328.08572 300.794602 
L 326.047073 300.794602 
z
" clip-path="url(#p9abe3a536b)" style="fill: #1f77b4"/>
   </g>
   <g id="patch_74">
    <path d="M 328.595382 563.904 
L 330.634029 563.904 
L 330.634029 274.670265 
L 328.595382 274.670265 
z
" clip-path="url(#p9abe3a536b)" style="fill: #1f77b4"/>
   </g>
   <g id="patch_75">
    <path d="M 331.143691 563.904 
L 333.182338 563.904 
L 333.182338 390.363759 
L 331.143691 390.363759 
z
" clip-path="url(#p9abe3a536b)" style="fill: #1f77b4"/>
   </g>
   <g id="patch_76">
    <path d="M 333.691999 563.904 
L 335.730646 563.904 
L 335.730646 349.311229 
L 333.691999 349.311229 
z
" clip-path="url(#p9abe3a536b)" style="fill: #1f77b4"/>
   </g>
   <g id="patch_77">
    <path d="M 336.240308 563.904 
L 338.278955 563.904 
L 338.278955 347.445205 
L 336.240308 347.445205 
z
" clip-path="url(#p9abe3a536b)" style="fill: #1f77b4"/>
   </g>
   <g id="patch_78">
    <path d="M 338.788617 563.904 
L 340.827264 563.904 
L 340.827264 330.650988 
L 338.788617 330.650988 
z
" clip-path="url(#p9abe3a536b)" style="fill: #1f77b4"/>
   </g>
   <g id="patch_79">
    <path d="M 341.336926 563.904 
L 343.375573 563.904 
L 343.375573 345.579181 
L 341.336926 345.579181 
z
" clip-path="url(#p9abe3a536b)" style="fill: #1f77b4"/>
   </g>
   <g id="patch_80">
    <path d="M 343.885235 563.904 
L 345.923882 563.904 
L 345.923882 317.588819 
L 343.885235 317.588819 
z
" clip-path="url(#p9abe3a536b)" style="fill: #1f77b4"/>
   </g>
   <g id="patch_81">
    <path d="M 346.433544 563.904 
L 348.472191 563.904 
L 348.472191 272.804241 
L 346.433544 272.804241 
z
" clip-path="url(#p9abe3a536b)" style="fill: #1f77b4"/>
   </g>
   <g id="patch_82">
    <path d="M 348.981852 563.904 
L 351.0205 563.904 
L 351.0205 246.679904 
L 348.981852 246.679904 
z
" clip-path="url(#p9abe3a536b)" style="fill: #1f77b4"/>
   </g>
   <g id="patch_83">
    <path d="M 351.530161 563.904 
L 353.568808 563.904 
L 353.568808 409.024 
L 351.530161 409.024 
z
" clip-path="url(#p9abe3a536b)" style="fill: #1f77b4"/>
   </g>
   <g id="patch_84">
    <path d="M 354.07847 563.904 
L 356.117117 563.904 
L 356.117117 284.000386 
L 354.07847 284.000386 
z
" clip-path="url(#p9abe3a536b)" style="fill: #1f77b4"/>
   </g>
   <g id="patch_85">
    <path d="M 356.626779 563.904 
L 358.665426 563.904 
L 358.665426 297.062554 
L 356.626779 297.062554 
z
" clip-path="url(#p9abe3a536b)" style="fill: #1f77b4"/>
   </g>
   <g id="patch_86">
    <path d="M 359.175088 563.904 
L 361.213735 563.904 
L 361.213735 339.981108 
L 359.175088 339.981108 
z
" clip-path="url(#p9abe3a536b)" style="fill: #1f77b4"/>
   </g>
   <g id="patch_87">
    <path d="M 361.723397 563.904 
L 363.762044 563.904 
L 363.762044 341.847133 
L 361.723397 341.847133 
z
" clip-path="url(#p9abe3a536b)" style="fill: #1f77b4"/>
   </g>
   <g id="patch_88">
    <path d="M 364.271705 563.904 
L 366.310353 563.904 
L 366.310353 295.19653 
L 364.271705 295.19653 
z
" clip-path="url(#p9abe3a536b)" style="fill: #1f77b4"/>
   </g>
   <g id="patch_89">
    <path d="M 366.820014 563.904 
L 368.858661 563.904 
L 368.858661 326.91894 
L 366.820014 326.91894 
z
" clip-path="url(#p9abe3a536b)" style="fill: #1f77b4"/>
   </g>
   <g id="patch_90">
    <path d="M 369.368323 563.904 
L 371.40697 563.904 
L 371.40697 306.392675 
L 369.368323 306.392675 
z
" clip-path="url(#p9abe3a536b)" style="fill: #1f77b4"/>
   </g>
   <g id="patch_91">
    <path d="M 371.916632 563.904 
L 373.955279 563.904 
L 373.955279 403.425928 
L 371.916632 403.425928 
z
" clip-path="url(#p9abe3a536b)" style="fill: #1f77b4"/>
   </g>
   <g id="patch_92">
    <path d="M 374.464941 563.904 
L 376.503588 563.904 
L 376.503588 310.124723 
L 374.464941 310.124723 
z
" clip-path="url(#p9abe3a536b)" style="fill: #1f77b4"/>
   </g>
   <g id="patch_93">
    <path d="M 377.01325 563.904 
L 379.051897 563.904 
L 379.051897 330.650988 
L 377.01325 330.650988 
z
" clip-path="url(#p9abe3a536b)" style="fill: #1f77b4"/>
   </g>
   <g id="patch_94">
    <path d="M 379.561558 563.904 
L 381.600206 563.904 
L 381.600206 326.91894 
L 379.561558 326.91894 
z
" clip-path="url(#p9abe3a536b)" style="fill: #1f77b4"/>
   </g>
   <g id="patch_95">
    <path d="M 382.109867 563.904 
L 384.148514 563.904 
L 384.148514 311.990747 
L 382.109867 311.990747 
z
" clip-path="url(#p9abe3a536b)" style="fill: #1f77b4"/>
   </g>
   <g id="patch_96">
    <path d="M 384.658176 563.904 
L 386.696823 563.904 
L 386.696823 326.91894 
L 384.658176 326.91894 
z
" clip-path="url(#p9abe3a536b)" style="fill: #1f77b4"/>
   </g>
   <g id="patch_97">
    <path d="M 387.206485 563.904 
L 389.245132 563.904 
L 389.245132 326.91894 
L 387.206485 326.91894 
z
" clip-path="url(#p9abe3a536b)" style="fill: #1f77b4"/>
   </g>
   <g id="patch_98">
    <path d="M 389.754794 563.904 
L 391.793441 563.904 
L 391.793441 263.47412 
L 389.754794 263.47412 
z
" clip-path="url(#p9abe3a536b)" style="fill: #1f77b4"/>
   </g>
   <g id="patch_99">
    <path d="M 392.303103 563.904 
L 394.34175 563.904 
L 394.34175 354.909301 
L 392.303103 354.909301 
z
" clip-path="url(#p9abe3a536b)" style="fill: #1f77b4"/>
   </g>
   <g id="patch_100">
    <path d="M 394.851411 563.904 
L 396.890059 563.904 
L 396.890059 341.847133 
L 394.851411 341.847133 
z
" clip-path="url(#p9abe3a536b)" style="fill: #1f77b4"/>
   </g>
   <g id="patch_101">
    <path d="M 397.39972 563.904 
L 399.438367 563.904 
L 399.438367 343.713157 
L 397.39972 343.713157 
z
" clip-path="url(#p9abe3a536b)" style="fill: #1f77b4"/>
   </g>
   <g id="patch_102">
    <path d="M 399.948029 563.904 
L 401.986676 563.904 
L 401.986676 325.052916 
L 399.948029 325.052916 
z
" clip-path="url(#p9abe3a536b)" style="fill: #1f77b4"/>
   </g>
   <g id="patch_103">
    <path d="M 402.496338 563.904 
L 404.534985 563.904 
L 404.534985 328.784964 
L 402.496338 328.784964 
z
" clip-path="url(#p9abe3a536b)" style="fill: #1f77b4"/>
   </g>
   <g id="patch_104">
    <path d="M 405.044647 563.904 
L 407.083294 563.904 
L 407.083294 319.454843 
L 405.044647 319.454843 
z
" clip-path="url(#p9abe3a536b)" style="fill: #1f77b4"/>
   </g>
   <g id="patch_105">
    <path d="M 407.592956 563.904 
L 409.631603 563.904 
L 409.631603 300.794602 
L 407.592956 300.794602 
z
" clip-path="url(#p9abe3a536b)" style="fill: #1f77b4"/>
   </g>
   <g id="patch_106">
    <path d="M 410.141264 563.904 
L 412.179912 563.904 
L 412.179912 285.86641 
L 410.141264 285.86641 
z
" clip-path="url(#p9abe3a536b)" style="fill: #1f77b4"/>
   </g>
   <g id="patch_107">
    <path d="M 412.689573 563.904 
L 414.72822 563.904 
L 414.72822 371.703518 
L 412.689573 371.703518 
z
" clip-path="url(#p9abe3a536b)" style="fill: #1f77b4"/>
   </g>
   <g id="patch_108">
    <path d="M 415.237882 563.904 
L 417.276529 563.904 
L 417.276529 317.588819 
L 415.237882 317.588819 
z
" clip-path="url(#p9abe3a536b)" style="fill: #1f77b4"/>
   </g>
   <g id="patch_109">
    <path d="M 417.786191 563.904 
L 419.824838 563.904 
L 419.824838 285.86641 
L 417.786191 285.86641 
z
" clip-path="url(#p9abe3a536b)" style="fill: #1f77b4"/>
   </g>
   <g id="patch_110">
    <path d="M 420.3345 563.904 
L 422.373147 563.904 
L 422.373147 339.981108 
L 420.3345 339.981108 
z
" clip-path="url(#p9abe3a536b)" style="fill: #1f77b4"/>
   </g>
   <g id="patch_111">
    <path d="M 422.882809 563.904 
L 424.921456 563.904 
L 424.921456 317.588819 
L 422.882809 317.588819 
z
" clip-path="url(#p9abe3a536b)" style="fill: #1f77b4"/>
   </g>
   <g id="patch_112">
    <path d="M 425.431117 563.904 
L 427.469765 563.904 
L 427.469765 308.258699 
L 425.431117 308.258699 
z
" clip-path="url(#p9abe3a536b)" style="fill: #1f77b4"/>
   </g>
   <g id="patch_113">
    <path d="M 427.979426 563.904 
L 430.018073 563.904 
L 430.018073 339.981108 
L 427.979426 339.981108 
z
" clip-path="url(#p9abe3a536b)" style="fill: #1f77b4"/>
   </g>
   <g id="patch_114">
    <path d="M 430.527735 563.904 
L 432.566382 563.904 
L 432.566382 319.454843 
L 430.527735 319.454843 
z
" clip-path="url(#p9abe3a536b)" style="fill: #1f77b4"/>
   </g>
   <g id="patch_115">
    <path d="M 433.076044 563.904 
L 435.114691 563.904 
L 435.114691 369.837494 
L 433.076044 369.837494 
z
" clip-path="url(#p9abe3a536b)" style="fill: #1f77b4"/>
   </g>
   <g id="patch_116">
    <path d="M 435.624353 563.904 
L 437.663 563.904 
L 437.663 332.517012 
L 435.624353 332.517012 
z
" clip-path="url(#p9abe3a536b)" style="fill: #1f77b4"/>
   </g>
   <g id="patch_117">
    <path d="M 438.172662 563.904 
L 440.211309 563.904 
L 440.211309 291.464482 
L 438.172662 291.464482 
z
" clip-path="url(#p9abe3a536b)" style="fill: #1f77b4"/>
   </g>
   <g id="patch_118">
    <path d="M 440.72097 563.904 
L 442.759618 563.904 
L 442.759618 326.91894 
L 440.72097 326.91894 
z
" clip-path="url(#p9abe3a536b)" style="fill: #1f77b4"/>
   </g>
   <g id="patch_119">
    <path d="M 443.269279 563.904 
L 445.307926 563.904 
L 445.307926 332.517012 
L 443.269279 332.517012 
z
" clip-path="url(#p9abe3a536b)" style="fill: #1f77b4"/>
   </g>
   <g id="patch_120">
    <path d="M 445.817588 563.904 
L 447.856235 563.904 
L 447.856235 325.052916 
L 445.817588 325.052916 
z
" clip-path="url(#p9abe3a536b)" style="fill: #1f77b4"/>
   </g>
   <g id="patch_121">
    <path d="M 448.365897 563.904 
L 450.404544 563.904 
L 450.404544 310.124723 
L 448.365897 310.124723 
z
" clip-path="url(#p9abe3a536b)" style="fill: #1f77b4"/>
   </g>
   <g id="patch_122">
    <path d="M 450.914206 563.904 
L 452.952853 563.904 
L 452.952853 311.990747 
L 450.914206 311.990747 
z
" clip-path="url(#p9abe3a536b)" style="fill: #1f77b4"/>
   </g>
   <g id="patch_123">
    <path d="M 453.462515 563.904 
L 455.501162 563.904 
L 455.501162 341.847133 
L 453.462515 341.847133 
z
" clip-path="url(#p9abe3a536b)" style="fill: #1f77b4"/>
   </g>
   <g id="patch_124">
    <path d="M 456.010823 563.904 
L 458.049471 563.904 
L 458.049471 298.928578 
L 456.010823 298.928578 
z
" clip-path="url(#p9abe3a536b)" style="fill: #1f77b4"/>
   </g>
   <g id="patch_125">
    <path d="M 458.559132 563.904 
L 460.597779 563.904 
L 460.597779 358.641349 
L 458.559132 358.641349 
z
" clip-path="url(#p9abe3a536b)" style="fill: #1f77b4"/>
   </g>
   <g id="patch_126">
    <path d="M 461.107441 563.904 
L 463.146088 563.904 
L 463.146088 338.115084 
L 461.107441 338.115084 
z
" clip-path="url(#p9abe3a536b)" style="fill: #1f77b4"/>
   </g>
   <g id="patch_127">
    <path d="M 463.65575 563.904 
L 465.694397 563.904 
L 465.694397 341.847133 
L 463.65575 341.847133 
z
" clip-path="url(#p9abe3a536b)" style="fill: #1f77b4"/>
   </g>
   <g id="patch_128">
    <path d="M 466.204059 563.904 
L 468.242706 563.904 
L 468.242706 278.402313 
L 466.204059 278.402313 
z
" clip-path="url(#p9abe3a536b)" style="fill: #1f77b4"/>
   </g>
   <g id="patch_129">
    <path d="M 468.752368 563.904 
L 470.791015 563.904 
L 470.791015 334.383036 
L 468.752368 334.383036 
z
" clip-path="url(#p9abe3a536b)" style="fill: #1f77b4"/>
   </g>
   <g id="patch_130">
    <path d="M 471.300676 563.904 
L 473.339324 563.904 
L 473.339324 308.258699 
L 471.300676 308.258699 
z
" clip-path="url(#p9abe3a536b)" style="fill: #1f77b4"/>
   </g>
   <g id="patch_131">
    <path d="M 473.848985 563.904 
L 475.887632 563.904 
L 475.887632 356.775325 
L 473.848985 356.775325 
z
" clip-path="url(#p9abe3a536b)" style="fill: #1f77b4"/>
   </g>
   <g id="patch_132">
    <path d="M 476.397294 563.904 
L 478.435941 563.904 
L 478.435941 330.650988 
L 476.397294 330.650988 
z
" clip-path="url(#p9abe3a536b)" style="fill: #1f77b4"/>
   </g>
   <g id="patch_133">
    <path d="M 478.945603 563.904 
L 480.98425 563.904 
L 480.98425 289.598458 
L 478.945603 289.598458 
z
" clip-path="url(#p9abe3a536b)" style="fill: #1f77b4"/>
   </g>
   <g id="patch_134">
    <path d="M 481.493912 563.904 
L 483.532559 563.904 
L 483.532559 297.062554 
L 481.493912 297.062554 
z
" clip-path="url(#p9abe3a536b)" style="fill: #1f77b4"/>
   </g>
   <g id="patch_135">
    <path d="M 484.042221 563.904 
L 486.080868 563.904 
L 486.080868 353.043277 
L 484.042221 353.043277 
z
" clip-path="url(#p9abe3a536b)" style="fill: #1f77b4"/>
   </g>
   <g id="patch_136">
    <path d="M 486.590529 563.904 
L 488.629177 563.904 
L 488.629177 325.052916 
L 486.590529 325.052916 
z
" clip-path="url(#p9abe3a536b)" style="fill: #1f77b4"/>
   </g>
   <g id="patch_137">
    <path d="M 489.138838 563.904 
L 491.177485 563.904 
L 491.177485 338.115084 
L 489.138838 338.115084 
z
" clip-path="url(#p9abe3a536b)" style="fill: #1f77b4"/>
   </g>
   <g id="patch_138">
    <path d="M 491.687147 563.904 
L 493.725794 563.904 
L 493.725794 310.124723 
L 491.687147 310.124723 
z
" clip-path="url(#p9abe3a536b)" style="fill: #1f77b4"/>
   </g>
   <g id="patch_139">
    <path d="M 494.235456 563.904 
L 496.274103 563.904 
L 496.274103 392.229783 
L 494.235456 392.229783 
z
" clip-path="url(#p9abe3a536b)" style="fill: #1f77b4"/>
   </g>
   <g id="patch_140">
    <path d="M 496.783765 563.904 
L 498.822412 563.904 
L 498.822412 313.856771 
L 496.783765 313.856771 
z
" clip-path="url(#p9abe3a536b)" style="fill: #1f77b4"/>
   </g>
   <g id="patch_141">
    <path d="M 499.332074 563.904 
L 501.370721 563.904 
L 501.370721 332.517012 
L 499.332074 332.517012 
z
" clip-path="url(#p9abe3a536b)" style="fill: #1f77b4"/>
   </g>
   <g id="patch_142">
    <path d="M 501.880382 563.904 
L 503.91903 563.904 
L 503.91903 291.464482 
L 501.880382 291.464482 
z
" clip-path="url(#p9abe3a536b)" style="fill: #1f77b4"/>
   </g>
   <g id="patch_143">
    <path d="M 504.428691 563.904 
L 506.467338 563.904 
L 506.467338 321.320867 
L 504.428691 321.320867 
z
" clip-path="url(#p9abe3a536b)" style="fill: #1f77b4"/>
   </g>
   <g id="patch_144">
    <path d="M 506.977 563.904 
L 509.015647 563.904 
L 509.015647 298.928578 
L 506.977 298.928578 
z
" clip-path="url(#p9abe3a536b)" style="fill: #1f77b4"/>
   </g>
   <g id="patch_145">
    <path d="M 509.525309 563.904 
L 511.563956 563.904 
L 511.563956 302.660627 
L 509.525309 302.660627 
z
" clip-path="url(#p9abe3a536b)" style="fill: #1f77b4"/>
   </g>
   <g id="patch_146">
    <path d="M 512.073618 563.904 
L 514.112265 563.904 
L 514.112265 347.445205 
L 512.073618 347.445205 
z
" clip-path="url(#p9abe3a536b)" style="fill: #1f77b4"/>
   </g>
   <g id="patch_147">
    <path d="M 514.621927 563.904 
L 516.660574 563.904 
L 516.660574 347.445205 
L 514.621927 347.445205 
z
" clip-path="url(#p9abe3a536b)" style="fill: #1f77b4"/>
   </g>
   <g id="patch_148">
    <path d="M 517.170235 563.904 
L 519.208883 563.904 
L 519.208883 313.856771 
L 517.170235 313.856771 
z
" clip-path="url(#p9abe3a536b)" style="fill: #1f77b4"/>
   </g>
   <g id="patch_149">
    <path d="M 519.718544 563.904 
L 521.757191 563.904 
L 521.757191 326.91894 
L 519.718544 326.91894 
z
" clip-path="url(#p9abe3a536b)" style="fill: #1f77b4"/>
   </g>
   <g id="patch_150">
    <path d="M 522.266853 563.904 
L 524.3055 563.904 
L 524.3055 297.062554 
L 522.266853 297.062554 
z
" clip-path="url(#p9abe3a536b)" style="fill: #1f77b4"/>
   </g>
   <g id="patch_151">
    <path d="M 524.815162 563.904 
L 526.853809 563.904 
L 526.853809 338.115084 
L 524.815162 338.115084 
z
" clip-path="url(#p9abe3a536b)" style="fill: #1f77b4"/>
   </g>
   <g id="patch_152">
    <path d="M 527.363471 563.904 
L 529.402118 563.904 
L 529.402118 326.91894 
L 527.363471 326.91894 
z
" clip-path="url(#p9abe3a536b)" style="fill: #1f77b4"/>
   </g>
   <g id="patch_153">
    <path d="M 529.91178 563.904 
L 531.950427 563.904 
L 531.950427 336.24906 
L 529.91178 336.24906 
z
" clip-path="url(#p9abe3a536b)" style="fill: #1f77b4"/>
   </g>
   <g id="patch_154">
    <path d="M 532.460088 563.904 
L 534.498736 563.904 
L 534.498736 313.856771 
L 532.460088 313.856771 
z
" clip-path="url(#p9abe3a536b)" style="fill: #1f77b4"/>
   </g>
   <g id="patch_155">
    <path d="M 535.008397 563.904 
L 537.047044 563.904 
L 537.047044 325.052916 
L 535.008397 325.052916 
z
" clip-path="url(#p9abe3a536b)" style="fill: #1f77b4"/>
   </g>
   <g id="patch_156">
    <path d="M 537.556706 563.904 
L 539.595353 563.904 
L 539.595353 339.981108 
L 537.556706 339.981108 
z
" clip-path="url(#p9abe3a536b)" style="fill: #1f77b4"/>
   </g>
   <g id="patch_157">
    <path d="M 540.105015 563.904 
L 542.143662 563.904 
L 542.143662 349.311229 
L 540.105015 349.311229 
z
" clip-path="url(#p9abe3a536b)" style="fill: #1f77b4"/>
   </g>
   <g id="patch_158">
    <path d="M 542.653324 563.904 
L 544.691971 563.904 
L 544.691971 304.526651 
L 542.653324 304.526651 
z
" clip-path="url(#p9abe3a536b)" style="fill: #1f77b4"/>
   </g>
   <g id="patch_159">
    <path d="M 545.201633 563.904 
L 547.24028 563.904 
L 547.24028 347.445205 
L 545.201633 347.445205 
z
" clip-path="url(#p9abe3a536b)" style="fill: #1f77b4"/>
   </g>
   <g id="patch_160">
    <path d="M 547.749941 563.904 
L 549.788589 563.904 
L 549.788589 274.670265 
L 547.749941 274.670265 
z
" clip-path="url(#p9abe3a536b)" style="fill: #1f77b4"/>
   </g>
   <g id="patch_161">
    <path d="M 550.29825 563.904 
L 552.336897 563.904 
L 552.336897 308.258699 
L 550.29825 308.258699 
z
" clip-path="url(#p9abe3a536b)" style="fill: #1f77b4"/>
   </g>
   <g id="patch_162">
    <path d="M 552.846559 563.904 
L 554.885206 563.904 
L 554.885206 351.177253 
L 552.846559 351.177253 
z
" clip-path="url(#p9abe3a536b)" style="fill: #1f77b4"/>
   </g>
   <g id="patch_163">
    <path d="M 555.394868 563.904 
L 557.433515 563.904 
L 557.433515 332.517012 
L 555.394868 332.517012 
z
" clip-path="url(#p9abe3a536b)" style="fill: #1f77b4"/>
   </g>
   <g id="patch_164">
    <path d="M 557.943177 563.904 
L 559.981824 563.904 
L 559.981824 358.641349 
L 557.943177 358.641349 
z
" clip-path="url(#p9abe3a536b)" style="fill: #1f77b4"/>
   </g>
   <g id="patch_165">
    <path d="M 560.491486 563.904 
L 562.530133 563.904 
L 562.530133 311.990747 
L 560.491486 311.990747 
z
" clip-path="url(#p9abe3a536b)" style="fill: #1f77b4"/>
   </g>
   <g id="patch_166">
    <path d="M 563.039794 563.904 
L 565.078442 563.904 
L 565.078442 304.526651 
L 563.039794 304.526651 
z
" clip-path="url(#p9abe3a536b)" style="fill: #1f77b4"/>
   </g>
   <g id="patch_167">
    <path d="M 565.588103 563.904 
L 567.62675 563.904 
L 567.62675 311.990747 
L 565.588103 311.990747 
z
" clip-path="url(#p9abe3a536b)" style="fill: #1f77b4"/>
   </g>
   <g id="patch_168">
    <path d="M 568.136412 563.904 
L 570.175059 563.904 
L 570.175059 345.579181 
L 568.136412 345.579181 
z
" clip-path="url(#p9abe3a536b)" style="fill: #1f77b4"/>
   </g>
   <g id="patch_169">
    <path d="M 570.684721 563.904 
L 572.723368 563.904 
L 572.723368 334.383036 
L 570.684721 334.383036 
z
" clip-path="url(#p9abe3a536b)" style="fill: #1f77b4"/>
   </g>
   <g id="patch_170">
    <path d="M 573.23303 563.904 
L 575.271677 563.904 
L 575.271677 300.794602 
L 573.23303 300.794602 
z
" clip-path="url(#p9abe3a536b)" style="fill: #1f77b4"/>
   </g>
   <g id="patch_171">
    <path d="M 575.781339 563.904 
L 577.819986 563.904 
L 577.819986 319.454843 
L 575.781339 319.454843 
z
" clip-path="url(#p9abe3a536b)" style="fill: #1f77b4"/>
   </g>
   <g id="patch_172">
    <path d="M 578.329647 563.904 
L 580.368295 563.904 
L 580.368295 343.713157 
L 578.329647 343.713157 
z
" clip-path="url(#p9abe3a536b)" style="fill: #1f77b4"/>
   </g>
   <g id="patch_173">
    <path d="M 580.877956 563.904 
L 582.916603 563.904 
L 582.916603 315.722795 
L 580.877956 315.722795 
z
" clip-path="url(#p9abe3a536b)" style="fill: #1f77b4"/>
   </g>
   <g id="patch_174">
    <path d="M 583.426265 563.904 
L 585.464912 563.904 
L 585.464912 326.91894 
L 583.426265 326.91894 
z
" clip-path="url(#p9abe3a536b)" style="fill: #1f77b4"/>
   </g>
   <g id="patch_175">
    <path d="M 585.974574 563.904 
L 588.013221 563.904 
L 588.013221 343.713157 
L 585.974574 343.713157 
z
" clip-path="url(#p9abe3a536b)" style="fill: #1f77b4"/>
   </g>
   <g id="patch_176">
    <path d="M 588.522883 563.904 
L 590.56153 563.904 
L 590.56153 325.052916 
L 588.522883 325.052916 
z
" clip-path="url(#p9abe3a536b)" style="fill: #1f77b4"/>
   </g>
   <g id="patch_177">
    <path d="M 591.071192 563.904 
L 593.109839 563.904 
L 593.109839 304.526651 
L 591.071192 304.526651 
z
" clip-path="url(#p9abe3a536b)" style="fill: #1f77b4"/>
   </g>
   <g id="patch_178">
    <path d="M 593.6195 563.904 
L 595.658148 563.904 
L 595.658148 321.320867 
L 593.6195 321.320867 
z
" clip-path="url(#p9abe3a536b)" style="fill: #1f77b4"/>
   </g>
   <g id="patch_179">
    <path d="M 596.167809 563.904 
L 598.206456 563.904 
L 598.206456 338.115084 
L 596.167809 338.115084 
z
" clip-path="url(#p9abe3a536b)" style="fill: #1f77b4"/>
   </g>
   <g id="patch_180">
    <path d="M 598.716118 563.904 
L 600.754765 563.904 
L 600.754765 323.186892 
L 598.716118 323.186892 
z
" clip-path="url(#p9abe3a536b)" style="fill: #1f77b4"/>
   </g>
   <g id="patch_181">
    <path d="M 601.264427 563.904 
L 603.303074 563.904 
L 603.303074 328.784964 
L 601.264427 328.784964 
z
" clip-path="url(#p9abe3a536b)" style="fill: #1f77b4"/>
   </g>
   <g id="patch_182">
    <path d="M 603.812736 563.904 
L 605.851383 563.904 
L 605.851383 311.990747 
L 603.812736 311.990747 
z
" clip-path="url(#p9abe3a536b)" style="fill: #1f77b4"/>
   </g>
   <g id="patch_183">
    <path d="M 606.361045 563.904 
L 608.399692 563.904 
L 608.399692 315.722795 
L 606.361045 315.722795 
z
" clip-path="url(#p9abe3a536b)" style="fill: #1f77b4"/>
   </g>
   <g id="patch_184">
    <path d="M 608.909354 563.904 
L 610.948001 563.904 
L 610.948001 332.517012 
L 608.909354 332.517012 
z
" clip-path="url(#p9abe3a536b)" style="fill: #1f77b4"/>
   </g>
   <g id="patch_185">
    <path d="M 611.457662 563.904 
L 613.496309 563.904 
L 613.496309 321.320867 
L 611.457662 321.320867 
z
" clip-path="url(#p9abe3a536b)" style="fill: #1f77b4"/>
   </g>
   <g id="patch_186">
    <path d="M 614.005971 563.904 
L 616.044618 563.904 
L 616.044618 328.784964 
L 614.005971 328.784964 
z
" clip-path="url(#p9abe3a536b)" style="fill: #1f77b4"/>
   </g>
   <g id="patch_187">
    <path d="M 616.55428 563.904 
L 618.592927 563.904 
L 618.592927 291.464482 
L 616.55428 291.464482 
z
" clip-path="url(#p9abe3a536b)" style="fill: #1f77b4"/>
   </g>
   <g id="patch_188">
    <path d="M 619.102589 563.904 
L 621.141236 563.904 
L 621.141236 373.569542 
L 619.102589 373.569542 
z
" clip-path="url(#p9abe3a536b)" style="fill: #1f77b4"/>
   </g>
   <g id="patch_189">
    <path d="M 621.650898 563.904 
L 623.689545 563.904 
L 623.689545 336.24906 
L 621.650898 336.24906 
z
" clip-path="url(#p9abe3a536b)" style="fill: #1f77b4"/>
   </g>
   <g id="patch_190">
    <path d="M 624.199207 563.904 
L 626.237854 563.904 
L 626.237854 362.373398 
L 624.199207 362.373398 
z
" clip-path="url(#p9abe3a536b)" style="fill: #1f77b4"/>
   </g>
   <g id="patch_191">
    <path d="M 626.747515 563.904 
L 628.786162 563.904 
L 628.786162 317.588819 
L 626.747515 317.588819 
z
" clip-path="url(#p9abe3a536b)" style="fill: #1f77b4"/>
   </g>
   <g id="patch_192">
    <path d="M 629.295824 563.904 
L 631.334471 563.904 
L 631.334471 289.598458 
L 629.295824 289.598458 
z
" clip-path="url(#p9abe3a536b)" style="fill: #1f77b4"/>
   </g>
   <g id="patch_193">
    <path d="M 631.844133 563.904 
L 633.88278 563.904 
L 633.88278 315.722795 
L 631.844133 315.722795 
z
" clip-path="url(#p9abe3a536b)" style="fill: #1f77b4"/>
   </g>
   <g id="patch_194">
    <path d="M 634.392442 563.904 
L 636.431089 563.904 
L 636.431089 313.856771 
L 634.392442 313.856771 
z
" clip-path="url(#p9abe3a536b)" style="fill: #1f77b4"/>
   </g>
   <g id="patch_195">
    <path d="M 636.940751 563.904 
L 638.979398 563.904 
L 638.979398 339.981108 
L 636.940751 339.981108 
z
" clip-path="url(#p9abe3a536b)" style="fill: #1f77b4"/>
   </g>
   <g id="patch_196">
    <path d="M 639.48906 563.904 
L 641.527707 563.904 
L 641.527707 302.660627 
L 639.48906 302.660627 
z
" clip-path="url(#p9abe3a536b)" style="fill: #1f77b4"/>
   </g>
   <g id="patch_197">
    <path d="M 642.037368 563.904 
L 644.076015 563.904 
L 644.076015 358.641349 
L 642.037368 358.641349 
z
" clip-path="url(#p9abe3a536b)" style="fill: #1f77b4"/>
   </g>
   <g id="patch_198">
    <path d="M 644.585677 563.904 
L 646.624324 563.904 
L 646.624324 325.052916 
L 644.585677 325.052916 
z
" clip-path="url(#p9abe3a536b)" style="fill: #1f77b4"/>
   </g>
   <g id="patch_199">
    <path d="M 647.133986 563.904 
L 649.172633 563.904 
L 649.172633 289.598458 
L 647.133986 289.598458 
z
" clip-path="url(#p9abe3a536b)" style="fill: #1f77b4"/>
   </g>
   <g id="patch_200">
    <path d="M 649.682295 563.904 
L 651.720942 563.904 
L 651.720942 336.24906 
L 649.682295 336.24906 
z
" clip-path="url(#p9abe3a536b)" style="fill: #1f77b4"/>
   </g>
   <g id="patch_201">
    <path d="M 652.230604 563.904 
L 654.269251 563.904 
L 654.269251 330.650988 
L 652.230604 330.650988 
z
" clip-path="url(#p9abe3a536b)" style="fill: #1f77b4"/>
   </g>
   <g id="patch_202">
    <path d="M 654.778913 563.904 
L 656.81756 563.904 
L 656.81756 317.588819 
L 654.778913 317.588819 
z
" clip-path="url(#p9abe3a536b)" style="fill: #1f77b4"/>
   </g>
   <g id="patch_203">
    <path d="M 657.327221 563.904 
L 659.365868 563.904 
L 659.365868 345.579181 
L 657.327221 345.579181 
z
" clip-path="url(#p9abe3a536b)" style="fill: #1f77b4"/>
   </g>
   <g id="patch_204">
    <path d="M 659.87553 563.904 
L 661.914177 563.904 
L 661.914177 338.115084 
L 659.87553 338.115084 
z
" clip-path="url(#p9abe3a536b)" style="fill: #1f77b4"/>
   </g>
   <g id="patch_205">
    <path d="M 662.423839 563.904 
L 664.462486 563.904 
L 664.462486 323.186892 
L 662.423839 323.186892 
z
" clip-path="url(#p9abe3a536b)" style="fill: #1f77b4"/>
   </g>
   <g id="patch_206">
    <path d="M 664.972148 563.904 
L 667.010795 563.904 
L 667.010795 280.268337 
L 664.972148 280.268337 
z
" clip-path="url(#p9abe3a536b)" style="fill: #1f77b4"/>
   </g>
   <g id="patch_207">
    <path d="M 667.520457 563.904 
L 669.559104 563.904 
L 669.559104 321.320867 
L 667.520457 321.320867 
z
" clip-path="url(#p9abe3a536b)" style="fill: #1f77b4"/>
   </g>
   <g id="patch_208">
    <path d="M 670.068766 563.904 
L 672.107413 563.904 
L 672.107413 315.722795 
L 670.068766 315.722795 
z
" clip-path="url(#p9abe3a536b)" style="fill: #1f77b4"/>
   </g>
   <g id="patch_209">
    <path d="M 672.617074 563.904 
L 674.655721 563.904 
L 674.655721 351.177253 
L 672.617074 351.177253 
z
" clip-path="url(#p9abe3a536b)" style="fill: #1f77b4"/>
   </g>
   <g id="patch_210">
    <path d="M 675.165383 563.904 
L 677.20403 563.904 
L 677.20403 325.052916 
L 675.165383 325.052916 
z
" clip-path="url(#p9abe3a536b)" style="fill: #1f77b4"/>
   </g>
   <g id="patch_211">
    <path d="M 677.713692 563.904 
L 679.752339 563.904 
L 679.752339 349.311229 
L 677.713692 349.311229 
z
" clip-path="url(#p9abe3a536b)" style="fill: #1f77b4"/>
   </g>
   <g id="patch_212">
    <path d="M 680.262001 563.904 
L 682.300648 563.904 
L 682.300648 339.981108 
L 680.262001 339.981108 
z
" clip-path="url(#p9abe3a536b)" style="fill: #1f77b4"/>
   </g>
   <g id="patch_213">
    <path d="M 682.81031 563.904 
L 684.848957 563.904 
L 684.848957 321.320867 
L 682.81031 321.320867 
z
" clip-path="url(#p9abe3a536b)" style="fill: #1f77b4"/>
   </g>
   <g id="patch_214">
    <path d="M 685.358619 563.904 
L 687.397266 563.904 
L 687.397266 347.445205 
L 685.358619 347.445205 
z
" clip-path="url(#p9abe3a536b)" style="fill: #1f77b4"/>
   </g>
   <g id="patch_215">
    <path d="M 687.906927 563.904 
L 689.945574 563.904 
L 689.945574 325.052916 
L 687.906927 325.052916 
z
" clip-path="url(#p9abe3a536b)" style="fill: #1f77b4"/>
   </g>
   <g id="patch_216">
    <path d="M 690.455236 563.904 
L 692.493883 563.904 
L 692.493883 326.91894 
L 690.455236 326.91894 
z
" clip-path="url(#p9abe3a536b)" style="fill: #1f77b4"/>
   </g>
   <g id="patch_217">
    <path d="M 693.003545 563.904 
L 695.042192 563.904 
L 695.042192 278.402313 
L 693.003545 278.402313 
z
" clip-path="url(#p9abe3a536b)" style="fill: #1f77b4"/>
   </g>
   <g id="patch_218">
    <path d="M 695.551854 563.904 
L 697.590501 563.904 
L 697.590501 311.990747 
L 695.551854 311.990747 
z
" clip-path="url(#p9abe3a536b)" style="fill: #1f77b4"/>
   </g>
   <g id="patch_219">
    <path d="M 698.100163 563.904 
L 700.13881 563.904 
L 700.13881 311.990747 
L 698.100163 311.990747 
z
" clip-path="url(#p9abe3a536b)" style="fill: #1f77b4"/>
   </g>
   <g id="patch_220">
    <path d="M 700.648472 563.904 
L 702.687119 563.904 
L 702.687119 313.856771 
L 700.648472 313.856771 
z
" clip-path="url(#p9abe3a536b)" style="fill: #1f77b4"/>
   </g>
   <g id="patch_221">
    <path d="M 703.19678 563.904 
L 705.235427 563.904 
L 705.235427 339.981108 
L 703.19678 339.981108 
z
" clip-path="url(#p9abe3a536b)" style="fill: #1f77b4"/>
   </g>
   <g id="patch_222">
    <path d="M 705.745089 563.904 
L 707.783736 563.904 
L 707.783736 347.445205 
L 705.745089 347.445205 
z
" clip-path="url(#p9abe3a536b)" style="fill: #1f77b4"/>
   </g>
   <g id="patch_223">
    <path d="M 708.293398 563.904 
L 710.332045 563.904 
L 710.332045 341.847133 
L 708.293398 341.847133 
z
" clip-path="url(#p9abe3a536b)" style="fill: #1f77b4"/>
   </g>
   <g id="patch_224">
    <path d="M 710.841707 563.904 
L 712.880354 563.904 
L 712.880354 317.588819 
L 710.841707 317.588819 
z
" clip-path="url(#p9abe3a536b)" style="fill: #1f77b4"/>
   </g>
   <g id="patch_225">
    <path d="M 713.390016 563.904 
L 715.428663 563.904 
L 715.428663 334.383036 
L 713.390016 334.383036 
z
" clip-path="url(#p9abe3a536b)" style="fill: #1f77b4"/>
   </g>
   <g id="patch_226">
    <path d="M 715.938325 563.904 
L 717.976972 563.904 
L 717.976972 293.330506 
L 715.938325 293.330506 
z
" clip-path="url(#p9abe3a536b)" style="fill: #1f77b4"/>
   </g>
   <g id="patch_227">
    <path d="M 718.486633 563.904 
L 720.52528 563.904 
L 720.52528 343.713157 
L 718.486633 343.713157 
z
" clip-path="url(#p9abe3a536b)" style="fill: #1f77b4"/>
   </g>
   <g id="patch_228">
    <path d="M 721.034942 563.904 
L 723.073589 563.904 
L 723.073589 328.784964 
L 721.034942 328.784964 
z
" clip-path="url(#p9abe3a536b)" style="fill: #1f77b4"/>
   </g>
   <g id="patch_229">
    <path d="M 723.583251 563.904 
L 725.621898 563.904 
L 725.621898 319.454843 
L 723.583251 319.454843 
z
" clip-path="url(#p9abe3a536b)" style="fill: #1f77b4"/>
   </g>
   <g id="patch_230">
    <path d="M 726.13156 563.904 
L 728.170207 563.904 
L 728.170207 347.445205 
L 726.13156 347.445205 
z
" clip-path="url(#p9abe3a536b)" style="fill: #1f77b4"/>
   </g>
   <g id="patch_231">
    <path d="M 728.679869 563.904 
L 730.718516 563.904 
L 730.718516 280.268337 
L 728.679869 280.268337 
z
" clip-path="url(#p9abe3a536b)" style="fill: #1f77b4"/>
   </g>
   <g id="patch_232">
    <path d="M 731.228178 563.904 
L 733.266825 563.904 
L 733.266825 306.392675 
L 731.228178 306.392675 
z
" clip-path="url(#p9abe3a536b)" style="fill: #1f77b4"/>
   </g>
   <g id="patch_233">
    <path d="M 733.776486 563.904 
L 735.815133 563.904 
L 735.815133 347.445205 
L 733.776486 347.445205 
z
" clip-path="url(#p9abe3a536b)" style="fill: #1f77b4"/>
   </g>
   <g id="patch_234">
    <path d="M 736.324795 563.904 
L 738.363442 563.904 
L 738.363442 326.91894 
L 736.324795 326.91894 
z
" clip-path="url(#p9abe3a536b)" style="fill: #1f77b4"/>
   </g>
   <g id="patch_235">
    <path d="M 738.873104 563.904 
L 740.911751 563.904 
L 740.911751 287.732434 
L 738.873104 287.732434 
z
" clip-path="url(#p9abe3a536b)" style="fill: #1f77b4"/>
   </g>
   <g id="patch_236">
    <path d="M 741.421413 563.904 
L 743.46006 563.904 
L 743.46006 345.579181 
L 741.421413 345.579181 
z
" clip-path="url(#p9abe3a536b)" style="fill: #1f77b4"/>
   </g>
   <g id="patch_237">
    <path d="M 743.969722 563.904 
L 746.008369 563.904 
L 746.008369 341.847133 
L 743.969722 341.847133 
z
" clip-path="url(#p9abe3a536b)" style="fill: #1f77b4"/>
   </g>
   <g id="patch_238">
    <path d="M 746.518031 563.904 
L 748.556678 563.904 
L 748.556678 334.383036 
L 746.518031 334.383036 
z
" clip-path="url(#p9abe3a536b)" style="fill: #1f77b4"/>
   </g>
   <g id="patch_239">
    <path d="M 749.066339 563.904 
L 751.104986 563.904 
L 751.104986 308.258699 
L 749.066339 308.258699 
z
" clip-path="url(#p9abe3a536b)" style="fill: #1f77b4"/>
   </g>
   <g id="patch_240">
    <path d="M 751.614648 563.904 
L 753.653295 563.904 
L 753.653295 300.794602 
L 751.614648 300.794602 
z
" clip-path="url(#p9abe3a536b)" style="fill: #1f77b4"/>
   </g>
   <g id="patch_241">
    <path d="M 754.162957 563.904 
L 756.201604 563.904 
L 756.201604 345.579181 
L 754.162957 345.579181 
z
" clip-path="url(#p9abe3a536b)" style="fill: #1f77b4"/>
   </g>
   <g id="patch_242">
    <path d="M 756.711266 563.904 
L 758.749913 563.904 
L 758.749913 336.24906 
L 756.711266 336.24906 
z
" clip-path="url(#p9abe3a536b)" style="fill: #1f77b4"/>
   </g>
   <g id="patch_243">
    <path d="M 759.259575 563.904 
L 761.298222 563.904 
L 761.298222 326.91894 
L 759.259575 326.91894 
z
" clip-path="url(#p9abe3a536b)" style="fill: #1f77b4"/>
   </g>
   <g id="patch_244">
    <path d="M 761.807884 563.904 
L 763.846531 563.904 
L 763.846531 304.526651 
L 761.807884 304.526651 
z
" clip-path="url(#p9abe3a536b)" style="fill: #1f77b4"/>
   </g>
   <g id="patch_245">
    <path d="M 764.356192 563.904 
L 766.394839 563.904 
L 766.394839 347.445205 
L 764.356192 347.445205 
z
" clip-path="url(#p9abe3a536b)" style="fill: #1f77b4"/>
   </g>
   <g id="patch_246">
    <path d="M 766.904501 563.904 
L 768.943148 563.904 
L 768.943148 306.392675 
L 766.904501 306.392675 
z
" clip-path="url(#p9abe3a536b)" style="fill: #1f77b4"/>
   </g>
   <g id="patch_247">
    <path d="M 769.45281 563.904 
L 771.491457 563.904 
L 771.491457 306.392675 
L 769.45281 306.392675 
z
" clip-path="url(#p9abe3a536b)" style="fill: #1f77b4"/>
   </g>
   <g id="patch_248">
    <path d="M 772.001119 563.904 
L 774.039766 563.904 
L 774.039766 334.383036 
L 772.001119 334.383036 
z
" clip-path="url(#p9abe3a536b)" style="fill: #1f77b4"/>
   </g>
   <g id="patch_249">
    <path d="M 774.549428 563.904 
L 776.588075 563.904 
L 776.588075 356.775325 
L 774.549428 356.775325 
z
" clip-path="url(#p9abe3a536b)" style="fill: #1f77b4"/>
   </g>
   <g id="patch_250">
    <path d="M 777.097737 563.904 
L 779.136384 563.904 
L 779.136384 317.588819 
L 777.097737 317.588819 
z
" clip-path="url(#p9abe3a536b)" style="fill: #1f77b4"/>
   </g>
   <g id="patch_251">
    <path d="M 779.646045 563.904 
L 781.684692 563.904 
L 781.684692 302.660627 
L 779.646045 302.660627 
z
" clip-path="url(#p9abe3a536b)" style="fill: #1f77b4"/>
   </g>
   <g id="patch_252">
    <path d="M 782.194354 563.904 
L 784.233001 563.904 
L 784.233001 280.268337 
L 782.194354 280.268337 
z
" clip-path="url(#p9abe3a536b)" style="fill: #1f77b4"/>
   </g>
   <g id="patch_253">
    <path d="M 784.742663 563.904 
L 786.78131 563.904 
L 786.78131 302.660627 
L 784.742663 302.660627 
z
" clip-path="url(#p9abe3a536b)" style="fill: #1f77b4"/>
   </g>
   <g id="patch_254">
    <path d="M 787.290972 563.904 
L 789.329619 563.904 
L 789.329619 291.464482 
L 787.290972 291.464482 
z
" clip-path="url(#p9abe3a536b)" style="fill: #1f77b4"/>
   </g>
   <g id="patch_255">
    <path d="M 789.839281 563.904 
L 791.877928 563.904 
L 791.877928 293.330506 
L 789.839281 293.330506 
z
" clip-path="url(#p9abe3a536b)" style="fill: #1f77b4"/>
   </g>
   <g id="patch_256">
    <path d="M 792.38759 563.904 
L 794.426237 563.904 
L 794.426237 272.804241 
L 792.38759 272.804241 
z
" clip-path="url(#p9abe3a536b)" style="fill: #1f77b4"/>
   </g>
   <g id="patch_257">
    <path d="M 794.935898 563.904 
L 796.974545 563.904 
L 796.974545 293.330506 
L 794.935898 293.330506 
z
" clip-path="url(#p9abe3a536b)" style="fill: #1f77b4"/>
   </g>
   <g id="matplotlib.axis_1">
    <g id="xtick_1">
     <g id="line2d_1">
      <defs>
       <path id="m392deeefec" d="M 0 0 
L 0 3.5 
" style="stroke: #000000; stroke-width: 1.6"/>
      </defs>
      <g>
       <use xlink:href="#m392deeefec" x="146.136469" y="563.904" style="stroke: #000000; stroke-width: 1.6"/>
      </g>
     </g>
     <g id="text_1">
      <!-- 0 -->
      <g transform="translate(141.046469 590.7615)scale(0.16 -0.16)">
       <defs>
        <path id="DejaVuSans-30" d="M 2034 4250 
Q 1547 4250 1301 3770 
Q 1056 3291 1056 2328 
Q 1056 1369 1301 889 
Q 1547 409 2034 409 
Q 2525 409 2770 889 
Q 3016 1369 3016 2328 
Q 3016 3291 2770 3770 
Q 2525 4250 2034 4250 
z
M 2034 4750 
Q 2819 4750 3233 4129 
Q 3647 3509 3647 2328 
Q 3647 1150 3233 529 
Q 2819 -91 2034 -91 
Q 1250 -91 836 529 
Q 422 1150 422 2328 
Q 422 3509 836 4129 
Q 1250 4750 2034 4750 
z
" transform="scale(0.015625)"/>
       </defs>
       <use xlink:href="#DejaVuSans-30"/>
      </g>
     </g>
    </g>
    <g id="xtick_2">
     <g id="line2d_2">
      <g>
       <use xlink:href="#m392deeefec" x="273.551911" y="563.904" style="stroke: #000000; stroke-width: 1.6"/>
      </g>
     </g>
     <g id="text_2">
      <!-- 50 -->
      <g transform="translate(263.371911 590.7615)scale(0.16 -0.16)">
       <defs>
        <path id="DejaVuSans-35" d="M 691 4666 
L 3169 4666 
L 3169 4134 
L 1269 4134 
L 1269 2991 
Q 1406 3038 1543 3061 
Q 1681 3084 1819 3084 
Q 2600 3084 3056 2656 
Q 3513 2228 3513 1497 
Q 3513 744 3044 326 
Q 2575 -91 1722 -91 
Q 1428 -91 1123 -41 
Q 819 9 494 109 
L 494 744 
Q 775 591 1075 516 
Q 1375 441 1709 441 
Q 2250 441 2565 725 
Q 2881 1009 2881 1497 
Q 2881 1984 2565 2268 
Q 2250 2553 1709 2553 
Q 1456 2553 1204 2497 
Q 953 2441 691 2322 
L 691 4666 
z
" transform="scale(0.015625)"/>
       </defs>
       <use xlink:href="#DejaVuSans-35"/>
       <use xlink:href="#DejaVuSans-30" x="63.623047"/>
      </g>
     </g>
    </g>
    <g id="xtick_3">
     <g id="line2d_3">
      <g>
       <use xlink:href="#m392deeefec" x="400.967353" y="563.904" style="stroke: #000000; stroke-width: 1.6"/>
      </g>
     </g>
     <g id="text_3">
      <!-- 100 -->
      <g transform="translate(385.697353 590.7615)scale(0.16 -0.16)">
       <defs>
        <path id="DejaVuSans-31" d="M 794 531 
L 1825 531 
L 1825 4091 
L 703 3866 
L 703 4441 
L 1819 4666 
L 2450 4666 
L 2450 531 
L 3481 531 
L 3481 0 
L 794 0 
L 794 531 
z
" transform="scale(0.015625)"/>
       </defs>
       <use xlink:href="#DejaVuSans-31"/>
       <use xlink:href="#DejaVuSans-30" x="63.623047"/>
       <use xlink:href="#DejaVuSans-30" x="127.246094"/>
      </g>
     </g>
    </g>
    <g id="xtick_4">
     <g id="line2d_4">
      <g>
       <use xlink:href="#m392deeefec" x="528.382794" y="563.904" style="stroke: #000000; stroke-width: 1.6"/>
      </g>
     </g>
     <g id="text_4">
      <!-- 150 -->
      <g transform="translate(513.112794 590.7615)scale(0.16 -0.16)">
       <use xlink:href="#DejaVuSans-31"/>
       <use xlink:href="#DejaVuSans-35" x="63.623047"/>
       <use xlink:href="#DejaVuSans-30" x="127.246094"/>
      </g>
     </g>
    </g>
    <g id="xtick_5">
     <g id="line2d_5">
      <g>
       <use xlink:href="#m392deeefec" x="655.798236" y="563.904" style="stroke: #000000; stroke-width: 1.6"/>
      </g>
     </g>
     <g id="text_5">
      <!-- 200 -->
      <g transform="translate(640.528236 590.7615)scale(0.16 -0.16)">
       <defs>
        <path id="DejaVuSans-32" d="M 1228 531 
L 3431 531 
L 3431 0 
L 469 0 
L 469 531 
Q 828 903 1448 1529 
Q 2069 2156 2228 2338 
Q 2531 2678 2651 2914 
Q 2772 3150 2772 3378 
Q 2772 3750 2511 3984 
Q 2250 4219 1831 4219 
Q 1534 4219 1204 4116 
Q 875 4013 500 3803 
L 500 4441 
Q 881 4594 1212 4672 
Q 1544 4750 1819 4750 
Q 2544 4750 2975 4387 
Q 3406 4025 3406 3419 
Q 3406 3131 3298 2873 
Q 3191 2616 2906 2266 
Q 2828 2175 2409 1742 
Q 1991 1309 1228 531 
z
" transform="scale(0.015625)"/>
       </defs>
       <use xlink:href="#DejaVuSans-32"/>
       <use xlink:href="#DejaVuSans-30" x="63.623047"/>
       <use xlink:href="#DejaVuSans-30" x="127.246094"/>
      </g>
     </g>
    </g>
    <g id="xtick_6">
     <g id="line2d_6">
      <g>
       <use xlink:href="#m392deeefec" x="783.213678" y="563.904" style="stroke: #000000; stroke-width: 1.6"/>
      </g>
     </g>
     <g id="text_6">
      <!-- 250 -->
      <g transform="translate(767.943678 590.7615)scale(0.16 -0.16)">
       <use xlink:href="#DejaVuSans-32"/>
       <use xlink:href="#DejaVuSans-35" x="63.623047"/>
       <use xlink:href="#DejaVuSans-30" x="127.246094"/>
      </g>
     </g>
    </g>
    <g id="text_7">
     <!-- Size -->
     <g transform="translate(454.25525 611.46225)scale(0.176 -0.176)">
      <defs>
       <path id="DejaVuSans-53" d="M 3425 4513 
L 3425 3897 
Q 3066 4069 2747 4153 
Q 2428 4238 2131 4238 
Q 1616 4238 1336 4038 
Q 1056 3838 1056 3469 
Q 1056 3159 1242 3001 
Q 1428 2844 1947 2747 
L 2328 2669 
Q 3034 2534 3370 2195 
Q 3706 1856 3706 1288 
Q 3706 609 3251 259 
Q 2797 -91 1919 -91 
Q 1588 -91 1214 -16 
Q 841 59 441 206 
L 441 856 
Q 825 641 1194 531 
Q 1563 422 1919 422 
Q 2459 422 2753 634 
Q 3047 847 3047 1241 
Q 3047 1584 2836 1778 
Q 2625 1972 2144 2069 
L 1759 2144 
Q 1053 2284 737 2584 
Q 422 2884 422 3419 
Q 422 4038 858 4394 
Q 1294 4750 2059 4750 
Q 2388 4750 2728 4690 
Q 3069 4631 3425 4513 
z
" transform="scale(0.015625)"/>
       <path id="DejaVuSans-69" d="M 603 3500 
L 1178 3500 
L 1178 0 
L 603 0 
L 603 3500 
z
M 603 4863 
L 1178 4863 
L 1178 4134 
L 603 4134 
L 603 4863 
z
" transform="scale(0.015625)"/>
       <path id="DejaVuSans-7a" d="M 353 3500 
L 3084 3500 
L 3084 2975 
L 922 459 
L 3084 459 
L 3084 0 
L 275 0 
L 275 525 
L 2438 3041 
L 353 3041 
L 353 3500 
z
" transform="scale(0.015625)"/>
       <path id="DejaVuSans-65" d="M 3597 1894 
L 3597 1613 
L 953 1613 
Q 991 1019 1311 708 
Q 1631 397 2203 397 
Q 2534 397 2845 478 
Q 3156 559 3463 722 
L 3463 178 
Q 3153 47 2828 -22 
Q 2503 -91 2169 -91 
Q 1331 -91 842 396 
Q 353 884 353 1716 
Q 353 2575 817 3079 
Q 1281 3584 2069 3584 
Q 2775 3584 3186 3129 
Q 3597 2675 3597 1894 
z
M 3022 2063 
Q 3016 2534 2758 2815 
Q 2500 3097 2075 3097 
Q 1594 3097 1305 2825 
Q 1016 2553 972 2059 
L 3022 2063 
z
" transform="scale(0.015625)"/>
      </defs>
      <use xlink:href="#DejaVuSans-53"/>
      <use xlink:href="#DejaVuSans-69" x="63.476562"/>
      <use xlink:href="#DejaVuSans-7a" x="91.259766"/>
      <use xlink:href="#DejaVuSans-65" x="143.75"/>
     </g>
    </g>
   </g>
   <g id="matplotlib.axis_2">
    <g id="ytick_1">
     <g id="line2d_7">
      <defs>
       <path id="mf8c5dd540e" d="M 0 0 
L -3.5 0 
" style="stroke: #000000; stroke-width: 1.6"/>
      </defs>
      <g>
       <use xlink:href="#mf8c5dd540e" x="115.2" y="563.904" style="stroke: #000000; stroke-width: 1.6"/>
      </g>
     </g>
     <g id="text_8">
      <!-- 0 -->
      <g transform="translate(90.32 569.98275)scale(0.16 -0.16)">
       <use xlink:href="#DejaVuSans-30"/>
      </g>
     </g>
    </g>
    <g id="ytick_2">
     <g id="line2d_8">
      <g>
       <use xlink:href="#mf8c5dd540e" x="115.2" y="470.602795" style="stroke: #000000; stroke-width: 1.6"/>
      </g>
     </g>
     <g id="text_9">
      <!-- 50 -->
      <g transform="translate(80.14 476.681545)scale(0.16 -0.16)">
       <use xlink:href="#DejaVuSans-35"/>
       <use xlink:href="#DejaVuSans-30" x="63.623047"/>
      </g>
     </g>
    </g>
    <g id="ytick_3">
     <g id="line2d_9">
      <g>
       <use xlink:href="#mf8c5dd540e" x="115.2" y="377.30159" style="stroke: #000000; stroke-width: 1.6"/>
      </g>
     </g>
     <g id="text_10">
      <!-- 100 -->
      <g transform="translate(69.96 383.38034)scale(0.16 -0.16)">
       <use xlink:href="#DejaVuSans-31"/>
       <use xlink:href="#DejaVuSans-30" x="63.623047"/>
       <use xlink:href="#DejaVuSans-30" x="127.246094"/>
      </g>
     </g>
    </g>
    <g id="ytick_4">
     <g id="line2d_10">
      <g>
       <use xlink:href="#mf8c5dd540e" x="115.2" y="284.000386" style="stroke: #000000; stroke-width: 1.6"/>
      </g>
     </g>
     <g id="text_11">
      <!-- 150 -->
      <g transform="translate(69.96 290.079136)scale(0.16 -0.16)">
       <use xlink:href="#DejaVuSans-31"/>
       <use xlink:href="#DejaVuSans-35" x="63.623047"/>
       <use xlink:href="#DejaVuSans-30" x="127.246094"/>
      </g>
     </g>
    </g>
    <g id="ytick_5">
     <g id="line2d_11">
      <g>
       <use xlink:href="#mf8c5dd540e" x="115.2" y="190.699181" style="stroke: #000000; stroke-width: 1.6"/>
      </g>
     </g>
     <g id="text_12">
      <!-- 200 -->
      <g transform="translate(69.96 196.777931)scale(0.16 -0.16)">
       <use xlink:href="#DejaVuSans-32"/>
       <use xlink:href="#DejaVuSans-30" x="63.623047"/>
       <use xlink:href="#DejaVuSans-30" x="127.246094"/>
      </g>
     </g>
    </g>
    <g id="ytick_6">
     <g id="line2d_12">
      <g>
       <use xlink:href="#mf8c5dd540e" x="115.2" y="97.397976" style="stroke: #000000; stroke-width: 1.6"/>
      </g>
     </g>
     <g id="text_13">
      <!-- 250 -->
      <g transform="translate(69.96 103.476726)scale(0.16 -0.16)">
       <use xlink:href="#DejaVuSans-32"/>
       <use xlink:href="#DejaVuSans-35" x="63.623047"/>
       <use xlink:href="#DejaVuSans-30" x="127.246094"/>
      </g>
     </g>
    </g>
    <g id="text_14">
     <!-- Size counts -->
     <g transform="translate(62.29975 370.24075)rotate(-90)scale(0.176 -0.176)">
      <defs>
       <path id="DejaVuSans-20" transform="scale(0.015625)"/>
       <path id="DejaVuSans-63" d="M 3122 3366 
L 3122 2828 
Q 2878 2963 2633 3030 
Q 2388 3097 2138 3097 
Q 1578 3097 1268 2742 
Q 959 2388 959 1747 
Q 959 1106 1268 751 
Q 1578 397 2138 397 
Q 2388 397 2633 464 
Q 2878 531 3122 666 
L 3122 134 
Q 2881 22 2623 -34 
Q 2366 -91 2075 -91 
Q 1284 -91 818 406 
Q 353 903 353 1747 
Q 353 2603 823 3093 
Q 1294 3584 2113 3584 
Q 2378 3584 2631 3529 
Q 2884 3475 3122 3366 
z
" transform="scale(0.015625)"/>
       <path id="DejaVuSans-6f" d="M 1959 3097 
Q 1497 3097 1228 2736 
Q 959 2375 959 1747 
Q 959 1119 1226 758 
Q 1494 397 1959 397 
Q 2419 397 2687 759 
Q 2956 1122 2956 1747 
Q 2956 2369 2687 2733 
Q 2419 3097 1959 3097 
z
M 1959 3584 
Q 2709 3584 3137 3096 
Q 3566 2609 3566 1747 
Q 3566 888 3137 398 
Q 2709 -91 1959 -91 
Q 1206 -91 779 398 
Q 353 888 353 1747 
Q 353 2609 779 3096 
Q 1206 3584 1959 3584 
z
" transform="scale(0.015625)"/>
       <path id="DejaVuSans-75" d="M 544 1381 
L 544 3500 
L 1119 3500 
L 1119 1403 
Q 1119 906 1312 657 
Q 1506 409 1894 409 
Q 2359 409 2629 706 
Q 2900 1003 2900 1516 
L 2900 3500 
L 3475 3500 
L 3475 0 
L 2900 0 
L 2900 538 
Q 2691 219 2414 64 
Q 2138 -91 1772 -91 
Q 1169 -91 856 284 
Q 544 659 544 1381 
z
M 1991 3584 
L 1991 3584 
z
" transform="scale(0.015625)"/>
       <path id="DejaVuSans-6e" d="M 3513 2113 
L 3513 0 
L 2938 0 
L 2938 2094 
Q 2938 2591 2744 2837 
Q 2550 3084 2163 3084 
Q 1697 3084 1428 2787 
Q 1159 2491 1159 1978 
L 1159 0 
L 581 0 
L 581 3500 
L 1159 3500 
L 1159 2956 
Q 1366 3272 1645 3428 
Q 1925 3584 2291 3584 
Q 2894 3584 3203 3211 
Q 3513 2838 3513 2113 
z
" transform="scale(0.015625)"/>
       <path id="DejaVuSans-74" d="M 1172 4494 
L 1172 3500 
L 2356 3500 
L 2356 3053 
L 1172 3053 
L 1172 1153 
Q 1172 725 1289 603 
Q 1406 481 1766 481 
L 2356 481 
L 2356 0 
L 1766 0 
Q 1100 0 847 248 
Q 594 497 594 1153 
L 594 3053 
L 172 3053 
L 172 3500 
L 594 3500 
L 594 4494 
L 1172 4494 
z
" transform="scale(0.015625)"/>
       <path id="DejaVuSans-73" d="M 2834 3397 
L 2834 2853 
Q 2591 2978 2328 3040 
Q 2066 3103 1784 3103 
Q 1356 3103 1142 2972 
Q 928 2841 928 2578 
Q 928 2378 1081 2264 
Q 1234 2150 1697 2047 
L 1894 2003 
Q 2506 1872 2764 1633 
Q 3022 1394 3022 966 
Q 3022 478 2636 193 
Q 2250 -91 1575 -91 
Q 1294 -91 989 -36 
Q 684 19 347 128 
L 347 722 
Q 666 556 975 473 
Q 1284 391 1588 391 
Q 1994 391 2212 530 
Q 2431 669 2431 922 
Q 2431 1156 2273 1281 
Q 2116 1406 1581 1522 
L 1381 1569 
Q 847 1681 609 1914 
Q 372 2147 372 2553 
Q 372 3047 722 3315 
Q 1072 3584 1716 3584 
Q 2034 3584 2315 3537 
Q 2597 3491 2834 3397 
z
" transform="scale(0.015625)"/>
      </defs>
      <use xlink:href="#DejaVuSans-53"/>
      <use xlink:href="#DejaVuSans-69" x="63.476562"/>
      <use xlink:href="#DejaVuSans-7a" x="91.259766"/>
      <use xlink:href="#DejaVuSans-65" x="143.75"/>
      <use xlink:href="#DejaVuSans-20" x="205.273438"/>
      <use xlink:href="#DejaVuSans-63" x="237.060547"/>
      <use xlink:href="#DejaVuSans-6f" x="292.041016"/>
      <use xlink:href="#DejaVuSans-75" x="353.222656"/>
      <use xlink:href="#DejaVuSans-6e" x="416.601562"/>
      <use xlink:href="#DejaVuSans-74" x="479.980469"/>
      <use xlink:href="#DejaVuSans-73" x="519.189453"/>
     </g>
    </g>
   </g>
   <g id="patch_258">
    <path d="M 115.2 563.904 
L 115.2 76.032 
" style="fill: none; stroke: #000000; stroke-width: 0.8; stroke-linejoin: miter; stroke-linecap: square"/>
   </g>
   <g id="patch_259">
    <path d="M 829.44 563.904 
L 829.44 76.032 
" style="fill: none; stroke: #000000; stroke-width: 0.8; stroke-linejoin: miter; stroke-linecap: square"/>
   </g>
   <g id="patch_260">
    <path d="M 115.2 563.904 
L 829.44 563.904 
" style="fill: none; stroke: #000000; stroke-width: 0.8; stroke-linejoin: miter; stroke-linecap: square"/>
   </g>
   <g id="patch_261">
    <path d="M 115.2 76.032 
L 829.44 76.032 
" style="fill: none; stroke: #000000; stroke-width: 0.8; stroke-linejoin: miter; stroke-linecap: square"/>
   </g>
   <g id="text_15">
    <!-- Number of instances of each size (nicolau_b) -->
    <g transform="translate(256.584 70.032)scale(0.192 -0.192)">
     <defs>
      <path id="DejaVuSans-4e" d="M 628 4666 
L 1478 4666 
L 3547 763 
L 3547 4666 
L 4159 4666 
L 4159 0 
L 3309 0 
L 1241 3903 
L 1241 0 
L 628 0 
L 628 4666 
z
" transform="scale(0.015625)"/>
      <path id="DejaVuSans-6d" d="M 3328 2828 
Q 3544 3216 3844 3400 
Q 4144 3584 4550 3584 
Q 5097 3584 5394 3201 
Q 5691 2819 5691 2113 
L 5691 0 
L 5113 0 
L 5113 2094 
Q 5113 2597 4934 2840 
Q 4756 3084 4391 3084 
Q 3944 3084 3684 2787 
Q 3425 2491 3425 1978 
L 3425 0 
L 2847 0 
L 2847 2094 
Q 2847 2600 2669 2842 
Q 2491 3084 2119 3084 
Q 1678 3084 1418 2786 
Q 1159 2488 1159 1978 
L 1159 0 
L 581 0 
L 581 3500 
L 1159 3500 
L 1159 2956 
Q 1356 3278 1631 3431 
Q 1906 3584 2284 3584 
Q 2666 3584 2933 3390 
Q 3200 3197 3328 2828 
z
" transform="scale(0.015625)"/>
      <path id="DejaVuSans-62" d="M 3116 1747 
Q 3116 2381 2855 2742 
Q 2594 3103 2138 3103 
Q 1681 3103 1420 2742 
Q 1159 2381 1159 1747 
Q 1159 1113 1420 752 
Q 1681 391 2138 391 
Q 2594 391 2855 752 
Q 3116 1113 3116 1747 
z
M 1159 2969 
Q 1341 3281 1617 3432 
Q 1894 3584 2278 3584 
Q 2916 3584 3314 3078 
Q 3713 2572 3713 1747 
Q 3713 922 3314 415 
Q 2916 -91 2278 -91 
Q 1894 -91 1617 61 
Q 1341 213 1159 525 
L 1159 0 
L 581 0 
L 581 4863 
L 1159 4863 
L 1159 2969 
z
" transform="scale(0.015625)"/>
      <path id="DejaVuSans-72" d="M 2631 2963 
Q 2534 3019 2420 3045 
Q 2306 3072 2169 3072 
Q 1681 3072 1420 2755 
Q 1159 2438 1159 1844 
L 1159 0 
L 581 0 
L 581 3500 
L 1159 3500 
L 1159 2956 
Q 1341 3275 1631 3429 
Q 1922 3584 2338 3584 
Q 2397 3584 2469 3576 
Q 2541 3569 2628 3553 
L 2631 2963 
z
" transform="scale(0.015625)"/>
      <path id="DejaVuSans-66" d="M 2375 4863 
L 2375 4384 
L 1825 4384 
Q 1516 4384 1395 4259 
Q 1275 4134 1275 3809 
L 1275 3500 
L 2222 3500 
L 2222 3053 
L 1275 3053 
L 1275 0 
L 697 0 
L 697 3053 
L 147 3053 
L 147 3500 
L 697 3500 
L 697 3744 
Q 697 4328 969 4595 
Q 1241 4863 1831 4863 
L 2375 4863 
z
" transform="scale(0.015625)"/>
      <path id="DejaVuSans-61" d="M 2194 1759 
Q 1497 1759 1228 1600 
Q 959 1441 959 1056 
Q 959 750 1161 570 
Q 1363 391 1709 391 
Q 2188 391 2477 730 
Q 2766 1069 2766 1631 
L 2766 1759 
L 2194 1759 
z
M 3341 1997 
L 3341 0 
L 2766 0 
L 2766 531 
Q 2569 213 2275 61 
Q 1981 -91 1556 -91 
Q 1019 -91 701 211 
Q 384 513 384 1019 
Q 384 1609 779 1909 
Q 1175 2209 1959 2209 
L 2766 2209 
L 2766 2266 
Q 2766 2663 2505 2880 
Q 2244 3097 1772 3097 
Q 1472 3097 1187 3025 
Q 903 2953 641 2809 
L 641 3341 
Q 956 3463 1253 3523 
Q 1550 3584 1831 3584 
Q 2591 3584 2966 3190 
Q 3341 2797 3341 1997 
z
" transform="scale(0.015625)"/>
      <path id="DejaVuSans-68" d="M 3513 2113 
L 3513 0 
L 2938 0 
L 2938 2094 
Q 2938 2591 2744 2837 
Q 2550 3084 2163 3084 
Q 1697 3084 1428 2787 
Q 1159 2491 1159 1978 
L 1159 0 
L 581 0 
L 581 4863 
L 1159 4863 
L 1159 2956 
Q 1366 3272 1645 3428 
Q 1925 3584 2291 3584 
Q 2894 3584 3203 3211 
Q 3513 2838 3513 2113 
z
" transform="scale(0.015625)"/>
      <path id="DejaVuSans-28" d="M 1984 4856 
Q 1566 4138 1362 3434 
Q 1159 2731 1159 2009 
Q 1159 1288 1364 580 
Q 1569 -128 1984 -844 
L 1484 -844 
Q 1016 -109 783 600 
Q 550 1309 550 2009 
Q 550 2706 781 3412 
Q 1013 4119 1484 4856 
L 1984 4856 
z
" transform="scale(0.015625)"/>
      <path id="DejaVuSans-6c" d="M 603 4863 
L 1178 4863 
L 1178 0 
L 603 0 
L 603 4863 
z
" transform="scale(0.015625)"/>
      <path id="DejaVuSans-5f" d="M 3263 -1063 
L 3263 -1509 
L -63 -1509 
L -63 -1063 
L 3263 -1063 
z
" transform="scale(0.015625)"/>
      <path id="DejaVuSans-29" d="M 513 4856 
L 1013 4856 
Q 1481 4119 1714 3412 
Q 1947 2706 1947 2009 
Q 1947 1309 1714 600 
Q 1481 -109 1013 -844 
L 513 -844 
Q 928 -128 1133 580 
Q 1338 1288 1338 2009 
Q 1338 2731 1133 3434 
Q 928 4138 513 4856 
z
" transform="scale(0.015625)"/>
     </defs>
     <use xlink:href="#DejaVuSans-4e"/>
     <use xlink:href="#DejaVuSans-75" x="74.804688"/>
     <use xlink:href="#DejaVuSans-6d" x="138.183594"/>
     <use xlink:href="#DejaVuSans-62" x="235.595703"/>
     <use xlink:href="#DejaVuSans-65" x="299.072266"/>
     <use xlink:href="#DejaVuSans-72" x="360.595703"/>
     <use xlink:href="#DejaVuSans-20" x="401.708984"/>
     <use xlink:href="#DejaVuSans-6f" x="433.496094"/>
     <use xlink:href="#DejaVuSans-66" x="494.677734"/>
     <use xlink:href="#DejaVuSans-20" x="529.882812"/>
     <use xlink:href="#DejaVuSans-69" x="561.669922"/>
     <use xlink:href="#DejaVuSans-6e" x="589.453125"/>
     <use xlink:href="#DejaVuSans-73" x="652.832031"/>
     <use xlink:href="#DejaVuSans-74" x="704.931641"/>
     <use xlink:href="#DejaVuSans-61" x="744.140625"/>
     <use xlink:href="#DejaVuSans-6e" x="805.419922"/>
     <use xlink:href="#DejaVuSans-63" x="868.798828"/>
     <use xlink:href="#DejaVuSans-65" x="923.779297"/>
     <use xlink:href="#DejaVuSans-73" x="985.302734"/>
     <use xlink:href="#DejaVuSans-20" x="1037.402344"/>
     <use xlink:href="#DejaVuSans-6f" x="1069.189453"/>
     <use xlink:href="#DejaVuSans-66" x="1130.371094"/>
     <use xlink:href="#DejaVuSans-20" x="1165.576172"/>
     <use xlink:href="#DejaVuSans-65" x="1197.363281"/>
     <use xlink:href="#DejaVuSans-61" x="1258.886719"/>
     <use xlink:href="#DejaVuSans-63" x="1320.166016"/>
     <use xlink:href="#DejaVuSans-68" x="1375.146484"/>
     <use xlink:href="#DejaVuSans-20" x="1438.525391"/>
     <use xlink:href="#DejaVuSans-73" x="1470.3125"/>
     <use xlink:href="#DejaVuSans-69" x="1522.412109"/>
     <use xlink:href="#DejaVuSans-7a" x="1550.195312"/>
     <use xlink:href="#DejaVuSans-65" x="1602.685547"/>
     <use xlink:href="#DejaVuSans-20" x="1664.208984"/>
     <use xlink:href="#DejaVuSans-28" x="1695.996094"/>
     <use xlink:href="#DejaVuSans-6e" x="1735.009766"/>
     <use xlink:href="#DejaVuSans-69" x="1798.388672"/>
     <use xlink:href="#DejaVuSans-63" x="1826.171875"/>
     <use xlink:href="#DejaVuSans-6f" x="1881.152344"/>
     <use xlink:href="#DejaVuSans-6c" x="1942.333984"/>
     <use xlink:href="#DejaVuSans-61" x="1970.117188"/>
     <use xlink:href="#DejaVuSans-75" x="2031.396484"/>
     <use xlink:href="#DejaVuSans-5f" x="2094.775391"/>
     <use xlink:href="#DejaVuSans-62" x="2144.775391"/>
     <use xlink:href="#DejaVuSans-29" x="2208.251953"/>
    </g>
   </g>
  </g>
 </g>
 <defs>
  <clipPath id="p9abe3a536b">
   <rect x="115.2" y="76.032" width="714.24" height="487.872"/>
  </clipPath>
 </defs>
</svg>
