<?xml version="1.0" encoding="utf-8" standalone="no"?>
<!DOCTYPE svg PUBLIC "-//W3C//DTD SVG 1.1//EN"
  "http://www.w3.org/Graphics/SVG/1.1/DTD/svg11.dtd">
<svg xmlns:xlink="http://www.w3.org/1999/xlink" width="460.8pt" height="345.6pt" viewBox="0 0 460.8 345.6" xmlns="http://www.w3.org/2000/svg" version="1.1">
 <metadata>
  <rdf:RDF xmlns:dc="http://purl.org/dc/elements/1.1/" xmlns:cc="http://creativecommons.org/ns#" xmlns:rdf="http://www.w3.org/1999/02/22-rdf-syntax-ns#">
   <cc:Work>
    <dc:type rdf:resource="http://purl.org/dc/dcmitype/StillImage"/>
    <dc:date>2022-10-27T11:04:50.318596</dc:date>
    <dc:format>image/svg+xml</dc:format>
    <dc:creator>
     <cc:Agent>
      <dc:title>Matplotlib v3.5.3, https://matplotlib.org/</dc:title>
     </cc:Agent>
    </dc:creator>
   </cc:Work>
  </rdf:RDF>
 </metadata>
 <defs>
  <style type="text/css">*{stroke-linejoin: round; stroke-linecap: butt}</style>
 </defs>
 <g id="figure_1">
  <g id="patch_1">
   <path d="M 0 345.6 
L 460.8 345.6 
L 460.8 0 
L 0 0 
z
" style="fill: #ffffff"/>
  </g>
  <g id="axes_1">
   <g id="patch_2">
    <path d="M 57.6 307.584 
L 414.72 307.584 
L 414.72 41.472 
L 57.6 41.472 
z
" style="fill: #ffffff"/>
   </g>
   <g id="patch_3">
    <path d="M 73.832727 307.584 
L 74.852051 307.584 
L 74.852051 262.859294 
L 73.832727 262.859294 
z
" clip-path="url(#p3481c47b95)" style="fill: #1f77b4"/>
   </g>
   <g id="patch_4">
    <path d="M 75.106882 307.584 
L 76.126205 307.584 
L 76.126205 262.859294 
L 75.106882 262.859294 
z
" clip-path="url(#p3481c47b95)" style="fill: #1f77b4"/>
   </g>
   <g id="patch_5">
    <path d="M 76.381036 307.584 
L 77.40036 307.584 
L 77.40036 91.414588 
L 76.381036 91.414588 
z
" clip-path="url(#p3481c47b95)" style="fill: #1f77b4"/>
   </g>
   <g id="patch_6">
    <path d="M 77.655191 307.584 
L 78.674514 307.584 
L 78.674514 240.496941 
L 77.655191 240.496941 
z
" clip-path="url(#p3481c47b95)" style="fill: #1f77b4"/>
   </g>
   <g id="patch_7">
    <path d="M 78.929345 307.584 
L 79.948668 307.584 
L 79.948668 151.047529 
L 78.929345 151.047529 
z
" clip-path="url(#p3481c47b95)" style="fill: #1f77b4"/>
   </g>
   <g id="patch_8">
    <path d="M 80.203499 307.584 
L 81.222823 307.584 
L 81.222823 195.772235 
L 80.203499 195.772235 
z
" clip-path="url(#p3481c47b95)" style="fill: #1f77b4"/>
   </g>
   <g id="patch_9">
    <path d="M 81.477654 307.584 
L 82.496977 307.584 
L 82.496977 195.772235 
L 81.477654 195.772235 
z
" clip-path="url(#p3481c47b95)" style="fill: #1f77b4"/>
   </g>
   <g id="patch_10">
    <path d="M 82.751808 307.584 
L 83.771132 307.584 
L 83.771132 106.322824 
L 82.751808 106.322824 
z
" clip-path="url(#p3481c47b95)" style="fill: #1f77b4"/>
   </g>
   <g id="patch_11">
    <path d="M 84.025963 307.584 
L 85.045286 307.584 
L 85.045286 247.951059 
L 84.025963 247.951059 
z
" clip-path="url(#p3481c47b95)" style="fill: #1f77b4"/>
   </g>
   <g id="patch_12">
    <path d="M 85.300117 307.584 
L 86.319441 307.584 
L 86.319441 188.318118 
L 85.300117 188.318118 
z
" clip-path="url(#p3481c47b95)" style="fill: #1f77b4"/>
   </g>
   <g id="patch_13">
    <path d="M 86.574271 307.584 
L 87.593595 307.584 
L 87.593595 158.501647 
L 86.574271 158.501647 
z
" clip-path="url(#p3481c47b95)" style="fill: #1f77b4"/>
   </g>
   <g id="patch_14">
    <path d="M 87.848426 307.584 
L 88.867749 307.584 
L 88.867749 195.772235 
L 87.848426 195.772235 
z
" clip-path="url(#p3481c47b95)" style="fill: #1f77b4"/>
   </g>
   <g id="patch_15">
    <path d="M 89.12258 307.584 
L 90.141904 307.584 
L 90.141904 188.318118 
L 89.12258 188.318118 
z
" clip-path="url(#p3481c47b95)" style="fill: #1f77b4"/>
   </g>
   <g id="patch_16">
    <path d="M 90.396735 307.584 
L 91.416058 307.584 
L 91.416058 173.409882 
L 90.396735 173.409882 
z
" clip-path="url(#p3481c47b95)" style="fill: #1f77b4"/>
   </g>
   <g id="patch_17">
    <path d="M 91.670889 307.584 
L 92.690213 307.584 
L 92.690213 210.680471 
L 91.670889 210.680471 
z
" clip-path="url(#p3481c47b95)" style="fill: #1f77b4"/>
   </g>
   <g id="patch_18">
    <path d="M 92.945044 307.584 
L 93.964367 307.584 
L 93.964367 143.593412 
L 92.945044 143.593412 
z
" clip-path="url(#p3481c47b95)" style="fill: #1f77b4"/>
   </g>
   <g id="patch_19">
    <path d="M 94.219198 307.584 
L 95.238521 307.584 
L 95.238521 233.042824 
L 94.219198 233.042824 
z
" clip-path="url(#p3481c47b95)" style="fill: #1f77b4"/>
   </g>
   <g id="patch_20">
    <path d="M 95.493352 307.584 
L 96.512676 307.584 
L 96.512676 165.955765 
L 95.493352 165.955765 
z
" clip-path="url(#p3481c47b95)" style="fill: #1f77b4"/>
   </g>
   <g id="patch_21">
    <path d="M 96.767507 307.584 
L 97.78683 307.584 
L 97.78683 143.593412 
L 96.767507 143.593412 
z
" clip-path="url(#p3481c47b95)" style="fill: #1f77b4"/>
   </g>
   <g id="patch_22">
    <path d="M 98.041661 307.584 
L 99.060985 307.584 
L 99.060985 173.409882 
L 98.041661 173.409882 
z
" clip-path="url(#p3481c47b95)" style="fill: #1f77b4"/>
   </g>
   <g id="patch_23">
    <path d="M 99.315816 307.584 
L 100.335139 307.584 
L 100.335139 180.864 
L 99.315816 180.864 
z
" clip-path="url(#p3481c47b95)" style="fill: #1f77b4"/>
   </g>
   <g id="patch_24">
    <path d="M 100.58997 307.584 
L 101.609294 307.584 
L 101.609294 210.680471 
L 100.58997 210.680471 
z
" clip-path="url(#p3481c47b95)" style="fill: #1f77b4"/>
   </g>
   <g id="patch_25">
    <path d="M 101.864124 307.584 
L 102.883448 307.584 
L 102.883448 203.226353 
L 101.864124 203.226353 
z
" clip-path="url(#p3481c47b95)" style="fill: #1f77b4"/>
   </g>
   <g id="patch_26">
    <path d="M 103.138279 307.584 
L 104.157602 307.584 
L 104.157602 195.772235 
L 103.138279 195.772235 
z
" clip-path="url(#p3481c47b95)" style="fill: #1f77b4"/>
   </g>
   <g id="patch_27">
    <path d="M 104.412433 307.584 
L 105.431757 307.584 
L 105.431757 285.221647 
L 104.412433 285.221647 
z
" clip-path="url(#p3481c47b95)" style="fill: #1f77b4"/>
   </g>
   <g id="patch_28">
    <path d="M 105.686588 307.584 
L 106.705911 307.584 
L 106.705911 210.680471 
L 105.686588 210.680471 
z
" clip-path="url(#p3481c47b95)" style="fill: #1f77b4"/>
   </g>
   <g id="patch_29">
    <path d="M 106.960742 307.584 
L 107.980066 307.584 
L 107.980066 240.496941 
L 106.960742 240.496941 
z
" clip-path="url(#p3481c47b95)" style="fill: #1f77b4"/>
   </g>
   <g id="patch_30">
    <path d="M 108.234897 307.584 
L 109.25422 307.584 
L 109.25422 225.588706 
L 108.234897 225.588706 
z
" clip-path="url(#p3481c47b95)" style="fill: #1f77b4"/>
   </g>
   <g id="patch_31">
    <path d="M 109.509051 307.584 
L 110.528374 307.584 
L 110.528374 143.593412 
L 109.509051 143.593412 
z
" clip-path="url(#p3481c47b95)" style="fill: #1f77b4"/>
   </g>
   <g id="patch_32">
    <path d="M 110.783205 307.584 
L 111.802529 307.584 
L 111.802529 173.409882 
L 110.783205 173.409882 
z
" clip-path="url(#p3481c47b95)" style="fill: #1f77b4"/>
   </g>
   <g id="patch_33">
    <path d="M 112.05736 307.584 
L 113.076683 307.584 
L 113.076683 173.409882 
L 112.05736 173.409882 
z
" clip-path="url(#p3481c47b95)" style="fill: #1f77b4"/>
   </g>
   <g id="patch_34">
    <path d="M 113.331514 307.584 
L 114.350838 307.584 
L 114.350838 54.144 
L 113.331514 54.144 
z
" clip-path="url(#p3481c47b95)" style="fill: #1f77b4"/>
   </g>
   <g id="patch_35">
    <path d="M 114.605669 307.584 
L 115.624992 307.584 
L 115.624992 218.134588 
L 114.605669 218.134588 
z
" clip-path="url(#p3481c47b95)" style="fill: #1f77b4"/>
   </g>
   <g id="patch_36">
    <path d="M 115.879823 307.584 
L 116.899147 307.584 
L 116.899147 165.955765 
L 115.879823 165.955765 
z
" clip-path="url(#p3481c47b95)" style="fill: #1f77b4"/>
   </g>
   <g id="patch_37">
    <path d="M 117.153977 307.584 
L 118.173301 307.584 
L 118.173301 180.864 
L 117.153977 180.864 
z
" clip-path="url(#p3481c47b95)" style="fill: #1f77b4"/>
   </g>
   <g id="patch_38">
    <path d="M 118.428132 307.584 
L 119.447455 307.584 
L 119.447455 195.772235 
L 118.428132 195.772235 
z
" clip-path="url(#p3481c47b95)" style="fill: #1f77b4"/>
   </g>
   <g id="patch_39">
    <path d="M 119.702286 307.584 
L 120.72161 307.584 
L 120.72161 210.680471 
L 119.702286 210.680471 
z
" clip-path="url(#p3481c47b95)" style="fill: #1f77b4"/>
   </g>
   <g id="patch_40">
    <path d="M 120.976441 307.584 
L 121.995764 307.584 
L 121.995764 218.134588 
L 120.976441 218.134588 
z
" clip-path="url(#p3481c47b95)" style="fill: #1f77b4"/>
   </g>
   <g id="patch_41">
    <path d="M 122.250595 307.584 
L 123.269919 307.584 
L 123.269919 180.864 
L 122.250595 180.864 
z
" clip-path="url(#p3481c47b95)" style="fill: #1f77b4"/>
   </g>
   <g id="patch_42">
    <path d="M 123.52475 307.584 
L 124.544073 307.584 
L 124.544073 136.139294 
L 123.52475 136.139294 
z
" clip-path="url(#p3481c47b95)" style="fill: #1f77b4"/>
   </g>
   <g id="patch_43">
    <path d="M 124.798904 307.584 
L 125.818227 307.584 
L 125.818227 240.496941 
L 124.798904 240.496941 
z
" clip-path="url(#p3481c47b95)" style="fill: #1f77b4"/>
   </g>
   <g id="patch_44">
    <path d="M 126.073058 307.584 
L 127.092382 307.584 
L 127.092382 188.318118 
L 126.073058 188.318118 
z
" clip-path="url(#p3481c47b95)" style="fill: #1f77b4"/>
   </g>
   <g id="patch_45">
    <path d="M 127.347213 307.584 
L 128.366536 307.584 
L 128.366536 188.318118 
L 127.347213 188.318118 
z
" clip-path="url(#p3481c47b95)" style="fill: #1f77b4"/>
   </g>
   <g id="patch_46">
    <path d="M 128.621367 307.584 
L 129.640691 307.584 
L 129.640691 180.864 
L 128.621367 180.864 
z
" clip-path="url(#p3481c47b95)" style="fill: #1f77b4"/>
   </g>
   <g id="patch_47">
    <path d="M 129.895522 307.584 
L 130.914845 307.584 
L 130.914845 165.955765 
L 129.895522 165.955765 
z
" clip-path="url(#p3481c47b95)" style="fill: #1f77b4"/>
   </g>
   <g id="patch_48">
    <path d="M 131.169676 307.584 
L 132.189 307.584 
L 132.189 180.864 
L 131.169676 180.864 
z
" clip-path="url(#p3481c47b95)" style="fill: #1f77b4"/>
   </g>
   <g id="patch_49">
    <path d="M 132.44383 307.584 
L 133.463154 307.584 
L 133.463154 195.772235 
L 132.44383 195.772235 
z
" clip-path="url(#p3481c47b95)" style="fill: #1f77b4"/>
   </g>
   <g id="patch_50">
    <path d="M 133.717985 307.584 
L 134.737308 307.584 
L 134.737308 165.955765 
L 133.717985 165.955765 
z
" clip-path="url(#p3481c47b95)" style="fill: #1f77b4"/>
   </g>
   <g id="patch_51">
    <path d="M 134.992139 307.584 
L 136.011463 307.584 
L 136.011463 225.588706 
L 134.992139 225.588706 
z
" clip-path="url(#p3481c47b95)" style="fill: #1f77b4"/>
   </g>
   <g id="patch_52">
    <path d="M 136.266294 307.584 
L 137.285617 307.584 
L 137.285617 165.955765 
L 136.266294 165.955765 
z
" clip-path="url(#p3481c47b95)" style="fill: #1f77b4"/>
   </g>
   <g id="patch_53">
    <path d="M 137.540448 307.584 
L 138.559772 307.584 
L 138.559772 233.042824 
L 137.540448 233.042824 
z
" clip-path="url(#p3481c47b95)" style="fill: #1f77b4"/>
   </g>
   <g id="patch_54">
    <path d="M 138.814603 307.584 
L 139.833926 307.584 
L 139.833926 143.593412 
L 138.814603 143.593412 
z
" clip-path="url(#p3481c47b95)" style="fill: #1f77b4"/>
   </g>
   <g id="patch_55">
    <path d="M 140.088757 307.584 
L 141.10808 307.584 
L 141.10808 218.134588 
L 140.088757 218.134588 
z
" clip-path="url(#p3481c47b95)" style="fill: #1f77b4"/>
   </g>
   <g id="patch_56">
    <path d="M 141.362911 307.584 
L 142.382235 307.584 
L 142.382235 247.951059 
L 141.362911 247.951059 
z
" clip-path="url(#p3481c47b95)" style="fill: #1f77b4"/>
   </g>
   <g id="patch_57">
    <path d="M 142.637066 307.584 
L 143.656389 307.584 
L 143.656389 121.231059 
L 142.637066 121.231059 
z
" clip-path="url(#p3481c47b95)" style="fill: #1f77b4"/>
   </g>
   <g id="patch_58">
    <path d="M 143.91122 307.584 
L 144.930544 307.584 
L 144.930544 151.047529 
L 143.91122 151.047529 
z
" clip-path="url(#p3481c47b95)" style="fill: #1f77b4"/>
   </g>
   <g id="patch_59">
    <path d="M 145.185375 307.584 
L 146.204698 307.584 
L 146.204698 165.955765 
L 145.185375 165.955765 
z
" clip-path="url(#p3481c47b95)" style="fill: #1f77b4"/>
   </g>
   <g id="patch_60">
    <path d="M 146.459529 307.584 
L 147.478853 307.584 
L 147.478853 240.496941 
L 146.459529 240.496941 
z
" clip-path="url(#p3481c47b95)" style="fill: #1f77b4"/>
   </g>
   <g id="patch_61">
    <path d="M 147.733683 307.584 
L 148.753007 307.584 
L 148.753007 180.864 
L 147.733683 180.864 
z
" clip-path="url(#p3481c47b95)" style="fill: #1f77b4"/>
   </g>
   <g id="patch_62">
    <path d="M 149.007838 307.584 
L 150.027161 307.584 
L 150.027161 165.955765 
L 149.007838 165.955765 
z
" clip-path="url(#p3481c47b95)" style="fill: #1f77b4"/>
   </g>
   <g id="patch_63">
    <path d="M 150.281992 307.584 
L 151.301316 307.584 
L 151.301316 218.134588 
L 150.281992 218.134588 
z
" clip-path="url(#p3481c47b95)" style="fill: #1f77b4"/>
   </g>
   <g id="patch_64">
    <path d="M 151.556147 307.584 
L 152.57547 307.584 
L 152.57547 218.134588 
L 151.556147 218.134588 
z
" clip-path="url(#p3481c47b95)" style="fill: #1f77b4"/>
   </g>
   <g id="patch_65">
    <path d="M 152.830301 307.584 
L 153.849625 307.584 
L 153.849625 158.501647 
L 152.830301 158.501647 
z
" clip-path="url(#p3481c47b95)" style="fill: #1f77b4"/>
   </g>
   <g id="patch_66">
    <path d="M 154.104456 307.584 
L 155.123779 307.584 
L 155.123779 158.501647 
L 154.104456 158.501647 
z
" clip-path="url(#p3481c47b95)" style="fill: #1f77b4"/>
   </g>
   <g id="patch_67">
    <path d="M 155.37861 307.584 
L 156.397933 307.584 
L 156.397933 225.588706 
L 155.37861 225.588706 
z
" clip-path="url(#p3481c47b95)" style="fill: #1f77b4"/>
   </g>
   <g id="patch_68">
    <path d="M 156.652764 307.584 
L 157.672088 307.584 
L 157.672088 195.772235 
L 156.652764 195.772235 
z
" clip-path="url(#p3481c47b95)" style="fill: #1f77b4"/>
   </g>
   <g id="patch_69">
    <path d="M 157.926919 307.584 
L 158.946242 307.584 
L 158.946242 173.409882 
L 157.926919 173.409882 
z
" clip-path="url(#p3481c47b95)" style="fill: #1f77b4"/>
   </g>
   <g id="patch_70">
    <path d="M 159.201073 307.584 
L 160.220397 307.584 
L 160.220397 225.588706 
L 159.201073 225.588706 
z
" clip-path="url(#p3481c47b95)" style="fill: #1f77b4"/>
   </g>
   <g id="patch_71">
    <path d="M 160.475228 307.584 
L 161.494551 307.584 
L 161.494551 195.772235 
L 160.475228 195.772235 
z
" clip-path="url(#p3481c47b95)" style="fill: #1f77b4"/>
   </g>
   <g id="patch_72">
    <path d="M 161.749382 307.584 
L 162.768706 307.584 
L 162.768706 173.409882 
L 161.749382 173.409882 
z
" clip-path="url(#p3481c47b95)" style="fill: #1f77b4"/>
   </g>
   <g id="patch_73">
    <path d="M 163.023536 307.584 
L 164.04286 307.584 
L 164.04286 180.864 
L 163.023536 180.864 
z
" clip-path="url(#p3481c47b95)" style="fill: #1f77b4"/>
   </g>
   <g id="patch_74">
    <path d="M 164.297691 307.584 
L 165.317014 307.584 
L 165.317014 136.139294 
L 164.297691 136.139294 
z
" clip-path="url(#p3481c47b95)" style="fill: #1f77b4"/>
   </g>
   <g id="patch_75">
    <path d="M 165.571845 307.584 
L 166.591169 307.584 
L 166.591169 247.951059 
L 165.571845 247.951059 
z
" clip-path="url(#p3481c47b95)" style="fill: #1f77b4"/>
   </g>
   <g id="patch_76">
    <path d="M 166.846 307.584 
L 167.865323 307.584 
L 167.865323 195.772235 
L 166.846 195.772235 
z
" clip-path="url(#p3481c47b95)" style="fill: #1f77b4"/>
   </g>
   <g id="patch_77">
    <path d="M 168.120154 307.584 
L 169.139478 307.584 
L 169.139478 188.318118 
L 168.120154 188.318118 
z
" clip-path="url(#p3481c47b95)" style="fill: #1f77b4"/>
   </g>
   <g id="patch_78">
    <path d="M 169.394309 307.584 
L 170.413632 307.584 
L 170.413632 180.864 
L 169.394309 180.864 
z
" clip-path="url(#p3481c47b95)" style="fill: #1f77b4"/>
   </g>
   <g id="patch_79">
    <path d="M 170.668463 307.584 
L 171.687786 307.584 
L 171.687786 98.868706 
L 170.668463 98.868706 
z
" clip-path="url(#p3481c47b95)" style="fill: #1f77b4"/>
   </g>
   <g id="patch_80">
    <path d="M 171.942617 307.584 
L 172.961941 307.584 
L 172.961941 210.680471 
L 171.942617 210.680471 
z
" clip-path="url(#p3481c47b95)" style="fill: #1f77b4"/>
   </g>
   <g id="patch_81">
    <path d="M 173.216772 307.584 
L 174.236095 307.584 
L 174.236095 218.134588 
L 173.216772 218.134588 
z
" clip-path="url(#p3481c47b95)" style="fill: #1f77b4"/>
   </g>
   <g id="patch_82">
    <path d="M 174.490926 307.584 
L 175.51025 307.584 
L 175.51025 165.955765 
L 174.490926 165.955765 
z
" clip-path="url(#p3481c47b95)" style="fill: #1f77b4"/>
   </g>
   <g id="patch_83">
    <path d="M 175.765081 307.584 
L 176.784404 307.584 
L 176.784404 240.496941 
L 175.765081 240.496941 
z
" clip-path="url(#p3481c47b95)" style="fill: #1f77b4"/>
   </g>
   <g id="patch_84">
    <path d="M 177.039235 307.584 
L 178.058559 307.584 
L 178.058559 151.047529 
L 177.039235 151.047529 
z
" clip-path="url(#p3481c47b95)" style="fill: #1f77b4"/>
   </g>
   <g id="patch_85">
    <path d="M 178.313389 307.584 
L 179.332713 307.584 
L 179.332713 180.864 
L 178.313389 180.864 
z
" clip-path="url(#p3481c47b95)" style="fill: #1f77b4"/>
   </g>
   <g id="patch_86">
    <path d="M 179.587544 307.584 
L 180.606867 307.584 
L 180.606867 203.226353 
L 179.587544 203.226353 
z
" clip-path="url(#p3481c47b95)" style="fill: #1f77b4"/>
   </g>
   <g id="patch_87">
    <path d="M 180.861698 307.584 
L 181.881022 307.584 
L 181.881022 225.588706 
L 180.861698 225.588706 
z
" clip-path="url(#p3481c47b95)" style="fill: #1f77b4"/>
   </g>
   <g id="patch_88">
    <path d="M 182.135853 307.584 
L 183.155176 307.584 
L 183.155176 136.139294 
L 182.135853 136.139294 
z
" clip-path="url(#p3481c47b95)" style="fill: #1f77b4"/>
   </g>
   <g id="patch_89">
    <path d="M 183.410007 307.584 
L 184.429331 307.584 
L 184.429331 218.134588 
L 183.410007 218.134588 
z
" clip-path="url(#p3481c47b95)" style="fill: #1f77b4"/>
   </g>
   <g id="patch_90">
    <path d="M 184.684162 307.584 
L 185.703485 307.584 
L 185.703485 151.047529 
L 184.684162 151.047529 
z
" clip-path="url(#p3481c47b95)" style="fill: #1f77b4"/>
   </g>
   <g id="patch_91">
    <path d="M 185.958316 307.584 
L 186.97764 307.584 
L 186.97764 210.680471 
L 185.958316 210.680471 
z
" clip-path="url(#p3481c47b95)" style="fill: #1f77b4"/>
   </g>
   <g id="patch_92">
    <path d="M 187.23247 307.584 
L 188.251794 307.584 
L 188.251794 188.318118 
L 187.23247 188.318118 
z
" clip-path="url(#p3481c47b95)" style="fill: #1f77b4"/>
   </g>
   <g id="patch_93">
    <path d="M 188.506625 307.584 
L 189.525948 307.584 
L 189.525948 173.409882 
L 188.506625 173.409882 
z
" clip-path="url(#p3481c47b95)" style="fill: #1f77b4"/>
   </g>
   <g id="patch_94">
    <path d="M 189.780779 307.584 
L 190.800103 307.584 
L 190.800103 240.496941 
L 189.780779 240.496941 
z
" clip-path="url(#p3481c47b95)" style="fill: #1f77b4"/>
   </g>
   <g id="patch_95">
    <path d="M 191.054934 307.584 
L 192.074257 307.584 
L 192.074257 188.318118 
L 191.054934 188.318118 
z
" clip-path="url(#p3481c47b95)" style="fill: #1f77b4"/>
   </g>
   <g id="patch_96">
    <path d="M 192.329088 307.584 
L 193.348412 307.584 
L 193.348412 158.501647 
L 192.329088 158.501647 
z
" clip-path="url(#p3481c47b95)" style="fill: #1f77b4"/>
   </g>
   <g id="patch_97">
    <path d="M 193.603242 307.584 
L 194.622566 307.584 
L 194.622566 203.226353 
L 193.603242 203.226353 
z
" clip-path="url(#p3481c47b95)" style="fill: #1f77b4"/>
   </g>
   <g id="patch_98">
    <path d="M 194.877397 307.584 
L 195.89672 307.584 
L 195.89672 143.593412 
L 194.877397 143.593412 
z
" clip-path="url(#p3481c47b95)" style="fill: #1f77b4"/>
   </g>
   <g id="patch_99">
    <path d="M 196.151551 307.584 
L 197.170875 307.584 
L 197.170875 158.501647 
L 196.151551 158.501647 
z
" clip-path="url(#p3481c47b95)" style="fill: #1f77b4"/>
   </g>
   <g id="patch_100">
    <path d="M 197.425706 307.584 
L 198.445029 307.584 
L 198.445029 240.496941 
L 197.425706 240.496941 
z
" clip-path="url(#p3481c47b95)" style="fill: #1f77b4"/>
   </g>
   <g id="patch_101">
    <path d="M 198.69986 307.584 
L 199.719184 307.584 
L 199.719184 180.864 
L 198.69986 180.864 
z
" clip-path="url(#p3481c47b95)" style="fill: #1f77b4"/>
   </g>
   <g id="patch_102">
    <path d="M 199.974015 307.584 
L 200.993338 307.584 
L 200.993338 195.772235 
L 199.974015 195.772235 
z
" clip-path="url(#p3481c47b95)" style="fill: #1f77b4"/>
   </g>
   <g id="patch_103">
    <path d="M 201.248169 307.584 
L 202.267493 307.584 
L 202.267493 195.772235 
L 201.248169 195.772235 
z
" clip-path="url(#p3481c47b95)" style="fill: #1f77b4"/>
   </g>
   <g id="patch_104">
    <path d="M 202.522323 307.584 
L 203.541647 307.584 
L 203.541647 203.226353 
L 202.522323 203.226353 
z
" clip-path="url(#p3481c47b95)" style="fill: #1f77b4"/>
   </g>
   <g id="patch_105">
    <path d="M 203.796478 307.584 
L 204.815801 307.584 
L 204.815801 151.047529 
L 203.796478 151.047529 
z
" clip-path="url(#p3481c47b95)" style="fill: #1f77b4"/>
   </g>
   <g id="patch_106">
    <path d="M 205.070632 307.584 
L 206.089956 307.584 
L 206.089956 180.864 
L 205.070632 180.864 
z
" clip-path="url(#p3481c47b95)" style="fill: #1f77b4"/>
   </g>
   <g id="patch_107">
    <path d="M 206.344787 307.584 
L 207.36411 307.584 
L 207.36411 262.859294 
L 206.344787 262.859294 
z
" clip-path="url(#p3481c47b95)" style="fill: #1f77b4"/>
   </g>
   <g id="patch_108">
    <path d="M 207.618941 307.584 
L 208.638265 307.584 
L 208.638265 210.680471 
L 207.618941 210.680471 
z
" clip-path="url(#p3481c47b95)" style="fill: #1f77b4"/>
   </g>
   <g id="patch_109">
    <path d="M 208.893095 307.584 
L 209.912419 307.584 
L 209.912419 173.409882 
L 208.893095 173.409882 
z
" clip-path="url(#p3481c47b95)" style="fill: #1f77b4"/>
   </g>
   <g id="patch_110">
    <path d="M 210.16725 307.584 
L 211.186573 307.584 
L 211.186573 173.409882 
L 210.16725 173.409882 
z
" clip-path="url(#p3481c47b95)" style="fill: #1f77b4"/>
   </g>
   <g id="patch_111">
    <path d="M 211.441404 307.584 
L 212.460728 307.584 
L 212.460728 203.226353 
L 211.441404 203.226353 
z
" clip-path="url(#p3481c47b95)" style="fill: #1f77b4"/>
   </g>
   <g id="patch_112">
    <path d="M 212.715559 307.584 
L 213.734882 307.584 
L 213.734882 180.864 
L 212.715559 180.864 
z
" clip-path="url(#p3481c47b95)" style="fill: #1f77b4"/>
   </g>
   <g id="patch_113">
    <path d="M 213.989713 307.584 
L 215.009037 307.584 
L 215.009037 195.772235 
L 213.989713 195.772235 
z
" clip-path="url(#p3481c47b95)" style="fill: #1f77b4"/>
   </g>
   <g id="patch_114">
    <path d="M 215.263868 307.584 
L 216.283191 307.584 
L 216.283191 106.322824 
L 215.263868 106.322824 
z
" clip-path="url(#p3481c47b95)" style="fill: #1f77b4"/>
   </g>
   <g id="patch_115">
    <path d="M 216.538022 307.584 
L 217.557346 307.584 
L 217.557346 195.772235 
L 216.538022 195.772235 
z
" clip-path="url(#p3481c47b95)" style="fill: #1f77b4"/>
   </g>
   <g id="patch_116">
    <path d="M 217.812176 307.584 
L 218.8315 307.584 
L 218.8315 210.680471 
L 217.812176 210.680471 
z
" clip-path="url(#p3481c47b95)" style="fill: #1f77b4"/>
   </g>
   <g id="patch_117">
    <path d="M 219.086331 307.584 
L 220.105654 307.584 
L 220.105654 151.047529 
L 219.086331 151.047529 
z
" clip-path="url(#p3481c47b95)" style="fill: #1f77b4"/>
   </g>
   <g id="patch_118">
    <path d="M 220.360485 307.584 
L 221.379809 307.584 
L 221.379809 203.226353 
L 220.360485 203.226353 
z
" clip-path="url(#p3481c47b95)" style="fill: #1f77b4"/>
   </g>
   <g id="patch_119">
    <path d="M 221.63464 307.584 
L 222.653963 307.584 
L 222.653963 136.139294 
L 221.63464 136.139294 
z
" clip-path="url(#p3481c47b95)" style="fill: #1f77b4"/>
   </g>
   <g id="patch_120">
    <path d="M 222.908794 307.584 
L 223.928118 307.584 
L 223.928118 203.226353 
L 222.908794 203.226353 
z
" clip-path="url(#p3481c47b95)" style="fill: #1f77b4"/>
   </g>
   <g id="patch_121">
    <path d="M 224.182948 307.584 
L 225.202272 307.584 
L 225.202272 225.588706 
L 224.182948 225.588706 
z
" clip-path="url(#p3481c47b95)" style="fill: #1f77b4"/>
   </g>
   <g id="patch_122">
    <path d="M 225.457103 307.584 
L 226.476426 307.584 
L 226.476426 180.864 
L 225.457103 180.864 
z
" clip-path="url(#p3481c47b95)" style="fill: #1f77b4"/>
   </g>
   <g id="patch_123">
    <path d="M 226.731257 307.584 
L 227.750581 307.584 
L 227.750581 210.680471 
L 226.731257 210.680471 
z
" clip-path="url(#p3481c47b95)" style="fill: #1f77b4"/>
   </g>
   <g id="patch_124">
    <path d="M 228.005412 307.584 
L 229.024735 307.584 
L 229.024735 225.588706 
L 228.005412 225.588706 
z
" clip-path="url(#p3481c47b95)" style="fill: #1f77b4"/>
   </g>
   <g id="patch_125">
    <path d="M 229.279566 307.584 
L 230.29889 307.584 
L 230.29889 188.318118 
L 229.279566 188.318118 
z
" clip-path="url(#p3481c47b95)" style="fill: #1f77b4"/>
   </g>
   <g id="patch_126">
    <path d="M 230.553721 307.584 
L 231.573044 307.584 
L 231.573044 188.318118 
L 230.553721 188.318118 
z
" clip-path="url(#p3481c47b95)" style="fill: #1f77b4"/>
   </g>
   <g id="patch_127">
    <path d="M 231.827875 307.584 
L 232.847199 307.584 
L 232.847199 180.864 
L 231.827875 180.864 
z
" clip-path="url(#p3481c47b95)" style="fill: #1f77b4"/>
   </g>
   <g id="patch_128">
    <path d="M 233.102029 307.584 
L 234.121353 307.584 
L 234.121353 158.501647 
L 233.102029 158.501647 
z
" clip-path="url(#p3481c47b95)" style="fill: #1f77b4"/>
   </g>
   <g id="patch_129">
    <path d="M 234.376184 307.584 
L 235.395507 307.584 
L 235.395507 165.955765 
L 234.376184 165.955765 
z
" clip-path="url(#p3481c47b95)" style="fill: #1f77b4"/>
   </g>
   <g id="patch_130">
    <path d="M 235.650338 307.584 
L 236.669662 307.584 
L 236.669662 188.318118 
L 235.650338 188.318118 
z
" clip-path="url(#p3481c47b95)" style="fill: #1f77b4"/>
   </g>
   <g id="patch_131">
    <path d="M 236.924493 307.584 
L 237.943816 307.584 
L 237.943816 210.680471 
L 236.924493 210.680471 
z
" clip-path="url(#p3481c47b95)" style="fill: #1f77b4"/>
   </g>
   <g id="patch_132">
    <path d="M 238.198647 307.584 
L 239.217971 307.584 
L 239.217971 158.501647 
L 238.198647 158.501647 
z
" clip-path="url(#p3481c47b95)" style="fill: #1f77b4"/>
   </g>
   <g id="patch_133">
    <path d="M 239.472801 307.584 
L 240.492125 307.584 
L 240.492125 180.864 
L 239.472801 180.864 
z
" clip-path="url(#p3481c47b95)" style="fill: #1f77b4"/>
   </g>
   <g id="patch_134">
    <path d="M 240.746956 307.584 
L 241.766279 307.584 
L 241.766279 203.226353 
L 240.746956 203.226353 
z
" clip-path="url(#p3481c47b95)" style="fill: #1f77b4"/>
   </g>
   <g id="patch_135">
    <path d="M 242.02111 307.584 
L 243.040434 307.584 
L 243.040434 173.409882 
L 242.02111 173.409882 
z
" clip-path="url(#p3481c47b95)" style="fill: #1f77b4"/>
   </g>
   <g id="patch_136">
    <path d="M 243.295265 307.584 
L 244.314588 307.584 
L 244.314588 210.680471 
L 243.295265 210.680471 
z
" clip-path="url(#p3481c47b95)" style="fill: #1f77b4"/>
   </g>
   <g id="patch_137">
    <path d="M 244.569419 307.584 
L 245.588743 307.584 
L 245.588743 210.680471 
L 244.569419 210.680471 
z
" clip-path="url(#p3481c47b95)" style="fill: #1f77b4"/>
   </g>
   <g id="patch_138">
    <path d="M 245.843574 307.584 
L 246.862897 307.584 
L 246.862897 158.501647 
L 245.843574 158.501647 
z
" clip-path="url(#p3481c47b95)" style="fill: #1f77b4"/>
   </g>
   <g id="patch_139">
    <path d="M 247.117728 307.584 
L 248.137052 307.584 
L 248.137052 180.864 
L 247.117728 180.864 
z
" clip-path="url(#p3481c47b95)" style="fill: #1f77b4"/>
   </g>
   <g id="patch_140">
    <path d="M 248.391882 307.584 
L 249.411206 307.584 
L 249.411206 180.864 
L 248.391882 180.864 
z
" clip-path="url(#p3481c47b95)" style="fill: #1f77b4"/>
   </g>
   <g id="patch_141">
    <path d="M 249.666037 307.584 
L 250.68536 307.584 
L 250.68536 203.226353 
L 249.666037 203.226353 
z
" clip-path="url(#p3481c47b95)" style="fill: #1f77b4"/>
   </g>
   <g id="patch_142">
    <path d="M 250.940191 307.584 
L 251.959515 307.584 
L 251.959515 188.318118 
L 250.940191 188.318118 
z
" clip-path="url(#p3481c47b95)" style="fill: #1f77b4"/>
   </g>
   <g id="patch_143">
    <path d="M 252.214346 307.584 
L 253.233669 307.584 
L 253.233669 188.318118 
L 252.214346 188.318118 
z
" clip-path="url(#p3481c47b95)" style="fill: #1f77b4"/>
   </g>
   <g id="patch_144">
    <path d="M 253.4885 307.584 
L 254.507824 307.584 
L 254.507824 218.134588 
L 253.4885 218.134588 
z
" clip-path="url(#p3481c47b95)" style="fill: #1f77b4"/>
   </g>
   <g id="patch_145">
    <path d="M 254.762654 307.584 
L 255.781978 307.584 
L 255.781978 158.501647 
L 254.762654 158.501647 
z
" clip-path="url(#p3481c47b95)" style="fill: #1f77b4"/>
   </g>
   <g id="patch_146">
    <path d="M 256.036809 307.584 
L 257.056132 307.584 
L 257.056132 188.318118 
L 256.036809 188.318118 
z
" clip-path="url(#p3481c47b95)" style="fill: #1f77b4"/>
   </g>
   <g id="patch_147">
    <path d="M 257.310963 307.584 
L 258.330287 307.584 
L 258.330287 240.496941 
L 257.310963 240.496941 
z
" clip-path="url(#p3481c47b95)" style="fill: #1f77b4"/>
   </g>
   <g id="patch_148">
    <path d="M 258.585118 307.584 
L 259.604441 307.584 
L 259.604441 203.226353 
L 258.585118 203.226353 
z
" clip-path="url(#p3481c47b95)" style="fill: #1f77b4"/>
   </g>
   <g id="patch_149">
    <path d="M 259.859272 307.584 
L 260.878596 307.584 
L 260.878596 158.501647 
L 259.859272 158.501647 
z
" clip-path="url(#p3481c47b95)" style="fill: #1f77b4"/>
   </g>
   <g id="patch_150">
    <path d="M 261.133427 307.584 
L 262.15275 307.584 
L 262.15275 143.593412 
L 261.133427 143.593412 
z
" clip-path="url(#p3481c47b95)" style="fill: #1f77b4"/>
   </g>
   <g id="patch_151">
    <path d="M 262.407581 307.584 
L 263.426905 307.584 
L 263.426905 233.042824 
L 262.407581 233.042824 
z
" clip-path="url(#p3481c47b95)" style="fill: #1f77b4"/>
   </g>
   <g id="patch_152">
    <path d="M 263.681735 307.584 
L 264.701059 307.584 
L 264.701059 188.318118 
L 263.681735 188.318118 
z
" clip-path="url(#p3481c47b95)" style="fill: #1f77b4"/>
   </g>
   <g id="patch_153">
    <path d="M 264.95589 307.584 
L 265.975213 307.584 
L 265.975213 136.139294 
L 264.95589 136.139294 
z
" clip-path="url(#p3481c47b95)" style="fill: #1f77b4"/>
   </g>
   <g id="patch_154">
    <path d="M 266.230044 307.584 
L 267.249368 307.584 
L 267.249368 203.226353 
L 266.230044 203.226353 
z
" clip-path="url(#p3481c47b95)" style="fill: #1f77b4"/>
   </g>
   <g id="patch_155">
    <path d="M 267.504199 307.584 
L 268.523522 307.584 
L 268.523522 173.409882 
L 267.504199 173.409882 
z
" clip-path="url(#p3481c47b95)" style="fill: #1f77b4"/>
   </g>
   <g id="patch_156">
    <path d="M 268.778353 307.584 
L 269.797677 307.584 
L 269.797677 158.501647 
L 268.778353 158.501647 
z
" clip-path="url(#p3481c47b95)" style="fill: #1f77b4"/>
   </g>
   <g id="patch_157">
    <path d="M 270.052507 307.584 
L 271.071831 307.584 
L 271.071831 180.864 
L 270.052507 180.864 
z
" clip-path="url(#p3481c47b95)" style="fill: #1f77b4"/>
   </g>
   <g id="patch_158">
    <path d="M 271.326662 307.584 
L 272.345985 307.584 
L 272.345985 240.496941 
L 271.326662 240.496941 
z
" clip-path="url(#p3481c47b95)" style="fill: #1f77b4"/>
   </g>
   <g id="patch_159">
    <path d="M 272.600816 307.584 
L 273.62014 307.584 
L 273.62014 158.501647 
L 272.600816 158.501647 
z
" clip-path="url(#p3481c47b95)" style="fill: #1f77b4"/>
   </g>
   <g id="patch_160">
    <path d="M 273.874971 307.584 
L 274.894294 307.584 
L 274.894294 165.955765 
L 273.874971 165.955765 
z
" clip-path="url(#p3481c47b95)" style="fill: #1f77b4"/>
   </g>
   <g id="patch_161">
    <path d="M 275.149125 307.584 
L 276.168449 307.584 
L 276.168449 233.042824 
L 275.149125 233.042824 
z
" clip-path="url(#p3481c47b95)" style="fill: #1f77b4"/>
   </g>
   <g id="patch_162">
    <path d="M 276.42328 307.584 
L 277.442603 307.584 
L 277.442603 195.772235 
L 276.42328 195.772235 
z
" clip-path="url(#p3481c47b95)" style="fill: #1f77b4"/>
   </g>
   <g id="patch_163">
    <path d="M 277.697434 307.584 
L 278.716758 307.584 
L 278.716758 143.593412 
L 277.697434 143.593412 
z
" clip-path="url(#p3481c47b95)" style="fill: #1f77b4"/>
   </g>
   <g id="patch_164">
    <path d="M 278.971588 307.584 
L 279.990912 307.584 
L 279.990912 225.588706 
L 278.971588 225.588706 
z
" clip-path="url(#p3481c47b95)" style="fill: #1f77b4"/>
   </g>
   <g id="patch_165">
    <path d="M 280.245743 307.584 
L 281.265066 307.584 
L 281.265066 151.047529 
L 280.245743 151.047529 
z
" clip-path="url(#p3481c47b95)" style="fill: #1f77b4"/>
   </g>
   <g id="patch_166">
    <path d="M 281.519897 307.584 
L 282.539221 307.584 
L 282.539221 203.226353 
L 281.519897 203.226353 
z
" clip-path="url(#p3481c47b95)" style="fill: #1f77b4"/>
   </g>
   <g id="patch_167">
    <path d="M 282.794052 307.584 
L 283.813375 307.584 
L 283.813375 195.772235 
L 282.794052 195.772235 
z
" clip-path="url(#p3481c47b95)" style="fill: #1f77b4"/>
   </g>
   <g id="patch_168">
    <path d="M 284.068206 307.584 
L 285.08753 307.584 
L 285.08753 225.588706 
L 284.068206 225.588706 
z
" clip-path="url(#p3481c47b95)" style="fill: #1f77b4"/>
   </g>
   <g id="patch_169">
    <path d="M 285.34236 307.584 
L 286.361684 307.584 
L 286.361684 188.318118 
L 285.34236 188.318118 
z
" clip-path="url(#p3481c47b95)" style="fill: #1f77b4"/>
   </g>
   <g id="patch_170">
    <path d="M 286.616515 307.584 
L 287.635838 307.584 
L 287.635838 173.409882 
L 286.616515 173.409882 
z
" clip-path="url(#p3481c47b95)" style="fill: #1f77b4"/>
   </g>
   <g id="patch_171">
    <path d="M 287.890669 307.584 
L 288.909993 307.584 
L 288.909993 188.318118 
L 287.890669 188.318118 
z
" clip-path="url(#p3481c47b95)" style="fill: #1f77b4"/>
   </g>
   <g id="patch_172">
    <path d="M 289.164824 307.584 
L 290.184147 307.584 
L 290.184147 151.047529 
L 289.164824 151.047529 
z
" clip-path="url(#p3481c47b95)" style="fill: #1f77b4"/>
   </g>
   <g id="patch_173">
    <path d="M 290.438978 307.584 
L 291.458302 307.584 
L 291.458302 195.772235 
L 290.438978 195.772235 
z
" clip-path="url(#p3481c47b95)" style="fill: #1f77b4"/>
   </g>
   <g id="patch_174">
    <path d="M 291.713133 307.584 
L 292.732456 307.584 
L 292.732456 195.772235 
L 291.713133 195.772235 
z
" clip-path="url(#p3481c47b95)" style="fill: #1f77b4"/>
   </g>
   <g id="patch_175">
    <path d="M 292.987287 307.584 
L 294.006611 307.584 
L 294.006611 188.318118 
L 292.987287 188.318118 
z
" clip-path="url(#p3481c47b95)" style="fill: #1f77b4"/>
   </g>
   <g id="patch_176">
    <path d="M 294.261441 307.584 
L 295.280765 307.584 
L 295.280765 203.226353 
L 294.261441 203.226353 
z
" clip-path="url(#p3481c47b95)" style="fill: #1f77b4"/>
   </g>
   <g id="patch_177">
    <path d="M 295.535596 307.584 
L 296.554919 307.584 
L 296.554919 210.680471 
L 295.535596 210.680471 
z
" clip-path="url(#p3481c47b95)" style="fill: #1f77b4"/>
   </g>
   <g id="patch_178">
    <path d="M 296.80975 307.584 
L 297.829074 307.584 
L 297.829074 173.409882 
L 296.80975 173.409882 
z
" clip-path="url(#p3481c47b95)" style="fill: #1f77b4"/>
   </g>
   <g id="patch_179">
    <path d="M 298.083905 307.584 
L 299.103228 307.584 
L 299.103228 173.409882 
L 298.083905 173.409882 
z
" clip-path="url(#p3481c47b95)" style="fill: #1f77b4"/>
   </g>
   <g id="patch_180">
    <path d="M 299.358059 307.584 
L 300.377383 307.584 
L 300.377383 195.772235 
L 299.358059 195.772235 
z
" clip-path="url(#p3481c47b95)" style="fill: #1f77b4"/>
   </g>
   <g id="patch_181">
    <path d="M 300.632214 307.584 
L 301.651537 307.584 
L 301.651537 195.772235 
L 300.632214 195.772235 
z
" clip-path="url(#p3481c47b95)" style="fill: #1f77b4"/>
   </g>
   <g id="patch_182">
    <path d="M 301.906368 307.584 
L 302.925691 307.584 
L 302.925691 188.318118 
L 301.906368 188.318118 
z
" clip-path="url(#p3481c47b95)" style="fill: #1f77b4"/>
   </g>
   <g id="patch_183">
    <path d="M 303.180522 307.584 
L 304.199846 307.584 
L 304.199846 188.318118 
L 303.180522 188.318118 
z
" clip-path="url(#p3481c47b95)" style="fill: #1f77b4"/>
   </g>
   <g id="patch_184">
    <path d="M 304.454677 307.584 
L 305.474 307.584 
L 305.474 210.680471 
L 304.454677 210.680471 
z
" clip-path="url(#p3481c47b95)" style="fill: #1f77b4"/>
   </g>
   <g id="patch_185">
    <path d="M 305.728831 307.584 
L 306.748155 307.584 
L 306.748155 158.501647 
L 305.728831 158.501647 
z
" clip-path="url(#p3481c47b95)" style="fill: #1f77b4"/>
   </g>
   <g id="patch_186">
    <path d="M 307.002986 307.584 
L 308.022309 307.584 
L 308.022309 195.772235 
L 307.002986 195.772235 
z
" clip-path="url(#p3481c47b95)" style="fill: #1f77b4"/>
   </g>
   <g id="patch_187">
    <path d="M 308.27714 307.584 
L 309.296464 307.584 
L 309.296464 128.685176 
L 308.27714 128.685176 
z
" clip-path="url(#p3481c47b95)" style="fill: #1f77b4"/>
   </g>
   <g id="patch_188">
    <path d="M 309.551294 307.584 
L 310.570618 307.584 
L 310.570618 218.134588 
L 309.551294 218.134588 
z
" clip-path="url(#p3481c47b95)" style="fill: #1f77b4"/>
   </g>
   <g id="patch_189">
    <path d="M 310.825449 307.584 
L 311.844772 307.584 
L 311.844772 180.864 
L 310.825449 180.864 
z
" clip-path="url(#p3481c47b95)" style="fill: #1f77b4"/>
   </g>
   <g id="patch_190">
    <path d="M 312.099603 307.584 
L 313.118927 307.584 
L 313.118927 203.226353 
L 312.099603 203.226353 
z
" clip-path="url(#p3481c47b95)" style="fill: #1f77b4"/>
   </g>
   <g id="patch_191">
    <path d="M 313.373758 307.584 
L 314.393081 307.584 
L 314.393081 180.864 
L 313.373758 180.864 
z
" clip-path="url(#p3481c47b95)" style="fill: #1f77b4"/>
   </g>
   <g id="patch_192">
    <path d="M 314.647912 307.584 
L 315.667236 307.584 
L 315.667236 240.496941 
L 314.647912 240.496941 
z
" clip-path="url(#p3481c47b95)" style="fill: #1f77b4"/>
   </g>
   <g id="patch_193">
    <path d="M 315.922067 307.584 
L 316.94139 307.584 
L 316.94139 173.409882 
L 315.922067 173.409882 
z
" clip-path="url(#p3481c47b95)" style="fill: #1f77b4"/>
   </g>
   <g id="patch_194">
    <path d="M 317.196221 307.584 
L 318.215544 307.584 
L 318.215544 180.864 
L 317.196221 180.864 
z
" clip-path="url(#p3481c47b95)" style="fill: #1f77b4"/>
   </g>
   <g id="patch_195">
    <path d="M 318.470375 307.584 
L 319.489699 307.584 
L 319.489699 203.226353 
L 318.470375 203.226353 
z
" clip-path="url(#p3481c47b95)" style="fill: #1f77b4"/>
   </g>
   <g id="patch_196">
    <path d="M 319.74453 307.584 
L 320.763853 307.584 
L 320.763853 188.318118 
L 319.74453 188.318118 
z
" clip-path="url(#p3481c47b95)" style="fill: #1f77b4"/>
   </g>
   <g id="patch_197">
    <path d="M 321.018684 307.584 
L 322.038008 307.584 
L 322.038008 136.139294 
L 321.018684 136.139294 
z
" clip-path="url(#p3481c47b95)" style="fill: #1f77b4"/>
   </g>
   <g id="patch_198">
    <path d="M 322.292839 307.584 
L 323.312162 307.584 
L 323.312162 188.318118 
L 322.292839 188.318118 
z
" clip-path="url(#p3481c47b95)" style="fill: #1f77b4"/>
   </g>
   <g id="patch_199">
    <path d="M 323.566993 307.584 
L 324.586317 307.584 
L 324.586317 180.864 
L 323.566993 180.864 
z
" clip-path="url(#p3481c47b95)" style="fill: #1f77b4"/>
   </g>
   <g id="patch_200">
    <path d="M 324.841147 307.584 
L 325.860471 307.584 
L 325.860471 173.409882 
L 324.841147 173.409882 
z
" clip-path="url(#p3481c47b95)" style="fill: #1f77b4"/>
   </g>
   <g id="patch_201">
    <path d="M 326.115302 307.584 
L 327.134625 307.584 
L 327.134625 218.134588 
L 326.115302 218.134588 
z
" clip-path="url(#p3481c47b95)" style="fill: #1f77b4"/>
   </g>
   <g id="patch_202">
    <path d="M 327.389456 307.584 
L 328.40878 307.584 
L 328.40878 218.134588 
L 327.389456 218.134588 
z
" clip-path="url(#p3481c47b95)" style="fill: #1f77b4"/>
   </g>
   <g id="patch_203">
    <path d="M 328.663611 307.584 
L 329.682934 307.584 
L 329.682934 188.318118 
L 328.663611 188.318118 
z
" clip-path="url(#p3481c47b95)" style="fill: #1f77b4"/>
   </g>
   <g id="patch_204">
    <path d="M 329.937765 307.584 
L 330.957089 307.584 
L 330.957089 210.680471 
L 329.937765 210.680471 
z
" clip-path="url(#p3481c47b95)" style="fill: #1f77b4"/>
   </g>
   <g id="patch_205">
    <path d="M 331.21192 307.584 
L 332.231243 307.584 
L 332.231243 203.226353 
L 331.21192 203.226353 
z
" clip-path="url(#p3481c47b95)" style="fill: #1f77b4"/>
   </g>
   <g id="patch_206">
    <path d="M 332.486074 307.584 
L 333.505397 307.584 
L 333.505397 173.409882 
L 332.486074 173.409882 
z
" clip-path="url(#p3481c47b95)" style="fill: #1f77b4"/>
   </g>
   <g id="patch_207">
    <path d="M 333.760228 307.584 
L 334.779552 307.584 
L 334.779552 203.226353 
L 333.760228 203.226353 
z
" clip-path="url(#p3481c47b95)" style="fill: #1f77b4"/>
   </g>
   <g id="patch_208">
    <path d="M 335.034383 307.584 
L 336.053706 307.584 
L 336.053706 151.047529 
L 335.034383 151.047529 
z
" clip-path="url(#p3481c47b95)" style="fill: #1f77b4"/>
   </g>
   <g id="patch_209">
    <path d="M 336.308537 307.584 
L 337.327861 307.584 
L 337.327861 165.955765 
L 336.308537 165.955765 
z
" clip-path="url(#p3481c47b95)" style="fill: #1f77b4"/>
   </g>
   <g id="patch_210">
    <path d="M 337.582692 307.584 
L 338.602015 307.584 
L 338.602015 210.680471 
L 337.582692 210.680471 
z
" clip-path="url(#p3481c47b95)" style="fill: #1f77b4"/>
   </g>
   <g id="patch_211">
    <path d="M 338.856846 307.584 
L 339.87617 307.584 
L 339.87617 203.226353 
L 338.856846 203.226353 
z
" clip-path="url(#p3481c47b95)" style="fill: #1f77b4"/>
   </g>
   <g id="patch_212">
    <path d="M 340.131 307.584 
L 341.150324 307.584 
L 341.150324 218.134588 
L 340.131 218.134588 
z
" clip-path="url(#p3481c47b95)" style="fill: #1f77b4"/>
   </g>
   <g id="patch_213">
    <path d="M 341.405155 307.584 
L 342.424478 307.584 
L 342.424478 195.772235 
L 341.405155 195.772235 
z
" clip-path="url(#p3481c47b95)" style="fill: #1f77b4"/>
   </g>
   <g id="patch_214">
    <path d="M 342.679309 307.584 
L 343.698633 307.584 
L 343.698633 151.047529 
L 342.679309 151.047529 
z
" clip-path="url(#p3481c47b95)" style="fill: #1f77b4"/>
   </g>
   <g id="patch_215">
    <path d="M 343.953464 307.584 
L 344.972787 307.584 
L 344.972787 173.409882 
L 343.953464 173.409882 
z
" clip-path="url(#p3481c47b95)" style="fill: #1f77b4"/>
   </g>
   <g id="patch_216">
    <path d="M 345.227618 307.584 
L 346.246942 307.584 
L 346.246942 188.318118 
L 345.227618 188.318118 
z
" clip-path="url(#p3481c47b95)" style="fill: #1f77b4"/>
   </g>
   <g id="patch_217">
    <path d="M 346.501773 307.584 
L 347.521096 307.584 
L 347.521096 180.864 
L 346.501773 180.864 
z
" clip-path="url(#p3481c47b95)" style="fill: #1f77b4"/>
   </g>
   <g id="patch_218">
    <path d="M 347.775927 307.584 
L 348.79525 307.584 
L 348.79525 195.772235 
L 347.775927 195.772235 
z
" clip-path="url(#p3481c47b95)" style="fill: #1f77b4"/>
   </g>
   <g id="patch_219">
    <path d="M 349.050081 307.584 
L 350.069405 307.584 
L 350.069405 180.864 
L 349.050081 180.864 
z
" clip-path="url(#p3481c47b95)" style="fill: #1f77b4"/>
   </g>
   <g id="patch_220">
    <path d="M 350.324236 307.584 
L 351.343559 307.584 
L 351.343559 143.593412 
L 350.324236 143.593412 
z
" clip-path="url(#p3481c47b95)" style="fill: #1f77b4"/>
   </g>
   <g id="patch_221">
    <path d="M 351.59839 307.584 
L 352.617714 307.584 
L 352.617714 173.409882 
L 351.59839 173.409882 
z
" clip-path="url(#p3481c47b95)" style="fill: #1f77b4"/>
   </g>
   <g id="patch_222">
    <path d="M 352.872545 307.584 
L 353.891868 307.584 
L 353.891868 180.864 
L 352.872545 180.864 
z
" clip-path="url(#p3481c47b95)" style="fill: #1f77b4"/>
   </g>
   <g id="patch_223">
    <path d="M 354.146699 307.584 
L 355.166023 307.584 
L 355.166023 165.955765 
L 354.146699 165.955765 
z
" clip-path="url(#p3481c47b95)" style="fill: #1f77b4"/>
   </g>
   <g id="patch_224">
    <path d="M 355.420853 307.584 
L 356.440177 307.584 
L 356.440177 240.496941 
L 355.420853 240.496941 
z
" clip-path="url(#p3481c47b95)" style="fill: #1f77b4"/>
   </g>
   <g id="patch_225">
    <path d="M 356.695008 307.584 
L 357.714331 307.584 
L 357.714331 225.588706 
L 356.695008 225.588706 
z
" clip-path="url(#p3481c47b95)" style="fill: #1f77b4"/>
   </g>
   <g id="patch_226">
    <path d="M 357.969162 307.584 
L 358.988486 307.584 
L 358.988486 195.772235 
L 357.969162 195.772235 
z
" clip-path="url(#p3481c47b95)" style="fill: #1f77b4"/>
   </g>
   <g id="patch_227">
    <path d="M 359.243317 307.584 
L 360.26264 307.584 
L 360.26264 188.318118 
L 359.243317 188.318118 
z
" clip-path="url(#p3481c47b95)" style="fill: #1f77b4"/>
   </g>
   <g id="patch_228">
    <path d="M 360.517471 307.584 
L 361.536795 307.584 
L 361.536795 203.226353 
L 360.517471 203.226353 
z
" clip-path="url(#p3481c47b95)" style="fill: #1f77b4"/>
   </g>
   <g id="patch_229">
    <path d="M 361.791626 307.584 
L 362.810949 307.584 
L 362.810949 210.680471 
L 361.791626 210.680471 
z
" clip-path="url(#p3481c47b95)" style="fill: #1f77b4"/>
   </g>
   <g id="patch_230">
    <path d="M 363.06578 307.584 
L 364.085103 307.584 
L 364.085103 180.864 
L 363.06578 180.864 
z
" clip-path="url(#p3481c47b95)" style="fill: #1f77b4"/>
   </g>
   <g id="patch_231">
    <path d="M 364.339934 307.584 
L 365.359258 307.584 
L 365.359258 195.772235 
L 364.339934 195.772235 
z
" clip-path="url(#p3481c47b95)" style="fill: #1f77b4"/>
   </g>
   <g id="patch_232">
    <path d="M 365.614089 307.584 
L 366.633412 307.584 
L 366.633412 151.047529 
L 365.614089 151.047529 
z
" clip-path="url(#p3481c47b95)" style="fill: #1f77b4"/>
   </g>
   <g id="patch_233">
    <path d="M 366.888243 307.584 
L 367.907567 307.584 
L 367.907567 188.318118 
L 366.888243 188.318118 
z
" clip-path="url(#p3481c47b95)" style="fill: #1f77b4"/>
   </g>
   <g id="patch_234">
    <path d="M 368.162398 307.584 
L 369.181721 307.584 
L 369.181721 188.318118 
L 368.162398 188.318118 
z
" clip-path="url(#p3481c47b95)" style="fill: #1f77b4"/>
   </g>
   <g id="patch_235">
    <path d="M 369.436552 307.584 
L 370.455876 307.584 
L 370.455876 188.318118 
L 369.436552 188.318118 
z
" clip-path="url(#p3481c47b95)" style="fill: #1f77b4"/>
   </g>
   <g id="patch_236">
    <path d="M 370.710706 307.584 
L 371.73003 307.584 
L 371.73003 218.134588 
L 370.710706 218.134588 
z
" clip-path="url(#p3481c47b95)" style="fill: #1f77b4"/>
   </g>
   <g id="patch_237">
    <path d="M 371.984861 307.584 
L 373.004184 307.584 
L 373.004184 188.318118 
L 371.984861 188.318118 
z
" clip-path="url(#p3481c47b95)" style="fill: #1f77b4"/>
   </g>
   <g id="patch_238">
    <path d="M 373.259015 307.584 
L 374.278339 307.584 
L 374.278339 203.226353 
L 373.259015 203.226353 
z
" clip-path="url(#p3481c47b95)" style="fill: #1f77b4"/>
   </g>
   <g id="patch_239">
    <path d="M 374.53317 307.584 
L 375.552493 307.584 
L 375.552493 143.593412 
L 374.53317 143.593412 
z
" clip-path="url(#p3481c47b95)" style="fill: #1f77b4"/>
   </g>
   <g id="patch_240">
    <path d="M 375.807324 307.584 
L 376.826648 307.584 
L 376.826648 180.864 
L 375.807324 180.864 
z
" clip-path="url(#p3481c47b95)" style="fill: #1f77b4"/>
   </g>
   <g id="patch_241">
    <path d="M 377.081479 307.584 
L 378.100802 307.584 
L 378.100802 225.588706 
L 377.081479 225.588706 
z
" clip-path="url(#p3481c47b95)" style="fill: #1f77b4"/>
   </g>
   <g id="patch_242">
    <path d="M 378.355633 307.584 
L 379.374956 307.584 
L 379.374956 158.501647 
L 378.355633 158.501647 
z
" clip-path="url(#p3481c47b95)" style="fill: #1f77b4"/>
   </g>
   <g id="patch_243">
    <path d="M 379.629787 307.584 
L 380.649111 307.584 
L 380.649111 210.680471 
L 379.629787 210.680471 
z
" clip-path="url(#p3481c47b95)" style="fill: #1f77b4"/>
   </g>
   <g id="patch_244">
    <path d="M 380.903942 307.584 
L 381.923265 307.584 
L 381.923265 188.318118 
L 380.903942 188.318118 
z
" clip-path="url(#p3481c47b95)" style="fill: #1f77b4"/>
   </g>
   <g id="patch_245">
    <path d="M 382.178096 307.584 
L 383.19742 307.584 
L 383.19742 151.047529 
L 382.178096 151.047529 
z
" clip-path="url(#p3481c47b95)" style="fill: #1f77b4"/>
   </g>
   <g id="patch_246">
    <path d="M 383.452251 307.584 
L 384.471574 307.584 
L 384.471574 165.955765 
L 383.452251 165.955765 
z
" clip-path="url(#p3481c47b95)" style="fill: #1f77b4"/>
   </g>
   <g id="patch_247">
    <path d="M 384.726405 307.584 
L 385.745729 307.584 
L 385.745729 188.318118 
L 384.726405 188.318118 
z
" clip-path="url(#p3481c47b95)" style="fill: #1f77b4"/>
   </g>
   <g id="patch_248">
    <path d="M 386.000559 307.584 
L 387.019883 307.584 
L 387.019883 151.047529 
L 386.000559 151.047529 
z
" clip-path="url(#p3481c47b95)" style="fill: #1f77b4"/>
   </g>
   <g id="patch_249">
    <path d="M 387.274714 307.584 
L 388.294037 307.584 
L 388.294037 233.042824 
L 387.274714 233.042824 
z
" clip-path="url(#p3481c47b95)" style="fill: #1f77b4"/>
   </g>
   <g id="patch_250">
    <path d="M 388.548868 307.584 
L 389.568192 307.584 
L 389.568192 218.134588 
L 388.548868 218.134588 
z
" clip-path="url(#p3481c47b95)" style="fill: #1f77b4"/>
   </g>
   <g id="patch_251">
    <path d="M 389.823023 307.584 
L 390.842346 307.584 
L 390.842346 143.593412 
L 389.823023 143.593412 
z
" clip-path="url(#p3481c47b95)" style="fill: #1f77b4"/>
   </g>
   <g id="patch_252">
    <path d="M 391.097177 307.584 
L 392.116501 307.584 
L 392.116501 195.772235 
L 391.097177 195.772235 
z
" clip-path="url(#p3481c47b95)" style="fill: #1f77b4"/>
   </g>
   <g id="patch_253">
    <path d="M 392.371332 307.584 
L 393.390655 307.584 
L 393.390655 188.318118 
L 392.371332 188.318118 
z
" clip-path="url(#p3481c47b95)" style="fill: #1f77b4"/>
   </g>
   <g id="patch_254">
    <path d="M 393.645486 307.584 
L 394.664809 307.584 
L 394.664809 128.685176 
L 393.645486 128.685176 
z
" clip-path="url(#p3481c47b95)" style="fill: #1f77b4"/>
   </g>
   <g id="patch_255">
    <path d="M 394.91964 307.584 
L 395.938964 307.584 
L 395.938964 203.226353 
L 394.91964 203.226353 
z
" clip-path="url(#p3481c47b95)" style="fill: #1f77b4"/>
   </g>
   <g id="patch_256">
    <path d="M 396.193795 307.584 
L 397.213118 307.584 
L 397.213118 158.501647 
L 396.193795 158.501647 
z
" clip-path="url(#p3481c47b95)" style="fill: #1f77b4"/>
   </g>
   <g id="patch_257">
    <path d="M 397.467949 307.584 
L 398.487273 307.584 
L 398.487273 180.864 
L 397.467949 180.864 
z
" clip-path="url(#p3481c47b95)" style="fill: #1f77b4"/>
   </g>
   <g id="matplotlib.axis_1">
    <g id="xtick_1">
     <g id="line2d_1">
      <defs>
       <path id="m946d642c4e" d="M 0 0 
L 0 3.5 
" style="stroke: #000000; stroke-width: 0.8"/>
      </defs>
      <g>
       <use xlink:href="#m946d642c4e" x="73.068235" y="307.584" style="stroke: #000000; stroke-width: 0.8"/>
      </g>
     </g>
     <g id="text_1">
      <!-- 0 -->
      <g transform="translate(69.886985 322.182437)scale(0.1 -0.1)">
       <defs>
        <path id="DejaVuSans-30" d="M 2034 4250 
Q 1547 4250 1301 3770 
Q 1056 3291 1056 2328 
Q 1056 1369 1301 889 
Q 1547 409 2034 409 
Q 2525 409 2770 889 
Q 3016 1369 3016 2328 
Q 3016 3291 2770 3770 
Q 2525 4250 2034 4250 
z
M 2034 4750 
Q 2819 4750 3233 4129 
Q 3647 3509 3647 2328 
Q 3647 1150 3233 529 
Q 2819 -91 2034 -91 
Q 1250 -91 836 529 
Q 422 1150 422 2328 
Q 422 3509 836 4129 
Q 1250 4750 2034 4750 
z
" transform="scale(0.015625)"/>
       </defs>
       <use xlink:href="#DejaVuSans-30"/>
      </g>
     </g>
    </g>
    <g id="xtick_2">
     <g id="line2d_2">
      <g>
       <use xlink:href="#m946d642c4e" x="136.775955" y="307.584" style="stroke: #000000; stroke-width: 0.8"/>
      </g>
     </g>
     <g id="text_2">
      <!-- 50 -->
      <g transform="translate(130.413455 322.182437)scale(0.1 -0.1)">
       <defs>
        <path id="DejaVuSans-35" d="M 691 4666 
L 3169 4666 
L 3169 4134 
L 1269 4134 
L 1269 2991 
Q 1406 3038 1543 3061 
Q 1681 3084 1819 3084 
Q 2600 3084 3056 2656 
Q 3513 2228 3513 1497 
Q 3513 744 3044 326 
Q 2575 -91 1722 -91 
Q 1428 -91 1123 -41 
Q 819 9 494 109 
L 494 744 
Q 775 591 1075 516 
Q 1375 441 1709 441 
Q 2250 441 2565 725 
Q 2881 1009 2881 1497 
Q 2881 1984 2565 2268 
Q 2250 2553 1709 2553 
Q 1456 2553 1204 2497 
Q 953 2441 691 2322 
L 691 4666 
z
" transform="scale(0.015625)"/>
       </defs>
       <use xlink:href="#DejaVuSans-35"/>
       <use xlink:href="#DejaVuSans-30" x="63.623047"/>
      </g>
     </g>
    </g>
    <g id="xtick_3">
     <g id="line2d_3">
      <g>
       <use xlink:href="#m946d642c4e" x="200.483676" y="307.584" style="stroke: #000000; stroke-width: 0.8"/>
      </g>
     </g>
     <g id="text_3">
      <!-- 100 -->
      <g transform="translate(190.939926 322.182437)scale(0.1 -0.1)">
       <defs>
        <path id="DejaVuSans-31" d="M 794 531 
L 1825 531 
L 1825 4091 
L 703 3866 
L 703 4441 
L 1819 4666 
L 2450 4666 
L 2450 531 
L 3481 531 
L 3481 0 
L 794 0 
L 794 531 
z
" transform="scale(0.015625)"/>
       </defs>
       <use xlink:href="#DejaVuSans-31"/>
       <use xlink:href="#DejaVuSans-30" x="63.623047"/>
       <use xlink:href="#DejaVuSans-30" x="127.246094"/>
      </g>
     </g>
    </g>
    <g id="xtick_4">
     <g id="line2d_4">
      <g>
       <use xlink:href="#m946d642c4e" x="264.191397" y="307.584" style="stroke: #000000; stroke-width: 0.8"/>
      </g>
     </g>
     <g id="text_4">
      <!-- 150 -->
      <g transform="translate(254.647647 322.182437)scale(0.1 -0.1)">
       <use xlink:href="#DejaVuSans-31"/>
       <use xlink:href="#DejaVuSans-35" x="63.623047"/>
       <use xlink:href="#DejaVuSans-30" x="127.246094"/>
      </g>
     </g>
    </g>
    <g id="xtick_5">
     <g id="line2d_5">
      <g>
       <use xlink:href="#m946d642c4e" x="327.899118" y="307.584" style="stroke: #000000; stroke-width: 0.8"/>
      </g>
     </g>
     <g id="text_5">
      <!-- 200 -->
      <g transform="translate(318.355368 322.182437)scale(0.1 -0.1)">
       <defs>
        <path id="DejaVuSans-32" d="M 1228 531 
L 3431 531 
L 3431 0 
L 469 0 
L 469 531 
Q 828 903 1448 1529 
Q 2069 2156 2228 2338 
Q 2531 2678 2651 2914 
Q 2772 3150 2772 3378 
Q 2772 3750 2511 3984 
Q 2250 4219 1831 4219 
Q 1534 4219 1204 4116 
Q 875 4013 500 3803 
L 500 4441 
Q 881 4594 1212 4672 
Q 1544 4750 1819 4750 
Q 2544 4750 2975 4387 
Q 3406 4025 3406 3419 
Q 3406 3131 3298 2873 
Q 3191 2616 2906 2266 
Q 2828 2175 2409 1742 
Q 1991 1309 1228 531 
z
" transform="scale(0.015625)"/>
       </defs>
       <use xlink:href="#DejaVuSans-32"/>
       <use xlink:href="#DejaVuSans-30" x="63.623047"/>
       <use xlink:href="#DejaVuSans-30" x="127.246094"/>
      </g>
     </g>
    </g>
    <g id="xtick_6">
     <g id="line2d_6">
      <g>
       <use xlink:href="#m946d642c4e" x="391.606839" y="307.584" style="stroke: #000000; stroke-width: 0.8"/>
      </g>
     </g>
     <g id="text_6">
      <!-- 250 -->
      <g transform="translate(382.063089 322.182437)scale(0.1 -0.1)">
       <use xlink:href="#DejaVuSans-32"/>
       <use xlink:href="#DejaVuSans-35" x="63.623047"/>
       <use xlink:href="#DejaVuSans-30" x="127.246094"/>
      </g>
     </g>
    </g>
    <g id="text_7">
     <!-- Size -->
     <g transform="translate(225.895938 335.860562)scale(0.1 -0.1)">
      <defs>
       <path id="DejaVuSans-53" d="M 3425 4513 
L 3425 3897 
Q 3066 4069 2747 4153 
Q 2428 4238 2131 4238 
Q 1616 4238 1336 4038 
Q 1056 3838 1056 3469 
Q 1056 3159 1242 3001 
Q 1428 2844 1947 2747 
L 2328 2669 
Q 3034 2534 3370 2195 
Q 3706 1856 3706 1288 
Q 3706 609 3251 259 
Q 2797 -91 1919 -91 
Q 1588 -91 1214 -16 
Q 841 59 441 206 
L 441 856 
Q 825 641 1194 531 
Q 1563 422 1919 422 
Q 2459 422 2753 634 
Q 3047 847 3047 1241 
Q 3047 1584 2836 1778 
Q 2625 1972 2144 2069 
L 1759 2144 
Q 1053 2284 737 2584 
Q 422 2884 422 3419 
Q 422 4038 858 4394 
Q 1294 4750 2059 4750 
Q 2388 4750 2728 4690 
Q 3069 4631 3425 4513 
z
" transform="scale(0.015625)"/>
       <path id="DejaVuSans-69" d="M 603 3500 
L 1178 3500 
L 1178 0 
L 603 0 
L 603 3500 
z
M 603 4863 
L 1178 4863 
L 1178 4134 
L 603 4134 
L 603 4863 
z
" transform="scale(0.015625)"/>
       <path id="DejaVuSans-7a" d="M 353 3500 
L 3084 3500 
L 3084 2975 
L 922 459 
L 3084 459 
L 3084 0 
L 275 0 
L 275 525 
L 2438 3041 
L 353 3041 
L 353 3500 
z
" transform="scale(0.015625)"/>
       <path id="DejaVuSans-65" d="M 3597 1894 
L 3597 1613 
L 953 1613 
Q 991 1019 1311 708 
Q 1631 397 2203 397 
Q 2534 397 2845 478 
Q 3156 559 3463 722 
L 3463 178 
Q 3153 47 2828 -22 
Q 2503 -91 2169 -91 
Q 1331 -91 842 396 
Q 353 884 353 1716 
Q 353 2575 817 3079 
Q 1281 3584 2069 3584 
Q 2775 3584 3186 3129 
Q 3597 2675 3597 1894 
z
M 3022 2063 
Q 3016 2534 2758 2815 
Q 2500 3097 2075 3097 
Q 1594 3097 1305 2825 
Q 1016 2553 972 2059 
L 3022 2063 
z
" transform="scale(0.015625)"/>
      </defs>
      <use xlink:href="#DejaVuSans-53"/>
      <use xlink:href="#DejaVuSans-69" x="63.476562"/>
      <use xlink:href="#DejaVuSans-7a" x="91.259766"/>
      <use xlink:href="#DejaVuSans-65" x="143.75"/>
     </g>
    </g>
   </g>
   <g id="matplotlib.axis_2">
    <g id="ytick_1">
     <g id="line2d_7">
      <defs>
       <path id="m9307181613" d="M 0 0 
L -3.5 0 
" style="stroke: #000000; stroke-width: 0.8"/>
      </defs>
      <g>
       <use xlink:href="#m9307181613" x="57.6" y="307.584" style="stroke: #000000; stroke-width: 0.8"/>
      </g>
     </g>
     <g id="text_8">
      <!-- 0 -->
      <g transform="translate(44.2375 311.383219)scale(0.1 -0.1)">
       <use xlink:href="#DejaVuSans-30"/>
      </g>
     </g>
    </g>
    <g id="ytick_2">
     <g id="line2d_8">
      <g>
       <use xlink:href="#m9307181613" x="57.6" y="270.313412" style="stroke: #000000; stroke-width: 0.8"/>
      </g>
     </g>
     <g id="text_9">
      <!-- 5 -->
      <g transform="translate(44.2375 274.112631)scale(0.1 -0.1)">
       <use xlink:href="#DejaVuSans-35"/>
      </g>
     </g>
    </g>
    <g id="ytick_3">
     <g id="line2d_9">
      <g>
       <use xlink:href="#m9307181613" x="57.6" y="233.042824" style="stroke: #000000; stroke-width: 0.8"/>
      </g>
     </g>
     <g id="text_10">
      <!-- 10 -->
      <g transform="translate(37.875 236.842042)scale(0.1 -0.1)">
       <use xlink:href="#DejaVuSans-31"/>
       <use xlink:href="#DejaVuSans-30" x="63.623047"/>
      </g>
     </g>
    </g>
    <g id="ytick_4">
     <g id="line2d_10">
      <g>
       <use xlink:href="#m9307181613" x="57.6" y="195.772235" style="stroke: #000000; stroke-width: 0.8"/>
      </g>
     </g>
     <g id="text_11">
      <!-- 15 -->
      <g transform="translate(37.875 199.571454)scale(0.1 -0.1)">
       <use xlink:href="#DejaVuSans-31"/>
       <use xlink:href="#DejaVuSans-35" x="63.623047"/>
      </g>
     </g>
    </g>
    <g id="ytick_5">
     <g id="line2d_11">
      <g>
       <use xlink:href="#m9307181613" x="57.6" y="158.501647" style="stroke: #000000; stroke-width: 0.8"/>
      </g>
     </g>
     <g id="text_12">
      <!-- 20 -->
      <g transform="translate(37.875 162.300866)scale(0.1 -0.1)">
       <use xlink:href="#DejaVuSans-32"/>
       <use xlink:href="#DejaVuSans-30" x="63.623047"/>
      </g>
     </g>
    </g>
    <g id="ytick_6">
     <g id="line2d_12">
      <g>
       <use xlink:href="#m9307181613" x="57.6" y="121.231059" style="stroke: #000000; stroke-width: 0.8"/>
      </g>
     </g>
     <g id="text_13">
      <!-- 25 -->
      <g transform="translate(37.875 125.030278)scale(0.1 -0.1)">
       <use xlink:href="#DejaVuSans-32"/>
       <use xlink:href="#DejaVuSans-35" x="63.623047"/>
      </g>
     </g>
    </g>
    <g id="ytick_7">
     <g id="line2d_13">
      <g>
       <use xlink:href="#m9307181613" x="57.6" y="83.960471" style="stroke: #000000; stroke-width: 0.8"/>
      </g>
     </g>
     <g id="text_14">
      <!-- 30 -->
      <g transform="translate(37.875 87.759689)scale(0.1 -0.1)">
       <defs>
        <path id="DejaVuSans-33" d="M 2597 2516 
Q 3050 2419 3304 2112 
Q 3559 1806 3559 1356 
Q 3559 666 3084 287 
Q 2609 -91 1734 -91 
Q 1441 -91 1130 -33 
Q 819 25 488 141 
L 488 750 
Q 750 597 1062 519 
Q 1375 441 1716 441 
Q 2309 441 2620 675 
Q 2931 909 2931 1356 
Q 2931 1769 2642 2001 
Q 2353 2234 1838 2234 
L 1294 2234 
L 1294 2753 
L 1863 2753 
Q 2328 2753 2575 2939 
Q 2822 3125 2822 3475 
Q 2822 3834 2567 4026 
Q 2313 4219 1838 4219 
Q 1578 4219 1281 4162 
Q 984 4106 628 3988 
L 628 4550 
Q 988 4650 1302 4700 
Q 1616 4750 1894 4750 
Q 2613 4750 3031 4423 
Q 3450 4097 3450 3541 
Q 3450 3153 3228 2886 
Q 3006 2619 2597 2516 
z
" transform="scale(0.015625)"/>
       </defs>
       <use xlink:href="#DejaVuSans-33"/>
       <use xlink:href="#DejaVuSans-30" x="63.623047"/>
      </g>
     </g>
    </g>
    <g id="ytick_8">
     <g id="line2d_14">
      <g>
       <use xlink:href="#m9307181613" x="57.6" y="46.689882" style="stroke: #000000; stroke-width: 0.8"/>
      </g>
     </g>
     <g id="text_15">
      <!-- 35 -->
      <g transform="translate(37.875 50.489101)scale(0.1 -0.1)">
       <use xlink:href="#DejaVuSans-33"/>
       <use xlink:href="#DejaVuSans-35" x="63.623047"/>
      </g>
     </g>
    </g>
    <g id="text_16">
     <!-- Size counts -->
     <g transform="translate(31.795312 203.092062)rotate(-90)scale(0.1 -0.1)">
      <defs>
       <path id="DejaVuSans-20" transform="scale(0.015625)"/>
       <path id="DejaVuSans-63" d="M 3122 3366 
L 3122 2828 
Q 2878 2963 2633 3030 
Q 2388 3097 2138 3097 
Q 1578 3097 1268 2742 
Q 959 2388 959 1747 
Q 959 1106 1268 751 
Q 1578 397 2138 397 
Q 2388 397 2633 464 
Q 2878 531 3122 666 
L 3122 134 
Q 2881 22 2623 -34 
Q 2366 -91 2075 -91 
Q 1284 -91 818 406 
Q 353 903 353 1747 
Q 353 2603 823 3093 
Q 1294 3584 2113 3584 
Q 2378 3584 2631 3529 
Q 2884 3475 3122 3366 
z
" transform="scale(0.015625)"/>
       <path id="DejaVuSans-6f" d="M 1959 3097 
Q 1497 3097 1228 2736 
Q 959 2375 959 1747 
Q 959 1119 1226 758 
Q 1494 397 1959 397 
Q 2419 397 2687 759 
Q 2956 1122 2956 1747 
Q 2956 2369 2687 2733 
Q 2419 3097 1959 3097 
z
M 1959 3584 
Q 2709 3584 3137 3096 
Q 3566 2609 3566 1747 
Q 3566 888 3137 398 
Q 2709 -91 1959 -91 
Q 1206 -91 779 398 
Q 353 888 353 1747 
Q 353 2609 779 3096 
Q 1206 3584 1959 3584 
z
" transform="scale(0.015625)"/>
       <path id="DejaVuSans-75" d="M 544 1381 
L 544 3500 
L 1119 3500 
L 1119 1403 
Q 1119 906 1312 657 
Q 1506 409 1894 409 
Q 2359 409 2629 706 
Q 2900 1003 2900 1516 
L 2900 3500 
L 3475 3500 
L 3475 0 
L 2900 0 
L 2900 538 
Q 2691 219 2414 64 
Q 2138 -91 1772 -91 
Q 1169 -91 856 284 
Q 544 659 544 1381 
z
M 1991 3584 
L 1991 3584 
z
" transform="scale(0.015625)"/>
       <path id="DejaVuSans-6e" d="M 3513 2113 
L 3513 0 
L 2938 0 
L 2938 2094 
Q 2938 2591 2744 2837 
Q 2550 3084 2163 3084 
Q 1697 3084 1428 2787 
Q 1159 2491 1159 1978 
L 1159 0 
L 581 0 
L 581 3500 
L 1159 3500 
L 1159 2956 
Q 1366 3272 1645 3428 
Q 1925 3584 2291 3584 
Q 2894 3584 3203 3211 
Q 3513 2838 3513 2113 
z
" transform="scale(0.015625)"/>
       <path id="DejaVuSans-74" d="M 1172 4494 
L 1172 3500 
L 2356 3500 
L 2356 3053 
L 1172 3053 
L 1172 1153 
Q 1172 725 1289 603 
Q 1406 481 1766 481 
L 2356 481 
L 2356 0 
L 1766 0 
Q 1100 0 847 248 
Q 594 497 594 1153 
L 594 3053 
L 172 3053 
L 172 3500 
L 594 3500 
L 594 4494 
L 1172 4494 
z
" transform="scale(0.015625)"/>
       <path id="DejaVuSans-73" d="M 2834 3397 
L 2834 2853 
Q 2591 2978 2328 3040 
Q 2066 3103 1784 3103 
Q 1356 3103 1142 2972 
Q 928 2841 928 2578 
Q 928 2378 1081 2264 
Q 1234 2150 1697 2047 
L 1894 2003 
Q 2506 1872 2764 1633 
Q 3022 1394 3022 966 
Q 3022 478 2636 193 
Q 2250 -91 1575 -91 
Q 1294 -91 989 -36 
Q 684 19 347 128 
L 347 722 
Q 666 556 975 473 
Q 1284 391 1588 391 
Q 1994 391 2212 530 
Q 2431 669 2431 922 
Q 2431 1156 2273 1281 
Q 2116 1406 1581 1522 
L 1381 1569 
Q 847 1681 609 1914 
Q 372 2147 372 2553 
Q 372 3047 722 3315 
Q 1072 3584 1716 3584 
Q 2034 3584 2315 3537 
Q 2597 3491 2834 3397 
z
" transform="scale(0.015625)"/>
      </defs>
      <use xlink:href="#DejaVuSans-53"/>
      <use xlink:href="#DejaVuSans-69" x="63.476562"/>
      <use xlink:href="#DejaVuSans-7a" x="91.259766"/>
      <use xlink:href="#DejaVuSans-65" x="143.75"/>
      <use xlink:href="#DejaVuSans-20" x="205.273438"/>
      <use xlink:href="#DejaVuSans-63" x="237.060547"/>
      <use xlink:href="#DejaVuSans-6f" x="292.041016"/>
      <use xlink:href="#DejaVuSans-75" x="353.222656"/>
      <use xlink:href="#DejaVuSans-6e" x="416.601562"/>
      <use xlink:href="#DejaVuSans-74" x="479.980469"/>
      <use xlink:href="#DejaVuSans-73" x="519.189453"/>
     </g>
    </g>
   </g>
   <g id="patch_258">
    <path d="M 57.6 307.584 
L 57.6 41.472 
" style="fill: none; stroke: #000000; stroke-width: 0.8; stroke-linejoin: miter; stroke-linecap: square"/>
   </g>
   <g id="patch_259">
    <path d="M 414.72 307.584 
L 414.72 41.472 
" style="fill: none; stroke: #000000; stroke-width: 0.8; stroke-linejoin: miter; stroke-linecap: square"/>
   </g>
   <g id="patch_260">
    <path d="M 57.6 307.584 
L 414.72 307.584 
" style="fill: none; stroke: #000000; stroke-width: 0.8; stroke-linejoin: miter; stroke-linecap: square"/>
   </g>
   <g id="patch_261">
    <path d="M 57.6 41.472 
L 414.72 41.472 
" style="fill: none; stroke: #000000; stroke-width: 0.8; stroke-linejoin: miter; stroke-linecap: square"/>
   </g>
   <g id="text_17">
    <!-- Number of instances of each size (nicolau_b) -->
    <g transform="translate(101.325 35.472)scale(0.12 -0.12)">
     <defs>
      <path id="DejaVuSans-4e" d="M 628 4666 
L 1478 4666 
L 3547 763 
L 3547 4666 
L 4159 4666 
L 4159 0 
L 3309 0 
L 1241 3903 
L 1241 0 
L 628 0 
L 628 4666 
z
" transform="scale(0.015625)"/>
      <path id="DejaVuSans-6d" d="M 3328 2828 
Q 3544 3216 3844 3400 
Q 4144 3584 4550 3584 
Q 5097 3584 5394 3201 
Q 5691 2819 5691 2113 
L 5691 0 
L 5113 0 
L 5113 2094 
Q 5113 2597 4934 2840 
Q 4756 3084 4391 3084 
Q 3944 3084 3684 2787 
Q 3425 2491 3425 1978 
L 3425 0 
L 2847 0 
L 2847 2094 
Q 2847 2600 2669 2842 
Q 2491 3084 2119 3084 
Q 1678 3084 1418 2786 
Q 1159 2488 1159 1978 
L 1159 0 
L 581 0 
L 581 3500 
L 1159 3500 
L 1159 2956 
Q 1356 3278 1631 3431 
Q 1906 3584 2284 3584 
Q 2666 3584 2933 3390 
Q 3200 3197 3328 2828 
z
" transform="scale(0.015625)"/>
      <path id="DejaVuSans-62" d="M 3116 1747 
Q 3116 2381 2855 2742 
Q 2594 3103 2138 3103 
Q 1681 3103 1420 2742 
Q 1159 2381 1159 1747 
Q 1159 1113 1420 752 
Q 1681 391 2138 391 
Q 2594 391 2855 752 
Q 3116 1113 3116 1747 
z
M 1159 2969 
Q 1341 3281 1617 3432 
Q 1894 3584 2278 3584 
Q 2916 3584 3314 3078 
Q 3713 2572 3713 1747 
Q 3713 922 3314 415 
Q 2916 -91 2278 -91 
Q 1894 -91 1617 61 
Q 1341 213 1159 525 
L 1159 0 
L 581 0 
L 581 4863 
L 1159 4863 
L 1159 2969 
z
" transform="scale(0.015625)"/>
      <path id="DejaVuSans-72" d="M 2631 2963 
Q 2534 3019 2420 3045 
Q 2306 3072 2169 3072 
Q 1681 3072 1420 2755 
Q 1159 2438 1159 1844 
L 1159 0 
L 581 0 
L 581 3500 
L 1159 3500 
L 1159 2956 
Q 1341 3275 1631 3429 
Q 1922 3584 2338 3584 
Q 2397 3584 2469 3576 
Q 2541 3569 2628 3553 
L 2631 2963 
z
" transform="scale(0.015625)"/>
      <path id="DejaVuSans-66" d="M 2375 4863 
L 2375 4384 
L 1825 4384 
Q 1516 4384 1395 4259 
Q 1275 4134 1275 3809 
L 1275 3500 
L 2222 3500 
L 2222 3053 
L 1275 3053 
L 1275 0 
L 697 0 
L 697 3053 
L 147 3053 
L 147 3500 
L 697 3500 
L 697 3744 
Q 697 4328 969 4595 
Q 1241 4863 1831 4863 
L 2375 4863 
z
" transform="scale(0.015625)"/>
      <path id="DejaVuSans-61" d="M 2194 1759 
Q 1497 1759 1228 1600 
Q 959 1441 959 1056 
Q 959 750 1161 570 
Q 1363 391 1709 391 
Q 2188 391 2477 730 
Q 2766 1069 2766 1631 
L 2766 1759 
L 2194 1759 
z
M 3341 1997 
L 3341 0 
L 2766 0 
L 2766 531 
Q 2569 213 2275 61 
Q 1981 -91 1556 -91 
Q 1019 -91 701 211 
Q 384 513 384 1019 
Q 384 1609 779 1909 
Q 1175 2209 1959 2209 
L 2766 2209 
L 2766 2266 
Q 2766 2663 2505 2880 
Q 2244 3097 1772 3097 
Q 1472 3097 1187 3025 
Q 903 2953 641 2809 
L 641 3341 
Q 956 3463 1253 3523 
Q 1550 3584 1831 3584 
Q 2591 3584 2966 3190 
Q 3341 2797 3341 1997 
z
" transform="scale(0.015625)"/>
      <path id="DejaVuSans-68" d="M 3513 2113 
L 3513 0 
L 2938 0 
L 2938 2094 
Q 2938 2591 2744 2837 
Q 2550 3084 2163 3084 
Q 1697 3084 1428 2787 
Q 1159 2491 1159 1978 
L 1159 0 
L 581 0 
L 581 4863 
L 1159 4863 
L 1159 2956 
Q 1366 3272 1645 3428 
Q 1925 3584 2291 3584 
Q 2894 3584 3203 3211 
Q 3513 2838 3513 2113 
z
" transform="scale(0.015625)"/>
      <path id="DejaVuSans-28" d="M 1984 4856 
Q 1566 4138 1362 3434 
Q 1159 2731 1159 2009 
Q 1159 1288 1364 580 
Q 1569 -128 1984 -844 
L 1484 -844 
Q 1016 -109 783 600 
Q 550 1309 550 2009 
Q 550 2706 781 3412 
Q 1013 4119 1484 4856 
L 1984 4856 
z
" transform="scale(0.015625)"/>
      <path id="DejaVuSans-6c" d="M 603 4863 
L 1178 4863 
L 1178 0 
L 603 0 
L 603 4863 
z
" transform="scale(0.015625)"/>
      <path id="DejaVuSans-5f" d="M 3263 -1063 
L 3263 -1509 
L -63 -1509 
L -63 -1063 
L 3263 -1063 
z
" transform="scale(0.015625)"/>
      <path id="DejaVuSans-29" d="M 513 4856 
L 1013 4856 
Q 1481 4119 1714 3412 
Q 1947 2706 1947 2009 
Q 1947 1309 1714 600 
Q 1481 -109 1013 -844 
L 513 -844 
Q 928 -128 1133 580 
Q 1338 1288 1338 2009 
Q 1338 2731 1133 3434 
Q 928 4138 513 4856 
z
" transform="scale(0.015625)"/>
     </defs>
     <use xlink:href="#DejaVuSans-4e"/>
     <use xlink:href="#DejaVuSans-75" x="74.804688"/>
     <use xlink:href="#DejaVuSans-6d" x="138.183594"/>
     <use xlink:href="#DejaVuSans-62" x="235.595703"/>
     <use xlink:href="#DejaVuSans-65" x="299.072266"/>
     <use xlink:href="#DejaVuSans-72" x="360.595703"/>
     <use xlink:href="#DejaVuSans-20" x="401.708984"/>
     <use xlink:href="#DejaVuSans-6f" x="433.496094"/>
     <use xlink:href="#DejaVuSans-66" x="494.677734"/>
     <use xlink:href="#DejaVuSans-20" x="529.882812"/>
     <use xlink:href="#DejaVuSans-69" x="561.669922"/>
     <use xlink:href="#DejaVuSans-6e" x="589.453125"/>
     <use xlink:href="#DejaVuSans-73" x="652.832031"/>
     <use xlink:href="#DejaVuSans-74" x="704.931641"/>
     <use xlink:href="#DejaVuSans-61" x="744.140625"/>
     <use xlink:href="#DejaVuSans-6e" x="805.419922"/>
     <use xlink:href="#DejaVuSans-63" x="868.798828"/>
     <use xlink:href="#DejaVuSans-65" x="923.779297"/>
     <use xlink:href="#DejaVuSans-73" x="985.302734"/>
     <use xlink:href="#DejaVuSans-20" x="1037.402344"/>
     <use xlink:href="#DejaVuSans-6f" x="1069.189453"/>
     <use xlink:href="#DejaVuSans-66" x="1130.371094"/>
     <use xlink:href="#DejaVuSans-20" x="1165.576172"/>
     <use xlink:href="#DejaVuSans-65" x="1197.363281"/>
     <use xlink:href="#DejaVuSans-61" x="1258.886719"/>
     <use xlink:href="#DejaVuSans-63" x="1320.166016"/>
     <use xlink:href="#DejaVuSans-68" x="1375.146484"/>
     <use xlink:href="#DejaVuSans-20" x="1438.525391"/>
     <use xlink:href="#DejaVuSans-73" x="1470.3125"/>
     <use xlink:href="#DejaVuSans-69" x="1522.412109"/>
     <use xlink:href="#DejaVuSans-7a" x="1550.195312"/>
     <use xlink:href="#DejaVuSans-65" x="1602.685547"/>
     <use xlink:href="#DejaVuSans-20" x="1664.208984"/>
     <use xlink:href="#DejaVuSans-28" x="1695.996094"/>
     <use xlink:href="#DejaVuSans-6e" x="1735.009766"/>
     <use xlink:href="#DejaVuSans-69" x="1798.388672"/>
     <use xlink:href="#DejaVuSans-63" x="1826.171875"/>
     <use xlink:href="#DejaVuSans-6f" x="1881.152344"/>
     <use xlink:href="#DejaVuSans-6c" x="1942.333984"/>
     <use xlink:href="#DejaVuSans-61" x="1970.117188"/>
     <use xlink:href="#DejaVuSans-75" x="2031.396484"/>
     <use xlink:href="#DejaVuSans-5f" x="2094.775391"/>
     <use xlink:href="#DejaVuSans-62" x="2144.775391"/>
     <use xlink:href="#DejaVuSans-29" x="2208.251953"/>
    </g>
   </g>
  </g>
 </g>
 <defs>
  <clipPath id="p3481c47b95">
   <rect x="57.6" y="41.472" width="357.12" height="266.112"/>
  </clipPath>
 </defs>
</svg>
