<?xml version="1.0" encoding="utf-8" standalone="no"?>
<!DOCTYPE svg PUBLIC "-//W3C//DTD SVG 1.1//EN"
  "http://www.w3.org/Graphics/SVG/1.1/DTD/svg11.dtd">
<svg xmlns:xlink="http://www.w3.org/1999/xlink" width="921.6pt" height="633.6pt" viewBox="0 0 921.6 633.6" xmlns="http://www.w3.org/2000/svg" version="1.1">
 <metadata>
  <rdf:RDF xmlns:dc="http://purl.org/dc/elements/1.1/" xmlns:cc="http://creativecommons.org/ns#" xmlns:rdf="http://www.w3.org/1999/02/22-rdf-syntax-ns#">
   <cc:Work>
    <dc:type rdf:resource="http://purl.org/dc/dcmitype/StillImage"/>
    <dc:date>2022-11-02T20:32:57.369617</dc:date>
    <dc:format>image/svg+xml</dc:format>
    <dc:creator>
     <cc:Agent>
      <dc:title>Matplotlib v3.5.3, https://matplotlib.org/</dc:title>
     </cc:Agent>
    </dc:creator>
   </cc:Work>
  </rdf:RDF>
 </metadata>
 <defs>
  <style type="text/css">*{stroke-linejoin: round; stroke-linecap: butt}</style>
 </defs>
 <g id="figure_1">
  <g id="patch_1">
   <path d="M 0 633.6 
L 921.6 633.6 
L 921.6 0 
L 0 0 
z
" style="fill: #ffffff"/>
  </g>
  <g id="axes_1">
   <g id="patch_2">
    <path d="M 115.2 563.904 
L 829.44 563.904 
L 829.44 76.032 
L 115.2 76.032 
z
" style="fill: #ffffff"/>
   </g>
   <g id="PolyCollection_1">
    <defs>
     <path id="m696b6cb7f8" d="M 147.665455 -91.872 
L 147.665455 -91.872 
L 168.610909 -121.119307 
L 189.556364 -129.744487 
L 210.501818 -136.559507 
L 231.447273 -140.204275 
L 252.392727 -143.453698 
L 273.338182 -144.959828 
L 294.283636 -146.866497 
L 315.229091 -148.130048 
L 336.174545 -149.47074 
L 357.12 -150.005804 
L 378.065455 -151.806174 
L 399.010909 -150.77195 
L 419.956364 -153.3423 
L 440.901818 -153.721765 
L 461.847273 -154.869608 
L 482.792727 -154.213698 
L 503.738182 -155.367906 
L 524.683636 -155.87467 
L 545.629091 -154.599809 
L 566.574545 -155.635064 
L 587.52 -155.985512 
L 608.465455 -157.364115 
L 629.410909 -156.977991 
L 650.356364 -157.531272 
L 671.301818 -157.706872 
L 692.247273 -157.458801 
L 713.192727 -158.709215 
L 734.138182 -157.994546 
L 755.083636 -159.415053 
L 776.029091 -159.341349 
L 796.974545 -160.010512 
L 796.974545 -160.010512 
L 796.974545 -160.010512 
L 776.029091 -159.341349 
L 755.083636 -159.415053 
L 734.138182 -157.994546 
L 713.192727 -158.709215 
L 692.247273 -157.458801 
L 671.301818 -157.706872 
L 650.356364 -157.531272 
L 629.410909 -156.977991 
L 608.465455 -157.364115 
L 587.52 -155.985512 
L 566.574545 -155.635064 
L 545.629091 -154.599809 
L 524.683636 -155.87467 
L 503.738182 -155.367906 
L 482.792727 -154.213698 
L 461.847273 -154.869608 
L 440.901818 -153.721765 
L 419.956364 -153.3423 
L 399.010909 -150.77195 
L 378.065455 -151.806174 
L 357.12 -150.005804 
L 336.174545 -149.47074 
L 315.229091 -148.130048 
L 294.283636 -146.866497 
L 273.338182 -144.959828 
L 252.392727 -143.453698 
L 231.447273 -140.204275 
L 210.501818 -136.559507 
L 189.556364 -129.744487 
L 168.610909 -121.119307 
L 147.665455 -91.872 
z
" style="stroke: #fff8dc; stroke-width: 0.48"/>
    </defs>
    <g clip-path="url(#p212c06576b)">
     <use xlink:href="#m696b6cb7f8" x="0" y="633.6" style="fill: #fff8dc; stroke: #fff8dc; stroke-width: 0.48"/>
    </g>
   </g>
   <g id="PolyCollection_2">
    <defs>
     <path id="mf8a386a8a5" d="M 147.665455 -192.027676 
L 147.665455 -192.027676 
L 168.610909 -222.089073 
L 189.556364 -231.61354 
L 210.501818 -239.285577 
L 231.447273 -243.129772 
L 252.392727 -247.177176 
L 273.338182 -250.176701 
L 294.283636 -253.825315 
L 315.229091 -255.175552 
L 336.174545 -257.912085 
L 357.12 -259.812983 
L 378.065455 -262.908661 
L 399.010909 -263.718035 
L 419.956364 -265.165544 
L 440.901818 -266.00892 
L 461.847273 -269.99761 
L 482.792727 -265.904146 
L 503.738182 -266.74005 
L 524.683636 -269.000095 
L 545.629091 -269.907736 
L 566.574545 -270.592393 
L 587.52 -271.450754 
L 608.465455 -272.595895 
L 629.410909 -273.871408 
L 650.356364 -273.191736 
L 671.301818 -273.620939 
L 692.247273 -274.956494 
L 713.192727 -275.346364 
L 734.138182 -275.849436 
L 755.083636 -276.73148 
L 776.029091 -277.025953 
L 796.974545 -277.998661 
L 796.974545 -277.998661 
L 796.974545 -277.998661 
L 776.029091 -277.025953 
L 755.083636 -276.73148 
L 734.138182 -275.849436 
L 713.192727 -275.346364 
L 692.247273 -274.956494 
L 671.301818 -273.620939 
L 650.356364 -273.191736 
L 629.410909 -273.871408 
L 608.465455 -272.595895 
L 587.52 -271.450754 
L 566.574545 -270.592393 
L 545.629091 -269.907736 
L 524.683636 -269.000095 
L 503.738182 -266.74005 
L 482.792727 -265.904146 
L 461.847273 -269.99761 
L 440.901818 -266.00892 
L 419.956364 -265.165544 
L 399.010909 -263.718035 
L 378.065455 -262.908661 
L 357.12 -259.812983 
L 336.174545 -257.912085 
L 315.229091 -255.175552 
L 294.283636 -253.825315 
L 273.338182 -250.176701 
L 252.392727 -247.177176 
L 231.447273 -243.129772 
L 210.501818 -239.285577 
L 189.556364 -231.61354 
L 168.610909 -222.089073 
L 147.665455 -192.027676 
z
" style="stroke: #fff8dc; stroke-width: 0.48"/>
    </defs>
    <g clip-path="url(#p212c06576b)">
     <use xlink:href="#mf8a386a8a5" x="0" y="633.6" style="fill: #fff8dc; stroke: #fff8dc; stroke-width: 0.48"/>
    </g>
   </g>
   <g id="PolyCollection_3">
    <defs>
     <path id="m9bf756a874" d="M 147.665455 -190.168329 
L 147.665455 -190.168329 
L 168.610909 -215.968009 
L 189.556364 -223.064379 
L 210.501818 -228.681396 
L 231.447273 -235.495339 
L 252.392727 -239.038043 
L 273.338182 -241.335816 
L 294.283636 -244.427356 
L 315.229091 -246.382852 
L 336.174545 -248.93742 
L 357.12 -250.61179 
L 378.065455 -252.912988 
L 399.010909 -253.623187 
L 419.956364 -254.730909 
L 440.901818 -255.785549 
L 461.847273 -258.762087 
L 482.792727 -255.762069 
L 503.738182 -256.456176 
L 524.683636 -258.011485 
L 545.629091 -258.385539 
L 566.574545 -259.164335 
L 587.52 -259.828829 
L 608.465455 -260.455211 
L 629.410909 -261.143799 
L 650.356364 -261.647178 
L 671.301818 -261.928478 
L 692.247273 -262.633433 
L 713.192727 -262.79708 
L 734.138182 -263.219141 
L 755.083636 -264.153214 
L 776.029091 -264.20958 
L 796.974545 -264.812139 
L 796.974545 -264.812139 
L 796.974545 -264.812139 
L 776.029091 -264.20958 
L 755.083636 -264.153214 
L 734.138182 -263.219141 
L 713.192727 -262.79708 
L 692.247273 -262.633433 
L 671.301818 -261.928478 
L 650.356364 -261.647178 
L 629.410909 -261.143799 
L 608.465455 -260.455211 
L 587.52 -259.828829 
L 566.574545 -259.164335 
L 545.629091 -258.385539 
L 524.683636 -258.011485 
L 503.738182 -256.456176 
L 482.792727 -255.762069 
L 461.847273 -258.762087 
L 440.901818 -255.785549 
L 419.956364 -254.730909 
L 399.010909 -253.623187 
L 378.065455 -252.912988 
L 357.12 -250.61179 
L 336.174545 -248.93742 
L 315.229091 -246.382852 
L 294.283636 -244.427356 
L 273.338182 -241.335816 
L 252.392727 -239.038043 
L 231.447273 -235.495339 
L 210.501818 -228.681396 
L 189.556364 -223.064379 
L 168.610909 -215.968009 
L 147.665455 -190.168329 
z
" style="stroke: #fff8dc; stroke-width: 0.48"/>
    </defs>
    <g clip-path="url(#p212c06576b)">
     <use xlink:href="#m9bf756a874" x="0" y="633.6" style="fill: #fff8dc; stroke: #fff8dc; stroke-width: 0.48"/>
    </g>
   </g>
   <g id="PolyCollection_4">
    <defs>
     <path id="m965932fb84" d="M 147.665455 -368.802391 
L 147.665455 -368.802391 
L 168.610909 -393.4528 
L 189.556364 -400.043231 
L 210.501818 -403.2429 
L 231.447273 -406.076378 
L 252.392727 -409.488524 
L 273.338182 -414.917375 
L 294.283636 -418.892979 
L 315.229091 -419.148264 
L 336.174545 -425.13538 
L 357.12 -429.374459 
L 378.065455 -434.57809 
L 399.010909 -432.371429 
L 419.956364 -439.272997 
L 440.901818 -445.416104 
L 461.847273 -450.669025 
L 482.792727 -437.939819 
L 503.738182 -441.218346 
L 524.683636 -449.482079 
L 545.629091 -451.854555 
L 566.574545 -455.248457 
L 587.52 -461.056066 
L 608.465455 -460.343854 
L 629.410909 -465.64444 
L 650.356364 -459.916243 
L 671.301818 -466.165348 
L 692.247273 -468.95094 
L 713.192727 -475.113495 
L 734.138182 -470.663831 
L 755.083636 -475.583122 
L 776.029091 -478.690916 
L 796.974545 -479.973591 
L 796.974545 -479.973591 
L 796.974545 -485.625286 
L 776.029091 -480.256594 
L 755.083636 -479.064472 
L 734.138182 -472.822126 
L 713.192727 -477.137623 
L 692.247273 -471.120881 
L 671.301818 -468.048156 
L 650.356364 -463.391284 
L 629.410909 -470.305876 
L 608.465455 -463.105666 
L 587.52 -462.549777 
L 566.574545 -457.186673 
L 545.629091 -455.138241 
L 524.683636 -450.997624 
L 503.738182 -445.669556 
L 482.792727 -442.221645 
L 461.847273 -452.898587 
L 440.901818 -447.812945 
L 419.956364 -443.924509 
L 399.010909 -436.576416 
L 378.065455 -437.862377 
L 357.12 -431.144039 
L 336.174545 -427.896753 
L 315.229091 -421.053453 
L 294.283636 -420.578369 
L 273.338182 -417.082207 
L 252.392727 -412.611513 
L 231.447273 -409.303634 
L 210.501818 -407.125275 
L 189.556364 -402.910328 
L 168.610909 -400.604259 
L 147.665455 -406.848252 
z
" style="stroke: #fff8dc; stroke-width: 0.48"/>
    </defs>
    <g clip-path="url(#p212c06576b)">
     <use xlink:href="#m965932fb84" x="0" y="633.6" style="fill: #fff8dc; stroke: #fff8dc; stroke-width: 0.48"/>
    </g>
   </g>
   <g id="PolyCollection_5">
    <defs>
     <path id="me6fa944b0d" d="M 147.665455 -350.629923 
L 147.665455 -350.629923 
L 168.610909 -391.62552 
L 189.556364 -415.269994 
L 210.501818 -430.800635 
L 231.447273 -442.551266 
L 252.392727 -452.120493 
L 273.338182 -459.990792 
L 294.283636 -466.711306 
L 315.229091 -472.775746 
L 336.174545 -478.031304 
L 357.12 -482.808778 
L 378.065455 -487.100954 
L 399.010909 -491.122192 
L 419.956364 -494.839 
L 440.901818 -498.338229 
L 461.847273 -501.387872 
L 482.792727 -504.450919 
L 503.738182 -507.247148 
L 524.683636 -509.933412 
L 545.629091 -512.436514 
L 566.574545 -514.871226 
L 587.52 -517.152755 
L 608.465455 -519.317941 
L 629.410909 -521.393399 
L 650.356364 -523.424346 
L 671.301818 -525.367815 
L 692.247273 -527.182995 
L 713.192727 -528.977819 
L 734.138182 -530.694409 
L 755.083636 -532.350056 
L 776.029091 -533.939891 
L 796.974545 -535.392 
L 796.974545 -535.392 
L 796.974545 -535.392 
L 776.029091 -533.939891 
L 755.083636 -532.350056 
L 734.138182 -530.694409 
L 713.192727 -528.977819 
L 692.247273 -527.182995 
L 671.301818 -525.367815 
L 650.356364 -523.424346 
L 629.410909 -521.393399 
L 608.465455 -519.317941 
L 587.52 -517.152755 
L 566.574545 -514.871226 
L 545.629091 -512.436514 
L 524.683636 -509.933412 
L 503.738182 -507.247148 
L 482.792727 -504.450919 
L 461.847273 -501.387872 
L 440.901818 -498.338229 
L 419.956364 -494.839 
L 399.010909 -491.122192 
L 378.065455 -487.100954 
L 357.12 -482.808778 
L 336.174545 -478.031304 
L 315.229091 -472.775746 
L 294.283636 -466.711306 
L 273.338182 -459.990792 
L 252.392727 -452.120493 
L 231.447273 -442.551266 
L 210.501818 -430.800635 
L 189.556364 -415.269994 
L 168.610909 -391.62552 
L 147.665455 -350.629923 
z
" style="stroke: #fff8dc; stroke-width: 0.48"/>
    </defs>
    <g clip-path="url(#p212c06576b)">
     <use xlink:href="#me6fa944b0d" x="0" y="633.6" style="fill: #fff8dc; stroke: #fff8dc; stroke-width: 0.48"/>
    </g>
   </g>
   <g id="matplotlib.axis_1">
    <g id="xtick_1">
     <g id="line2d_1">
      <defs>
       <path id="m8d140c23bb" d="M 0 0 
L 0 3.5 
" style="stroke: #000000; stroke-width: 1.6"/>
      </defs>
      <g>
       <use xlink:href="#m8d140c23bb" x="147.665455" y="563.904" style="stroke: #000000; stroke-width: 1.6"/>
      </g>
     </g>
     <g id="text_1">
      <!-- 1, 8 -->
      <g transform="translate(137.170767 586.962281)scale(0.11 -0.11)">
       <defs>
        <path id="DejaVuSans-31" d="M 794 531 
L 1825 531 
L 1825 4091 
L 703 3866 
L 703 4441 
L 1819 4666 
L 2450 4666 
L 2450 531 
L 3481 531 
L 3481 0 
L 794 0 
L 794 531 
z
" transform="scale(0.015625)"/>
        <path id="DejaVuSans-2c" d="M 750 794 
L 1409 794 
L 1409 256 
L 897 -744 
L 494 -744 
L 750 256 
L 750 794 
z
" transform="scale(0.015625)"/>
        <path id="DejaVuSans-20" transform="scale(0.015625)"/>
        <path id="DejaVuSans-38" d="M 2034 2216 
Q 1584 2216 1326 1975 
Q 1069 1734 1069 1313 
Q 1069 891 1326 650 
Q 1584 409 2034 409 
Q 2484 409 2743 651 
Q 3003 894 3003 1313 
Q 3003 1734 2745 1975 
Q 2488 2216 2034 2216 
z
M 1403 2484 
Q 997 2584 770 2862 
Q 544 3141 544 3541 
Q 544 4100 942 4425 
Q 1341 4750 2034 4750 
Q 2731 4750 3128 4425 
Q 3525 4100 3525 3541 
Q 3525 3141 3298 2862 
Q 3072 2584 2669 2484 
Q 3125 2378 3379 2068 
Q 3634 1759 3634 1313 
Q 3634 634 3220 271 
Q 2806 -91 2034 -91 
Q 1263 -91 848 271 
Q 434 634 434 1313 
Q 434 1759 690 2068 
Q 947 2378 1403 2484 
z
M 1172 3481 
Q 1172 3119 1398 2916 
Q 1625 2713 2034 2713 
Q 2441 2713 2670 2916 
Q 2900 3119 2900 3481 
Q 2900 3844 2670 4047 
Q 2441 4250 2034 4250 
Q 1625 4250 1398 4047 
Q 1172 3844 1172 3481 
z
" transform="scale(0.015625)"/>
       </defs>
       <use xlink:href="#DejaVuSans-31"/>
       <use xlink:href="#DejaVuSans-2c" x="63.623047"/>
       <use xlink:href="#DejaVuSans-20" x="95.410156"/>
       <use xlink:href="#DejaVuSans-38" x="127.197266"/>
      </g>
     </g>
    </g>
    <g id="xtick_2">
     <g id="line2d_2">
      <g>
       <use xlink:href="#m8d140c23bb" x="273.338182" y="563.904" style="stroke: #000000; stroke-width: 1.6"/>
      </g>
     </g>
     <g id="text_2">
      <!-- 7, 56 -->
      <g transform="translate(259.344119 586.962281)scale(0.11 -0.11)">
       <defs>
        <path id="DejaVuSans-37" d="M 525 4666 
L 3525 4666 
L 3525 4397 
L 1831 0 
L 1172 0 
L 2766 4134 
L 525 4134 
L 525 4666 
z
" transform="scale(0.015625)"/>
        <path id="DejaVuSans-35" d="M 691 4666 
L 3169 4666 
L 3169 4134 
L 1269 4134 
L 1269 2991 
Q 1406 3038 1543 3061 
Q 1681 3084 1819 3084 
Q 2600 3084 3056 2656 
Q 3513 2228 3513 1497 
Q 3513 744 3044 326 
Q 2575 -91 1722 -91 
Q 1428 -91 1123 -41 
Q 819 9 494 109 
L 494 744 
Q 775 591 1075 516 
Q 1375 441 1709 441 
Q 2250 441 2565 725 
Q 2881 1009 2881 1497 
Q 2881 1984 2565 2268 
Q 2250 2553 1709 2553 
Q 1456 2553 1204 2497 
Q 953 2441 691 2322 
L 691 4666 
z
" transform="scale(0.015625)"/>
        <path id="DejaVuSans-36" d="M 2113 2584 
Q 1688 2584 1439 2293 
Q 1191 2003 1191 1497 
Q 1191 994 1439 701 
Q 1688 409 2113 409 
Q 2538 409 2786 701 
Q 3034 994 3034 1497 
Q 3034 2003 2786 2293 
Q 2538 2584 2113 2584 
z
M 3366 4563 
L 3366 3988 
Q 3128 4100 2886 4159 
Q 2644 4219 2406 4219 
Q 1781 4219 1451 3797 
Q 1122 3375 1075 2522 
Q 1259 2794 1537 2939 
Q 1816 3084 2150 3084 
Q 2853 3084 3261 2657 
Q 3669 2231 3669 1497 
Q 3669 778 3244 343 
Q 2819 -91 2113 -91 
Q 1303 -91 875 529 
Q 447 1150 447 2328 
Q 447 3434 972 4092 
Q 1497 4750 2381 4750 
Q 2619 4750 2861 4703 
Q 3103 4656 3366 4563 
z
" transform="scale(0.015625)"/>
       </defs>
       <use xlink:href="#DejaVuSans-37"/>
       <use xlink:href="#DejaVuSans-2c" x="63.623047"/>
       <use xlink:href="#DejaVuSans-20" x="95.410156"/>
       <use xlink:href="#DejaVuSans-35" x="127.197266"/>
       <use xlink:href="#DejaVuSans-36" x="190.820312"/>
      </g>
     </g>
    </g>
    <g id="xtick_3">
     <g id="line2d_3">
      <g>
       <use xlink:href="#m8d140c23bb" x="399.010909" y="563.904" style="stroke: #000000; stroke-width: 1.6"/>
      </g>
     </g>
     <g id="text_3">
      <!-- 13, 104 -->
      <g transform="translate(378.018097 586.962281)scale(0.11 -0.11)">
       <defs>
        <path id="DejaVuSans-33" d="M 2597 2516 
Q 3050 2419 3304 2112 
Q 3559 1806 3559 1356 
Q 3559 666 3084 287 
Q 2609 -91 1734 -91 
Q 1441 -91 1130 -33 
Q 819 25 488 141 
L 488 750 
Q 750 597 1062 519 
Q 1375 441 1716 441 
Q 2309 441 2620 675 
Q 2931 909 2931 1356 
Q 2931 1769 2642 2001 
Q 2353 2234 1838 2234 
L 1294 2234 
L 1294 2753 
L 1863 2753 
Q 2328 2753 2575 2939 
Q 2822 3125 2822 3475 
Q 2822 3834 2567 4026 
Q 2313 4219 1838 4219 
Q 1578 4219 1281 4162 
Q 984 4106 628 3988 
L 628 4550 
Q 988 4650 1302 4700 
Q 1616 4750 1894 4750 
Q 2613 4750 3031 4423 
Q 3450 4097 3450 3541 
Q 3450 3153 3228 2886 
Q 3006 2619 2597 2516 
z
" transform="scale(0.015625)"/>
        <path id="DejaVuSans-30" d="M 2034 4250 
Q 1547 4250 1301 3770 
Q 1056 3291 1056 2328 
Q 1056 1369 1301 889 
Q 1547 409 2034 409 
Q 2525 409 2770 889 
Q 3016 1369 3016 2328 
Q 3016 3291 2770 3770 
Q 2525 4250 2034 4250 
z
M 2034 4750 
Q 2819 4750 3233 4129 
Q 3647 3509 3647 2328 
Q 3647 1150 3233 529 
Q 2819 -91 2034 -91 
Q 1250 -91 836 529 
Q 422 1150 422 2328 
Q 422 3509 836 4129 
Q 1250 4750 2034 4750 
z
" transform="scale(0.015625)"/>
        <path id="DejaVuSans-34" d="M 2419 4116 
L 825 1625 
L 2419 1625 
L 2419 4116 
z
M 2253 4666 
L 3047 4666 
L 3047 1625 
L 3713 1625 
L 3713 1100 
L 3047 1100 
L 3047 0 
L 2419 0 
L 2419 1100 
L 313 1100 
L 313 1709 
L 2253 4666 
z
" transform="scale(0.015625)"/>
       </defs>
       <use xlink:href="#DejaVuSans-31"/>
       <use xlink:href="#DejaVuSans-33" x="63.623047"/>
       <use xlink:href="#DejaVuSans-2c" x="127.246094"/>
       <use xlink:href="#DejaVuSans-20" x="159.033203"/>
       <use xlink:href="#DejaVuSans-31" x="190.820312"/>
       <use xlink:href="#DejaVuSans-30" x="254.443359"/>
       <use xlink:href="#DejaVuSans-34" x="318.066406"/>
      </g>
     </g>
    </g>
    <g id="xtick_4">
     <g id="line2d_4">
      <g>
       <use xlink:href="#m8d140c23bb" x="524.683636" y="563.904" style="stroke: #000000; stroke-width: 1.6"/>
      </g>
     </g>
     <g id="text_4">
      <!-- 19, 152 -->
      <g transform="translate(503.690824 586.962281)scale(0.11 -0.11)">
       <defs>
        <path id="DejaVuSans-39" d="M 703 97 
L 703 672 
Q 941 559 1184 500 
Q 1428 441 1663 441 
Q 2288 441 2617 861 
Q 2947 1281 2994 2138 
Q 2813 1869 2534 1725 
Q 2256 1581 1919 1581 
Q 1219 1581 811 2004 
Q 403 2428 403 3163 
Q 403 3881 828 4315 
Q 1253 4750 1959 4750 
Q 2769 4750 3195 4129 
Q 3622 3509 3622 2328 
Q 3622 1225 3098 567 
Q 2575 -91 1691 -91 
Q 1453 -91 1209 -44 
Q 966 3 703 97 
z
M 1959 2075 
Q 2384 2075 2632 2365 
Q 2881 2656 2881 3163 
Q 2881 3666 2632 3958 
Q 2384 4250 1959 4250 
Q 1534 4250 1286 3958 
Q 1038 3666 1038 3163 
Q 1038 2656 1286 2365 
Q 1534 2075 1959 2075 
z
" transform="scale(0.015625)"/>
        <path id="DejaVuSans-32" d="M 1228 531 
L 3431 531 
L 3431 0 
L 469 0 
L 469 531 
Q 828 903 1448 1529 
Q 2069 2156 2228 2338 
Q 2531 2678 2651 2914 
Q 2772 3150 2772 3378 
Q 2772 3750 2511 3984 
Q 2250 4219 1831 4219 
Q 1534 4219 1204 4116 
Q 875 4013 500 3803 
L 500 4441 
Q 881 4594 1212 4672 
Q 1544 4750 1819 4750 
Q 2544 4750 2975 4387 
Q 3406 4025 3406 3419 
Q 3406 3131 3298 2873 
Q 3191 2616 2906 2266 
Q 2828 2175 2409 1742 
Q 1991 1309 1228 531 
z
" transform="scale(0.015625)"/>
       </defs>
       <use xlink:href="#DejaVuSans-31"/>
       <use xlink:href="#DejaVuSans-39" x="63.623047"/>
       <use xlink:href="#DejaVuSans-2c" x="127.246094"/>
       <use xlink:href="#DejaVuSans-20" x="159.033203"/>
       <use xlink:href="#DejaVuSans-31" x="190.820312"/>
       <use xlink:href="#DejaVuSans-35" x="254.443359"/>
       <use xlink:href="#DejaVuSans-32" x="318.066406"/>
      </g>
     </g>
    </g>
    <g id="xtick_5">
     <g id="line2d_5">
      <g>
       <use xlink:href="#m8d140c23bb" x="650.356364" y="563.904" style="stroke: #000000; stroke-width: 1.6"/>
      </g>
     </g>
     <g id="text_5">
      <!-- 25, 200 -->
      <g transform="translate(629.363551 586.962281)scale(0.11 -0.11)">
       <use xlink:href="#DejaVuSans-32"/>
       <use xlink:href="#DejaVuSans-35" x="63.623047"/>
       <use xlink:href="#DejaVuSans-2c" x="127.246094"/>
       <use xlink:href="#DejaVuSans-20" x="159.033203"/>
       <use xlink:href="#DejaVuSans-32" x="190.820312"/>
       <use xlink:href="#DejaVuSans-30" x="254.443359"/>
       <use xlink:href="#DejaVuSans-30" x="318.066406"/>
      </g>
     </g>
    </g>
    <g id="xtick_6">
     <g id="line2d_6">
      <g>
       <use xlink:href="#m8d140c23bb" x="776.029091" y="563.904" style="stroke: #000000; stroke-width: 1.6"/>
      </g>
     </g>
     <g id="text_6">
      <!-- 31, 248 -->
      <g transform="translate(755.036278 586.962281)scale(0.11 -0.11)">
       <use xlink:href="#DejaVuSans-33"/>
       <use xlink:href="#DejaVuSans-31" x="63.623047"/>
       <use xlink:href="#DejaVuSans-2c" x="127.246094"/>
       <use xlink:href="#DejaVuSans-20" x="159.033203"/>
       <use xlink:href="#DejaVuSans-32" x="190.820312"/>
       <use xlink:href="#DejaVuSans-34" x="254.443359"/>
       <use xlink:href="#DejaVuSans-38" x="318.066406"/>
      </g>
     </g>
    </g>
    <g id="text_7">
     <!-- Bin number, maximum program size -->
     <g transform="translate(343.975 603.88775)scale(0.14 -0.14)">
      <defs>
       <path id="DejaVuSans-42" d="M 1259 2228 
L 1259 519 
L 2272 519 
Q 2781 519 3026 730 
Q 3272 941 3272 1375 
Q 3272 1813 3026 2020 
Q 2781 2228 2272 2228 
L 1259 2228 
z
M 1259 4147 
L 1259 2741 
L 2194 2741 
Q 2656 2741 2882 2914 
Q 3109 3088 3109 3444 
Q 3109 3797 2882 3972 
Q 2656 4147 2194 4147 
L 1259 4147 
z
M 628 4666 
L 2241 4666 
Q 2963 4666 3353 4366 
Q 3744 4066 3744 3513 
Q 3744 3084 3544 2831 
Q 3344 2578 2956 2516 
Q 3422 2416 3680 2098 
Q 3938 1781 3938 1306 
Q 3938 681 3513 340 
Q 3088 0 2303 0 
L 628 0 
L 628 4666 
z
" transform="scale(0.015625)"/>
       <path id="DejaVuSans-69" d="M 603 3500 
L 1178 3500 
L 1178 0 
L 603 0 
L 603 3500 
z
M 603 4863 
L 1178 4863 
L 1178 4134 
L 603 4134 
L 603 4863 
z
" transform="scale(0.015625)"/>
       <path id="DejaVuSans-6e" d="M 3513 2113 
L 3513 0 
L 2938 0 
L 2938 2094 
Q 2938 2591 2744 2837 
Q 2550 3084 2163 3084 
Q 1697 3084 1428 2787 
Q 1159 2491 1159 1978 
L 1159 0 
L 581 0 
L 581 3500 
L 1159 3500 
L 1159 2956 
Q 1366 3272 1645 3428 
Q 1925 3584 2291 3584 
Q 2894 3584 3203 3211 
Q 3513 2838 3513 2113 
z
" transform="scale(0.015625)"/>
       <path id="DejaVuSans-75" d="M 544 1381 
L 544 3500 
L 1119 3500 
L 1119 1403 
Q 1119 906 1312 657 
Q 1506 409 1894 409 
Q 2359 409 2629 706 
Q 2900 1003 2900 1516 
L 2900 3500 
L 3475 3500 
L 3475 0 
L 2900 0 
L 2900 538 
Q 2691 219 2414 64 
Q 2138 -91 1772 -91 
Q 1169 -91 856 284 
Q 544 659 544 1381 
z
M 1991 3584 
L 1991 3584 
z
" transform="scale(0.015625)"/>
       <path id="DejaVuSans-6d" d="M 3328 2828 
Q 3544 3216 3844 3400 
Q 4144 3584 4550 3584 
Q 5097 3584 5394 3201 
Q 5691 2819 5691 2113 
L 5691 0 
L 5113 0 
L 5113 2094 
Q 5113 2597 4934 2840 
Q 4756 3084 4391 3084 
Q 3944 3084 3684 2787 
Q 3425 2491 3425 1978 
L 3425 0 
L 2847 0 
L 2847 2094 
Q 2847 2600 2669 2842 
Q 2491 3084 2119 3084 
Q 1678 3084 1418 2786 
Q 1159 2488 1159 1978 
L 1159 0 
L 581 0 
L 581 3500 
L 1159 3500 
L 1159 2956 
Q 1356 3278 1631 3431 
Q 1906 3584 2284 3584 
Q 2666 3584 2933 3390 
Q 3200 3197 3328 2828 
z
" transform="scale(0.015625)"/>
       <path id="DejaVuSans-62" d="M 3116 1747 
Q 3116 2381 2855 2742 
Q 2594 3103 2138 3103 
Q 1681 3103 1420 2742 
Q 1159 2381 1159 1747 
Q 1159 1113 1420 752 
Q 1681 391 2138 391 
Q 2594 391 2855 752 
Q 3116 1113 3116 1747 
z
M 1159 2969 
Q 1341 3281 1617 3432 
Q 1894 3584 2278 3584 
Q 2916 3584 3314 3078 
Q 3713 2572 3713 1747 
Q 3713 922 3314 415 
Q 2916 -91 2278 -91 
Q 1894 -91 1617 61 
Q 1341 213 1159 525 
L 1159 0 
L 581 0 
L 581 4863 
L 1159 4863 
L 1159 2969 
z
" transform="scale(0.015625)"/>
       <path id="DejaVuSans-65" d="M 3597 1894 
L 3597 1613 
L 953 1613 
Q 991 1019 1311 708 
Q 1631 397 2203 397 
Q 2534 397 2845 478 
Q 3156 559 3463 722 
L 3463 178 
Q 3153 47 2828 -22 
Q 2503 -91 2169 -91 
Q 1331 -91 842 396 
Q 353 884 353 1716 
Q 353 2575 817 3079 
Q 1281 3584 2069 3584 
Q 2775 3584 3186 3129 
Q 3597 2675 3597 1894 
z
M 3022 2063 
Q 3016 2534 2758 2815 
Q 2500 3097 2075 3097 
Q 1594 3097 1305 2825 
Q 1016 2553 972 2059 
L 3022 2063 
z
" transform="scale(0.015625)"/>
       <path id="DejaVuSans-72" d="M 2631 2963 
Q 2534 3019 2420 3045 
Q 2306 3072 2169 3072 
Q 1681 3072 1420 2755 
Q 1159 2438 1159 1844 
L 1159 0 
L 581 0 
L 581 3500 
L 1159 3500 
L 1159 2956 
Q 1341 3275 1631 3429 
Q 1922 3584 2338 3584 
Q 2397 3584 2469 3576 
Q 2541 3569 2628 3553 
L 2631 2963 
z
" transform="scale(0.015625)"/>
       <path id="DejaVuSans-61" d="M 2194 1759 
Q 1497 1759 1228 1600 
Q 959 1441 959 1056 
Q 959 750 1161 570 
Q 1363 391 1709 391 
Q 2188 391 2477 730 
Q 2766 1069 2766 1631 
L 2766 1759 
L 2194 1759 
z
M 3341 1997 
L 3341 0 
L 2766 0 
L 2766 531 
Q 2569 213 2275 61 
Q 1981 -91 1556 -91 
Q 1019 -91 701 211 
Q 384 513 384 1019 
Q 384 1609 779 1909 
Q 1175 2209 1959 2209 
L 2766 2209 
L 2766 2266 
Q 2766 2663 2505 2880 
Q 2244 3097 1772 3097 
Q 1472 3097 1187 3025 
Q 903 2953 641 2809 
L 641 3341 
Q 956 3463 1253 3523 
Q 1550 3584 1831 3584 
Q 2591 3584 2966 3190 
Q 3341 2797 3341 1997 
z
" transform="scale(0.015625)"/>
       <path id="DejaVuSans-78" d="M 3513 3500 
L 2247 1797 
L 3578 0 
L 2900 0 
L 1881 1375 
L 863 0 
L 184 0 
L 1544 1831 
L 300 3500 
L 978 3500 
L 1906 2253 
L 2834 3500 
L 3513 3500 
z
" transform="scale(0.015625)"/>
       <path id="DejaVuSans-70" d="M 1159 525 
L 1159 -1331 
L 581 -1331 
L 581 3500 
L 1159 3500 
L 1159 2969 
Q 1341 3281 1617 3432 
Q 1894 3584 2278 3584 
Q 2916 3584 3314 3078 
Q 3713 2572 3713 1747 
Q 3713 922 3314 415 
Q 2916 -91 2278 -91 
Q 1894 -91 1617 61 
Q 1341 213 1159 525 
z
M 3116 1747 
Q 3116 2381 2855 2742 
Q 2594 3103 2138 3103 
Q 1681 3103 1420 2742 
Q 1159 2381 1159 1747 
Q 1159 1113 1420 752 
Q 1681 391 2138 391 
Q 2594 391 2855 752 
Q 3116 1113 3116 1747 
z
" transform="scale(0.015625)"/>
       <path id="DejaVuSans-6f" d="M 1959 3097 
Q 1497 3097 1228 2736 
Q 959 2375 959 1747 
Q 959 1119 1226 758 
Q 1494 397 1959 397 
Q 2419 397 2687 759 
Q 2956 1122 2956 1747 
Q 2956 2369 2687 2733 
Q 2419 3097 1959 3097 
z
M 1959 3584 
Q 2709 3584 3137 3096 
Q 3566 2609 3566 1747 
Q 3566 888 3137 398 
Q 2709 -91 1959 -91 
Q 1206 -91 779 398 
Q 353 888 353 1747 
Q 353 2609 779 3096 
Q 1206 3584 1959 3584 
z
" transform="scale(0.015625)"/>
       <path id="DejaVuSans-67" d="M 2906 1791 
Q 2906 2416 2648 2759 
Q 2391 3103 1925 3103 
Q 1463 3103 1205 2759 
Q 947 2416 947 1791 
Q 947 1169 1205 825 
Q 1463 481 1925 481 
Q 2391 481 2648 825 
Q 2906 1169 2906 1791 
z
M 3481 434 
Q 3481 -459 3084 -895 
Q 2688 -1331 1869 -1331 
Q 1566 -1331 1297 -1286 
Q 1028 -1241 775 -1147 
L 775 -588 
Q 1028 -725 1275 -790 
Q 1522 -856 1778 -856 
Q 2344 -856 2625 -561 
Q 2906 -266 2906 331 
L 2906 616 
Q 2728 306 2450 153 
Q 2172 0 1784 0 
Q 1141 0 747 490 
Q 353 981 353 1791 
Q 353 2603 747 3093 
Q 1141 3584 1784 3584 
Q 2172 3584 2450 3431 
Q 2728 3278 2906 2969 
L 2906 3500 
L 3481 3500 
L 3481 434 
z
" transform="scale(0.015625)"/>
       <path id="DejaVuSans-73" d="M 2834 3397 
L 2834 2853 
Q 2591 2978 2328 3040 
Q 2066 3103 1784 3103 
Q 1356 3103 1142 2972 
Q 928 2841 928 2578 
Q 928 2378 1081 2264 
Q 1234 2150 1697 2047 
L 1894 2003 
Q 2506 1872 2764 1633 
Q 3022 1394 3022 966 
Q 3022 478 2636 193 
Q 2250 -91 1575 -91 
Q 1294 -91 989 -36 
Q 684 19 347 128 
L 347 722 
Q 666 556 975 473 
Q 1284 391 1588 391 
Q 1994 391 2212 530 
Q 2431 669 2431 922 
Q 2431 1156 2273 1281 
Q 2116 1406 1581 1522 
L 1381 1569 
Q 847 1681 609 1914 
Q 372 2147 372 2553 
Q 372 3047 722 3315 
Q 1072 3584 1716 3584 
Q 2034 3584 2315 3537 
Q 2597 3491 2834 3397 
z
" transform="scale(0.015625)"/>
       <path id="DejaVuSans-7a" d="M 353 3500 
L 3084 3500 
L 3084 2975 
L 922 459 
L 3084 459 
L 3084 0 
L 275 0 
L 275 525 
L 2438 3041 
L 353 3041 
L 353 3500 
z
" transform="scale(0.015625)"/>
      </defs>
      <use xlink:href="#DejaVuSans-42"/>
      <use xlink:href="#DejaVuSans-69" x="68.603516"/>
      <use xlink:href="#DejaVuSans-6e" x="96.386719"/>
      <use xlink:href="#DejaVuSans-20" x="159.765625"/>
      <use xlink:href="#DejaVuSans-6e" x="191.552734"/>
      <use xlink:href="#DejaVuSans-75" x="254.931641"/>
      <use xlink:href="#DejaVuSans-6d" x="318.310547"/>
      <use xlink:href="#DejaVuSans-62" x="415.722656"/>
      <use xlink:href="#DejaVuSans-65" x="479.199219"/>
      <use xlink:href="#DejaVuSans-72" x="540.722656"/>
      <use xlink:href="#DejaVuSans-2c" x="581.835938"/>
      <use xlink:href="#DejaVuSans-20" x="613.623047"/>
      <use xlink:href="#DejaVuSans-6d" x="645.410156"/>
      <use xlink:href="#DejaVuSans-61" x="742.822266"/>
      <use xlink:href="#DejaVuSans-78" x="804.101562"/>
      <use xlink:href="#DejaVuSans-69" x="863.28125"/>
      <use xlink:href="#DejaVuSans-6d" x="891.064453"/>
      <use xlink:href="#DejaVuSans-75" x="988.476562"/>
      <use xlink:href="#DejaVuSans-6d" x="1051.855469"/>
      <use xlink:href="#DejaVuSans-20" x="1149.267578"/>
      <use xlink:href="#DejaVuSans-70" x="1181.054688"/>
      <use xlink:href="#DejaVuSans-72" x="1244.53125"/>
      <use xlink:href="#DejaVuSans-6f" x="1283.394531"/>
      <use xlink:href="#DejaVuSans-67" x="1344.576172"/>
      <use xlink:href="#DejaVuSans-72" x="1408.052734"/>
      <use xlink:href="#DejaVuSans-61" x="1449.166016"/>
      <use xlink:href="#DejaVuSans-6d" x="1510.445312"/>
      <use xlink:href="#DejaVuSans-20" x="1607.857422"/>
      <use xlink:href="#DejaVuSans-73" x="1639.644531"/>
      <use xlink:href="#DejaVuSans-69" x="1691.744141"/>
      <use xlink:href="#DejaVuSans-7a" x="1719.527344"/>
      <use xlink:href="#DejaVuSans-65" x="1772.017578"/>
     </g>
    </g>
   </g>
   <g id="matplotlib.axis_2">
    <g id="ytick_1">
     <g id="line2d_7">
      <defs>
       <path id="md24f20d3c0" d="M 0 0 
L -3.5 0 
" style="stroke: #000000; stroke-width: 1.6"/>
      </defs>
      <g>
       <use xlink:href="#md24f20d3c0" x="115.2" y="505.324407" style="stroke: #000000; stroke-width: 1.6"/>
      </g>
     </g>
     <g id="text_8">
      <!-- $\mathdefault{10^{8}}$ -->
      <g transform="translate(81.14 509.503547)scale(0.11 -0.11)">
       <use xlink:href="#DejaVuSans-31" transform="translate(0 0.765625)"/>
       <use xlink:href="#DejaVuSans-30" transform="translate(63.623047 0.765625)"/>
       <use xlink:href="#DejaVuSans-38" transform="translate(128.203125 39.046875)scale(0.7)"/>
      </g>
     </g>
    </g>
    <g id="ytick_2">
     <g id="line2d_8">
      <g>
       <use xlink:href="#md24f20d3c0" x="115.2" y="394.425104" style="stroke: #000000; stroke-width: 1.6"/>
      </g>
     </g>
     <g id="text_9">
      <!-- $\mathdefault{10^{9}}$ -->
      <g transform="translate(81.14 398.604245)scale(0.11 -0.11)">
       <use xlink:href="#DejaVuSans-31" transform="translate(0 0.765625)"/>
       <use xlink:href="#DejaVuSans-30" transform="translate(63.623047 0.765625)"/>
       <use xlink:href="#DejaVuSans-39" transform="translate(128.203125 39.046875)scale(0.7)"/>
      </g>
     </g>
    </g>
    <g id="ytick_3">
     <g id="line2d_9">
      <g>
       <use xlink:href="#md24f20d3c0" x="115.2" y="283.525801" style="stroke: #000000; stroke-width: 1.6"/>
      </g>
     </g>
     <g id="text_10">
      <!-- $\mathdefault{10^{10}}$ -->
      <g transform="translate(76.19 287.704942)scale(0.11 -0.11)">
       <use xlink:href="#DejaVuSans-31" transform="translate(0 0.765625)"/>
       <use xlink:href="#DejaVuSans-30" transform="translate(63.623047 0.765625)"/>
       <use xlink:href="#DejaVuSans-31" transform="translate(128.203125 39.046875)scale(0.7)"/>
       <use xlink:href="#DejaVuSans-30" transform="translate(172.739258 39.046875)scale(0.7)"/>
      </g>
     </g>
    </g>
    <g id="ytick_4">
     <g id="line2d_10">
      <g>
       <use xlink:href="#md24f20d3c0" x="115.2" y="172.626498" style="stroke: #000000; stroke-width: 1.6"/>
      </g>
     </g>
     <g id="text_11">
      <!-- $\mathdefault{10^{11}}$ -->
      <g transform="translate(76.19 176.805639)scale(0.11 -0.11)">
       <use xlink:href="#DejaVuSans-31" transform="translate(0 0.684375)"/>
       <use xlink:href="#DejaVuSans-30" transform="translate(63.623047 0.684375)"/>
       <use xlink:href="#DejaVuSans-31" transform="translate(128.203125 38.965625)scale(0.7)"/>
       <use xlink:href="#DejaVuSans-31" transform="translate(172.739258 38.965625)scale(0.7)"/>
      </g>
     </g>
    </g>
    <g id="ytick_5">
     <g id="line2d_11">
      <defs>
       <path id="m60f5c37d53" d="M 0 0 
L -2 0 
" style="stroke: #000000; stroke-width: 0.8"/>
      </defs>
      <g>
       <use xlink:href="#m60f5c37d53" x="115.2" y="563.311295" style="stroke: #000000; stroke-width: 0.8"/>
      </g>
     </g>
    </g>
    <g id="ytick_6">
     <g id="line2d_12">
      <g>
       <use xlink:href="#m60f5c37d53" x="115.2" y="549.455676" style="stroke: #000000; stroke-width: 0.8"/>
      </g>
     </g>
    </g>
    <g id="ytick_7">
     <g id="line2d_13">
      <g>
       <use xlink:href="#m60f5c37d53" x="115.2" y="538.708423" style="stroke: #000000; stroke-width: 0.8"/>
      </g>
     </g>
    </g>
    <g id="ytick_8">
     <g id="line2d_14">
      <g>
       <use xlink:href="#m60f5c37d53" x="115.2" y="529.927278" style="stroke: #000000; stroke-width: 0.8"/>
      </g>
     </g>
    </g>
    <g id="ytick_9">
     <g id="line2d_15">
      <g>
       <use xlink:href="#m60f5c37d53" x="115.2" y="522.502926" style="stroke: #000000; stroke-width: 0.8"/>
      </g>
     </g>
    </g>
    <g id="ytick_10">
     <g id="line2d_16">
      <g>
       <use xlink:href="#m60f5c37d53" x="115.2" y="516.07166" style="stroke: #000000; stroke-width: 0.8"/>
      </g>
     </g>
    </g>
    <g id="ytick_11">
     <g id="line2d_17">
      <g>
       <use xlink:href="#m60f5c37d53" x="115.2" y="510.39888" style="stroke: #000000; stroke-width: 0.8"/>
      </g>
     </g>
    </g>
    <g id="ytick_12">
     <g id="line2d_18">
      <g>
       <use xlink:href="#m60f5c37d53" x="115.2" y="471.94039" style="stroke: #000000; stroke-width: 0.8"/>
      </g>
     </g>
    </g>
    <g id="ytick_13">
     <g id="line2d_19">
      <g>
       <use xlink:href="#m60f5c37d53" x="115.2" y="452.411992" style="stroke: #000000; stroke-width: 0.8"/>
      </g>
     </g>
    </g>
    <g id="ytick_14">
     <g id="line2d_20">
      <g>
       <use xlink:href="#m60f5c37d53" x="115.2" y="438.556373" style="stroke: #000000; stroke-width: 0.8"/>
      </g>
     </g>
    </g>
    <g id="ytick_15">
     <g id="line2d_21">
      <g>
       <use xlink:href="#m60f5c37d53" x="115.2" y="427.809121" style="stroke: #000000; stroke-width: 0.8"/>
      </g>
     </g>
    </g>
    <g id="ytick_16">
     <g id="line2d_22">
      <g>
       <use xlink:href="#m60f5c37d53" x="115.2" y="419.027976" style="stroke: #000000; stroke-width: 0.8"/>
      </g>
     </g>
    </g>
    <g id="ytick_17">
     <g id="line2d_23">
      <g>
       <use xlink:href="#m60f5c37d53" x="115.2" y="411.603623" style="stroke: #000000; stroke-width: 0.8"/>
      </g>
     </g>
    </g>
    <g id="ytick_18">
     <g id="line2d_24">
      <g>
       <use xlink:href="#m60f5c37d53" x="115.2" y="405.172357" style="stroke: #000000; stroke-width: 0.8"/>
      </g>
     </g>
    </g>
    <g id="ytick_19">
     <g id="line2d_25">
      <g>
       <use xlink:href="#m60f5c37d53" x="115.2" y="399.499578" style="stroke: #000000; stroke-width: 0.8"/>
      </g>
     </g>
    </g>
    <g id="ytick_20">
     <g id="line2d_26">
      <g>
       <use xlink:href="#m60f5c37d53" x="115.2" y="361.041087" style="stroke: #000000; stroke-width: 0.8"/>
      </g>
     </g>
    </g>
    <g id="ytick_21">
     <g id="line2d_27">
      <g>
       <use xlink:href="#m60f5c37d53" x="115.2" y="341.512689" style="stroke: #000000; stroke-width: 0.8"/>
      </g>
     </g>
    </g>
    <g id="ytick_22">
     <g id="line2d_28">
      <g>
       <use xlink:href="#m60f5c37d53" x="115.2" y="327.657071" style="stroke: #000000; stroke-width: 0.8"/>
      </g>
     </g>
    </g>
    <g id="ytick_23">
     <g id="line2d_29">
      <g>
       <use xlink:href="#m60f5c37d53" x="115.2" y="316.909818" style="stroke: #000000; stroke-width: 0.8"/>
      </g>
     </g>
    </g>
    <g id="ytick_24">
     <g id="line2d_30">
      <g>
       <use xlink:href="#m60f5c37d53" x="115.2" y="308.128673" style="stroke: #000000; stroke-width: 0.8"/>
      </g>
     </g>
    </g>
    <g id="ytick_25">
     <g id="line2d_31">
      <g>
       <use xlink:href="#m60f5c37d53" x="115.2" y="300.704321" style="stroke: #000000; stroke-width: 0.8"/>
      </g>
     </g>
    </g>
    <g id="ytick_26">
     <g id="line2d_32">
      <g>
       <use xlink:href="#m60f5c37d53" x="115.2" y="294.273054" style="stroke: #000000; stroke-width: 0.8"/>
      </g>
     </g>
    </g>
    <g id="ytick_27">
     <g id="line2d_33">
      <g>
       <use xlink:href="#m60f5c37d53" x="115.2" y="288.600275" style="stroke: #000000; stroke-width: 0.8"/>
      </g>
     </g>
    </g>
    <g id="ytick_28">
     <g id="line2d_34">
      <g>
       <use xlink:href="#m60f5c37d53" x="115.2" y="250.141785" style="stroke: #000000; stroke-width: 0.8"/>
      </g>
     </g>
    </g>
    <g id="ytick_29">
     <g id="line2d_35">
      <g>
       <use xlink:href="#m60f5c37d53" x="115.2" y="230.613387" style="stroke: #000000; stroke-width: 0.8"/>
      </g>
     </g>
    </g>
    <g id="ytick_30">
     <g id="line2d_36">
      <g>
       <use xlink:href="#m60f5c37d53" x="115.2" y="216.757768" style="stroke: #000000; stroke-width: 0.8"/>
      </g>
     </g>
    </g>
    <g id="ytick_31">
     <g id="line2d_37">
      <g>
       <use xlink:href="#m60f5c37d53" x="115.2" y="206.010515" style="stroke: #000000; stroke-width: 0.8"/>
      </g>
     </g>
    </g>
    <g id="ytick_32">
     <g id="line2d_38">
      <g>
       <use xlink:href="#m60f5c37d53" x="115.2" y="197.22937" style="stroke: #000000; stroke-width: 0.8"/>
      </g>
     </g>
    </g>
    <g id="ytick_33">
     <g id="line2d_39">
      <g>
       <use xlink:href="#m60f5c37d53" x="115.2" y="189.805018" style="stroke: #000000; stroke-width: 0.8"/>
      </g>
     </g>
    </g>
    <g id="ytick_34">
     <g id="line2d_40">
      <g>
       <use xlink:href="#m60f5c37d53" x="115.2" y="183.373751" style="stroke: #000000; stroke-width: 0.8"/>
      </g>
     </g>
    </g>
    <g id="ytick_35">
     <g id="line2d_41">
      <g>
       <use xlink:href="#m60f5c37d53" x="115.2" y="177.700972" style="stroke: #000000; stroke-width: 0.8"/>
      </g>
     </g>
    </g>
    <g id="ytick_36">
     <g id="line2d_42">
      <g>
       <use xlink:href="#m60f5c37d53" x="115.2" y="139.242482" style="stroke: #000000; stroke-width: 0.8"/>
      </g>
     </g>
    </g>
    <g id="ytick_37">
     <g id="line2d_43">
      <g>
       <use xlink:href="#m60f5c37d53" x="115.2" y="119.714084" style="stroke: #000000; stroke-width: 0.8"/>
      </g>
     </g>
    </g>
    <g id="ytick_38">
     <g id="line2d_44">
      <g>
       <use xlink:href="#m60f5c37d53" x="115.2" y="105.858465" style="stroke: #000000; stroke-width: 0.8"/>
      </g>
     </g>
    </g>
    <g id="ytick_39">
     <g id="line2d_45">
      <g>
       <use xlink:href="#m60f5c37d53" x="115.2" y="95.111212" style="stroke: #000000; stroke-width: 0.8"/>
      </g>
     </g>
    </g>
    <g id="ytick_40">
     <g id="line2d_46">
      <g>
       <use xlink:href="#m60f5c37d53" x="115.2" y="86.330067" style="stroke: #000000; stroke-width: 0.8"/>
      </g>
     </g>
    </g>
    <g id="ytick_41">
     <g id="line2d_47">
      <g>
       <use xlink:href="#m60f5c37d53" x="115.2" y="78.905715" style="stroke: #000000; stroke-width: 0.8"/>
      </g>
     </g>
    </g>
    <g id="text_12">
     <!-- Node evaluations per second (NEPS) -->
     <g transform="translate(69.278437 447.984875)rotate(-90)scale(0.14 -0.14)">
      <defs>
       <path id="DejaVuSans-4e" d="M 628 4666 
L 1478 4666 
L 3547 763 
L 3547 4666 
L 4159 4666 
L 4159 0 
L 3309 0 
L 1241 3903 
L 1241 0 
L 628 0 
L 628 4666 
z
" transform="scale(0.015625)"/>
       <path id="DejaVuSans-64" d="M 2906 2969 
L 2906 4863 
L 3481 4863 
L 3481 0 
L 2906 0 
L 2906 525 
Q 2725 213 2448 61 
Q 2172 -91 1784 -91 
Q 1150 -91 751 415 
Q 353 922 353 1747 
Q 353 2572 751 3078 
Q 1150 3584 1784 3584 
Q 2172 3584 2448 3432 
Q 2725 3281 2906 2969 
z
M 947 1747 
Q 947 1113 1208 752 
Q 1469 391 1925 391 
Q 2381 391 2643 752 
Q 2906 1113 2906 1747 
Q 2906 2381 2643 2742 
Q 2381 3103 1925 3103 
Q 1469 3103 1208 2742 
Q 947 2381 947 1747 
z
" transform="scale(0.015625)"/>
       <path id="DejaVuSans-76" d="M 191 3500 
L 800 3500 
L 1894 563 
L 2988 3500 
L 3597 3500 
L 2284 0 
L 1503 0 
L 191 3500 
z
" transform="scale(0.015625)"/>
       <path id="DejaVuSans-6c" d="M 603 4863 
L 1178 4863 
L 1178 0 
L 603 0 
L 603 4863 
z
" transform="scale(0.015625)"/>
       <path id="DejaVuSans-74" d="M 1172 4494 
L 1172 3500 
L 2356 3500 
L 2356 3053 
L 1172 3053 
L 1172 1153 
Q 1172 725 1289 603 
Q 1406 481 1766 481 
L 2356 481 
L 2356 0 
L 1766 0 
Q 1100 0 847 248 
Q 594 497 594 1153 
L 594 3053 
L 172 3053 
L 172 3500 
L 594 3500 
L 594 4494 
L 1172 4494 
z
" transform="scale(0.015625)"/>
       <path id="DejaVuSans-63" d="M 3122 3366 
L 3122 2828 
Q 2878 2963 2633 3030 
Q 2388 3097 2138 3097 
Q 1578 3097 1268 2742 
Q 959 2388 959 1747 
Q 959 1106 1268 751 
Q 1578 397 2138 397 
Q 2388 397 2633 464 
Q 2878 531 3122 666 
L 3122 134 
Q 2881 22 2623 -34 
Q 2366 -91 2075 -91 
Q 1284 -91 818 406 
Q 353 903 353 1747 
Q 353 2603 823 3093 
Q 1294 3584 2113 3584 
Q 2378 3584 2631 3529 
Q 2884 3475 3122 3366 
z
" transform="scale(0.015625)"/>
       <path id="DejaVuSans-28" d="M 1984 4856 
Q 1566 4138 1362 3434 
Q 1159 2731 1159 2009 
Q 1159 1288 1364 580 
Q 1569 -128 1984 -844 
L 1484 -844 
Q 1016 -109 783 600 
Q 550 1309 550 2009 
Q 550 2706 781 3412 
Q 1013 4119 1484 4856 
L 1984 4856 
z
" transform="scale(0.015625)"/>
       <path id="DejaVuSans-45" d="M 628 4666 
L 3578 4666 
L 3578 4134 
L 1259 4134 
L 1259 2753 
L 3481 2753 
L 3481 2222 
L 1259 2222 
L 1259 531 
L 3634 531 
L 3634 0 
L 628 0 
L 628 4666 
z
" transform="scale(0.015625)"/>
       <path id="DejaVuSans-50" d="M 1259 4147 
L 1259 2394 
L 2053 2394 
Q 2494 2394 2734 2622 
Q 2975 2850 2975 3272 
Q 2975 3691 2734 3919 
Q 2494 4147 2053 4147 
L 1259 4147 
z
M 628 4666 
L 2053 4666 
Q 2838 4666 3239 4311 
Q 3641 3956 3641 3272 
Q 3641 2581 3239 2228 
Q 2838 1875 2053 1875 
L 1259 1875 
L 1259 0 
L 628 0 
L 628 4666 
z
" transform="scale(0.015625)"/>
       <path id="DejaVuSans-53" d="M 3425 4513 
L 3425 3897 
Q 3066 4069 2747 4153 
Q 2428 4238 2131 4238 
Q 1616 4238 1336 4038 
Q 1056 3838 1056 3469 
Q 1056 3159 1242 3001 
Q 1428 2844 1947 2747 
L 2328 2669 
Q 3034 2534 3370 2195 
Q 3706 1856 3706 1288 
Q 3706 609 3251 259 
Q 2797 -91 1919 -91 
Q 1588 -91 1214 -16 
Q 841 59 441 206 
L 441 856 
Q 825 641 1194 531 
Q 1563 422 1919 422 
Q 2459 422 2753 634 
Q 3047 847 3047 1241 
Q 3047 1584 2836 1778 
Q 2625 1972 2144 2069 
L 1759 2144 
Q 1053 2284 737 2584 
Q 422 2884 422 3419 
Q 422 4038 858 4394 
Q 1294 4750 2059 4750 
Q 2388 4750 2728 4690 
Q 3069 4631 3425 4513 
z
" transform="scale(0.015625)"/>
       <path id="DejaVuSans-29" d="M 513 4856 
L 1013 4856 
Q 1481 4119 1714 3412 
Q 1947 2706 1947 2009 
Q 1947 1309 1714 600 
Q 1481 -109 1013 -844 
L 513 -844 
Q 928 -128 1133 580 
Q 1338 1288 1338 2009 
Q 1338 2731 1133 3434 
Q 928 4138 513 4856 
z
" transform="scale(0.015625)"/>
      </defs>
      <use xlink:href="#DejaVuSans-4e"/>
      <use xlink:href="#DejaVuSans-6f" x="74.804688"/>
      <use xlink:href="#DejaVuSans-64" x="135.986328"/>
      <use xlink:href="#DejaVuSans-65" x="199.462891"/>
      <use xlink:href="#DejaVuSans-20" x="260.986328"/>
      <use xlink:href="#DejaVuSans-65" x="292.773438"/>
      <use xlink:href="#DejaVuSans-76" x="354.296875"/>
      <use xlink:href="#DejaVuSans-61" x="413.476562"/>
      <use xlink:href="#DejaVuSans-6c" x="474.755859"/>
      <use xlink:href="#DejaVuSans-75" x="502.539062"/>
      <use xlink:href="#DejaVuSans-61" x="565.917969"/>
      <use xlink:href="#DejaVuSans-74" x="627.197266"/>
      <use xlink:href="#DejaVuSans-69" x="666.40625"/>
      <use xlink:href="#DejaVuSans-6f" x="694.189453"/>
      <use xlink:href="#DejaVuSans-6e" x="755.371094"/>
      <use xlink:href="#DejaVuSans-73" x="818.75"/>
      <use xlink:href="#DejaVuSans-20" x="870.849609"/>
      <use xlink:href="#DejaVuSans-70" x="902.636719"/>
      <use xlink:href="#DejaVuSans-65" x="966.113281"/>
      <use xlink:href="#DejaVuSans-72" x="1027.636719"/>
      <use xlink:href="#DejaVuSans-20" x="1068.75"/>
      <use xlink:href="#DejaVuSans-73" x="1100.537109"/>
      <use xlink:href="#DejaVuSans-65" x="1152.636719"/>
      <use xlink:href="#DejaVuSans-63" x="1214.160156"/>
      <use xlink:href="#DejaVuSans-6f" x="1269.140625"/>
      <use xlink:href="#DejaVuSans-6e" x="1330.322266"/>
      <use xlink:href="#DejaVuSans-64" x="1393.701172"/>
      <use xlink:href="#DejaVuSans-20" x="1457.177734"/>
      <use xlink:href="#DejaVuSans-28" x="1488.964844"/>
      <use xlink:href="#DejaVuSans-4e" x="1527.978516"/>
      <use xlink:href="#DejaVuSans-45" x="1602.783203"/>
      <use xlink:href="#DejaVuSans-50" x="1665.966797"/>
      <use xlink:href="#DejaVuSans-53" x="1726.269531"/>
      <use xlink:href="#DejaVuSans-29" x="1789.746094"/>
     </g>
    </g>
   </g>
   <g id="line2d_48">
    <path d="M 147.665455 541.728 
L 168.610909 512.480693 
L 189.556364 503.855513 
L 210.501818 497.040493 
L 231.447273 493.395725 
L 252.392727 490.146302 
L 273.338182 488.640172 
L 294.283636 486.733503 
L 315.229091 485.469952 
L 336.174545 484.12926 
L 357.12 483.594196 
L 378.065455 481.793826 
L 399.010909 482.82805 
L 419.956364 480.2577 
L 440.901818 479.878235 
L 461.847273 478.730392 
L 482.792727 479.386302 
L 503.738182 478.232094 
L 524.683636 477.72533 
L 545.629091 479.000191 
L 566.574545 477.964936 
L 587.52 477.614488 
L 608.465455 476.235885 
L 629.410909 476.622009 
L 650.356364 476.068728 
L 671.301818 475.893128 
L 692.247273 476.141199 
L 713.192727 474.890785 
L 734.138182 475.605454 
L 755.083636 474.184947 
L 776.029091 474.258651 
L 796.974545 473.589488 
" clip-path="url(#p212c06576b)" style="fill: none; stroke: #000000; stroke-width: 0.1; stroke-linecap: square"/>
    <defs>
     <path id="mafa70acccf" d="M -3 6 
L 0 3 
L 3 6 
L 6 3 
L 3 0 
L 6 -3 
L 3 -6 
L 0 -3 
L -3 -6 
L -6 -3 
L -3 0 
L -6 3 
z
"/>
    </defs>
    <g clip-path="url(#p212c06576b)">
     <use xlink:href="#mafa70acccf" x="147.665455" y="541.728" style="fill: #17becf"/>
     <use xlink:href="#mafa70acccf" x="168.610909" y="512.480693" style="fill: #17becf"/>
     <use xlink:href="#mafa70acccf" x="189.556364" y="503.855513" style="fill: #17becf"/>
     <use xlink:href="#mafa70acccf" x="210.501818" y="497.040493" style="fill: #17becf"/>
     <use xlink:href="#mafa70acccf" x="231.447273" y="493.395725" style="fill: #17becf"/>
     <use xlink:href="#mafa70acccf" x="252.392727" y="490.146302" style="fill: #17becf"/>
     <use xlink:href="#mafa70acccf" x="273.338182" y="488.640172" style="fill: #17becf"/>
     <use xlink:href="#mafa70acccf" x="294.283636" y="486.733503" style="fill: #17becf"/>
     <use xlink:href="#mafa70acccf" x="315.229091" y="485.469952" style="fill: #17becf"/>
     <use xlink:href="#mafa70acccf" x="336.174545" y="484.12926" style="fill: #17becf"/>
     <use xlink:href="#mafa70acccf" x="357.12" y="483.594196" style="fill: #17becf"/>
     <use xlink:href="#mafa70acccf" x="378.065455" y="481.793826" style="fill: #17becf"/>
     <use xlink:href="#mafa70acccf" x="399.010909" y="482.82805" style="fill: #17becf"/>
     <use xlink:href="#mafa70acccf" x="419.956364" y="480.2577" style="fill: #17becf"/>
     <use xlink:href="#mafa70acccf" x="440.901818" y="479.878235" style="fill: #17becf"/>
     <use xlink:href="#mafa70acccf" x="461.847273" y="478.730392" style="fill: #17becf"/>
     <use xlink:href="#mafa70acccf" x="482.792727" y="479.386302" style="fill: #17becf"/>
     <use xlink:href="#mafa70acccf" x="503.738182" y="478.232094" style="fill: #17becf"/>
     <use xlink:href="#mafa70acccf" x="524.683636" y="477.72533" style="fill: #17becf"/>
     <use xlink:href="#mafa70acccf" x="545.629091" y="479.000191" style="fill: #17becf"/>
     <use xlink:href="#mafa70acccf" x="566.574545" y="477.964936" style="fill: #17becf"/>
     <use xlink:href="#mafa70acccf" x="587.52" y="477.614488" style="fill: #17becf"/>
     <use xlink:href="#mafa70acccf" x="608.465455" y="476.235885" style="fill: #17becf"/>
     <use xlink:href="#mafa70acccf" x="629.410909" y="476.622009" style="fill: #17becf"/>
     <use xlink:href="#mafa70acccf" x="650.356364" y="476.068728" style="fill: #17becf"/>
     <use xlink:href="#mafa70acccf" x="671.301818" y="475.893128" style="fill: #17becf"/>
     <use xlink:href="#mafa70acccf" x="692.247273" y="476.141199" style="fill: #17becf"/>
     <use xlink:href="#mafa70acccf" x="713.192727" y="474.890785" style="fill: #17becf"/>
     <use xlink:href="#mafa70acccf" x="734.138182" y="475.605454" style="fill: #17becf"/>
     <use xlink:href="#mafa70acccf" x="755.083636" y="474.184947" style="fill: #17becf"/>
     <use xlink:href="#mafa70acccf" x="776.029091" y="474.258651" style="fill: #17becf"/>
     <use xlink:href="#mafa70acccf" x="796.974545" y="473.589488" style="fill: #17becf"/>
    </g>
   </g>
   <g id="line2d_49">
    <path d="M 115.2 394.425104 
L 829.44 394.425104 
" clip-path="url(#p212c06576b)" style="fill: none; stroke-dasharray: 10.36,4.48; stroke-dashoffset: 0; stroke: #808080; stroke-width: 2.8"/>
   </g>
   <g id="line2d_50">
    <path d="M 147.665455 441.572324 
L 168.610909 411.510927 
L 189.556364 401.98646 
L 210.501818 394.314423 
L 231.447273 390.470228 
L 252.392727 386.422824 
L 273.338182 383.423299 
L 294.283636 379.774685 
L 315.229091 378.424448 
L 336.174545 375.687915 
L 357.12 373.787017 
L 378.065455 370.691339 
L 399.010909 369.881965 
L 419.956364 368.434456 
L 440.901818 367.59108 
L 461.847273 363.60239 
L 482.792727 367.695854 
L 503.738182 366.85995 
L 524.683636 364.599905 
L 545.629091 363.692264 
L 566.574545 363.007607 
L 587.52 362.149246 
L 608.465455 361.004105 
L 629.410909 359.728592 
L 650.356364 360.408264 
L 671.301818 359.979061 
L 692.247273 358.643506 
L 713.192727 358.253636 
L 734.138182 357.750564 
L 755.083636 356.86852 
L 776.029091 356.574047 
L 796.974545 355.601339 
" clip-path="url(#p212c06576b)" style="fill: none; stroke: #000000; stroke-width: 0.1; stroke-linecap: square"/>
    <defs>
     <path id="m5b356c6a41" d="M 0 -6 
L -6 6 
L 6 6 
z
"/>
    </defs>
    <g clip-path="url(#p212c06576b)">
     <use xlink:href="#m5b356c6a41" x="147.665455" y="441.572324" style="fill: #9467bd"/>
     <use xlink:href="#m5b356c6a41" x="168.610909" y="411.510927" style="fill: #9467bd"/>
     <use xlink:href="#m5b356c6a41" x="189.556364" y="401.98646" style="fill: #9467bd"/>
     <use xlink:href="#m5b356c6a41" x="210.501818" y="394.314423" style="fill: #9467bd"/>
     <use xlink:href="#m5b356c6a41" x="231.447273" y="390.470228" style="fill: #9467bd"/>
     <use xlink:href="#m5b356c6a41" x="252.392727" y="386.422824" style="fill: #9467bd"/>
     <use xlink:href="#m5b356c6a41" x="273.338182" y="383.423299" style="fill: #9467bd"/>
     <use xlink:href="#m5b356c6a41" x="294.283636" y="379.774685" style="fill: #9467bd"/>
     <use xlink:href="#m5b356c6a41" x="315.229091" y="378.424448" style="fill: #9467bd"/>
     <use xlink:href="#m5b356c6a41" x="336.174545" y="375.687915" style="fill: #9467bd"/>
     <use xlink:href="#m5b356c6a41" x="357.12" y="373.787017" style="fill: #9467bd"/>
     <use xlink:href="#m5b356c6a41" x="378.065455" y="370.691339" style="fill: #9467bd"/>
     <use xlink:href="#m5b356c6a41" x="399.010909" y="369.881965" style="fill: #9467bd"/>
     <use xlink:href="#m5b356c6a41" x="419.956364" y="368.434456" style="fill: #9467bd"/>
     <use xlink:href="#m5b356c6a41" x="440.901818" y="367.59108" style="fill: #9467bd"/>
     <use xlink:href="#m5b356c6a41" x="461.847273" y="363.60239" style="fill: #9467bd"/>
     <use xlink:href="#m5b356c6a41" x="482.792727" y="367.695854" style="fill: #9467bd"/>
     <use xlink:href="#m5b356c6a41" x="503.738182" y="366.85995" style="fill: #9467bd"/>
     <use xlink:href="#m5b356c6a41" x="524.683636" y="364.599905" style="fill: #9467bd"/>
     <use xlink:href="#m5b356c6a41" x="545.629091" y="363.692264" style="fill: #9467bd"/>
     <use xlink:href="#m5b356c6a41" x="566.574545" y="363.007607" style="fill: #9467bd"/>
     <use xlink:href="#m5b356c6a41" x="587.52" y="362.149246" style="fill: #9467bd"/>
     <use xlink:href="#m5b356c6a41" x="608.465455" y="361.004105" style="fill: #9467bd"/>
     <use xlink:href="#m5b356c6a41" x="629.410909" y="359.728592" style="fill: #9467bd"/>
     <use xlink:href="#m5b356c6a41" x="650.356364" y="360.408264" style="fill: #9467bd"/>
     <use xlink:href="#m5b356c6a41" x="671.301818" y="359.979061" style="fill: #9467bd"/>
     <use xlink:href="#m5b356c6a41" x="692.247273" y="358.643506" style="fill: #9467bd"/>
     <use xlink:href="#m5b356c6a41" x="713.192727" y="358.253636" style="fill: #9467bd"/>
     <use xlink:href="#m5b356c6a41" x="734.138182" y="357.750564" style="fill: #9467bd"/>
     <use xlink:href="#m5b356c6a41" x="755.083636" y="356.86852" style="fill: #9467bd"/>
     <use xlink:href="#m5b356c6a41" x="776.029091" y="356.574047" style="fill: #9467bd"/>
     <use xlink:href="#m5b356c6a41" x="796.974545" y="355.601339" style="fill: #9467bd"/>
    </g>
   </g>
   <g id="line2d_51">
    <path d="M 115.2 394.425104 
L 829.44 394.425104 
" clip-path="url(#p212c06576b)" style="fill: none; stroke-dasharray: 10.36,4.48; stroke-dashoffset: 0; stroke: #808080; stroke-width: 2.8"/>
   </g>
   <g id="line2d_52">
    <path d="M 147.665455 443.431671 
L 168.610909 417.631991 
L 189.556364 410.535621 
L 210.501818 404.918604 
L 231.447273 398.104661 
L 252.392727 394.561957 
L 273.338182 392.264184 
L 294.283636 389.172644 
L 315.229091 387.217148 
L 336.174545 384.66258 
L 357.12 382.98821 
L 378.065455 380.687012 
L 399.010909 379.976813 
L 419.956364 378.869091 
L 440.901818 377.814451 
L 461.847273 374.837913 
L 482.792727 377.837931 
L 503.738182 377.143824 
L 524.683636 375.588515 
L 545.629091 375.214461 
L 566.574545 374.435665 
L 587.52 373.771171 
L 608.465455 373.144789 
L 629.410909 372.456201 
L 650.356364 371.952822 
L 671.301818 371.671522 
L 692.247273 370.966567 
L 713.192727 370.80292 
L 734.138182 370.380859 
L 755.083636 369.446786 
L 776.029091 369.39042 
L 796.974545 368.787861 
" clip-path="url(#p212c06576b)" style="fill: none; stroke: #000000; stroke-width: 0.1; stroke-linecap: square"/>
    <defs>
     <path id="mb12ca758a5" d="M 0 3 
C 0.795609 3 1.55874 2.683901 2.12132 2.12132 
C 2.683901 1.55874 3 0.795609 3 0 
C 3 -0.795609 2.683901 -1.55874 2.12132 -2.12132 
C 1.55874 -2.683901 0.795609 -3 0 -3 
C -0.795609 -3 -1.55874 -2.683901 -2.12132 -2.12132 
C -2.683901 -1.55874 -3 -0.795609 -3 0 
C -3 0.795609 -2.683901 1.55874 -2.12132 2.12132 
C -1.55874 2.683901 -0.795609 3 0 3 
z
"/>
    </defs>
    <g clip-path="url(#p212c06576b)">
     <use xlink:href="#mb12ca758a5" x="147.665455" y="443.431671" style="fill: #1f77b4"/>
     <use xlink:href="#mb12ca758a5" x="168.610909" y="417.631991" style="fill: #1f77b4"/>
     <use xlink:href="#mb12ca758a5" x="189.556364" y="410.535621" style="fill: #1f77b4"/>
     <use xlink:href="#mb12ca758a5" x="210.501818" y="404.918604" style="fill: #1f77b4"/>
     <use xlink:href="#mb12ca758a5" x="231.447273" y="398.104661" style="fill: #1f77b4"/>
     <use xlink:href="#mb12ca758a5" x="252.392727" y="394.561957" style="fill: #1f77b4"/>
     <use xlink:href="#mb12ca758a5" x="273.338182" y="392.264184" style="fill: #1f77b4"/>
     <use xlink:href="#mb12ca758a5" x="294.283636" y="389.172644" style="fill: #1f77b4"/>
     <use xlink:href="#mb12ca758a5" x="315.229091" y="387.217148" style="fill: #1f77b4"/>
     <use xlink:href="#mb12ca758a5" x="336.174545" y="384.66258" style="fill: #1f77b4"/>
     <use xlink:href="#mb12ca758a5" x="357.12" y="382.98821" style="fill: #1f77b4"/>
     <use xlink:href="#mb12ca758a5" x="378.065455" y="380.687012" style="fill: #1f77b4"/>
     <use xlink:href="#mb12ca758a5" x="399.010909" y="379.976813" style="fill: #1f77b4"/>
     <use xlink:href="#mb12ca758a5" x="419.956364" y="378.869091" style="fill: #1f77b4"/>
     <use xlink:href="#mb12ca758a5" x="440.901818" y="377.814451" style="fill: #1f77b4"/>
     <use xlink:href="#mb12ca758a5" x="461.847273" y="374.837913" style="fill: #1f77b4"/>
     <use xlink:href="#mb12ca758a5" x="482.792727" y="377.837931" style="fill: #1f77b4"/>
     <use xlink:href="#mb12ca758a5" x="503.738182" y="377.143824" style="fill: #1f77b4"/>
     <use xlink:href="#mb12ca758a5" x="524.683636" y="375.588515" style="fill: #1f77b4"/>
     <use xlink:href="#mb12ca758a5" x="545.629091" y="375.214461" style="fill: #1f77b4"/>
     <use xlink:href="#mb12ca758a5" x="566.574545" y="374.435665" style="fill: #1f77b4"/>
     <use xlink:href="#mb12ca758a5" x="587.52" y="373.771171" style="fill: #1f77b4"/>
     <use xlink:href="#mb12ca758a5" x="608.465455" y="373.144789" style="fill: #1f77b4"/>
     <use xlink:href="#mb12ca758a5" x="629.410909" y="372.456201" style="fill: #1f77b4"/>
     <use xlink:href="#mb12ca758a5" x="650.356364" y="371.952822" style="fill: #1f77b4"/>
     <use xlink:href="#mb12ca758a5" x="671.301818" y="371.671522" style="fill: #1f77b4"/>
     <use xlink:href="#mb12ca758a5" x="692.247273" y="370.966567" style="fill: #1f77b4"/>
     <use xlink:href="#mb12ca758a5" x="713.192727" y="370.80292" style="fill: #1f77b4"/>
     <use xlink:href="#mb12ca758a5" x="734.138182" y="370.380859" style="fill: #1f77b4"/>
     <use xlink:href="#mb12ca758a5" x="755.083636" y="369.446786" style="fill: #1f77b4"/>
     <use xlink:href="#mb12ca758a5" x="776.029091" y="369.39042" style="fill: #1f77b4"/>
     <use xlink:href="#mb12ca758a5" x="796.974545" y="368.787861" style="fill: #1f77b4"/>
    </g>
   </g>
   <g id="line2d_53">
    <path d="M 115.2 394.425104 
L 829.44 394.425104 
" clip-path="url(#p212c06576b)" style="fill: none; stroke-dasharray: 10.36,4.48; stroke-dashoffset: 0; stroke: #808080; stroke-width: 2.8"/>
   </g>
   <g id="line2d_54">
    <path d="M 147.665455 242.111729 
L 168.610909 236.438857 
L 189.556364 232.101889 
L 210.501818 228.376804 
L 231.447273 225.882968 
L 252.392727 222.524673 
L 273.338182 217.588047 
L 294.283636 213.856955 
L 315.229091 213.489721 
L 336.174545 207.064146 
L 357.12 203.332625 
L 378.065455 197.351777 
L 399.010909 199.080201 
L 419.956364 191.945114 
L 440.901818 186.970567 
L 461.847273 181.803294 
L 482.792727 193.4717 
L 503.738182 190.104645 
L 524.683636 183.354187 
L 545.629091 180.075623 
L 566.574545 177.372686 
L 587.52 171.791288 
L 608.465455 171.855446 
L 629.410909 165.56847 
L 650.356364 171.914902 
L 671.301818 166.484048 
L 692.247273 163.55187 
L 713.192727 157.463808 
L 734.138182 161.844933 
L 755.083636 156.244755 
L 776.029091 154.119883 
L 796.974545 150.717709 
" clip-path="url(#p212c06576b)" style="fill: none; stroke: #000000; stroke-width: 0.1; stroke-linecap: square"/>
    <defs>
     <path id="m432524514a" d="M -0 8.485281 
L 5.091169 0 
L 0 -8.485281 
L -5.091169 -0 
z
"/>
    </defs>
    <g clip-path="url(#p212c06576b)">
     <use xlink:href="#m432524514a" x="147.665455" y="242.111729" style="fill: #2ca02c"/>
     <use xlink:href="#m432524514a" x="168.610909" y="236.438857" style="fill: #2ca02c"/>
     <use xlink:href="#m432524514a" x="189.556364" y="232.101889" style="fill: #2ca02c"/>
     <use xlink:href="#m432524514a" x="210.501818" y="228.376804" style="fill: #2ca02c"/>
     <use xlink:href="#m432524514a" x="231.447273" y="225.882968" style="fill: #2ca02c"/>
     <use xlink:href="#m432524514a" x="252.392727" y="222.524673" style="fill: #2ca02c"/>
     <use xlink:href="#m432524514a" x="273.338182" y="217.588047" style="fill: #2ca02c"/>
     <use xlink:href="#m432524514a" x="294.283636" y="213.856955" style="fill: #2ca02c"/>
     <use xlink:href="#m432524514a" x="315.229091" y="213.489721" style="fill: #2ca02c"/>
     <use xlink:href="#m432524514a" x="336.174545" y="207.064146" style="fill: #2ca02c"/>
     <use xlink:href="#m432524514a" x="357.12" y="203.332625" style="fill: #2ca02c"/>
     <use xlink:href="#m432524514a" x="378.065455" y="197.351777" style="fill: #2ca02c"/>
     <use xlink:href="#m432524514a" x="399.010909" y="199.080201" style="fill: #2ca02c"/>
     <use xlink:href="#m432524514a" x="419.956364" y="191.945114" style="fill: #2ca02c"/>
     <use xlink:href="#m432524514a" x="440.901818" y="186.970567" style="fill: #2ca02c"/>
     <use xlink:href="#m432524514a" x="461.847273" y="181.803294" style="fill: #2ca02c"/>
     <use xlink:href="#m432524514a" x="482.792727" y="193.4717" style="fill: #2ca02c"/>
     <use xlink:href="#m432524514a" x="503.738182" y="190.104645" style="fill: #2ca02c"/>
     <use xlink:href="#m432524514a" x="524.683636" y="183.354187" style="fill: #2ca02c"/>
     <use xlink:href="#m432524514a" x="545.629091" y="180.075623" style="fill: #2ca02c"/>
     <use xlink:href="#m432524514a" x="566.574545" y="177.372686" style="fill: #2ca02c"/>
     <use xlink:href="#m432524514a" x="587.52" y="171.791288" style="fill: #2ca02c"/>
     <use xlink:href="#m432524514a" x="608.465455" y="171.855446" style="fill: #2ca02c"/>
     <use xlink:href="#m432524514a" x="629.410909" y="165.56847" style="fill: #2ca02c"/>
     <use xlink:href="#m432524514a" x="650.356364" y="171.914902" style="fill: #2ca02c"/>
     <use xlink:href="#m432524514a" x="671.301818" y="166.484048" style="fill: #2ca02c"/>
     <use xlink:href="#m432524514a" x="692.247273" y="163.55187" style="fill: #2ca02c"/>
     <use xlink:href="#m432524514a" x="713.192727" y="157.463808" style="fill: #2ca02c"/>
     <use xlink:href="#m432524514a" x="734.138182" y="161.844933" style="fill: #2ca02c"/>
     <use xlink:href="#m432524514a" x="755.083636" y="156.244755" style="fill: #2ca02c"/>
     <use xlink:href="#m432524514a" x="776.029091" y="154.119883" style="fill: #2ca02c"/>
     <use xlink:href="#m432524514a" x="796.974545" y="150.717709" style="fill: #2ca02c"/>
    </g>
   </g>
   <g id="line2d_55">
    <path d="M 115.2 394.425104 
L 829.44 394.425104 
" clip-path="url(#p212c06576b)" style="fill: none; stroke-dasharray: 10.36,4.48; stroke-dashoffset: 0; stroke: #808080; stroke-width: 2.8"/>
   </g>
   <g id="line2d_56">
    <path d="M 147.665455 282.970077 
L 168.610909 241.97448 
L 189.556364 218.330006 
L 210.501818 202.799365 
L 231.447273 191.048734 
L 252.392727 181.479507 
L 273.338182 173.609208 
L 294.283636 166.888694 
L 315.229091 160.824254 
L 336.174545 155.568696 
L 357.12 150.791222 
L 378.065455 146.499046 
L 399.010909 142.477808 
L 419.956364 138.761 
L 440.901818 135.261771 
L 461.847273 132.212128 
L 482.792727 129.149081 
L 503.738182 126.352852 
L 524.683636 123.666588 
L 545.629091 121.163486 
L 566.574545 118.728774 
L 587.52 116.447245 
L 608.465455 114.282059 
L 629.410909 112.206601 
L 650.356364 110.175654 
L 671.301818 108.232185 
L 692.247273 106.417005 
L 713.192727 104.622181 
L 734.138182 102.905591 
L 755.083636 101.249944 
L 776.029091 99.660109 
L 796.974545 98.208 
" clip-path="url(#p212c06576b)" style="fill: none; stroke: #000000; stroke-width: 0.1; stroke-linecap: square"/>
    <defs>
     <path id="m54e5c9d60a" d="M 0 -6 
L -1.347084 -1.854102 
L -5.706339 -1.854102 
L -2.179628 0.708204 
L -3.526712 4.854102 
L -0 2.291796 
L 3.526712 4.854102 
L 2.179628 0.708204 
L 5.706339 -1.854102 
L 1.347084 -1.854102 
z
"/>
    </defs>
    <g clip-path="url(#p212c06576b)">
     <use xlink:href="#m54e5c9d60a" x="147.665455" y="282.970077" style="fill: #d62728"/>
     <use xlink:href="#m54e5c9d60a" x="168.610909" y="241.97448" style="fill: #d62728"/>
     <use xlink:href="#m54e5c9d60a" x="189.556364" y="218.330006" style="fill: #d62728"/>
     <use xlink:href="#m54e5c9d60a" x="210.501818" y="202.799365" style="fill: #d62728"/>
     <use xlink:href="#m54e5c9d60a" x="231.447273" y="191.048734" style="fill: #d62728"/>
     <use xlink:href="#m54e5c9d60a" x="252.392727" y="181.479507" style="fill: #d62728"/>
     <use xlink:href="#m54e5c9d60a" x="273.338182" y="173.609208" style="fill: #d62728"/>
     <use xlink:href="#m54e5c9d60a" x="294.283636" y="166.888694" style="fill: #d62728"/>
     <use xlink:href="#m54e5c9d60a" x="315.229091" y="160.824254" style="fill: #d62728"/>
     <use xlink:href="#m54e5c9d60a" x="336.174545" y="155.568696" style="fill: #d62728"/>
     <use xlink:href="#m54e5c9d60a" x="357.12" y="150.791222" style="fill: #d62728"/>
     <use xlink:href="#m54e5c9d60a" x="378.065455" y="146.499046" style="fill: #d62728"/>
     <use xlink:href="#m54e5c9d60a" x="399.010909" y="142.477808" style="fill: #d62728"/>
     <use xlink:href="#m54e5c9d60a" x="419.956364" y="138.761" style="fill: #d62728"/>
     <use xlink:href="#m54e5c9d60a" x="440.901818" y="135.261771" style="fill: #d62728"/>
     <use xlink:href="#m54e5c9d60a" x="461.847273" y="132.212128" style="fill: #d62728"/>
     <use xlink:href="#m54e5c9d60a" x="482.792727" y="129.149081" style="fill: #d62728"/>
     <use xlink:href="#m54e5c9d60a" x="503.738182" y="126.352852" style="fill: #d62728"/>
     <use xlink:href="#m54e5c9d60a" x="524.683636" y="123.666588" style="fill: #d62728"/>
     <use xlink:href="#m54e5c9d60a" x="545.629091" y="121.163486" style="fill: #d62728"/>
     <use xlink:href="#m54e5c9d60a" x="566.574545" y="118.728774" style="fill: #d62728"/>
     <use xlink:href="#m54e5c9d60a" x="587.52" y="116.447245" style="fill: #d62728"/>
     <use xlink:href="#m54e5c9d60a" x="608.465455" y="114.282059" style="fill: #d62728"/>
     <use xlink:href="#m54e5c9d60a" x="629.410909" y="112.206601" style="fill: #d62728"/>
     <use xlink:href="#m54e5c9d60a" x="650.356364" y="110.175654" style="fill: #d62728"/>
     <use xlink:href="#m54e5c9d60a" x="671.301818" y="108.232185" style="fill: #d62728"/>
     <use xlink:href="#m54e5c9d60a" x="692.247273" y="106.417005" style="fill: #d62728"/>
     <use xlink:href="#m54e5c9d60a" x="713.192727" y="104.622181" style="fill: #d62728"/>
     <use xlink:href="#m54e5c9d60a" x="734.138182" y="102.905591" style="fill: #d62728"/>
     <use xlink:href="#m54e5c9d60a" x="755.083636" y="101.249944" style="fill: #d62728"/>
     <use xlink:href="#m54e5c9d60a" x="776.029091" y="99.660109" style="fill: #d62728"/>
     <use xlink:href="#m54e5c9d60a" x="796.974545" y="98.208" style="fill: #d62728"/>
    </g>
   </g>
   <g id="line2d_57">
    <path d="M 115.2 394.425104 
L 829.44 394.425104 
" clip-path="url(#p212c06576b)" style="fill: none; stroke-dasharray: 10.36,4.48; stroke-dashoffset: 0; stroke: #808080; stroke-width: 2.8"/>
   </g>
   <g id="patch_3">
    <path d="M 115.2 563.904 
L 115.2 76.032 
" style="fill: none; stroke: #000000; stroke-width: 0.8; stroke-linejoin: miter; stroke-linecap: square"/>
   </g>
   <g id="patch_4">
    <path d="M 829.44 563.904 
L 829.44 76.032 
" style="fill: none; stroke: #000000; stroke-width: 0.8; stroke-linejoin: miter; stroke-linecap: square"/>
   </g>
   <g id="patch_5">
    <path d="M 115.2 563.904 
L 829.44 563.904 
" style="fill: none; stroke: #000000; stroke-width: 0.8; stroke-linejoin: miter; stroke-linecap: square"/>
   </g>
   <g id="patch_6">
    <path d="M 115.2 76.032 
L 829.44 76.032 
" style="fill: none; stroke: #000000; stroke-width: 0.8; stroke-linejoin: miter; stroke-linecap: square"/>
   </g>
   <g id="text_13">
    <!-- $10^9$ for scale -->
    <g transform="translate(192.174545 383.677851)scale(0.11 -0.11)">
     <defs>
      <path id="DejaVuSans-66" d="M 2375 4863 
L 2375 4384 
L 1825 4384 
Q 1516 4384 1395 4259 
Q 1275 4134 1275 3809 
L 1275 3500 
L 2222 3500 
L 2222 3053 
L 1275 3053 
L 1275 0 
L 697 0 
L 697 3053 
L 147 3053 
L 147 3500 
L 697 3500 
L 697 3744 
Q 697 4328 969 4595 
Q 1241 4863 1831 4863 
L 2375 4863 
z
" transform="scale(0.015625)"/>
     </defs>
     <use xlink:href="#DejaVuSans-31" transform="translate(0 0.765625)"/>
     <use xlink:href="#DejaVuSans-30" transform="translate(63.623047 0.765625)"/>
     <use xlink:href="#DejaVuSans-39" transform="translate(128.203125 39.046875)scale(0.7)"/>
     <use xlink:href="#DejaVuSans-20" transform="translate(175.473633 0.765625)"/>
     <use xlink:href="#DejaVuSans-66" transform="translate(207.260742 0.765625)"/>
     <use xlink:href="#DejaVuSans-6f" transform="translate(242.46582 0.765625)"/>
     <use xlink:href="#DejaVuSans-72" transform="translate(303.647461 0.765625)"/>
     <use xlink:href="#DejaVuSans-20" transform="translate(344.760742 0.765625)"/>
     <use xlink:href="#DejaVuSans-73" transform="translate(376.547852 0.765625)"/>
     <use xlink:href="#DejaVuSans-63" transform="translate(428.647461 0.765625)"/>
     <use xlink:href="#DejaVuSans-61" transform="translate(483.62793 0.765625)"/>
     <use xlink:href="#DejaVuSans-6c" transform="translate(544.907227 0.765625)"/>
     <use xlink:href="#DejaVuSans-65" transform="translate(572.69043 0.765625)"/>
    </g>
   </g>
  </g>
 </g>
 <defs>
  <clipPath id="p212c06576b">
   <rect x="115.2" y="76.032" width="714.24" height="487.872"/>
  </clipPath>
 </defs>
</svg>
