<?xml version="1.0" encoding="utf-8" standalone="no"?>
<!DOCTYPE svg PUBLIC "-//W3C//DTD SVG 1.1//EN"
  "http://www.w3.org/Graphics/SVG/1.1/DTD/svg11.dtd">
<svg xmlns:xlink="http://www.w3.org/1999/xlink" width="921.6pt" height="633.6pt" viewBox="0 0 921.6 633.6" xmlns="http://www.w3.org/2000/svg" version="1.1">
 <metadata>
  <rdf:RDF xmlns:dc="http://purl.org/dc/elements/1.1/" xmlns:cc="http://creativecommons.org/ns#" xmlns:rdf="http://www.w3.org/1999/02/22-rdf-syntax-ns#">
   <cc:Work>
    <dc:type rdf:resource="http://purl.org/dc/dcmitype/StillImage"/>
    <dc:date>2022-11-02T20:32:43.983279</dc:date>
    <dc:format>image/svg+xml</dc:format>
    <dc:creator>
     <cc:Agent>
      <dc:title>Matplotlib v3.5.3, https://matplotlib.org/</dc:title>
     </cc:Agent>
    </dc:creator>
   </cc:Work>
  </rdf:RDF>
 </metadata>
 <defs>
  <style type="text/css">*{stroke-linejoin: round; stroke-linecap: butt}</style>
 </defs>
 <g id="figure_1">
  <g id="patch_1">
   <path d="M 0 633.6 
L 921.6 633.6 
L 921.6 0 
L 0 0 
z
" style="fill: #ffffff"/>
  </g>
  <g id="axes_1">
   <g id="patch_2">
    <path d="M 115.2 563.904 
L 829.44 563.904 
L 829.44 76.032 
L 115.2 76.032 
z
" style="fill: #ffffff"/>
   </g>
   <g id="PolyCollection_1">
    <defs>
     <path id="md17a24c6b5" d="M 147.665455 -91.872 
L 147.665455 -91.872 
L 168.610909 -119.306428 
L 189.556364 -133.661569 
L 210.501818 -143.229968 
L 231.447273 -150.203203 
L 252.392727 -156.88585 
L 273.338182 -161.426856 
L 294.283636 -164.500032 
L 315.229091 -167.129046 
L 336.174545 -169.413794 
L 357.12 -171.138815 
L 378.065455 -172.137646 
L 399.010909 -174.890314 
L 419.956364 -176.539846 
L 440.901818 -177.881152 
L 461.847273 -180.040735 
L 482.792727 -179.908211 
L 503.738182 -181.600508 
L 524.683636 -182.824833 
L 545.629091 -182.076369 
L 566.574545 -182.527081 
L 587.52 -183.92282 
L 608.465455 -185.093981 
L 629.410909 -185.180257 
L 650.356364 -186.469115 
L 671.301818 -187.022117 
L 692.247273 -186.803367 
L 713.192727 -187.13985 
L 734.138182 -188.327019 
L 755.083636 -188.333675 
L 776.029091 -189.059441 
L 796.974545 -189.744228 
L 796.974545 -189.744228 
L 796.974545 -189.744228 
L 776.029091 -189.059441 
L 755.083636 -188.333675 
L 734.138182 -188.327019 
L 713.192727 -187.13985 
L 692.247273 -186.803367 
L 671.301818 -187.022117 
L 650.356364 -186.469115 
L 629.410909 -185.180257 
L 608.465455 -185.093981 
L 587.52 -183.92282 
L 566.574545 -182.527081 
L 545.629091 -182.076369 
L 524.683636 -182.824833 
L 503.738182 -181.600508 
L 482.792727 -179.908211 
L 461.847273 -180.040735 
L 440.901818 -177.881152 
L 419.956364 -176.539846 
L 399.010909 -174.890314 
L 378.065455 -172.137646 
L 357.12 -171.138815 
L 336.174545 -169.413794 
L 315.229091 -167.129046 
L 294.283636 -164.500032 
L 273.338182 -161.426856 
L 252.392727 -156.88585 
L 231.447273 -150.203203 
L 210.501818 -143.229968 
L 189.556364 -133.661569 
L 168.610909 -119.306428 
L 147.665455 -91.872 
z
" style="stroke: #fff8dc; stroke-width: 0.48"/>
    </defs>
    <g clip-path="url(#p712b622059)">
     <use xlink:href="#md17a24c6b5" x="0" y="633.6" style="fill: #fff8dc; stroke: #fff8dc; stroke-width: 0.48"/>
    </g>
   </g>
   <g id="PolyCollection_2">
    <defs>
     <path id="m156f28a7b7" d="M 147.665455 -144.643788 
L 147.665455 -144.643788 
L 168.610909 -175.085496 
L 189.556364 -182.183684 
L 210.501818 -187.297287 
L 231.447273 -191.095203 
L 252.392727 -193.342034 
L 273.338182 -196.117638 
L 294.283636 -197.663534 
L 315.229091 -199.739125 
L 336.174545 -201.750461 
L 357.12 -203.129727 
L 378.065455 -204.726666 
L 399.010909 -205.716612 
L 419.956364 -206.846522 
L 440.901818 -207.739003 
L 461.847273 -209.993231 
L 482.792727 -207.441238 
L 503.738182 -208.183697 
L 524.683636 -209.123406 
L 545.629091 -209.916431 
L 566.574545 -210.308602 
L 587.52 -210.737858 
L 608.465455 -211.801386 
L 629.410909 -212.4 
L 650.356364 -211.994561 
L 671.301818 -212.459349 
L 692.247273 -213.160112 
L 713.192727 -213.383567 
L 734.138182 -213.965489 
L 755.083636 -214.389442 
L 776.029091 -214.504593 
L 796.974545 -214.374232 
L 796.974545 -214.374232 
L 796.974545 -214.374232 
L 776.029091 -214.504593 
L 755.083636 -214.389442 
L 734.138182 -213.965489 
L 713.192727 -213.383567 
L 692.247273 -213.160112 
L 671.301818 -212.459349 
L 650.356364 -211.994561 
L 629.410909 -212.4 
L 608.465455 -211.801386 
L 587.52 -210.737858 
L 566.574545 -210.308602 
L 545.629091 -209.916431 
L 524.683636 -209.123406 
L 503.738182 -208.183697 
L 482.792727 -207.441238 
L 461.847273 -209.993231 
L 440.901818 -207.739003 
L 419.956364 -206.846522 
L 399.010909 -205.716612 
L 378.065455 -204.726666 
L 357.12 -203.129727 
L 336.174545 -201.750461 
L 315.229091 -199.739125 
L 294.283636 -197.663534 
L 273.338182 -196.117638 
L 252.392727 -193.342034 
L 231.447273 -191.095203 
L 210.501818 -187.297287 
L 189.556364 -182.183684 
L 168.610909 -175.085496 
L 147.665455 -144.643788 
z
" style="stroke: #fff8dc; stroke-width: 0.48"/>
    </defs>
    <g clip-path="url(#p712b622059)">
     <use xlink:href="#m156f28a7b7" x="0" y="633.6" style="fill: #fff8dc; stroke: #fff8dc; stroke-width: 0.48"/>
    </g>
   </g>
   <g id="PolyCollection_3">
    <defs>
     <path id="m57805cd4f9" d="M 147.665455 -136.370674 
L 147.665455 -136.370674 
L 168.610909 -162.839383 
L 189.556364 -169.639443 
L 210.501818 -170.997849 
L 231.447273 -176.783686 
L 252.392727 -180.654132 
L 273.338182 -182.620688 
L 294.283636 -184.80075 
L 315.229091 -186.125022 
L 336.174545 -187.630242 
L 357.12 -188.831813 
L 378.065455 -190.592349 
L 399.010909 -191.194266 
L 419.956364 -191.894347 
L 440.901818 -192.858098 
L 461.847273 -194.960259 
L 482.792727 -192.710604 
L 503.738182 -193.282375 
L 524.683636 -194.216823 
L 545.629091 -194.913433 
L 566.574545 -195.300874 
L 587.52 -195.756959 
L 608.465455 -196.474387 
L 629.410909 -196.993341 
L 650.356364 -196.872802 
L 671.301818 -197.140733 
L 692.247273 -197.835054 
L 713.192727 -197.908727 
L 734.138182 -198.272558 
L 755.083636 -198.779267 
L 776.029091 -198.683239 
L 796.974545 -199.360093 
L 796.974545 -199.360093 
L 796.974545 -199.360093 
L 776.029091 -198.683239 
L 755.083636 -198.779267 
L 734.138182 -198.272558 
L 713.192727 -197.908727 
L 692.247273 -197.835054 
L 671.301818 -197.140733 
L 650.356364 -196.872802 
L 629.410909 -196.993341 
L 608.465455 -196.474387 
L 587.52 -195.756959 
L 566.574545 -195.300874 
L 545.629091 -194.913433 
L 524.683636 -194.216823 
L 503.738182 -193.282375 
L 482.792727 -192.710604 
L 461.847273 -194.960259 
L 440.901818 -192.858098 
L 419.956364 -191.894347 
L 399.010909 -191.194266 
L 378.065455 -190.592349 
L 357.12 -188.831813 
L 336.174545 -187.630242 
L 315.229091 -186.125022 
L 294.283636 -184.80075 
L 273.338182 -182.620688 
L 252.392727 -180.654132 
L 231.447273 -176.783686 
L 210.501818 -170.997849 
L 189.556364 -169.639443 
L 168.610909 -162.839383 
L 147.665455 -136.370674 
z
" style="stroke: #fff8dc; stroke-width: 0.48"/>
    </defs>
    <g clip-path="url(#p712b622059)">
     <use xlink:href="#m57805cd4f9" x="0" y="633.6" style="fill: #fff8dc; stroke: #fff8dc; stroke-width: 0.48"/>
    </g>
   </g>
   <g id="PolyCollection_4">
    <defs>
     <path id="m1b257b4ed3" d="M 147.665455 -323.632416 
L 147.665455 -323.632416 
L 168.610909 -371.112799 
L 189.556364 -391.687754 
L 210.501818 -398.327556 
L 231.447273 -405.897549 
L 252.392727 -412.851223 
L 273.338182 -417.070642 
L 294.283636 -419.432612 
L 315.229091 -422.562809 
L 336.174545 -426.38034 
L 357.12 -428.284377 
L 378.065455 -431.648982 
L 399.010909 -422.990592 
L 419.956364 -427.644419 
L 440.901818 -435.408852 
L 461.847273 -434.753418 
L 482.792727 -435.448043 
L 503.738182 -434.721446 
L 524.683636 -439.616327 
L 545.629091 -441.544529 
L 566.574545 -438.946051 
L 587.52 -446.913044 
L 608.465455 -447.512095 
L 629.410909 -448.113341 
L 650.356364 -439.176384 
L 671.301818 -451.203139 
L 692.247273 -447.565953 
L 713.192727 -441.302768 
L 734.138182 -445.524644 
L 755.083636 -453.587946 
L 776.029091 -452.13078 
L 796.974545 -454.815329 
L 796.974545 -454.815329 
L 796.974545 -463.163693 
L 776.029091 -459.214604 
L 755.083636 -459.28839 
L 734.138182 -460.870111 
L 713.192727 -456.740988 
L 692.247273 -457.474965 
L 671.301818 -455.108051 
L 650.356364 -456.852094 
L 629.410909 -454.152223 
L 608.465455 -451.97786 
L 587.52 -451.020545 
L 566.574545 -451.291678 
L 545.629091 -447.527639 
L 524.683636 -446.997462 
L 503.738182 -446.885722 
L 482.792727 -442.991296 
L 461.847273 -446.340932 
L 440.901818 -441.033117 
L 419.956364 -443.392964 
L 399.010909 -439.780546 
L 378.065455 -435.386387 
L 357.12 -433.616276 
L 336.174545 -431.761597 
L 315.229091 -428.652634 
L 294.283636 -422.956139 
L 273.338182 -422.911882 
L 252.392727 -417.562881 
L 231.447273 -416.10481 
L 210.501818 -409.782463 
L 189.556364 -402.569523 
L 168.610909 -384.710884 
L 147.665455 -367.358502 
z
" style="stroke: #fff8dc; stroke-width: 0.48"/>
    </defs>
    <g clip-path="url(#p712b622059)">
     <use xlink:href="#m1b257b4ed3" x="0" y="633.6" style="fill: #fff8dc; stroke: #fff8dc; stroke-width: 0.48"/>
    </g>
   </g>
   <g id="PolyCollection_5">
    <defs>
     <path id="m4d31c5a9dc" d="M 147.665455 -493.452708 
L 147.665455 -493.452708 
L 168.610909 -508.158373 
L 189.556364 -516.283203 
L 210.501818 -520.186662 
L 231.447273 -523.047303 
L 252.392727 -525.02097 
L 273.338182 -526.276244 
L 294.283636 -527.491969 
L 315.229091 -528.822946 
L 336.174545 -528.973974 
L 357.12 -529.581027 
L 378.065455 -530.295923 
L 399.010909 -530.883783 
L 419.956364 -530.976633 
L 440.901818 -531.571737 
L 461.847273 -531.997381 
L 482.792727 -531.507109 
L 503.738182 -531.725557 
L 524.683636 -532.031908 
L 545.629091 -532.253017 
L 566.574545 -532.688534 
L 587.52 -532.666999 
L 608.465455 -532.969487 
L 629.410909 -533.331691 
L 650.356364 -533.046886 
L 671.301818 -533.265888 
L 692.247273 -533.541115 
L 713.192727 -533.788552 
L 734.138182 -533.686982 
L 755.083636 -534.019507 
L 776.029091 -534.325228 
L 796.974545 -535.392 
L 796.974545 -535.392 
L 796.974545 -535.392 
L 776.029091 -534.325228 
L 755.083636 -534.019507 
L 734.138182 -533.686982 
L 713.192727 -533.788552 
L 692.247273 -533.541115 
L 671.301818 -533.265888 
L 650.356364 -533.046886 
L 629.410909 -533.331691 
L 608.465455 -532.969487 
L 587.52 -532.666999 
L 566.574545 -532.688534 
L 545.629091 -532.253017 
L 524.683636 -532.031908 
L 503.738182 -531.725557 
L 482.792727 -531.507109 
L 461.847273 -531.997381 
L 440.901818 -531.571737 
L 419.956364 -530.976633 
L 399.010909 -530.883783 
L 378.065455 -530.295923 
L 357.12 -529.581027 
L 336.174545 -528.973974 
L 315.229091 -528.822946 
L 294.283636 -527.491969 
L 273.338182 -526.276244 
L 252.392727 -525.02097 
L 231.447273 -523.047303 
L 210.501818 -520.186662 
L 189.556364 -516.283203 
L 168.610909 -508.158373 
L 147.665455 -493.452708 
z
" style="stroke: #fff8dc; stroke-width: 0.48"/>
    </defs>
    <g clip-path="url(#p712b622059)">
     <use xlink:href="#m4d31c5a9dc" x="0" y="633.6" style="fill: #fff8dc; stroke: #fff8dc; stroke-width: 0.48"/>
    </g>
   </g>
   <g id="matplotlib.axis_1">
    <g id="xtick_1">
     <g id="line2d_1">
      <defs>
       <path id="mc34b97d369" d="M 0 0 
L 0 3.5 
" style="stroke: #000000; stroke-width: 1.6"/>
      </defs>
      <g>
       <use xlink:href="#mc34b97d369" x="147.665455" y="563.904" style="stroke: #000000; stroke-width: 1.6"/>
      </g>
     </g>
     <g id="text_1">
      <!-- 1, 8 -->
      <g transform="translate(137.170767 586.962281)scale(0.11 -0.11)">
       <defs>
        <path id="DejaVuSans-31" d="M 794 531 
L 1825 531 
L 1825 4091 
L 703 3866 
L 703 4441 
L 1819 4666 
L 2450 4666 
L 2450 531 
L 3481 531 
L 3481 0 
L 794 0 
L 794 531 
z
" transform="scale(0.015625)"/>
        <path id="DejaVuSans-2c" d="M 750 794 
L 1409 794 
L 1409 256 
L 897 -744 
L 494 -744 
L 750 256 
L 750 794 
z
" transform="scale(0.015625)"/>
        <path id="DejaVuSans-20" transform="scale(0.015625)"/>
        <path id="DejaVuSans-38" d="M 2034 2216 
Q 1584 2216 1326 1975 
Q 1069 1734 1069 1313 
Q 1069 891 1326 650 
Q 1584 409 2034 409 
Q 2484 409 2743 651 
Q 3003 894 3003 1313 
Q 3003 1734 2745 1975 
Q 2488 2216 2034 2216 
z
M 1403 2484 
Q 997 2584 770 2862 
Q 544 3141 544 3541 
Q 544 4100 942 4425 
Q 1341 4750 2034 4750 
Q 2731 4750 3128 4425 
Q 3525 4100 3525 3541 
Q 3525 3141 3298 2862 
Q 3072 2584 2669 2484 
Q 3125 2378 3379 2068 
Q 3634 1759 3634 1313 
Q 3634 634 3220 271 
Q 2806 -91 2034 -91 
Q 1263 -91 848 271 
Q 434 634 434 1313 
Q 434 1759 690 2068 
Q 947 2378 1403 2484 
z
M 1172 3481 
Q 1172 3119 1398 2916 
Q 1625 2713 2034 2713 
Q 2441 2713 2670 2916 
Q 2900 3119 2900 3481 
Q 2900 3844 2670 4047 
Q 2441 4250 2034 4250 
Q 1625 4250 1398 4047 
Q 1172 3844 1172 3481 
z
" transform="scale(0.015625)"/>
       </defs>
       <use xlink:href="#DejaVuSans-31"/>
       <use xlink:href="#DejaVuSans-2c" x="63.623047"/>
       <use xlink:href="#DejaVuSans-20" x="95.410156"/>
       <use xlink:href="#DejaVuSans-38" x="127.197266"/>
      </g>
     </g>
    </g>
    <g id="xtick_2">
     <g id="line2d_2">
      <g>
       <use xlink:href="#mc34b97d369" x="273.338182" y="563.904" style="stroke: #000000; stroke-width: 1.6"/>
      </g>
     </g>
     <g id="text_2">
      <!-- 7, 56 -->
      <g transform="translate(259.344119 586.962281)scale(0.11 -0.11)">
       <defs>
        <path id="DejaVuSans-37" d="M 525 4666 
L 3525 4666 
L 3525 4397 
L 1831 0 
L 1172 0 
L 2766 4134 
L 525 4134 
L 525 4666 
z
" transform="scale(0.015625)"/>
        <path id="DejaVuSans-35" d="M 691 4666 
L 3169 4666 
L 3169 4134 
L 1269 4134 
L 1269 2991 
Q 1406 3038 1543 3061 
Q 1681 3084 1819 3084 
Q 2600 3084 3056 2656 
Q 3513 2228 3513 1497 
Q 3513 744 3044 326 
Q 2575 -91 1722 -91 
Q 1428 -91 1123 -41 
Q 819 9 494 109 
L 494 744 
Q 775 591 1075 516 
Q 1375 441 1709 441 
Q 2250 441 2565 725 
Q 2881 1009 2881 1497 
Q 2881 1984 2565 2268 
Q 2250 2553 1709 2553 
Q 1456 2553 1204 2497 
Q 953 2441 691 2322 
L 691 4666 
z
" transform="scale(0.015625)"/>
        <path id="DejaVuSans-36" d="M 2113 2584 
Q 1688 2584 1439 2293 
Q 1191 2003 1191 1497 
Q 1191 994 1439 701 
Q 1688 409 2113 409 
Q 2538 409 2786 701 
Q 3034 994 3034 1497 
Q 3034 2003 2786 2293 
Q 2538 2584 2113 2584 
z
M 3366 4563 
L 3366 3988 
Q 3128 4100 2886 4159 
Q 2644 4219 2406 4219 
Q 1781 4219 1451 3797 
Q 1122 3375 1075 2522 
Q 1259 2794 1537 2939 
Q 1816 3084 2150 3084 
Q 2853 3084 3261 2657 
Q 3669 2231 3669 1497 
Q 3669 778 3244 343 
Q 2819 -91 2113 -91 
Q 1303 -91 875 529 
Q 447 1150 447 2328 
Q 447 3434 972 4092 
Q 1497 4750 2381 4750 
Q 2619 4750 2861 4703 
Q 3103 4656 3366 4563 
z
" transform="scale(0.015625)"/>
       </defs>
       <use xlink:href="#DejaVuSans-37"/>
       <use xlink:href="#DejaVuSans-2c" x="63.623047"/>
       <use xlink:href="#DejaVuSans-20" x="95.410156"/>
       <use xlink:href="#DejaVuSans-35" x="127.197266"/>
       <use xlink:href="#DejaVuSans-36" x="190.820312"/>
      </g>
     </g>
    </g>
    <g id="xtick_3">
     <g id="line2d_3">
      <g>
       <use xlink:href="#mc34b97d369" x="399.010909" y="563.904" style="stroke: #000000; stroke-width: 1.6"/>
      </g>
     </g>
     <g id="text_3">
      <!-- 13, 104 -->
      <g transform="translate(378.018097 586.962281)scale(0.11 -0.11)">
       <defs>
        <path id="DejaVuSans-33" d="M 2597 2516 
Q 3050 2419 3304 2112 
Q 3559 1806 3559 1356 
Q 3559 666 3084 287 
Q 2609 -91 1734 -91 
Q 1441 -91 1130 -33 
Q 819 25 488 141 
L 488 750 
Q 750 597 1062 519 
Q 1375 441 1716 441 
Q 2309 441 2620 675 
Q 2931 909 2931 1356 
Q 2931 1769 2642 2001 
Q 2353 2234 1838 2234 
L 1294 2234 
L 1294 2753 
L 1863 2753 
Q 2328 2753 2575 2939 
Q 2822 3125 2822 3475 
Q 2822 3834 2567 4026 
Q 2313 4219 1838 4219 
Q 1578 4219 1281 4162 
Q 984 4106 628 3988 
L 628 4550 
Q 988 4650 1302 4700 
Q 1616 4750 1894 4750 
Q 2613 4750 3031 4423 
Q 3450 4097 3450 3541 
Q 3450 3153 3228 2886 
Q 3006 2619 2597 2516 
z
" transform="scale(0.015625)"/>
        <path id="DejaVuSans-30" d="M 2034 4250 
Q 1547 4250 1301 3770 
Q 1056 3291 1056 2328 
Q 1056 1369 1301 889 
Q 1547 409 2034 409 
Q 2525 409 2770 889 
Q 3016 1369 3016 2328 
Q 3016 3291 2770 3770 
Q 2525 4250 2034 4250 
z
M 2034 4750 
Q 2819 4750 3233 4129 
Q 3647 3509 3647 2328 
Q 3647 1150 3233 529 
Q 2819 -91 2034 -91 
Q 1250 -91 836 529 
Q 422 1150 422 2328 
Q 422 3509 836 4129 
Q 1250 4750 2034 4750 
z
" transform="scale(0.015625)"/>
        <path id="DejaVuSans-34" d="M 2419 4116 
L 825 1625 
L 2419 1625 
L 2419 4116 
z
M 2253 4666 
L 3047 4666 
L 3047 1625 
L 3713 1625 
L 3713 1100 
L 3047 1100 
L 3047 0 
L 2419 0 
L 2419 1100 
L 313 1100 
L 313 1709 
L 2253 4666 
z
" transform="scale(0.015625)"/>
       </defs>
       <use xlink:href="#DejaVuSans-31"/>
       <use xlink:href="#DejaVuSans-33" x="63.623047"/>
       <use xlink:href="#DejaVuSans-2c" x="127.246094"/>
       <use xlink:href="#DejaVuSans-20" x="159.033203"/>
       <use xlink:href="#DejaVuSans-31" x="190.820312"/>
       <use xlink:href="#DejaVuSans-30" x="254.443359"/>
       <use xlink:href="#DejaVuSans-34" x="318.066406"/>
      </g>
     </g>
    </g>
    <g id="xtick_4">
     <g id="line2d_4">
      <g>
       <use xlink:href="#mc34b97d369" x="524.683636" y="563.904" style="stroke: #000000; stroke-width: 1.6"/>
      </g>
     </g>
     <g id="text_4">
      <!-- 19, 152 -->
      <g transform="translate(503.690824 586.962281)scale(0.11 -0.11)">
       <defs>
        <path id="DejaVuSans-39" d="M 703 97 
L 703 672 
Q 941 559 1184 500 
Q 1428 441 1663 441 
Q 2288 441 2617 861 
Q 2947 1281 2994 2138 
Q 2813 1869 2534 1725 
Q 2256 1581 1919 1581 
Q 1219 1581 811 2004 
Q 403 2428 403 3163 
Q 403 3881 828 4315 
Q 1253 4750 1959 4750 
Q 2769 4750 3195 4129 
Q 3622 3509 3622 2328 
Q 3622 1225 3098 567 
Q 2575 -91 1691 -91 
Q 1453 -91 1209 -44 
Q 966 3 703 97 
z
M 1959 2075 
Q 2384 2075 2632 2365 
Q 2881 2656 2881 3163 
Q 2881 3666 2632 3958 
Q 2384 4250 1959 4250 
Q 1534 4250 1286 3958 
Q 1038 3666 1038 3163 
Q 1038 2656 1286 2365 
Q 1534 2075 1959 2075 
z
" transform="scale(0.015625)"/>
        <path id="DejaVuSans-32" d="M 1228 531 
L 3431 531 
L 3431 0 
L 469 0 
L 469 531 
Q 828 903 1448 1529 
Q 2069 2156 2228 2338 
Q 2531 2678 2651 2914 
Q 2772 3150 2772 3378 
Q 2772 3750 2511 3984 
Q 2250 4219 1831 4219 
Q 1534 4219 1204 4116 
Q 875 4013 500 3803 
L 500 4441 
Q 881 4594 1212 4672 
Q 1544 4750 1819 4750 
Q 2544 4750 2975 4387 
Q 3406 4025 3406 3419 
Q 3406 3131 3298 2873 
Q 3191 2616 2906 2266 
Q 2828 2175 2409 1742 
Q 1991 1309 1228 531 
z
" transform="scale(0.015625)"/>
       </defs>
       <use xlink:href="#DejaVuSans-31"/>
       <use xlink:href="#DejaVuSans-39" x="63.623047"/>
       <use xlink:href="#DejaVuSans-2c" x="127.246094"/>
       <use xlink:href="#DejaVuSans-20" x="159.033203"/>
       <use xlink:href="#DejaVuSans-31" x="190.820312"/>
       <use xlink:href="#DejaVuSans-35" x="254.443359"/>
       <use xlink:href="#DejaVuSans-32" x="318.066406"/>
      </g>
     </g>
    </g>
    <g id="xtick_5">
     <g id="line2d_5">
      <g>
       <use xlink:href="#mc34b97d369" x="650.356364" y="563.904" style="stroke: #000000; stroke-width: 1.6"/>
      </g>
     </g>
     <g id="text_5">
      <!-- 25, 200 -->
      <g transform="translate(629.363551 586.962281)scale(0.11 -0.11)">
       <use xlink:href="#DejaVuSans-32"/>
       <use xlink:href="#DejaVuSans-35" x="63.623047"/>
       <use xlink:href="#DejaVuSans-2c" x="127.246094"/>
       <use xlink:href="#DejaVuSans-20" x="159.033203"/>
       <use xlink:href="#DejaVuSans-32" x="190.820312"/>
       <use xlink:href="#DejaVuSans-30" x="254.443359"/>
       <use xlink:href="#DejaVuSans-30" x="318.066406"/>
      </g>
     </g>
    </g>
    <g id="xtick_6">
     <g id="line2d_6">
      <g>
       <use xlink:href="#mc34b97d369" x="776.029091" y="563.904" style="stroke: #000000; stroke-width: 1.6"/>
      </g>
     </g>
     <g id="text_6">
      <!-- 31, 248 -->
      <g transform="translate(755.036278 586.962281)scale(0.11 -0.11)">
       <use xlink:href="#DejaVuSans-33"/>
       <use xlink:href="#DejaVuSans-31" x="63.623047"/>
       <use xlink:href="#DejaVuSans-2c" x="127.246094"/>
       <use xlink:href="#DejaVuSans-20" x="159.033203"/>
       <use xlink:href="#DejaVuSans-32" x="190.820312"/>
       <use xlink:href="#DejaVuSans-34" x="254.443359"/>
       <use xlink:href="#DejaVuSans-38" x="318.066406"/>
      </g>
     </g>
    </g>
    <g id="text_7">
     <!-- Bin number, maximum program size -->
     <g transform="translate(343.975 603.88775)scale(0.14 -0.14)">
      <defs>
       <path id="DejaVuSans-42" d="M 1259 2228 
L 1259 519 
L 2272 519 
Q 2781 519 3026 730 
Q 3272 941 3272 1375 
Q 3272 1813 3026 2020 
Q 2781 2228 2272 2228 
L 1259 2228 
z
M 1259 4147 
L 1259 2741 
L 2194 2741 
Q 2656 2741 2882 2914 
Q 3109 3088 3109 3444 
Q 3109 3797 2882 3972 
Q 2656 4147 2194 4147 
L 1259 4147 
z
M 628 4666 
L 2241 4666 
Q 2963 4666 3353 4366 
Q 3744 4066 3744 3513 
Q 3744 3084 3544 2831 
Q 3344 2578 2956 2516 
Q 3422 2416 3680 2098 
Q 3938 1781 3938 1306 
Q 3938 681 3513 340 
Q 3088 0 2303 0 
L 628 0 
L 628 4666 
z
" transform="scale(0.015625)"/>
       <path id="DejaVuSans-69" d="M 603 3500 
L 1178 3500 
L 1178 0 
L 603 0 
L 603 3500 
z
M 603 4863 
L 1178 4863 
L 1178 4134 
L 603 4134 
L 603 4863 
z
" transform="scale(0.015625)"/>
       <path id="DejaVuSans-6e" d="M 3513 2113 
L 3513 0 
L 2938 0 
L 2938 2094 
Q 2938 2591 2744 2837 
Q 2550 3084 2163 3084 
Q 1697 3084 1428 2787 
Q 1159 2491 1159 1978 
L 1159 0 
L 581 0 
L 581 3500 
L 1159 3500 
L 1159 2956 
Q 1366 3272 1645 3428 
Q 1925 3584 2291 3584 
Q 2894 3584 3203 3211 
Q 3513 2838 3513 2113 
z
" transform="scale(0.015625)"/>
       <path id="DejaVuSans-75" d="M 544 1381 
L 544 3500 
L 1119 3500 
L 1119 1403 
Q 1119 906 1312 657 
Q 1506 409 1894 409 
Q 2359 409 2629 706 
Q 2900 1003 2900 1516 
L 2900 3500 
L 3475 3500 
L 3475 0 
L 2900 0 
L 2900 538 
Q 2691 219 2414 64 
Q 2138 -91 1772 -91 
Q 1169 -91 856 284 
Q 544 659 544 1381 
z
M 1991 3584 
L 1991 3584 
z
" transform="scale(0.015625)"/>
       <path id="DejaVuSans-6d" d="M 3328 2828 
Q 3544 3216 3844 3400 
Q 4144 3584 4550 3584 
Q 5097 3584 5394 3201 
Q 5691 2819 5691 2113 
L 5691 0 
L 5113 0 
L 5113 2094 
Q 5113 2597 4934 2840 
Q 4756 3084 4391 3084 
Q 3944 3084 3684 2787 
Q 3425 2491 3425 1978 
L 3425 0 
L 2847 0 
L 2847 2094 
Q 2847 2600 2669 2842 
Q 2491 3084 2119 3084 
Q 1678 3084 1418 2786 
Q 1159 2488 1159 1978 
L 1159 0 
L 581 0 
L 581 3500 
L 1159 3500 
L 1159 2956 
Q 1356 3278 1631 3431 
Q 1906 3584 2284 3584 
Q 2666 3584 2933 3390 
Q 3200 3197 3328 2828 
z
" transform="scale(0.015625)"/>
       <path id="DejaVuSans-62" d="M 3116 1747 
Q 3116 2381 2855 2742 
Q 2594 3103 2138 3103 
Q 1681 3103 1420 2742 
Q 1159 2381 1159 1747 
Q 1159 1113 1420 752 
Q 1681 391 2138 391 
Q 2594 391 2855 752 
Q 3116 1113 3116 1747 
z
M 1159 2969 
Q 1341 3281 1617 3432 
Q 1894 3584 2278 3584 
Q 2916 3584 3314 3078 
Q 3713 2572 3713 1747 
Q 3713 922 3314 415 
Q 2916 -91 2278 -91 
Q 1894 -91 1617 61 
Q 1341 213 1159 525 
L 1159 0 
L 581 0 
L 581 4863 
L 1159 4863 
L 1159 2969 
z
" transform="scale(0.015625)"/>
       <path id="DejaVuSans-65" d="M 3597 1894 
L 3597 1613 
L 953 1613 
Q 991 1019 1311 708 
Q 1631 397 2203 397 
Q 2534 397 2845 478 
Q 3156 559 3463 722 
L 3463 178 
Q 3153 47 2828 -22 
Q 2503 -91 2169 -91 
Q 1331 -91 842 396 
Q 353 884 353 1716 
Q 353 2575 817 3079 
Q 1281 3584 2069 3584 
Q 2775 3584 3186 3129 
Q 3597 2675 3597 1894 
z
M 3022 2063 
Q 3016 2534 2758 2815 
Q 2500 3097 2075 3097 
Q 1594 3097 1305 2825 
Q 1016 2553 972 2059 
L 3022 2063 
z
" transform="scale(0.015625)"/>
       <path id="DejaVuSans-72" d="M 2631 2963 
Q 2534 3019 2420 3045 
Q 2306 3072 2169 3072 
Q 1681 3072 1420 2755 
Q 1159 2438 1159 1844 
L 1159 0 
L 581 0 
L 581 3500 
L 1159 3500 
L 1159 2956 
Q 1341 3275 1631 3429 
Q 1922 3584 2338 3584 
Q 2397 3584 2469 3576 
Q 2541 3569 2628 3553 
L 2631 2963 
z
" transform="scale(0.015625)"/>
       <path id="DejaVuSans-61" d="M 2194 1759 
Q 1497 1759 1228 1600 
Q 959 1441 959 1056 
Q 959 750 1161 570 
Q 1363 391 1709 391 
Q 2188 391 2477 730 
Q 2766 1069 2766 1631 
L 2766 1759 
L 2194 1759 
z
M 3341 1997 
L 3341 0 
L 2766 0 
L 2766 531 
Q 2569 213 2275 61 
Q 1981 -91 1556 -91 
Q 1019 -91 701 211 
Q 384 513 384 1019 
Q 384 1609 779 1909 
Q 1175 2209 1959 2209 
L 2766 2209 
L 2766 2266 
Q 2766 2663 2505 2880 
Q 2244 3097 1772 3097 
Q 1472 3097 1187 3025 
Q 903 2953 641 2809 
L 641 3341 
Q 956 3463 1253 3523 
Q 1550 3584 1831 3584 
Q 2591 3584 2966 3190 
Q 3341 2797 3341 1997 
z
" transform="scale(0.015625)"/>
       <path id="DejaVuSans-78" d="M 3513 3500 
L 2247 1797 
L 3578 0 
L 2900 0 
L 1881 1375 
L 863 0 
L 184 0 
L 1544 1831 
L 300 3500 
L 978 3500 
L 1906 2253 
L 2834 3500 
L 3513 3500 
z
" transform="scale(0.015625)"/>
       <path id="DejaVuSans-70" d="M 1159 525 
L 1159 -1331 
L 581 -1331 
L 581 3500 
L 1159 3500 
L 1159 2969 
Q 1341 3281 1617 3432 
Q 1894 3584 2278 3584 
Q 2916 3584 3314 3078 
Q 3713 2572 3713 1747 
Q 3713 922 3314 415 
Q 2916 -91 2278 -91 
Q 1894 -91 1617 61 
Q 1341 213 1159 525 
z
M 3116 1747 
Q 3116 2381 2855 2742 
Q 2594 3103 2138 3103 
Q 1681 3103 1420 2742 
Q 1159 2381 1159 1747 
Q 1159 1113 1420 752 
Q 1681 391 2138 391 
Q 2594 391 2855 752 
Q 3116 1113 3116 1747 
z
" transform="scale(0.015625)"/>
       <path id="DejaVuSans-6f" d="M 1959 3097 
Q 1497 3097 1228 2736 
Q 959 2375 959 1747 
Q 959 1119 1226 758 
Q 1494 397 1959 397 
Q 2419 397 2687 759 
Q 2956 1122 2956 1747 
Q 2956 2369 2687 2733 
Q 2419 3097 1959 3097 
z
M 1959 3584 
Q 2709 3584 3137 3096 
Q 3566 2609 3566 1747 
Q 3566 888 3137 398 
Q 2709 -91 1959 -91 
Q 1206 -91 779 398 
Q 353 888 353 1747 
Q 353 2609 779 3096 
Q 1206 3584 1959 3584 
z
" transform="scale(0.015625)"/>
       <path id="DejaVuSans-67" d="M 2906 1791 
Q 2906 2416 2648 2759 
Q 2391 3103 1925 3103 
Q 1463 3103 1205 2759 
Q 947 2416 947 1791 
Q 947 1169 1205 825 
Q 1463 481 1925 481 
Q 2391 481 2648 825 
Q 2906 1169 2906 1791 
z
M 3481 434 
Q 3481 -459 3084 -895 
Q 2688 -1331 1869 -1331 
Q 1566 -1331 1297 -1286 
Q 1028 -1241 775 -1147 
L 775 -588 
Q 1028 -725 1275 -790 
Q 1522 -856 1778 -856 
Q 2344 -856 2625 -561 
Q 2906 -266 2906 331 
L 2906 616 
Q 2728 306 2450 153 
Q 2172 0 1784 0 
Q 1141 0 747 490 
Q 353 981 353 1791 
Q 353 2603 747 3093 
Q 1141 3584 1784 3584 
Q 2172 3584 2450 3431 
Q 2728 3278 2906 2969 
L 2906 3500 
L 3481 3500 
L 3481 434 
z
" transform="scale(0.015625)"/>
       <path id="DejaVuSans-73" d="M 2834 3397 
L 2834 2853 
Q 2591 2978 2328 3040 
Q 2066 3103 1784 3103 
Q 1356 3103 1142 2972 
Q 928 2841 928 2578 
Q 928 2378 1081 2264 
Q 1234 2150 1697 2047 
L 1894 2003 
Q 2506 1872 2764 1633 
Q 3022 1394 3022 966 
Q 3022 478 2636 193 
Q 2250 -91 1575 -91 
Q 1294 -91 989 -36 
Q 684 19 347 128 
L 347 722 
Q 666 556 975 473 
Q 1284 391 1588 391 
Q 1994 391 2212 530 
Q 2431 669 2431 922 
Q 2431 1156 2273 1281 
Q 2116 1406 1581 1522 
L 1381 1569 
Q 847 1681 609 1914 
Q 372 2147 372 2553 
Q 372 3047 722 3315 
Q 1072 3584 1716 3584 
Q 2034 3584 2315 3537 
Q 2597 3491 2834 3397 
z
" transform="scale(0.015625)"/>
       <path id="DejaVuSans-7a" d="M 353 3500 
L 3084 3500 
L 3084 2975 
L 922 459 
L 3084 459 
L 3084 0 
L 275 0 
L 275 525 
L 2438 3041 
L 353 3041 
L 353 3500 
z
" transform="scale(0.015625)"/>
      </defs>
      <use xlink:href="#DejaVuSans-42"/>
      <use xlink:href="#DejaVuSans-69" x="68.603516"/>
      <use xlink:href="#DejaVuSans-6e" x="96.386719"/>
      <use xlink:href="#DejaVuSans-20" x="159.765625"/>
      <use xlink:href="#DejaVuSans-6e" x="191.552734"/>
      <use xlink:href="#DejaVuSans-75" x="254.931641"/>
      <use xlink:href="#DejaVuSans-6d" x="318.310547"/>
      <use xlink:href="#DejaVuSans-62" x="415.722656"/>
      <use xlink:href="#DejaVuSans-65" x="479.199219"/>
      <use xlink:href="#DejaVuSans-72" x="540.722656"/>
      <use xlink:href="#DejaVuSans-2c" x="581.835938"/>
      <use xlink:href="#DejaVuSans-20" x="613.623047"/>
      <use xlink:href="#DejaVuSans-6d" x="645.410156"/>
      <use xlink:href="#DejaVuSans-61" x="742.822266"/>
      <use xlink:href="#DejaVuSans-78" x="804.101562"/>
      <use xlink:href="#DejaVuSans-69" x="863.28125"/>
      <use xlink:href="#DejaVuSans-6d" x="891.064453"/>
      <use xlink:href="#DejaVuSans-75" x="988.476562"/>
      <use xlink:href="#DejaVuSans-6d" x="1051.855469"/>
      <use xlink:href="#DejaVuSans-20" x="1149.267578"/>
      <use xlink:href="#DejaVuSans-70" x="1181.054688"/>
      <use xlink:href="#DejaVuSans-72" x="1244.53125"/>
      <use xlink:href="#DejaVuSans-6f" x="1283.394531"/>
      <use xlink:href="#DejaVuSans-67" x="1344.576172"/>
      <use xlink:href="#DejaVuSans-72" x="1408.052734"/>
      <use xlink:href="#DejaVuSans-61" x="1449.166016"/>
      <use xlink:href="#DejaVuSans-6d" x="1510.445312"/>
      <use xlink:href="#DejaVuSans-20" x="1607.857422"/>
      <use xlink:href="#DejaVuSans-73" x="1639.644531"/>
      <use xlink:href="#DejaVuSans-69" x="1691.744141"/>
      <use xlink:href="#DejaVuSans-7a" x="1719.527344"/>
      <use xlink:href="#DejaVuSans-65" x="1772.017578"/>
     </g>
    </g>
   </g>
   <g id="matplotlib.axis_2">
    <g id="ytick_1">
     <g id="line2d_7">
      <defs>
       <path id="mae11d63709" d="M 0 0 
L -3.5 0 
" style="stroke: #000000; stroke-width: 1.6"/>
      </defs>
      <g>
       <use xlink:href="#mae11d63709" x="115.2" y="534.698881" style="stroke: #000000; stroke-width: 1.6"/>
      </g>
     </g>
     <g id="text_8">
      <!-- $\mathdefault{10^{5}}$ -->
      <g transform="translate(81.14 538.878022)scale(0.11 -0.11)">
       <use xlink:href="#DejaVuSans-31" transform="translate(0 0.684375)"/>
       <use xlink:href="#DejaVuSans-30" transform="translate(63.623047 0.684375)"/>
       <use xlink:href="#DejaVuSans-35" transform="translate(128.203125 38.965625)scale(0.7)"/>
      </g>
     </g>
    </g>
    <g id="ytick_2">
     <g id="line2d_8">
      <g>
       <use xlink:href="#mae11d63709" x="115.2" y="453.228232" style="stroke: #000000; stroke-width: 1.6"/>
      </g>
     </g>
     <g id="text_9">
      <!-- $\mathdefault{10^{6}}$ -->
      <g transform="translate(81.14 457.407373)scale(0.11 -0.11)">
       <use xlink:href="#DejaVuSans-31" transform="translate(0 0.765625)"/>
       <use xlink:href="#DejaVuSans-30" transform="translate(63.623047 0.765625)"/>
       <use xlink:href="#DejaVuSans-36" transform="translate(128.203125 39.046875)scale(0.7)"/>
      </g>
     </g>
    </g>
    <g id="ytick_3">
     <g id="line2d_9">
      <g>
       <use xlink:href="#mae11d63709" x="115.2" y="371.757583" style="stroke: #000000; stroke-width: 1.6"/>
      </g>
     </g>
     <g id="text_10">
      <!-- $\mathdefault{10^{7}}$ -->
      <g transform="translate(81.14 375.936723)scale(0.11 -0.11)">
       <use xlink:href="#DejaVuSans-31" transform="translate(0 0.684375)"/>
       <use xlink:href="#DejaVuSans-30" transform="translate(63.623047 0.684375)"/>
       <use xlink:href="#DejaVuSans-37" transform="translate(128.203125 38.965625)scale(0.7)"/>
      </g>
     </g>
    </g>
    <g id="ytick_4">
     <g id="line2d_10">
      <g>
       <use xlink:href="#mae11d63709" x="115.2" y="290.286933" style="stroke: #000000; stroke-width: 1.6"/>
      </g>
     </g>
     <g id="text_11">
      <!-- $\mathdefault{10^{8}}$ -->
      <g transform="translate(81.14 294.466074)scale(0.11 -0.11)">
       <use xlink:href="#DejaVuSans-31" transform="translate(0 0.765625)"/>
       <use xlink:href="#DejaVuSans-30" transform="translate(63.623047 0.765625)"/>
       <use xlink:href="#DejaVuSans-38" transform="translate(128.203125 39.046875)scale(0.7)"/>
      </g>
     </g>
    </g>
    <g id="ytick_5">
     <g id="line2d_11">
      <g>
       <use xlink:href="#mae11d63709" x="115.2" y="208.816284" style="stroke: #000000; stroke-width: 1.6"/>
      </g>
     </g>
     <g id="text_12">
      <!-- $\mathdefault{10^{9}}$ -->
      <g transform="translate(81.14 212.995425)scale(0.11 -0.11)">
       <use xlink:href="#DejaVuSans-31" transform="translate(0 0.765625)"/>
       <use xlink:href="#DejaVuSans-30" transform="translate(63.623047 0.765625)"/>
       <use xlink:href="#DejaVuSans-39" transform="translate(128.203125 39.046875)scale(0.7)"/>
      </g>
     </g>
    </g>
    <g id="ytick_6">
     <g id="line2d_12">
      <g>
       <use xlink:href="#mae11d63709" x="115.2" y="127.345635" style="stroke: #000000; stroke-width: 1.6"/>
      </g>
     </g>
     <g id="text_13">
      <!-- $\mathdefault{10^{10}}$ -->
      <g transform="translate(76.19 131.524776)scale(0.11 -0.11)">
       <use xlink:href="#DejaVuSans-31" transform="translate(0 0.765625)"/>
       <use xlink:href="#DejaVuSans-30" transform="translate(63.623047 0.765625)"/>
       <use xlink:href="#DejaVuSans-31" transform="translate(128.203125 39.046875)scale(0.7)"/>
       <use xlink:href="#DejaVuSans-30" transform="translate(172.739258 39.046875)scale(0.7)"/>
      </g>
     </g>
    </g>
    <g id="ytick_7">
     <g id="line2d_13">
      <defs>
       <path id="mf9ba8b34c4" d="M 0 0 
L -2 0 
" style="stroke: #000000; stroke-width: 0.8"/>
      </defs>
      <g>
       <use xlink:href="#mf9ba8b34c4" x="115.2" y="559.22399" style="stroke: #000000; stroke-width: 0.8"/>
      </g>
     </g>
    </g>
    <g id="ytick_8">
     <g id="line2d_14">
      <g>
       <use xlink:href="#mf9ba8b34c4" x="115.2" y="552.773043" style="stroke: #000000; stroke-width: 0.8"/>
      </g>
     </g>
    </g>
    <g id="ytick_9">
     <g id="line2d_15">
      <g>
       <use xlink:href="#mf9ba8b34c4" x="115.2" y="547.318844" style="stroke: #000000; stroke-width: 0.8"/>
      </g>
     </g>
    </g>
    <g id="ytick_10">
     <g id="line2d_16">
      <g>
       <use xlink:href="#mf9ba8b34c4" x="115.2" y="542.594203" style="stroke: #000000; stroke-width: 0.8"/>
      </g>
     </g>
    </g>
    <g id="ytick_11">
     <g id="line2d_17">
      <g>
       <use xlink:href="#mf9ba8b34c4" x="115.2" y="538.426774" style="stroke: #000000; stroke-width: 0.8"/>
      </g>
     </g>
    </g>
    <g id="ytick_12">
     <g id="line2d_18">
      <g>
       <use xlink:href="#mf9ba8b34c4" x="115.2" y="510.173772" style="stroke: #000000; stroke-width: 0.8"/>
      </g>
     </g>
    </g>
    <g id="ytick_13">
     <g id="line2d_19">
      <g>
       <use xlink:href="#mf9ba8b34c4" x="115.2" y="495.827503" style="stroke: #000000; stroke-width: 0.8"/>
      </g>
     </g>
    </g>
    <g id="ytick_14">
     <g id="line2d_20">
      <g>
       <use xlink:href="#mf9ba8b34c4" x="115.2" y="485.648663" style="stroke: #000000; stroke-width: 0.8"/>
      </g>
     </g>
    </g>
    <g id="ytick_15">
     <g id="line2d_21">
      <g>
       <use xlink:href="#mf9ba8b34c4" x="115.2" y="477.753341" style="stroke: #000000; stroke-width: 0.8"/>
      </g>
     </g>
    </g>
    <g id="ytick_16">
     <g id="line2d_22">
      <g>
       <use xlink:href="#mf9ba8b34c4" x="115.2" y="471.302394" style="stroke: #000000; stroke-width: 0.8"/>
      </g>
     </g>
    </g>
    <g id="ytick_17">
     <g id="line2d_23">
      <g>
       <use xlink:href="#mf9ba8b34c4" x="115.2" y="465.848195" style="stroke: #000000; stroke-width: 0.8"/>
      </g>
     </g>
    </g>
    <g id="ytick_18">
     <g id="line2d_24">
      <g>
       <use xlink:href="#mf9ba8b34c4" x="115.2" y="461.123554" style="stroke: #000000; stroke-width: 0.8"/>
      </g>
     </g>
    </g>
    <g id="ytick_19">
     <g id="line2d_25">
      <g>
       <use xlink:href="#mf9ba8b34c4" x="115.2" y="456.956124" style="stroke: #000000; stroke-width: 0.8"/>
      </g>
     </g>
    </g>
    <g id="ytick_20">
     <g id="line2d_26">
      <g>
       <use xlink:href="#mf9ba8b34c4" x="115.2" y="428.703123" style="stroke: #000000; stroke-width: 0.8"/>
      </g>
     </g>
    </g>
    <g id="ytick_21">
     <g id="line2d_27">
      <g>
       <use xlink:href="#mf9ba8b34c4" x="115.2" y="414.356854" style="stroke: #000000; stroke-width: 0.8"/>
      </g>
     </g>
    </g>
    <g id="ytick_22">
     <g id="line2d_28">
      <g>
       <use xlink:href="#mf9ba8b34c4" x="115.2" y="404.178014" style="stroke: #000000; stroke-width: 0.8"/>
      </g>
     </g>
    </g>
    <g id="ytick_23">
     <g id="line2d_29">
      <g>
       <use xlink:href="#mf9ba8b34c4" x="115.2" y="396.282692" style="stroke: #000000; stroke-width: 0.8"/>
      </g>
     </g>
    </g>
    <g id="ytick_24">
     <g id="line2d_30">
      <g>
       <use xlink:href="#mf9ba8b34c4" x="115.2" y="389.831744" style="stroke: #000000; stroke-width: 0.8"/>
      </g>
     </g>
    </g>
    <g id="ytick_25">
     <g id="line2d_31">
      <g>
       <use xlink:href="#mf9ba8b34c4" x="115.2" y="384.377546" style="stroke: #000000; stroke-width: 0.8"/>
      </g>
     </g>
    </g>
    <g id="ytick_26">
     <g id="line2d_32">
      <g>
       <use xlink:href="#mf9ba8b34c4" x="115.2" y="379.652904" style="stroke: #000000; stroke-width: 0.8"/>
      </g>
     </g>
    </g>
    <g id="ytick_27">
     <g id="line2d_33">
      <g>
       <use xlink:href="#mf9ba8b34c4" x="115.2" y="375.485475" style="stroke: #000000; stroke-width: 0.8"/>
      </g>
     </g>
    </g>
    <g id="ytick_28">
     <g id="line2d_34">
      <g>
       <use xlink:href="#mf9ba8b34c4" x="115.2" y="347.232473" style="stroke: #000000; stroke-width: 0.8"/>
      </g>
     </g>
    </g>
    <g id="ytick_29">
     <g id="line2d_35">
      <g>
       <use xlink:href="#mf9ba8b34c4" x="115.2" y="332.886204" style="stroke: #000000; stroke-width: 0.8"/>
      </g>
     </g>
    </g>
    <g id="ytick_30">
     <g id="line2d_36">
      <g>
       <use xlink:href="#mf9ba8b34c4" x="115.2" y="322.707364" style="stroke: #000000; stroke-width: 0.8"/>
      </g>
     </g>
    </g>
    <g id="ytick_31">
     <g id="line2d_37">
      <g>
       <use xlink:href="#mf9ba8b34c4" x="115.2" y="314.812043" style="stroke: #000000; stroke-width: 0.8"/>
      </g>
     </g>
    </g>
    <g id="ytick_32">
     <g id="line2d_38">
      <g>
       <use xlink:href="#mf9ba8b34c4" x="115.2" y="308.361095" style="stroke: #000000; stroke-width: 0.8"/>
      </g>
     </g>
    </g>
    <g id="ytick_33">
     <g id="line2d_39">
      <g>
       <use xlink:href="#mf9ba8b34c4" x="115.2" y="302.906897" style="stroke: #000000; stroke-width: 0.8"/>
      </g>
     </g>
    </g>
    <g id="ytick_34">
     <g id="line2d_40">
      <g>
       <use xlink:href="#mf9ba8b34c4" x="115.2" y="298.182255" style="stroke: #000000; stroke-width: 0.8"/>
      </g>
     </g>
    </g>
    <g id="ytick_35">
     <g id="line2d_41">
      <g>
       <use xlink:href="#mf9ba8b34c4" x="115.2" y="294.014826" style="stroke: #000000; stroke-width: 0.8"/>
      </g>
     </g>
    </g>
    <g id="ytick_36">
     <g id="line2d_42">
      <g>
       <use xlink:href="#mf9ba8b34c4" x="115.2" y="265.761824" style="stroke: #000000; stroke-width: 0.8"/>
      </g>
     </g>
    </g>
    <g id="ytick_37">
     <g id="line2d_43">
      <g>
       <use xlink:href="#mf9ba8b34c4" x="115.2" y="251.415555" style="stroke: #000000; stroke-width: 0.8"/>
      </g>
     </g>
    </g>
    <g id="ytick_38">
     <g id="line2d_44">
      <g>
       <use xlink:href="#mf9ba8b34c4" x="115.2" y="241.236715" style="stroke: #000000; stroke-width: 0.8"/>
      </g>
     </g>
    </g>
    <g id="ytick_39">
     <g id="line2d_45">
      <g>
       <use xlink:href="#mf9ba8b34c4" x="115.2" y="233.341393" style="stroke: #000000; stroke-width: 0.8"/>
      </g>
     </g>
    </g>
    <g id="ytick_40">
     <g id="line2d_46">
      <g>
       <use xlink:href="#mf9ba8b34c4" x="115.2" y="226.890446" style="stroke: #000000; stroke-width: 0.8"/>
      </g>
     </g>
    </g>
    <g id="ytick_41">
     <g id="line2d_47">
      <g>
       <use xlink:href="#mf9ba8b34c4" x="115.2" y="221.436247" style="stroke: #000000; stroke-width: 0.8"/>
      </g>
     </g>
    </g>
    <g id="ytick_42">
     <g id="line2d_48">
      <g>
       <use xlink:href="#mf9ba8b34c4" x="115.2" y="216.711606" style="stroke: #000000; stroke-width: 0.8"/>
      </g>
     </g>
    </g>
    <g id="ytick_43">
     <g id="line2d_49">
      <g>
       <use xlink:href="#mf9ba8b34c4" x="115.2" y="212.544177" style="stroke: #000000; stroke-width: 0.8"/>
      </g>
     </g>
    </g>
    <g id="ytick_44">
     <g id="line2d_50">
      <g>
       <use xlink:href="#mf9ba8b34c4" x="115.2" y="184.291175" style="stroke: #000000; stroke-width: 0.8"/>
      </g>
     </g>
    </g>
    <g id="ytick_45">
     <g id="line2d_51">
      <g>
       <use xlink:href="#mf9ba8b34c4" x="115.2" y="169.944906" style="stroke: #000000; stroke-width: 0.8"/>
      </g>
     </g>
    </g>
    <g id="ytick_46">
     <g id="line2d_52">
      <g>
       <use xlink:href="#mf9ba8b34c4" x="115.2" y="159.766066" style="stroke: #000000; stroke-width: 0.8"/>
      </g>
     </g>
    </g>
    <g id="ytick_47">
     <g id="line2d_53">
      <g>
       <use xlink:href="#mf9ba8b34c4" x="115.2" y="151.870744" style="stroke: #000000; stroke-width: 0.8"/>
      </g>
     </g>
    </g>
    <g id="ytick_48">
     <g id="line2d_54">
      <g>
       <use xlink:href="#mf9ba8b34c4" x="115.2" y="145.419797" style="stroke: #000000; stroke-width: 0.8"/>
      </g>
     </g>
    </g>
    <g id="ytick_49">
     <g id="line2d_55">
      <g>
       <use xlink:href="#mf9ba8b34c4" x="115.2" y="139.965598" style="stroke: #000000; stroke-width: 0.8"/>
      </g>
     </g>
    </g>
    <g id="ytick_50">
     <g id="line2d_56">
      <g>
       <use xlink:href="#mf9ba8b34c4" x="115.2" y="135.240957" style="stroke: #000000; stroke-width: 0.8"/>
      </g>
     </g>
    </g>
    <g id="ytick_51">
     <g id="line2d_57">
      <g>
       <use xlink:href="#mf9ba8b34c4" x="115.2" y="131.073527" style="stroke: #000000; stroke-width: 0.8"/>
      </g>
     </g>
    </g>
    <g id="ytick_52">
     <g id="line2d_58">
      <g>
       <use xlink:href="#mf9ba8b34c4" x="115.2" y="102.820526" style="stroke: #000000; stroke-width: 0.8"/>
      </g>
     </g>
    </g>
    <g id="ytick_53">
     <g id="line2d_59">
      <g>
       <use xlink:href="#mf9ba8b34c4" x="115.2" y="88.474257" style="stroke: #000000; stroke-width: 0.8"/>
      </g>
     </g>
    </g>
    <g id="ytick_54">
     <g id="line2d_60">
      <g>
       <use xlink:href="#mf9ba8b34c4" x="115.2" y="78.295417" style="stroke: #000000; stroke-width: 0.8"/>
      </g>
     </g>
    </g>
    <g id="text_14">
     <!-- Node evaluations per second (NEPS) -->
     <g transform="translate(69.278437 447.984875)rotate(-90)scale(0.14 -0.14)">
      <defs>
       <path id="DejaVuSans-4e" d="M 628 4666 
L 1478 4666 
L 3547 763 
L 3547 4666 
L 4159 4666 
L 4159 0 
L 3309 0 
L 1241 3903 
L 1241 0 
L 628 0 
L 628 4666 
z
" transform="scale(0.015625)"/>
       <path id="DejaVuSans-64" d="M 2906 2969 
L 2906 4863 
L 3481 4863 
L 3481 0 
L 2906 0 
L 2906 525 
Q 2725 213 2448 61 
Q 2172 -91 1784 -91 
Q 1150 -91 751 415 
Q 353 922 353 1747 
Q 353 2572 751 3078 
Q 1150 3584 1784 3584 
Q 2172 3584 2448 3432 
Q 2725 3281 2906 2969 
z
M 947 1747 
Q 947 1113 1208 752 
Q 1469 391 1925 391 
Q 2381 391 2643 752 
Q 2906 1113 2906 1747 
Q 2906 2381 2643 2742 
Q 2381 3103 1925 3103 
Q 1469 3103 1208 2742 
Q 947 2381 947 1747 
z
" transform="scale(0.015625)"/>
       <path id="DejaVuSans-76" d="M 191 3500 
L 800 3500 
L 1894 563 
L 2988 3500 
L 3597 3500 
L 2284 0 
L 1503 0 
L 191 3500 
z
" transform="scale(0.015625)"/>
       <path id="DejaVuSans-6c" d="M 603 4863 
L 1178 4863 
L 1178 0 
L 603 0 
L 603 4863 
z
" transform="scale(0.015625)"/>
       <path id="DejaVuSans-74" d="M 1172 4494 
L 1172 3500 
L 2356 3500 
L 2356 3053 
L 1172 3053 
L 1172 1153 
Q 1172 725 1289 603 
Q 1406 481 1766 481 
L 2356 481 
L 2356 0 
L 1766 0 
Q 1100 0 847 248 
Q 594 497 594 1153 
L 594 3053 
L 172 3053 
L 172 3500 
L 594 3500 
L 594 4494 
L 1172 4494 
z
" transform="scale(0.015625)"/>
       <path id="DejaVuSans-63" d="M 3122 3366 
L 3122 2828 
Q 2878 2963 2633 3030 
Q 2388 3097 2138 3097 
Q 1578 3097 1268 2742 
Q 959 2388 959 1747 
Q 959 1106 1268 751 
Q 1578 397 2138 397 
Q 2388 397 2633 464 
Q 2878 531 3122 666 
L 3122 134 
Q 2881 22 2623 -34 
Q 2366 -91 2075 -91 
Q 1284 -91 818 406 
Q 353 903 353 1747 
Q 353 2603 823 3093 
Q 1294 3584 2113 3584 
Q 2378 3584 2631 3529 
Q 2884 3475 3122 3366 
z
" transform="scale(0.015625)"/>
       <path id="DejaVuSans-28" d="M 1984 4856 
Q 1566 4138 1362 3434 
Q 1159 2731 1159 2009 
Q 1159 1288 1364 580 
Q 1569 -128 1984 -844 
L 1484 -844 
Q 1016 -109 783 600 
Q 550 1309 550 2009 
Q 550 2706 781 3412 
Q 1013 4119 1484 4856 
L 1984 4856 
z
" transform="scale(0.015625)"/>
       <path id="DejaVuSans-45" d="M 628 4666 
L 3578 4666 
L 3578 4134 
L 1259 4134 
L 1259 2753 
L 3481 2753 
L 3481 2222 
L 1259 2222 
L 1259 531 
L 3634 531 
L 3634 0 
L 628 0 
L 628 4666 
z
" transform="scale(0.015625)"/>
       <path id="DejaVuSans-50" d="M 1259 4147 
L 1259 2394 
L 2053 2394 
Q 2494 2394 2734 2622 
Q 2975 2850 2975 3272 
Q 2975 3691 2734 3919 
Q 2494 4147 2053 4147 
L 1259 4147 
z
M 628 4666 
L 2053 4666 
Q 2838 4666 3239 4311 
Q 3641 3956 3641 3272 
Q 3641 2581 3239 2228 
Q 2838 1875 2053 1875 
L 1259 1875 
L 1259 0 
L 628 0 
L 628 4666 
z
" transform="scale(0.015625)"/>
       <path id="DejaVuSans-53" d="M 3425 4513 
L 3425 3897 
Q 3066 4069 2747 4153 
Q 2428 4238 2131 4238 
Q 1616 4238 1336 4038 
Q 1056 3838 1056 3469 
Q 1056 3159 1242 3001 
Q 1428 2844 1947 2747 
L 2328 2669 
Q 3034 2534 3370 2195 
Q 3706 1856 3706 1288 
Q 3706 609 3251 259 
Q 2797 -91 1919 -91 
Q 1588 -91 1214 -16 
Q 841 59 441 206 
L 441 856 
Q 825 641 1194 531 
Q 1563 422 1919 422 
Q 2459 422 2753 634 
Q 3047 847 3047 1241 
Q 3047 1584 2836 1778 
Q 2625 1972 2144 2069 
L 1759 2144 
Q 1053 2284 737 2584 
Q 422 2884 422 3419 
Q 422 4038 858 4394 
Q 1294 4750 2059 4750 
Q 2388 4750 2728 4690 
Q 3069 4631 3425 4513 
z
" transform="scale(0.015625)"/>
       <path id="DejaVuSans-29" d="M 513 4856 
L 1013 4856 
Q 1481 4119 1714 3412 
Q 1947 2706 1947 2009 
Q 1947 1309 1714 600 
Q 1481 -109 1013 -844 
L 513 -844 
Q 928 -128 1133 580 
Q 1338 1288 1338 2009 
Q 1338 2731 1133 3434 
Q 928 4138 513 4856 
z
" transform="scale(0.015625)"/>
      </defs>
      <use xlink:href="#DejaVuSans-4e"/>
      <use xlink:href="#DejaVuSans-6f" x="74.804688"/>
      <use xlink:href="#DejaVuSans-64" x="135.986328"/>
      <use xlink:href="#DejaVuSans-65" x="199.462891"/>
      <use xlink:href="#DejaVuSans-20" x="260.986328"/>
      <use xlink:href="#DejaVuSans-65" x="292.773438"/>
      <use xlink:href="#DejaVuSans-76" x="354.296875"/>
      <use xlink:href="#DejaVuSans-61" x="413.476562"/>
      <use xlink:href="#DejaVuSans-6c" x="474.755859"/>
      <use xlink:href="#DejaVuSans-75" x="502.539062"/>
      <use xlink:href="#DejaVuSans-61" x="565.917969"/>
      <use xlink:href="#DejaVuSans-74" x="627.197266"/>
      <use xlink:href="#DejaVuSans-69" x="666.40625"/>
      <use xlink:href="#DejaVuSans-6f" x="694.189453"/>
      <use xlink:href="#DejaVuSans-6e" x="755.371094"/>
      <use xlink:href="#DejaVuSans-73" x="818.75"/>
      <use xlink:href="#DejaVuSans-20" x="870.849609"/>
      <use xlink:href="#DejaVuSans-70" x="902.636719"/>
      <use xlink:href="#DejaVuSans-65" x="966.113281"/>
      <use xlink:href="#DejaVuSans-72" x="1027.636719"/>
      <use xlink:href="#DejaVuSans-20" x="1068.75"/>
      <use xlink:href="#DejaVuSans-73" x="1100.537109"/>
      <use xlink:href="#DejaVuSans-65" x="1152.636719"/>
      <use xlink:href="#DejaVuSans-63" x="1214.160156"/>
      <use xlink:href="#DejaVuSans-6f" x="1269.140625"/>
      <use xlink:href="#DejaVuSans-6e" x="1330.322266"/>
      <use xlink:href="#DejaVuSans-64" x="1393.701172"/>
      <use xlink:href="#DejaVuSans-20" x="1457.177734"/>
      <use xlink:href="#DejaVuSans-28" x="1488.964844"/>
      <use xlink:href="#DejaVuSans-4e" x="1527.978516"/>
      <use xlink:href="#DejaVuSans-45" x="1602.783203"/>
      <use xlink:href="#DejaVuSans-50" x="1665.966797"/>
      <use xlink:href="#DejaVuSans-53" x="1726.269531"/>
      <use xlink:href="#DejaVuSans-29" x="1789.746094"/>
     </g>
    </g>
   </g>
   <g id="line2d_61">
    <path d="M 147.665455 541.728 
L 168.610909 514.293572 
L 189.556364 499.938431 
L 210.501818 490.370032 
L 231.447273 483.396797 
L 252.392727 476.71415 
L 273.338182 472.173144 
L 294.283636 469.099968 
L 315.229091 466.470954 
L 336.174545 464.186206 
L 357.12 462.461185 
L 378.065455 461.462354 
L 399.010909 458.709686 
L 419.956364 457.060154 
L 440.901818 455.718848 
L 461.847273 453.559265 
L 482.792727 453.691789 
L 503.738182 451.999492 
L 524.683636 450.775167 
L 545.629091 451.523631 
L 566.574545 451.072919 
L 587.52 449.67718 
L 608.465455 448.506019 
L 629.410909 448.419743 
L 650.356364 447.130885 
L 671.301818 446.577883 
L 692.247273 446.796633 
L 713.192727 446.46015 
L 734.138182 445.272981 
L 755.083636 445.266325 
L 776.029091 444.540559 
L 796.974545 443.855772 
" clip-path="url(#p712b622059)" style="fill: none; stroke: #000000; stroke-width: 0.1; stroke-linecap: square"/>
    <defs>
     <path id="m66efccc3d8" d="M -3 6 
L 0 3 
L 3 6 
L 6 3 
L 3 0 
L 6 -3 
L 3 -6 
L 0 -3 
L -3 -6 
L -6 -3 
L -3 0 
L -6 3 
z
"/>
    </defs>
    <g clip-path="url(#p712b622059)">
     <use xlink:href="#m66efccc3d8" x="147.665455" y="541.728" style="fill: #17becf"/>
     <use xlink:href="#m66efccc3d8" x="168.610909" y="514.293572" style="fill: #17becf"/>
     <use xlink:href="#m66efccc3d8" x="189.556364" y="499.938431" style="fill: #17becf"/>
     <use xlink:href="#m66efccc3d8" x="210.501818" y="490.370032" style="fill: #17becf"/>
     <use xlink:href="#m66efccc3d8" x="231.447273" y="483.396797" style="fill: #17becf"/>
     <use xlink:href="#m66efccc3d8" x="252.392727" y="476.71415" style="fill: #17becf"/>
     <use xlink:href="#m66efccc3d8" x="273.338182" y="472.173144" style="fill: #17becf"/>
     <use xlink:href="#m66efccc3d8" x="294.283636" y="469.099968" style="fill: #17becf"/>
     <use xlink:href="#m66efccc3d8" x="315.229091" y="466.470954" style="fill: #17becf"/>
     <use xlink:href="#m66efccc3d8" x="336.174545" y="464.186206" style="fill: #17becf"/>
     <use xlink:href="#m66efccc3d8" x="357.12" y="462.461185" style="fill: #17becf"/>
     <use xlink:href="#m66efccc3d8" x="378.065455" y="461.462354" style="fill: #17becf"/>
     <use xlink:href="#m66efccc3d8" x="399.010909" y="458.709686" style="fill: #17becf"/>
     <use xlink:href="#m66efccc3d8" x="419.956364" y="457.060154" style="fill: #17becf"/>
     <use xlink:href="#m66efccc3d8" x="440.901818" y="455.718848" style="fill: #17becf"/>
     <use xlink:href="#m66efccc3d8" x="461.847273" y="453.559265" style="fill: #17becf"/>
     <use xlink:href="#m66efccc3d8" x="482.792727" y="453.691789" style="fill: #17becf"/>
     <use xlink:href="#m66efccc3d8" x="503.738182" y="451.999492" style="fill: #17becf"/>
     <use xlink:href="#m66efccc3d8" x="524.683636" y="450.775167" style="fill: #17becf"/>
     <use xlink:href="#m66efccc3d8" x="545.629091" y="451.523631" style="fill: #17becf"/>
     <use xlink:href="#m66efccc3d8" x="566.574545" y="451.072919" style="fill: #17becf"/>
     <use xlink:href="#m66efccc3d8" x="587.52" y="449.67718" style="fill: #17becf"/>
     <use xlink:href="#m66efccc3d8" x="608.465455" y="448.506019" style="fill: #17becf"/>
     <use xlink:href="#m66efccc3d8" x="629.410909" y="448.419743" style="fill: #17becf"/>
     <use xlink:href="#m66efccc3d8" x="650.356364" y="447.130885" style="fill: #17becf"/>
     <use xlink:href="#m66efccc3d8" x="671.301818" y="446.577883" style="fill: #17becf"/>
     <use xlink:href="#m66efccc3d8" x="692.247273" y="446.796633" style="fill: #17becf"/>
     <use xlink:href="#m66efccc3d8" x="713.192727" y="446.46015" style="fill: #17becf"/>
     <use xlink:href="#m66efccc3d8" x="734.138182" y="445.272981" style="fill: #17becf"/>
     <use xlink:href="#m66efccc3d8" x="755.083636" y="445.266325" style="fill: #17becf"/>
     <use xlink:href="#m66efccc3d8" x="776.029091" y="444.540559" style="fill: #17becf"/>
     <use xlink:href="#m66efccc3d8" x="796.974545" y="443.855772" style="fill: #17becf"/>
    </g>
   </g>
   <g id="line2d_62">
    <path d="M 115.2 208.816284 
L 829.44 208.816284 
" clip-path="url(#p712b622059)" style="fill: none; stroke-dasharray: 10.36,4.48; stroke-dashoffset: 0; stroke: #808080; stroke-width: 2.8"/>
   </g>
   <g id="line2d_63">
    <path d="M 147.665455 488.956212 
L 168.610909 458.514504 
L 189.556364 451.416316 
L 210.501818 446.302713 
L 231.447273 442.504797 
L 252.392727 440.257966 
L 273.338182 437.482362 
L 294.283636 435.936466 
L 315.229091 433.860875 
L 336.174545 431.849539 
L 357.12 430.470273 
L 378.065455 428.873334 
L 399.010909 427.883388 
L 419.956364 426.753478 
L 440.901818 425.860997 
L 461.847273 423.606769 
L 482.792727 426.158762 
L 503.738182 425.416303 
L 524.683636 424.476594 
L 545.629091 423.683569 
L 566.574545 423.291398 
L 587.52 422.862142 
L 608.465455 421.798614 
L 629.410909 421.2 
L 650.356364 421.605439 
L 671.301818 421.140651 
L 692.247273 420.439888 
L 713.192727 420.216433 
L 734.138182 419.634511 
L 755.083636 419.210558 
L 776.029091 419.095407 
L 796.974545 419.225768 
" clip-path="url(#p712b622059)" style="fill: none; stroke: #000000; stroke-width: 0.1; stroke-linecap: square"/>
    <defs>
     <path id="m19294954cf" d="M 0 -6 
L -6 6 
L 6 6 
z
"/>
    </defs>
    <g clip-path="url(#p712b622059)">
     <use xlink:href="#m19294954cf" x="147.665455" y="488.956212" style="fill: #9467bd"/>
     <use xlink:href="#m19294954cf" x="168.610909" y="458.514504" style="fill: #9467bd"/>
     <use xlink:href="#m19294954cf" x="189.556364" y="451.416316" style="fill: #9467bd"/>
     <use xlink:href="#m19294954cf" x="210.501818" y="446.302713" style="fill: #9467bd"/>
     <use xlink:href="#m19294954cf" x="231.447273" y="442.504797" style="fill: #9467bd"/>
     <use xlink:href="#m19294954cf" x="252.392727" y="440.257966" style="fill: #9467bd"/>
     <use xlink:href="#m19294954cf" x="273.338182" y="437.482362" style="fill: #9467bd"/>
     <use xlink:href="#m19294954cf" x="294.283636" y="435.936466" style="fill: #9467bd"/>
     <use xlink:href="#m19294954cf" x="315.229091" y="433.860875" style="fill: #9467bd"/>
     <use xlink:href="#m19294954cf" x="336.174545" y="431.849539" style="fill: #9467bd"/>
     <use xlink:href="#m19294954cf" x="357.12" y="430.470273" style="fill: #9467bd"/>
     <use xlink:href="#m19294954cf" x="378.065455" y="428.873334" style="fill: #9467bd"/>
     <use xlink:href="#m19294954cf" x="399.010909" y="427.883388" style="fill: #9467bd"/>
     <use xlink:href="#m19294954cf" x="419.956364" y="426.753478" style="fill: #9467bd"/>
     <use xlink:href="#m19294954cf" x="440.901818" y="425.860997" style="fill: #9467bd"/>
     <use xlink:href="#m19294954cf" x="461.847273" y="423.606769" style="fill: #9467bd"/>
     <use xlink:href="#m19294954cf" x="482.792727" y="426.158762" style="fill: #9467bd"/>
     <use xlink:href="#m19294954cf" x="503.738182" y="425.416303" style="fill: #9467bd"/>
     <use xlink:href="#m19294954cf" x="524.683636" y="424.476594" style="fill: #9467bd"/>
     <use xlink:href="#m19294954cf" x="545.629091" y="423.683569" style="fill: #9467bd"/>
     <use xlink:href="#m19294954cf" x="566.574545" y="423.291398" style="fill: #9467bd"/>
     <use xlink:href="#m19294954cf" x="587.52" y="422.862142" style="fill: #9467bd"/>
     <use xlink:href="#m19294954cf" x="608.465455" y="421.798614" style="fill: #9467bd"/>
     <use xlink:href="#m19294954cf" x="629.410909" y="421.2" style="fill: #9467bd"/>
     <use xlink:href="#m19294954cf" x="650.356364" y="421.605439" style="fill: #9467bd"/>
     <use xlink:href="#m19294954cf" x="671.301818" y="421.140651" style="fill: #9467bd"/>
     <use xlink:href="#m19294954cf" x="692.247273" y="420.439888" style="fill: #9467bd"/>
     <use xlink:href="#m19294954cf" x="713.192727" y="420.216433" style="fill: #9467bd"/>
     <use xlink:href="#m19294954cf" x="734.138182" y="419.634511" style="fill: #9467bd"/>
     <use xlink:href="#m19294954cf" x="755.083636" y="419.210558" style="fill: #9467bd"/>
     <use xlink:href="#m19294954cf" x="776.029091" y="419.095407" style="fill: #9467bd"/>
     <use xlink:href="#m19294954cf" x="796.974545" y="419.225768" style="fill: #9467bd"/>
    </g>
   </g>
   <g id="line2d_64">
    <path d="M 115.2 208.816284 
L 829.44 208.816284 
" clip-path="url(#p712b622059)" style="fill: none; stroke-dasharray: 10.36,4.48; stroke-dashoffset: 0; stroke: #808080; stroke-width: 2.8"/>
   </g>
   <g id="line2d_65">
    <path d="M 147.665455 497.229326 
L 168.610909 470.760617 
L 189.556364 463.960557 
L 210.501818 462.602151 
L 231.447273 456.816314 
L 252.392727 452.945868 
L 273.338182 450.979312 
L 294.283636 448.79925 
L 315.229091 447.474978 
L 336.174545 445.969758 
L 357.12 444.768187 
L 378.065455 443.007651 
L 399.010909 442.405734 
L 419.956364 441.705653 
L 440.901818 440.741902 
L 461.847273 438.639741 
L 482.792727 440.889396 
L 503.738182 440.317625 
L 524.683636 439.383177 
L 545.629091 438.686567 
L 566.574545 438.299126 
L 587.52 437.843041 
L 608.465455 437.125613 
L 629.410909 436.606659 
L 650.356364 436.727198 
L 671.301818 436.459267 
L 692.247273 435.764946 
L 713.192727 435.691273 
L 734.138182 435.327442 
L 755.083636 434.820733 
L 776.029091 434.916761 
L 796.974545 434.239907 
" clip-path="url(#p712b622059)" style="fill: none; stroke: #000000; stroke-width: 0.1; stroke-linecap: square"/>
    <defs>
     <path id="ma464509326" d="M 0 3 
C 0.795609 3 1.55874 2.683901 2.12132 2.12132 
C 2.683901 1.55874 3 0.795609 3 0 
C 3 -0.795609 2.683901 -1.55874 2.12132 -2.12132 
C 1.55874 -2.683901 0.795609 -3 0 -3 
C -0.795609 -3 -1.55874 -2.683901 -2.12132 -2.12132 
C -2.683901 -1.55874 -3 -0.795609 -3 0 
C -3 0.795609 -2.683901 1.55874 -2.12132 2.12132 
C -1.55874 2.683901 -0.795609 3 0 3 
z
"/>
    </defs>
    <g clip-path="url(#p712b622059)">
     <use xlink:href="#ma464509326" x="147.665455" y="497.229326" style="fill: #1f77b4"/>
     <use xlink:href="#ma464509326" x="168.610909" y="470.760617" style="fill: #1f77b4"/>
     <use xlink:href="#ma464509326" x="189.556364" y="463.960557" style="fill: #1f77b4"/>
     <use xlink:href="#ma464509326" x="210.501818" y="462.602151" style="fill: #1f77b4"/>
     <use xlink:href="#ma464509326" x="231.447273" y="456.816314" style="fill: #1f77b4"/>
     <use xlink:href="#ma464509326" x="252.392727" y="452.945868" style="fill: #1f77b4"/>
     <use xlink:href="#ma464509326" x="273.338182" y="450.979312" style="fill: #1f77b4"/>
     <use xlink:href="#ma464509326" x="294.283636" y="448.79925" style="fill: #1f77b4"/>
     <use xlink:href="#ma464509326" x="315.229091" y="447.474978" style="fill: #1f77b4"/>
     <use xlink:href="#ma464509326" x="336.174545" y="445.969758" style="fill: #1f77b4"/>
     <use xlink:href="#ma464509326" x="357.12" y="444.768187" style="fill: #1f77b4"/>
     <use xlink:href="#ma464509326" x="378.065455" y="443.007651" style="fill: #1f77b4"/>
     <use xlink:href="#ma464509326" x="399.010909" y="442.405734" style="fill: #1f77b4"/>
     <use xlink:href="#ma464509326" x="419.956364" y="441.705653" style="fill: #1f77b4"/>
     <use xlink:href="#ma464509326" x="440.901818" y="440.741902" style="fill: #1f77b4"/>
     <use xlink:href="#ma464509326" x="461.847273" y="438.639741" style="fill: #1f77b4"/>
     <use xlink:href="#ma464509326" x="482.792727" y="440.889396" style="fill: #1f77b4"/>
     <use xlink:href="#ma464509326" x="503.738182" y="440.317625" style="fill: #1f77b4"/>
     <use xlink:href="#ma464509326" x="524.683636" y="439.383177" style="fill: #1f77b4"/>
     <use xlink:href="#ma464509326" x="545.629091" y="438.686567" style="fill: #1f77b4"/>
     <use xlink:href="#ma464509326" x="566.574545" y="438.299126" style="fill: #1f77b4"/>
     <use xlink:href="#ma464509326" x="587.52" y="437.843041" style="fill: #1f77b4"/>
     <use xlink:href="#ma464509326" x="608.465455" y="437.125613" style="fill: #1f77b4"/>
     <use xlink:href="#ma464509326" x="629.410909" y="436.606659" style="fill: #1f77b4"/>
     <use xlink:href="#ma464509326" x="650.356364" y="436.727198" style="fill: #1f77b4"/>
     <use xlink:href="#ma464509326" x="671.301818" y="436.459267" style="fill: #1f77b4"/>
     <use xlink:href="#ma464509326" x="692.247273" y="435.764946" style="fill: #1f77b4"/>
     <use xlink:href="#ma464509326" x="713.192727" y="435.691273" style="fill: #1f77b4"/>
     <use xlink:href="#ma464509326" x="734.138182" y="435.327442" style="fill: #1f77b4"/>
     <use xlink:href="#ma464509326" x="755.083636" y="434.820733" style="fill: #1f77b4"/>
     <use xlink:href="#ma464509326" x="776.029091" y="434.916761" style="fill: #1f77b4"/>
     <use xlink:href="#ma464509326" x="796.974545" y="434.239907" style="fill: #1f77b4"/>
    </g>
   </g>
   <g id="line2d_66">
    <path d="M 115.2 208.816284 
L 829.44 208.816284 
" clip-path="url(#p712b622059)" style="fill: none; stroke-dasharray: 10.36,4.48; stroke-dashoffset: 0; stroke: #808080; stroke-width: 2.8"/>
   </g>
   <g id="line2d_67">
    <path d="M 147.665455 281.740435 
L 168.610909 255.038889 
L 189.556364 236.054666 
L 210.501818 229.083439 
L 231.447273 222.232009 
L 252.392727 218.314578 
L 273.338182 213.488334 
L 294.283636 212.361781 
L 315.229091 207.861421 
L 336.174545 204.426826 
L 357.12 202.549333 
L 378.065455 200.032991 
L 399.010909 201.227719 
L 419.956364 197.212243 
L 440.901818 195.267381 
L 461.847273 192.580573 
L 482.792727 194.179689 
L 503.738182 192.276217 
L 524.683636 190.10098 
L 545.629091 188.937599 
L 566.574545 187.945388 
L 587.52 184.573634 
L 608.465455 183.784614 
L 629.410909 182.338538 
L 650.356364 184.493282 
L 671.301818 180.390562 
L 692.247273 180.733784 
L 713.192727 183.742705 
L 734.138182 179.577136 
L 755.083636 177.047156 
L 776.029091 177.750323 
L 796.974545 174.364836 
" clip-path="url(#p712b622059)" style="fill: none; stroke: #000000; stroke-width: 0.1; stroke-linecap: square"/>
    <defs>
     <path id="mee4bdab708" d="M -0 8.485281 
L 5.091169 0 
L 0 -8.485281 
L -5.091169 -0 
z
"/>
    </defs>
    <g clip-path="url(#p712b622059)">
     <use xlink:href="#mee4bdab708" x="147.665455" y="281.740435" style="fill: #2ca02c"/>
     <use xlink:href="#mee4bdab708" x="168.610909" y="255.038889" style="fill: #2ca02c"/>
     <use xlink:href="#mee4bdab708" x="189.556364" y="236.054666" style="fill: #2ca02c"/>
     <use xlink:href="#mee4bdab708" x="210.501818" y="229.083439" style="fill: #2ca02c"/>
     <use xlink:href="#mee4bdab708" x="231.447273" y="222.232009" style="fill: #2ca02c"/>
     <use xlink:href="#mee4bdab708" x="252.392727" y="218.314578" style="fill: #2ca02c"/>
     <use xlink:href="#mee4bdab708" x="273.338182" y="213.488334" style="fill: #2ca02c"/>
     <use xlink:href="#mee4bdab708" x="294.283636" y="212.361781" style="fill: #2ca02c"/>
     <use xlink:href="#mee4bdab708" x="315.229091" y="207.861421" style="fill: #2ca02c"/>
     <use xlink:href="#mee4bdab708" x="336.174545" y="204.426826" style="fill: #2ca02c"/>
     <use xlink:href="#mee4bdab708" x="357.12" y="202.549333" style="fill: #2ca02c"/>
     <use xlink:href="#mee4bdab708" x="378.065455" y="200.032991" style="fill: #2ca02c"/>
     <use xlink:href="#mee4bdab708" x="399.010909" y="201.227719" style="fill: #2ca02c"/>
     <use xlink:href="#mee4bdab708" x="419.956364" y="197.212243" style="fill: #2ca02c"/>
     <use xlink:href="#mee4bdab708" x="440.901818" y="195.267381" style="fill: #2ca02c"/>
     <use xlink:href="#mee4bdab708" x="461.847273" y="192.580573" style="fill: #2ca02c"/>
     <use xlink:href="#mee4bdab708" x="482.792727" y="194.179689" style="fill: #2ca02c"/>
     <use xlink:href="#mee4bdab708" x="503.738182" y="192.276217" style="fill: #2ca02c"/>
     <use xlink:href="#mee4bdab708" x="524.683636" y="190.10098" style="fill: #2ca02c"/>
     <use xlink:href="#mee4bdab708" x="545.629091" y="188.937599" style="fill: #2ca02c"/>
     <use xlink:href="#mee4bdab708" x="566.574545" y="187.945388" style="fill: #2ca02c"/>
     <use xlink:href="#mee4bdab708" x="587.52" y="184.573634" style="fill: #2ca02c"/>
     <use xlink:href="#mee4bdab708" x="608.465455" y="183.784614" style="fill: #2ca02c"/>
     <use xlink:href="#mee4bdab708" x="629.410909" y="182.338538" style="fill: #2ca02c"/>
     <use xlink:href="#mee4bdab708" x="650.356364" y="184.493282" style="fill: #2ca02c"/>
     <use xlink:href="#mee4bdab708" x="671.301818" y="180.390562" style="fill: #2ca02c"/>
     <use xlink:href="#mee4bdab708" x="692.247273" y="180.733784" style="fill: #2ca02c"/>
     <use xlink:href="#mee4bdab708" x="713.192727" y="183.742705" style="fill: #2ca02c"/>
     <use xlink:href="#mee4bdab708" x="734.138182" y="179.577136" style="fill: #2ca02c"/>
     <use xlink:href="#mee4bdab708" x="755.083636" y="177.047156" style="fill: #2ca02c"/>
     <use xlink:href="#mee4bdab708" x="776.029091" y="177.750323" style="fill: #2ca02c"/>
     <use xlink:href="#mee4bdab708" x="796.974545" y="174.364836" style="fill: #2ca02c"/>
    </g>
   </g>
   <g id="line2d_68">
    <path d="M 115.2 208.816284 
L 829.44 208.816284 
" clip-path="url(#p712b622059)" style="fill: none; stroke-dasharray: 10.36,4.48; stroke-dashoffset: 0; stroke: #808080; stroke-width: 2.8"/>
   </g>
   <g id="line2d_69">
    <path d="M 147.665455 140.147292 
L 168.610909 125.441627 
L 189.556364 117.316797 
L 210.501818 113.413338 
L 231.447273 110.552697 
L 252.392727 108.57903 
L 273.338182 107.323756 
L 294.283636 106.108031 
L 315.229091 104.777054 
L 336.174545 104.626026 
L 357.12 104.018973 
L 378.065455 103.304077 
L 399.010909 102.716217 
L 419.956364 102.623367 
L 440.901818 102.028263 
L 461.847273 101.602619 
L 482.792727 102.092891 
L 503.738182 101.874443 
L 524.683636 101.568092 
L 545.629091 101.346983 
L 566.574545 100.911466 
L 587.52 100.933001 
L 608.465455 100.630513 
L 629.410909 100.268309 
L 650.356364 100.553114 
L 671.301818 100.334112 
L 692.247273 100.058885 
L 713.192727 99.811448 
L 734.138182 99.913018 
L 755.083636 99.580493 
L 776.029091 99.274772 
L 796.974545 98.208 
" clip-path="url(#p712b622059)" style="fill: none; stroke: #000000; stroke-width: 0.1; stroke-linecap: square"/>
    <defs>
     <path id="m71bded4338" d="M 0 -6 
L -1.347084 -1.854102 
L -5.706339 -1.854102 
L -2.179628 0.708204 
L -3.526712 4.854102 
L -0 2.291796 
L 3.526712 4.854102 
L 2.179628 0.708204 
L 5.706339 -1.854102 
L 1.347084 -1.854102 
z
"/>
    </defs>
    <g clip-path="url(#p712b622059)">
     <use xlink:href="#m71bded4338" x="147.665455" y="140.147292" style="fill: #d62728"/>
     <use xlink:href="#m71bded4338" x="168.610909" y="125.441627" style="fill: #d62728"/>
     <use xlink:href="#m71bded4338" x="189.556364" y="117.316797" style="fill: #d62728"/>
     <use xlink:href="#m71bded4338" x="210.501818" y="113.413338" style="fill: #d62728"/>
     <use xlink:href="#m71bded4338" x="231.447273" y="110.552697" style="fill: #d62728"/>
     <use xlink:href="#m71bded4338" x="252.392727" y="108.57903" style="fill: #d62728"/>
     <use xlink:href="#m71bded4338" x="273.338182" y="107.323756" style="fill: #d62728"/>
     <use xlink:href="#m71bded4338" x="294.283636" y="106.108031" style="fill: #d62728"/>
     <use xlink:href="#m71bded4338" x="315.229091" y="104.777054" style="fill: #d62728"/>
     <use xlink:href="#m71bded4338" x="336.174545" y="104.626026" style="fill: #d62728"/>
     <use xlink:href="#m71bded4338" x="357.12" y="104.018973" style="fill: #d62728"/>
     <use xlink:href="#m71bded4338" x="378.065455" y="103.304077" style="fill: #d62728"/>
     <use xlink:href="#m71bded4338" x="399.010909" y="102.716217" style="fill: #d62728"/>
     <use xlink:href="#m71bded4338" x="419.956364" y="102.623367" style="fill: #d62728"/>
     <use xlink:href="#m71bded4338" x="440.901818" y="102.028263" style="fill: #d62728"/>
     <use xlink:href="#m71bded4338" x="461.847273" y="101.602619" style="fill: #d62728"/>
     <use xlink:href="#m71bded4338" x="482.792727" y="102.092891" style="fill: #d62728"/>
     <use xlink:href="#m71bded4338" x="503.738182" y="101.874443" style="fill: #d62728"/>
     <use xlink:href="#m71bded4338" x="524.683636" y="101.568092" style="fill: #d62728"/>
     <use xlink:href="#m71bded4338" x="545.629091" y="101.346983" style="fill: #d62728"/>
     <use xlink:href="#m71bded4338" x="566.574545" y="100.911466" style="fill: #d62728"/>
     <use xlink:href="#m71bded4338" x="587.52" y="100.933001" style="fill: #d62728"/>
     <use xlink:href="#m71bded4338" x="608.465455" y="100.630513" style="fill: #d62728"/>
     <use xlink:href="#m71bded4338" x="629.410909" y="100.268309" style="fill: #d62728"/>
     <use xlink:href="#m71bded4338" x="650.356364" y="100.553114" style="fill: #d62728"/>
     <use xlink:href="#m71bded4338" x="671.301818" y="100.334112" style="fill: #d62728"/>
     <use xlink:href="#m71bded4338" x="692.247273" y="100.058885" style="fill: #d62728"/>
     <use xlink:href="#m71bded4338" x="713.192727" y="99.811448" style="fill: #d62728"/>
     <use xlink:href="#m71bded4338" x="734.138182" y="99.913018" style="fill: #d62728"/>
     <use xlink:href="#m71bded4338" x="755.083636" y="99.580493" style="fill: #d62728"/>
     <use xlink:href="#m71bded4338" x="776.029091" y="99.274772" style="fill: #d62728"/>
     <use xlink:href="#m71bded4338" x="796.974545" y="98.208" style="fill: #d62728"/>
    </g>
   </g>
   <g id="line2d_70">
    <path d="M 115.2 208.816284 
L 829.44 208.816284 
" clip-path="url(#p712b622059)" style="fill: none; stroke-dasharray: 10.36,4.48; stroke-dashoffset: 0; stroke: #808080; stroke-width: 2.8"/>
   </g>
   <g id="patch_3">
    <path d="M 115.2 563.904 
L 115.2 76.032 
" style="fill: none; stroke: #000000; stroke-width: 0.8; stroke-linejoin: miter; stroke-linecap: square"/>
   </g>
   <g id="patch_4">
    <path d="M 829.44 563.904 
L 829.44 76.032 
" style="fill: none; stroke: #000000; stroke-width: 0.8; stroke-linejoin: miter; stroke-linecap: square"/>
   </g>
   <g id="patch_5">
    <path d="M 115.2 563.904 
L 829.44 563.904 
" style="fill: none; stroke: #000000; stroke-width: 0.8; stroke-linejoin: miter; stroke-linecap: square"/>
   </g>
   <g id="patch_6">
    <path d="M 115.2 76.032 
L 829.44 76.032 
" style="fill: none; stroke: #000000; stroke-width: 0.8; stroke-linejoin: miter; stroke-linecap: square"/>
   </g>
   <g id="text_15">
    <!-- $10^9$ for scale -->
    <g transform="translate(192.174545 237.069286)scale(0.11 -0.11)">
     <defs>
      <path id="DejaVuSans-66" d="M 2375 4863 
L 2375 4384 
L 1825 4384 
Q 1516 4384 1395 4259 
Q 1275 4134 1275 3809 
L 1275 3500 
L 2222 3500 
L 2222 3053 
L 1275 3053 
L 1275 0 
L 697 0 
L 697 3053 
L 147 3053 
L 147 3500 
L 697 3500 
L 697 3744 
Q 697 4328 969 4595 
Q 1241 4863 1831 4863 
L 2375 4863 
z
" transform="scale(0.015625)"/>
     </defs>
     <use xlink:href="#DejaVuSans-31" transform="translate(0 0.765625)"/>
     <use xlink:href="#DejaVuSans-30" transform="translate(63.623047 0.765625)"/>
     <use xlink:href="#DejaVuSans-39" transform="translate(128.203125 39.046875)scale(0.7)"/>
     <use xlink:href="#DejaVuSans-20" transform="translate(175.473633 0.765625)"/>
     <use xlink:href="#DejaVuSans-66" transform="translate(207.260742 0.765625)"/>
     <use xlink:href="#DejaVuSans-6f" transform="translate(242.46582 0.765625)"/>
     <use xlink:href="#DejaVuSans-72" transform="translate(303.647461 0.765625)"/>
     <use xlink:href="#DejaVuSans-20" transform="translate(344.760742 0.765625)"/>
     <use xlink:href="#DejaVuSans-73" transform="translate(376.547852 0.765625)"/>
     <use xlink:href="#DejaVuSans-63" transform="translate(428.647461 0.765625)"/>
     <use xlink:href="#DejaVuSans-61" transform="translate(483.62793 0.765625)"/>
     <use xlink:href="#DejaVuSans-6c" transform="translate(544.907227 0.765625)"/>
     <use xlink:href="#DejaVuSans-65" transform="translate(572.69043 0.765625)"/>
    </g>
   </g>
  </g>
 </g>
 <defs>
  <clipPath id="p712b622059">
   <rect x="115.2" y="76.032" width="714.24" height="487.872"/>
  </clipPath>
 </defs>
</svg>
