<?xml version="1.0" encoding="utf-8" standalone="no"?>
<!DOCTYPE svg PUBLIC "-//W3C//DTD SVG 1.1//EN"
  "http://www.w3.org/Graphics/SVG/1.1/DTD/svg11.dtd">
<svg xmlns:xlink="http://www.w3.org/1999/xlink" width="921.6pt" height="633.6pt" viewBox="0 0 921.6 633.6" xmlns="http://www.w3.org/2000/svg" version="1.1">
 <metadata>
  <rdf:RDF xmlns:dc="http://purl.org/dc/elements/1.1/" xmlns:cc="http://creativecommons.org/ns#" xmlns:rdf="http://www.w3.org/1999/02/22-rdf-syntax-ns#">
   <cc:Work>
    <dc:type rdf:resource="http://purl.org/dc/dcmitype/StillImage"/>
    <dc:date>2022-11-02T20:32:53.143861</dc:date>
    <dc:format>image/svg+xml</dc:format>
    <dc:creator>
     <cc:Agent>
      <dc:title>Matplotlib v3.5.3, https://matplotlib.org/</dc:title>
     </cc:Agent>
    </dc:creator>
   </cc:Work>
  </rdf:RDF>
 </metadata>
 <defs>
  <style type="text/css">*{stroke-linejoin: round; stroke-linecap: butt}</style>
 </defs>
 <g id="figure_1">
  <g id="patch_1">
   <path d="M 0 633.6 
L 921.6 633.6 
L 921.6 0 
L 0 0 
z
" style="fill: #ffffff"/>
  </g>
  <g id="axes_1">
   <g id="patch_2">
    <path d="M 115.2 563.904 
L 829.44 563.904 
L 829.44 76.032 
L 115.2 76.032 
z
" style="fill: #ffffff"/>
   </g>
   <g id="PolyCollection_1">
    <defs>
     <path id="mb6308f00af" d="M 147.665455 -91.872 
L 147.665455 -91.872 
L 168.610909 -125.914807 
L 189.556364 -143.252006 
L 210.501818 -150.623639 
L 231.447273 -162.130805 
L 252.392727 -167.475634 
L 273.338182 -172.114953 
L 294.283636 -176.272097 
L 315.229091 -178.909714 
L 336.174545 -182.283058 
L 357.12 -183.978919 
L 378.065455 -185.566906 
L 399.010909 -185.341933 
L 419.956364 -188.819258 
L 440.901818 -190.885014 
L 461.847273 -191.47557 
L 482.792727 -191.75852 
L 503.738182 -190.171444 
L 524.683636 -195.24326 
L 545.629091 -195.339971 
L 566.574545 -196.937013 
L 587.52 -196.966561 
L 608.465455 -197.640334 
L 629.410909 -198.632739 
L 650.356364 -199.259424 
L 671.301818 -199.752768 
L 692.247273 -200.116165 
L 713.192727 -199.643039 
L 734.138182 -201.223032 
L 755.083636 -201.145986 
L 776.029091 -201.991757 
L 796.974545 -202.346686 
L 796.974545 -202.346686 
L 796.974545 -202.346686 
L 776.029091 -201.991757 
L 755.083636 -201.145986 
L 734.138182 -201.223032 
L 713.192727 -199.643039 
L 692.247273 -200.116165 
L 671.301818 -199.752768 
L 650.356364 -199.259424 
L 629.410909 -198.632739 
L 608.465455 -197.640334 
L 587.52 -196.966561 
L 566.574545 -196.937013 
L 545.629091 -195.339971 
L 524.683636 -195.24326 
L 503.738182 -190.171444 
L 482.792727 -191.75852 
L 461.847273 -191.47557 
L 440.901818 -190.885014 
L 419.956364 -188.819258 
L 399.010909 -185.341933 
L 378.065455 -185.566906 
L 357.12 -183.978919 
L 336.174545 -182.283058 
L 315.229091 -178.909714 
L 294.283636 -176.272097 
L 273.338182 -172.114953 
L 252.392727 -167.475634 
L 231.447273 -162.130805 
L 210.501818 -150.623639 
L 189.556364 -143.252006 
L 168.610909 -125.914807 
L 147.665455 -91.872 
z
" style="stroke: #fff8dc; stroke-width: 0.48"/>
    </defs>
    <g clip-path="url(#p92350d9e24)">
     <use xlink:href="#mb6308f00af" x="0" y="633.6" style="fill: #fff8dc; stroke: #fff8dc; stroke-width: 0.48"/>
    </g>
   </g>
   <g id="PolyCollection_2">
    <defs>
     <path id="ma0faff3235" d="M 147.665455 -165.318435 
L 147.665455 -165.318435 
L 168.610909 -189.185064 
L 189.556364 -196.78025 
L 210.501818 -203.270368 
L 231.447273 -206.675067 
L 252.392727 -209.282638 
L 273.338182 -212.103839 
L 294.283636 -215.095222 
L 315.229091 -216.09981 
L 336.174545 -218.551905 
L 357.12 -219.949536 
L 378.065455 -221.9851 
L 399.010909 -222.927102 
L 419.956364 -223.98603 
L 440.901818 -225.035236 
L 461.847273 -227.473041 
L 482.792727 -224.959371 
L 503.738182 -225.486629 
L 524.683636 -226.932507 
L 545.629091 -227.298449 
L 566.574545 -228.123559 
L 587.52 -228.757135 
L 608.465455 -229.627925 
L 629.410909 -230.78006 
L 650.356364 -230.245957 
L 671.301818 -230.588902 
L 692.247273 -231.431755 
L 713.192727 -231.673768 
L 734.138182 -231.955769 
L 755.083636 -232.765464 
L 776.029091 -232.887033 
L 796.974545 -233.729367 
L 796.974545 -233.729367 
L 796.974545 -233.729367 
L 776.029091 -232.887033 
L 755.083636 -232.765464 
L 734.138182 -231.955769 
L 713.192727 -231.673768 
L 692.247273 -231.431755 
L 671.301818 -230.588902 
L 650.356364 -230.245957 
L 629.410909 -230.78006 
L 608.465455 -229.627925 
L 587.52 -228.757135 
L 566.574545 -228.123559 
L 545.629091 -227.298449 
L 524.683636 -226.932507 
L 503.738182 -225.486629 
L 482.792727 -224.959371 
L 461.847273 -227.473041 
L 440.901818 -225.035236 
L 419.956364 -223.98603 
L 399.010909 -222.927102 
L 378.065455 -221.9851 
L 357.12 -219.949536 
L 336.174545 -218.551905 
L 315.229091 -216.09981 
L 294.283636 -215.095222 
L 273.338182 -212.103839 
L 252.392727 -209.282638 
L 231.447273 -206.675067 
L 210.501818 -203.270368 
L 189.556364 -196.78025 
L 168.610909 -189.185064 
L 147.665455 -165.318435 
z
" style="stroke: #fff8dc; stroke-width: 0.48"/>
    </defs>
    <g clip-path="url(#p92350d9e24)">
     <use xlink:href="#ma0faff3235" x="0" y="633.6" style="fill: #fff8dc; stroke: #fff8dc; stroke-width: 0.48"/>
    </g>
   </g>
   <g id="PolyCollection_3">
    <defs>
     <path id="mdab623d5b8" d="M 147.665455 -154.656868 
L 147.665455 -154.656868 
L 168.610909 -176.456512 
L 189.556364 -183.909563 
L 210.501818 -189.149285 
L 231.447273 -193.093701 
L 252.392727 -196.65213 
L 273.338182 -198.019 
L 294.283636 -200.991197 
L 315.229091 -202.338917 
L 336.174545 -204.396064 
L 357.12 -205.022582 
L 378.065455 -207.515799 
L 399.010909 -208.455226 
L 419.956364 -202.725778 
L 440.901818 -200.930263 
L 461.847273 -211.969511 
L 482.792727 -210.19148 
L 503.738182 -210.566595 
L 524.683636 -211.725375 
L 545.629091 -212.583535 
L 566.574545 -212.934868 
L 587.52 -213.279504 
L 608.465455 -214.09179 
L 629.410909 -215.025382 
L 650.356364 -214.491746 
L 671.301818 -215.022576 
L 692.247273 -215.755796 
L 713.192727 -216.018859 
L 734.138182 -216.478513 
L 755.083636 -217.067667 
L 776.029091 -217.033479 
L 796.974545 -217.660659 
L 796.974545 -217.660659 
L 796.974545 -217.660659 
L 776.029091 -217.033479 
L 755.083636 -217.067667 
L 734.138182 -216.478513 
L 713.192727 -216.018859 
L 692.247273 -215.755796 
L 671.301818 -215.022576 
L 650.356364 -214.491746 
L 629.410909 -215.025382 
L 608.465455 -214.09179 
L 587.52 -213.279504 
L 566.574545 -212.934868 
L 545.629091 -212.583535 
L 524.683636 -211.725375 
L 503.738182 -210.566595 
L 482.792727 -210.19148 
L 461.847273 -211.969511 
L 440.901818 -200.930263 
L 419.956364 -202.725778 
L 399.010909 -208.455226 
L 378.065455 -207.515799 
L 357.12 -205.022582 
L 336.174545 -204.396064 
L 315.229091 -202.338917 
L 294.283636 -200.991197 
L 273.338182 -198.019 
L 252.392727 -196.65213 
L 231.447273 -193.093701 
L 210.501818 -189.149285 
L 189.556364 -183.909563 
L 168.610909 -176.456512 
L 147.665455 -154.656868 
z
" style="stroke: #fff8dc; stroke-width: 0.48"/>
    </defs>
    <g clip-path="url(#p92350d9e24)">
     <use xlink:href="#mdab623d5b8" x="0" y="633.6" style="fill: #fff8dc; stroke: #fff8dc; stroke-width: 0.48"/>
    </g>
   </g>
   <g id="PolyCollection_4">
    <defs>
     <path id="m092253ea28" d="M 147.665455 -390.095284 
L 147.665455 -390.095284 
L 168.610909 -419.070536 
L 189.556364 -437.066034 
L 210.501818 -444.380337 
L 231.447273 -455.14523 
L 252.392727 -455.582976 
L 273.338182 -463.897227 
L 294.283636 -466.93826 
L 315.229091 -469.301002 
L 336.174545 -471.089008 
L 357.12 -475.740401 
L 378.065455 -474.583879 
L 399.010909 -481.222787 
L 419.956364 -484.589883 
L 440.901818 -485.601307 
L 461.847273 -481.565954 
L 482.792727 -486.674007 
L 503.738182 -488.218687 
L 524.683636 -491.723511 
L 545.629091 -480.031263 
L 566.574545 -486.227749 
L 587.52 -493.062482 
L 608.465455 -493.666735 
L 629.410909 -491.040922 
L 650.356364 -485.981575 
L 671.301818 -494.235768 
L 692.247273 -474.97016 
L 713.192727 -488.305855 
L 734.138182 -486.462635 
L 755.083636 -503.716322 
L 776.029091 -498.944813 
L 796.974545 -489.353528 
L 796.974545 -489.353528 
L 796.974545 -510.911546 
L 776.029091 -508.994474 
L 755.083636 -511.215341 
L 734.138182 -514.789268 
L 713.192727 -511.859334 
L 692.247273 -501.896071 
L 671.301818 -500.952441 
L 650.356364 -505.685071 
L 629.410909 -509.106881 
L 608.465455 -502.477739 
L 587.52 -499.366349 
L 566.574545 -498.812475 
L 545.629091 -499.106241 
L 524.683636 -496.1815 
L 503.738182 -492.186414 
L 482.792727 -491.881666 
L 461.847273 -491.818225 
L 440.901818 -489.998864 
L 419.956364 -487.412266 
L 399.010909 -484.622593 
L 378.065455 -484.459918 
L 357.12 -477.74905 
L 336.174545 -476.733148 
L 315.229091 -475.444959 
L 294.283636 -472.512606 
L 273.338182 -469.757497 
L 252.392727 -464.305188 
L 231.447273 -458.071442 
L 210.501818 -455.295826 
L 189.556364 -445.298205 
L 168.610909 -430.152535 
L 147.665455 -401.417748 
z
" style="stroke: #fff8dc; stroke-width: 0.48"/>
    </defs>
    <g clip-path="url(#p92350d9e24)">
     <use xlink:href="#m092253ea28" x="0" y="633.6" style="fill: #fff8dc; stroke: #fff8dc; stroke-width: 0.48"/>
    </g>
   </g>
   <g id="PolyCollection_5">
    <defs>
     <path id="mf204a3aa5e" d="M 147.665455 -382.372259 
L 147.665455 -382.372259 
L 168.610909 -416.334485 
L 189.556364 -435.921471 
L 210.501818 -448.786504 
L 231.447273 -458.520394 
L 252.392727 -466.447289 
L 273.338182 -472.964685 
L 294.283636 -478.531729 
L 315.229091 -483.553546 
L 336.174545 -487.906329 
L 357.12 -491.862466 
L 378.065455 -495.417097 
L 399.010909 -498.7467 
L 419.956364 -501.824086 
L 440.901818 -504.721768 
L 461.847273 -507.246972 
L 482.792727 -509.782165 
L 503.738182 -512.09686 
L 524.683636 -514.319055 
L 545.629091 -516.391734 
L 566.574545 -518.408591 
L 587.52 -520.296304 
L 608.465455 -522.08707 
L 629.410909 -523.805173 
L 650.356364 -525.486956 
L 671.301818 -527.09459 
L 692.247273 -528.597613 
L 713.192727 -530.083212 
L 734.138182 -531.50288 
L 755.083636 -532.873173 
L 776.029091 -534.188942 
L 796.974545 -535.392 
L 796.974545 -535.392 
L 796.974545 -535.392 
L 776.029091 -534.188942 
L 755.083636 -532.873173 
L 734.138182 -531.50288 
L 713.192727 -530.083212 
L 692.247273 -528.597613 
L 671.301818 -527.09459 
L 650.356364 -525.486956 
L 629.410909 -523.805173 
L 608.465455 -522.08707 
L 587.52 -520.296304 
L 566.574545 -518.408591 
L 545.629091 -516.391734 
L 524.683636 -514.319055 
L 503.738182 -512.09686 
L 482.792727 -509.782165 
L 461.847273 -507.246972 
L 440.901818 -504.721768 
L 419.956364 -501.824086 
L 399.010909 -498.7467 
L 378.065455 -495.417097 
L 357.12 -491.862466 
L 336.174545 -487.906329 
L 315.229091 -483.553546 
L 294.283636 -478.531729 
L 273.338182 -472.964685 
L 252.392727 -466.447289 
L 231.447273 -458.520394 
L 210.501818 -448.786504 
L 189.556364 -435.921471 
L 168.610909 -416.334485 
L 147.665455 -382.372259 
z
" style="stroke: #fff8dc; stroke-width: 0.48"/>
    </defs>
    <g clip-path="url(#p92350d9e24)">
     <use xlink:href="#mf204a3aa5e" x="0" y="633.6" style="fill: #fff8dc; stroke: #fff8dc; stroke-width: 0.48"/>
    </g>
   </g>
   <g id="matplotlib.axis_1">
    <g id="xtick_1">
     <g id="line2d_1">
      <defs>
       <path id="mbfe5cb15e7" d="M 0 0 
L 0 3.5 
" style="stroke: #000000; stroke-width: 1.6"/>
      </defs>
      <g>
       <use xlink:href="#mbfe5cb15e7" x="147.665455" y="563.904" style="stroke: #000000; stroke-width: 1.6"/>
      </g>
     </g>
     <g id="text_1">
      <!-- 1, 8 -->
      <g transform="translate(137.170767 586.962281)scale(0.11 -0.11)">
       <defs>
        <path id="DejaVuSans-31" d="M 794 531 
L 1825 531 
L 1825 4091 
L 703 3866 
L 703 4441 
L 1819 4666 
L 2450 4666 
L 2450 531 
L 3481 531 
L 3481 0 
L 794 0 
L 794 531 
z
" transform="scale(0.015625)"/>
        <path id="DejaVuSans-2c" d="M 750 794 
L 1409 794 
L 1409 256 
L 897 -744 
L 494 -744 
L 750 256 
L 750 794 
z
" transform="scale(0.015625)"/>
        <path id="DejaVuSans-20" transform="scale(0.015625)"/>
        <path id="DejaVuSans-38" d="M 2034 2216 
Q 1584 2216 1326 1975 
Q 1069 1734 1069 1313 
Q 1069 891 1326 650 
Q 1584 409 2034 409 
Q 2484 409 2743 651 
Q 3003 894 3003 1313 
Q 3003 1734 2745 1975 
Q 2488 2216 2034 2216 
z
M 1403 2484 
Q 997 2584 770 2862 
Q 544 3141 544 3541 
Q 544 4100 942 4425 
Q 1341 4750 2034 4750 
Q 2731 4750 3128 4425 
Q 3525 4100 3525 3541 
Q 3525 3141 3298 2862 
Q 3072 2584 2669 2484 
Q 3125 2378 3379 2068 
Q 3634 1759 3634 1313 
Q 3634 634 3220 271 
Q 2806 -91 2034 -91 
Q 1263 -91 848 271 
Q 434 634 434 1313 
Q 434 1759 690 2068 
Q 947 2378 1403 2484 
z
M 1172 3481 
Q 1172 3119 1398 2916 
Q 1625 2713 2034 2713 
Q 2441 2713 2670 2916 
Q 2900 3119 2900 3481 
Q 2900 3844 2670 4047 
Q 2441 4250 2034 4250 
Q 1625 4250 1398 4047 
Q 1172 3844 1172 3481 
z
" transform="scale(0.015625)"/>
       </defs>
       <use xlink:href="#DejaVuSans-31"/>
       <use xlink:href="#DejaVuSans-2c" x="63.623047"/>
       <use xlink:href="#DejaVuSans-20" x="95.410156"/>
       <use xlink:href="#DejaVuSans-38" x="127.197266"/>
      </g>
     </g>
    </g>
    <g id="xtick_2">
     <g id="line2d_2">
      <g>
       <use xlink:href="#mbfe5cb15e7" x="273.338182" y="563.904" style="stroke: #000000; stroke-width: 1.6"/>
      </g>
     </g>
     <g id="text_2">
      <!-- 7, 56 -->
      <g transform="translate(259.344119 586.962281)scale(0.11 -0.11)">
       <defs>
        <path id="DejaVuSans-37" d="M 525 4666 
L 3525 4666 
L 3525 4397 
L 1831 0 
L 1172 0 
L 2766 4134 
L 525 4134 
L 525 4666 
z
" transform="scale(0.015625)"/>
        <path id="DejaVuSans-35" d="M 691 4666 
L 3169 4666 
L 3169 4134 
L 1269 4134 
L 1269 2991 
Q 1406 3038 1543 3061 
Q 1681 3084 1819 3084 
Q 2600 3084 3056 2656 
Q 3513 2228 3513 1497 
Q 3513 744 3044 326 
Q 2575 -91 1722 -91 
Q 1428 -91 1123 -41 
Q 819 9 494 109 
L 494 744 
Q 775 591 1075 516 
Q 1375 441 1709 441 
Q 2250 441 2565 725 
Q 2881 1009 2881 1497 
Q 2881 1984 2565 2268 
Q 2250 2553 1709 2553 
Q 1456 2553 1204 2497 
Q 953 2441 691 2322 
L 691 4666 
z
" transform="scale(0.015625)"/>
        <path id="DejaVuSans-36" d="M 2113 2584 
Q 1688 2584 1439 2293 
Q 1191 2003 1191 1497 
Q 1191 994 1439 701 
Q 1688 409 2113 409 
Q 2538 409 2786 701 
Q 3034 994 3034 1497 
Q 3034 2003 2786 2293 
Q 2538 2584 2113 2584 
z
M 3366 4563 
L 3366 3988 
Q 3128 4100 2886 4159 
Q 2644 4219 2406 4219 
Q 1781 4219 1451 3797 
Q 1122 3375 1075 2522 
Q 1259 2794 1537 2939 
Q 1816 3084 2150 3084 
Q 2853 3084 3261 2657 
Q 3669 2231 3669 1497 
Q 3669 778 3244 343 
Q 2819 -91 2113 -91 
Q 1303 -91 875 529 
Q 447 1150 447 2328 
Q 447 3434 972 4092 
Q 1497 4750 2381 4750 
Q 2619 4750 2861 4703 
Q 3103 4656 3366 4563 
z
" transform="scale(0.015625)"/>
       </defs>
       <use xlink:href="#DejaVuSans-37"/>
       <use xlink:href="#DejaVuSans-2c" x="63.623047"/>
       <use xlink:href="#DejaVuSans-20" x="95.410156"/>
       <use xlink:href="#DejaVuSans-35" x="127.197266"/>
       <use xlink:href="#DejaVuSans-36" x="190.820312"/>
      </g>
     </g>
    </g>
    <g id="xtick_3">
     <g id="line2d_3">
      <g>
       <use xlink:href="#mbfe5cb15e7" x="399.010909" y="563.904" style="stroke: #000000; stroke-width: 1.6"/>
      </g>
     </g>
     <g id="text_3">
      <!-- 13, 104 -->
      <g transform="translate(378.018097 586.962281)scale(0.11 -0.11)">
       <defs>
        <path id="DejaVuSans-33" d="M 2597 2516 
Q 3050 2419 3304 2112 
Q 3559 1806 3559 1356 
Q 3559 666 3084 287 
Q 2609 -91 1734 -91 
Q 1441 -91 1130 -33 
Q 819 25 488 141 
L 488 750 
Q 750 597 1062 519 
Q 1375 441 1716 441 
Q 2309 441 2620 675 
Q 2931 909 2931 1356 
Q 2931 1769 2642 2001 
Q 2353 2234 1838 2234 
L 1294 2234 
L 1294 2753 
L 1863 2753 
Q 2328 2753 2575 2939 
Q 2822 3125 2822 3475 
Q 2822 3834 2567 4026 
Q 2313 4219 1838 4219 
Q 1578 4219 1281 4162 
Q 984 4106 628 3988 
L 628 4550 
Q 988 4650 1302 4700 
Q 1616 4750 1894 4750 
Q 2613 4750 3031 4423 
Q 3450 4097 3450 3541 
Q 3450 3153 3228 2886 
Q 3006 2619 2597 2516 
z
" transform="scale(0.015625)"/>
        <path id="DejaVuSans-30" d="M 2034 4250 
Q 1547 4250 1301 3770 
Q 1056 3291 1056 2328 
Q 1056 1369 1301 889 
Q 1547 409 2034 409 
Q 2525 409 2770 889 
Q 3016 1369 3016 2328 
Q 3016 3291 2770 3770 
Q 2525 4250 2034 4250 
z
M 2034 4750 
Q 2819 4750 3233 4129 
Q 3647 3509 3647 2328 
Q 3647 1150 3233 529 
Q 2819 -91 2034 -91 
Q 1250 -91 836 529 
Q 422 1150 422 2328 
Q 422 3509 836 4129 
Q 1250 4750 2034 4750 
z
" transform="scale(0.015625)"/>
        <path id="DejaVuSans-34" d="M 2419 4116 
L 825 1625 
L 2419 1625 
L 2419 4116 
z
M 2253 4666 
L 3047 4666 
L 3047 1625 
L 3713 1625 
L 3713 1100 
L 3047 1100 
L 3047 0 
L 2419 0 
L 2419 1100 
L 313 1100 
L 313 1709 
L 2253 4666 
z
" transform="scale(0.015625)"/>
       </defs>
       <use xlink:href="#DejaVuSans-31"/>
       <use xlink:href="#DejaVuSans-33" x="63.623047"/>
       <use xlink:href="#DejaVuSans-2c" x="127.246094"/>
       <use xlink:href="#DejaVuSans-20" x="159.033203"/>
       <use xlink:href="#DejaVuSans-31" x="190.820312"/>
       <use xlink:href="#DejaVuSans-30" x="254.443359"/>
       <use xlink:href="#DejaVuSans-34" x="318.066406"/>
      </g>
     </g>
    </g>
    <g id="xtick_4">
     <g id="line2d_4">
      <g>
       <use xlink:href="#mbfe5cb15e7" x="524.683636" y="563.904" style="stroke: #000000; stroke-width: 1.6"/>
      </g>
     </g>
     <g id="text_4">
      <!-- 19, 152 -->
      <g transform="translate(503.690824 586.962281)scale(0.11 -0.11)">
       <defs>
        <path id="DejaVuSans-39" d="M 703 97 
L 703 672 
Q 941 559 1184 500 
Q 1428 441 1663 441 
Q 2288 441 2617 861 
Q 2947 1281 2994 2138 
Q 2813 1869 2534 1725 
Q 2256 1581 1919 1581 
Q 1219 1581 811 2004 
Q 403 2428 403 3163 
Q 403 3881 828 4315 
Q 1253 4750 1959 4750 
Q 2769 4750 3195 4129 
Q 3622 3509 3622 2328 
Q 3622 1225 3098 567 
Q 2575 -91 1691 -91 
Q 1453 -91 1209 -44 
Q 966 3 703 97 
z
M 1959 2075 
Q 2384 2075 2632 2365 
Q 2881 2656 2881 3163 
Q 2881 3666 2632 3958 
Q 2384 4250 1959 4250 
Q 1534 4250 1286 3958 
Q 1038 3666 1038 3163 
Q 1038 2656 1286 2365 
Q 1534 2075 1959 2075 
z
" transform="scale(0.015625)"/>
        <path id="DejaVuSans-32" d="M 1228 531 
L 3431 531 
L 3431 0 
L 469 0 
L 469 531 
Q 828 903 1448 1529 
Q 2069 2156 2228 2338 
Q 2531 2678 2651 2914 
Q 2772 3150 2772 3378 
Q 2772 3750 2511 3984 
Q 2250 4219 1831 4219 
Q 1534 4219 1204 4116 
Q 875 4013 500 3803 
L 500 4441 
Q 881 4594 1212 4672 
Q 1544 4750 1819 4750 
Q 2544 4750 2975 4387 
Q 3406 4025 3406 3419 
Q 3406 3131 3298 2873 
Q 3191 2616 2906 2266 
Q 2828 2175 2409 1742 
Q 1991 1309 1228 531 
z
" transform="scale(0.015625)"/>
       </defs>
       <use xlink:href="#DejaVuSans-31"/>
       <use xlink:href="#DejaVuSans-39" x="63.623047"/>
       <use xlink:href="#DejaVuSans-2c" x="127.246094"/>
       <use xlink:href="#DejaVuSans-20" x="159.033203"/>
       <use xlink:href="#DejaVuSans-31" x="190.820312"/>
       <use xlink:href="#DejaVuSans-35" x="254.443359"/>
       <use xlink:href="#DejaVuSans-32" x="318.066406"/>
      </g>
     </g>
    </g>
    <g id="xtick_5">
     <g id="line2d_5">
      <g>
       <use xlink:href="#mbfe5cb15e7" x="650.356364" y="563.904" style="stroke: #000000; stroke-width: 1.6"/>
      </g>
     </g>
     <g id="text_5">
      <!-- 25, 200 -->
      <g transform="translate(629.363551 586.962281)scale(0.11 -0.11)">
       <use xlink:href="#DejaVuSans-32"/>
       <use xlink:href="#DejaVuSans-35" x="63.623047"/>
       <use xlink:href="#DejaVuSans-2c" x="127.246094"/>
       <use xlink:href="#DejaVuSans-20" x="159.033203"/>
       <use xlink:href="#DejaVuSans-32" x="190.820312"/>
       <use xlink:href="#DejaVuSans-30" x="254.443359"/>
       <use xlink:href="#DejaVuSans-30" x="318.066406"/>
      </g>
     </g>
    </g>
    <g id="xtick_6">
     <g id="line2d_6">
      <g>
       <use xlink:href="#mbfe5cb15e7" x="776.029091" y="563.904" style="stroke: #000000; stroke-width: 1.6"/>
      </g>
     </g>
     <g id="text_6">
      <!-- 31, 248 -->
      <g transform="translate(755.036278 586.962281)scale(0.11 -0.11)">
       <use xlink:href="#DejaVuSans-33"/>
       <use xlink:href="#DejaVuSans-31" x="63.623047"/>
       <use xlink:href="#DejaVuSans-2c" x="127.246094"/>
       <use xlink:href="#DejaVuSans-20" x="159.033203"/>
       <use xlink:href="#DejaVuSans-32" x="190.820312"/>
       <use xlink:href="#DejaVuSans-34" x="254.443359"/>
       <use xlink:href="#DejaVuSans-38" x="318.066406"/>
      </g>
     </g>
    </g>
    <g id="text_7">
     <!-- Bin number, maximum program size -->
     <g transform="translate(343.975 603.88775)scale(0.14 -0.14)">
      <defs>
       <path id="DejaVuSans-42" d="M 1259 2228 
L 1259 519 
L 2272 519 
Q 2781 519 3026 730 
Q 3272 941 3272 1375 
Q 3272 1813 3026 2020 
Q 2781 2228 2272 2228 
L 1259 2228 
z
M 1259 4147 
L 1259 2741 
L 2194 2741 
Q 2656 2741 2882 2914 
Q 3109 3088 3109 3444 
Q 3109 3797 2882 3972 
Q 2656 4147 2194 4147 
L 1259 4147 
z
M 628 4666 
L 2241 4666 
Q 2963 4666 3353 4366 
Q 3744 4066 3744 3513 
Q 3744 3084 3544 2831 
Q 3344 2578 2956 2516 
Q 3422 2416 3680 2098 
Q 3938 1781 3938 1306 
Q 3938 681 3513 340 
Q 3088 0 2303 0 
L 628 0 
L 628 4666 
z
" transform="scale(0.015625)"/>
       <path id="DejaVuSans-69" d="M 603 3500 
L 1178 3500 
L 1178 0 
L 603 0 
L 603 3500 
z
M 603 4863 
L 1178 4863 
L 1178 4134 
L 603 4134 
L 603 4863 
z
" transform="scale(0.015625)"/>
       <path id="DejaVuSans-6e" d="M 3513 2113 
L 3513 0 
L 2938 0 
L 2938 2094 
Q 2938 2591 2744 2837 
Q 2550 3084 2163 3084 
Q 1697 3084 1428 2787 
Q 1159 2491 1159 1978 
L 1159 0 
L 581 0 
L 581 3500 
L 1159 3500 
L 1159 2956 
Q 1366 3272 1645 3428 
Q 1925 3584 2291 3584 
Q 2894 3584 3203 3211 
Q 3513 2838 3513 2113 
z
" transform="scale(0.015625)"/>
       <path id="DejaVuSans-75" d="M 544 1381 
L 544 3500 
L 1119 3500 
L 1119 1403 
Q 1119 906 1312 657 
Q 1506 409 1894 409 
Q 2359 409 2629 706 
Q 2900 1003 2900 1516 
L 2900 3500 
L 3475 3500 
L 3475 0 
L 2900 0 
L 2900 538 
Q 2691 219 2414 64 
Q 2138 -91 1772 -91 
Q 1169 -91 856 284 
Q 544 659 544 1381 
z
M 1991 3584 
L 1991 3584 
z
" transform="scale(0.015625)"/>
       <path id="DejaVuSans-6d" d="M 3328 2828 
Q 3544 3216 3844 3400 
Q 4144 3584 4550 3584 
Q 5097 3584 5394 3201 
Q 5691 2819 5691 2113 
L 5691 0 
L 5113 0 
L 5113 2094 
Q 5113 2597 4934 2840 
Q 4756 3084 4391 3084 
Q 3944 3084 3684 2787 
Q 3425 2491 3425 1978 
L 3425 0 
L 2847 0 
L 2847 2094 
Q 2847 2600 2669 2842 
Q 2491 3084 2119 3084 
Q 1678 3084 1418 2786 
Q 1159 2488 1159 1978 
L 1159 0 
L 581 0 
L 581 3500 
L 1159 3500 
L 1159 2956 
Q 1356 3278 1631 3431 
Q 1906 3584 2284 3584 
Q 2666 3584 2933 3390 
Q 3200 3197 3328 2828 
z
" transform="scale(0.015625)"/>
       <path id="DejaVuSans-62" d="M 3116 1747 
Q 3116 2381 2855 2742 
Q 2594 3103 2138 3103 
Q 1681 3103 1420 2742 
Q 1159 2381 1159 1747 
Q 1159 1113 1420 752 
Q 1681 391 2138 391 
Q 2594 391 2855 752 
Q 3116 1113 3116 1747 
z
M 1159 2969 
Q 1341 3281 1617 3432 
Q 1894 3584 2278 3584 
Q 2916 3584 3314 3078 
Q 3713 2572 3713 1747 
Q 3713 922 3314 415 
Q 2916 -91 2278 -91 
Q 1894 -91 1617 61 
Q 1341 213 1159 525 
L 1159 0 
L 581 0 
L 581 4863 
L 1159 4863 
L 1159 2969 
z
" transform="scale(0.015625)"/>
       <path id="DejaVuSans-65" d="M 3597 1894 
L 3597 1613 
L 953 1613 
Q 991 1019 1311 708 
Q 1631 397 2203 397 
Q 2534 397 2845 478 
Q 3156 559 3463 722 
L 3463 178 
Q 3153 47 2828 -22 
Q 2503 -91 2169 -91 
Q 1331 -91 842 396 
Q 353 884 353 1716 
Q 353 2575 817 3079 
Q 1281 3584 2069 3584 
Q 2775 3584 3186 3129 
Q 3597 2675 3597 1894 
z
M 3022 2063 
Q 3016 2534 2758 2815 
Q 2500 3097 2075 3097 
Q 1594 3097 1305 2825 
Q 1016 2553 972 2059 
L 3022 2063 
z
" transform="scale(0.015625)"/>
       <path id="DejaVuSans-72" d="M 2631 2963 
Q 2534 3019 2420 3045 
Q 2306 3072 2169 3072 
Q 1681 3072 1420 2755 
Q 1159 2438 1159 1844 
L 1159 0 
L 581 0 
L 581 3500 
L 1159 3500 
L 1159 2956 
Q 1341 3275 1631 3429 
Q 1922 3584 2338 3584 
Q 2397 3584 2469 3576 
Q 2541 3569 2628 3553 
L 2631 2963 
z
" transform="scale(0.015625)"/>
       <path id="DejaVuSans-61" d="M 2194 1759 
Q 1497 1759 1228 1600 
Q 959 1441 959 1056 
Q 959 750 1161 570 
Q 1363 391 1709 391 
Q 2188 391 2477 730 
Q 2766 1069 2766 1631 
L 2766 1759 
L 2194 1759 
z
M 3341 1997 
L 3341 0 
L 2766 0 
L 2766 531 
Q 2569 213 2275 61 
Q 1981 -91 1556 -91 
Q 1019 -91 701 211 
Q 384 513 384 1019 
Q 384 1609 779 1909 
Q 1175 2209 1959 2209 
L 2766 2209 
L 2766 2266 
Q 2766 2663 2505 2880 
Q 2244 3097 1772 3097 
Q 1472 3097 1187 3025 
Q 903 2953 641 2809 
L 641 3341 
Q 956 3463 1253 3523 
Q 1550 3584 1831 3584 
Q 2591 3584 2966 3190 
Q 3341 2797 3341 1997 
z
" transform="scale(0.015625)"/>
       <path id="DejaVuSans-78" d="M 3513 3500 
L 2247 1797 
L 3578 0 
L 2900 0 
L 1881 1375 
L 863 0 
L 184 0 
L 1544 1831 
L 300 3500 
L 978 3500 
L 1906 2253 
L 2834 3500 
L 3513 3500 
z
" transform="scale(0.015625)"/>
       <path id="DejaVuSans-70" d="M 1159 525 
L 1159 -1331 
L 581 -1331 
L 581 3500 
L 1159 3500 
L 1159 2969 
Q 1341 3281 1617 3432 
Q 1894 3584 2278 3584 
Q 2916 3584 3314 3078 
Q 3713 2572 3713 1747 
Q 3713 922 3314 415 
Q 2916 -91 2278 -91 
Q 1894 -91 1617 61 
Q 1341 213 1159 525 
z
M 3116 1747 
Q 3116 2381 2855 2742 
Q 2594 3103 2138 3103 
Q 1681 3103 1420 2742 
Q 1159 2381 1159 1747 
Q 1159 1113 1420 752 
Q 1681 391 2138 391 
Q 2594 391 2855 752 
Q 3116 1113 3116 1747 
z
" transform="scale(0.015625)"/>
       <path id="DejaVuSans-6f" d="M 1959 3097 
Q 1497 3097 1228 2736 
Q 959 2375 959 1747 
Q 959 1119 1226 758 
Q 1494 397 1959 397 
Q 2419 397 2687 759 
Q 2956 1122 2956 1747 
Q 2956 2369 2687 2733 
Q 2419 3097 1959 3097 
z
M 1959 3584 
Q 2709 3584 3137 3096 
Q 3566 2609 3566 1747 
Q 3566 888 3137 398 
Q 2709 -91 1959 -91 
Q 1206 -91 779 398 
Q 353 888 353 1747 
Q 353 2609 779 3096 
Q 1206 3584 1959 3584 
z
" transform="scale(0.015625)"/>
       <path id="DejaVuSans-67" d="M 2906 1791 
Q 2906 2416 2648 2759 
Q 2391 3103 1925 3103 
Q 1463 3103 1205 2759 
Q 947 2416 947 1791 
Q 947 1169 1205 825 
Q 1463 481 1925 481 
Q 2391 481 2648 825 
Q 2906 1169 2906 1791 
z
M 3481 434 
Q 3481 -459 3084 -895 
Q 2688 -1331 1869 -1331 
Q 1566 -1331 1297 -1286 
Q 1028 -1241 775 -1147 
L 775 -588 
Q 1028 -725 1275 -790 
Q 1522 -856 1778 -856 
Q 2344 -856 2625 -561 
Q 2906 -266 2906 331 
L 2906 616 
Q 2728 306 2450 153 
Q 2172 0 1784 0 
Q 1141 0 747 490 
Q 353 981 353 1791 
Q 353 2603 747 3093 
Q 1141 3584 1784 3584 
Q 2172 3584 2450 3431 
Q 2728 3278 2906 2969 
L 2906 3500 
L 3481 3500 
L 3481 434 
z
" transform="scale(0.015625)"/>
       <path id="DejaVuSans-73" d="M 2834 3397 
L 2834 2853 
Q 2591 2978 2328 3040 
Q 2066 3103 1784 3103 
Q 1356 3103 1142 2972 
Q 928 2841 928 2578 
Q 928 2378 1081 2264 
Q 1234 2150 1697 2047 
L 1894 2003 
Q 2506 1872 2764 1633 
Q 3022 1394 3022 966 
Q 3022 478 2636 193 
Q 2250 -91 1575 -91 
Q 1294 -91 989 -36 
Q 684 19 347 128 
L 347 722 
Q 666 556 975 473 
Q 1284 391 1588 391 
Q 1994 391 2212 530 
Q 2431 669 2431 922 
Q 2431 1156 2273 1281 
Q 2116 1406 1581 1522 
L 1381 1569 
Q 847 1681 609 1914 
Q 372 2147 372 2553 
Q 372 3047 722 3315 
Q 1072 3584 1716 3584 
Q 2034 3584 2315 3537 
Q 2597 3491 2834 3397 
z
" transform="scale(0.015625)"/>
       <path id="DejaVuSans-7a" d="M 353 3500 
L 3084 3500 
L 3084 2975 
L 922 459 
L 3084 459 
L 3084 0 
L 275 0 
L 275 525 
L 2438 3041 
L 353 3041 
L 353 3500 
z
" transform="scale(0.015625)"/>
      </defs>
      <use xlink:href="#DejaVuSans-42"/>
      <use xlink:href="#DejaVuSans-69" x="68.603516"/>
      <use xlink:href="#DejaVuSans-6e" x="96.386719"/>
      <use xlink:href="#DejaVuSans-20" x="159.765625"/>
      <use xlink:href="#DejaVuSans-6e" x="191.552734"/>
      <use xlink:href="#DejaVuSans-75" x="254.931641"/>
      <use xlink:href="#DejaVuSans-6d" x="318.310547"/>
      <use xlink:href="#DejaVuSans-62" x="415.722656"/>
      <use xlink:href="#DejaVuSans-65" x="479.199219"/>
      <use xlink:href="#DejaVuSans-72" x="540.722656"/>
      <use xlink:href="#DejaVuSans-2c" x="581.835938"/>
      <use xlink:href="#DejaVuSans-20" x="613.623047"/>
      <use xlink:href="#DejaVuSans-6d" x="645.410156"/>
      <use xlink:href="#DejaVuSans-61" x="742.822266"/>
      <use xlink:href="#DejaVuSans-78" x="804.101562"/>
      <use xlink:href="#DejaVuSans-69" x="863.28125"/>
      <use xlink:href="#DejaVuSans-6d" x="891.064453"/>
      <use xlink:href="#DejaVuSans-75" x="988.476562"/>
      <use xlink:href="#DejaVuSans-6d" x="1051.855469"/>
      <use xlink:href="#DejaVuSans-20" x="1149.267578"/>
      <use xlink:href="#DejaVuSans-70" x="1181.054688"/>
      <use xlink:href="#DejaVuSans-72" x="1244.53125"/>
      <use xlink:href="#DejaVuSans-6f" x="1283.394531"/>
      <use xlink:href="#DejaVuSans-67" x="1344.576172"/>
      <use xlink:href="#DejaVuSans-72" x="1408.052734"/>
      <use xlink:href="#DejaVuSans-61" x="1449.166016"/>
      <use xlink:href="#DejaVuSans-6d" x="1510.445312"/>
      <use xlink:href="#DejaVuSans-20" x="1607.857422"/>
      <use xlink:href="#DejaVuSans-73" x="1639.644531"/>
      <use xlink:href="#DejaVuSans-69" x="1691.744141"/>
      <use xlink:href="#DejaVuSans-7a" x="1719.527344"/>
      <use xlink:href="#DejaVuSans-65" x="1772.017578"/>
     </g>
    </g>
   </g>
   <g id="matplotlib.axis_2">
    <g id="ytick_1">
     <g id="line2d_7">
      <defs>
       <path id="m92fb6a7c31" d="M 0 0 
L -3.5 0 
" style="stroke: #000000; stroke-width: 1.6"/>
      </defs>
      <g>
       <use xlink:href="#m92fb6a7c31" x="115.2" y="529.192283" style="stroke: #000000; stroke-width: 1.6"/>
      </g>
     </g>
     <g id="text_8">
      <!-- $\mathdefault{10^{7}}$ -->
      <g transform="translate(81.14 533.371424)scale(0.11 -0.11)">
       <use xlink:href="#DejaVuSans-31" transform="translate(0 0.684375)"/>
       <use xlink:href="#DejaVuSans-30" transform="translate(63.623047 0.684375)"/>
       <use xlink:href="#DejaVuSans-37" transform="translate(128.203125 38.965625)scale(0.7)"/>
      </g>
     </g>
    </g>
    <g id="ytick_2">
     <g id="line2d_8">
      <g>
       <use xlink:href="#m92fb6a7c31" x="115.2" y="437.313268" style="stroke: #000000; stroke-width: 1.6"/>
      </g>
     </g>
     <g id="text_9">
      <!-- $\mathdefault{10^{8}}$ -->
      <g transform="translate(81.14 441.492408)scale(0.11 -0.11)">
       <use xlink:href="#DejaVuSans-31" transform="translate(0 0.765625)"/>
       <use xlink:href="#DejaVuSans-30" transform="translate(63.623047 0.765625)"/>
       <use xlink:href="#DejaVuSans-38" transform="translate(128.203125 39.046875)scale(0.7)"/>
      </g>
     </g>
    </g>
    <g id="ytick_3">
     <g id="line2d_9">
      <g>
       <use xlink:href="#m92fb6a7c31" x="115.2" y="345.434252" style="stroke: #000000; stroke-width: 1.6"/>
      </g>
     </g>
     <g id="text_10">
      <!-- $\mathdefault{10^{9}}$ -->
      <g transform="translate(81.14 349.613393)scale(0.11 -0.11)">
       <use xlink:href="#DejaVuSans-31" transform="translate(0 0.765625)"/>
       <use xlink:href="#DejaVuSans-30" transform="translate(63.623047 0.765625)"/>
       <use xlink:href="#DejaVuSans-39" transform="translate(128.203125 39.046875)scale(0.7)"/>
      </g>
     </g>
    </g>
    <g id="ytick_4">
     <g id="line2d_10">
      <g>
       <use xlink:href="#m92fb6a7c31" x="115.2" y="253.555237" style="stroke: #000000; stroke-width: 1.6"/>
      </g>
     </g>
     <g id="text_11">
      <!-- $\mathdefault{10^{10}}$ -->
      <g transform="translate(76.19 257.734378)scale(0.11 -0.11)">
       <use xlink:href="#DejaVuSans-31" transform="translate(0 0.765625)"/>
       <use xlink:href="#DejaVuSans-30" transform="translate(63.623047 0.765625)"/>
       <use xlink:href="#DejaVuSans-31" transform="translate(128.203125 39.046875)scale(0.7)"/>
       <use xlink:href="#DejaVuSans-30" transform="translate(172.739258 39.046875)scale(0.7)"/>
      </g>
     </g>
    </g>
    <g id="ytick_5">
     <g id="line2d_11">
      <g>
       <use xlink:href="#m92fb6a7c31" x="115.2" y="161.676222" style="stroke: #000000; stroke-width: 1.6"/>
      </g>
     </g>
     <g id="text_12">
      <!-- $\mathdefault{10^{11}}$ -->
      <g transform="translate(76.19 165.855362)scale(0.11 -0.11)">
       <use xlink:href="#DejaVuSans-31" transform="translate(0 0.684375)"/>
       <use xlink:href="#DejaVuSans-30" transform="translate(63.623047 0.684375)"/>
       <use xlink:href="#DejaVuSans-31" transform="translate(128.203125 38.965625)scale(0.7)"/>
       <use xlink:href="#DejaVuSans-31" transform="translate(172.739258 38.965625)scale(0.7)"/>
      </g>
     </g>
    </g>
    <g id="ytick_6">
     <g id="line2d_12">
      <defs>
       <path id="md807e68474" d="M 0 0 
L -2 0 
" style="stroke: #000000; stroke-width: 0.8"/>
      </defs>
      <g>
       <use xlink:href="#md807e68474" x="115.2" y="556.850623" style="stroke: #000000; stroke-width: 0.8"/>
      </g>
     </g>
    </g>
    <g id="ytick_7">
     <g id="line2d_13">
      <g>
       <use xlink:href="#md807e68474" x="115.2" y="549.575528" style="stroke: #000000; stroke-width: 0.8"/>
      </g>
     </g>
    </g>
    <g id="ytick_8">
     <g id="line2d_14">
      <g>
       <use xlink:href="#md807e68474" x="115.2" y="543.424523" style="stroke: #000000; stroke-width: 0.8"/>
      </g>
     </g>
    </g>
    <g id="ytick_9">
     <g id="line2d_15">
      <g>
       <use xlink:href="#md807e68474" x="115.2" y="538.09628" style="stroke: #000000; stroke-width: 0.8"/>
      </g>
     </g>
    </g>
    <g id="ytick_10">
     <g id="line2d_16">
      <g>
       <use xlink:href="#md807e68474" x="115.2" y="533.396436" style="stroke: #000000; stroke-width: 0.8"/>
      </g>
     </g>
    </g>
    <g id="ytick_11">
     <g id="line2d_17">
      <g>
       <use xlink:href="#md807e68474" x="115.2" y="501.533943" style="stroke: #000000; stroke-width: 0.8"/>
      </g>
     </g>
    </g>
    <g id="ytick_12">
     <g id="line2d_18">
      <g>
       <use xlink:href="#md807e68474" x="115.2" y="485.354852" style="stroke: #000000; stroke-width: 0.8"/>
      </g>
     </g>
    </g>
    <g id="ytick_13">
     <g id="line2d_19">
      <g>
       <use xlink:href="#md807e68474" x="115.2" y="473.875604" style="stroke: #000000; stroke-width: 0.8"/>
      </g>
     </g>
    </g>
    <g id="ytick_14">
     <g id="line2d_20">
      <g>
       <use xlink:href="#md807e68474" x="115.2" y="464.971607" style="stroke: #000000; stroke-width: 0.8"/>
      </g>
     </g>
    </g>
    <g id="ytick_15">
     <g id="line2d_21">
      <g>
       <use xlink:href="#md807e68474" x="115.2" y="457.696512" style="stroke: #000000; stroke-width: 0.8"/>
      </g>
     </g>
    </g>
    <g id="ytick_16">
     <g id="line2d_22">
      <g>
       <use xlink:href="#md807e68474" x="115.2" y="451.545507" style="stroke: #000000; stroke-width: 0.8"/>
      </g>
     </g>
    </g>
    <g id="ytick_17">
     <g id="line2d_23">
      <g>
       <use xlink:href="#md807e68474" x="115.2" y="446.217264" style="stroke: #000000; stroke-width: 0.8"/>
      </g>
     </g>
    </g>
    <g id="ytick_18">
     <g id="line2d_24">
      <g>
       <use xlink:href="#md807e68474" x="115.2" y="441.517421" style="stroke: #000000; stroke-width: 0.8"/>
      </g>
     </g>
    </g>
    <g id="ytick_19">
     <g id="line2d_25">
      <g>
       <use xlink:href="#md807e68474" x="115.2" y="409.654928" style="stroke: #000000; stroke-width: 0.8"/>
      </g>
     </g>
    </g>
    <g id="ytick_20">
     <g id="line2d_26">
      <g>
       <use xlink:href="#md807e68474" x="115.2" y="393.475837" style="stroke: #000000; stroke-width: 0.8"/>
      </g>
     </g>
    </g>
    <g id="ytick_21">
     <g id="line2d_27">
      <g>
       <use xlink:href="#md807e68474" x="115.2" y="381.996589" style="stroke: #000000; stroke-width: 0.8"/>
      </g>
     </g>
    </g>
    <g id="ytick_22">
     <g id="line2d_28">
      <g>
       <use xlink:href="#md807e68474" x="115.2" y="373.092592" style="stroke: #000000; stroke-width: 0.8"/>
      </g>
     </g>
    </g>
    <g id="ytick_23">
     <g id="line2d_29">
      <g>
       <use xlink:href="#md807e68474" x="115.2" y="365.817497" style="stroke: #000000; stroke-width: 0.8"/>
      </g>
     </g>
    </g>
    <g id="ytick_24">
     <g id="line2d_30">
      <g>
       <use xlink:href="#md807e68474" x="115.2" y="359.666492" style="stroke: #000000; stroke-width: 0.8"/>
      </g>
     </g>
    </g>
    <g id="ytick_25">
     <g id="line2d_31">
      <g>
       <use xlink:href="#md807e68474" x="115.2" y="354.338249" style="stroke: #000000; stroke-width: 0.8"/>
      </g>
     </g>
    </g>
    <g id="ytick_26">
     <g id="line2d_32">
      <g>
       <use xlink:href="#md807e68474" x="115.2" y="349.638406" style="stroke: #000000; stroke-width: 0.8"/>
      </g>
     </g>
    </g>
    <g id="ytick_27">
     <g id="line2d_33">
      <g>
       <use xlink:href="#md807e68474" x="115.2" y="317.775913" style="stroke: #000000; stroke-width: 0.8"/>
      </g>
     </g>
    </g>
    <g id="ytick_28">
     <g id="line2d_34">
      <g>
       <use xlink:href="#md807e68474" x="115.2" y="301.596821" style="stroke: #000000; stroke-width: 0.8"/>
      </g>
     </g>
    </g>
    <g id="ytick_29">
     <g id="line2d_35">
      <g>
       <use xlink:href="#md807e68474" x="115.2" y="290.117573" style="stroke: #000000; stroke-width: 0.8"/>
      </g>
     </g>
    </g>
    <g id="ytick_30">
     <g id="line2d_36">
      <g>
       <use xlink:href="#md807e68474" x="115.2" y="281.213577" style="stroke: #000000; stroke-width: 0.8"/>
      </g>
     </g>
    </g>
    <g id="ytick_31">
     <g id="line2d_37">
      <g>
       <use xlink:href="#md807e68474" x="115.2" y="273.938482" style="stroke: #000000; stroke-width: 0.8"/>
      </g>
     </g>
    </g>
    <g id="ytick_32">
     <g id="line2d_38">
      <g>
       <use xlink:href="#md807e68474" x="115.2" y="267.787477" style="stroke: #000000; stroke-width: 0.8"/>
      </g>
     </g>
    </g>
    <g id="ytick_33">
     <g id="line2d_39">
      <g>
       <use xlink:href="#md807e68474" x="115.2" y="262.459234" style="stroke: #000000; stroke-width: 0.8"/>
      </g>
     </g>
    </g>
    <g id="ytick_34">
     <g id="line2d_40">
      <g>
       <use xlink:href="#md807e68474" x="115.2" y="257.75939" style="stroke: #000000; stroke-width: 0.8"/>
      </g>
     </g>
    </g>
    <g id="ytick_35">
     <g id="line2d_41">
      <g>
       <use xlink:href="#md807e68474" x="115.2" y="225.896898" style="stroke: #000000; stroke-width: 0.8"/>
      </g>
     </g>
    </g>
    <g id="ytick_36">
     <g id="line2d_42">
      <g>
       <use xlink:href="#md807e68474" x="115.2" y="209.717806" style="stroke: #000000; stroke-width: 0.8"/>
      </g>
     </g>
    </g>
    <g id="ytick_37">
     <g id="line2d_43">
      <g>
       <use xlink:href="#md807e68474" x="115.2" y="198.238558" style="stroke: #000000; stroke-width: 0.8"/>
      </g>
     </g>
    </g>
    <g id="ytick_38">
     <g id="line2d_44">
      <g>
       <use xlink:href="#md807e68474" x="115.2" y="189.334561" style="stroke: #000000; stroke-width: 0.8"/>
      </g>
     </g>
    </g>
    <g id="ytick_39">
     <g id="line2d_45">
      <g>
       <use xlink:href="#md807e68474" x="115.2" y="182.059466" style="stroke: #000000; stroke-width: 0.8"/>
      </g>
     </g>
    </g>
    <g id="ytick_40">
     <g id="line2d_46">
      <g>
       <use xlink:href="#md807e68474" x="115.2" y="175.908461" style="stroke: #000000; stroke-width: 0.8"/>
      </g>
     </g>
    </g>
    <g id="ytick_41">
     <g id="line2d_47">
      <g>
       <use xlink:href="#md807e68474" x="115.2" y="170.580218" style="stroke: #000000; stroke-width: 0.8"/>
      </g>
     </g>
    </g>
    <g id="ytick_42">
     <g id="line2d_48">
      <g>
       <use xlink:href="#md807e68474" x="115.2" y="165.880375" style="stroke: #000000; stroke-width: 0.8"/>
      </g>
     </g>
    </g>
    <g id="ytick_43">
     <g id="line2d_49">
      <g>
       <use xlink:href="#md807e68474" x="115.2" y="134.017882" style="stroke: #000000; stroke-width: 0.8"/>
      </g>
     </g>
    </g>
    <g id="ytick_44">
     <g id="line2d_50">
      <g>
       <use xlink:href="#md807e68474" x="115.2" y="117.838791" style="stroke: #000000; stroke-width: 0.8"/>
      </g>
     </g>
    </g>
    <g id="ytick_45">
     <g id="line2d_51">
      <g>
       <use xlink:href="#md807e68474" x="115.2" y="106.359543" style="stroke: #000000; stroke-width: 0.8"/>
      </g>
     </g>
    </g>
    <g id="ytick_46">
     <g id="line2d_52">
      <g>
       <use xlink:href="#md807e68474" x="115.2" y="97.455546" style="stroke: #000000; stroke-width: 0.8"/>
      </g>
     </g>
    </g>
    <g id="ytick_47">
     <g id="line2d_53">
      <g>
       <use xlink:href="#md807e68474" x="115.2" y="90.180451" style="stroke: #000000; stroke-width: 0.8"/>
      </g>
     </g>
    </g>
    <g id="ytick_48">
     <g id="line2d_54">
      <g>
       <use xlink:href="#md807e68474" x="115.2" y="84.029446" style="stroke: #000000; stroke-width: 0.8"/>
      </g>
     </g>
    </g>
    <g id="ytick_49">
     <g id="line2d_55">
      <g>
       <use xlink:href="#md807e68474" x="115.2" y="78.701203" style="stroke: #000000; stroke-width: 0.8"/>
      </g>
     </g>
    </g>
    <g id="text_13">
     <!-- Node evaluations per second (NEPS) -->
     <g transform="translate(69.278437 447.984875)rotate(-90)scale(0.14 -0.14)">
      <defs>
       <path id="DejaVuSans-4e" d="M 628 4666 
L 1478 4666 
L 3547 763 
L 3547 4666 
L 4159 4666 
L 4159 0 
L 3309 0 
L 1241 3903 
L 1241 0 
L 628 0 
L 628 4666 
z
" transform="scale(0.015625)"/>
       <path id="DejaVuSans-64" d="M 2906 2969 
L 2906 4863 
L 3481 4863 
L 3481 0 
L 2906 0 
L 2906 525 
Q 2725 213 2448 61 
Q 2172 -91 1784 -91 
Q 1150 -91 751 415 
Q 353 922 353 1747 
Q 353 2572 751 3078 
Q 1150 3584 1784 3584 
Q 2172 3584 2448 3432 
Q 2725 3281 2906 2969 
z
M 947 1747 
Q 947 1113 1208 752 
Q 1469 391 1925 391 
Q 2381 391 2643 752 
Q 2906 1113 2906 1747 
Q 2906 2381 2643 2742 
Q 2381 3103 1925 3103 
Q 1469 3103 1208 2742 
Q 947 2381 947 1747 
z
" transform="scale(0.015625)"/>
       <path id="DejaVuSans-76" d="M 191 3500 
L 800 3500 
L 1894 563 
L 2988 3500 
L 3597 3500 
L 2284 0 
L 1503 0 
L 191 3500 
z
" transform="scale(0.015625)"/>
       <path id="DejaVuSans-6c" d="M 603 4863 
L 1178 4863 
L 1178 0 
L 603 0 
L 603 4863 
z
" transform="scale(0.015625)"/>
       <path id="DejaVuSans-74" d="M 1172 4494 
L 1172 3500 
L 2356 3500 
L 2356 3053 
L 1172 3053 
L 1172 1153 
Q 1172 725 1289 603 
Q 1406 481 1766 481 
L 2356 481 
L 2356 0 
L 1766 0 
Q 1100 0 847 248 
Q 594 497 594 1153 
L 594 3053 
L 172 3053 
L 172 3500 
L 594 3500 
L 594 4494 
L 1172 4494 
z
" transform="scale(0.015625)"/>
       <path id="DejaVuSans-63" d="M 3122 3366 
L 3122 2828 
Q 2878 2963 2633 3030 
Q 2388 3097 2138 3097 
Q 1578 3097 1268 2742 
Q 959 2388 959 1747 
Q 959 1106 1268 751 
Q 1578 397 2138 397 
Q 2388 397 2633 464 
Q 2878 531 3122 666 
L 3122 134 
Q 2881 22 2623 -34 
Q 2366 -91 2075 -91 
Q 1284 -91 818 406 
Q 353 903 353 1747 
Q 353 2603 823 3093 
Q 1294 3584 2113 3584 
Q 2378 3584 2631 3529 
Q 2884 3475 3122 3366 
z
" transform="scale(0.015625)"/>
       <path id="DejaVuSans-28" d="M 1984 4856 
Q 1566 4138 1362 3434 
Q 1159 2731 1159 2009 
Q 1159 1288 1364 580 
Q 1569 -128 1984 -844 
L 1484 -844 
Q 1016 -109 783 600 
Q 550 1309 550 2009 
Q 550 2706 781 3412 
Q 1013 4119 1484 4856 
L 1984 4856 
z
" transform="scale(0.015625)"/>
       <path id="DejaVuSans-45" d="M 628 4666 
L 3578 4666 
L 3578 4134 
L 1259 4134 
L 1259 2753 
L 3481 2753 
L 3481 2222 
L 1259 2222 
L 1259 531 
L 3634 531 
L 3634 0 
L 628 0 
L 628 4666 
z
" transform="scale(0.015625)"/>
       <path id="DejaVuSans-50" d="M 1259 4147 
L 1259 2394 
L 2053 2394 
Q 2494 2394 2734 2622 
Q 2975 2850 2975 3272 
Q 2975 3691 2734 3919 
Q 2494 4147 2053 4147 
L 1259 4147 
z
M 628 4666 
L 2053 4666 
Q 2838 4666 3239 4311 
Q 3641 3956 3641 3272 
Q 3641 2581 3239 2228 
Q 2838 1875 2053 1875 
L 1259 1875 
L 1259 0 
L 628 0 
L 628 4666 
z
" transform="scale(0.015625)"/>
       <path id="DejaVuSans-53" d="M 3425 4513 
L 3425 3897 
Q 3066 4069 2747 4153 
Q 2428 4238 2131 4238 
Q 1616 4238 1336 4038 
Q 1056 3838 1056 3469 
Q 1056 3159 1242 3001 
Q 1428 2844 1947 2747 
L 2328 2669 
Q 3034 2534 3370 2195 
Q 3706 1856 3706 1288 
Q 3706 609 3251 259 
Q 2797 -91 1919 -91 
Q 1588 -91 1214 -16 
Q 841 59 441 206 
L 441 856 
Q 825 641 1194 531 
Q 1563 422 1919 422 
Q 2459 422 2753 634 
Q 3047 847 3047 1241 
Q 3047 1584 2836 1778 
Q 2625 1972 2144 2069 
L 1759 2144 
Q 1053 2284 737 2584 
Q 422 2884 422 3419 
Q 422 4038 858 4394 
Q 1294 4750 2059 4750 
Q 2388 4750 2728 4690 
Q 3069 4631 3425 4513 
z
" transform="scale(0.015625)"/>
       <path id="DejaVuSans-29" d="M 513 4856 
L 1013 4856 
Q 1481 4119 1714 3412 
Q 1947 2706 1947 2009 
Q 1947 1309 1714 600 
Q 1481 -109 1013 -844 
L 513 -844 
Q 928 -128 1133 580 
Q 1338 1288 1338 2009 
Q 1338 2731 1133 3434 
Q 928 4138 513 4856 
z
" transform="scale(0.015625)"/>
      </defs>
      <use xlink:href="#DejaVuSans-4e"/>
      <use xlink:href="#DejaVuSans-6f" x="74.804688"/>
      <use xlink:href="#DejaVuSans-64" x="135.986328"/>
      <use xlink:href="#DejaVuSans-65" x="199.462891"/>
      <use xlink:href="#DejaVuSans-20" x="260.986328"/>
      <use xlink:href="#DejaVuSans-65" x="292.773438"/>
      <use xlink:href="#DejaVuSans-76" x="354.296875"/>
      <use xlink:href="#DejaVuSans-61" x="413.476562"/>
      <use xlink:href="#DejaVuSans-6c" x="474.755859"/>
      <use xlink:href="#DejaVuSans-75" x="502.539062"/>
      <use xlink:href="#DejaVuSans-61" x="565.917969"/>
      <use xlink:href="#DejaVuSans-74" x="627.197266"/>
      <use xlink:href="#DejaVuSans-69" x="666.40625"/>
      <use xlink:href="#DejaVuSans-6f" x="694.189453"/>
      <use xlink:href="#DejaVuSans-6e" x="755.371094"/>
      <use xlink:href="#DejaVuSans-73" x="818.75"/>
      <use xlink:href="#DejaVuSans-20" x="870.849609"/>
      <use xlink:href="#DejaVuSans-70" x="902.636719"/>
      <use xlink:href="#DejaVuSans-65" x="966.113281"/>
      <use xlink:href="#DejaVuSans-72" x="1027.636719"/>
      <use xlink:href="#DejaVuSans-20" x="1068.75"/>
      <use xlink:href="#DejaVuSans-73" x="1100.537109"/>
      <use xlink:href="#DejaVuSans-65" x="1152.636719"/>
      <use xlink:href="#DejaVuSans-63" x="1214.160156"/>
      <use xlink:href="#DejaVuSans-6f" x="1269.140625"/>
      <use xlink:href="#DejaVuSans-6e" x="1330.322266"/>
      <use xlink:href="#DejaVuSans-64" x="1393.701172"/>
      <use xlink:href="#DejaVuSans-20" x="1457.177734"/>
      <use xlink:href="#DejaVuSans-28" x="1488.964844"/>
      <use xlink:href="#DejaVuSans-4e" x="1527.978516"/>
      <use xlink:href="#DejaVuSans-45" x="1602.783203"/>
      <use xlink:href="#DejaVuSans-50" x="1665.966797"/>
      <use xlink:href="#DejaVuSans-53" x="1726.269531"/>
      <use xlink:href="#DejaVuSans-29" x="1789.746094"/>
     </g>
    </g>
   </g>
   <g id="line2d_56">
    <path d="M 147.665455 541.728 
L 168.610909 507.685193 
L 189.556364 490.347994 
L 210.501818 482.976361 
L 231.447273 471.469195 
L 252.392727 466.124366 
L 273.338182 461.485047 
L 294.283636 457.327903 
L 315.229091 454.690286 
L 336.174545 451.316942 
L 357.12 449.621081 
L 378.065455 448.033094 
L 399.010909 448.258067 
L 419.956364 444.780742 
L 440.901818 442.714986 
L 461.847273 442.12443 
L 482.792727 441.84148 
L 503.738182 443.428556 
L 524.683636 438.35674 
L 545.629091 438.260029 
L 566.574545 436.662987 
L 587.52 436.633439 
L 608.465455 435.959666 
L 629.410909 434.967261 
L 650.356364 434.340576 
L 671.301818 433.847232 
L 692.247273 433.483835 
L 713.192727 433.956961 
L 734.138182 432.376968 
L 755.083636 432.454014 
L 776.029091 431.608243 
L 796.974545 431.253314 
" clip-path="url(#p92350d9e24)" style="fill: none; stroke: #000000; stroke-width: 0.1; stroke-linecap: square"/>
    <defs>
     <path id="mb972f8162c" d="M -3 6 
L 0 3 
L 3 6 
L 6 3 
L 3 0 
L 6 -3 
L 3 -6 
L 0 -3 
L -3 -6 
L -6 -3 
L -3 0 
L -6 3 
z
"/>
    </defs>
    <g clip-path="url(#p92350d9e24)">
     <use xlink:href="#mb972f8162c" x="147.665455" y="541.728" style="fill: #17becf"/>
     <use xlink:href="#mb972f8162c" x="168.610909" y="507.685193" style="fill: #17becf"/>
     <use xlink:href="#mb972f8162c" x="189.556364" y="490.347994" style="fill: #17becf"/>
     <use xlink:href="#mb972f8162c" x="210.501818" y="482.976361" style="fill: #17becf"/>
     <use xlink:href="#mb972f8162c" x="231.447273" y="471.469195" style="fill: #17becf"/>
     <use xlink:href="#mb972f8162c" x="252.392727" y="466.124366" style="fill: #17becf"/>
     <use xlink:href="#mb972f8162c" x="273.338182" y="461.485047" style="fill: #17becf"/>
     <use xlink:href="#mb972f8162c" x="294.283636" y="457.327903" style="fill: #17becf"/>
     <use xlink:href="#mb972f8162c" x="315.229091" y="454.690286" style="fill: #17becf"/>
     <use xlink:href="#mb972f8162c" x="336.174545" y="451.316942" style="fill: #17becf"/>
     <use xlink:href="#mb972f8162c" x="357.12" y="449.621081" style="fill: #17becf"/>
     <use xlink:href="#mb972f8162c" x="378.065455" y="448.033094" style="fill: #17becf"/>
     <use xlink:href="#mb972f8162c" x="399.010909" y="448.258067" style="fill: #17becf"/>
     <use xlink:href="#mb972f8162c" x="419.956364" y="444.780742" style="fill: #17becf"/>
     <use xlink:href="#mb972f8162c" x="440.901818" y="442.714986" style="fill: #17becf"/>
     <use xlink:href="#mb972f8162c" x="461.847273" y="442.12443" style="fill: #17becf"/>
     <use xlink:href="#mb972f8162c" x="482.792727" y="441.84148" style="fill: #17becf"/>
     <use xlink:href="#mb972f8162c" x="503.738182" y="443.428556" style="fill: #17becf"/>
     <use xlink:href="#mb972f8162c" x="524.683636" y="438.35674" style="fill: #17becf"/>
     <use xlink:href="#mb972f8162c" x="545.629091" y="438.260029" style="fill: #17becf"/>
     <use xlink:href="#mb972f8162c" x="566.574545" y="436.662987" style="fill: #17becf"/>
     <use xlink:href="#mb972f8162c" x="587.52" y="436.633439" style="fill: #17becf"/>
     <use xlink:href="#mb972f8162c" x="608.465455" y="435.959666" style="fill: #17becf"/>
     <use xlink:href="#mb972f8162c" x="629.410909" y="434.967261" style="fill: #17becf"/>
     <use xlink:href="#mb972f8162c" x="650.356364" y="434.340576" style="fill: #17becf"/>
     <use xlink:href="#mb972f8162c" x="671.301818" y="433.847232" style="fill: #17becf"/>
     <use xlink:href="#mb972f8162c" x="692.247273" y="433.483835" style="fill: #17becf"/>
     <use xlink:href="#mb972f8162c" x="713.192727" y="433.956961" style="fill: #17becf"/>
     <use xlink:href="#mb972f8162c" x="734.138182" y="432.376968" style="fill: #17becf"/>
     <use xlink:href="#mb972f8162c" x="755.083636" y="432.454014" style="fill: #17becf"/>
     <use xlink:href="#mb972f8162c" x="776.029091" y="431.608243" style="fill: #17becf"/>
     <use xlink:href="#mb972f8162c" x="796.974545" y="431.253314" style="fill: #17becf"/>
    </g>
   </g>
   <g id="line2d_57">
    <path d="M 115.2 345.434252 
L 829.44 345.434252 
" clip-path="url(#p92350d9e24)" style="fill: none; stroke-dasharray: 10.36,4.48; stroke-dashoffset: 0; stroke: #808080; stroke-width: 2.8"/>
   </g>
   <g id="line2d_58">
    <path d="M 147.665455 468.281565 
L 168.610909 444.414936 
L 189.556364 436.81975 
L 210.501818 430.329632 
L 231.447273 426.924933 
L 252.392727 424.317362 
L 273.338182 421.496161 
L 294.283636 418.504778 
L 315.229091 417.50019 
L 336.174545 415.048095 
L 357.12 413.650464 
L 378.065455 411.6149 
L 399.010909 410.672898 
L 419.956364 409.61397 
L 440.901818 408.564764 
L 461.847273 406.126959 
L 482.792727 408.640629 
L 503.738182 408.113371 
L 524.683636 406.667493 
L 545.629091 406.301551 
L 566.574545 405.476441 
L 587.52 404.842865 
L 608.465455 403.972075 
L 629.410909 402.81994 
L 650.356364 403.354043 
L 671.301818 403.011098 
L 692.247273 402.168245 
L 713.192727 401.926232 
L 734.138182 401.644231 
L 755.083636 400.834536 
L 776.029091 400.712967 
L 796.974545 399.870633 
" clip-path="url(#p92350d9e24)" style="fill: none; stroke: #000000; stroke-width: 0.1; stroke-linecap: square"/>
    <defs>
     <path id="m03e98cc078" d="M 0 -6 
L -6 6 
L 6 6 
z
"/>
    </defs>
    <g clip-path="url(#p92350d9e24)">
     <use xlink:href="#m03e98cc078" x="147.665455" y="468.281565" style="fill: #9467bd"/>
     <use xlink:href="#m03e98cc078" x="168.610909" y="444.414936" style="fill: #9467bd"/>
     <use xlink:href="#m03e98cc078" x="189.556364" y="436.81975" style="fill: #9467bd"/>
     <use xlink:href="#m03e98cc078" x="210.501818" y="430.329632" style="fill: #9467bd"/>
     <use xlink:href="#m03e98cc078" x="231.447273" y="426.924933" style="fill: #9467bd"/>
     <use xlink:href="#m03e98cc078" x="252.392727" y="424.317362" style="fill: #9467bd"/>
     <use xlink:href="#m03e98cc078" x="273.338182" y="421.496161" style="fill: #9467bd"/>
     <use xlink:href="#m03e98cc078" x="294.283636" y="418.504778" style="fill: #9467bd"/>
     <use xlink:href="#m03e98cc078" x="315.229091" y="417.50019" style="fill: #9467bd"/>
     <use xlink:href="#m03e98cc078" x="336.174545" y="415.048095" style="fill: #9467bd"/>
     <use xlink:href="#m03e98cc078" x="357.12" y="413.650464" style="fill: #9467bd"/>
     <use xlink:href="#m03e98cc078" x="378.065455" y="411.6149" style="fill: #9467bd"/>
     <use xlink:href="#m03e98cc078" x="399.010909" y="410.672898" style="fill: #9467bd"/>
     <use xlink:href="#m03e98cc078" x="419.956364" y="409.61397" style="fill: #9467bd"/>
     <use xlink:href="#m03e98cc078" x="440.901818" y="408.564764" style="fill: #9467bd"/>
     <use xlink:href="#m03e98cc078" x="461.847273" y="406.126959" style="fill: #9467bd"/>
     <use xlink:href="#m03e98cc078" x="482.792727" y="408.640629" style="fill: #9467bd"/>
     <use xlink:href="#m03e98cc078" x="503.738182" y="408.113371" style="fill: #9467bd"/>
     <use xlink:href="#m03e98cc078" x="524.683636" y="406.667493" style="fill: #9467bd"/>
     <use xlink:href="#m03e98cc078" x="545.629091" y="406.301551" style="fill: #9467bd"/>
     <use xlink:href="#m03e98cc078" x="566.574545" y="405.476441" style="fill: #9467bd"/>
     <use xlink:href="#m03e98cc078" x="587.52" y="404.842865" style="fill: #9467bd"/>
     <use xlink:href="#m03e98cc078" x="608.465455" y="403.972075" style="fill: #9467bd"/>
     <use xlink:href="#m03e98cc078" x="629.410909" y="402.81994" style="fill: #9467bd"/>
     <use xlink:href="#m03e98cc078" x="650.356364" y="403.354043" style="fill: #9467bd"/>
     <use xlink:href="#m03e98cc078" x="671.301818" y="403.011098" style="fill: #9467bd"/>
     <use xlink:href="#m03e98cc078" x="692.247273" y="402.168245" style="fill: #9467bd"/>
     <use xlink:href="#m03e98cc078" x="713.192727" y="401.926232" style="fill: #9467bd"/>
     <use xlink:href="#m03e98cc078" x="734.138182" y="401.644231" style="fill: #9467bd"/>
     <use xlink:href="#m03e98cc078" x="755.083636" y="400.834536" style="fill: #9467bd"/>
     <use xlink:href="#m03e98cc078" x="776.029091" y="400.712967" style="fill: #9467bd"/>
     <use xlink:href="#m03e98cc078" x="796.974545" y="399.870633" style="fill: #9467bd"/>
    </g>
   </g>
   <g id="line2d_59">
    <path d="M 115.2 345.434252 
L 829.44 345.434252 
" clip-path="url(#p92350d9e24)" style="fill: none; stroke-dasharray: 10.36,4.48; stroke-dashoffset: 0; stroke: #808080; stroke-width: 2.8"/>
   </g>
   <g id="line2d_60">
    <path d="M 147.665455 478.943132 
L 168.610909 457.143488 
L 189.556364 449.690437 
L 210.501818 444.450715 
L 231.447273 440.506299 
L 252.392727 436.94787 
L 273.338182 435.581 
L 294.283636 432.608803 
L 315.229091 431.261083 
L 336.174545 429.203936 
L 357.12 428.577418 
L 378.065455 426.084201 
L 399.010909 425.144774 
L 419.956364 430.874222 
L 440.901818 432.669737 
L 461.847273 421.630489 
L 482.792727 423.40852 
L 503.738182 423.033405 
L 524.683636 421.874625 
L 545.629091 421.016465 
L 566.574545 420.665132 
L 587.52 420.320496 
L 608.465455 419.50821 
L 629.410909 418.574618 
L 650.356364 419.108254 
L 671.301818 418.577424 
L 692.247273 417.844204 
L 713.192727 417.581141 
L 734.138182 417.121487 
L 755.083636 416.532333 
L 776.029091 416.566521 
L 796.974545 415.939341 
" clip-path="url(#p92350d9e24)" style="fill: none; stroke: #000000; stroke-width: 0.1; stroke-linecap: square"/>
    <defs>
     <path id="me060c9ee73" d="M 0 3 
C 0.795609 3 1.55874 2.683901 2.12132 2.12132 
C 2.683901 1.55874 3 0.795609 3 0 
C 3 -0.795609 2.683901 -1.55874 2.12132 -2.12132 
C 1.55874 -2.683901 0.795609 -3 0 -3 
C -0.795609 -3 -1.55874 -2.683901 -2.12132 -2.12132 
C -2.683901 -1.55874 -3 -0.795609 -3 0 
C -3 0.795609 -2.683901 1.55874 -2.12132 2.12132 
C -1.55874 2.683901 -0.795609 3 0 3 
z
"/>
    </defs>
    <g clip-path="url(#p92350d9e24)">
     <use xlink:href="#me060c9ee73" x="147.665455" y="478.943132" style="fill: #1f77b4"/>
     <use xlink:href="#me060c9ee73" x="168.610909" y="457.143488" style="fill: #1f77b4"/>
     <use xlink:href="#me060c9ee73" x="189.556364" y="449.690437" style="fill: #1f77b4"/>
     <use xlink:href="#me060c9ee73" x="210.501818" y="444.450715" style="fill: #1f77b4"/>
     <use xlink:href="#me060c9ee73" x="231.447273" y="440.506299" style="fill: #1f77b4"/>
     <use xlink:href="#me060c9ee73" x="252.392727" y="436.94787" style="fill: #1f77b4"/>
     <use xlink:href="#me060c9ee73" x="273.338182" y="435.581" style="fill: #1f77b4"/>
     <use xlink:href="#me060c9ee73" x="294.283636" y="432.608803" style="fill: #1f77b4"/>
     <use xlink:href="#me060c9ee73" x="315.229091" y="431.261083" style="fill: #1f77b4"/>
     <use xlink:href="#me060c9ee73" x="336.174545" y="429.203936" style="fill: #1f77b4"/>
     <use xlink:href="#me060c9ee73" x="357.12" y="428.577418" style="fill: #1f77b4"/>
     <use xlink:href="#me060c9ee73" x="378.065455" y="426.084201" style="fill: #1f77b4"/>
     <use xlink:href="#me060c9ee73" x="399.010909" y="425.144774" style="fill: #1f77b4"/>
     <use xlink:href="#me060c9ee73" x="419.956364" y="430.874222" style="fill: #1f77b4"/>
     <use xlink:href="#me060c9ee73" x="440.901818" y="432.669737" style="fill: #1f77b4"/>
     <use xlink:href="#me060c9ee73" x="461.847273" y="421.630489" style="fill: #1f77b4"/>
     <use xlink:href="#me060c9ee73" x="482.792727" y="423.40852" style="fill: #1f77b4"/>
     <use xlink:href="#me060c9ee73" x="503.738182" y="423.033405" style="fill: #1f77b4"/>
     <use xlink:href="#me060c9ee73" x="524.683636" y="421.874625" style="fill: #1f77b4"/>
     <use xlink:href="#me060c9ee73" x="545.629091" y="421.016465" style="fill: #1f77b4"/>
     <use xlink:href="#me060c9ee73" x="566.574545" y="420.665132" style="fill: #1f77b4"/>
     <use xlink:href="#me060c9ee73" x="587.52" y="420.320496" style="fill: #1f77b4"/>
     <use xlink:href="#me060c9ee73" x="608.465455" y="419.50821" style="fill: #1f77b4"/>
     <use xlink:href="#me060c9ee73" x="629.410909" y="418.574618" style="fill: #1f77b4"/>
     <use xlink:href="#me060c9ee73" x="650.356364" y="419.108254" style="fill: #1f77b4"/>
     <use xlink:href="#me060c9ee73" x="671.301818" y="418.577424" style="fill: #1f77b4"/>
     <use xlink:href="#me060c9ee73" x="692.247273" y="417.844204" style="fill: #1f77b4"/>
     <use xlink:href="#me060c9ee73" x="713.192727" y="417.581141" style="fill: #1f77b4"/>
     <use xlink:href="#me060c9ee73" x="734.138182" y="417.121487" style="fill: #1f77b4"/>
     <use xlink:href="#me060c9ee73" x="755.083636" y="416.532333" style="fill: #1f77b4"/>
     <use xlink:href="#me060c9ee73" x="776.029091" y="416.566521" style="fill: #1f77b4"/>
     <use xlink:href="#me060c9ee73" x="796.974545" y="415.939341" style="fill: #1f77b4"/>
    </g>
   </g>
   <g id="line2d_61">
    <path d="M 115.2 345.434252 
L 829.44 345.434252 
" clip-path="url(#p92350d9e24)" style="fill: none; stroke-dasharray: 10.36,4.48; stroke-dashoffset: 0; stroke: #808080; stroke-width: 2.8"/>
   </g>
   <g id="line2d_62">
    <path d="M 147.665455 237.443227 
L 168.610909 208.604974 
L 189.556364 192.205962 
L 210.501818 183.38983 
L 231.447273 176.964846 
L 252.392727 173.41807 
L 273.338182 166.665151 
L 294.283636 163.777305 
L 315.229091 161.108885 
L 336.174545 159.589211 
L 357.12 156.842637 
L 378.065455 153.773333 
L 399.010909 150.641112 
L 419.956364 147.573977 
L 440.901818 145.739365 
L 461.847273 146.579544 
L 482.792727 144.237268 
L 503.738182 143.348153 
L 524.683636 139.58527 
L 545.629091 142.902115 
L 566.574545 140.585799 
L 587.52 137.261227 
L 608.465455 135.285057 
L 629.410909 132.512289 
L 650.356364 136.562661 
L 671.301818 135.864737 
L 692.247273 142.937538 
L 713.192727 131.804185 
L 734.138182 130.511504 
L 755.083636 125.958263 
L 776.029091 129.314807 
L 796.974545 132.028947 
" clip-path="url(#p92350d9e24)" style="fill: none; stroke: #000000; stroke-width: 0.1; stroke-linecap: square"/>
    <defs>
     <path id="m167cac9a53" d="M -0 8.485281 
L 5.091169 0 
L 0 -8.485281 
L -5.091169 -0 
z
"/>
    </defs>
    <g clip-path="url(#p92350d9e24)">
     <use xlink:href="#m167cac9a53" x="147.665455" y="237.443227" style="fill: #2ca02c"/>
     <use xlink:href="#m167cac9a53" x="168.610909" y="208.604974" style="fill: #2ca02c"/>
     <use xlink:href="#m167cac9a53" x="189.556364" y="192.205962" style="fill: #2ca02c"/>
     <use xlink:href="#m167cac9a53" x="210.501818" y="183.38983" style="fill: #2ca02c"/>
     <use xlink:href="#m167cac9a53" x="231.447273" y="176.964846" style="fill: #2ca02c"/>
     <use xlink:href="#m167cac9a53" x="252.392727" y="173.41807" style="fill: #2ca02c"/>
     <use xlink:href="#m167cac9a53" x="273.338182" y="166.665151" style="fill: #2ca02c"/>
     <use xlink:href="#m167cac9a53" x="294.283636" y="163.777305" style="fill: #2ca02c"/>
     <use xlink:href="#m167cac9a53" x="315.229091" y="161.108885" style="fill: #2ca02c"/>
     <use xlink:href="#m167cac9a53" x="336.174545" y="159.589211" style="fill: #2ca02c"/>
     <use xlink:href="#m167cac9a53" x="357.12" y="156.842637" style="fill: #2ca02c"/>
     <use xlink:href="#m167cac9a53" x="378.065455" y="153.773333" style="fill: #2ca02c"/>
     <use xlink:href="#m167cac9a53" x="399.010909" y="150.641112" style="fill: #2ca02c"/>
     <use xlink:href="#m167cac9a53" x="419.956364" y="147.573977" style="fill: #2ca02c"/>
     <use xlink:href="#m167cac9a53" x="440.901818" y="145.739365" style="fill: #2ca02c"/>
     <use xlink:href="#m167cac9a53" x="461.847273" y="146.579544" style="fill: #2ca02c"/>
     <use xlink:href="#m167cac9a53" x="482.792727" y="144.237268" style="fill: #2ca02c"/>
     <use xlink:href="#m167cac9a53" x="503.738182" y="143.348153" style="fill: #2ca02c"/>
     <use xlink:href="#m167cac9a53" x="524.683636" y="139.58527" style="fill: #2ca02c"/>
     <use xlink:href="#m167cac9a53" x="545.629091" y="142.902115" style="fill: #2ca02c"/>
     <use xlink:href="#m167cac9a53" x="566.574545" y="140.585799" style="fill: #2ca02c"/>
     <use xlink:href="#m167cac9a53" x="587.52" y="137.261227" style="fill: #2ca02c"/>
     <use xlink:href="#m167cac9a53" x="608.465455" y="135.285057" style="fill: #2ca02c"/>
     <use xlink:href="#m167cac9a53" x="629.410909" y="132.512289" style="fill: #2ca02c"/>
     <use xlink:href="#m167cac9a53" x="650.356364" y="136.562661" style="fill: #2ca02c"/>
     <use xlink:href="#m167cac9a53" x="671.301818" y="135.864737" style="fill: #2ca02c"/>
     <use xlink:href="#m167cac9a53" x="692.247273" y="142.937538" style="fill: #2ca02c"/>
     <use xlink:href="#m167cac9a53" x="713.192727" y="131.804185" style="fill: #2ca02c"/>
     <use xlink:href="#m167cac9a53" x="734.138182" y="130.511504" style="fill: #2ca02c"/>
     <use xlink:href="#m167cac9a53" x="755.083636" y="125.958263" style="fill: #2ca02c"/>
     <use xlink:href="#m167cac9a53" x="776.029091" y="129.314807" style="fill: #2ca02c"/>
     <use xlink:href="#m167cac9a53" x="796.974545" y="132.028947" style="fill: #2ca02c"/>
    </g>
   </g>
   <g id="line2d_63">
    <path d="M 115.2 345.434252 
L 829.44 345.434252 
" clip-path="url(#p92350d9e24)" style="fill: none; stroke-dasharray: 10.36,4.48; stroke-dashoffset: 0; stroke: #808080; stroke-width: 2.8"/>
   </g>
   <g id="line2d_64">
    <path d="M 147.665455 251.227741 
L 168.610909 217.265515 
L 189.556364 197.678529 
L 210.501818 184.813496 
L 231.447273 175.079606 
L 252.392727 167.152711 
L 273.338182 160.635315 
L 294.283636 155.068271 
L 315.229091 150.046454 
L 336.174545 145.693671 
L 357.12 141.737534 
L 378.065455 138.182903 
L 399.010909 134.8533 
L 419.956364 131.775914 
L 440.901818 128.878232 
L 461.847273 126.353028 
L 482.792727 123.817835 
L 503.738182 121.50314 
L 524.683636 119.280945 
L 545.629091 117.208266 
L 566.574545 115.191409 
L 587.52 113.303696 
L 608.465455 111.51293 
L 629.410909 109.794827 
L 650.356364 108.113044 
L 671.301818 106.50541 
L 692.247273 105.002387 
L 713.192727 103.516788 
L 734.138182 102.09712 
L 755.083636 100.726827 
L 776.029091 99.411058 
L 796.974545 98.208 
" clip-path="url(#p92350d9e24)" style="fill: none; stroke: #000000; stroke-width: 0.1; stroke-linecap: square"/>
    <defs>
     <path id="mc80f0d647a" d="M 0 -6 
L -1.347084 -1.854102 
L -5.706339 -1.854102 
L -2.179628 0.708204 
L -3.526712 4.854102 
L -0 2.291796 
L 3.526712 4.854102 
L 2.179628 0.708204 
L 5.706339 -1.854102 
L 1.347084 -1.854102 
z
"/>
    </defs>
    <g clip-path="url(#p92350d9e24)">
     <use xlink:href="#mc80f0d647a" x="147.665455" y="251.227741" style="fill: #d62728"/>
     <use xlink:href="#mc80f0d647a" x="168.610909" y="217.265515" style="fill: #d62728"/>
     <use xlink:href="#mc80f0d647a" x="189.556364" y="197.678529" style="fill: #d62728"/>
     <use xlink:href="#mc80f0d647a" x="210.501818" y="184.813496" style="fill: #d62728"/>
     <use xlink:href="#mc80f0d647a" x="231.447273" y="175.079606" style="fill: #d62728"/>
     <use xlink:href="#mc80f0d647a" x="252.392727" y="167.152711" style="fill: #d62728"/>
     <use xlink:href="#mc80f0d647a" x="273.338182" y="160.635315" style="fill: #d62728"/>
     <use xlink:href="#mc80f0d647a" x="294.283636" y="155.068271" style="fill: #d62728"/>
     <use xlink:href="#mc80f0d647a" x="315.229091" y="150.046454" style="fill: #d62728"/>
     <use xlink:href="#mc80f0d647a" x="336.174545" y="145.693671" style="fill: #d62728"/>
     <use xlink:href="#mc80f0d647a" x="357.12" y="141.737534" style="fill: #d62728"/>
     <use xlink:href="#mc80f0d647a" x="378.065455" y="138.182903" style="fill: #d62728"/>
     <use xlink:href="#mc80f0d647a" x="399.010909" y="134.8533" style="fill: #d62728"/>
     <use xlink:href="#mc80f0d647a" x="419.956364" y="131.775914" style="fill: #d62728"/>
     <use xlink:href="#mc80f0d647a" x="440.901818" y="128.878232" style="fill: #d62728"/>
     <use xlink:href="#mc80f0d647a" x="461.847273" y="126.353028" style="fill: #d62728"/>
     <use xlink:href="#mc80f0d647a" x="482.792727" y="123.817835" style="fill: #d62728"/>
     <use xlink:href="#mc80f0d647a" x="503.738182" y="121.50314" style="fill: #d62728"/>
     <use xlink:href="#mc80f0d647a" x="524.683636" y="119.280945" style="fill: #d62728"/>
     <use xlink:href="#mc80f0d647a" x="545.629091" y="117.208266" style="fill: #d62728"/>
     <use xlink:href="#mc80f0d647a" x="566.574545" y="115.191409" style="fill: #d62728"/>
     <use xlink:href="#mc80f0d647a" x="587.52" y="113.303696" style="fill: #d62728"/>
     <use xlink:href="#mc80f0d647a" x="608.465455" y="111.51293" style="fill: #d62728"/>
     <use xlink:href="#mc80f0d647a" x="629.410909" y="109.794827" style="fill: #d62728"/>
     <use xlink:href="#mc80f0d647a" x="650.356364" y="108.113044" style="fill: #d62728"/>
     <use xlink:href="#mc80f0d647a" x="671.301818" y="106.50541" style="fill: #d62728"/>
     <use xlink:href="#mc80f0d647a" x="692.247273" y="105.002387" style="fill: #d62728"/>
     <use xlink:href="#mc80f0d647a" x="713.192727" y="103.516788" style="fill: #d62728"/>
     <use xlink:href="#mc80f0d647a" x="734.138182" y="102.09712" style="fill: #d62728"/>
     <use xlink:href="#mc80f0d647a" x="755.083636" y="100.726827" style="fill: #d62728"/>
     <use xlink:href="#mc80f0d647a" x="776.029091" y="99.411058" style="fill: #d62728"/>
     <use xlink:href="#mc80f0d647a" x="796.974545" y="98.208" style="fill: #d62728"/>
    </g>
   </g>
   <g id="line2d_65">
    <path d="M 115.2 345.434252 
L 829.44 345.434252 
" clip-path="url(#p92350d9e24)" style="fill: none; stroke-dasharray: 10.36,4.48; stroke-dashoffset: 0; stroke: #808080; stroke-width: 2.8"/>
   </g>
   <g id="patch_3">
    <path d="M 115.2 563.904 
L 115.2 76.032 
" style="fill: none; stroke: #000000; stroke-width: 0.8; stroke-linejoin: miter; stroke-linecap: square"/>
   </g>
   <g id="patch_4">
    <path d="M 829.44 563.904 
L 829.44 76.032 
" style="fill: none; stroke: #000000; stroke-width: 0.8; stroke-linejoin: miter; stroke-linecap: square"/>
   </g>
   <g id="patch_5">
    <path d="M 115.2 563.904 
L 829.44 563.904 
" style="fill: none; stroke: #000000; stroke-width: 0.8; stroke-linejoin: miter; stroke-linecap: square"/>
   </g>
   <g id="patch_6">
    <path d="M 115.2 76.032 
L 829.44 76.032 
" style="fill: none; stroke: #000000; stroke-width: 0.8; stroke-linejoin: miter; stroke-linecap: square"/>
   </g>
   <g id="text_14">
    <!-- $10^9$ for scale -->
    <g transform="translate(192.174545 373.092592)scale(0.11 -0.11)">
     <defs>
      <path id="DejaVuSans-66" d="M 2375 4863 
L 2375 4384 
L 1825 4384 
Q 1516 4384 1395 4259 
Q 1275 4134 1275 3809 
L 1275 3500 
L 2222 3500 
L 2222 3053 
L 1275 3053 
L 1275 0 
L 697 0 
L 697 3053 
L 147 3053 
L 147 3500 
L 697 3500 
L 697 3744 
Q 697 4328 969 4595 
Q 1241 4863 1831 4863 
L 2375 4863 
z
" transform="scale(0.015625)"/>
     </defs>
     <use xlink:href="#DejaVuSans-31" transform="translate(0 0.765625)"/>
     <use xlink:href="#DejaVuSans-30" transform="translate(63.623047 0.765625)"/>
     <use xlink:href="#DejaVuSans-39" transform="translate(128.203125 39.046875)scale(0.7)"/>
     <use xlink:href="#DejaVuSans-20" transform="translate(175.473633 0.765625)"/>
     <use xlink:href="#DejaVuSans-66" transform="translate(207.260742 0.765625)"/>
     <use xlink:href="#DejaVuSans-6f" transform="translate(242.46582 0.765625)"/>
     <use xlink:href="#DejaVuSans-72" transform="translate(303.647461 0.765625)"/>
     <use xlink:href="#DejaVuSans-20" transform="translate(344.760742 0.765625)"/>
     <use xlink:href="#DejaVuSans-73" transform="translate(376.547852 0.765625)"/>
     <use xlink:href="#DejaVuSans-63" transform="translate(428.647461 0.765625)"/>
     <use xlink:href="#DejaVuSans-61" transform="translate(483.62793 0.765625)"/>
     <use xlink:href="#DejaVuSans-6c" transform="translate(544.907227 0.765625)"/>
     <use xlink:href="#DejaVuSans-65" transform="translate(572.69043 0.765625)"/>
    </g>
   </g>
  </g>
 </g>
 <defs>
  <clipPath id="p92350d9e24">
   <rect x="115.2" y="76.032" width="714.24" height="487.872"/>
  </clipPath>
 </defs>
</svg>
