<?xml version="1.0" encoding="utf-8" standalone="no"?>
<!DOCTYPE svg PUBLIC "-//W3C//DTD SVG 1.1//EN"
  "http://www.w3.org/Graphics/SVG/1.1/DTD/svg11.dtd">
<svg xmlns:xlink="http://www.w3.org/1999/xlink" width="460.8pt" height="345.6pt" viewBox="0 0 460.8 345.6" xmlns="http://www.w3.org/2000/svg" version="1.1">
 <metadata>
  <rdf:RDF xmlns:dc="http://purl.org/dc/elements/1.1/" xmlns:cc="http://creativecommons.org/ns#" xmlns:rdf="http://www.w3.org/1999/02/22-rdf-syntax-ns#">
   <cc:Work>
    <dc:type rdf:resource="http://purl.org/dc/dcmitype/StillImage"/>
    <dc:date>2023-01-31T00:25:53.950172</dc:date>
    <dc:format>image/svg+xml</dc:format>
    <dc:creator>
     <cc:Agent>
      <dc:title>Matplotlib v3.5.3, https://matplotlib.org/</dc:title>
     </cc:Agent>
    </dc:creator>
   </cc:Work>
  </rdf:RDF>
 </metadata>
 <defs>
  <style type="text/css">*{stroke-linejoin: round; stroke-linecap: butt}</style>
 </defs>
 <g id="figure_1">
  <g id="patch_1">
   <path d="M 0 345.6 
L 460.8 345.6 
L 460.8 0 
L 0 0 
z
" style="fill: #ffffff"/>
  </g>
  <g id="axes_1">
   <g id="patch_2">
    <path d="M 57.6 293.76 
L 414.72 293.76 
L 414.72 41.472 
L 57.6 41.472 
z
" style="fill: #ffffff"/>
   </g>
   <g id="PolyCollection_1">
    <defs>
     <path id="mbf702d1017" d="M 73.832727 -114.531644 
L 73.832727 -114.531644 
L 84.347854 -128.97036 
L 94.862981 -134.948378 
L 105.378108 -137.844822 
L 115.893235 -140.206365 
L 126.408362 -141.955745 
L 136.923489 -143.812508 
L 147.438616 -145.655036 
L 157.953743 -146.467654 
L 168.46887 -147.506017 
L 178.983997 -148.621342 
L 189.499124 -149.694898 
L 200.014251 -149.950477 
L 210.529378 -150.762501 
L 221.044505 -151.774173 
L 231.559632 -152.76579 
L 242.074759 -151.253755 
L 252.589886 -152.256373 
L 263.105013 -152.909877 
L 273.62014 -153.535385 
L 284.135267 -153.663836 
L 294.650394 -154.511737 
L 305.165521 -155.343413 
L 315.680648 -155.64084 
L 326.195775 -155.183155 
L 336.710902 -155.36536 
L 347.226029 -155.988926 
L 357.741156 -156.517625 
L 368.256283 -156.026201 
L 378.77141 -157.118117 
L 389.286537 -157.125727 
L 398.487273 -157.354642 
L 398.487273 -157.354642 
L 398.487273 -157.99956 
L 389.286537 -157.641632 
L 378.77141 -157.487328 
L 368.256283 -156.486612 
L 357.741156 -156.849189 
L 347.226029 -156.508413 
L 336.710902 -155.982838 
L 326.195775 -155.661291 
L 315.680648 -156.037741 
L 305.165521 -155.560619 
L 294.650394 -154.899025 
L 284.135267 -154.560973 
L 273.62014 -154.094406 
L 263.105013 -153.050171 
L 252.589886 -152.579662 
L 242.074759 -151.362595 
L 231.559632 -152.914819 
L 221.044505 -151.897406 
L 210.529378 -151.126287 
L 200.014251 -150.111718 
L 189.499124 -149.827017 
L 178.983997 -148.752949 
L 168.46887 -147.557903 
L 157.953743 -146.563669 
L 147.438616 -145.743115 
L 136.923489 -143.909794 
L 126.408362 -142.088094 
L 115.893235 -140.307889 
L 105.378108 -138.061942 
L 94.862981 -134.995258 
L 84.347854 -129.101442 
L 73.832727 -114.619065 
z
" style="stroke: #ffdead"/>
    </defs>
    <g clip-path="url(#p5a3ae87654)">
     <use xlink:href="#mbf702d1017" x="0" y="345.6" style="fill: #ffdead; stroke: #ffdead"/>
    </g>
   </g>
   <g id="PolyCollection_2">
    <defs>
     <path id="md5d7e7a285" d="M 73.832727 -114.655374 
L 73.832727 -114.655374 
L 84.347854 -132.176193 
L 94.862981 -139.403762 
L 105.378108 -142.576945 
L 115.893235 -146.58307 
L 126.408362 -147.389907 
L 136.923489 -148.951033 
L 147.438616 -152.140884 
L 157.953743 -152.757487 
L 168.46887 -151.999451 
L 178.983997 -153.354847 
L 189.499124 -154.291158 
L 200.014251 -154.49504 
L 210.529378 -155.318252 
L 221.044505 -156.045231 
L 231.559632 -158.093436 
L 242.074759 -157.473681 
L 252.589886 -157.897136 
L 263.105013 -156.373611 
L 273.62014 -157.175702 
L 284.135267 -158.077886 
L 294.650394 -157.427077 
L 305.165521 -157.031244 
L 315.680648 -157.460991 
L 326.195775 -157.665901 
L 336.710902 -158.152894 
L 347.226029 -159.364175 
L 357.741156 -158.575237 
L 368.256283 -158.770904 
L 378.77141 -160.467039 
L 389.286537 -159.811355 
L 398.487273 -159.82022 
L 398.487273 -159.82022 
L 398.487273 -159.974641 
L 389.286537 -161.371041 
L 378.77141 -161.5088 
L 368.256283 -160.978283 
L 357.741156 -160.292938 
L 347.226029 -160.867955 
L 336.710902 -159.687344 
L 326.195775 -157.759187 
L 315.680648 -157.518861 
L 305.165521 -157.425069 
L 294.650394 -157.493517 
L 284.135267 -159.655742 
L 273.62014 -159.191482 
L 263.105013 -158.557604 
L 252.589886 -157.974408 
L 242.074759 -157.55282 
L 231.559632 -158.155066 
L 221.044505 -156.431189 
L 210.529378 -155.569927 
L 200.014251 -154.543705 
L 189.499124 -155.97238 
L 178.983997 -153.867505 
L 168.46887 -153.843854 
L 157.953743 -152.968605 
L 147.438616 -152.187522 
L 136.923489 -150.324252 
L 126.408362 -148.62974 
L 115.893235 -146.66051 
L 105.378108 -143.327262 
L 94.862981 -139.709563 
L 84.347854 -132.260997 
L 73.832727 -114.847042 
z
" style="stroke: #ffdead"/>
    </defs>
    <g clip-path="url(#p5a3ae87654)">
     <use xlink:href="#md5d7e7a285" x="0" y="345.6" style="fill: #ffdead; stroke: #ffdead"/>
    </g>
   </g>
   <g id="PolyCollection_3">
    <defs>
     <path id="mfa0d9d5922" d="M 73.832727 -225.227712 
L 73.832727 -225.227712 
L 84.347854 -246.330848 
L 94.862981 -252.149685 
L 105.378108 -253.72901 
L 115.893235 -255.348217 
L 126.408362 -257.24048 
L 136.923489 -259.863806 
L 147.438616 -264.823319 
L 157.953743 -263.008374 
L 168.46887 -264.223527 
L 178.983997 -268.372904 
L 189.499124 -271.072117 
L 200.014251 -269.504902 
L 210.529378 -271.495077 
L 221.044505 -272.988793 
L 231.559632 -278.963913 
L 242.074759 -272.582632 
L 252.589886 -276.991664 
L 263.105013 -277.795672 
L 273.62014 -278.988388 
L 284.135267 -280.689211 
L 294.650394 -282.526082 
L 305.165521 -283.573041 
L 315.680648 -286.30697 
L 326.195775 -284.102428 
L 336.710902 -285.779765 
L 347.226029 -288.206332 
L 357.741156 -289.867184 
L 368.256283 -289.683025 
L 378.77141 -290.870049 
L 389.286537 -290.65657 
L 398.487273 -288.570646 
L 398.487273 -288.570646 
L 398.487273 -292.660364 
L 389.286537 -292.029078 
L 378.77141 -291.80194 
L 368.256283 -290.512725 
L 357.741156 -290.144051 
L 347.226029 -288.533531 
L 336.710902 -286.460112 
L 326.195775 -284.608369 
L 315.680648 -287.076736 
L 305.165521 -284.853343 
L 294.650394 -283.081794 
L 284.135267 -282.064789 
L 273.62014 -279.841493 
L 263.105013 -278.297044 
L 252.589886 -277.743527 
L 242.074759 -273.324477 
L 231.559632 -279.823704 
L 221.044505 -275.369547 
L 210.529378 -272.764739 
L 200.014251 -270.042256 
L 189.499124 -272.313001 
L 178.983997 -269.208314 
L 168.46887 -265.537099 
L 157.953743 -264.356858 
L 147.438616 -265.787824 
L 136.923489 -261.283306 
L 126.408362 -258.12209 
L 115.893235 -255.732932 
L 105.378108 -254.30853 
L 94.862981 -252.802382 
L 84.347854 -248.067176 
L 73.832727 -239.268997 
z
" style="stroke: #ffdead"/>
    </defs>
    <g clip-path="url(#p5a3ae87654)">
     <use xlink:href="#mfa0d9d5922" x="0" y="345.6" style="fill: #ffdead; stroke: #ffdead"/>
    </g>
   </g>
   <g id="matplotlib.axis_1">
    <g id="xtick_1">
     <g id="line2d_1">
      <defs>
       <path id="m8fde8319c1" d="M 0 0 
L 0 3.5 
" style="stroke: #000000; stroke-width: 0.8"/>
      </defs>
      <g>
       <use xlink:href="#m8fde8319c1" x="73.832727" y="293.76" style="stroke: #000000; stroke-width: 0.8"/>
      </g>
     </g>
     <g id="text_1">
      <!-- 1, 8 -->
      <g transform="translate(63.33804 309.118281)scale(0.11 -0.11)">
       <defs>
        <path id="DejaVuSans-31" d="M 794 531 
L 1825 531 
L 1825 4091 
L 703 3866 
L 703 4441 
L 1819 4666 
L 2450 4666 
L 2450 531 
L 3481 531 
L 3481 0 
L 794 0 
L 794 531 
z
" transform="scale(0.015625)"/>
        <path id="DejaVuSans-2c" d="M 750 794 
L 1409 794 
L 1409 256 
L 897 -744 
L 494 -744 
L 750 256 
L 750 794 
z
" transform="scale(0.015625)"/>
        <path id="DejaVuSans-20" transform="scale(0.015625)"/>
        <path id="DejaVuSans-38" d="M 2034 2216 
Q 1584 2216 1326 1975 
Q 1069 1734 1069 1313 
Q 1069 891 1326 650 
Q 1584 409 2034 409 
Q 2484 409 2743 651 
Q 3003 894 3003 1313 
Q 3003 1734 2745 1975 
Q 2488 2216 2034 2216 
z
M 1403 2484 
Q 997 2584 770 2862 
Q 544 3141 544 3541 
Q 544 4100 942 4425 
Q 1341 4750 2034 4750 
Q 2731 4750 3128 4425 
Q 3525 4100 3525 3541 
Q 3525 3141 3298 2862 
Q 3072 2584 2669 2484 
Q 3125 2378 3379 2068 
Q 3634 1759 3634 1313 
Q 3634 634 3220 271 
Q 2806 -91 2034 -91 
Q 1263 -91 848 271 
Q 434 634 434 1313 
Q 434 1759 690 2068 
Q 947 2378 1403 2484 
z
M 1172 3481 
Q 1172 3119 1398 2916 
Q 1625 2713 2034 2713 
Q 2441 2713 2670 2916 
Q 2900 3119 2900 3481 
Q 2900 3844 2670 4047 
Q 2441 4250 2034 4250 
Q 1625 4250 1398 4047 
Q 1172 3844 1172 3481 
z
" transform="scale(0.015625)"/>
       </defs>
       <use xlink:href="#DejaVuSans-31"/>
       <use xlink:href="#DejaVuSans-2c" x="63.623047"/>
       <use xlink:href="#DejaVuSans-20" x="95.410156"/>
       <use xlink:href="#DejaVuSans-38" x="127.197266"/>
      </g>
     </g>
    </g>
    <g id="xtick_2">
     <g id="line2d_2">
      <g>
       <use xlink:href="#m8fde8319c1" x="136.923489" y="293.76" style="stroke: #000000; stroke-width: 0.8"/>
      </g>
     </g>
     <g id="text_2">
      <!-- 7, 56 -->
      <g transform="translate(122.929427 309.118281)scale(0.11 -0.11)">
       <defs>
        <path id="DejaVuSans-37" d="M 525 4666 
L 3525 4666 
L 3525 4397 
L 1831 0 
L 1172 0 
L 2766 4134 
L 525 4134 
L 525 4666 
z
" transform="scale(0.015625)"/>
        <path id="DejaVuSans-35" d="M 691 4666 
L 3169 4666 
L 3169 4134 
L 1269 4134 
L 1269 2991 
Q 1406 3038 1543 3061 
Q 1681 3084 1819 3084 
Q 2600 3084 3056 2656 
Q 3513 2228 3513 1497 
Q 3513 744 3044 326 
Q 2575 -91 1722 -91 
Q 1428 -91 1123 -41 
Q 819 9 494 109 
L 494 744 
Q 775 591 1075 516 
Q 1375 441 1709 441 
Q 2250 441 2565 725 
Q 2881 1009 2881 1497 
Q 2881 1984 2565 2268 
Q 2250 2553 1709 2553 
Q 1456 2553 1204 2497 
Q 953 2441 691 2322 
L 691 4666 
z
" transform="scale(0.015625)"/>
        <path id="DejaVuSans-36" d="M 2113 2584 
Q 1688 2584 1439 2293 
Q 1191 2003 1191 1497 
Q 1191 994 1439 701 
Q 1688 409 2113 409 
Q 2538 409 2786 701 
Q 3034 994 3034 1497 
Q 3034 2003 2786 2293 
Q 2538 2584 2113 2584 
z
M 3366 4563 
L 3366 3988 
Q 3128 4100 2886 4159 
Q 2644 4219 2406 4219 
Q 1781 4219 1451 3797 
Q 1122 3375 1075 2522 
Q 1259 2794 1537 2939 
Q 1816 3084 2150 3084 
Q 2853 3084 3261 2657 
Q 3669 2231 3669 1497 
Q 3669 778 3244 343 
Q 2819 -91 2113 -91 
Q 1303 -91 875 529 
Q 447 1150 447 2328 
Q 447 3434 972 4092 
Q 1497 4750 2381 4750 
Q 2619 4750 2861 4703 
Q 3103 4656 3366 4563 
z
" transform="scale(0.015625)"/>
       </defs>
       <use xlink:href="#DejaVuSans-37"/>
       <use xlink:href="#DejaVuSans-2c" x="63.623047"/>
       <use xlink:href="#DejaVuSans-20" x="95.410156"/>
       <use xlink:href="#DejaVuSans-35" x="127.197266"/>
       <use xlink:href="#DejaVuSans-36" x="190.820312"/>
      </g>
     </g>
    </g>
    <g id="xtick_3">
     <g id="line2d_3">
      <g>
       <use xlink:href="#m8fde8319c1" x="200.014251" y="293.76" style="stroke: #000000; stroke-width: 0.8"/>
      </g>
     </g>
     <g id="text_3">
      <!-- 13, 104 -->
      <g transform="translate(179.021439 309.118281)scale(0.11 -0.11)">
       <defs>
        <path id="DejaVuSans-33" d="M 2597 2516 
Q 3050 2419 3304 2112 
Q 3559 1806 3559 1356 
Q 3559 666 3084 287 
Q 2609 -91 1734 -91 
Q 1441 -91 1130 -33 
Q 819 25 488 141 
L 488 750 
Q 750 597 1062 519 
Q 1375 441 1716 441 
Q 2309 441 2620 675 
Q 2931 909 2931 1356 
Q 2931 1769 2642 2001 
Q 2353 2234 1838 2234 
L 1294 2234 
L 1294 2753 
L 1863 2753 
Q 2328 2753 2575 2939 
Q 2822 3125 2822 3475 
Q 2822 3834 2567 4026 
Q 2313 4219 1838 4219 
Q 1578 4219 1281 4162 
Q 984 4106 628 3988 
L 628 4550 
Q 988 4650 1302 4700 
Q 1616 4750 1894 4750 
Q 2613 4750 3031 4423 
Q 3450 4097 3450 3541 
Q 3450 3153 3228 2886 
Q 3006 2619 2597 2516 
z
" transform="scale(0.015625)"/>
        <path id="DejaVuSans-30" d="M 2034 4250 
Q 1547 4250 1301 3770 
Q 1056 3291 1056 2328 
Q 1056 1369 1301 889 
Q 1547 409 2034 409 
Q 2525 409 2770 889 
Q 3016 1369 3016 2328 
Q 3016 3291 2770 3770 
Q 2525 4250 2034 4250 
z
M 2034 4750 
Q 2819 4750 3233 4129 
Q 3647 3509 3647 2328 
Q 3647 1150 3233 529 
Q 2819 -91 2034 -91 
Q 1250 -91 836 529 
Q 422 1150 422 2328 
Q 422 3509 836 4129 
Q 1250 4750 2034 4750 
z
" transform="scale(0.015625)"/>
        <path id="DejaVuSans-34" d="M 2419 4116 
L 825 1625 
L 2419 1625 
L 2419 4116 
z
M 2253 4666 
L 3047 4666 
L 3047 1625 
L 3713 1625 
L 3713 1100 
L 3047 1100 
L 3047 0 
L 2419 0 
L 2419 1100 
L 313 1100 
L 313 1709 
L 2253 4666 
z
" transform="scale(0.015625)"/>
       </defs>
       <use xlink:href="#DejaVuSans-31"/>
       <use xlink:href="#DejaVuSans-33" x="63.623047"/>
       <use xlink:href="#DejaVuSans-2c" x="127.246094"/>
       <use xlink:href="#DejaVuSans-20" x="159.033203"/>
       <use xlink:href="#DejaVuSans-31" x="190.820312"/>
       <use xlink:href="#DejaVuSans-30" x="254.443359"/>
       <use xlink:href="#DejaVuSans-34" x="318.066406"/>
      </g>
     </g>
    </g>
    <g id="xtick_4">
     <g id="line2d_4">
      <g>
       <use xlink:href="#m8fde8319c1" x="263.105013" y="293.76" style="stroke: #000000; stroke-width: 0.8"/>
      </g>
     </g>
     <g id="text_4">
      <!-- 19, 152 -->
      <g transform="translate(242.1122 309.118281)scale(0.11 -0.11)">
       <defs>
        <path id="DejaVuSans-39" d="M 703 97 
L 703 672 
Q 941 559 1184 500 
Q 1428 441 1663 441 
Q 2288 441 2617 861 
Q 2947 1281 2994 2138 
Q 2813 1869 2534 1725 
Q 2256 1581 1919 1581 
Q 1219 1581 811 2004 
Q 403 2428 403 3163 
Q 403 3881 828 4315 
Q 1253 4750 1959 4750 
Q 2769 4750 3195 4129 
Q 3622 3509 3622 2328 
Q 3622 1225 3098 567 
Q 2575 -91 1691 -91 
Q 1453 -91 1209 -44 
Q 966 3 703 97 
z
M 1959 2075 
Q 2384 2075 2632 2365 
Q 2881 2656 2881 3163 
Q 2881 3666 2632 3958 
Q 2384 4250 1959 4250 
Q 1534 4250 1286 3958 
Q 1038 3666 1038 3163 
Q 1038 2656 1286 2365 
Q 1534 2075 1959 2075 
z
" transform="scale(0.015625)"/>
        <path id="DejaVuSans-32" d="M 1228 531 
L 3431 531 
L 3431 0 
L 469 0 
L 469 531 
Q 828 903 1448 1529 
Q 2069 2156 2228 2338 
Q 2531 2678 2651 2914 
Q 2772 3150 2772 3378 
Q 2772 3750 2511 3984 
Q 2250 4219 1831 4219 
Q 1534 4219 1204 4116 
Q 875 4013 500 3803 
L 500 4441 
Q 881 4594 1212 4672 
Q 1544 4750 1819 4750 
Q 2544 4750 2975 4387 
Q 3406 4025 3406 3419 
Q 3406 3131 3298 2873 
Q 3191 2616 2906 2266 
Q 2828 2175 2409 1742 
Q 1991 1309 1228 531 
z
" transform="scale(0.015625)"/>
       </defs>
       <use xlink:href="#DejaVuSans-31"/>
       <use xlink:href="#DejaVuSans-39" x="63.623047"/>
       <use xlink:href="#DejaVuSans-2c" x="127.246094"/>
       <use xlink:href="#DejaVuSans-20" x="159.033203"/>
       <use xlink:href="#DejaVuSans-31" x="190.820312"/>
       <use xlink:href="#DejaVuSans-35" x="254.443359"/>
       <use xlink:href="#DejaVuSans-32" x="318.066406"/>
      </g>
     </g>
    </g>
    <g id="xtick_5">
     <g id="line2d_5">
      <g>
       <use xlink:href="#m8fde8319c1" x="326.195775" y="293.76" style="stroke: #000000; stroke-width: 0.8"/>
      </g>
     </g>
     <g id="text_5">
      <!-- 25, 200 -->
      <g transform="translate(305.202962 309.118281)scale(0.11 -0.11)">
       <use xlink:href="#DejaVuSans-32"/>
       <use xlink:href="#DejaVuSans-35" x="63.623047"/>
       <use xlink:href="#DejaVuSans-2c" x="127.246094"/>
       <use xlink:href="#DejaVuSans-20" x="159.033203"/>
       <use xlink:href="#DejaVuSans-32" x="190.820312"/>
       <use xlink:href="#DejaVuSans-30" x="254.443359"/>
       <use xlink:href="#DejaVuSans-30" x="318.066406"/>
      </g>
     </g>
    </g>
    <g id="xtick_6">
     <g id="line2d_6">
      <g>
       <use xlink:href="#m8fde8319c1" x="389.286537" y="293.76" style="stroke: #000000; stroke-width: 0.8"/>
      </g>
     </g>
     <g id="text_6">
      <!-- 31, 248 -->
      <g transform="translate(368.293724 309.118281)scale(0.11 -0.11)">
       <use xlink:href="#DejaVuSans-33"/>
       <use xlink:href="#DejaVuSans-31" x="63.623047"/>
       <use xlink:href="#DejaVuSans-2c" x="127.246094"/>
       <use xlink:href="#DejaVuSans-20" x="159.033203"/>
       <use xlink:href="#DejaVuSans-32" x="190.820312"/>
       <use xlink:href="#DejaVuSans-34" x="254.443359"/>
       <use xlink:href="#DejaVuSans-38" x="318.066406"/>
      </g>
     </g>
    </g>
    <g id="text_7">
     <!-- Bin number, maximum program size -->
     <g transform="translate(107.815 326.04375)scale(0.14 -0.14)">
      <defs>
       <path id="DejaVuSans-42" d="M 1259 2228 
L 1259 519 
L 2272 519 
Q 2781 519 3026 730 
Q 3272 941 3272 1375 
Q 3272 1813 3026 2020 
Q 2781 2228 2272 2228 
L 1259 2228 
z
M 1259 4147 
L 1259 2741 
L 2194 2741 
Q 2656 2741 2882 2914 
Q 3109 3088 3109 3444 
Q 3109 3797 2882 3972 
Q 2656 4147 2194 4147 
L 1259 4147 
z
M 628 4666 
L 2241 4666 
Q 2963 4666 3353 4366 
Q 3744 4066 3744 3513 
Q 3744 3084 3544 2831 
Q 3344 2578 2956 2516 
Q 3422 2416 3680 2098 
Q 3938 1781 3938 1306 
Q 3938 681 3513 340 
Q 3088 0 2303 0 
L 628 0 
L 628 4666 
z
" transform="scale(0.015625)"/>
       <path id="DejaVuSans-69" d="M 603 3500 
L 1178 3500 
L 1178 0 
L 603 0 
L 603 3500 
z
M 603 4863 
L 1178 4863 
L 1178 4134 
L 603 4134 
L 603 4863 
z
" transform="scale(0.015625)"/>
       <path id="DejaVuSans-6e" d="M 3513 2113 
L 3513 0 
L 2938 0 
L 2938 2094 
Q 2938 2591 2744 2837 
Q 2550 3084 2163 3084 
Q 1697 3084 1428 2787 
Q 1159 2491 1159 1978 
L 1159 0 
L 581 0 
L 581 3500 
L 1159 3500 
L 1159 2956 
Q 1366 3272 1645 3428 
Q 1925 3584 2291 3584 
Q 2894 3584 3203 3211 
Q 3513 2838 3513 2113 
z
" transform="scale(0.015625)"/>
       <path id="DejaVuSans-75" d="M 544 1381 
L 544 3500 
L 1119 3500 
L 1119 1403 
Q 1119 906 1312 657 
Q 1506 409 1894 409 
Q 2359 409 2629 706 
Q 2900 1003 2900 1516 
L 2900 3500 
L 3475 3500 
L 3475 0 
L 2900 0 
L 2900 538 
Q 2691 219 2414 64 
Q 2138 -91 1772 -91 
Q 1169 -91 856 284 
Q 544 659 544 1381 
z
M 1991 3584 
L 1991 3584 
z
" transform="scale(0.015625)"/>
       <path id="DejaVuSans-6d" d="M 3328 2828 
Q 3544 3216 3844 3400 
Q 4144 3584 4550 3584 
Q 5097 3584 5394 3201 
Q 5691 2819 5691 2113 
L 5691 0 
L 5113 0 
L 5113 2094 
Q 5113 2597 4934 2840 
Q 4756 3084 4391 3084 
Q 3944 3084 3684 2787 
Q 3425 2491 3425 1978 
L 3425 0 
L 2847 0 
L 2847 2094 
Q 2847 2600 2669 2842 
Q 2491 3084 2119 3084 
Q 1678 3084 1418 2786 
Q 1159 2488 1159 1978 
L 1159 0 
L 581 0 
L 581 3500 
L 1159 3500 
L 1159 2956 
Q 1356 3278 1631 3431 
Q 1906 3584 2284 3584 
Q 2666 3584 2933 3390 
Q 3200 3197 3328 2828 
z
" transform="scale(0.015625)"/>
       <path id="DejaVuSans-62" d="M 3116 1747 
Q 3116 2381 2855 2742 
Q 2594 3103 2138 3103 
Q 1681 3103 1420 2742 
Q 1159 2381 1159 1747 
Q 1159 1113 1420 752 
Q 1681 391 2138 391 
Q 2594 391 2855 752 
Q 3116 1113 3116 1747 
z
M 1159 2969 
Q 1341 3281 1617 3432 
Q 1894 3584 2278 3584 
Q 2916 3584 3314 3078 
Q 3713 2572 3713 1747 
Q 3713 922 3314 415 
Q 2916 -91 2278 -91 
Q 1894 -91 1617 61 
Q 1341 213 1159 525 
L 1159 0 
L 581 0 
L 581 4863 
L 1159 4863 
L 1159 2969 
z
" transform="scale(0.015625)"/>
       <path id="DejaVuSans-65" d="M 3597 1894 
L 3597 1613 
L 953 1613 
Q 991 1019 1311 708 
Q 1631 397 2203 397 
Q 2534 397 2845 478 
Q 3156 559 3463 722 
L 3463 178 
Q 3153 47 2828 -22 
Q 2503 -91 2169 -91 
Q 1331 -91 842 396 
Q 353 884 353 1716 
Q 353 2575 817 3079 
Q 1281 3584 2069 3584 
Q 2775 3584 3186 3129 
Q 3597 2675 3597 1894 
z
M 3022 2063 
Q 3016 2534 2758 2815 
Q 2500 3097 2075 3097 
Q 1594 3097 1305 2825 
Q 1016 2553 972 2059 
L 3022 2063 
z
" transform="scale(0.015625)"/>
       <path id="DejaVuSans-72" d="M 2631 2963 
Q 2534 3019 2420 3045 
Q 2306 3072 2169 3072 
Q 1681 3072 1420 2755 
Q 1159 2438 1159 1844 
L 1159 0 
L 581 0 
L 581 3500 
L 1159 3500 
L 1159 2956 
Q 1341 3275 1631 3429 
Q 1922 3584 2338 3584 
Q 2397 3584 2469 3576 
Q 2541 3569 2628 3553 
L 2631 2963 
z
" transform="scale(0.015625)"/>
       <path id="DejaVuSans-61" d="M 2194 1759 
Q 1497 1759 1228 1600 
Q 959 1441 959 1056 
Q 959 750 1161 570 
Q 1363 391 1709 391 
Q 2188 391 2477 730 
Q 2766 1069 2766 1631 
L 2766 1759 
L 2194 1759 
z
M 3341 1997 
L 3341 0 
L 2766 0 
L 2766 531 
Q 2569 213 2275 61 
Q 1981 -91 1556 -91 
Q 1019 -91 701 211 
Q 384 513 384 1019 
Q 384 1609 779 1909 
Q 1175 2209 1959 2209 
L 2766 2209 
L 2766 2266 
Q 2766 2663 2505 2880 
Q 2244 3097 1772 3097 
Q 1472 3097 1187 3025 
Q 903 2953 641 2809 
L 641 3341 
Q 956 3463 1253 3523 
Q 1550 3584 1831 3584 
Q 2591 3584 2966 3190 
Q 3341 2797 3341 1997 
z
" transform="scale(0.015625)"/>
       <path id="DejaVuSans-78" d="M 3513 3500 
L 2247 1797 
L 3578 0 
L 2900 0 
L 1881 1375 
L 863 0 
L 184 0 
L 1544 1831 
L 300 3500 
L 978 3500 
L 1906 2253 
L 2834 3500 
L 3513 3500 
z
" transform="scale(0.015625)"/>
       <path id="DejaVuSans-70" d="M 1159 525 
L 1159 -1331 
L 581 -1331 
L 581 3500 
L 1159 3500 
L 1159 2969 
Q 1341 3281 1617 3432 
Q 1894 3584 2278 3584 
Q 2916 3584 3314 3078 
Q 3713 2572 3713 1747 
Q 3713 922 3314 415 
Q 2916 -91 2278 -91 
Q 1894 -91 1617 61 
Q 1341 213 1159 525 
z
M 3116 1747 
Q 3116 2381 2855 2742 
Q 2594 3103 2138 3103 
Q 1681 3103 1420 2742 
Q 1159 2381 1159 1747 
Q 1159 1113 1420 752 
Q 1681 391 2138 391 
Q 2594 391 2855 752 
Q 3116 1113 3116 1747 
z
" transform="scale(0.015625)"/>
       <path id="DejaVuSans-6f" d="M 1959 3097 
Q 1497 3097 1228 2736 
Q 959 2375 959 1747 
Q 959 1119 1226 758 
Q 1494 397 1959 397 
Q 2419 397 2687 759 
Q 2956 1122 2956 1747 
Q 2956 2369 2687 2733 
Q 2419 3097 1959 3097 
z
M 1959 3584 
Q 2709 3584 3137 3096 
Q 3566 2609 3566 1747 
Q 3566 888 3137 398 
Q 2709 -91 1959 -91 
Q 1206 -91 779 398 
Q 353 888 353 1747 
Q 353 2609 779 3096 
Q 1206 3584 1959 3584 
z
" transform="scale(0.015625)"/>
       <path id="DejaVuSans-67" d="M 2906 1791 
Q 2906 2416 2648 2759 
Q 2391 3103 1925 3103 
Q 1463 3103 1205 2759 
Q 947 2416 947 1791 
Q 947 1169 1205 825 
Q 1463 481 1925 481 
Q 2391 481 2648 825 
Q 2906 1169 2906 1791 
z
M 3481 434 
Q 3481 -459 3084 -895 
Q 2688 -1331 1869 -1331 
Q 1566 -1331 1297 -1286 
Q 1028 -1241 775 -1147 
L 775 -588 
Q 1028 -725 1275 -790 
Q 1522 -856 1778 -856 
Q 2344 -856 2625 -561 
Q 2906 -266 2906 331 
L 2906 616 
Q 2728 306 2450 153 
Q 2172 0 1784 0 
Q 1141 0 747 490 
Q 353 981 353 1791 
Q 353 2603 747 3093 
Q 1141 3584 1784 3584 
Q 2172 3584 2450 3431 
Q 2728 3278 2906 2969 
L 2906 3500 
L 3481 3500 
L 3481 434 
z
" transform="scale(0.015625)"/>
       <path id="DejaVuSans-73" d="M 2834 3397 
L 2834 2853 
Q 2591 2978 2328 3040 
Q 2066 3103 1784 3103 
Q 1356 3103 1142 2972 
Q 928 2841 928 2578 
Q 928 2378 1081 2264 
Q 1234 2150 1697 2047 
L 1894 2003 
Q 2506 1872 2764 1633 
Q 3022 1394 3022 966 
Q 3022 478 2636 193 
Q 2250 -91 1575 -91 
Q 1294 -91 989 -36 
Q 684 19 347 128 
L 347 722 
Q 666 556 975 473 
Q 1284 391 1588 391 
Q 1994 391 2212 530 
Q 2431 669 2431 922 
Q 2431 1156 2273 1281 
Q 2116 1406 1581 1522 
L 1381 1569 
Q 847 1681 609 1914 
Q 372 2147 372 2553 
Q 372 3047 722 3315 
Q 1072 3584 1716 3584 
Q 2034 3584 2315 3537 
Q 2597 3491 2834 3397 
z
" transform="scale(0.015625)"/>
       <path id="DejaVuSans-7a" d="M 353 3500 
L 3084 3500 
L 3084 2975 
L 922 459 
L 3084 459 
L 3084 0 
L 275 0 
L 275 525 
L 2438 3041 
L 353 3041 
L 353 3500 
z
" transform="scale(0.015625)"/>
      </defs>
      <use xlink:href="#DejaVuSans-42"/>
      <use xlink:href="#DejaVuSans-69" x="68.603516"/>
      <use xlink:href="#DejaVuSans-6e" x="96.386719"/>
      <use xlink:href="#DejaVuSans-20" x="159.765625"/>
      <use xlink:href="#DejaVuSans-6e" x="191.552734"/>
      <use xlink:href="#DejaVuSans-75" x="254.931641"/>
      <use xlink:href="#DejaVuSans-6d" x="318.310547"/>
      <use xlink:href="#DejaVuSans-62" x="415.722656"/>
      <use xlink:href="#DejaVuSans-65" x="479.199219"/>
      <use xlink:href="#DejaVuSans-72" x="540.722656"/>
      <use xlink:href="#DejaVuSans-2c" x="581.835938"/>
      <use xlink:href="#DejaVuSans-20" x="613.623047"/>
      <use xlink:href="#DejaVuSans-6d" x="645.410156"/>
      <use xlink:href="#DejaVuSans-61" x="742.822266"/>
      <use xlink:href="#DejaVuSans-78" x="804.101562"/>
      <use xlink:href="#DejaVuSans-69" x="863.28125"/>
      <use xlink:href="#DejaVuSans-6d" x="891.064453"/>
      <use xlink:href="#DejaVuSans-75" x="988.476562"/>
      <use xlink:href="#DejaVuSans-6d" x="1051.855469"/>
      <use xlink:href="#DejaVuSans-20" x="1149.267578"/>
      <use xlink:href="#DejaVuSans-70" x="1181.054688"/>
      <use xlink:href="#DejaVuSans-72" x="1244.53125"/>
      <use xlink:href="#DejaVuSans-6f" x="1283.394531"/>
      <use xlink:href="#DejaVuSans-67" x="1344.576172"/>
      <use xlink:href="#DejaVuSans-72" x="1408.052734"/>
      <use xlink:href="#DejaVuSans-61" x="1449.166016"/>
      <use xlink:href="#DejaVuSans-6d" x="1510.445312"/>
      <use xlink:href="#DejaVuSans-20" x="1607.857422"/>
      <use xlink:href="#DejaVuSans-73" x="1639.644531"/>
      <use xlink:href="#DejaVuSans-69" x="1691.744141"/>
      <use xlink:href="#DejaVuSans-7a" x="1719.527344"/>
      <use xlink:href="#DejaVuSans-65" x="1772.017578"/>
     </g>
    </g>
   </g>
   <g id="matplotlib.axis_2">
    <g id="ytick_1">
     <g id="line2d_7">
      <defs>
       <path id="m4bc6dd3352" d="M 0 0 
L -3.5 0 
" style="stroke: #000000; stroke-width: 0.8"/>
      </defs>
      <g>
       <use xlink:href="#m4bc6dd3352" x="57.6" y="278.627454" style="stroke: #000000; stroke-width: 0.8"/>
      </g>
     </g>
     <g id="text_8">
      <!-- $\mathdefault{10^{7}}$ -->
      <g transform="translate(31.24 282.806595)scale(0.11 -0.11)">
       <use xlink:href="#DejaVuSans-31" transform="translate(0 0.684375)"/>
       <use xlink:href="#DejaVuSans-30" transform="translate(63.623047 0.684375)"/>
       <use xlink:href="#DejaVuSans-37" transform="translate(128.203125 38.965625)scale(0.7)"/>
      </g>
     </g>
    </g>
    <g id="ytick_2">
     <g id="line2d_8">
      <g>
       <use xlink:href="#m4bc6dd3352" x="57.6" y="223.812484" style="stroke: #000000; stroke-width: 0.8"/>
      </g>
     </g>
     <g id="text_9">
      <!-- $\mathdefault{10^{8}}$ -->
      <g transform="translate(31.24 227.991625)scale(0.11 -0.11)">
       <use xlink:href="#DejaVuSans-31" transform="translate(0 0.765625)"/>
       <use xlink:href="#DejaVuSans-30" transform="translate(63.623047 0.765625)"/>
       <use xlink:href="#DejaVuSans-38" transform="translate(128.203125 39.046875)scale(0.7)"/>
      </g>
     </g>
    </g>
    <g id="ytick_3">
     <g id="line2d_9">
      <g>
       <use xlink:href="#m4bc6dd3352" x="57.6" y="168.997514" style="stroke: #000000; stroke-width: 0.8"/>
      </g>
     </g>
     <g id="text_10">
      <!-- $\mathdefault{10^{9}}$ -->
      <g transform="translate(31.24 173.176655)scale(0.11 -0.11)">
       <use xlink:href="#DejaVuSans-31" transform="translate(0 0.765625)"/>
       <use xlink:href="#DejaVuSans-30" transform="translate(63.623047 0.765625)"/>
       <use xlink:href="#DejaVuSans-39" transform="translate(128.203125 39.046875)scale(0.7)"/>
      </g>
     </g>
    </g>
    <g id="ytick_4">
     <g id="line2d_10">
      <g>
       <use xlink:href="#m4bc6dd3352" x="57.6" y="114.182544" style="stroke: #000000; stroke-width: 0.8"/>
      </g>
     </g>
     <g id="text_11">
      <!-- $\mathdefault{10^{10}}$ -->
      <g transform="translate(26.29 118.361685)scale(0.11 -0.11)">
       <use xlink:href="#DejaVuSans-31" transform="translate(0 0.765625)"/>
       <use xlink:href="#DejaVuSans-30" transform="translate(63.623047 0.765625)"/>
       <use xlink:href="#DejaVuSans-31" transform="translate(128.203125 39.046875)scale(0.7)"/>
       <use xlink:href="#DejaVuSans-30" transform="translate(172.739258 39.046875)scale(0.7)"/>
      </g>
     </g>
    </g>
    <g id="ytick_5">
     <g id="line2d_11">
      <g>
       <use xlink:href="#m4bc6dd3352" x="57.6" y="59.367574" style="stroke: #000000; stroke-width: 0.8"/>
      </g>
     </g>
     <g id="text_12">
      <!-- $\mathdefault{10^{11}}$ -->
      <g transform="translate(26.29 63.546715)scale(0.11 -0.11)">
       <use xlink:href="#DejaVuSans-31" transform="translate(0 0.684375)"/>
       <use xlink:href="#DejaVuSans-30" transform="translate(63.623047 0.684375)"/>
       <use xlink:href="#DejaVuSans-31" transform="translate(128.203125 38.965625)scale(0.7)"/>
       <use xlink:href="#DejaVuSans-31" transform="translate(172.739258 38.965625)scale(0.7)"/>
      </g>
     </g>
    </g>
    <g id="ytick_6">
     <g id="line2d_12">
      <defs>
       <path id="m20072aa3e2" d="M 0 0 
L -2 0 
" style="stroke: #000000; stroke-width: 0.6"/>
      </defs>
      <g>
       <use xlink:href="#m20072aa3e2" x="57.6" y="290.788087" style="stroke: #000000; stroke-width: 0.6"/>
      </g>
     </g>
    </g>
    <g id="ytick_7">
     <g id="line2d_13">
      <g>
       <use xlink:href="#m20072aa3e2" x="57.6" y="287.1184" style="stroke: #000000; stroke-width: 0.6"/>
      </g>
     </g>
    </g>
    <g id="ytick_8">
     <g id="line2d_14">
      <g>
       <use xlink:href="#m20072aa3e2" x="57.6" y="283.939573" style="stroke: #000000; stroke-width: 0.6"/>
      </g>
     </g>
    </g>
    <g id="ytick_9">
     <g id="line2d_15">
      <g>
       <use xlink:href="#m20072aa3e2" x="57.6" y="281.135649" style="stroke: #000000; stroke-width: 0.6"/>
      </g>
     </g>
    </g>
    <g id="ytick_10">
     <g id="line2d_16">
      <g>
       <use xlink:href="#m20072aa3e2" x="57.6" y="262.126504" style="stroke: #000000; stroke-width: 0.6"/>
      </g>
     </g>
    </g>
    <g id="ytick_11">
     <g id="line2d_17">
      <g>
       <use xlink:href="#m20072aa3e2" x="57.6" y="252.474067" style="stroke: #000000; stroke-width: 0.6"/>
      </g>
     </g>
    </g>
    <g id="ytick_12">
     <g id="line2d_18">
      <g>
       <use xlink:href="#m20072aa3e2" x="57.6" y="245.625554" style="stroke: #000000; stroke-width: 0.6"/>
      </g>
     </g>
    </g>
    <g id="ytick_13">
     <g id="line2d_19">
      <g>
       <use xlink:href="#m20072aa3e2" x="57.6" y="240.313434" style="stroke: #000000; stroke-width: 0.6"/>
      </g>
     </g>
    </g>
    <g id="ytick_14">
     <g id="line2d_20">
      <g>
       <use xlink:href="#m20072aa3e2" x="57.6" y="235.973117" style="stroke: #000000; stroke-width: 0.6"/>
      </g>
     </g>
    </g>
    <g id="ytick_15">
     <g id="line2d_21">
      <g>
       <use xlink:href="#m20072aa3e2" x="57.6" y="232.30343" style="stroke: #000000; stroke-width: 0.6"/>
      </g>
     </g>
    </g>
    <g id="ytick_16">
     <g id="line2d_22">
      <g>
       <use xlink:href="#m20072aa3e2" x="57.6" y="229.124604" style="stroke: #000000; stroke-width: 0.6"/>
      </g>
     </g>
    </g>
    <g id="ytick_17">
     <g id="line2d_23">
      <g>
       <use xlink:href="#m20072aa3e2" x="57.6" y="226.32068" style="stroke: #000000; stroke-width: 0.6"/>
      </g>
     </g>
    </g>
    <g id="ytick_18">
     <g id="line2d_24">
      <g>
       <use xlink:href="#m20072aa3e2" x="57.6" y="207.311534" style="stroke: #000000; stroke-width: 0.6"/>
      </g>
     </g>
    </g>
    <g id="ytick_19">
     <g id="line2d_25">
      <g>
       <use xlink:href="#m20072aa3e2" x="57.6" y="197.659097" style="stroke: #000000; stroke-width: 0.6"/>
      </g>
     </g>
    </g>
    <g id="ytick_20">
     <g id="line2d_26">
      <g>
       <use xlink:href="#m20072aa3e2" x="57.6" y="190.810584" style="stroke: #000000; stroke-width: 0.6"/>
      </g>
     </g>
    </g>
    <g id="ytick_21">
     <g id="line2d_27">
      <g>
       <use xlink:href="#m20072aa3e2" x="57.6" y="185.498464" style="stroke: #000000; stroke-width: 0.6"/>
      </g>
     </g>
    </g>
    <g id="ytick_22">
     <g id="line2d_28">
      <g>
       <use xlink:href="#m20072aa3e2" x="57.6" y="181.158147" style="stroke: #000000; stroke-width: 0.6"/>
      </g>
     </g>
    </g>
    <g id="ytick_23">
     <g id="line2d_29">
      <g>
       <use xlink:href="#m20072aa3e2" x="57.6" y="177.48846" style="stroke: #000000; stroke-width: 0.6"/>
      </g>
     </g>
    </g>
    <g id="ytick_24">
     <g id="line2d_30">
      <g>
       <use xlink:href="#m20072aa3e2" x="57.6" y="174.309634" style="stroke: #000000; stroke-width: 0.6"/>
      </g>
     </g>
    </g>
    <g id="ytick_25">
     <g id="line2d_31">
      <g>
       <use xlink:href="#m20072aa3e2" x="57.6" y="171.50571" style="stroke: #000000; stroke-width: 0.6"/>
      </g>
     </g>
    </g>
    <g id="ytick_26">
     <g id="line2d_32">
      <g>
       <use xlink:href="#m20072aa3e2" x="57.6" y="152.496564" style="stroke: #000000; stroke-width: 0.6"/>
      </g>
     </g>
    </g>
    <g id="ytick_27">
     <g id="line2d_33">
      <g>
       <use xlink:href="#m20072aa3e2" x="57.6" y="142.844127" style="stroke: #000000; stroke-width: 0.6"/>
      </g>
     </g>
    </g>
    <g id="ytick_28">
     <g id="line2d_34">
      <g>
       <use xlink:href="#m20072aa3e2" x="57.6" y="135.995614" style="stroke: #000000; stroke-width: 0.6"/>
      </g>
     </g>
    </g>
    <g id="ytick_29">
     <g id="line2d_35">
      <g>
       <use xlink:href="#m20072aa3e2" x="57.6" y="130.683494" style="stroke: #000000; stroke-width: 0.6"/>
      </g>
     </g>
    </g>
    <g id="ytick_30">
     <g id="line2d_36">
      <g>
       <use xlink:href="#m20072aa3e2" x="57.6" y="126.343177" style="stroke: #000000; stroke-width: 0.6"/>
      </g>
     </g>
    </g>
    <g id="ytick_31">
     <g id="line2d_37">
      <g>
       <use xlink:href="#m20072aa3e2" x="57.6" y="122.673491" style="stroke: #000000; stroke-width: 0.6"/>
      </g>
     </g>
    </g>
    <g id="ytick_32">
     <g id="line2d_38">
      <g>
       <use xlink:href="#m20072aa3e2" x="57.6" y="119.494664" style="stroke: #000000; stroke-width: 0.6"/>
      </g>
     </g>
    </g>
    <g id="ytick_33">
     <g id="line2d_39">
      <g>
       <use xlink:href="#m20072aa3e2" x="57.6" y="116.69074" style="stroke: #000000; stroke-width: 0.6"/>
      </g>
     </g>
    </g>
    <g id="ytick_34">
     <g id="line2d_40">
      <g>
       <use xlink:href="#m20072aa3e2" x="57.6" y="97.681594" style="stroke: #000000; stroke-width: 0.6"/>
      </g>
     </g>
    </g>
    <g id="ytick_35">
     <g id="line2d_41">
      <g>
       <use xlink:href="#m20072aa3e2" x="57.6" y="88.029157" style="stroke: #000000; stroke-width: 0.6"/>
      </g>
     </g>
    </g>
    <g id="ytick_36">
     <g id="line2d_42">
      <g>
       <use xlink:href="#m20072aa3e2" x="57.6" y="81.180644" style="stroke: #000000; stroke-width: 0.6"/>
      </g>
     </g>
    </g>
    <g id="ytick_37">
     <g id="line2d_43">
      <g>
       <use xlink:href="#m20072aa3e2" x="57.6" y="75.868524" style="stroke: #000000; stroke-width: 0.6"/>
      </g>
     </g>
    </g>
    <g id="ytick_38">
     <g id="line2d_44">
      <g>
       <use xlink:href="#m20072aa3e2" x="57.6" y="71.528207" style="stroke: #000000; stroke-width: 0.6"/>
      </g>
     </g>
    </g>
    <g id="ytick_39">
     <g id="line2d_45">
      <g>
       <use xlink:href="#m20072aa3e2" x="57.6" y="67.858521" style="stroke: #000000; stroke-width: 0.6"/>
      </g>
     </g>
    </g>
    <g id="ytick_40">
     <g id="line2d_46">
      <g>
       <use xlink:href="#m20072aa3e2" x="57.6" y="64.679694" style="stroke: #000000; stroke-width: 0.6"/>
      </g>
     </g>
    </g>
    <g id="ytick_41">
     <g id="line2d_47">
      <g>
       <use xlink:href="#m20072aa3e2" x="57.6" y="61.87577" style="stroke: #000000; stroke-width: 0.6"/>
      </g>
     </g>
    </g>
    <g id="ytick_42">
     <g id="line2d_48">
      <g>
       <use xlink:href="#m20072aa3e2" x="57.6" y="42.866624" style="stroke: #000000; stroke-width: 0.6"/>
      </g>
     </g>
    </g>
    <g id="text_13">
     <!-- Median NEPS -->
     <g transform="translate(19.378437 213.626781)rotate(-90)scale(0.14 -0.14)">
      <defs>
       <path id="DejaVuSans-4d" d="M 628 4666 
L 1569 4666 
L 2759 1491 
L 3956 4666 
L 4897 4666 
L 4897 0 
L 4281 0 
L 4281 4097 
L 3078 897 
L 2444 897 
L 1241 4097 
L 1241 0 
L 628 0 
L 628 4666 
z
" transform="scale(0.015625)"/>
       <path id="DejaVuSans-64" d="M 2906 2969 
L 2906 4863 
L 3481 4863 
L 3481 0 
L 2906 0 
L 2906 525 
Q 2725 213 2448 61 
Q 2172 -91 1784 -91 
Q 1150 -91 751 415 
Q 353 922 353 1747 
Q 353 2572 751 3078 
Q 1150 3584 1784 3584 
Q 2172 3584 2448 3432 
Q 2725 3281 2906 2969 
z
M 947 1747 
Q 947 1113 1208 752 
Q 1469 391 1925 391 
Q 2381 391 2643 752 
Q 2906 1113 2906 1747 
Q 2906 2381 2643 2742 
Q 2381 3103 1925 3103 
Q 1469 3103 1208 2742 
Q 947 2381 947 1747 
z
" transform="scale(0.015625)"/>
       <path id="DejaVuSans-4e" d="M 628 4666 
L 1478 4666 
L 3547 763 
L 3547 4666 
L 4159 4666 
L 4159 0 
L 3309 0 
L 1241 3903 
L 1241 0 
L 628 0 
L 628 4666 
z
" transform="scale(0.015625)"/>
       <path id="DejaVuSans-45" d="M 628 4666 
L 3578 4666 
L 3578 4134 
L 1259 4134 
L 1259 2753 
L 3481 2753 
L 3481 2222 
L 1259 2222 
L 1259 531 
L 3634 531 
L 3634 0 
L 628 0 
L 628 4666 
z
" transform="scale(0.015625)"/>
       <path id="DejaVuSans-50" d="M 1259 4147 
L 1259 2394 
L 2053 2394 
Q 2494 2394 2734 2622 
Q 2975 2850 2975 3272 
Q 2975 3691 2734 3919 
Q 2494 4147 2053 4147 
L 1259 4147 
z
M 628 4666 
L 2053 4666 
Q 2838 4666 3239 4311 
Q 3641 3956 3641 3272 
Q 3641 2581 3239 2228 
Q 2838 1875 2053 1875 
L 1259 1875 
L 1259 0 
L 628 0 
L 628 4666 
z
" transform="scale(0.015625)"/>
       <path id="DejaVuSans-53" d="M 3425 4513 
L 3425 3897 
Q 3066 4069 2747 4153 
Q 2428 4238 2131 4238 
Q 1616 4238 1336 4038 
Q 1056 3838 1056 3469 
Q 1056 3159 1242 3001 
Q 1428 2844 1947 2747 
L 2328 2669 
Q 3034 2534 3370 2195 
Q 3706 1856 3706 1288 
Q 3706 609 3251 259 
Q 2797 -91 1919 -91 
Q 1588 -91 1214 -16 
Q 841 59 441 206 
L 441 856 
Q 825 641 1194 531 
Q 1563 422 1919 422 
Q 2459 422 2753 634 
Q 3047 847 3047 1241 
Q 3047 1584 2836 1778 
Q 2625 1972 2144 2069 
L 1759 2144 
Q 1053 2284 737 2584 
Q 422 2884 422 3419 
Q 422 4038 858 4394 
Q 1294 4750 2059 4750 
Q 2388 4750 2728 4690 
Q 3069 4631 3425 4513 
z
" transform="scale(0.015625)"/>
      </defs>
      <use xlink:href="#DejaVuSans-4d"/>
      <use xlink:href="#DejaVuSans-65" x="86.279297"/>
      <use xlink:href="#DejaVuSans-64" x="147.802734"/>
      <use xlink:href="#DejaVuSans-69" x="211.279297"/>
      <use xlink:href="#DejaVuSans-61" x="239.0625"/>
      <use xlink:href="#DejaVuSans-6e" x="300.341797"/>
      <use xlink:href="#DejaVuSans-20" x="363.720703"/>
      <use xlink:href="#DejaVuSans-4e" x="395.507812"/>
      <use xlink:href="#DejaVuSans-45" x="470.3125"/>
      <use xlink:href="#DejaVuSans-50" x="533.496094"/>
      <use xlink:href="#DejaVuSans-53" x="593.798828"/>
     </g>
    </g>
   </g>
   <g id="line2d_49">
    <path d="M 73.832727 278.201687 
L 84.347854 278.251832 
L 94.862981 278.918564 
L 105.378108 279.291675 
L 115.893235 279.344066 
L 126.408362 280.264518 
L 136.923489 280.182053 
L 147.438616 280.426468 
L 157.953743 280.807259 
L 168.46887 280.696456 
L 178.983997 280.748787 
L 189.499124 280.844289 
L 200.014251 281.344402 
L 210.529378 281.488017 
L 221.044505 281.517929 
L 231.559632 281.494117 
L 242.074759 281.213581 
L 252.589886 281.210578 
L 263.105013 281.550454 
L 273.62014 281.751553 
L 284.135267 281.535109 
L 294.650394 281.923145 
L 305.165521 281.857266 
L 315.680648 281.950204 
L 326.195775 281.802812 
L 336.710902 281.847063 
L 347.226029 282.013585 
L 357.741156 282.048475 
L 368.256283 282.003281 
L 378.77141 282.087423 
L 389.286537 282.292364 
L 398.487273 282.126725 
" clip-path="url(#p5a3ae87654)" style="fill: none; stroke: #000000; stroke-width: 0.1; stroke-linecap: square"/>
    <defs>
     <path id="m134dd6f0f7" d="M -2.5 5 
L 0 2.5 
L 2.5 5 
L 5 2.5 
L 2.5 0 
L 5 -2.5 
L 2.5 -5 
L 0 -2.5 
L -2.5 -5 
L -5 -2.5 
L -2.5 0 
L -5 2.5 
z
" style="stroke: #000000; stroke-linejoin: miter"/>
    </defs>
    <g clip-path="url(#p5a3ae87654)">
     <use xlink:href="#m134dd6f0f7" x="73.832727" y="278.201687" style="fill: #17becf; stroke: #000000; stroke-linejoin: miter"/>
     <use xlink:href="#m134dd6f0f7" x="84.347854" y="278.251832" style="fill: #17becf; stroke: #000000; stroke-linejoin: miter"/>
     <use xlink:href="#m134dd6f0f7" x="94.862981" y="278.918564" style="fill: #17becf; stroke: #000000; stroke-linejoin: miter"/>
     <use xlink:href="#m134dd6f0f7" x="105.378108" y="279.291675" style="fill: #17becf; stroke: #000000; stroke-linejoin: miter"/>
     <use xlink:href="#m134dd6f0f7" x="115.893235" y="279.344066" style="fill: #17becf; stroke: #000000; stroke-linejoin: miter"/>
     <use xlink:href="#m134dd6f0f7" x="126.408362" y="280.264518" style="fill: #17becf; stroke: #000000; stroke-linejoin: miter"/>
     <use xlink:href="#m134dd6f0f7" x="136.923489" y="280.182053" style="fill: #17becf; stroke: #000000; stroke-linejoin: miter"/>
     <use xlink:href="#m134dd6f0f7" x="147.438616" y="280.426468" style="fill: #17becf; stroke: #000000; stroke-linejoin: miter"/>
     <use xlink:href="#m134dd6f0f7" x="157.953743" y="280.807259" style="fill: #17becf; stroke: #000000; stroke-linejoin: miter"/>
     <use xlink:href="#m134dd6f0f7" x="168.46887" y="280.696456" style="fill: #17becf; stroke: #000000; stroke-linejoin: miter"/>
     <use xlink:href="#m134dd6f0f7" x="178.983997" y="280.748787" style="fill: #17becf; stroke: #000000; stroke-linejoin: miter"/>
     <use xlink:href="#m134dd6f0f7" x="189.499124" y="280.844289" style="fill: #17becf; stroke: #000000; stroke-linejoin: miter"/>
     <use xlink:href="#m134dd6f0f7" x="200.014251" y="281.344402" style="fill: #17becf; stroke: #000000; stroke-linejoin: miter"/>
     <use xlink:href="#m134dd6f0f7" x="210.529378" y="281.488017" style="fill: #17becf; stroke: #000000; stroke-linejoin: miter"/>
     <use xlink:href="#m134dd6f0f7" x="221.044505" y="281.517929" style="fill: #17becf; stroke: #000000; stroke-linejoin: miter"/>
     <use xlink:href="#m134dd6f0f7" x="231.559632" y="281.494117" style="fill: #17becf; stroke: #000000; stroke-linejoin: miter"/>
     <use xlink:href="#m134dd6f0f7" x="242.074759" y="281.213581" style="fill: #17becf; stroke: #000000; stroke-linejoin: miter"/>
     <use xlink:href="#m134dd6f0f7" x="252.589886" y="281.210578" style="fill: #17becf; stroke: #000000; stroke-linejoin: miter"/>
     <use xlink:href="#m134dd6f0f7" x="263.105013" y="281.550454" style="fill: #17becf; stroke: #000000; stroke-linejoin: miter"/>
     <use xlink:href="#m134dd6f0f7" x="273.62014" y="281.751553" style="fill: #17becf; stroke: #000000; stroke-linejoin: miter"/>
     <use xlink:href="#m134dd6f0f7" x="284.135267" y="281.535109" style="fill: #17becf; stroke: #000000; stroke-linejoin: miter"/>
     <use xlink:href="#m134dd6f0f7" x="294.650394" y="281.923145" style="fill: #17becf; stroke: #000000; stroke-linejoin: miter"/>
     <use xlink:href="#m134dd6f0f7" x="305.165521" y="281.857266" style="fill: #17becf; stroke: #000000; stroke-linejoin: miter"/>
     <use xlink:href="#m134dd6f0f7" x="315.680648" y="281.950204" style="fill: #17becf; stroke: #000000; stroke-linejoin: miter"/>
     <use xlink:href="#m134dd6f0f7" x="326.195775" y="281.802812" style="fill: #17becf; stroke: #000000; stroke-linejoin: miter"/>
     <use xlink:href="#m134dd6f0f7" x="336.710902" y="281.847063" style="fill: #17becf; stroke: #000000; stroke-linejoin: miter"/>
     <use xlink:href="#m134dd6f0f7" x="347.226029" y="282.013585" style="fill: #17becf; stroke: #000000; stroke-linejoin: miter"/>
     <use xlink:href="#m134dd6f0f7" x="357.741156" y="282.048475" style="fill: #17becf; stroke: #000000; stroke-linejoin: miter"/>
     <use xlink:href="#m134dd6f0f7" x="368.256283" y="282.003281" style="fill: #17becf; stroke: #000000; stroke-linejoin: miter"/>
     <use xlink:href="#m134dd6f0f7" x="378.77141" y="282.087423" style="fill: #17becf; stroke: #000000; stroke-linejoin: miter"/>
     <use xlink:href="#m134dd6f0f7" x="389.286537" y="282.292364" style="fill: #17becf; stroke: #000000; stroke-linejoin: miter"/>
     <use xlink:href="#m134dd6f0f7" x="398.487273" y="282.126725" style="fill: #17becf; stroke: #000000; stroke-linejoin: miter"/>
    </g>
   </g>
   <g id="line2d_50">
    <path d="M 57.6 168.997514 
L 414.72 168.997514 
" clip-path="url(#p5a3ae87654)" style="fill: none; stroke-dasharray: 5.55,2.4; stroke-dashoffset: 0; stroke: #808080; stroke-width: 1.5"/>
   </g>
   <g id="line2d_51">
    <path d="M 73.832727 231.030988 
L 84.347854 216.540532 
L 94.862981 210.631152 
L 105.378108 207.693964 
L 115.893235 205.329955 
L 126.408362 203.587394 
L 136.923489 201.708624 
L 147.438616 199.924835 
L 157.953743 199.10059 
L 168.46887 198.084842 
L 178.983997 196.857608 
L 189.499124 195.824569 
L 200.014251 195.56707 
L 210.529378 194.558444 
L 221.044505 193.768531 
L 231.559632 192.745819 
L 242.074759 194.2765 
L 252.589886 193.265552 
L 263.105013 192.651174 
L 273.62014 191.934739 
L 284.135267 191.688788 
L 294.650394 190.888081 
L 305.165521 190.111824 
L 315.680648 189.805887 
L 326.195775 190.070208 
L 336.710902 189.994448 
L 347.226029 189.229707 
L 357.741156 188.969229 
L 368.256283 189.472807 
L 378.77141 188.370417 
L 389.286537 188.100784 
L 398.487273 187.881633 
" clip-path="url(#p5a3ae87654)" style="fill: none; stroke: #000000; stroke-width: 0.1; stroke-linecap: square"/>
    <defs>
     <path id="m1fe092caaa" d="M -0 5.5 
L 5.5 -5.5 
L -5.5 -5.5 
z
" style="stroke: #000000; stroke-linejoin: miter"/>
    </defs>
    <g clip-path="url(#p5a3ae87654)">
     <use xlink:href="#m1fe092caaa" x="73.832727" y="231.030988" style="fill: #8a2be2; stroke: #000000; stroke-linejoin: miter"/>
     <use xlink:href="#m1fe092caaa" x="84.347854" y="216.540532" style="fill: #8a2be2; stroke: #000000; stroke-linejoin: miter"/>
     <use xlink:href="#m1fe092caaa" x="94.862981" y="210.631152" style="fill: #8a2be2; stroke: #000000; stroke-linejoin: miter"/>
     <use xlink:href="#m1fe092caaa" x="105.378108" y="207.693964" style="fill: #8a2be2; stroke: #000000; stroke-linejoin: miter"/>
     <use xlink:href="#m1fe092caaa" x="115.893235" y="205.329955" style="fill: #8a2be2; stroke: #000000; stroke-linejoin: miter"/>
     <use xlink:href="#m1fe092caaa" x="126.408362" y="203.587394" style="fill: #8a2be2; stroke: #000000; stroke-linejoin: miter"/>
     <use xlink:href="#m1fe092caaa" x="136.923489" y="201.708624" style="fill: #8a2be2; stroke: #000000; stroke-linejoin: miter"/>
     <use xlink:href="#m1fe092caaa" x="147.438616" y="199.924835" style="fill: #8a2be2; stroke: #000000; stroke-linejoin: miter"/>
     <use xlink:href="#m1fe092caaa" x="157.953743" y="199.10059" style="fill: #8a2be2; stroke: #000000; stroke-linejoin: miter"/>
     <use xlink:href="#m1fe092caaa" x="168.46887" y="198.084842" style="fill: #8a2be2; stroke: #000000; stroke-linejoin: miter"/>
     <use xlink:href="#m1fe092caaa" x="178.983997" y="196.857608" style="fill: #8a2be2; stroke: #000000; stroke-linejoin: miter"/>
     <use xlink:href="#m1fe092caaa" x="189.499124" y="195.824569" style="fill: #8a2be2; stroke: #000000; stroke-linejoin: miter"/>
     <use xlink:href="#m1fe092caaa" x="200.014251" y="195.56707" style="fill: #8a2be2; stroke: #000000; stroke-linejoin: miter"/>
     <use xlink:href="#m1fe092caaa" x="210.529378" y="194.558444" style="fill: #8a2be2; stroke: #000000; stroke-linejoin: miter"/>
     <use xlink:href="#m1fe092caaa" x="221.044505" y="193.768531" style="fill: #8a2be2; stroke: #000000; stroke-linejoin: miter"/>
     <use xlink:href="#m1fe092caaa" x="231.559632" y="192.745819" style="fill: #8a2be2; stroke: #000000; stroke-linejoin: miter"/>
     <use xlink:href="#m1fe092caaa" x="242.074759" y="194.2765" style="fill: #8a2be2; stroke: #000000; stroke-linejoin: miter"/>
     <use xlink:href="#m1fe092caaa" x="252.589886" y="193.265552" style="fill: #8a2be2; stroke: #000000; stroke-linejoin: miter"/>
     <use xlink:href="#m1fe092caaa" x="263.105013" y="192.651174" style="fill: #8a2be2; stroke: #000000; stroke-linejoin: miter"/>
     <use xlink:href="#m1fe092caaa" x="273.62014" y="191.934739" style="fill: #8a2be2; stroke: #000000; stroke-linejoin: miter"/>
     <use xlink:href="#m1fe092caaa" x="284.135267" y="191.688788" style="fill: #8a2be2; stroke: #000000; stroke-linejoin: miter"/>
     <use xlink:href="#m1fe092caaa" x="294.650394" y="190.888081" style="fill: #8a2be2; stroke: #000000; stroke-linejoin: miter"/>
     <use xlink:href="#m1fe092caaa" x="305.165521" y="190.111824" style="fill: #8a2be2; stroke: #000000; stroke-linejoin: miter"/>
     <use xlink:href="#m1fe092caaa" x="315.680648" y="189.805887" style="fill: #8a2be2; stroke: #000000; stroke-linejoin: miter"/>
     <use xlink:href="#m1fe092caaa" x="326.195775" y="190.070208" style="fill: #8a2be2; stroke: #000000; stroke-linejoin: miter"/>
     <use xlink:href="#m1fe092caaa" x="336.710902" y="189.994448" style="fill: #8a2be2; stroke: #000000; stroke-linejoin: miter"/>
     <use xlink:href="#m1fe092caaa" x="347.226029" y="189.229707" style="fill: #8a2be2; stroke: #000000; stroke-linejoin: miter"/>
     <use xlink:href="#m1fe092caaa" x="357.741156" y="188.969229" style="fill: #8a2be2; stroke: #000000; stroke-linejoin: miter"/>
     <use xlink:href="#m1fe092caaa" x="368.256283" y="189.472807" style="fill: #8a2be2; stroke: #000000; stroke-linejoin: miter"/>
     <use xlink:href="#m1fe092caaa" x="378.77141" y="188.370417" style="fill: #8a2be2; stroke: #000000; stroke-linejoin: miter"/>
     <use xlink:href="#m1fe092caaa" x="389.286537" y="188.100784" style="fill: #8a2be2; stroke: #000000; stroke-linejoin: miter"/>
     <use xlink:href="#m1fe092caaa" x="398.487273" y="187.881633" style="fill: #8a2be2; stroke: #000000; stroke-linejoin: miter"/>
    </g>
   </g>
   <g id="line2d_52">
    <path d="M 57.6 168.997514 
L 414.72 168.997514 
" clip-path="url(#p5a3ae87654)" style="fill: none; stroke-dasharray: 5.55,2.4; stroke-dashoffset: 0; stroke: #808080; stroke-width: 1.5"/>
   </g>
   <g id="line2d_53">
    <path d="M 73.832727 230.872403 
L 84.347854 213.381084 
L 94.862981 206.076217 
L 105.378108 202.423584 
L 115.893235 198.980578 
L 126.408362 197.129682 
L 136.923489 196.343326 
L 147.438616 193.437197 
L 157.953743 192.741816 
L 168.46887 191.825225 
L 178.983997 192.186949 
L 189.499124 191.141114 
L 200.014251 191.092984 
L 210.529378 190.196242 
L 221.044505 189.416271 
L 231.559632 187.475804 
L 242.074759 188.100461 
L 252.589886 187.654293 
L 263.105013 187.126362 
L 273.62014 186.44588 
L 284.135267 185.982094 
L 294.650394 188.139962 
L 305.165521 188.492736 
L 315.680648 188.113576 
L 326.195775 187.893723 
L 336.710902 186.511057 
L 347.226029 185.458406 
L 357.741156 186.349243 
L 368.256283 186.323028 
L 378.77141 184.196108 
L 389.286537 185.378036 
L 398.487273 185.718739 
" clip-path="url(#p5a3ae87654)" style="fill: none; stroke: #000000; stroke-width: 0.1; stroke-linecap: square"/>
    <defs>
     <path id="m07fa70ae26" d="M 0 3.75 
C 0.994512 3.75 1.948425 3.354876 2.65165 2.65165 
C 3.354876 1.948425 3.75 0.994512 3.75 0 
C 3.75 -0.994512 3.354876 -1.948425 2.65165 -2.65165 
C 1.948425 -3.354876 0.994512 -3.75 0 -3.75 
C -0.994512 -3.75 -1.948425 -3.354876 -2.65165 -2.65165 
C -3.354876 -1.948425 -3.75 -0.994512 -3.75 0 
C -3.75 0.994512 -3.354876 1.948425 -2.65165 2.65165 
C -1.948425 3.354876 -0.994512 3.75 0 3.75 
z
" style="stroke: #000000"/>
    </defs>
    <g clip-path="url(#p5a3ae87654)">
     <use xlink:href="#m07fa70ae26" x="73.832727" y="230.872403" style="fill: #1e90ff; stroke: #000000"/>
     <use xlink:href="#m07fa70ae26" x="84.347854" y="213.381084" style="fill: #1e90ff; stroke: #000000"/>
     <use xlink:href="#m07fa70ae26" x="94.862981" y="206.076217" style="fill: #1e90ff; stroke: #000000"/>
     <use xlink:href="#m07fa70ae26" x="105.378108" y="202.423584" style="fill: #1e90ff; stroke: #000000"/>
     <use xlink:href="#m07fa70ae26" x="115.893235" y="198.980578" style="fill: #1e90ff; stroke: #000000"/>
     <use xlink:href="#m07fa70ae26" x="126.408362" y="197.129682" style="fill: #1e90ff; stroke: #000000"/>
     <use xlink:href="#m07fa70ae26" x="136.923489" y="196.343326" style="fill: #1e90ff; stroke: #000000"/>
     <use xlink:href="#m07fa70ae26" x="147.438616" y="193.437197" style="fill: #1e90ff; stroke: #000000"/>
     <use xlink:href="#m07fa70ae26" x="157.953743" y="192.741816" style="fill: #1e90ff; stroke: #000000"/>
     <use xlink:href="#m07fa70ae26" x="168.46887" y="191.825225" style="fill: #1e90ff; stroke: #000000"/>
     <use xlink:href="#m07fa70ae26" x="178.983997" y="192.186949" style="fill: #1e90ff; stroke: #000000"/>
     <use xlink:href="#m07fa70ae26" x="189.499124" y="191.141114" style="fill: #1e90ff; stroke: #000000"/>
     <use xlink:href="#m07fa70ae26" x="200.014251" y="191.092984" style="fill: #1e90ff; stroke: #000000"/>
     <use xlink:href="#m07fa70ae26" x="210.529378" y="190.196242" style="fill: #1e90ff; stroke: #000000"/>
     <use xlink:href="#m07fa70ae26" x="221.044505" y="189.416271" style="fill: #1e90ff; stroke: #000000"/>
     <use xlink:href="#m07fa70ae26" x="231.559632" y="187.475804" style="fill: #1e90ff; stroke: #000000"/>
     <use xlink:href="#m07fa70ae26" x="242.074759" y="188.100461" style="fill: #1e90ff; stroke: #000000"/>
     <use xlink:href="#m07fa70ae26" x="252.589886" y="187.654293" style="fill: #1e90ff; stroke: #000000"/>
     <use xlink:href="#m07fa70ae26" x="263.105013" y="187.126362" style="fill: #1e90ff; stroke: #000000"/>
     <use xlink:href="#m07fa70ae26" x="273.62014" y="186.44588" style="fill: #1e90ff; stroke: #000000"/>
     <use xlink:href="#m07fa70ae26" x="284.135267" y="185.982094" style="fill: #1e90ff; stroke: #000000"/>
     <use xlink:href="#m07fa70ae26" x="294.650394" y="188.139962" style="fill: #1e90ff; stroke: #000000"/>
     <use xlink:href="#m07fa70ae26" x="305.165521" y="188.492736" style="fill: #1e90ff; stroke: #000000"/>
     <use xlink:href="#m07fa70ae26" x="315.680648" y="188.113576" style="fill: #1e90ff; stroke: #000000"/>
     <use xlink:href="#m07fa70ae26" x="326.195775" y="187.893723" style="fill: #1e90ff; stroke: #000000"/>
     <use xlink:href="#m07fa70ae26" x="336.710902" y="186.511057" style="fill: #1e90ff; stroke: #000000"/>
     <use xlink:href="#m07fa70ae26" x="347.226029" y="185.458406" style="fill: #1e90ff; stroke: #000000"/>
     <use xlink:href="#m07fa70ae26" x="357.741156" y="186.349243" style="fill: #1e90ff; stroke: #000000"/>
     <use xlink:href="#m07fa70ae26" x="368.256283" y="186.323028" style="fill: #1e90ff; stroke: #000000"/>
     <use xlink:href="#m07fa70ae26" x="378.77141" y="184.196108" style="fill: #1e90ff; stroke: #000000"/>
     <use xlink:href="#m07fa70ae26" x="389.286537" y="185.378036" style="fill: #1e90ff; stroke: #000000"/>
     <use xlink:href="#m07fa70ae26" x="398.487273" y="185.718739" style="fill: #1e90ff; stroke: #000000"/>
    </g>
   </g>
   <g id="line2d_54">
    <path d="M 57.6 168.997514 
L 414.72 168.997514 
" clip-path="url(#p5a3ae87654)" style="fill: none; stroke-dasharray: 5.55,2.4; stroke-dashoffset: 0; stroke: #808080; stroke-width: 1.5"/>
   </g>
   <g id="line2d_55">
    <path d="M 73.832727 111.074834 
L 84.347854 97.723261 
L 94.862981 92.950802 
L 105.378108 91.4874 
L 115.893235 90.02979 
L 126.408362 88.113157 
L 136.923489 85.242978 
L 147.438616 80.28059 
L 157.953743 81.622762 
L 168.46887 80.910013 
L 178.983997 76.839008 
L 189.499124 73.544484 
L 200.014251 75.841767 
L 210.529378 73.642253 
L 221.044505 70.771901 
L 231.559632 66.44597 
L 242.074759 72.732345 
L 252.589886 68.166125 
L 263.105013 67.648947 
L 273.62014 66.378713 
L 284.135267 64.308811 
L 294.650394 62.670649 
L 305.165521 61.319805 
L 315.680648 59.129235 
L 326.195775 61.258902 
L 336.710902 59.63807 
L 347.226029 57.12086 
L 357.741156 55.661675 
L 368.256283 55.642161 
L 378.77141 54.349471 
L 389.286537 54.021087 
L 398.487273 53.828095 
" clip-path="url(#p5a3ae87654)" style="fill: none; stroke: #000000; stroke-width: 0.1; stroke-linecap: square"/>
    <defs>
     <path id="m13318a53bc" d="M 0 -4.5 
L -4.5 4.5 
L 4.5 4.5 
z
" style="stroke: #000000; stroke-linejoin: miter"/>
    </defs>
    <g clip-path="url(#p5a3ae87654)">
     <use xlink:href="#m13318a53bc" x="73.832727" y="111.074834" style="fill: #ffd700; stroke: #000000; stroke-linejoin: miter"/>
     <use xlink:href="#m13318a53bc" x="84.347854" y="97.723261" style="fill: #ffd700; stroke: #000000; stroke-linejoin: miter"/>
     <use xlink:href="#m13318a53bc" x="94.862981" y="92.950802" style="fill: #ffd700; stroke: #000000; stroke-linejoin: miter"/>
     <use xlink:href="#m13318a53bc" x="105.378108" y="91.4874" style="fill: #ffd700; stroke: #000000; stroke-linejoin: miter"/>
     <use xlink:href="#m13318a53bc" x="115.893235" y="90.02979" style="fill: #ffd700; stroke: #000000; stroke-linejoin: miter"/>
     <use xlink:href="#m13318a53bc" x="126.408362" y="88.113157" style="fill: #ffd700; stroke: #000000; stroke-linejoin: miter"/>
     <use xlink:href="#m13318a53bc" x="136.923489" y="85.242978" style="fill: #ffd700; stroke: #000000; stroke-linejoin: miter"/>
     <use xlink:href="#m13318a53bc" x="147.438616" y="80.28059" style="fill: #ffd700; stroke: #000000; stroke-linejoin: miter"/>
     <use xlink:href="#m13318a53bc" x="157.953743" y="81.622762" style="fill: #ffd700; stroke: #000000; stroke-linejoin: miter"/>
     <use xlink:href="#m13318a53bc" x="168.46887" y="80.910013" style="fill: #ffd700; stroke: #000000; stroke-linejoin: miter"/>
     <use xlink:href="#m13318a53bc" x="178.983997" y="76.839008" style="fill: #ffd700; stroke: #000000; stroke-linejoin: miter"/>
     <use xlink:href="#m13318a53bc" x="189.499124" y="73.544484" style="fill: #ffd700; stroke: #000000; stroke-linejoin: miter"/>
     <use xlink:href="#m13318a53bc" x="200.014251" y="75.841767" style="fill: #ffd700; stroke: #000000; stroke-linejoin: miter"/>
     <use xlink:href="#m13318a53bc" x="210.529378" y="73.642253" style="fill: #ffd700; stroke: #000000; stroke-linejoin: miter"/>
     <use xlink:href="#m13318a53bc" x="221.044505" y="70.771901" style="fill: #ffd700; stroke: #000000; stroke-linejoin: miter"/>
     <use xlink:href="#m13318a53bc" x="231.559632" y="66.44597" style="fill: #ffd700; stroke: #000000; stroke-linejoin: miter"/>
     <use xlink:href="#m13318a53bc" x="242.074759" y="72.732345" style="fill: #ffd700; stroke: #000000; stroke-linejoin: miter"/>
     <use xlink:href="#m13318a53bc" x="252.589886" y="68.166125" style="fill: #ffd700; stroke: #000000; stroke-linejoin: miter"/>
     <use xlink:href="#m13318a53bc" x="263.105013" y="67.648947" style="fill: #ffd700; stroke: #000000; stroke-linejoin: miter"/>
     <use xlink:href="#m13318a53bc" x="273.62014" y="66.378713" style="fill: #ffd700; stroke: #000000; stroke-linejoin: miter"/>
     <use xlink:href="#m13318a53bc" x="284.135267" y="64.308811" style="fill: #ffd700; stroke: #000000; stroke-linejoin: miter"/>
     <use xlink:href="#m13318a53bc" x="294.650394" y="62.670649" style="fill: #ffd700; stroke: #000000; stroke-linejoin: miter"/>
     <use xlink:href="#m13318a53bc" x="305.165521" y="61.319805" style="fill: #ffd700; stroke: #000000; stroke-linejoin: miter"/>
     <use xlink:href="#m13318a53bc" x="315.680648" y="59.129235" style="fill: #ffd700; stroke: #000000; stroke-linejoin: miter"/>
     <use xlink:href="#m13318a53bc" x="326.195775" y="61.258902" style="fill: #ffd700; stroke: #000000; stroke-linejoin: miter"/>
     <use xlink:href="#m13318a53bc" x="336.710902" y="59.63807" style="fill: #ffd700; stroke: #000000; stroke-linejoin: miter"/>
     <use xlink:href="#m13318a53bc" x="347.226029" y="57.12086" style="fill: #ffd700; stroke: #000000; stroke-linejoin: miter"/>
     <use xlink:href="#m13318a53bc" x="357.741156" y="55.661675" style="fill: #ffd700; stroke: #000000; stroke-linejoin: miter"/>
     <use xlink:href="#m13318a53bc" x="368.256283" y="55.642161" style="fill: #ffd700; stroke: #000000; stroke-linejoin: miter"/>
     <use xlink:href="#m13318a53bc" x="378.77141" y="54.349471" style="fill: #ffd700; stroke: #000000; stroke-linejoin: miter"/>
     <use xlink:href="#m13318a53bc" x="389.286537" y="54.021087" style="fill: #ffd700; stroke: #000000; stroke-linejoin: miter"/>
     <use xlink:href="#m13318a53bc" x="398.487273" y="53.828095" style="fill: #ffd700; stroke: #000000; stroke-linejoin: miter"/>
    </g>
   </g>
   <g id="line2d_56">
    <path d="M 57.6 168.997514 
L 414.72 168.997514 
" clip-path="url(#p5a3ae87654)" style="fill: none; stroke-dasharray: 5.55,2.4; stroke-dashoffset: 0; stroke: #808080; stroke-width: 1.5"/>
   </g>
   <g id="line2d_57">
    <path d="M 73.832727 178.420644 
L 84.347854 154.603126 
L 94.862981 142.478025 
L 105.378108 134.770725 
L 115.893235 128.803511 
L 126.408362 124.180286 
L 136.923489 120.233416 
L 147.438616 116.837995 
L 157.953743 113.87307 
L 168.46887 111.18051 
L 178.983997 108.862167 
L 189.499124 106.720563 
L 200.014251 104.7499 
L 210.529378 102.917481 
L 221.044505 101.246501 
L 231.559632 99.643538 
L 242.074759 98.174134 
L 252.589886 96.743548 
L 263.105013 95.426859 
L 273.62014 94.180418 
L 284.135267 93.015009 
L 294.650394 91.887163 
L 305.165521 90.792138 
L 315.680648 89.787757 
L 326.195775 88.782973 
L 336.710902 87.816262 
L 347.226029 86.93507 
L 357.741156 86.014729 
L 368.256283 85.190871 
L 378.77141 84.378208 
L 389.286537 83.582583 
L 398.487273 82.860683 
" clip-path="url(#p5a3ae87654)" style="fill: none; stroke: #000000; stroke-width: 0.1; stroke-linecap: square"/>
    <defs>
     <path id="maf82361062" d="M 0 -6 
L -1.347084 -1.854102 
L -5.706339 -1.854102 
L -2.179628 0.708204 
L -3.526712 4.854102 
L -0 2.291796 
L 3.526712 4.854102 
L 2.179628 0.708204 
L 5.706339 -1.854102 
L 1.347084 -1.854102 
z
" style="stroke: #000000; stroke-linejoin: bevel"/>
    </defs>
    <g clip-path="url(#p5a3ae87654)">
     <use xlink:href="#maf82361062" x="73.832727" y="178.420644" style="fill: #d62728; stroke: #000000; stroke-linejoin: bevel"/>
     <use xlink:href="#maf82361062" x="84.347854" y="154.603126" style="fill: #d62728; stroke: #000000; stroke-linejoin: bevel"/>
     <use xlink:href="#maf82361062" x="94.862981" y="142.478025" style="fill: #d62728; stroke: #000000; stroke-linejoin: bevel"/>
     <use xlink:href="#maf82361062" x="105.378108" y="134.770725" style="fill: #d62728; stroke: #000000; stroke-linejoin: bevel"/>
     <use xlink:href="#maf82361062" x="115.893235" y="128.803511" style="fill: #d62728; stroke: #000000; stroke-linejoin: bevel"/>
     <use xlink:href="#maf82361062" x="126.408362" y="124.180286" style="fill: #d62728; stroke: #000000; stroke-linejoin: bevel"/>
     <use xlink:href="#maf82361062" x="136.923489" y="120.233416" style="fill: #d62728; stroke: #000000; stroke-linejoin: bevel"/>
     <use xlink:href="#maf82361062" x="147.438616" y="116.837995" style="fill: #d62728; stroke: #000000; stroke-linejoin: bevel"/>
     <use xlink:href="#maf82361062" x="157.953743" y="113.87307" style="fill: #d62728; stroke: #000000; stroke-linejoin: bevel"/>
     <use xlink:href="#maf82361062" x="168.46887" y="111.18051" style="fill: #d62728; stroke: #000000; stroke-linejoin: bevel"/>
     <use xlink:href="#maf82361062" x="178.983997" y="108.862167" style="fill: #d62728; stroke: #000000; stroke-linejoin: bevel"/>
     <use xlink:href="#maf82361062" x="189.499124" y="106.720563" style="fill: #d62728; stroke: #000000; stroke-linejoin: bevel"/>
     <use xlink:href="#maf82361062" x="200.014251" y="104.7499" style="fill: #d62728; stroke: #000000; stroke-linejoin: bevel"/>
     <use xlink:href="#maf82361062" x="210.529378" y="102.917481" style="fill: #d62728; stroke: #000000; stroke-linejoin: bevel"/>
     <use xlink:href="#maf82361062" x="221.044505" y="101.246501" style="fill: #d62728; stroke: #000000; stroke-linejoin: bevel"/>
     <use xlink:href="#maf82361062" x="231.559632" y="99.643538" style="fill: #d62728; stroke: #000000; stroke-linejoin: bevel"/>
     <use xlink:href="#maf82361062" x="242.074759" y="98.174134" style="fill: #d62728; stroke: #000000; stroke-linejoin: bevel"/>
     <use xlink:href="#maf82361062" x="252.589886" y="96.743548" style="fill: #d62728; stroke: #000000; stroke-linejoin: bevel"/>
     <use xlink:href="#maf82361062" x="263.105013" y="95.426859" style="fill: #d62728; stroke: #000000; stroke-linejoin: bevel"/>
     <use xlink:href="#maf82361062" x="273.62014" y="94.180418" style="fill: #d62728; stroke: #000000; stroke-linejoin: bevel"/>
     <use xlink:href="#maf82361062" x="284.135267" y="93.015009" style="fill: #d62728; stroke: #000000; stroke-linejoin: bevel"/>
     <use xlink:href="#maf82361062" x="294.650394" y="91.887163" style="fill: #d62728; stroke: #000000; stroke-linejoin: bevel"/>
     <use xlink:href="#maf82361062" x="305.165521" y="90.792138" style="fill: #d62728; stroke: #000000; stroke-linejoin: bevel"/>
     <use xlink:href="#maf82361062" x="315.680648" y="89.787757" style="fill: #d62728; stroke: #000000; stroke-linejoin: bevel"/>
     <use xlink:href="#maf82361062" x="326.195775" y="88.782973" style="fill: #d62728; stroke: #000000; stroke-linejoin: bevel"/>
     <use xlink:href="#maf82361062" x="336.710902" y="87.816262" style="fill: #d62728; stroke: #000000; stroke-linejoin: bevel"/>
     <use xlink:href="#maf82361062" x="347.226029" y="86.93507" style="fill: #d62728; stroke: #000000; stroke-linejoin: bevel"/>
     <use xlink:href="#maf82361062" x="357.741156" y="86.014729" style="fill: #d62728; stroke: #000000; stroke-linejoin: bevel"/>
     <use xlink:href="#maf82361062" x="368.256283" y="85.190871" style="fill: #d62728; stroke: #000000; stroke-linejoin: bevel"/>
     <use xlink:href="#maf82361062" x="378.77141" y="84.378208" style="fill: #d62728; stroke: #000000; stroke-linejoin: bevel"/>
     <use xlink:href="#maf82361062" x="389.286537" y="83.582583" style="fill: #d62728; stroke: #000000; stroke-linejoin: bevel"/>
     <use xlink:href="#maf82361062" x="398.487273" y="82.860683" style="fill: #d62728; stroke: #000000; stroke-linejoin: bevel"/>
    </g>
   </g>
   <g id="line2d_58">
    <path d="M 57.6 168.997514 
L 414.72 168.997514 
" clip-path="url(#p5a3ae87654)" style="fill: none; stroke-dasharray: 5.55,2.4; stroke-dashoffset: 0; stroke: #808080; stroke-width: 1.5"/>
   </g>
   <g id="patch_3">
    <path d="M 57.6 293.76 
L 57.6 41.472 
" style="fill: none; stroke: #000000; stroke-width: 0.8; stroke-linejoin: miter; stroke-linecap: square"/>
   </g>
   <g id="patch_4">
    <path d="M 414.72 293.76 
L 414.72 41.472 
" style="fill: none; stroke: #000000; stroke-width: 0.8; stroke-linejoin: miter; stroke-linecap: square"/>
   </g>
   <g id="patch_5">
    <path d="M 57.6 293.76 
L 414.72 293.76 
" style="fill: none; stroke: #000000; stroke-width: 0.8; stroke-linejoin: miter; stroke-linecap: square"/>
   </g>
   <g id="patch_6">
    <path d="M 57.6 41.472 
L 414.72 41.472 
" style="fill: none; stroke: #000000; stroke-width: 0.8; stroke-linejoin: miter; stroke-linecap: square"/>
   </g>
   <g id="text_14">
    <!-- $10^9$ for scale -->
    <g transform="translate(96.177372 163.685395)scale(0.11 -0.11)">
     <defs>
      <path id="DejaVuSans-66" d="M 2375 4863 
L 2375 4384 
L 1825 4384 
Q 1516 4384 1395 4259 
Q 1275 4134 1275 3809 
L 1275 3500 
L 2222 3500 
L 2222 3053 
L 1275 3053 
L 1275 0 
L 697 0 
L 697 3053 
L 147 3053 
L 147 3500 
L 697 3500 
L 697 3744 
Q 697 4328 969 4595 
Q 1241 4863 1831 4863 
L 2375 4863 
z
" transform="scale(0.015625)"/>
      <path id="DejaVuSans-63" d="M 3122 3366 
L 3122 2828 
Q 2878 2963 2633 3030 
Q 2388 3097 2138 3097 
Q 1578 3097 1268 2742 
Q 959 2388 959 1747 
Q 959 1106 1268 751 
Q 1578 397 2138 397 
Q 2388 397 2633 464 
Q 2878 531 3122 666 
L 3122 134 
Q 2881 22 2623 -34 
Q 2366 -91 2075 -91 
Q 1284 -91 818 406 
Q 353 903 353 1747 
Q 353 2603 823 3093 
Q 1294 3584 2113 3584 
Q 2378 3584 2631 3529 
Q 2884 3475 3122 3366 
z
" transform="scale(0.015625)"/>
      <path id="DejaVuSans-6c" d="M 603 4863 
L 1178 4863 
L 1178 0 
L 603 0 
L 603 4863 
z
" transform="scale(0.015625)"/>
     </defs>
     <use xlink:href="#DejaVuSans-31" transform="translate(0 0.765625)"/>
     <use xlink:href="#DejaVuSans-30" transform="translate(63.623047 0.765625)"/>
     <use xlink:href="#DejaVuSans-39" transform="translate(128.203125 39.046875)scale(0.7)"/>
     <use xlink:href="#DejaVuSans-20" transform="translate(175.473633 0.765625)"/>
     <use xlink:href="#DejaVuSans-66" transform="translate(207.260742 0.765625)"/>
     <use xlink:href="#DejaVuSans-6f" transform="translate(242.46582 0.765625)"/>
     <use xlink:href="#DejaVuSans-72" transform="translate(303.647461 0.765625)"/>
     <use xlink:href="#DejaVuSans-20" transform="translate(344.760742 0.765625)"/>
     <use xlink:href="#DejaVuSans-73" transform="translate(376.547852 0.765625)"/>
     <use xlink:href="#DejaVuSans-63" transform="translate(428.647461 0.765625)"/>
     <use xlink:href="#DejaVuSans-61" transform="translate(483.62793 0.765625)"/>
     <use xlink:href="#DejaVuSans-6c" transform="translate(544.907227 0.765625)"/>
     <use xlink:href="#DejaVuSans-65" transform="translate(572.69043 0.765625)"/>
    </g>
   </g>
  </g>
 </g>
 <defs>
  <clipPath id="p5a3ae87654">
   <rect x="57.6" y="41.472" width="357.12" height="252.288"/>
  </clipPath>
 </defs>
</svg>
