<?xml version="1.0" encoding="utf-8" standalone="no"?>
<!DOCTYPE svg PUBLIC "-//W3C//DTD SVG 1.1//EN"
  "http://www.w3.org/Graphics/SVG/1.1/DTD/svg11.dtd">
<svg xmlns:xlink="http://www.w3.org/1999/xlink" width="460.8pt" height="345.6pt" viewBox="0 0 460.8 345.6" xmlns="http://www.w3.org/2000/svg" version="1.1">
 <metadata>
  <rdf:RDF xmlns:dc="http://purl.org/dc/elements/1.1/" xmlns:cc="http://creativecommons.org/ns#" xmlns:rdf="http://www.w3.org/1999/02/22-rdf-syntax-ns#">
   <cc:Work>
    <dc:type rdf:resource="http://purl.org/dc/dcmitype/StillImage"/>
    <dc:date>2023-01-31T00:25:53.431465</dc:date>
    <dc:format>image/svg+xml</dc:format>
    <dc:creator>
     <cc:Agent>
      <dc:title>Matplotlib v3.5.3, https://matplotlib.org/</dc:title>
     </cc:Agent>
    </dc:creator>
   </cc:Work>
  </rdf:RDF>
 </metadata>
 <defs>
  <style type="text/css">*{stroke-linejoin: round; stroke-linecap: butt}</style>
 </defs>
 <g id="figure_1">
  <g id="patch_1">
   <path d="M 0 345.6 
L 460.8 345.6 
L 460.8 0 
L 0 0 
z
" style="fill: #ffffff"/>
  </g>
  <g id="axes_1">
   <g id="patch_2">
    <path d="M 57.6 293.76 
L 414.72 293.76 
L 414.72 41.472 
L 57.6 41.472 
z
" style="fill: #ffffff"/>
   </g>
   <g id="PolyCollection_1">
    <defs>
     <path id="m3bb1e152e2" d="M 73.832727 -76.31081 
L 73.832727 -76.31081 
L 84.347854 -90.297566 
L 94.862981 -95.891066 
L 105.378108 -98.877877 
L 115.893235 -101.144953 
L 126.408362 -102.803778 
L 136.923489 -104.214986 
L 147.438616 -105.807769 
L 157.953743 -106.504313 
L 168.46887 -107.454235 
L 178.983997 -108.263091 
L 189.499124 -109.186492 
L 200.014251 -109.361453 
L 210.529378 -110.300352 
L 221.044505 -110.835377 
L 231.559632 -111.609285 
L 242.074759 -110.916006 
L 252.589886 -111.398817 
L 263.105013 -111.772917 
L 273.62014 -112.450167 
L 284.135267 -112.609033 
L 294.650394 -113.479986 
L 305.165521 -113.435962 
L 315.680648 -113.982421 
L 326.195775 -113.449858 
L 336.710902 -113.80061 
L 347.226029 -114.223103 
L 357.741156 -114.338922 
L 368.256283 -114.458329 
L 378.77141 -114.771404 
L 389.286537 -114.905844 
L 398.487273 -115.695442 
L 398.487273 -115.695442 
L 398.487273 -115.987198 
L 389.286537 -115.443626 
L 378.77141 -115.492313 
L 368.256283 -115.134047 
L 357.741156 -114.988184 
L 347.226029 -114.753308 
L 336.710902 -114.065924 
L 326.195775 -114.049745 
L 315.680648 -114.27014 
L 305.165521 -113.880613 
L 294.650394 -113.76453 
L 284.135267 -113.239347 
L 273.62014 -113.081836 
L 263.105013 -112.478138 
L 252.589886 -112.01354 
L 242.074759 -111.510728 
L 231.559632 -112.248052 
L 221.044505 -111.064352 
L 210.529378 -110.412588 
L 200.014251 -109.50253 
L 189.499124 -109.311006 
L 178.983997 -108.358681 
L 168.46887 -107.502204 
L 157.953743 -106.58547 
L 147.438616 -105.827463 
L 136.923489 -104.369887 
L 126.408362 -102.96609 
L 115.893235 -101.220184 
L 105.378108 -99.60567 
L 94.862981 -96.488243 
L 84.347854 -90.954557 
L 73.832727 -76.392825 
z
" style="stroke: #ffdead"/>
    </defs>
    <g clip-path="url(#p71fabb45d9)">
     <use xlink:href="#m3bb1e152e2" x="0" y="345.6" style="fill: #ffdead; stroke: #ffdead"/>
    </g>
   </g>
   <g id="PolyCollection_2">
    <defs>
     <path id="m748880192a" d="M 73.832727 -72.332407 
L 73.832727 -72.332407 
L 84.347854 -87.727087 
L 94.862981 -94.102672 
L 105.378108 -97.414161 
L 115.893235 -99.684816 
L 126.408362 -101.529095 
L 136.923489 -102.953559 
L 147.438616 -104.32879 
L 157.953743 -105.054158 
L 168.46887 -106.228895 
L 178.983997 -106.904377 
L 189.499124 -107.479955 
L 200.014251 -107.86719 
L 210.529378 -108.596888 
L 221.044505 -111.73932 
L 231.559632 -111.618898 
L 242.074759 -110.795365 
L 252.589886 -112.410388 
L 263.105013 -112.817949 
L 273.62014 -113.243827 
L 284.135267 -112.084303 
L 294.650394 -112.075424 
L 305.165521 -112.545002 
L 315.680648 -112.79033 
L 326.195775 -112.620335 
L 336.710902 -112.944447 
L 347.226029 -113.371453 
L 357.741156 -115.183878 
L 368.256283 -115.201321 
L 378.77141 -115.572475 
L 389.286537 -115.370579 
L 398.487273 -115.527104 
L 398.487273 -115.527104 
L 398.487273 -115.612907 
L 389.286537 -115.406339 
L 378.77141 -115.625426 
L 368.256283 -115.254156 
L 357.741156 -115.262096 
L 347.226029 -114.973602 
L 336.710902 -112.98938 
L 326.195775 -112.718152 
L 315.680648 -112.976499 
L 305.165521 -114.070655 
L 294.650394 -112.357196 
L 284.135267 -113.626151 
L 273.62014 -113.287812 
L 263.105013 -112.872831 
L 252.589886 -112.453527 
L 242.074759 -111.231684 
L 231.559632 -112.438895 
L 221.044505 -111.853228 
L 210.529378 -110.137561 
L 200.014251 -107.951736 
L 189.499124 -107.55144 
L 178.983997 -108.580653 
L 168.46887 -107.470422 
L 157.953743 -107.088374 
L 147.438616 -106.300251 
L 136.923489 -104.221631 
L 126.408362 -101.848516 
L 115.893235 -99.821751 
L 105.378108 -98.373783 
L 94.862981 -94.969683 
L 84.347854 -87.863626 
L 73.832727 -72.506959 
z
" style="stroke: #ffdead"/>
    </defs>
    <g clip-path="url(#p71fabb45d9)">
     <use xlink:href="#m748880192a" x="0" y="345.6" style="fill: #ffdead; stroke: #ffdead"/>
    </g>
   </g>
   <g id="PolyCollection_3">
    <defs>
     <path id="m4273f66a9c" d="M 73.832727 -228.527778 
L 73.832727 -228.527778 
L 84.347854 -245.720016 
L 94.862981 -254.25539 
L 105.378108 -253.897128 
L 115.893235 -261.917827 
L 126.408362 -265.0123 
L 136.923489 -267.691942 
L 147.438616 -269.85395 
L 157.953743 -271.203648 
L 168.46887 -272.325866 
L 178.983997 -274.833267 
L 189.499124 -275.545367 
L 200.014251 -276.399327 
L 210.529378 -277.197446 
L 221.044505 -278.782108 
L 231.559632 -276.80237 
L 242.074759 -280.402919 
L 252.589886 -281.302091 
L 263.105013 -281.768397 
L 273.62014 -282.357743 
L 284.135267 -284.864688 
L 294.650394 -283.847007 
L 305.165521 -285.105197 
L 315.680648 -284.776603 
L 326.195775 -284.937622 
L 336.710902 -288.329748 
L 347.226029 -287.137416 
L 357.741156 -289.235966 
L 368.256283 -289.273828 
L 378.77141 -289.154614 
L 389.286537 -291.652888 
L 398.487273 -291.282268 
L 398.487273 -291.282268 
L 398.487273 -292.660364 
L 389.286537 -292.561321 
L 378.77141 -291.763918 
L 368.256283 -291.001354 
L 357.741156 -290.573151 
L 347.226029 -289.181301 
L 336.710902 -290.641522 
L 326.195775 -287.256231 
L 315.680648 -288.469333 
L 305.165521 -287.725485 
L 294.650394 -286.359352 
L 284.135267 -285.806036 
L 273.62014 -284.823474 
L 263.105013 -284.797331 
L 252.589886 -282.517816 
L 242.074759 -282.421701 
L 231.559632 -282.472198 
L 221.044505 -280.683648 
L 210.529378 -279.343189 
L 200.014251 -279.054497 
L 189.499124 -278.376242 
L 178.983997 -277.019106 
L 168.46887 -274.82603 
L 157.953743 -273.044351 
L 147.438616 -272.796965 
L 136.923489 -269.521459 
L 126.408362 -267.012554 
L 115.893235 -264.409219 
L 105.378108 -259.485395 
L 94.862981 -256.61805 
L 84.347854 -247.404898 
L 73.832727 -231.74511 
z
" style="stroke: #ffdead"/>
    </defs>
    <g clip-path="url(#p71fabb45d9)">
     <use xlink:href="#m4273f66a9c" x="0" y="345.6" style="fill: #ffdead; stroke: #ffdead"/>
    </g>
   </g>
   <g id="matplotlib.axis_1">
    <g id="xtick_1">
     <g id="line2d_1">
      <defs>
       <path id="m2f8459ef12" d="M 0 0 
L 0 3.5 
" style="stroke: #000000; stroke-width: 0.8"/>
      </defs>
      <g>
       <use xlink:href="#m2f8459ef12" x="73.832727" y="293.76" style="stroke: #000000; stroke-width: 0.8"/>
      </g>
     </g>
     <g id="text_1">
      <!-- 1, 8 -->
      <g transform="translate(63.33804 309.118281)scale(0.11 -0.11)">
       <defs>
        <path id="DejaVuSans-31" d="M 794 531 
L 1825 531 
L 1825 4091 
L 703 3866 
L 703 4441 
L 1819 4666 
L 2450 4666 
L 2450 531 
L 3481 531 
L 3481 0 
L 794 0 
L 794 531 
z
" transform="scale(0.015625)"/>
        <path id="DejaVuSans-2c" d="M 750 794 
L 1409 794 
L 1409 256 
L 897 -744 
L 494 -744 
L 750 256 
L 750 794 
z
" transform="scale(0.015625)"/>
        <path id="DejaVuSans-20" transform="scale(0.015625)"/>
        <path id="DejaVuSans-38" d="M 2034 2216 
Q 1584 2216 1326 1975 
Q 1069 1734 1069 1313 
Q 1069 891 1326 650 
Q 1584 409 2034 409 
Q 2484 409 2743 651 
Q 3003 894 3003 1313 
Q 3003 1734 2745 1975 
Q 2488 2216 2034 2216 
z
M 1403 2484 
Q 997 2584 770 2862 
Q 544 3141 544 3541 
Q 544 4100 942 4425 
Q 1341 4750 2034 4750 
Q 2731 4750 3128 4425 
Q 3525 4100 3525 3541 
Q 3525 3141 3298 2862 
Q 3072 2584 2669 2484 
Q 3125 2378 3379 2068 
Q 3634 1759 3634 1313 
Q 3634 634 3220 271 
Q 2806 -91 2034 -91 
Q 1263 -91 848 271 
Q 434 634 434 1313 
Q 434 1759 690 2068 
Q 947 2378 1403 2484 
z
M 1172 3481 
Q 1172 3119 1398 2916 
Q 1625 2713 2034 2713 
Q 2441 2713 2670 2916 
Q 2900 3119 2900 3481 
Q 2900 3844 2670 4047 
Q 2441 4250 2034 4250 
Q 1625 4250 1398 4047 
Q 1172 3844 1172 3481 
z
" transform="scale(0.015625)"/>
       </defs>
       <use xlink:href="#DejaVuSans-31"/>
       <use xlink:href="#DejaVuSans-2c" x="63.623047"/>
       <use xlink:href="#DejaVuSans-20" x="95.410156"/>
       <use xlink:href="#DejaVuSans-38" x="127.197266"/>
      </g>
     </g>
    </g>
    <g id="xtick_2">
     <g id="line2d_2">
      <g>
       <use xlink:href="#m2f8459ef12" x="136.923489" y="293.76" style="stroke: #000000; stroke-width: 0.8"/>
      </g>
     </g>
     <g id="text_2">
      <!-- 7, 56 -->
      <g transform="translate(122.929427 309.118281)scale(0.11 -0.11)">
       <defs>
        <path id="DejaVuSans-37" d="M 525 4666 
L 3525 4666 
L 3525 4397 
L 1831 0 
L 1172 0 
L 2766 4134 
L 525 4134 
L 525 4666 
z
" transform="scale(0.015625)"/>
        <path id="DejaVuSans-35" d="M 691 4666 
L 3169 4666 
L 3169 4134 
L 1269 4134 
L 1269 2991 
Q 1406 3038 1543 3061 
Q 1681 3084 1819 3084 
Q 2600 3084 3056 2656 
Q 3513 2228 3513 1497 
Q 3513 744 3044 326 
Q 2575 -91 1722 -91 
Q 1428 -91 1123 -41 
Q 819 9 494 109 
L 494 744 
Q 775 591 1075 516 
Q 1375 441 1709 441 
Q 2250 441 2565 725 
Q 2881 1009 2881 1497 
Q 2881 1984 2565 2268 
Q 2250 2553 1709 2553 
Q 1456 2553 1204 2497 
Q 953 2441 691 2322 
L 691 4666 
z
" transform="scale(0.015625)"/>
        <path id="DejaVuSans-36" d="M 2113 2584 
Q 1688 2584 1439 2293 
Q 1191 2003 1191 1497 
Q 1191 994 1439 701 
Q 1688 409 2113 409 
Q 2538 409 2786 701 
Q 3034 994 3034 1497 
Q 3034 2003 2786 2293 
Q 2538 2584 2113 2584 
z
M 3366 4563 
L 3366 3988 
Q 3128 4100 2886 4159 
Q 2644 4219 2406 4219 
Q 1781 4219 1451 3797 
Q 1122 3375 1075 2522 
Q 1259 2794 1537 2939 
Q 1816 3084 2150 3084 
Q 2853 3084 3261 2657 
Q 3669 2231 3669 1497 
Q 3669 778 3244 343 
Q 2819 -91 2113 -91 
Q 1303 -91 875 529 
Q 447 1150 447 2328 
Q 447 3434 972 4092 
Q 1497 4750 2381 4750 
Q 2619 4750 2861 4703 
Q 3103 4656 3366 4563 
z
" transform="scale(0.015625)"/>
       </defs>
       <use xlink:href="#DejaVuSans-37"/>
       <use xlink:href="#DejaVuSans-2c" x="63.623047"/>
       <use xlink:href="#DejaVuSans-20" x="95.410156"/>
       <use xlink:href="#DejaVuSans-35" x="127.197266"/>
       <use xlink:href="#DejaVuSans-36" x="190.820312"/>
      </g>
     </g>
    </g>
    <g id="xtick_3">
     <g id="line2d_3">
      <g>
       <use xlink:href="#m2f8459ef12" x="200.014251" y="293.76" style="stroke: #000000; stroke-width: 0.8"/>
      </g>
     </g>
     <g id="text_3">
      <!-- 13, 104 -->
      <g transform="translate(179.021439 309.118281)scale(0.11 -0.11)">
       <defs>
        <path id="DejaVuSans-33" d="M 2597 2516 
Q 3050 2419 3304 2112 
Q 3559 1806 3559 1356 
Q 3559 666 3084 287 
Q 2609 -91 1734 -91 
Q 1441 -91 1130 -33 
Q 819 25 488 141 
L 488 750 
Q 750 597 1062 519 
Q 1375 441 1716 441 
Q 2309 441 2620 675 
Q 2931 909 2931 1356 
Q 2931 1769 2642 2001 
Q 2353 2234 1838 2234 
L 1294 2234 
L 1294 2753 
L 1863 2753 
Q 2328 2753 2575 2939 
Q 2822 3125 2822 3475 
Q 2822 3834 2567 4026 
Q 2313 4219 1838 4219 
Q 1578 4219 1281 4162 
Q 984 4106 628 3988 
L 628 4550 
Q 988 4650 1302 4700 
Q 1616 4750 1894 4750 
Q 2613 4750 3031 4423 
Q 3450 4097 3450 3541 
Q 3450 3153 3228 2886 
Q 3006 2619 2597 2516 
z
" transform="scale(0.015625)"/>
        <path id="DejaVuSans-30" d="M 2034 4250 
Q 1547 4250 1301 3770 
Q 1056 3291 1056 2328 
Q 1056 1369 1301 889 
Q 1547 409 2034 409 
Q 2525 409 2770 889 
Q 3016 1369 3016 2328 
Q 3016 3291 2770 3770 
Q 2525 4250 2034 4250 
z
M 2034 4750 
Q 2819 4750 3233 4129 
Q 3647 3509 3647 2328 
Q 3647 1150 3233 529 
Q 2819 -91 2034 -91 
Q 1250 -91 836 529 
Q 422 1150 422 2328 
Q 422 3509 836 4129 
Q 1250 4750 2034 4750 
z
" transform="scale(0.015625)"/>
        <path id="DejaVuSans-34" d="M 2419 4116 
L 825 1625 
L 2419 1625 
L 2419 4116 
z
M 2253 4666 
L 3047 4666 
L 3047 1625 
L 3713 1625 
L 3713 1100 
L 3047 1100 
L 3047 0 
L 2419 0 
L 2419 1100 
L 313 1100 
L 313 1709 
L 2253 4666 
z
" transform="scale(0.015625)"/>
       </defs>
       <use xlink:href="#DejaVuSans-31"/>
       <use xlink:href="#DejaVuSans-33" x="63.623047"/>
       <use xlink:href="#DejaVuSans-2c" x="127.246094"/>
       <use xlink:href="#DejaVuSans-20" x="159.033203"/>
       <use xlink:href="#DejaVuSans-31" x="190.820312"/>
       <use xlink:href="#DejaVuSans-30" x="254.443359"/>
       <use xlink:href="#DejaVuSans-34" x="318.066406"/>
      </g>
     </g>
    </g>
    <g id="xtick_4">
     <g id="line2d_4">
      <g>
       <use xlink:href="#m2f8459ef12" x="263.105013" y="293.76" style="stroke: #000000; stroke-width: 0.8"/>
      </g>
     </g>
     <g id="text_4">
      <!-- 19, 152 -->
      <g transform="translate(242.1122 309.118281)scale(0.11 -0.11)">
       <defs>
        <path id="DejaVuSans-39" d="M 703 97 
L 703 672 
Q 941 559 1184 500 
Q 1428 441 1663 441 
Q 2288 441 2617 861 
Q 2947 1281 2994 2138 
Q 2813 1869 2534 1725 
Q 2256 1581 1919 1581 
Q 1219 1581 811 2004 
Q 403 2428 403 3163 
Q 403 3881 828 4315 
Q 1253 4750 1959 4750 
Q 2769 4750 3195 4129 
Q 3622 3509 3622 2328 
Q 3622 1225 3098 567 
Q 2575 -91 1691 -91 
Q 1453 -91 1209 -44 
Q 966 3 703 97 
z
M 1959 2075 
Q 2384 2075 2632 2365 
Q 2881 2656 2881 3163 
Q 2881 3666 2632 3958 
Q 2384 4250 1959 4250 
Q 1534 4250 1286 3958 
Q 1038 3666 1038 3163 
Q 1038 2656 1286 2365 
Q 1534 2075 1959 2075 
z
" transform="scale(0.015625)"/>
        <path id="DejaVuSans-32" d="M 1228 531 
L 3431 531 
L 3431 0 
L 469 0 
L 469 531 
Q 828 903 1448 1529 
Q 2069 2156 2228 2338 
Q 2531 2678 2651 2914 
Q 2772 3150 2772 3378 
Q 2772 3750 2511 3984 
Q 2250 4219 1831 4219 
Q 1534 4219 1204 4116 
Q 875 4013 500 3803 
L 500 4441 
Q 881 4594 1212 4672 
Q 1544 4750 1819 4750 
Q 2544 4750 2975 4387 
Q 3406 4025 3406 3419 
Q 3406 3131 3298 2873 
Q 3191 2616 2906 2266 
Q 2828 2175 2409 1742 
Q 1991 1309 1228 531 
z
" transform="scale(0.015625)"/>
       </defs>
       <use xlink:href="#DejaVuSans-31"/>
       <use xlink:href="#DejaVuSans-39" x="63.623047"/>
       <use xlink:href="#DejaVuSans-2c" x="127.246094"/>
       <use xlink:href="#DejaVuSans-20" x="159.033203"/>
       <use xlink:href="#DejaVuSans-31" x="190.820312"/>
       <use xlink:href="#DejaVuSans-35" x="254.443359"/>
       <use xlink:href="#DejaVuSans-32" x="318.066406"/>
      </g>
     </g>
    </g>
    <g id="xtick_5">
     <g id="line2d_5">
      <g>
       <use xlink:href="#m2f8459ef12" x="326.195775" y="293.76" style="stroke: #000000; stroke-width: 0.8"/>
      </g>
     </g>
     <g id="text_5">
      <!-- 25, 200 -->
      <g transform="translate(305.202962 309.118281)scale(0.11 -0.11)">
       <use xlink:href="#DejaVuSans-32"/>
       <use xlink:href="#DejaVuSans-35" x="63.623047"/>
       <use xlink:href="#DejaVuSans-2c" x="127.246094"/>
       <use xlink:href="#DejaVuSans-20" x="159.033203"/>
       <use xlink:href="#DejaVuSans-32" x="190.820312"/>
       <use xlink:href="#DejaVuSans-30" x="254.443359"/>
       <use xlink:href="#DejaVuSans-30" x="318.066406"/>
      </g>
     </g>
    </g>
    <g id="xtick_6">
     <g id="line2d_6">
      <g>
       <use xlink:href="#m2f8459ef12" x="389.286537" y="293.76" style="stroke: #000000; stroke-width: 0.8"/>
      </g>
     </g>
     <g id="text_6">
      <!-- 31, 248 -->
      <g transform="translate(368.293724 309.118281)scale(0.11 -0.11)">
       <use xlink:href="#DejaVuSans-33"/>
       <use xlink:href="#DejaVuSans-31" x="63.623047"/>
       <use xlink:href="#DejaVuSans-2c" x="127.246094"/>
       <use xlink:href="#DejaVuSans-20" x="159.033203"/>
       <use xlink:href="#DejaVuSans-32" x="190.820312"/>
       <use xlink:href="#DejaVuSans-34" x="254.443359"/>
       <use xlink:href="#DejaVuSans-38" x="318.066406"/>
      </g>
     </g>
    </g>
    <g id="text_7">
     <!-- Bin number, maximum program size -->
     <g transform="translate(107.815 326.04375)scale(0.14 -0.14)">
      <defs>
       <path id="DejaVuSans-42" d="M 1259 2228 
L 1259 519 
L 2272 519 
Q 2781 519 3026 730 
Q 3272 941 3272 1375 
Q 3272 1813 3026 2020 
Q 2781 2228 2272 2228 
L 1259 2228 
z
M 1259 4147 
L 1259 2741 
L 2194 2741 
Q 2656 2741 2882 2914 
Q 3109 3088 3109 3444 
Q 3109 3797 2882 3972 
Q 2656 4147 2194 4147 
L 1259 4147 
z
M 628 4666 
L 2241 4666 
Q 2963 4666 3353 4366 
Q 3744 4066 3744 3513 
Q 3744 3084 3544 2831 
Q 3344 2578 2956 2516 
Q 3422 2416 3680 2098 
Q 3938 1781 3938 1306 
Q 3938 681 3513 340 
Q 3088 0 2303 0 
L 628 0 
L 628 4666 
z
" transform="scale(0.015625)"/>
       <path id="DejaVuSans-69" d="M 603 3500 
L 1178 3500 
L 1178 0 
L 603 0 
L 603 3500 
z
M 603 4863 
L 1178 4863 
L 1178 4134 
L 603 4134 
L 603 4863 
z
" transform="scale(0.015625)"/>
       <path id="DejaVuSans-6e" d="M 3513 2113 
L 3513 0 
L 2938 0 
L 2938 2094 
Q 2938 2591 2744 2837 
Q 2550 3084 2163 3084 
Q 1697 3084 1428 2787 
Q 1159 2491 1159 1978 
L 1159 0 
L 581 0 
L 581 3500 
L 1159 3500 
L 1159 2956 
Q 1366 3272 1645 3428 
Q 1925 3584 2291 3584 
Q 2894 3584 3203 3211 
Q 3513 2838 3513 2113 
z
" transform="scale(0.015625)"/>
       <path id="DejaVuSans-75" d="M 544 1381 
L 544 3500 
L 1119 3500 
L 1119 1403 
Q 1119 906 1312 657 
Q 1506 409 1894 409 
Q 2359 409 2629 706 
Q 2900 1003 2900 1516 
L 2900 3500 
L 3475 3500 
L 3475 0 
L 2900 0 
L 2900 538 
Q 2691 219 2414 64 
Q 2138 -91 1772 -91 
Q 1169 -91 856 284 
Q 544 659 544 1381 
z
M 1991 3584 
L 1991 3584 
z
" transform="scale(0.015625)"/>
       <path id="DejaVuSans-6d" d="M 3328 2828 
Q 3544 3216 3844 3400 
Q 4144 3584 4550 3584 
Q 5097 3584 5394 3201 
Q 5691 2819 5691 2113 
L 5691 0 
L 5113 0 
L 5113 2094 
Q 5113 2597 4934 2840 
Q 4756 3084 4391 3084 
Q 3944 3084 3684 2787 
Q 3425 2491 3425 1978 
L 3425 0 
L 2847 0 
L 2847 2094 
Q 2847 2600 2669 2842 
Q 2491 3084 2119 3084 
Q 1678 3084 1418 2786 
Q 1159 2488 1159 1978 
L 1159 0 
L 581 0 
L 581 3500 
L 1159 3500 
L 1159 2956 
Q 1356 3278 1631 3431 
Q 1906 3584 2284 3584 
Q 2666 3584 2933 3390 
Q 3200 3197 3328 2828 
z
" transform="scale(0.015625)"/>
       <path id="DejaVuSans-62" d="M 3116 1747 
Q 3116 2381 2855 2742 
Q 2594 3103 2138 3103 
Q 1681 3103 1420 2742 
Q 1159 2381 1159 1747 
Q 1159 1113 1420 752 
Q 1681 391 2138 391 
Q 2594 391 2855 752 
Q 3116 1113 3116 1747 
z
M 1159 2969 
Q 1341 3281 1617 3432 
Q 1894 3584 2278 3584 
Q 2916 3584 3314 3078 
Q 3713 2572 3713 1747 
Q 3713 922 3314 415 
Q 2916 -91 2278 -91 
Q 1894 -91 1617 61 
Q 1341 213 1159 525 
L 1159 0 
L 581 0 
L 581 4863 
L 1159 4863 
L 1159 2969 
z
" transform="scale(0.015625)"/>
       <path id="DejaVuSans-65" d="M 3597 1894 
L 3597 1613 
L 953 1613 
Q 991 1019 1311 708 
Q 1631 397 2203 397 
Q 2534 397 2845 478 
Q 3156 559 3463 722 
L 3463 178 
Q 3153 47 2828 -22 
Q 2503 -91 2169 -91 
Q 1331 -91 842 396 
Q 353 884 353 1716 
Q 353 2575 817 3079 
Q 1281 3584 2069 3584 
Q 2775 3584 3186 3129 
Q 3597 2675 3597 1894 
z
M 3022 2063 
Q 3016 2534 2758 2815 
Q 2500 3097 2075 3097 
Q 1594 3097 1305 2825 
Q 1016 2553 972 2059 
L 3022 2063 
z
" transform="scale(0.015625)"/>
       <path id="DejaVuSans-72" d="M 2631 2963 
Q 2534 3019 2420 3045 
Q 2306 3072 2169 3072 
Q 1681 3072 1420 2755 
Q 1159 2438 1159 1844 
L 1159 0 
L 581 0 
L 581 3500 
L 1159 3500 
L 1159 2956 
Q 1341 3275 1631 3429 
Q 1922 3584 2338 3584 
Q 2397 3584 2469 3576 
Q 2541 3569 2628 3553 
L 2631 2963 
z
" transform="scale(0.015625)"/>
       <path id="DejaVuSans-61" d="M 2194 1759 
Q 1497 1759 1228 1600 
Q 959 1441 959 1056 
Q 959 750 1161 570 
Q 1363 391 1709 391 
Q 2188 391 2477 730 
Q 2766 1069 2766 1631 
L 2766 1759 
L 2194 1759 
z
M 3341 1997 
L 3341 0 
L 2766 0 
L 2766 531 
Q 2569 213 2275 61 
Q 1981 -91 1556 -91 
Q 1019 -91 701 211 
Q 384 513 384 1019 
Q 384 1609 779 1909 
Q 1175 2209 1959 2209 
L 2766 2209 
L 2766 2266 
Q 2766 2663 2505 2880 
Q 2244 3097 1772 3097 
Q 1472 3097 1187 3025 
Q 903 2953 641 2809 
L 641 3341 
Q 956 3463 1253 3523 
Q 1550 3584 1831 3584 
Q 2591 3584 2966 3190 
Q 3341 2797 3341 1997 
z
" transform="scale(0.015625)"/>
       <path id="DejaVuSans-78" d="M 3513 3500 
L 2247 1797 
L 3578 0 
L 2900 0 
L 1881 1375 
L 863 0 
L 184 0 
L 1544 1831 
L 300 3500 
L 978 3500 
L 1906 2253 
L 2834 3500 
L 3513 3500 
z
" transform="scale(0.015625)"/>
       <path id="DejaVuSans-70" d="M 1159 525 
L 1159 -1331 
L 581 -1331 
L 581 3500 
L 1159 3500 
L 1159 2969 
Q 1341 3281 1617 3432 
Q 1894 3584 2278 3584 
Q 2916 3584 3314 3078 
Q 3713 2572 3713 1747 
Q 3713 922 3314 415 
Q 2916 -91 2278 -91 
Q 1894 -91 1617 61 
Q 1341 213 1159 525 
z
M 3116 1747 
Q 3116 2381 2855 2742 
Q 2594 3103 2138 3103 
Q 1681 3103 1420 2742 
Q 1159 2381 1159 1747 
Q 1159 1113 1420 752 
Q 1681 391 2138 391 
Q 2594 391 2855 752 
Q 3116 1113 3116 1747 
z
" transform="scale(0.015625)"/>
       <path id="DejaVuSans-6f" d="M 1959 3097 
Q 1497 3097 1228 2736 
Q 959 2375 959 1747 
Q 959 1119 1226 758 
Q 1494 397 1959 397 
Q 2419 397 2687 759 
Q 2956 1122 2956 1747 
Q 2956 2369 2687 2733 
Q 2419 3097 1959 3097 
z
M 1959 3584 
Q 2709 3584 3137 3096 
Q 3566 2609 3566 1747 
Q 3566 888 3137 398 
Q 2709 -91 1959 -91 
Q 1206 -91 779 398 
Q 353 888 353 1747 
Q 353 2609 779 3096 
Q 1206 3584 1959 3584 
z
" transform="scale(0.015625)"/>
       <path id="DejaVuSans-67" d="M 2906 1791 
Q 2906 2416 2648 2759 
Q 2391 3103 1925 3103 
Q 1463 3103 1205 2759 
Q 947 2416 947 1791 
Q 947 1169 1205 825 
Q 1463 481 1925 481 
Q 2391 481 2648 825 
Q 2906 1169 2906 1791 
z
M 3481 434 
Q 3481 -459 3084 -895 
Q 2688 -1331 1869 -1331 
Q 1566 -1331 1297 -1286 
Q 1028 -1241 775 -1147 
L 775 -588 
Q 1028 -725 1275 -790 
Q 1522 -856 1778 -856 
Q 2344 -856 2625 -561 
Q 2906 -266 2906 331 
L 2906 616 
Q 2728 306 2450 153 
Q 2172 0 1784 0 
Q 1141 0 747 490 
Q 353 981 353 1791 
Q 353 2603 747 3093 
Q 1141 3584 1784 3584 
Q 2172 3584 2450 3431 
Q 2728 3278 2906 2969 
L 2906 3500 
L 3481 3500 
L 3481 434 
z
" transform="scale(0.015625)"/>
       <path id="DejaVuSans-73" d="M 2834 3397 
L 2834 2853 
Q 2591 2978 2328 3040 
Q 2066 3103 1784 3103 
Q 1356 3103 1142 2972 
Q 928 2841 928 2578 
Q 928 2378 1081 2264 
Q 1234 2150 1697 2047 
L 1894 2003 
Q 2506 1872 2764 1633 
Q 3022 1394 3022 966 
Q 3022 478 2636 193 
Q 2250 -91 1575 -91 
Q 1294 -91 989 -36 
Q 684 19 347 128 
L 347 722 
Q 666 556 975 473 
Q 1284 391 1588 391 
Q 1994 391 2212 530 
Q 2431 669 2431 922 
Q 2431 1156 2273 1281 
Q 2116 1406 1581 1522 
L 1381 1569 
Q 847 1681 609 1914 
Q 372 2147 372 2553 
Q 372 3047 722 3315 
Q 1072 3584 1716 3584 
Q 2034 3584 2315 3537 
Q 2597 3491 2834 3397 
z
" transform="scale(0.015625)"/>
       <path id="DejaVuSans-7a" d="M 353 3500 
L 3084 3500 
L 3084 2975 
L 922 459 
L 3084 459 
L 3084 0 
L 275 0 
L 275 525 
L 2438 3041 
L 353 3041 
L 353 3500 
z
" transform="scale(0.015625)"/>
      </defs>
      <use xlink:href="#DejaVuSans-42"/>
      <use xlink:href="#DejaVuSans-69" x="68.603516"/>
      <use xlink:href="#DejaVuSans-6e" x="96.386719"/>
      <use xlink:href="#DejaVuSans-20" x="159.765625"/>
      <use xlink:href="#DejaVuSans-6e" x="191.552734"/>
      <use xlink:href="#DejaVuSans-75" x="254.931641"/>
      <use xlink:href="#DejaVuSans-6d" x="318.310547"/>
      <use xlink:href="#DejaVuSans-62" x="415.722656"/>
      <use xlink:href="#DejaVuSans-65" x="479.199219"/>
      <use xlink:href="#DejaVuSans-72" x="540.722656"/>
      <use xlink:href="#DejaVuSans-2c" x="581.835938"/>
      <use xlink:href="#DejaVuSans-20" x="613.623047"/>
      <use xlink:href="#DejaVuSans-6d" x="645.410156"/>
      <use xlink:href="#DejaVuSans-61" x="742.822266"/>
      <use xlink:href="#DejaVuSans-78" x="804.101562"/>
      <use xlink:href="#DejaVuSans-69" x="863.28125"/>
      <use xlink:href="#DejaVuSans-6d" x="891.064453"/>
      <use xlink:href="#DejaVuSans-75" x="988.476562"/>
      <use xlink:href="#DejaVuSans-6d" x="1051.855469"/>
      <use xlink:href="#DejaVuSans-20" x="1149.267578"/>
      <use xlink:href="#DejaVuSans-70" x="1181.054688"/>
      <use xlink:href="#DejaVuSans-72" x="1244.53125"/>
      <use xlink:href="#DejaVuSans-6f" x="1283.394531"/>
      <use xlink:href="#DejaVuSans-67" x="1344.576172"/>
      <use xlink:href="#DejaVuSans-72" x="1408.052734"/>
      <use xlink:href="#DejaVuSans-61" x="1449.166016"/>
      <use xlink:href="#DejaVuSans-6d" x="1510.445312"/>
      <use xlink:href="#DejaVuSans-20" x="1607.857422"/>
      <use xlink:href="#DejaVuSans-73" x="1639.644531"/>
      <use xlink:href="#DejaVuSans-69" x="1691.744141"/>
      <use xlink:href="#DejaVuSans-7a" x="1719.527344"/>
      <use xlink:href="#DejaVuSans-65" x="1772.017578"/>
     </g>
    </g>
   </g>
   <g id="matplotlib.axis_2">
    <g id="ytick_1">
     <g id="line2d_7">
      <defs>
       <path id="mfcbb1af501" d="M 0 0 
L -3.5 0 
" style="stroke: #000000; stroke-width: 0.8"/>
      </defs>
      <g>
       <use xlink:href="#mfcbb1af501" x="57.6" y="266.562472" style="stroke: #000000; stroke-width: 0.8"/>
      </g>
     </g>
     <g id="text_8">
      <!-- $\mathdefault{10^{7}}$ -->
      <g transform="translate(31.24 270.741613)scale(0.11 -0.11)">
       <use xlink:href="#DejaVuSans-31" transform="translate(0 0.684375)"/>
       <use xlink:href="#DejaVuSans-30" transform="translate(63.623047 0.684375)"/>
       <use xlink:href="#DejaVuSans-37" transform="translate(128.203125 38.965625)scale(0.7)"/>
      </g>
     </g>
    </g>
    <g id="ytick_2">
     <g id="line2d_8">
      <g>
       <use xlink:href="#mfcbb1af501" x="57.6" y="216.682404" style="stroke: #000000; stroke-width: 0.8"/>
      </g>
     </g>
     <g id="text_9">
      <!-- $\mathdefault{10^{8}}$ -->
      <g transform="translate(31.24 220.861545)scale(0.11 -0.11)">
       <use xlink:href="#DejaVuSans-31" transform="translate(0 0.765625)"/>
       <use xlink:href="#DejaVuSans-30" transform="translate(63.623047 0.765625)"/>
       <use xlink:href="#DejaVuSans-38" transform="translate(128.203125 39.046875)scale(0.7)"/>
      </g>
     </g>
    </g>
    <g id="ytick_3">
     <g id="line2d_9">
      <g>
       <use xlink:href="#mfcbb1af501" x="57.6" y="166.802336" style="stroke: #000000; stroke-width: 0.8"/>
      </g>
     </g>
     <g id="text_10">
      <!-- $\mathdefault{10^{9}}$ -->
      <g transform="translate(31.24 170.981477)scale(0.11 -0.11)">
       <use xlink:href="#DejaVuSans-31" transform="translate(0 0.765625)"/>
       <use xlink:href="#DejaVuSans-30" transform="translate(63.623047 0.765625)"/>
       <use xlink:href="#DejaVuSans-39" transform="translate(128.203125 39.046875)scale(0.7)"/>
      </g>
     </g>
    </g>
    <g id="ytick_4">
     <g id="line2d_10">
      <g>
       <use xlink:href="#mfcbb1af501" x="57.6" y="116.922268" style="stroke: #000000; stroke-width: 0.8"/>
      </g>
     </g>
     <g id="text_11">
      <!-- $\mathdefault{10^{10}}$ -->
      <g transform="translate(26.29 121.101409)scale(0.11 -0.11)">
       <use xlink:href="#DejaVuSans-31" transform="translate(0 0.765625)"/>
       <use xlink:href="#DejaVuSans-30" transform="translate(63.623047 0.765625)"/>
       <use xlink:href="#DejaVuSans-31" transform="translate(128.203125 39.046875)scale(0.7)"/>
       <use xlink:href="#DejaVuSans-30" transform="translate(172.739258 39.046875)scale(0.7)"/>
      </g>
     </g>
    </g>
    <g id="ytick_5">
     <g id="line2d_11">
      <g>
       <use xlink:href="#mfcbb1af501" x="57.6" y="67.0422" style="stroke: #000000; stroke-width: 0.8"/>
      </g>
     </g>
     <g id="text_12">
      <!-- $\mathdefault{10^{11}}$ -->
      <g transform="translate(26.29 71.221341)scale(0.11 -0.11)">
       <use xlink:href="#DejaVuSans-31" transform="translate(0 0.684375)"/>
       <use xlink:href="#DejaVuSans-30" transform="translate(63.623047 0.684375)"/>
       <use xlink:href="#DejaVuSans-31" transform="translate(128.203125 38.965625)scale(0.7)"/>
       <use xlink:href="#DejaVuSans-31" transform="translate(172.739258 38.965625)scale(0.7)"/>
      </g>
     </g>
    </g>
    <g id="ytick_6">
     <g id="line2d_12">
      <defs>
       <path id="madf1e86d70" d="M 0 0 
L -2 0 
" style="stroke: #000000; stroke-width: 0.6"/>
      </defs>
      <g>
       <use xlink:href="#madf1e86d70" x="57.6" y="292.6437" style="stroke: #000000; stroke-width: 0.6"/>
      </g>
     </g>
    </g>
    <g id="ytick_7">
     <g id="line2d_13">
      <g>
       <use xlink:href="#madf1e86d70" x="57.6" y="286.411747" style="stroke: #000000; stroke-width: 0.6"/>
      </g>
     </g>
    </g>
    <g id="ytick_8">
     <g id="line2d_14">
      <g>
       <use xlink:href="#madf1e86d70" x="57.6" y="281.577869" style="stroke: #000000; stroke-width: 0.6"/>
      </g>
     </g>
    </g>
    <g id="ytick_9">
     <g id="line2d_15">
      <g>
       <use xlink:href="#madf1e86d70" x="57.6" y="277.628303" style="stroke: #000000; stroke-width: 0.6"/>
      </g>
     </g>
    </g>
    <g id="ytick_10">
     <g id="line2d_16">
      <g>
       <use xlink:href="#madf1e86d70" x="57.6" y="274.288993" style="stroke: #000000; stroke-width: 0.6"/>
      </g>
     </g>
    </g>
    <g id="ytick_11">
     <g id="line2d_17">
      <g>
       <use xlink:href="#madf1e86d70" x="57.6" y="271.39635" style="stroke: #000000; stroke-width: 0.6"/>
      </g>
     </g>
    </g>
    <g id="ytick_12">
     <g id="line2d_18">
      <g>
       <use xlink:href="#madf1e86d70" x="57.6" y="268.844859" style="stroke: #000000; stroke-width: 0.6"/>
      </g>
     </g>
    </g>
    <g id="ytick_13">
     <g id="line2d_19">
      <g>
       <use xlink:href="#madf1e86d70" x="57.6" y="251.547076" style="stroke: #000000; stroke-width: 0.6"/>
      </g>
     </g>
    </g>
    <g id="ytick_14">
     <g id="line2d_20">
      <g>
       <use xlink:href="#madf1e86d70" x="57.6" y="242.763632" style="stroke: #000000; stroke-width: 0.6"/>
      </g>
     </g>
    </g>
    <g id="ytick_15">
     <g id="line2d_21">
      <g>
       <use xlink:href="#madf1e86d70" x="57.6" y="236.531679" style="stroke: #000000; stroke-width: 0.6"/>
      </g>
     </g>
    </g>
    <g id="ytick_16">
     <g id="line2d_22">
      <g>
       <use xlink:href="#madf1e86d70" x="57.6" y="231.697801" style="stroke: #000000; stroke-width: 0.6"/>
      </g>
     </g>
    </g>
    <g id="ytick_17">
     <g id="line2d_23">
      <g>
       <use xlink:href="#madf1e86d70" x="57.6" y="227.748235" style="stroke: #000000; stroke-width: 0.6"/>
      </g>
     </g>
    </g>
    <g id="ytick_18">
     <g id="line2d_24">
      <g>
       <use xlink:href="#madf1e86d70" x="57.6" y="224.408925" style="stroke: #000000; stroke-width: 0.6"/>
      </g>
     </g>
    </g>
    <g id="ytick_19">
     <g id="line2d_25">
      <g>
       <use xlink:href="#madf1e86d70" x="57.6" y="221.516282" style="stroke: #000000; stroke-width: 0.6"/>
      </g>
     </g>
    </g>
    <g id="ytick_20">
     <g id="line2d_26">
      <g>
       <use xlink:href="#madf1e86d70" x="57.6" y="218.964791" style="stroke: #000000; stroke-width: 0.6"/>
      </g>
     </g>
    </g>
    <g id="ytick_21">
     <g id="line2d_27">
      <g>
       <use xlink:href="#madf1e86d70" x="57.6" y="201.667008" style="stroke: #000000; stroke-width: 0.6"/>
      </g>
     </g>
    </g>
    <g id="ytick_22">
     <g id="line2d_28">
      <g>
       <use xlink:href="#madf1e86d70" x="57.6" y="192.883564" style="stroke: #000000; stroke-width: 0.6"/>
      </g>
     </g>
    </g>
    <g id="ytick_23">
     <g id="line2d_29">
      <g>
       <use xlink:href="#madf1e86d70" x="57.6" y="186.651611" style="stroke: #000000; stroke-width: 0.6"/>
      </g>
     </g>
    </g>
    <g id="ytick_24">
     <g id="line2d_30">
      <g>
       <use xlink:href="#madf1e86d70" x="57.6" y="181.817733" style="stroke: #000000; stroke-width: 0.6"/>
      </g>
     </g>
    </g>
    <g id="ytick_25">
     <g id="line2d_31">
      <g>
       <use xlink:href="#madf1e86d70" x="57.6" y="177.868167" style="stroke: #000000; stroke-width: 0.6"/>
      </g>
     </g>
    </g>
    <g id="ytick_26">
     <g id="line2d_32">
      <g>
       <use xlink:href="#madf1e86d70" x="57.6" y="174.528857" style="stroke: #000000; stroke-width: 0.6"/>
      </g>
     </g>
    </g>
    <g id="ytick_27">
     <g id="line2d_33">
      <g>
       <use xlink:href="#madf1e86d70" x="57.6" y="171.636214" style="stroke: #000000; stroke-width: 0.6"/>
      </g>
     </g>
    </g>
    <g id="ytick_28">
     <g id="line2d_34">
      <g>
       <use xlink:href="#madf1e86d70" x="57.6" y="169.084723" style="stroke: #000000; stroke-width: 0.6"/>
      </g>
     </g>
    </g>
    <g id="ytick_29">
     <g id="line2d_35">
      <g>
       <use xlink:href="#madf1e86d70" x="57.6" y="151.78694" style="stroke: #000000; stroke-width: 0.6"/>
      </g>
     </g>
    </g>
    <g id="ytick_30">
     <g id="line2d_36">
      <g>
       <use xlink:href="#madf1e86d70" x="57.6" y="143.003496" style="stroke: #000000; stroke-width: 0.6"/>
      </g>
     </g>
    </g>
    <g id="ytick_31">
     <g id="line2d_37">
      <g>
       <use xlink:href="#madf1e86d70" x="57.6" y="136.771543" style="stroke: #000000; stroke-width: 0.6"/>
      </g>
     </g>
    </g>
    <g id="ytick_32">
     <g id="line2d_38">
      <g>
       <use xlink:href="#madf1e86d70" x="57.6" y="131.937665" style="stroke: #000000; stroke-width: 0.6"/>
      </g>
     </g>
    </g>
    <g id="ytick_33">
     <g id="line2d_39">
      <g>
       <use xlink:href="#madf1e86d70" x="57.6" y="127.988099" style="stroke: #000000; stroke-width: 0.6"/>
      </g>
     </g>
    </g>
    <g id="ytick_34">
     <g id="line2d_40">
      <g>
       <use xlink:href="#madf1e86d70" x="57.6" y="124.648789" style="stroke: #000000; stroke-width: 0.6"/>
      </g>
     </g>
    </g>
    <g id="ytick_35">
     <g id="line2d_41">
      <g>
       <use xlink:href="#madf1e86d70" x="57.6" y="121.756146" style="stroke: #000000; stroke-width: 0.6"/>
      </g>
     </g>
    </g>
    <g id="ytick_36">
     <g id="line2d_42">
      <g>
       <use xlink:href="#madf1e86d70" x="57.6" y="119.204655" style="stroke: #000000; stroke-width: 0.6"/>
      </g>
     </g>
    </g>
    <g id="ytick_37">
     <g id="line2d_43">
      <g>
       <use xlink:href="#madf1e86d70" x="57.6" y="101.906872" style="stroke: #000000; stroke-width: 0.6"/>
      </g>
     </g>
    </g>
    <g id="ytick_38">
     <g id="line2d_44">
      <g>
       <use xlink:href="#madf1e86d70" x="57.6" y="93.123428" style="stroke: #000000; stroke-width: 0.6"/>
      </g>
     </g>
    </g>
    <g id="ytick_39">
     <g id="line2d_45">
      <g>
       <use xlink:href="#madf1e86d70" x="57.6" y="86.891475" style="stroke: #000000; stroke-width: 0.6"/>
      </g>
     </g>
    </g>
    <g id="ytick_40">
     <g id="line2d_46">
      <g>
       <use xlink:href="#madf1e86d70" x="57.6" y="82.057597" style="stroke: #000000; stroke-width: 0.6"/>
      </g>
     </g>
    </g>
    <g id="ytick_41">
     <g id="line2d_47">
      <g>
       <use xlink:href="#madf1e86d70" x="57.6" y="78.108031" style="stroke: #000000; stroke-width: 0.6"/>
      </g>
     </g>
    </g>
    <g id="ytick_42">
     <g id="line2d_48">
      <g>
       <use xlink:href="#madf1e86d70" x="57.6" y="74.768721" style="stroke: #000000; stroke-width: 0.6"/>
      </g>
     </g>
    </g>
    <g id="ytick_43">
     <g id="line2d_49">
      <g>
       <use xlink:href="#madf1e86d70" x="57.6" y="71.876078" style="stroke: #000000; stroke-width: 0.6"/>
      </g>
     </g>
    </g>
    <g id="ytick_44">
     <g id="line2d_50">
      <g>
       <use xlink:href="#madf1e86d70" x="57.6" y="69.324587" style="stroke: #000000; stroke-width: 0.6"/>
      </g>
     </g>
    </g>
    <g id="ytick_45">
     <g id="line2d_51">
      <g>
       <use xlink:href="#madf1e86d70" x="57.6" y="52.026804" style="stroke: #000000; stroke-width: 0.6"/>
      </g>
     </g>
    </g>
    <g id="ytick_46">
     <g id="line2d_52">
      <g>
       <use xlink:href="#madf1e86d70" x="57.6" y="43.24336" style="stroke: #000000; stroke-width: 0.6"/>
      </g>
     </g>
    </g>
    <g id="text_13">
     <!-- Median NEPS -->
     <g transform="translate(19.378437 213.626781)rotate(-90)scale(0.14 -0.14)">
      <defs>
       <path id="DejaVuSans-4d" d="M 628 4666 
L 1569 4666 
L 2759 1491 
L 3956 4666 
L 4897 4666 
L 4897 0 
L 4281 0 
L 4281 4097 
L 3078 897 
L 2444 897 
L 1241 4097 
L 1241 0 
L 628 0 
L 628 4666 
z
" transform="scale(0.015625)"/>
       <path id="DejaVuSans-64" d="M 2906 2969 
L 2906 4863 
L 3481 4863 
L 3481 0 
L 2906 0 
L 2906 525 
Q 2725 213 2448 61 
Q 2172 -91 1784 -91 
Q 1150 -91 751 415 
Q 353 922 353 1747 
Q 353 2572 751 3078 
Q 1150 3584 1784 3584 
Q 2172 3584 2448 3432 
Q 2725 3281 2906 2969 
z
M 947 1747 
Q 947 1113 1208 752 
Q 1469 391 1925 391 
Q 2381 391 2643 752 
Q 2906 1113 2906 1747 
Q 2906 2381 2643 2742 
Q 2381 3103 1925 3103 
Q 1469 3103 1208 2742 
Q 947 2381 947 1747 
z
" transform="scale(0.015625)"/>
       <path id="DejaVuSans-4e" d="M 628 4666 
L 1478 4666 
L 3547 763 
L 3547 4666 
L 4159 4666 
L 4159 0 
L 3309 0 
L 1241 3903 
L 1241 0 
L 628 0 
L 628 4666 
z
" transform="scale(0.015625)"/>
       <path id="DejaVuSans-45" d="M 628 4666 
L 3578 4666 
L 3578 4134 
L 1259 4134 
L 1259 2753 
L 3481 2753 
L 3481 2222 
L 1259 2222 
L 1259 531 
L 3634 531 
L 3634 0 
L 628 0 
L 628 4666 
z
" transform="scale(0.015625)"/>
       <path id="DejaVuSans-50" d="M 1259 4147 
L 1259 2394 
L 2053 2394 
Q 2494 2394 2734 2622 
Q 2975 2850 2975 3272 
Q 2975 3691 2734 3919 
Q 2494 4147 2053 4147 
L 1259 4147 
z
M 628 4666 
L 2053 4666 
Q 2838 4666 3239 4311 
Q 3641 3956 3641 3272 
Q 3641 2581 3239 2228 
Q 2838 1875 2053 1875 
L 1259 1875 
L 1259 0 
L 628 0 
L 628 4666 
z
" transform="scale(0.015625)"/>
       <path id="DejaVuSans-53" d="M 3425 4513 
L 3425 3897 
Q 3066 4069 2747 4153 
Q 2428 4238 2131 4238 
Q 1616 4238 1336 4038 
Q 1056 3838 1056 3469 
Q 1056 3159 1242 3001 
Q 1428 2844 1947 2747 
L 2328 2669 
Q 3034 2534 3370 2195 
Q 3706 1856 3706 1288 
Q 3706 609 3251 259 
Q 2797 -91 1919 -91 
Q 1588 -91 1214 -16 
Q 841 59 441 206 
L 441 856 
Q 825 641 1194 531 
Q 1563 422 1919 422 
Q 2459 422 2753 634 
Q 3047 847 3047 1241 
Q 3047 1584 2836 1778 
Q 2625 1972 2144 2069 
L 1759 2144 
Q 1053 2284 737 2584 
Q 422 2884 422 3419 
Q 422 4038 858 4394 
Q 1294 4750 2059 4750 
Q 2388 4750 2728 4690 
Q 3069 4631 3425 4513 
z
" transform="scale(0.015625)"/>
      </defs>
      <use xlink:href="#DejaVuSans-4d"/>
      <use xlink:href="#DejaVuSans-65" x="86.279297"/>
      <use xlink:href="#DejaVuSans-64" x="147.802734"/>
      <use xlink:href="#DejaVuSans-69" x="211.279297"/>
      <use xlink:href="#DejaVuSans-61" x="239.0625"/>
      <use xlink:href="#DejaVuSans-6e" x="300.341797"/>
      <use xlink:href="#DejaVuSans-20" x="363.720703"/>
      <use xlink:href="#DejaVuSans-4e" x="395.507812"/>
      <use xlink:href="#DejaVuSans-45" x="470.3125"/>
      <use xlink:href="#DejaVuSans-50" x="533.496094"/>
      <use xlink:href="#DejaVuSans-53" x="593.798828"/>
     </g>
    </g>
   </g>
   <g id="line2d_53">
    <path d="M 73.832727 282.292364 
L 84.347854 270.384738 
L 94.862981 269.668607 
L 105.378108 269.823957 
L 115.893235 268.065306 
L 126.408362 268.66679 
L 136.923489 268.706595 
L 147.438616 268.513369 
L 157.953743 268.53999 
L 168.46887 268.977726 
L 178.983997 269.16859 
L 189.499124 268.746901 
L 200.014251 269.655779 
L 210.529378 269.691021 
L 221.044505 269.889009 
L 231.559632 269.427786 
L 242.074759 269.648233 
L 252.589886 269.624338 
L 263.105013 269.549403 
L 273.62014 269.598242 
L 284.135267 269.569794 
L 294.650394 269.887138 
L 305.165521 270.21165 
L 315.680648 269.701246 
L 326.195775 269.828273 
L 336.710902 269.974823 
L 347.226029 269.630677 
L 357.741156 270.365969 
L 368.256283 270.117633 
L 378.77141 270.217046 
L 389.286537 270.288171 
L 398.487273 269.961914 
" clip-path="url(#p71fabb45d9)" style="fill: none; stroke: #000000; stroke-width: 0.1; stroke-linecap: square"/>
    <defs>
     <path id="mfb8703819e" d="M -2.5 5 
L 0 2.5 
L 2.5 5 
L 5 2.5 
L 2.5 0 
L 5 -2.5 
L 2.5 -5 
L 0 -2.5 
L -2.5 -5 
L -5 -2.5 
L -2.5 0 
L -5 2.5 
z
" style="stroke: #000000; stroke-linejoin: miter"/>
    </defs>
    <g clip-path="url(#p71fabb45d9)">
     <use xlink:href="#mfb8703819e" x="73.832727" y="282.292364" style="fill: #17becf; stroke: #000000; stroke-linejoin: miter"/>
     <use xlink:href="#mfb8703819e" x="84.347854" y="270.384738" style="fill: #17becf; stroke: #000000; stroke-linejoin: miter"/>
     <use xlink:href="#mfb8703819e" x="94.862981" y="269.668607" style="fill: #17becf; stroke: #000000; stroke-linejoin: miter"/>
     <use xlink:href="#mfb8703819e" x="105.378108" y="269.823957" style="fill: #17becf; stroke: #000000; stroke-linejoin: miter"/>
     <use xlink:href="#mfb8703819e" x="115.893235" y="268.065306" style="fill: #17becf; stroke: #000000; stroke-linejoin: miter"/>
     <use xlink:href="#mfb8703819e" x="126.408362" y="268.66679" style="fill: #17becf; stroke: #000000; stroke-linejoin: miter"/>
     <use xlink:href="#mfb8703819e" x="136.923489" y="268.706595" style="fill: #17becf; stroke: #000000; stroke-linejoin: miter"/>
     <use xlink:href="#mfb8703819e" x="147.438616" y="268.513369" style="fill: #17becf; stroke: #000000; stroke-linejoin: miter"/>
     <use xlink:href="#mfb8703819e" x="157.953743" y="268.53999" style="fill: #17becf; stroke: #000000; stroke-linejoin: miter"/>
     <use xlink:href="#mfb8703819e" x="168.46887" y="268.977726" style="fill: #17becf; stroke: #000000; stroke-linejoin: miter"/>
     <use xlink:href="#mfb8703819e" x="178.983997" y="269.16859" style="fill: #17becf; stroke: #000000; stroke-linejoin: miter"/>
     <use xlink:href="#mfb8703819e" x="189.499124" y="268.746901" style="fill: #17becf; stroke: #000000; stroke-linejoin: miter"/>
     <use xlink:href="#mfb8703819e" x="200.014251" y="269.655779" style="fill: #17becf; stroke: #000000; stroke-linejoin: miter"/>
     <use xlink:href="#mfb8703819e" x="210.529378" y="269.691021" style="fill: #17becf; stroke: #000000; stroke-linejoin: miter"/>
     <use xlink:href="#mfb8703819e" x="221.044505" y="269.889009" style="fill: #17becf; stroke: #000000; stroke-linejoin: miter"/>
     <use xlink:href="#mfb8703819e" x="231.559632" y="269.427786" style="fill: #17becf; stroke: #000000; stroke-linejoin: miter"/>
     <use xlink:href="#mfb8703819e" x="242.074759" y="269.648233" style="fill: #17becf; stroke: #000000; stroke-linejoin: miter"/>
     <use xlink:href="#mfb8703819e" x="252.589886" y="269.624338" style="fill: #17becf; stroke: #000000; stroke-linejoin: miter"/>
     <use xlink:href="#mfb8703819e" x="263.105013" y="269.549403" style="fill: #17becf; stroke: #000000; stroke-linejoin: miter"/>
     <use xlink:href="#mfb8703819e" x="273.62014" y="269.598242" style="fill: #17becf; stroke: #000000; stroke-linejoin: miter"/>
     <use xlink:href="#mfb8703819e" x="284.135267" y="269.569794" style="fill: #17becf; stroke: #000000; stroke-linejoin: miter"/>
     <use xlink:href="#mfb8703819e" x="294.650394" y="269.887138" style="fill: #17becf; stroke: #000000; stroke-linejoin: miter"/>
     <use xlink:href="#mfb8703819e" x="305.165521" y="270.21165" style="fill: #17becf; stroke: #000000; stroke-linejoin: miter"/>
     <use xlink:href="#mfb8703819e" x="315.680648" y="269.701246" style="fill: #17becf; stroke: #000000; stroke-linejoin: miter"/>
     <use xlink:href="#mfb8703819e" x="326.195775" y="269.828273" style="fill: #17becf; stroke: #000000; stroke-linejoin: miter"/>
     <use xlink:href="#mfb8703819e" x="336.710902" y="269.974823" style="fill: #17becf; stroke: #000000; stroke-linejoin: miter"/>
     <use xlink:href="#mfb8703819e" x="347.226029" y="269.630677" style="fill: #17becf; stroke: #000000; stroke-linejoin: miter"/>
     <use xlink:href="#mfb8703819e" x="357.741156" y="270.365969" style="fill: #17becf; stroke: #000000; stroke-linejoin: miter"/>
     <use xlink:href="#mfb8703819e" x="368.256283" y="270.117633" style="fill: #17becf; stroke: #000000; stroke-linejoin: miter"/>
     <use xlink:href="#mfb8703819e" x="378.77141" y="270.217046" style="fill: #17becf; stroke: #000000; stroke-linejoin: miter"/>
     <use xlink:href="#mfb8703819e" x="389.286537" y="270.288171" style="fill: #17becf; stroke: #000000; stroke-linejoin: miter"/>
     <use xlink:href="#mfb8703819e" x="398.487273" y="269.961914" style="fill: #17becf; stroke: #000000; stroke-linejoin: miter"/>
    </g>
   </g>
   <g id="line2d_54">
    <path d="M 57.6 166.802336 
L 414.72 166.802336 
" clip-path="url(#p71fabb45d9)" style="fill: none; stroke-dasharray: 5.55,2.4; stroke-dashoffset: 0; stroke: #808080; stroke-width: 1.5"/>
   </g>
   <g id="line2d_55">
    <path d="M 73.832727 269.252087 
L 84.347854 255.007352 
L 94.862981 249.547356 
L 105.378108 246.657317 
L 115.893235 244.397325 
L 126.408362 242.710061 
L 136.923489 241.293104 
L 147.438616 239.785273 
L 157.953743 239.0581 
L 168.46887 238.102117 
L 178.983997 237.296555 
L 189.499124 236.405402 
L 200.014251 236.132793 
L 210.529378 235.282147 
L 221.044505 234.746109 
L 231.559632 233.948571 
L 242.074759 234.413733 
L 252.589886 234.117648 
L 263.105013 233.654057 
L 273.62014 232.994673 
L 284.135267 232.500473 
L 294.650394 232.017163 
L 305.165521 231.775944 
L 315.680648 231.514326 
L 326.195775 231.797048 
L 336.710902 231.634458 
L 347.226029 230.988292 
L 357.741156 231.08372 
L 368.256283 230.8386 
L 378.77141 230.658892 
L 389.286537 230.345307 
L 398.487273 229.796344 
" clip-path="url(#p71fabb45d9)" style="fill: none; stroke: #000000; stroke-width: 0.1; stroke-linecap: square"/>
    <defs>
     <path id="mef14f63f20" d="M -0 5.5 
L 5.5 -5.5 
L -5.5 -5.5 
z
" style="stroke: #000000; stroke-linejoin: miter"/>
    </defs>
    <g clip-path="url(#p71fabb45d9)">
     <use xlink:href="#mef14f63f20" x="73.832727" y="269.252087" style="fill: #8a2be2; stroke: #000000; stroke-linejoin: miter"/>
     <use xlink:href="#mef14f63f20" x="84.347854" y="255.007352" style="fill: #8a2be2; stroke: #000000; stroke-linejoin: miter"/>
     <use xlink:href="#mef14f63f20" x="94.862981" y="249.547356" style="fill: #8a2be2; stroke: #000000; stroke-linejoin: miter"/>
     <use xlink:href="#mef14f63f20" x="105.378108" y="246.657317" style="fill: #8a2be2; stroke: #000000; stroke-linejoin: miter"/>
     <use xlink:href="#mef14f63f20" x="115.893235" y="244.397325" style="fill: #8a2be2; stroke: #000000; stroke-linejoin: miter"/>
     <use xlink:href="#mef14f63f20" x="126.408362" y="242.710061" style="fill: #8a2be2; stroke: #000000; stroke-linejoin: miter"/>
     <use xlink:href="#mef14f63f20" x="136.923489" y="241.293104" style="fill: #8a2be2; stroke: #000000; stroke-linejoin: miter"/>
     <use xlink:href="#mef14f63f20" x="147.438616" y="239.785273" style="fill: #8a2be2; stroke: #000000; stroke-linejoin: miter"/>
     <use xlink:href="#mef14f63f20" x="157.953743" y="239.0581" style="fill: #8a2be2; stroke: #000000; stroke-linejoin: miter"/>
     <use xlink:href="#mef14f63f20" x="168.46887" y="238.102117" style="fill: #8a2be2; stroke: #000000; stroke-linejoin: miter"/>
     <use xlink:href="#mef14f63f20" x="178.983997" y="237.296555" style="fill: #8a2be2; stroke: #000000; stroke-linejoin: miter"/>
     <use xlink:href="#mef14f63f20" x="189.499124" y="236.405402" style="fill: #8a2be2; stroke: #000000; stroke-linejoin: miter"/>
     <use xlink:href="#mef14f63f20" x="200.014251" y="236.132793" style="fill: #8a2be2; stroke: #000000; stroke-linejoin: miter"/>
     <use xlink:href="#mef14f63f20" x="210.529378" y="235.282147" style="fill: #8a2be2; stroke: #000000; stroke-linejoin: miter"/>
     <use xlink:href="#mef14f63f20" x="221.044505" y="234.746109" style="fill: #8a2be2; stroke: #000000; stroke-linejoin: miter"/>
     <use xlink:href="#mef14f63f20" x="231.559632" y="233.948571" style="fill: #8a2be2; stroke: #000000; stroke-linejoin: miter"/>
     <use xlink:href="#mef14f63f20" x="242.074759" y="234.413733" style="fill: #8a2be2; stroke: #000000; stroke-linejoin: miter"/>
     <use xlink:href="#mef14f63f20" x="252.589886" y="234.117648" style="fill: #8a2be2; stroke: #000000; stroke-linejoin: miter"/>
     <use xlink:href="#mef14f63f20" x="263.105013" y="233.654057" style="fill: #8a2be2; stroke: #000000; stroke-linejoin: miter"/>
     <use xlink:href="#mef14f63f20" x="273.62014" y="232.994673" style="fill: #8a2be2; stroke: #000000; stroke-linejoin: miter"/>
     <use xlink:href="#mef14f63f20" x="284.135267" y="232.500473" style="fill: #8a2be2; stroke: #000000; stroke-linejoin: miter"/>
     <use xlink:href="#mef14f63f20" x="294.650394" y="232.017163" style="fill: #8a2be2; stroke: #000000; stroke-linejoin: miter"/>
     <use xlink:href="#mef14f63f20" x="305.165521" y="231.775944" style="fill: #8a2be2; stroke: #000000; stroke-linejoin: miter"/>
     <use xlink:href="#mef14f63f20" x="315.680648" y="231.514326" style="fill: #8a2be2; stroke: #000000; stroke-linejoin: miter"/>
     <use xlink:href="#mef14f63f20" x="326.195775" y="231.797048" style="fill: #8a2be2; stroke: #000000; stroke-linejoin: miter"/>
     <use xlink:href="#mef14f63f20" x="336.710902" y="231.634458" style="fill: #8a2be2; stroke: #000000; stroke-linejoin: miter"/>
     <use xlink:href="#mef14f63f20" x="347.226029" y="230.988292" style="fill: #8a2be2; stroke: #000000; stroke-linejoin: miter"/>
     <use xlink:href="#mef14f63f20" x="357.741156" y="231.08372" style="fill: #8a2be2; stroke: #000000; stroke-linejoin: miter"/>
     <use xlink:href="#mef14f63f20" x="368.256283" y="230.8386" style="fill: #8a2be2; stroke: #000000; stroke-linejoin: miter"/>
     <use xlink:href="#mef14f63f20" x="378.77141" y="230.658892" style="fill: #8a2be2; stroke: #000000; stroke-linejoin: miter"/>
     <use xlink:href="#mef14f63f20" x="389.286537" y="230.345307" style="fill: #8a2be2; stroke: #000000; stroke-linejoin: miter"/>
     <use xlink:href="#mef14f63f20" x="398.487273" y="229.796344" style="fill: #8a2be2; stroke: #000000; stroke-linejoin: miter"/>
    </g>
   </g>
   <g id="line2d_56">
    <path d="M 57.6 166.802336 
L 414.72 166.802336 
" clip-path="url(#p71fabb45d9)" style="fill: none; stroke-dasharray: 5.55,2.4; stroke-dashoffset: 0; stroke: #808080; stroke-width: 1.5"/>
   </g>
   <g id="line2d_57">
    <path d="M 73.832727 273.238322 
L 84.347854 257.794334 
L 94.862981 251.486583 
L 105.378108 248.081516 
L 115.893235 245.856703 
L 126.408362 243.929403 
L 136.923489 242.473674 
L 147.438616 239.34109 
L 157.953743 239.790799 
L 168.46887 239.290282 
L 178.983997 237.937917 
L 189.499124 238.077288 
L 200.014251 237.703066 
L 210.529378 236.931353 
L 221.044505 233.781939 
L 231.559632 233.395499 
L 242.074759 234.644674 
L 252.589886 233.158902 
L 263.105013 232.757774 
L 273.62014 232.337028 
L 284.135267 232.023793 
L 294.650394 233.40085 
L 305.165521 232.360651 
L 315.680648 232.645164 
L 326.195775 232.941618 
L 336.710902 232.63126 
L 347.226029 230.845181 
L 357.741156 230.400175 
L 368.256283 230.370351 
L 378.77141 229.987633 
L 389.286537 230.212901 
L 398.487273 230.010662 
" clip-path="url(#p71fabb45d9)" style="fill: none; stroke: #000000; stroke-width: 0.1; stroke-linecap: square"/>
    <defs>
     <path id="mf5d8b63ab5" d="M 0 3.75 
C 0.994512 3.75 1.948425 3.354876 2.65165 2.65165 
C 3.354876 1.948425 3.75 0.994512 3.75 0 
C 3.75 -0.994512 3.354876 -1.948425 2.65165 -2.65165 
C 1.948425 -3.354876 0.994512 -3.75 0 -3.75 
C -0.994512 -3.75 -1.948425 -3.354876 -2.65165 -2.65165 
C -3.354876 -1.948425 -3.75 -0.994512 -3.75 0 
C -3.75 0.994512 -3.354876 1.948425 -2.65165 2.65165 
C -1.948425 3.354876 -0.994512 3.75 0 3.75 
z
" style="stroke: #000000"/>
    </defs>
    <g clip-path="url(#p71fabb45d9)">
     <use xlink:href="#mf5d8b63ab5" x="73.832727" y="273.238322" style="fill: #1e90ff; stroke: #000000"/>
     <use xlink:href="#mf5d8b63ab5" x="84.347854" y="257.794334" style="fill: #1e90ff; stroke: #000000"/>
     <use xlink:href="#mf5d8b63ab5" x="94.862981" y="251.486583" style="fill: #1e90ff; stroke: #000000"/>
     <use xlink:href="#mf5d8b63ab5" x="105.378108" y="248.081516" style="fill: #1e90ff; stroke: #000000"/>
     <use xlink:href="#mf5d8b63ab5" x="115.893235" y="245.856703" style="fill: #1e90ff; stroke: #000000"/>
     <use xlink:href="#mf5d8b63ab5" x="126.408362" y="243.929403" style="fill: #1e90ff; stroke: #000000"/>
     <use xlink:href="#mf5d8b63ab5" x="136.923489" y="242.473674" style="fill: #1e90ff; stroke: #000000"/>
     <use xlink:href="#mf5d8b63ab5" x="147.438616" y="239.34109" style="fill: #1e90ff; stroke: #000000"/>
     <use xlink:href="#mf5d8b63ab5" x="157.953743" y="239.790799" style="fill: #1e90ff; stroke: #000000"/>
     <use xlink:href="#mf5d8b63ab5" x="168.46887" y="239.290282" style="fill: #1e90ff; stroke: #000000"/>
     <use xlink:href="#mf5d8b63ab5" x="178.983997" y="237.937917" style="fill: #1e90ff; stroke: #000000"/>
     <use xlink:href="#mf5d8b63ab5" x="189.499124" y="238.077288" style="fill: #1e90ff; stroke: #000000"/>
     <use xlink:href="#mf5d8b63ab5" x="200.014251" y="237.703066" style="fill: #1e90ff; stroke: #000000"/>
     <use xlink:href="#mf5d8b63ab5" x="210.529378" y="236.931353" style="fill: #1e90ff; stroke: #000000"/>
     <use xlink:href="#mf5d8b63ab5" x="221.044505" y="233.781939" style="fill: #1e90ff; stroke: #000000"/>
     <use xlink:href="#mf5d8b63ab5" x="231.559632" y="233.395499" style="fill: #1e90ff; stroke: #000000"/>
     <use xlink:href="#mf5d8b63ab5" x="242.074759" y="234.644674" style="fill: #1e90ff; stroke: #000000"/>
     <use xlink:href="#mf5d8b63ab5" x="252.589886" y="233.158902" style="fill: #1e90ff; stroke: #000000"/>
     <use xlink:href="#mf5d8b63ab5" x="263.105013" y="232.757774" style="fill: #1e90ff; stroke: #000000"/>
     <use xlink:href="#mf5d8b63ab5" x="273.62014" y="232.337028" style="fill: #1e90ff; stroke: #000000"/>
     <use xlink:href="#mf5d8b63ab5" x="284.135267" y="232.023793" style="fill: #1e90ff; stroke: #000000"/>
     <use xlink:href="#mf5d8b63ab5" x="294.650394" y="233.40085" style="fill: #1e90ff; stroke: #000000"/>
     <use xlink:href="#mf5d8b63ab5" x="305.165521" y="232.360651" style="fill: #1e90ff; stroke: #000000"/>
     <use xlink:href="#mf5d8b63ab5" x="315.680648" y="232.645164" style="fill: #1e90ff; stroke: #000000"/>
     <use xlink:href="#mf5d8b63ab5" x="326.195775" y="232.941618" style="fill: #1e90ff; stroke: #000000"/>
     <use xlink:href="#mf5d8b63ab5" x="336.710902" y="232.63126" style="fill: #1e90ff; stroke: #000000"/>
     <use xlink:href="#mf5d8b63ab5" x="347.226029" y="230.845181" style="fill: #1e90ff; stroke: #000000"/>
     <use xlink:href="#mf5d8b63ab5" x="357.741156" y="230.400175" style="fill: #1e90ff; stroke: #000000"/>
     <use xlink:href="#mf5d8b63ab5" x="368.256283" y="230.370351" style="fill: #1e90ff; stroke: #000000"/>
     <use xlink:href="#mf5d8b63ab5" x="378.77141" y="229.987633" style="fill: #1e90ff; stroke: #000000"/>
     <use xlink:href="#mf5d8b63ab5" x="389.286537" y="230.212901" style="fill: #1e90ff; stroke: #000000"/>
     <use xlink:href="#mf5d8b63ab5" x="398.487273" y="230.010662" style="fill: #1e90ff; stroke: #000000"/>
    </g>
   </g>
   <g id="line2d_58">
    <path d="M 57.6 166.802336 
L 414.72 166.802336 
" clip-path="url(#p71fabb45d9)" style="fill: none; stroke-dasharray: 5.55,2.4; stroke-dashoffset: 0; stroke: #808080; stroke-width: 1.5"/>
   </g>
   <g id="line2d_59">
    <path d="M 73.832727 116.059648 
L 84.347854 99.31532 
L 94.862981 89.629683 
L 105.378108 88.185548 
L 115.893235 82.207266 
L 126.408362 79.04596 
L 136.923489 77.021214 
L 147.438616 74.041725 
L 157.953743 73.110311 
L 168.46887 71.227696 
L 178.983997 69.361395 
L 189.499124 68.476238 
L 200.014251 66.662901 
L 210.529378 66.577524 
L 221.044505 65.535124 
L 231.559632 66.53156 
L 242.074759 64.839027 
L 252.589886 63.876766 
L 263.105013 62.471095 
L 273.62014 61.384255 
L 284.135267 60.475874 
L 294.650394 59.812563 
L 305.165521 59.687407 
L 315.680648 57.808438 
L 326.195775 60.062626 
L 336.710902 55.387677 
L 347.226029 57.591121 
L 357.741156 55.534245 
L 368.256283 54.981294 
L 378.77141 55.33956 
L 389.286537 53.331401 
L 398.487273 53.785777 
" clip-path="url(#p71fabb45d9)" style="fill: none; stroke: #000000; stroke-width: 0.1; stroke-linecap: square"/>
    <defs>
     <path id="mefc57f12da" d="M 0 -4.5 
L -4.5 4.5 
L 4.5 4.5 
z
" style="stroke: #000000; stroke-linejoin: miter"/>
    </defs>
    <g clip-path="url(#p71fabb45d9)">
     <use xlink:href="#mefc57f12da" x="73.832727" y="116.059648" style="fill: #ffd700; stroke: #000000; stroke-linejoin: miter"/>
     <use xlink:href="#mefc57f12da" x="84.347854" y="99.31532" style="fill: #ffd700; stroke: #000000; stroke-linejoin: miter"/>
     <use xlink:href="#mefc57f12da" x="94.862981" y="89.629683" style="fill: #ffd700; stroke: #000000; stroke-linejoin: miter"/>
     <use xlink:href="#mefc57f12da" x="105.378108" y="88.185548" style="fill: #ffd700; stroke: #000000; stroke-linejoin: miter"/>
     <use xlink:href="#mefc57f12da" x="115.893235" y="82.207266" style="fill: #ffd700; stroke: #000000; stroke-linejoin: miter"/>
     <use xlink:href="#mefc57f12da" x="126.408362" y="79.04596" style="fill: #ffd700; stroke: #000000; stroke-linejoin: miter"/>
     <use xlink:href="#mefc57f12da" x="136.923489" y="77.021214" style="fill: #ffd700; stroke: #000000; stroke-linejoin: miter"/>
     <use xlink:href="#mefc57f12da" x="147.438616" y="74.041725" style="fill: #ffd700; stroke: #000000; stroke-linejoin: miter"/>
     <use xlink:href="#mefc57f12da" x="157.953743" y="73.110311" style="fill: #ffd700; stroke: #000000; stroke-linejoin: miter"/>
     <use xlink:href="#mefc57f12da" x="168.46887" y="71.227696" style="fill: #ffd700; stroke: #000000; stroke-linejoin: miter"/>
     <use xlink:href="#mefc57f12da" x="178.983997" y="69.361395" style="fill: #ffd700; stroke: #000000; stroke-linejoin: miter"/>
     <use xlink:href="#mefc57f12da" x="189.499124" y="68.476238" style="fill: #ffd700; stroke: #000000; stroke-linejoin: miter"/>
     <use xlink:href="#mefc57f12da" x="200.014251" y="66.662901" style="fill: #ffd700; stroke: #000000; stroke-linejoin: miter"/>
     <use xlink:href="#mefc57f12da" x="210.529378" y="66.577524" style="fill: #ffd700; stroke: #000000; stroke-linejoin: miter"/>
     <use xlink:href="#mefc57f12da" x="221.044505" y="65.535124" style="fill: #ffd700; stroke: #000000; stroke-linejoin: miter"/>
     <use xlink:href="#mefc57f12da" x="231.559632" y="66.53156" style="fill: #ffd700; stroke: #000000; stroke-linejoin: miter"/>
     <use xlink:href="#mefc57f12da" x="242.074759" y="64.839027" style="fill: #ffd700; stroke: #000000; stroke-linejoin: miter"/>
     <use xlink:href="#mefc57f12da" x="252.589886" y="63.876766" style="fill: #ffd700; stroke: #000000; stroke-linejoin: miter"/>
     <use xlink:href="#mefc57f12da" x="263.105013" y="62.471095" style="fill: #ffd700; stroke: #000000; stroke-linejoin: miter"/>
     <use xlink:href="#mefc57f12da" x="273.62014" y="61.384255" style="fill: #ffd700; stroke: #000000; stroke-linejoin: miter"/>
     <use xlink:href="#mefc57f12da" x="284.135267" y="60.475874" style="fill: #ffd700; stroke: #000000; stroke-linejoin: miter"/>
     <use xlink:href="#mefc57f12da" x="294.650394" y="59.812563" style="fill: #ffd700; stroke: #000000; stroke-linejoin: miter"/>
     <use xlink:href="#mefc57f12da" x="305.165521" y="59.687407" style="fill: #ffd700; stroke: #000000; stroke-linejoin: miter"/>
     <use xlink:href="#mefc57f12da" x="315.680648" y="57.808438" style="fill: #ffd700; stroke: #000000; stroke-linejoin: miter"/>
     <use xlink:href="#mefc57f12da" x="326.195775" y="60.062626" style="fill: #ffd700; stroke: #000000; stroke-linejoin: miter"/>
     <use xlink:href="#mefc57f12da" x="336.710902" y="55.387677" style="fill: #ffd700; stroke: #000000; stroke-linejoin: miter"/>
     <use xlink:href="#mefc57f12da" x="347.226029" y="57.591121" style="fill: #ffd700; stroke: #000000; stroke-linejoin: miter"/>
     <use xlink:href="#mefc57f12da" x="357.741156" y="55.534245" style="fill: #ffd700; stroke: #000000; stroke-linejoin: miter"/>
     <use xlink:href="#mefc57f12da" x="368.256283" y="54.981294" style="fill: #ffd700; stroke: #000000; stroke-linejoin: miter"/>
     <use xlink:href="#mefc57f12da" x="378.77141" y="55.33956" style="fill: #ffd700; stroke: #000000; stroke-linejoin: miter"/>
     <use xlink:href="#mefc57f12da" x="389.286537" y="53.331401" style="fill: #ffd700; stroke: #000000; stroke-linejoin: miter"/>
     <use xlink:href="#mefc57f12da" x="398.487273" y="53.785777" style="fill: #ffd700; stroke: #000000; stroke-linejoin: miter"/>
    </g>
   </g>
   <g id="line2d_60">
    <path d="M 57.6 166.802336 
L 414.72 166.802336 
" clip-path="url(#p71fabb45d9)" style="fill: none; stroke-dasharray: 5.55,2.4; stroke-dashoffset: 0; stroke: #808080; stroke-width: 1.5"/>
   </g>
   <g id="line2d_61">
    <path d="M 73.832727 173.854197 
L 84.347854 152.181387 
L 94.862981 141.149334 
L 105.378108 134.136707 
L 115.893235 128.707548 
L 126.408362 124.500697 
L 136.923489 120.910563 
L 147.438616 117.821586 
L 157.953743 115.124158 
L 168.46887 112.675487 
L 178.983997 110.566316 
L 189.499124 108.618315 
L 200.014251 106.826549 
L 210.529378 105.159898 
L 221.044505 103.640607 
L 231.559632 102.18207 
L 242.074759 100.84598 
L 252.589886 99.545441 
L 263.105013 98.347975 
L 273.62014 97.214661 
L 284.135267 96.155538 
L 294.650394 95.129573 
L 305.165521 94.134157 
L 315.680648 93.221565 
L 326.195775 92.307809 
L 336.710902 91.429497 
L 347.226029 90.627865 
L 357.741156 89.791291 
L 368.256283 89.042629 
L 378.77141 88.303813 
L 389.286537 87.581296 
L 398.487273 86.92473 
" clip-path="url(#p71fabb45d9)" style="fill: none; stroke: #000000; stroke-width: 0.1; stroke-linecap: square"/>
    <defs>
     <path id="m7fee57df25" d="M 0 -6 
L -1.347084 -1.854102 
L -5.706339 -1.854102 
L -2.179628 0.708204 
L -3.526712 4.854102 
L -0 2.291796 
L 3.526712 4.854102 
L 2.179628 0.708204 
L 5.706339 -1.854102 
L 1.347084 -1.854102 
z
" style="stroke: #000000; stroke-linejoin: bevel"/>
    </defs>
    <g clip-path="url(#p71fabb45d9)">
     <use xlink:href="#m7fee57df25" x="73.832727" y="173.854197" style="fill: #d62728; stroke: #000000; stroke-linejoin: bevel"/>
     <use xlink:href="#m7fee57df25" x="84.347854" y="152.181387" style="fill: #d62728; stroke: #000000; stroke-linejoin: bevel"/>
     <use xlink:href="#m7fee57df25" x="94.862981" y="141.149334" style="fill: #d62728; stroke: #000000; stroke-linejoin: bevel"/>
     <use xlink:href="#m7fee57df25" x="105.378108" y="134.136707" style="fill: #d62728; stroke: #000000; stroke-linejoin: bevel"/>
     <use xlink:href="#m7fee57df25" x="115.893235" y="128.707548" style="fill: #d62728; stroke: #000000; stroke-linejoin: bevel"/>
     <use xlink:href="#m7fee57df25" x="126.408362" y="124.500697" style="fill: #d62728; stroke: #000000; stroke-linejoin: bevel"/>
     <use xlink:href="#m7fee57df25" x="136.923489" y="120.910563" style="fill: #d62728; stroke: #000000; stroke-linejoin: bevel"/>
     <use xlink:href="#m7fee57df25" x="147.438616" y="117.821586" style="fill: #d62728; stroke: #000000; stroke-linejoin: bevel"/>
     <use xlink:href="#m7fee57df25" x="157.953743" y="115.124158" style="fill: #d62728; stroke: #000000; stroke-linejoin: bevel"/>
     <use xlink:href="#m7fee57df25" x="168.46887" y="112.675487" style="fill: #d62728; stroke: #000000; stroke-linejoin: bevel"/>
     <use xlink:href="#m7fee57df25" x="178.983997" y="110.566316" style="fill: #d62728; stroke: #000000; stroke-linejoin: bevel"/>
     <use xlink:href="#m7fee57df25" x="189.499124" y="108.618315" style="fill: #d62728; stroke: #000000; stroke-linejoin: bevel"/>
     <use xlink:href="#m7fee57df25" x="200.014251" y="106.826549" style="fill: #d62728; stroke: #000000; stroke-linejoin: bevel"/>
     <use xlink:href="#m7fee57df25" x="210.529378" y="105.159898" style="fill: #d62728; stroke: #000000; stroke-linejoin: bevel"/>
     <use xlink:href="#m7fee57df25" x="221.044505" y="103.640607" style="fill: #d62728; stroke: #000000; stroke-linejoin: bevel"/>
     <use xlink:href="#m7fee57df25" x="231.559632" y="102.18207" style="fill: #d62728; stroke: #000000; stroke-linejoin: bevel"/>
     <use xlink:href="#m7fee57df25" x="242.074759" y="100.84598" style="fill: #d62728; stroke: #000000; stroke-linejoin: bevel"/>
     <use xlink:href="#m7fee57df25" x="252.589886" y="99.545441" style="fill: #d62728; stroke: #000000; stroke-linejoin: bevel"/>
     <use xlink:href="#m7fee57df25" x="263.105013" y="98.347975" style="fill: #d62728; stroke: #000000; stroke-linejoin: bevel"/>
     <use xlink:href="#m7fee57df25" x="273.62014" y="97.214661" style="fill: #d62728; stroke: #000000; stroke-linejoin: bevel"/>
     <use xlink:href="#m7fee57df25" x="284.135267" y="96.155538" style="fill: #d62728; stroke: #000000; stroke-linejoin: bevel"/>
     <use xlink:href="#m7fee57df25" x="294.650394" y="95.129573" style="fill: #d62728; stroke: #000000; stroke-linejoin: bevel"/>
     <use xlink:href="#m7fee57df25" x="305.165521" y="94.134157" style="fill: #d62728; stroke: #000000; stroke-linejoin: bevel"/>
     <use xlink:href="#m7fee57df25" x="315.680648" y="93.221565" style="fill: #d62728; stroke: #000000; stroke-linejoin: bevel"/>
     <use xlink:href="#m7fee57df25" x="326.195775" y="92.307809" style="fill: #d62728; stroke: #000000; stroke-linejoin: bevel"/>
     <use xlink:href="#m7fee57df25" x="336.710902" y="91.429497" style="fill: #d62728; stroke: #000000; stroke-linejoin: bevel"/>
     <use xlink:href="#m7fee57df25" x="347.226029" y="90.627865" style="fill: #d62728; stroke: #000000; stroke-linejoin: bevel"/>
     <use xlink:href="#m7fee57df25" x="357.741156" y="89.791291" style="fill: #d62728; stroke: #000000; stroke-linejoin: bevel"/>
     <use xlink:href="#m7fee57df25" x="368.256283" y="89.042629" style="fill: #d62728; stroke: #000000; stroke-linejoin: bevel"/>
     <use xlink:href="#m7fee57df25" x="378.77141" y="88.303813" style="fill: #d62728; stroke: #000000; stroke-linejoin: bevel"/>
     <use xlink:href="#m7fee57df25" x="389.286537" y="87.581296" style="fill: #d62728; stroke: #000000; stroke-linejoin: bevel"/>
     <use xlink:href="#m7fee57df25" x="398.487273" y="86.92473" style="fill: #d62728; stroke: #000000; stroke-linejoin: bevel"/>
    </g>
   </g>
   <g id="line2d_62">
    <path d="M 57.6 166.802336 
L 414.72 166.802336 
" clip-path="url(#p71fabb45d9)" style="fill: none; stroke-dasharray: 5.55,2.4; stroke-dashoffset: 0; stroke: #808080; stroke-width: 1.5"/>
   </g>
   <g id="patch_3">
    <path d="M 57.6 293.76 
L 57.6 41.472 
" style="fill: none; stroke: #000000; stroke-width: 0.8; stroke-linejoin: miter; stroke-linecap: square"/>
   </g>
   <g id="patch_4">
    <path d="M 414.72 293.76 
L 414.72 41.472 
" style="fill: none; stroke: #000000; stroke-width: 0.8; stroke-linejoin: miter; stroke-linecap: square"/>
   </g>
   <g id="patch_5">
    <path d="M 57.6 293.76 
L 414.72 293.76 
" style="fill: none; stroke: #000000; stroke-width: 0.8; stroke-linejoin: miter; stroke-linecap: square"/>
   </g>
   <g id="patch_6">
    <path d="M 57.6 41.472 
L 414.72 41.472 
" style="fill: none; stroke: #000000; stroke-width: 0.8; stroke-linejoin: miter; stroke-linecap: square"/>
   </g>
   <g id="text_14">
    <!-- $10^9$ for scale -->
    <g transform="translate(326.195775 181.817733)scale(0.11 -0.11)">
     <defs>
      <path id="DejaVuSans-66" d="M 2375 4863 
L 2375 4384 
L 1825 4384 
Q 1516 4384 1395 4259 
Q 1275 4134 1275 3809 
L 1275 3500 
L 2222 3500 
L 2222 3053 
L 1275 3053 
L 1275 0 
L 697 0 
L 697 3053 
L 147 3053 
L 147 3500 
L 697 3500 
L 697 3744 
Q 697 4328 969 4595 
Q 1241 4863 1831 4863 
L 2375 4863 
z
" transform="scale(0.015625)"/>
      <path id="DejaVuSans-63" d="M 3122 3366 
L 3122 2828 
Q 2878 2963 2633 3030 
Q 2388 3097 2138 3097 
Q 1578 3097 1268 2742 
Q 959 2388 959 1747 
Q 959 1106 1268 751 
Q 1578 397 2138 397 
Q 2388 397 2633 464 
Q 2878 531 3122 666 
L 3122 134 
Q 2881 22 2623 -34 
Q 2366 -91 2075 -91 
Q 1284 -91 818 406 
Q 353 903 353 1747 
Q 353 2603 823 3093 
Q 1294 3584 2113 3584 
Q 2378 3584 2631 3529 
Q 2884 3475 3122 3366 
z
" transform="scale(0.015625)"/>
      <path id="DejaVuSans-6c" d="M 603 4863 
L 1178 4863 
L 1178 0 
L 603 0 
L 603 4863 
z
" transform="scale(0.015625)"/>
     </defs>
     <use xlink:href="#DejaVuSans-31" transform="translate(0 0.765625)"/>
     <use xlink:href="#DejaVuSans-30" transform="translate(63.623047 0.765625)"/>
     <use xlink:href="#DejaVuSans-39" transform="translate(128.203125 39.046875)scale(0.7)"/>
     <use xlink:href="#DejaVuSans-20" transform="translate(175.473633 0.765625)"/>
     <use xlink:href="#DejaVuSans-66" transform="translate(207.260742 0.765625)"/>
     <use xlink:href="#DejaVuSans-6f" transform="translate(242.46582 0.765625)"/>
     <use xlink:href="#DejaVuSans-72" transform="translate(303.647461 0.765625)"/>
     <use xlink:href="#DejaVuSans-20" transform="translate(344.760742 0.765625)"/>
     <use xlink:href="#DejaVuSans-73" transform="translate(376.547852 0.765625)"/>
     <use xlink:href="#DejaVuSans-63" transform="translate(428.647461 0.765625)"/>
     <use xlink:href="#DejaVuSans-61" transform="translate(483.62793 0.765625)"/>
     <use xlink:href="#DejaVuSans-6c" transform="translate(544.907227 0.765625)"/>
     <use xlink:href="#DejaVuSans-65" transform="translate(572.69043 0.765625)"/>
    </g>
   </g>
  </g>
 </g>
 <defs>
  <clipPath id="p71fabb45d9">
   <rect x="57.6" y="41.472" width="357.12" height="252.288"/>
  </clipPath>
 </defs>
</svg>
