<?xml version="1.0" encoding="utf-8" standalone="no"?>
<!DOCTYPE svg PUBLIC "-//W3C//DTD SVG 1.1//EN"
  "http://www.w3.org/Graphics/SVG/1.1/DTD/svg11.dtd">
<svg xmlns:xlink="http://www.w3.org/1999/xlink" width="921.6pt" height="633.6pt" viewBox="0 0 921.6 633.6" xmlns="http://www.w3.org/2000/svg" version="1.1">
 <metadata>
  <rdf:RDF xmlns:dc="http://purl.org/dc/elements/1.1/" xmlns:cc="http://creativecommons.org/ns#" xmlns:rdf="http://www.w3.org/1999/02/22-rdf-syntax-ns#">
   <cc:Work>
    <dc:type rdf:resource="http://purl.org/dc/dcmitype/StillImage"/>
    <dc:date>2022-11-02T20:32:48.861067</dc:date>
    <dc:format>image/svg+xml</dc:format>
    <dc:creator>
     <cc:Agent>
      <dc:title>Matplotlib v3.5.3, https://matplotlib.org/</dc:title>
     </cc:Agent>
    </dc:creator>
   </cc:Work>
  </rdf:RDF>
 </metadata>
 <defs>
  <style type="text/css">*{stroke-linejoin: round; stroke-linecap: butt}</style>
 </defs>
 <g id="figure_1">
  <g id="patch_1">
   <path d="M 0 633.6 
L 921.6 633.6 
L 921.6 0 
L 0 0 
z
" style="fill: #ffffff"/>
  </g>
  <g id="axes_1">
   <g id="patch_2">
    <path d="M 115.2 563.904 
L 829.44 563.904 
L 829.44 76.032 
L 115.2 76.032 
z
" style="fill: #ffffff"/>
   </g>
   <g id="PolyCollection_1">
    <defs>
     <path id="mb071c39c09" d="M 147.665455 -91.872 
L 147.665455 -91.872 
L 168.610909 -120.307087 
L 189.556364 -134.1866 
L 210.501818 -144.461133 
L 231.447273 -151.213023 
L 252.392727 -155.291407 
L 273.338182 -159.998091 
L 294.283636 -165.487434 
L 315.229091 -165.601568 
L 336.174545 -166.881647 
L 357.12 -168.792995 
L 378.065455 -172.461462 
L 399.010909 -175.332261 
L 419.956364 -176.311479 
L 440.901818 -178.443528 
L 461.847273 -179.460671 
L 482.792727 -180.650142 
L 503.738182 -181.164645 
L 524.683636 -182.580757 
L 545.629091 -182.678024 
L 566.574545 -185.263368 
L 587.52 -183.577503 
L 608.465455 -182.925348 
L 629.410909 -185.525041 
L 650.356364 -187.105719 
L 671.301818 -186.498503 
L 692.247273 -186.866303 
L 713.192727 -188.281747 
L 734.138182 -186.961125 
L 755.083636 -186.478871 
L 776.029091 -188.261511 
L 796.974545 -187.325778 
L 796.974545 -187.325778 
L 796.974545 -187.325778 
L 776.029091 -188.261511 
L 755.083636 -186.478871 
L 734.138182 -186.961125 
L 713.192727 -188.281747 
L 692.247273 -186.866303 
L 671.301818 -186.498503 
L 650.356364 -187.105719 
L 629.410909 -185.525041 
L 608.465455 -182.925348 
L 587.52 -183.577503 
L 566.574545 -185.263368 
L 545.629091 -182.678024 
L 524.683636 -182.580757 
L 503.738182 -181.164645 
L 482.792727 -180.650142 
L 461.847273 -179.460671 
L 440.901818 -178.443528 
L 419.956364 -176.311479 
L 399.010909 -175.332261 
L 378.065455 -172.461462 
L 357.12 -168.792995 
L 336.174545 -166.881647 
L 315.229091 -165.601568 
L 294.283636 -165.487434 
L 273.338182 -159.998091 
L 252.392727 -155.291407 
L 231.447273 -151.213023 
L 210.501818 -144.461133 
L 189.556364 -134.1866 
L 168.610909 -120.307087 
L 147.665455 -91.872 
z
" style="stroke: #fff8dc; stroke-width: 0.48"/>
    </defs>
    <g clip-path="url(#p8dd4f012cd)">
     <use xlink:href="#mb071c39c09" x="0" y="633.6" style="fill: #fff8dc; stroke: #fff8dc; stroke-width: 0.48"/>
    </g>
   </g>
   <g id="PolyCollection_2">
    <defs>
     <path id="md3a637e2bd" d="M 147.665455 -154.328943 
L 147.665455 -154.328943 
L 168.610909 -175.29885 
L 189.556364 -182.384844 
L 210.501818 -187.64554 
L 231.447273 -190.597318 
L 252.392727 -194.479252 
L 273.338182 -196.448306 
L 294.283636 -198.184934 
L 315.229091 -199.34478 
L 336.174545 -201.606097 
L 357.12 -202.712518 
L 378.065455 -204.684868 
L 399.010909 -205.56155 
L 419.956364 -206.336688 
L 440.901818 -207.389787 
L 461.847273 -209.714617 
L 482.792727 -206.616082 
L 503.738182 -207.720627 
L 524.683636 -209.151601 
L 545.629091 -210.056546 
L 566.574545 -210.086695 
L 587.52 -210.189393 
L 608.465455 -211.029014 
L 629.410909 -211.869692 
L 650.356364 -211.800772 
L 671.301818 -211.84915 
L 692.247273 -212.821845 
L 713.192727 -212.731922 
L 734.138182 -213.236503 
L 755.083636 -213.652919 
L 776.029091 -213.736583 
L 796.974545 -214.710953 
L 796.974545 -214.710953 
L 796.974545 -214.710953 
L 776.029091 -213.736583 
L 755.083636 -213.652919 
L 734.138182 -213.236503 
L 713.192727 -212.731922 
L 692.247273 -212.821845 
L 671.301818 -211.84915 
L 650.356364 -211.800772 
L 629.410909 -211.869692 
L 608.465455 -211.029014 
L 587.52 -210.189393 
L 566.574545 -210.086695 
L 545.629091 -210.056546 
L 524.683636 -209.151601 
L 503.738182 -207.720627 
L 482.792727 -206.616082 
L 461.847273 -209.714617 
L 440.901818 -207.389787 
L 419.956364 -206.336688 
L 399.010909 -205.56155 
L 378.065455 -204.684868 
L 357.12 -202.712518 
L 336.174545 -201.606097 
L 315.229091 -199.34478 
L 294.283636 -198.184934 
L 273.338182 -196.448306 
L 252.392727 -194.479252 
L 231.447273 -190.597318 
L 210.501818 -187.64554 
L 189.556364 -182.384844 
L 168.610909 -175.29885 
L 147.665455 -154.328943 
z
" style="stroke: #fff8dc; stroke-width: 0.48"/>
    </defs>
    <g clip-path="url(#p8dd4f012cd)">
     <use xlink:href="#md3a637e2bd" x="0" y="633.6" style="fill: #fff8dc; stroke: #fff8dc; stroke-width: 0.48"/>
    </g>
   </g>
   <g id="PolyCollection_3">
    <defs>
     <path id="mbb2eceb1d3" d="M 147.665455 -143.203888 
L 147.665455 -143.203888 
L 168.610909 -163.235045 
L 189.556364 -169.787497 
L 210.501818 -174.347596 
L 231.447273 -176.665339 
L 252.392727 -181.123153 
L 273.338182 -182.651565 
L 294.283636 -184.80721 
L 315.229091 -186.13699 
L 336.174545 -188.010423 
L 357.12 -188.831327 
L 378.065455 -186.533926 
L 399.010909 -183.052246 
L 419.956364 -185.203357 
L 440.901818 -192.897226 
L 461.847273 -194.941562 
L 482.792727 -192.634886 
L 503.738182 -193.149167 
L 524.683636 -193.753474 
L 545.629091 -194.153623 
L 566.574545 -194.922748 
L 587.52 -195.469041 
L 608.465455 -195.939096 
L 629.410909 -197.163101 
L 650.356364 -196.683944 
L 671.301818 -196.760196 
L 692.247273 -197.5909 
L 713.192727 -197.780692 
L 734.138182 -198.258352 
L 755.083636 -198.524604 
L 776.029091 -198.666434 
L 796.974545 -199.334573 
L 796.974545 -199.334573 
L 796.974545 -199.334573 
L 776.029091 -198.666434 
L 755.083636 -198.524604 
L 734.138182 -198.258352 
L 713.192727 -197.780692 
L 692.247273 -197.5909 
L 671.301818 -196.760196 
L 650.356364 -196.683944 
L 629.410909 -197.163101 
L 608.465455 -195.939096 
L 587.52 -195.469041 
L 566.574545 -194.922748 
L 545.629091 -194.153623 
L 524.683636 -193.753474 
L 503.738182 -193.149167 
L 482.792727 -192.634886 
L 461.847273 -194.941562 
L 440.901818 -192.897226 
L 419.956364 -185.203357 
L 399.010909 -183.052246 
L 378.065455 -186.533926 
L 357.12 -188.831327 
L 336.174545 -188.010423 
L 315.229091 -186.13699 
L 294.283636 -184.80721 
L 273.338182 -182.651565 
L 252.392727 -181.123153 
L 231.447273 -176.665339 
L 210.501818 -174.347596 
L 189.556364 -169.787497 
L 168.610909 -163.235045 
L 147.665455 -143.203888 
z
" style="stroke: #fff8dc; stroke-width: 0.48"/>
    </defs>
    <g clip-path="url(#p8dd4f012cd)">
     <use xlink:href="#mbb2eceb1d3" x="0" y="633.6" style="fill: #fff8dc; stroke: #fff8dc; stroke-width: 0.48"/>
    </g>
   </g>
   <g id="PolyCollection_4">
    <defs>
     <path id="ma51ffe1c11" d="M 147.665455 -351.759763 
L 147.665455 -351.759763 
L 168.610909 -377.371062 
L 189.556364 -393.277328 
L 210.501818 -399.742459 
L 231.447273 -409.257575 
L 252.392727 -409.6445 
L 273.338182 -416.993488 
L 294.283636 -419.681464 
L 315.229091 -421.769898 
L 336.174545 -423.350321 
L 357.12 -427.461699 
L 378.065455 -426.439447 
L 399.010909 -432.307595 
L 419.956364 -435.283779 
L 440.901818 -436.17778 
L 461.847273 -432.610921 
L 482.792727 -437.125941 
L 503.738182 -438.491289 
L 524.683636 -441.589211 
L 545.629091 -431.254404 
L 566.574545 -436.731493 
L 587.52 -442.772731 
L 608.465455 -443.306832 
L 629.410909 -440.985869 
L 650.356364 -436.513899 
L 671.301818 -443.809802 
L 692.247273 -426.780881 
L 713.192727 -438.568336 
L 734.138182 -436.939109 
L 755.083636 -452.189687 
L 776.029091 -447.972138 
L 796.974545 -439.494377 
L 796.974545 -439.494377 
L 796.974545 -458.549564 
L 776.029091 -456.855059 
L 755.083636 -458.818089 
L 734.138182 -461.977092 
L 713.192727 -459.387316 
L 692.247273 -450.580762 
L 671.301818 -449.746686 
L 650.356364 -453.929869 
L 629.410909 -456.954416 
L 608.465455 -451.0949 
L 587.52 -448.344735 
L 566.574545 -447.855165 
L 545.629091 -448.114825 
L 524.683636 -445.529639 
L 503.738182 -441.998372 
L 482.792727 -441.729005 
L 461.847273 -441.672929 
L 440.901818 -440.064791 
L 419.956364 -437.77849 
L 399.010909 -435.312691 
L 378.065455 -435.168903 
L 357.12 -429.23715 
L 336.174545 -428.339191 
L 315.229091 -427.200558 
L 294.283636 -424.608643 
L 273.338182 -422.173395 
L 252.392727 -417.354085 
L 231.447273 -411.844062 
L 210.501818 -409.390687 
L 189.556364 -400.553765 
L 168.610909 -387.166469 
L 147.665455 -361.767717 
z
" style="stroke: #fff8dc; stroke-width: 0.48"/>
    </defs>
    <g clip-path="url(#p8dd4f012cd)">
     <use xlink:href="#ma51ffe1c11" x="0" y="633.6" style="fill: #fff8dc; stroke: #fff8dc; stroke-width: 0.48"/>
    </g>
   </g>
   <g id="PolyCollection_5">
    <defs>
     <path id="meee4e1f1a2" d="M 147.665455 -424.693449 
L 147.665455 -424.693449 
L 168.610909 -454.693701 
L 189.556364 -471.987654 
L 210.501818 -483.342445 
L 231.447273 -491.934372 
L 252.392727 -498.931473 
L 273.338182 -504.6661 
L 294.283636 -509.579705 
L 315.229091 -513.997158 
L 336.174545 -517.832743 
L 357.12 -521.312999 
L 378.065455 -524.443107 
L 399.010909 -527.369584 
L 419.956364 -530.044119 
L 440.901818 -531.460131 
L 461.847273 -531.897189 
L 482.792727 -531.426557 
L 503.738182 -531.655672 
L 524.683636 -531.970871 
L 545.629091 -532.200378 
L 566.574545 -532.641812 
L 587.52 -532.62912 
L 608.465455 -532.937032 
L 629.410909 -533.303652 
L 650.356364 -533.027913 
L 671.301818 -533.251545 
L 692.247273 -533.530414 
L 713.192727 -533.781501 
L 734.138182 -533.685705 
L 755.083636 -534.020601 
L 776.029091 -534.328614 
L 796.974545 -535.392 
L 796.974545 -535.392 
L 796.974545 -535.392 
L 776.029091 -534.328614 
L 755.083636 -534.020601 
L 734.138182 -533.685705 
L 713.192727 -533.781501 
L 692.247273 -533.530414 
L 671.301818 -533.251545 
L 650.356364 -533.027913 
L 629.410909 -533.303652 
L 608.465455 -532.937032 
L 587.52 -532.62912 
L 566.574545 -532.641812 
L 545.629091 -532.200378 
L 524.683636 -531.970871 
L 503.738182 -531.655672 
L 482.792727 -531.426557 
L 461.847273 -531.897189 
L 440.901818 -531.460131 
L 419.956364 -530.044119 
L 399.010909 -527.369584 
L 378.065455 -524.443107 
L 357.12 -521.312999 
L 336.174545 -517.832743 
L 315.229091 -513.997158 
L 294.283636 -509.579705 
L 273.338182 -504.6661 
L 252.392727 -498.931473 
L 231.447273 -491.934372 
L 210.501818 -483.342445 
L 189.556364 -471.987654 
L 168.610909 -454.693701 
L 147.665455 -424.693449 
z
" style="stroke: #fff8dc; stroke-width: 0.48"/>
    </defs>
    <g clip-path="url(#p8dd4f012cd)">
     <use xlink:href="#meee4e1f1a2" x="0" y="633.6" style="fill: #fff8dc; stroke: #fff8dc; stroke-width: 0.48"/>
    </g>
   </g>
   <g id="matplotlib.axis_1">
    <g id="xtick_1">
     <g id="line2d_1">
      <defs>
       <path id="m4ede22d333" d="M 0 0 
L 0 3.5 
" style="stroke: #000000; stroke-width: 1.6"/>
      </defs>
      <g>
       <use xlink:href="#m4ede22d333" x="147.665455" y="563.904" style="stroke: #000000; stroke-width: 1.6"/>
      </g>
     </g>
     <g id="text_1">
      <!-- 1, 8 -->
      <g transform="translate(137.170767 586.962281)scale(0.11 -0.11)">
       <defs>
        <path id="DejaVuSans-31" d="M 794 531 
L 1825 531 
L 1825 4091 
L 703 3866 
L 703 4441 
L 1819 4666 
L 2450 4666 
L 2450 531 
L 3481 531 
L 3481 0 
L 794 0 
L 794 531 
z
" transform="scale(0.015625)"/>
        <path id="DejaVuSans-2c" d="M 750 794 
L 1409 794 
L 1409 256 
L 897 -744 
L 494 -744 
L 750 256 
L 750 794 
z
" transform="scale(0.015625)"/>
        <path id="DejaVuSans-20" transform="scale(0.015625)"/>
        <path id="DejaVuSans-38" d="M 2034 2216 
Q 1584 2216 1326 1975 
Q 1069 1734 1069 1313 
Q 1069 891 1326 650 
Q 1584 409 2034 409 
Q 2484 409 2743 651 
Q 3003 894 3003 1313 
Q 3003 1734 2745 1975 
Q 2488 2216 2034 2216 
z
M 1403 2484 
Q 997 2584 770 2862 
Q 544 3141 544 3541 
Q 544 4100 942 4425 
Q 1341 4750 2034 4750 
Q 2731 4750 3128 4425 
Q 3525 4100 3525 3541 
Q 3525 3141 3298 2862 
Q 3072 2584 2669 2484 
Q 3125 2378 3379 2068 
Q 3634 1759 3634 1313 
Q 3634 634 3220 271 
Q 2806 -91 2034 -91 
Q 1263 -91 848 271 
Q 434 634 434 1313 
Q 434 1759 690 2068 
Q 947 2378 1403 2484 
z
M 1172 3481 
Q 1172 3119 1398 2916 
Q 1625 2713 2034 2713 
Q 2441 2713 2670 2916 
Q 2900 3119 2900 3481 
Q 2900 3844 2670 4047 
Q 2441 4250 2034 4250 
Q 1625 4250 1398 4047 
Q 1172 3844 1172 3481 
z
" transform="scale(0.015625)"/>
       </defs>
       <use xlink:href="#DejaVuSans-31"/>
       <use xlink:href="#DejaVuSans-2c" x="63.623047"/>
       <use xlink:href="#DejaVuSans-20" x="95.410156"/>
       <use xlink:href="#DejaVuSans-38" x="127.197266"/>
      </g>
     </g>
    </g>
    <g id="xtick_2">
     <g id="line2d_2">
      <g>
       <use xlink:href="#m4ede22d333" x="273.338182" y="563.904" style="stroke: #000000; stroke-width: 1.6"/>
      </g>
     </g>
     <g id="text_2">
      <!-- 7, 56 -->
      <g transform="translate(259.344119 586.962281)scale(0.11 -0.11)">
       <defs>
        <path id="DejaVuSans-37" d="M 525 4666 
L 3525 4666 
L 3525 4397 
L 1831 0 
L 1172 0 
L 2766 4134 
L 525 4134 
L 525 4666 
z
" transform="scale(0.015625)"/>
        <path id="DejaVuSans-35" d="M 691 4666 
L 3169 4666 
L 3169 4134 
L 1269 4134 
L 1269 2991 
Q 1406 3038 1543 3061 
Q 1681 3084 1819 3084 
Q 2600 3084 3056 2656 
Q 3513 2228 3513 1497 
Q 3513 744 3044 326 
Q 2575 -91 1722 -91 
Q 1428 -91 1123 -41 
Q 819 9 494 109 
L 494 744 
Q 775 591 1075 516 
Q 1375 441 1709 441 
Q 2250 441 2565 725 
Q 2881 1009 2881 1497 
Q 2881 1984 2565 2268 
Q 2250 2553 1709 2553 
Q 1456 2553 1204 2497 
Q 953 2441 691 2322 
L 691 4666 
z
" transform="scale(0.015625)"/>
        <path id="DejaVuSans-36" d="M 2113 2584 
Q 1688 2584 1439 2293 
Q 1191 2003 1191 1497 
Q 1191 994 1439 701 
Q 1688 409 2113 409 
Q 2538 409 2786 701 
Q 3034 994 3034 1497 
Q 3034 2003 2786 2293 
Q 2538 2584 2113 2584 
z
M 3366 4563 
L 3366 3988 
Q 3128 4100 2886 4159 
Q 2644 4219 2406 4219 
Q 1781 4219 1451 3797 
Q 1122 3375 1075 2522 
Q 1259 2794 1537 2939 
Q 1816 3084 2150 3084 
Q 2853 3084 3261 2657 
Q 3669 2231 3669 1497 
Q 3669 778 3244 343 
Q 2819 -91 2113 -91 
Q 1303 -91 875 529 
Q 447 1150 447 2328 
Q 447 3434 972 4092 
Q 1497 4750 2381 4750 
Q 2619 4750 2861 4703 
Q 3103 4656 3366 4563 
z
" transform="scale(0.015625)"/>
       </defs>
       <use xlink:href="#DejaVuSans-37"/>
       <use xlink:href="#DejaVuSans-2c" x="63.623047"/>
       <use xlink:href="#DejaVuSans-20" x="95.410156"/>
       <use xlink:href="#DejaVuSans-35" x="127.197266"/>
       <use xlink:href="#DejaVuSans-36" x="190.820312"/>
      </g>
     </g>
    </g>
    <g id="xtick_3">
     <g id="line2d_3">
      <g>
       <use xlink:href="#m4ede22d333" x="399.010909" y="563.904" style="stroke: #000000; stroke-width: 1.6"/>
      </g>
     </g>
     <g id="text_3">
      <!-- 13, 104 -->
      <g transform="translate(378.018097 586.962281)scale(0.11 -0.11)">
       <defs>
        <path id="DejaVuSans-33" d="M 2597 2516 
Q 3050 2419 3304 2112 
Q 3559 1806 3559 1356 
Q 3559 666 3084 287 
Q 2609 -91 1734 -91 
Q 1441 -91 1130 -33 
Q 819 25 488 141 
L 488 750 
Q 750 597 1062 519 
Q 1375 441 1716 441 
Q 2309 441 2620 675 
Q 2931 909 2931 1356 
Q 2931 1769 2642 2001 
Q 2353 2234 1838 2234 
L 1294 2234 
L 1294 2753 
L 1863 2753 
Q 2328 2753 2575 2939 
Q 2822 3125 2822 3475 
Q 2822 3834 2567 4026 
Q 2313 4219 1838 4219 
Q 1578 4219 1281 4162 
Q 984 4106 628 3988 
L 628 4550 
Q 988 4650 1302 4700 
Q 1616 4750 1894 4750 
Q 2613 4750 3031 4423 
Q 3450 4097 3450 3541 
Q 3450 3153 3228 2886 
Q 3006 2619 2597 2516 
z
" transform="scale(0.015625)"/>
        <path id="DejaVuSans-30" d="M 2034 4250 
Q 1547 4250 1301 3770 
Q 1056 3291 1056 2328 
Q 1056 1369 1301 889 
Q 1547 409 2034 409 
Q 2525 409 2770 889 
Q 3016 1369 3016 2328 
Q 3016 3291 2770 3770 
Q 2525 4250 2034 4250 
z
M 2034 4750 
Q 2819 4750 3233 4129 
Q 3647 3509 3647 2328 
Q 3647 1150 3233 529 
Q 2819 -91 2034 -91 
Q 1250 -91 836 529 
Q 422 1150 422 2328 
Q 422 3509 836 4129 
Q 1250 4750 2034 4750 
z
" transform="scale(0.015625)"/>
        <path id="DejaVuSans-34" d="M 2419 4116 
L 825 1625 
L 2419 1625 
L 2419 4116 
z
M 2253 4666 
L 3047 4666 
L 3047 1625 
L 3713 1625 
L 3713 1100 
L 3047 1100 
L 3047 0 
L 2419 0 
L 2419 1100 
L 313 1100 
L 313 1709 
L 2253 4666 
z
" transform="scale(0.015625)"/>
       </defs>
       <use xlink:href="#DejaVuSans-31"/>
       <use xlink:href="#DejaVuSans-33" x="63.623047"/>
       <use xlink:href="#DejaVuSans-2c" x="127.246094"/>
       <use xlink:href="#DejaVuSans-20" x="159.033203"/>
       <use xlink:href="#DejaVuSans-31" x="190.820312"/>
       <use xlink:href="#DejaVuSans-30" x="254.443359"/>
       <use xlink:href="#DejaVuSans-34" x="318.066406"/>
      </g>
     </g>
    </g>
    <g id="xtick_4">
     <g id="line2d_4">
      <g>
       <use xlink:href="#m4ede22d333" x="524.683636" y="563.904" style="stroke: #000000; stroke-width: 1.6"/>
      </g>
     </g>
     <g id="text_4">
      <!-- 19, 152 -->
      <g transform="translate(503.690824 586.962281)scale(0.11 -0.11)">
       <defs>
        <path id="DejaVuSans-39" d="M 703 97 
L 703 672 
Q 941 559 1184 500 
Q 1428 441 1663 441 
Q 2288 441 2617 861 
Q 2947 1281 2994 2138 
Q 2813 1869 2534 1725 
Q 2256 1581 1919 1581 
Q 1219 1581 811 2004 
Q 403 2428 403 3163 
Q 403 3881 828 4315 
Q 1253 4750 1959 4750 
Q 2769 4750 3195 4129 
Q 3622 3509 3622 2328 
Q 3622 1225 3098 567 
Q 2575 -91 1691 -91 
Q 1453 -91 1209 -44 
Q 966 3 703 97 
z
M 1959 2075 
Q 2384 2075 2632 2365 
Q 2881 2656 2881 3163 
Q 2881 3666 2632 3958 
Q 2384 4250 1959 4250 
Q 1534 4250 1286 3958 
Q 1038 3666 1038 3163 
Q 1038 2656 1286 2365 
Q 1534 2075 1959 2075 
z
" transform="scale(0.015625)"/>
        <path id="DejaVuSans-32" d="M 1228 531 
L 3431 531 
L 3431 0 
L 469 0 
L 469 531 
Q 828 903 1448 1529 
Q 2069 2156 2228 2338 
Q 2531 2678 2651 2914 
Q 2772 3150 2772 3378 
Q 2772 3750 2511 3984 
Q 2250 4219 1831 4219 
Q 1534 4219 1204 4116 
Q 875 4013 500 3803 
L 500 4441 
Q 881 4594 1212 4672 
Q 1544 4750 1819 4750 
Q 2544 4750 2975 4387 
Q 3406 4025 3406 3419 
Q 3406 3131 3298 2873 
Q 3191 2616 2906 2266 
Q 2828 2175 2409 1742 
Q 1991 1309 1228 531 
z
" transform="scale(0.015625)"/>
       </defs>
       <use xlink:href="#DejaVuSans-31"/>
       <use xlink:href="#DejaVuSans-39" x="63.623047"/>
       <use xlink:href="#DejaVuSans-2c" x="127.246094"/>
       <use xlink:href="#DejaVuSans-20" x="159.033203"/>
       <use xlink:href="#DejaVuSans-31" x="190.820312"/>
       <use xlink:href="#DejaVuSans-35" x="254.443359"/>
       <use xlink:href="#DejaVuSans-32" x="318.066406"/>
      </g>
     </g>
    </g>
    <g id="xtick_5">
     <g id="line2d_5">
      <g>
       <use xlink:href="#m4ede22d333" x="650.356364" y="563.904" style="stroke: #000000; stroke-width: 1.6"/>
      </g>
     </g>
     <g id="text_5">
      <!-- 25, 200 -->
      <g transform="translate(629.363551 586.962281)scale(0.11 -0.11)">
       <use xlink:href="#DejaVuSans-32"/>
       <use xlink:href="#DejaVuSans-35" x="63.623047"/>
       <use xlink:href="#DejaVuSans-2c" x="127.246094"/>
       <use xlink:href="#DejaVuSans-20" x="159.033203"/>
       <use xlink:href="#DejaVuSans-32" x="190.820312"/>
       <use xlink:href="#DejaVuSans-30" x="254.443359"/>
       <use xlink:href="#DejaVuSans-30" x="318.066406"/>
      </g>
     </g>
    </g>
    <g id="xtick_6">
     <g id="line2d_6">
      <g>
       <use xlink:href="#m4ede22d333" x="776.029091" y="563.904" style="stroke: #000000; stroke-width: 1.6"/>
      </g>
     </g>
     <g id="text_6">
      <!-- 31, 248 -->
      <g transform="translate(755.036278 586.962281)scale(0.11 -0.11)">
       <use xlink:href="#DejaVuSans-33"/>
       <use xlink:href="#DejaVuSans-31" x="63.623047"/>
       <use xlink:href="#DejaVuSans-2c" x="127.246094"/>
       <use xlink:href="#DejaVuSans-20" x="159.033203"/>
       <use xlink:href="#DejaVuSans-32" x="190.820312"/>
       <use xlink:href="#DejaVuSans-34" x="254.443359"/>
       <use xlink:href="#DejaVuSans-38" x="318.066406"/>
      </g>
     </g>
    </g>
    <g id="text_7">
     <!-- Bin number, maximum program size -->
     <g transform="translate(343.975 603.88775)scale(0.14 -0.14)">
      <defs>
       <path id="DejaVuSans-42" d="M 1259 2228 
L 1259 519 
L 2272 519 
Q 2781 519 3026 730 
Q 3272 941 3272 1375 
Q 3272 1813 3026 2020 
Q 2781 2228 2272 2228 
L 1259 2228 
z
M 1259 4147 
L 1259 2741 
L 2194 2741 
Q 2656 2741 2882 2914 
Q 3109 3088 3109 3444 
Q 3109 3797 2882 3972 
Q 2656 4147 2194 4147 
L 1259 4147 
z
M 628 4666 
L 2241 4666 
Q 2963 4666 3353 4366 
Q 3744 4066 3744 3513 
Q 3744 3084 3544 2831 
Q 3344 2578 2956 2516 
Q 3422 2416 3680 2098 
Q 3938 1781 3938 1306 
Q 3938 681 3513 340 
Q 3088 0 2303 0 
L 628 0 
L 628 4666 
z
" transform="scale(0.015625)"/>
       <path id="DejaVuSans-69" d="M 603 3500 
L 1178 3500 
L 1178 0 
L 603 0 
L 603 3500 
z
M 603 4863 
L 1178 4863 
L 1178 4134 
L 603 4134 
L 603 4863 
z
" transform="scale(0.015625)"/>
       <path id="DejaVuSans-6e" d="M 3513 2113 
L 3513 0 
L 2938 0 
L 2938 2094 
Q 2938 2591 2744 2837 
Q 2550 3084 2163 3084 
Q 1697 3084 1428 2787 
Q 1159 2491 1159 1978 
L 1159 0 
L 581 0 
L 581 3500 
L 1159 3500 
L 1159 2956 
Q 1366 3272 1645 3428 
Q 1925 3584 2291 3584 
Q 2894 3584 3203 3211 
Q 3513 2838 3513 2113 
z
" transform="scale(0.015625)"/>
       <path id="DejaVuSans-75" d="M 544 1381 
L 544 3500 
L 1119 3500 
L 1119 1403 
Q 1119 906 1312 657 
Q 1506 409 1894 409 
Q 2359 409 2629 706 
Q 2900 1003 2900 1516 
L 2900 3500 
L 3475 3500 
L 3475 0 
L 2900 0 
L 2900 538 
Q 2691 219 2414 64 
Q 2138 -91 1772 -91 
Q 1169 -91 856 284 
Q 544 659 544 1381 
z
M 1991 3584 
L 1991 3584 
z
" transform="scale(0.015625)"/>
       <path id="DejaVuSans-6d" d="M 3328 2828 
Q 3544 3216 3844 3400 
Q 4144 3584 4550 3584 
Q 5097 3584 5394 3201 
Q 5691 2819 5691 2113 
L 5691 0 
L 5113 0 
L 5113 2094 
Q 5113 2597 4934 2840 
Q 4756 3084 4391 3084 
Q 3944 3084 3684 2787 
Q 3425 2491 3425 1978 
L 3425 0 
L 2847 0 
L 2847 2094 
Q 2847 2600 2669 2842 
Q 2491 3084 2119 3084 
Q 1678 3084 1418 2786 
Q 1159 2488 1159 1978 
L 1159 0 
L 581 0 
L 581 3500 
L 1159 3500 
L 1159 2956 
Q 1356 3278 1631 3431 
Q 1906 3584 2284 3584 
Q 2666 3584 2933 3390 
Q 3200 3197 3328 2828 
z
" transform="scale(0.015625)"/>
       <path id="DejaVuSans-62" d="M 3116 1747 
Q 3116 2381 2855 2742 
Q 2594 3103 2138 3103 
Q 1681 3103 1420 2742 
Q 1159 2381 1159 1747 
Q 1159 1113 1420 752 
Q 1681 391 2138 391 
Q 2594 391 2855 752 
Q 3116 1113 3116 1747 
z
M 1159 2969 
Q 1341 3281 1617 3432 
Q 1894 3584 2278 3584 
Q 2916 3584 3314 3078 
Q 3713 2572 3713 1747 
Q 3713 922 3314 415 
Q 2916 -91 2278 -91 
Q 1894 -91 1617 61 
Q 1341 213 1159 525 
L 1159 0 
L 581 0 
L 581 4863 
L 1159 4863 
L 1159 2969 
z
" transform="scale(0.015625)"/>
       <path id="DejaVuSans-65" d="M 3597 1894 
L 3597 1613 
L 953 1613 
Q 991 1019 1311 708 
Q 1631 397 2203 397 
Q 2534 397 2845 478 
Q 3156 559 3463 722 
L 3463 178 
Q 3153 47 2828 -22 
Q 2503 -91 2169 -91 
Q 1331 -91 842 396 
Q 353 884 353 1716 
Q 353 2575 817 3079 
Q 1281 3584 2069 3584 
Q 2775 3584 3186 3129 
Q 3597 2675 3597 1894 
z
M 3022 2063 
Q 3016 2534 2758 2815 
Q 2500 3097 2075 3097 
Q 1594 3097 1305 2825 
Q 1016 2553 972 2059 
L 3022 2063 
z
" transform="scale(0.015625)"/>
       <path id="DejaVuSans-72" d="M 2631 2963 
Q 2534 3019 2420 3045 
Q 2306 3072 2169 3072 
Q 1681 3072 1420 2755 
Q 1159 2438 1159 1844 
L 1159 0 
L 581 0 
L 581 3500 
L 1159 3500 
L 1159 2956 
Q 1341 3275 1631 3429 
Q 1922 3584 2338 3584 
Q 2397 3584 2469 3576 
Q 2541 3569 2628 3553 
L 2631 2963 
z
" transform="scale(0.015625)"/>
       <path id="DejaVuSans-61" d="M 2194 1759 
Q 1497 1759 1228 1600 
Q 959 1441 959 1056 
Q 959 750 1161 570 
Q 1363 391 1709 391 
Q 2188 391 2477 730 
Q 2766 1069 2766 1631 
L 2766 1759 
L 2194 1759 
z
M 3341 1997 
L 3341 0 
L 2766 0 
L 2766 531 
Q 2569 213 2275 61 
Q 1981 -91 1556 -91 
Q 1019 -91 701 211 
Q 384 513 384 1019 
Q 384 1609 779 1909 
Q 1175 2209 1959 2209 
L 2766 2209 
L 2766 2266 
Q 2766 2663 2505 2880 
Q 2244 3097 1772 3097 
Q 1472 3097 1187 3025 
Q 903 2953 641 2809 
L 641 3341 
Q 956 3463 1253 3523 
Q 1550 3584 1831 3584 
Q 2591 3584 2966 3190 
Q 3341 2797 3341 1997 
z
" transform="scale(0.015625)"/>
       <path id="DejaVuSans-78" d="M 3513 3500 
L 2247 1797 
L 3578 0 
L 2900 0 
L 1881 1375 
L 863 0 
L 184 0 
L 1544 1831 
L 300 3500 
L 978 3500 
L 1906 2253 
L 2834 3500 
L 3513 3500 
z
" transform="scale(0.015625)"/>
       <path id="DejaVuSans-70" d="M 1159 525 
L 1159 -1331 
L 581 -1331 
L 581 3500 
L 1159 3500 
L 1159 2969 
Q 1341 3281 1617 3432 
Q 1894 3584 2278 3584 
Q 2916 3584 3314 3078 
Q 3713 2572 3713 1747 
Q 3713 922 3314 415 
Q 2916 -91 2278 -91 
Q 1894 -91 1617 61 
Q 1341 213 1159 525 
z
M 3116 1747 
Q 3116 2381 2855 2742 
Q 2594 3103 2138 3103 
Q 1681 3103 1420 2742 
Q 1159 2381 1159 1747 
Q 1159 1113 1420 752 
Q 1681 391 2138 391 
Q 2594 391 2855 752 
Q 3116 1113 3116 1747 
z
" transform="scale(0.015625)"/>
       <path id="DejaVuSans-6f" d="M 1959 3097 
Q 1497 3097 1228 2736 
Q 959 2375 959 1747 
Q 959 1119 1226 758 
Q 1494 397 1959 397 
Q 2419 397 2687 759 
Q 2956 1122 2956 1747 
Q 2956 2369 2687 2733 
Q 2419 3097 1959 3097 
z
M 1959 3584 
Q 2709 3584 3137 3096 
Q 3566 2609 3566 1747 
Q 3566 888 3137 398 
Q 2709 -91 1959 -91 
Q 1206 -91 779 398 
Q 353 888 353 1747 
Q 353 2609 779 3096 
Q 1206 3584 1959 3584 
z
" transform="scale(0.015625)"/>
       <path id="DejaVuSans-67" d="M 2906 1791 
Q 2906 2416 2648 2759 
Q 2391 3103 1925 3103 
Q 1463 3103 1205 2759 
Q 947 2416 947 1791 
Q 947 1169 1205 825 
Q 1463 481 1925 481 
Q 2391 481 2648 825 
Q 2906 1169 2906 1791 
z
M 3481 434 
Q 3481 -459 3084 -895 
Q 2688 -1331 1869 -1331 
Q 1566 -1331 1297 -1286 
Q 1028 -1241 775 -1147 
L 775 -588 
Q 1028 -725 1275 -790 
Q 1522 -856 1778 -856 
Q 2344 -856 2625 -561 
Q 2906 -266 2906 331 
L 2906 616 
Q 2728 306 2450 153 
Q 2172 0 1784 0 
Q 1141 0 747 490 
Q 353 981 353 1791 
Q 353 2603 747 3093 
Q 1141 3584 1784 3584 
Q 2172 3584 2450 3431 
Q 2728 3278 2906 2969 
L 2906 3500 
L 3481 3500 
L 3481 434 
z
" transform="scale(0.015625)"/>
       <path id="DejaVuSans-73" d="M 2834 3397 
L 2834 2853 
Q 2591 2978 2328 3040 
Q 2066 3103 1784 3103 
Q 1356 3103 1142 2972 
Q 928 2841 928 2578 
Q 928 2378 1081 2264 
Q 1234 2150 1697 2047 
L 1894 2003 
Q 2506 1872 2764 1633 
Q 3022 1394 3022 966 
Q 3022 478 2636 193 
Q 2250 -91 1575 -91 
Q 1294 -91 989 -36 
Q 684 19 347 128 
L 347 722 
Q 666 556 975 473 
Q 1284 391 1588 391 
Q 1994 391 2212 530 
Q 2431 669 2431 922 
Q 2431 1156 2273 1281 
Q 2116 1406 1581 1522 
L 1381 1569 
Q 847 1681 609 1914 
Q 372 2147 372 2553 
Q 372 3047 722 3315 
Q 1072 3584 1716 3584 
Q 2034 3584 2315 3537 
Q 2597 3491 2834 3397 
z
" transform="scale(0.015625)"/>
       <path id="DejaVuSans-7a" d="M 353 3500 
L 3084 3500 
L 3084 2975 
L 922 459 
L 3084 459 
L 3084 0 
L 275 0 
L 275 525 
L 2438 3041 
L 353 3041 
L 353 3500 
z
" transform="scale(0.015625)"/>
      </defs>
      <use xlink:href="#DejaVuSans-42"/>
      <use xlink:href="#DejaVuSans-69" x="68.603516"/>
      <use xlink:href="#DejaVuSans-6e" x="96.386719"/>
      <use xlink:href="#DejaVuSans-20" x="159.765625"/>
      <use xlink:href="#DejaVuSans-6e" x="191.552734"/>
      <use xlink:href="#DejaVuSans-75" x="254.931641"/>
      <use xlink:href="#DejaVuSans-6d" x="318.310547"/>
      <use xlink:href="#DejaVuSans-62" x="415.722656"/>
      <use xlink:href="#DejaVuSans-65" x="479.199219"/>
      <use xlink:href="#DejaVuSans-72" x="540.722656"/>
      <use xlink:href="#DejaVuSans-2c" x="581.835938"/>
      <use xlink:href="#DejaVuSans-20" x="613.623047"/>
      <use xlink:href="#DejaVuSans-6d" x="645.410156"/>
      <use xlink:href="#DejaVuSans-61" x="742.822266"/>
      <use xlink:href="#DejaVuSans-78" x="804.101562"/>
      <use xlink:href="#DejaVuSans-69" x="863.28125"/>
      <use xlink:href="#DejaVuSans-6d" x="891.064453"/>
      <use xlink:href="#DejaVuSans-75" x="988.476562"/>
      <use xlink:href="#DejaVuSans-6d" x="1051.855469"/>
      <use xlink:href="#DejaVuSans-20" x="1149.267578"/>
      <use xlink:href="#DejaVuSans-70" x="1181.054688"/>
      <use xlink:href="#DejaVuSans-72" x="1244.53125"/>
      <use xlink:href="#DejaVuSans-6f" x="1283.394531"/>
      <use xlink:href="#DejaVuSans-67" x="1344.576172"/>
      <use xlink:href="#DejaVuSans-72" x="1408.052734"/>
      <use xlink:href="#DejaVuSans-61" x="1449.166016"/>
      <use xlink:href="#DejaVuSans-6d" x="1510.445312"/>
      <use xlink:href="#DejaVuSans-20" x="1607.857422"/>
      <use xlink:href="#DejaVuSans-73" x="1639.644531"/>
      <use xlink:href="#DejaVuSans-69" x="1691.744141"/>
      <use xlink:href="#DejaVuSans-7a" x="1719.527344"/>
      <use xlink:href="#DejaVuSans-65" x="1772.017578"/>
     </g>
    </g>
   </g>
   <g id="matplotlib.axis_2">
    <g id="ytick_1">
     <g id="line2d_7">
      <defs>
       <path id="m94d0dc3c34" d="M 0 0 
L -3.5 0 
" style="stroke: #000000; stroke-width: 1.6"/>
      </defs>
      <g>
       <use xlink:href="#m94d0dc3c34" x="115.2" y="534.360203" style="stroke: #000000; stroke-width: 1.6"/>
      </g>
     </g>
     <g id="text_8">
      <!-- $\mathdefault{10^{6}}$ -->
      <g transform="translate(81.14 538.539344)scale(0.11 -0.11)">
       <use xlink:href="#DejaVuSans-31" transform="translate(0 0.765625)"/>
       <use xlink:href="#DejaVuSans-30" transform="translate(63.623047 0.765625)"/>
       <use xlink:href="#DejaVuSans-36" transform="translate(128.203125 39.046875)scale(0.7)"/>
      </g>
     </g>
    </g>
    <g id="ytick_2">
     <g id="line2d_8">
      <g>
       <use xlink:href="#m94d0dc3c34" x="115.2" y="453.148108" style="stroke: #000000; stroke-width: 1.6"/>
      </g>
     </g>
     <g id="text_9">
      <!-- $\mathdefault{10^{7}}$ -->
      <g transform="translate(81.14 457.327249)scale(0.11 -0.11)">
       <use xlink:href="#DejaVuSans-31" transform="translate(0 0.684375)"/>
       <use xlink:href="#DejaVuSans-30" transform="translate(63.623047 0.684375)"/>
       <use xlink:href="#DejaVuSans-37" transform="translate(128.203125 38.965625)scale(0.7)"/>
      </g>
     </g>
    </g>
    <g id="ytick_3">
     <g id="line2d_9">
      <g>
       <use xlink:href="#m94d0dc3c34" x="115.2" y="371.936013" style="stroke: #000000; stroke-width: 1.6"/>
      </g>
     </g>
     <g id="text_10">
      <!-- $\mathdefault{10^{8}}$ -->
      <g transform="translate(81.14 376.115154)scale(0.11 -0.11)">
       <use xlink:href="#DejaVuSans-31" transform="translate(0 0.765625)"/>
       <use xlink:href="#DejaVuSans-30" transform="translate(63.623047 0.765625)"/>
       <use xlink:href="#DejaVuSans-38" transform="translate(128.203125 39.046875)scale(0.7)"/>
      </g>
     </g>
    </g>
    <g id="ytick_4">
     <g id="line2d_10">
      <g>
       <use xlink:href="#m94d0dc3c34" x="115.2" y="290.723918" style="stroke: #000000; stroke-width: 1.6"/>
      </g>
     </g>
     <g id="text_11">
      <!-- $\mathdefault{10^{9}}$ -->
      <g transform="translate(81.14 294.903059)scale(0.11 -0.11)">
       <use xlink:href="#DejaVuSans-31" transform="translate(0 0.765625)"/>
       <use xlink:href="#DejaVuSans-30" transform="translate(63.623047 0.765625)"/>
       <use xlink:href="#DejaVuSans-39" transform="translate(128.203125 39.046875)scale(0.7)"/>
      </g>
     </g>
    </g>
    <g id="ytick_5">
     <g id="line2d_11">
      <g>
       <use xlink:href="#m94d0dc3c34" x="115.2" y="209.511823" style="stroke: #000000; stroke-width: 1.6"/>
      </g>
     </g>
     <g id="text_12">
      <!-- $\mathdefault{10^{10}}$ -->
      <g transform="translate(76.19 213.690964)scale(0.11 -0.11)">
       <use xlink:href="#DejaVuSans-31" transform="translate(0 0.765625)"/>
       <use xlink:href="#DejaVuSans-30" transform="translate(63.623047 0.765625)"/>
       <use xlink:href="#DejaVuSans-31" transform="translate(128.203125 39.046875)scale(0.7)"/>
       <use xlink:href="#DejaVuSans-30" transform="translate(172.739258 39.046875)scale(0.7)"/>
      </g>
     </g>
    </g>
    <g id="ytick_6">
     <g id="line2d_12">
      <g>
       <use xlink:href="#m94d0dc3c34" x="115.2" y="128.299728" style="stroke: #000000; stroke-width: 1.6"/>
      </g>
     </g>
     <g id="text_13">
      <!-- $\mathdefault{10^{11}}$ -->
      <g transform="translate(76.19 132.478869)scale(0.11 -0.11)">
       <use xlink:href="#DejaVuSans-31" transform="translate(0 0.684375)"/>
       <use xlink:href="#DejaVuSans-30" transform="translate(63.623047 0.684375)"/>
       <use xlink:href="#DejaVuSans-31" transform="translate(128.203125 38.965625)scale(0.7)"/>
       <use xlink:href="#DejaVuSans-31" transform="translate(172.739258 38.965625)scale(0.7)"/>
      </g>
     </g>
    </g>
    <g id="ytick_7">
     <g id="line2d_13">
      <defs>
       <path id="mb2d147a990" d="M 0 0 
L -2 0 
" style="stroke: #000000; stroke-width: 0.8"/>
      </defs>
      <g>
       <use xlink:href="#mb2d147a990" x="115.2" y="558.80748" style="stroke: #000000; stroke-width: 0.8"/>
      </g>
     </g>
    </g>
    <g id="ytick_8">
     <g id="line2d_14">
      <g>
       <use xlink:href="#mb2d147a990" x="115.2" y="552.377005" style="stroke: #000000; stroke-width: 0.8"/>
      </g>
     </g>
    </g>
    <g id="ytick_9">
     <g id="line2d_15">
      <g>
       <use xlink:href="#mb2d147a990" x="115.2" y="546.940116" style="stroke: #000000; stroke-width: 0.8"/>
      </g>
     </g>
    </g>
    <g id="ytick_10">
     <g id="line2d_16">
      <g>
       <use xlink:href="#mb2d147a990" x="115.2" y="542.230469" style="stroke: #000000; stroke-width: 0.8"/>
      </g>
     </g>
    </g>
    <g id="ytick_11">
     <g id="line2d_17">
      <g>
       <use xlink:href="#mb2d147a990" x="115.2" y="538.076265" style="stroke: #000000; stroke-width: 0.8"/>
      </g>
     </g>
    </g>
    <g id="ytick_12">
     <g id="line2d_18">
      <g>
       <use xlink:href="#mb2d147a990" x="115.2" y="509.912927" style="stroke: #000000; stroke-width: 0.8"/>
      </g>
     </g>
    </g>
    <g id="ytick_13">
     <g id="line2d_19">
      <g>
       <use xlink:href="#mb2d147a990" x="115.2" y="495.612187" style="stroke: #000000; stroke-width: 0.8"/>
      </g>
     </g>
    </g>
    <g id="ytick_14">
     <g id="line2d_20">
      <g>
       <use xlink:href="#mb2d147a990" x="115.2" y="485.46565" style="stroke: #000000; stroke-width: 0.8"/>
      </g>
     </g>
    </g>
    <g id="ytick_15">
     <g id="line2d_21">
      <g>
       <use xlink:href="#mb2d147a990" x="115.2" y="477.595385" style="stroke: #000000; stroke-width: 0.8"/>
      </g>
     </g>
    </g>
    <g id="ytick_16">
     <g id="line2d_22">
      <g>
       <use xlink:href="#mb2d147a990" x="115.2" y="471.16491" style="stroke: #000000; stroke-width: 0.8"/>
      </g>
     </g>
    </g>
    <g id="ytick_17">
     <g id="line2d_23">
      <g>
       <use xlink:href="#mb2d147a990" x="115.2" y="465.728021" style="stroke: #000000; stroke-width: 0.8"/>
      </g>
     </g>
    </g>
    <g id="ytick_18">
     <g id="line2d_24">
      <g>
       <use xlink:href="#mb2d147a990" x="115.2" y="461.018374" style="stroke: #000000; stroke-width: 0.8"/>
      </g>
     </g>
    </g>
    <g id="ytick_19">
     <g id="line2d_25">
      <g>
       <use xlink:href="#mb2d147a990" x="115.2" y="456.86417" style="stroke: #000000; stroke-width: 0.8"/>
      </g>
     </g>
    </g>
    <g id="ytick_20">
     <g id="line2d_26">
      <g>
       <use xlink:href="#mb2d147a990" x="115.2" y="428.700832" style="stroke: #000000; stroke-width: 0.8"/>
      </g>
     </g>
    </g>
    <g id="ytick_21">
     <g id="line2d_27">
      <g>
       <use xlink:href="#mb2d147a990" x="115.2" y="414.400092" style="stroke: #000000; stroke-width: 0.8"/>
      </g>
     </g>
    </g>
    <g id="ytick_22">
     <g id="line2d_28">
      <g>
       <use xlink:href="#mb2d147a990" x="115.2" y="404.253555" style="stroke: #000000; stroke-width: 0.8"/>
      </g>
     </g>
    </g>
    <g id="ytick_23">
     <g id="line2d_29">
      <g>
       <use xlink:href="#mb2d147a990" x="115.2" y="396.38329" style="stroke: #000000; stroke-width: 0.8"/>
      </g>
     </g>
    </g>
    <g id="ytick_24">
     <g id="line2d_30">
      <g>
       <use xlink:href="#mb2d147a990" x="115.2" y="389.952815" style="stroke: #000000; stroke-width: 0.8"/>
      </g>
     </g>
    </g>
    <g id="ytick_25">
     <g id="line2d_31">
      <g>
       <use xlink:href="#mb2d147a990" x="115.2" y="384.515926" style="stroke: #000000; stroke-width: 0.8"/>
      </g>
     </g>
    </g>
    <g id="ytick_26">
     <g id="line2d_32">
      <g>
       <use xlink:href="#mb2d147a990" x="115.2" y="379.806278" style="stroke: #000000; stroke-width: 0.8"/>
      </g>
     </g>
    </g>
    <g id="ytick_27">
     <g id="line2d_33">
      <g>
       <use xlink:href="#mb2d147a990" x="115.2" y="375.652075" style="stroke: #000000; stroke-width: 0.8"/>
      </g>
     </g>
    </g>
    <g id="ytick_28">
     <g id="line2d_34">
      <g>
       <use xlink:href="#mb2d147a990" x="115.2" y="347.488737" style="stroke: #000000; stroke-width: 0.8"/>
      </g>
     </g>
    </g>
    <g id="ytick_29">
     <g id="line2d_35">
      <g>
       <use xlink:href="#mb2d147a990" x="115.2" y="333.187997" style="stroke: #000000; stroke-width: 0.8"/>
      </g>
     </g>
    </g>
    <g id="ytick_30">
     <g id="line2d_36">
      <g>
       <use xlink:href="#mb2d147a990" x="115.2" y="323.04146" style="stroke: #000000; stroke-width: 0.8"/>
      </g>
     </g>
    </g>
    <g id="ytick_31">
     <g id="line2d_37">
      <g>
       <use xlink:href="#mb2d147a990" x="115.2" y="315.171195" style="stroke: #000000; stroke-width: 0.8"/>
      </g>
     </g>
    </g>
    <g id="ytick_32">
     <g id="line2d_38">
      <g>
       <use xlink:href="#mb2d147a990" x="115.2" y="308.74072" style="stroke: #000000; stroke-width: 0.8"/>
      </g>
     </g>
    </g>
    <g id="ytick_33">
     <g id="line2d_39">
      <g>
       <use xlink:href="#mb2d147a990" x="115.2" y="303.303831" style="stroke: #000000; stroke-width: 0.8"/>
      </g>
     </g>
    </g>
    <g id="ytick_34">
     <g id="line2d_40">
      <g>
       <use xlink:href="#mb2d147a990" x="115.2" y="298.594183" style="stroke: #000000; stroke-width: 0.8"/>
      </g>
     </g>
    </g>
    <g id="ytick_35">
     <g id="line2d_41">
      <g>
       <use xlink:href="#mb2d147a990" x="115.2" y="294.43998" style="stroke: #000000; stroke-width: 0.8"/>
      </g>
     </g>
    </g>
    <g id="ytick_36">
     <g id="line2d_42">
      <g>
       <use xlink:href="#mb2d147a990" x="115.2" y="266.276642" style="stroke: #000000; stroke-width: 0.8"/>
      </g>
     </g>
    </g>
    <g id="ytick_37">
     <g id="line2d_43">
      <g>
       <use xlink:href="#mb2d147a990" x="115.2" y="251.975901" style="stroke: #000000; stroke-width: 0.8"/>
      </g>
     </g>
    </g>
    <g id="ytick_38">
     <g id="line2d_44">
      <g>
       <use xlink:href="#mb2d147a990" x="115.2" y="241.829365" style="stroke: #000000; stroke-width: 0.8"/>
      </g>
     </g>
    </g>
    <g id="ytick_39">
     <g id="line2d_45">
      <g>
       <use xlink:href="#mb2d147a990" x="115.2" y="233.9591" style="stroke: #000000; stroke-width: 0.8"/>
      </g>
     </g>
    </g>
    <g id="ytick_40">
     <g id="line2d_46">
      <g>
       <use xlink:href="#mb2d147a990" x="115.2" y="227.528625" style="stroke: #000000; stroke-width: 0.8"/>
      </g>
     </g>
    </g>
    <g id="ytick_41">
     <g id="line2d_47">
      <g>
       <use xlink:href="#mb2d147a990" x="115.2" y="222.091736" style="stroke: #000000; stroke-width: 0.8"/>
      </g>
     </g>
    </g>
    <g id="ytick_42">
     <g id="line2d_48">
      <g>
       <use xlink:href="#mb2d147a990" x="115.2" y="217.382088" style="stroke: #000000; stroke-width: 0.8"/>
      </g>
     </g>
    </g>
    <g id="ytick_43">
     <g id="line2d_49">
      <g>
       <use xlink:href="#mb2d147a990" x="115.2" y="213.227885" style="stroke: #000000; stroke-width: 0.8"/>
      </g>
     </g>
    </g>
    <g id="ytick_44">
     <g id="line2d_50">
      <g>
       <use xlink:href="#mb2d147a990" x="115.2" y="185.064546" style="stroke: #000000; stroke-width: 0.8"/>
      </g>
     </g>
    </g>
    <g id="ytick_45">
     <g id="line2d_51">
      <g>
       <use xlink:href="#mb2d147a990" x="115.2" y="170.763806" style="stroke: #000000; stroke-width: 0.8"/>
      </g>
     </g>
    </g>
    <g id="ytick_46">
     <g id="line2d_52">
      <g>
       <use xlink:href="#mb2d147a990" x="115.2" y="160.61727" style="stroke: #000000; stroke-width: 0.8"/>
      </g>
     </g>
    </g>
    <g id="ytick_47">
     <g id="line2d_53">
      <g>
       <use xlink:href="#mb2d147a990" x="115.2" y="152.747005" style="stroke: #000000; stroke-width: 0.8"/>
      </g>
     </g>
    </g>
    <g id="ytick_48">
     <g id="line2d_54">
      <g>
       <use xlink:href="#mb2d147a990" x="115.2" y="146.31653" style="stroke: #000000; stroke-width: 0.8"/>
      </g>
     </g>
    </g>
    <g id="ytick_49">
     <g id="line2d_55">
      <g>
       <use xlink:href="#mb2d147a990" x="115.2" y="140.879641" style="stroke: #000000; stroke-width: 0.8"/>
      </g>
     </g>
    </g>
    <g id="ytick_50">
     <g id="line2d_56">
      <g>
       <use xlink:href="#mb2d147a990" x="115.2" y="136.169993" style="stroke: #000000; stroke-width: 0.8"/>
      </g>
     </g>
    </g>
    <g id="ytick_51">
     <g id="line2d_57">
      <g>
       <use xlink:href="#mb2d147a990" x="115.2" y="132.01579" style="stroke: #000000; stroke-width: 0.8"/>
      </g>
     </g>
    </g>
    <g id="ytick_52">
     <g id="line2d_58">
      <g>
       <use xlink:href="#mb2d147a990" x="115.2" y="103.852451" style="stroke: #000000; stroke-width: 0.8"/>
      </g>
     </g>
    </g>
    <g id="ytick_53">
     <g id="line2d_59">
      <g>
       <use xlink:href="#mb2d147a990" x="115.2" y="89.551711" style="stroke: #000000; stroke-width: 0.8"/>
      </g>
     </g>
    </g>
    <g id="ytick_54">
     <g id="line2d_60">
      <g>
       <use xlink:href="#mb2d147a990" x="115.2" y="79.405175" style="stroke: #000000; stroke-width: 0.8"/>
      </g>
     </g>
    </g>
    <g id="text_14">
     <!-- Node evaluations per second (NEPS) -->
     <g transform="translate(69.278437 447.984875)rotate(-90)scale(0.14 -0.14)">
      <defs>
       <path id="DejaVuSans-4e" d="M 628 4666 
L 1478 4666 
L 3547 763 
L 3547 4666 
L 4159 4666 
L 4159 0 
L 3309 0 
L 1241 3903 
L 1241 0 
L 628 0 
L 628 4666 
z
" transform="scale(0.015625)"/>
       <path id="DejaVuSans-64" d="M 2906 2969 
L 2906 4863 
L 3481 4863 
L 3481 0 
L 2906 0 
L 2906 525 
Q 2725 213 2448 61 
Q 2172 -91 1784 -91 
Q 1150 -91 751 415 
Q 353 922 353 1747 
Q 353 2572 751 3078 
Q 1150 3584 1784 3584 
Q 2172 3584 2448 3432 
Q 2725 3281 2906 2969 
z
M 947 1747 
Q 947 1113 1208 752 
Q 1469 391 1925 391 
Q 2381 391 2643 752 
Q 2906 1113 2906 1747 
Q 2906 2381 2643 2742 
Q 2381 3103 1925 3103 
Q 1469 3103 1208 2742 
Q 947 2381 947 1747 
z
" transform="scale(0.015625)"/>
       <path id="DejaVuSans-76" d="M 191 3500 
L 800 3500 
L 1894 563 
L 2988 3500 
L 3597 3500 
L 2284 0 
L 1503 0 
L 191 3500 
z
" transform="scale(0.015625)"/>
       <path id="DejaVuSans-6c" d="M 603 4863 
L 1178 4863 
L 1178 0 
L 603 0 
L 603 4863 
z
" transform="scale(0.015625)"/>
       <path id="DejaVuSans-74" d="M 1172 4494 
L 1172 3500 
L 2356 3500 
L 2356 3053 
L 1172 3053 
L 1172 1153 
Q 1172 725 1289 603 
Q 1406 481 1766 481 
L 2356 481 
L 2356 0 
L 1766 0 
Q 1100 0 847 248 
Q 594 497 594 1153 
L 594 3053 
L 172 3053 
L 172 3500 
L 594 3500 
L 594 4494 
L 1172 4494 
z
" transform="scale(0.015625)"/>
       <path id="DejaVuSans-63" d="M 3122 3366 
L 3122 2828 
Q 2878 2963 2633 3030 
Q 2388 3097 2138 3097 
Q 1578 3097 1268 2742 
Q 959 2388 959 1747 
Q 959 1106 1268 751 
Q 1578 397 2138 397 
Q 2388 397 2633 464 
Q 2878 531 3122 666 
L 3122 134 
Q 2881 22 2623 -34 
Q 2366 -91 2075 -91 
Q 1284 -91 818 406 
Q 353 903 353 1747 
Q 353 2603 823 3093 
Q 1294 3584 2113 3584 
Q 2378 3584 2631 3529 
Q 2884 3475 3122 3366 
z
" transform="scale(0.015625)"/>
       <path id="DejaVuSans-28" d="M 1984 4856 
Q 1566 4138 1362 3434 
Q 1159 2731 1159 2009 
Q 1159 1288 1364 580 
Q 1569 -128 1984 -844 
L 1484 -844 
Q 1016 -109 783 600 
Q 550 1309 550 2009 
Q 550 2706 781 3412 
Q 1013 4119 1484 4856 
L 1984 4856 
z
" transform="scale(0.015625)"/>
       <path id="DejaVuSans-45" d="M 628 4666 
L 3578 4666 
L 3578 4134 
L 1259 4134 
L 1259 2753 
L 3481 2753 
L 3481 2222 
L 1259 2222 
L 1259 531 
L 3634 531 
L 3634 0 
L 628 0 
L 628 4666 
z
" transform="scale(0.015625)"/>
       <path id="DejaVuSans-50" d="M 1259 4147 
L 1259 2394 
L 2053 2394 
Q 2494 2394 2734 2622 
Q 2975 2850 2975 3272 
Q 2975 3691 2734 3919 
Q 2494 4147 2053 4147 
L 1259 4147 
z
M 628 4666 
L 2053 4666 
Q 2838 4666 3239 4311 
Q 3641 3956 3641 3272 
Q 3641 2581 3239 2228 
Q 2838 1875 2053 1875 
L 1259 1875 
L 1259 0 
L 628 0 
L 628 4666 
z
" transform="scale(0.015625)"/>
       <path id="DejaVuSans-53" d="M 3425 4513 
L 3425 3897 
Q 3066 4069 2747 4153 
Q 2428 4238 2131 4238 
Q 1616 4238 1336 4038 
Q 1056 3838 1056 3469 
Q 1056 3159 1242 3001 
Q 1428 2844 1947 2747 
L 2328 2669 
Q 3034 2534 3370 2195 
Q 3706 1856 3706 1288 
Q 3706 609 3251 259 
Q 2797 -91 1919 -91 
Q 1588 -91 1214 -16 
Q 841 59 441 206 
L 441 856 
Q 825 641 1194 531 
Q 1563 422 1919 422 
Q 2459 422 2753 634 
Q 3047 847 3047 1241 
Q 3047 1584 2836 1778 
Q 2625 1972 2144 2069 
L 1759 2144 
Q 1053 2284 737 2584 
Q 422 2884 422 3419 
Q 422 4038 858 4394 
Q 1294 4750 2059 4750 
Q 2388 4750 2728 4690 
Q 3069 4631 3425 4513 
z
" transform="scale(0.015625)"/>
       <path id="DejaVuSans-29" d="M 513 4856 
L 1013 4856 
Q 1481 4119 1714 3412 
Q 1947 2706 1947 2009 
Q 1947 1309 1714 600 
Q 1481 -109 1013 -844 
L 513 -844 
Q 928 -128 1133 580 
Q 1338 1288 1338 2009 
Q 1338 2731 1133 3434 
Q 928 4138 513 4856 
z
" transform="scale(0.015625)"/>
      </defs>
      <use xlink:href="#DejaVuSans-4e"/>
      <use xlink:href="#DejaVuSans-6f" x="74.804688"/>
      <use xlink:href="#DejaVuSans-64" x="135.986328"/>
      <use xlink:href="#DejaVuSans-65" x="199.462891"/>
      <use xlink:href="#DejaVuSans-20" x="260.986328"/>
      <use xlink:href="#DejaVuSans-65" x="292.773438"/>
      <use xlink:href="#DejaVuSans-76" x="354.296875"/>
      <use xlink:href="#DejaVuSans-61" x="413.476562"/>
      <use xlink:href="#DejaVuSans-6c" x="474.755859"/>
      <use xlink:href="#DejaVuSans-75" x="502.539062"/>
      <use xlink:href="#DejaVuSans-61" x="565.917969"/>
      <use xlink:href="#DejaVuSans-74" x="627.197266"/>
      <use xlink:href="#DejaVuSans-69" x="666.40625"/>
      <use xlink:href="#DejaVuSans-6f" x="694.189453"/>
      <use xlink:href="#DejaVuSans-6e" x="755.371094"/>
      <use xlink:href="#DejaVuSans-73" x="818.75"/>
      <use xlink:href="#DejaVuSans-20" x="870.849609"/>
      <use xlink:href="#DejaVuSans-70" x="902.636719"/>
      <use xlink:href="#DejaVuSans-65" x="966.113281"/>
      <use xlink:href="#DejaVuSans-72" x="1027.636719"/>
      <use xlink:href="#DejaVuSans-20" x="1068.75"/>
      <use xlink:href="#DejaVuSans-73" x="1100.537109"/>
      <use xlink:href="#DejaVuSans-65" x="1152.636719"/>
      <use xlink:href="#DejaVuSans-63" x="1214.160156"/>
      <use xlink:href="#DejaVuSans-6f" x="1269.140625"/>
      <use xlink:href="#DejaVuSans-6e" x="1330.322266"/>
      <use xlink:href="#DejaVuSans-64" x="1393.701172"/>
      <use xlink:href="#DejaVuSans-20" x="1457.177734"/>
      <use xlink:href="#DejaVuSans-28" x="1488.964844"/>
      <use xlink:href="#DejaVuSans-4e" x="1527.978516"/>
      <use xlink:href="#DejaVuSans-45" x="1602.783203"/>
      <use xlink:href="#DejaVuSans-50" x="1665.966797"/>
      <use xlink:href="#DejaVuSans-53" x="1726.269531"/>
      <use xlink:href="#DejaVuSans-29" x="1789.746094"/>
     </g>
    </g>
   </g>
   <g id="line2d_61">
    <path d="M 147.665455 541.728 
L 168.610909 513.292913 
L 189.556364 499.4134 
L 210.501818 489.138867 
L 231.447273 482.386977 
L 252.392727 478.308593 
L 273.338182 473.601909 
L 294.283636 468.112566 
L 315.229091 467.998432 
L 336.174545 466.718353 
L 357.12 464.807005 
L 378.065455 461.138538 
L 399.010909 458.267739 
L 419.956364 457.288521 
L 440.901818 455.156472 
L 461.847273 454.139329 
L 482.792727 452.949858 
L 503.738182 452.435355 
L 524.683636 451.019243 
L 545.629091 450.921976 
L 566.574545 448.336632 
L 587.52 450.022497 
L 608.465455 450.674652 
L 629.410909 448.074959 
L 650.356364 446.494281 
L 671.301818 447.101497 
L 692.247273 446.733697 
L 713.192727 445.318253 
L 734.138182 446.638875 
L 755.083636 447.121129 
L 776.029091 445.338489 
L 796.974545 446.274222 
" clip-path="url(#p8dd4f012cd)" style="fill: none; stroke: #000000; stroke-width: 0.1; stroke-linecap: square"/>
    <defs>
     <path id="m311bca8bb0" d="M -3 6 
L 0 3 
L 3 6 
L 6 3 
L 3 0 
L 6 -3 
L 3 -6 
L 0 -3 
L -3 -6 
L -6 -3 
L -3 0 
L -6 3 
z
"/>
    </defs>
    <g clip-path="url(#p8dd4f012cd)">
     <use xlink:href="#m311bca8bb0" x="147.665455" y="541.728" style="fill: #17becf"/>
     <use xlink:href="#m311bca8bb0" x="168.610909" y="513.292913" style="fill: #17becf"/>
     <use xlink:href="#m311bca8bb0" x="189.556364" y="499.4134" style="fill: #17becf"/>
     <use xlink:href="#m311bca8bb0" x="210.501818" y="489.138867" style="fill: #17becf"/>
     <use xlink:href="#m311bca8bb0" x="231.447273" y="482.386977" style="fill: #17becf"/>
     <use xlink:href="#m311bca8bb0" x="252.392727" y="478.308593" style="fill: #17becf"/>
     <use xlink:href="#m311bca8bb0" x="273.338182" y="473.601909" style="fill: #17becf"/>
     <use xlink:href="#m311bca8bb0" x="294.283636" y="468.112566" style="fill: #17becf"/>
     <use xlink:href="#m311bca8bb0" x="315.229091" y="467.998432" style="fill: #17becf"/>
     <use xlink:href="#m311bca8bb0" x="336.174545" y="466.718353" style="fill: #17becf"/>
     <use xlink:href="#m311bca8bb0" x="357.12" y="464.807005" style="fill: #17becf"/>
     <use xlink:href="#m311bca8bb0" x="378.065455" y="461.138538" style="fill: #17becf"/>
     <use xlink:href="#m311bca8bb0" x="399.010909" y="458.267739" style="fill: #17becf"/>
     <use xlink:href="#m311bca8bb0" x="419.956364" y="457.288521" style="fill: #17becf"/>
     <use xlink:href="#m311bca8bb0" x="440.901818" y="455.156472" style="fill: #17becf"/>
     <use xlink:href="#m311bca8bb0" x="461.847273" y="454.139329" style="fill: #17becf"/>
     <use xlink:href="#m311bca8bb0" x="482.792727" y="452.949858" style="fill: #17becf"/>
     <use xlink:href="#m311bca8bb0" x="503.738182" y="452.435355" style="fill: #17becf"/>
     <use xlink:href="#m311bca8bb0" x="524.683636" y="451.019243" style="fill: #17becf"/>
     <use xlink:href="#m311bca8bb0" x="545.629091" y="450.921976" style="fill: #17becf"/>
     <use xlink:href="#m311bca8bb0" x="566.574545" y="448.336632" style="fill: #17becf"/>
     <use xlink:href="#m311bca8bb0" x="587.52" y="450.022497" style="fill: #17becf"/>
     <use xlink:href="#m311bca8bb0" x="608.465455" y="450.674652" style="fill: #17becf"/>
     <use xlink:href="#m311bca8bb0" x="629.410909" y="448.074959" style="fill: #17becf"/>
     <use xlink:href="#m311bca8bb0" x="650.356364" y="446.494281" style="fill: #17becf"/>
     <use xlink:href="#m311bca8bb0" x="671.301818" y="447.101497" style="fill: #17becf"/>
     <use xlink:href="#m311bca8bb0" x="692.247273" y="446.733697" style="fill: #17becf"/>
     <use xlink:href="#m311bca8bb0" x="713.192727" y="445.318253" style="fill: #17becf"/>
     <use xlink:href="#m311bca8bb0" x="734.138182" y="446.638875" style="fill: #17becf"/>
     <use xlink:href="#m311bca8bb0" x="755.083636" y="447.121129" style="fill: #17becf"/>
     <use xlink:href="#m311bca8bb0" x="776.029091" y="445.338489" style="fill: #17becf"/>
     <use xlink:href="#m311bca8bb0" x="796.974545" y="446.274222" style="fill: #17becf"/>
    </g>
   </g>
   <g id="line2d_62">
    <path d="M 115.2 290.723918 
L 829.44 290.723918 
" clip-path="url(#p8dd4f012cd)" style="fill: none; stroke-dasharray: 10.36,4.48; stroke-dashoffset: 0; stroke: #808080; stroke-width: 2.8"/>
   </g>
   <g id="line2d_63">
    <path d="M 147.665455 479.271057 
L 168.610909 458.30115 
L 189.556364 451.215156 
L 210.501818 445.95446 
L 231.447273 443.002682 
L 252.392727 439.120748 
L 273.338182 437.151694 
L 294.283636 435.415066 
L 315.229091 434.25522 
L 336.174545 431.993903 
L 357.12 430.887482 
L 378.065455 428.915132 
L 399.010909 428.03845 
L 419.956364 427.263312 
L 440.901818 426.210213 
L 461.847273 423.885383 
L 482.792727 426.983918 
L 503.738182 425.879373 
L 524.683636 424.448399 
L 545.629091 423.543454 
L 566.574545 423.513305 
L 587.52 423.410607 
L 608.465455 422.570986 
L 629.410909 421.730308 
L 650.356364 421.799228 
L 671.301818 421.75085 
L 692.247273 420.778155 
L 713.192727 420.868078 
L 734.138182 420.363497 
L 755.083636 419.947081 
L 776.029091 419.863417 
L 796.974545 418.889047 
" clip-path="url(#p8dd4f012cd)" style="fill: none; stroke: #000000; stroke-width: 0.1; stroke-linecap: square"/>
    <defs>
     <path id="m880bb1f9bb" d="M 0 -6 
L -6 6 
L 6 6 
z
"/>
    </defs>
    <g clip-path="url(#p8dd4f012cd)">
     <use xlink:href="#m880bb1f9bb" x="147.665455" y="479.271057" style="fill: #9467bd"/>
     <use xlink:href="#m880bb1f9bb" x="168.610909" y="458.30115" style="fill: #9467bd"/>
     <use xlink:href="#m880bb1f9bb" x="189.556364" y="451.215156" style="fill: #9467bd"/>
     <use xlink:href="#m880bb1f9bb" x="210.501818" y="445.95446" style="fill: #9467bd"/>
     <use xlink:href="#m880bb1f9bb" x="231.447273" y="443.002682" style="fill: #9467bd"/>
     <use xlink:href="#m880bb1f9bb" x="252.392727" y="439.120748" style="fill: #9467bd"/>
     <use xlink:href="#m880bb1f9bb" x="273.338182" y="437.151694" style="fill: #9467bd"/>
     <use xlink:href="#m880bb1f9bb" x="294.283636" y="435.415066" style="fill: #9467bd"/>
     <use xlink:href="#m880bb1f9bb" x="315.229091" y="434.25522" style="fill: #9467bd"/>
     <use xlink:href="#m880bb1f9bb" x="336.174545" y="431.993903" style="fill: #9467bd"/>
     <use xlink:href="#m880bb1f9bb" x="357.12" y="430.887482" style="fill: #9467bd"/>
     <use xlink:href="#m880bb1f9bb" x="378.065455" y="428.915132" style="fill: #9467bd"/>
     <use xlink:href="#m880bb1f9bb" x="399.010909" y="428.03845" style="fill: #9467bd"/>
     <use xlink:href="#m880bb1f9bb" x="419.956364" y="427.263312" style="fill: #9467bd"/>
     <use xlink:href="#m880bb1f9bb" x="440.901818" y="426.210213" style="fill: #9467bd"/>
     <use xlink:href="#m880bb1f9bb" x="461.847273" y="423.885383" style="fill: #9467bd"/>
     <use xlink:href="#m880bb1f9bb" x="482.792727" y="426.983918" style="fill: #9467bd"/>
     <use xlink:href="#m880bb1f9bb" x="503.738182" y="425.879373" style="fill: #9467bd"/>
     <use xlink:href="#m880bb1f9bb" x="524.683636" y="424.448399" style="fill: #9467bd"/>
     <use xlink:href="#m880bb1f9bb" x="545.629091" y="423.543454" style="fill: #9467bd"/>
     <use xlink:href="#m880bb1f9bb" x="566.574545" y="423.513305" style="fill: #9467bd"/>
     <use xlink:href="#m880bb1f9bb" x="587.52" y="423.410607" style="fill: #9467bd"/>
     <use xlink:href="#m880bb1f9bb" x="608.465455" y="422.570986" style="fill: #9467bd"/>
     <use xlink:href="#m880bb1f9bb" x="629.410909" y="421.730308" style="fill: #9467bd"/>
     <use xlink:href="#m880bb1f9bb" x="650.356364" y="421.799228" style="fill: #9467bd"/>
     <use xlink:href="#m880bb1f9bb" x="671.301818" y="421.75085" style="fill: #9467bd"/>
     <use xlink:href="#m880bb1f9bb" x="692.247273" y="420.778155" style="fill: #9467bd"/>
     <use xlink:href="#m880bb1f9bb" x="713.192727" y="420.868078" style="fill: #9467bd"/>
     <use xlink:href="#m880bb1f9bb" x="734.138182" y="420.363497" style="fill: #9467bd"/>
     <use xlink:href="#m880bb1f9bb" x="755.083636" y="419.947081" style="fill: #9467bd"/>
     <use xlink:href="#m880bb1f9bb" x="776.029091" y="419.863417" style="fill: #9467bd"/>
     <use xlink:href="#m880bb1f9bb" x="796.974545" y="418.889047" style="fill: #9467bd"/>
    </g>
   </g>
   <g id="line2d_64">
    <path d="M 115.2 290.723918 
L 829.44 290.723918 
" clip-path="url(#p8dd4f012cd)" style="fill: none; stroke-dasharray: 10.36,4.48; stroke-dashoffset: 0; stroke: #808080; stroke-width: 2.8"/>
   </g>
   <g id="line2d_65">
    <path d="M 147.665455 490.396112 
L 168.610909 470.364955 
L 189.556364 463.812503 
L 210.501818 459.252404 
L 231.447273 456.934661 
L 252.392727 452.476847 
L 273.338182 450.948435 
L 294.283636 448.79279 
L 315.229091 447.46301 
L 336.174545 445.589577 
L 357.12 444.768673 
L 378.065455 447.066074 
L 399.010909 450.547754 
L 419.956364 448.396643 
L 440.901818 440.702774 
L 461.847273 438.658438 
L 482.792727 440.965114 
L 503.738182 440.450833 
L 524.683636 439.846526 
L 545.629091 439.446377 
L 566.574545 438.677252 
L 587.52 438.130959 
L 608.465455 437.660904 
L 629.410909 436.436899 
L 650.356364 436.916056 
L 671.301818 436.839804 
L 692.247273 436.0091 
L 713.192727 435.819308 
L 734.138182 435.341648 
L 755.083636 435.075396 
L 776.029091 434.933566 
L 796.974545 434.265427 
" clip-path="url(#p8dd4f012cd)" style="fill: none; stroke: #000000; stroke-width: 0.1; stroke-linecap: square"/>
    <defs>
     <path id="m4fcfaf6d6b" d="M 0 3 
C 0.795609 3 1.55874 2.683901 2.12132 2.12132 
C 2.683901 1.55874 3 0.795609 3 0 
C 3 -0.795609 2.683901 -1.55874 2.12132 -2.12132 
C 1.55874 -2.683901 0.795609 -3 0 -3 
C -0.795609 -3 -1.55874 -2.683901 -2.12132 -2.12132 
C -2.683901 -1.55874 -3 -0.795609 -3 0 
C -3 0.795609 -2.683901 1.55874 -2.12132 2.12132 
C -1.55874 2.683901 -0.795609 3 0 3 
z
"/>
    </defs>
    <g clip-path="url(#p8dd4f012cd)">
     <use xlink:href="#m4fcfaf6d6b" x="147.665455" y="490.396112" style="fill: #1f77b4"/>
     <use xlink:href="#m4fcfaf6d6b" x="168.610909" y="470.364955" style="fill: #1f77b4"/>
     <use xlink:href="#m4fcfaf6d6b" x="189.556364" y="463.812503" style="fill: #1f77b4"/>
     <use xlink:href="#m4fcfaf6d6b" x="210.501818" y="459.252404" style="fill: #1f77b4"/>
     <use xlink:href="#m4fcfaf6d6b" x="231.447273" y="456.934661" style="fill: #1f77b4"/>
     <use xlink:href="#m4fcfaf6d6b" x="252.392727" y="452.476847" style="fill: #1f77b4"/>
     <use xlink:href="#m4fcfaf6d6b" x="273.338182" y="450.948435" style="fill: #1f77b4"/>
     <use xlink:href="#m4fcfaf6d6b" x="294.283636" y="448.79279" style="fill: #1f77b4"/>
     <use xlink:href="#m4fcfaf6d6b" x="315.229091" y="447.46301" style="fill: #1f77b4"/>
     <use xlink:href="#m4fcfaf6d6b" x="336.174545" y="445.589577" style="fill: #1f77b4"/>
     <use xlink:href="#m4fcfaf6d6b" x="357.12" y="444.768673" style="fill: #1f77b4"/>
     <use xlink:href="#m4fcfaf6d6b" x="378.065455" y="447.066074" style="fill: #1f77b4"/>
     <use xlink:href="#m4fcfaf6d6b" x="399.010909" y="450.547754" style="fill: #1f77b4"/>
     <use xlink:href="#m4fcfaf6d6b" x="419.956364" y="448.396643" style="fill: #1f77b4"/>
     <use xlink:href="#m4fcfaf6d6b" x="440.901818" y="440.702774" style="fill: #1f77b4"/>
     <use xlink:href="#m4fcfaf6d6b" x="461.847273" y="438.658438" style="fill: #1f77b4"/>
     <use xlink:href="#m4fcfaf6d6b" x="482.792727" y="440.965114" style="fill: #1f77b4"/>
     <use xlink:href="#m4fcfaf6d6b" x="503.738182" y="440.450833" style="fill: #1f77b4"/>
     <use xlink:href="#m4fcfaf6d6b" x="524.683636" y="439.846526" style="fill: #1f77b4"/>
     <use xlink:href="#m4fcfaf6d6b" x="545.629091" y="439.446377" style="fill: #1f77b4"/>
     <use xlink:href="#m4fcfaf6d6b" x="566.574545" y="438.677252" style="fill: #1f77b4"/>
     <use xlink:href="#m4fcfaf6d6b" x="587.52" y="438.130959" style="fill: #1f77b4"/>
     <use xlink:href="#m4fcfaf6d6b" x="608.465455" y="437.660904" style="fill: #1f77b4"/>
     <use xlink:href="#m4fcfaf6d6b" x="629.410909" y="436.436899" style="fill: #1f77b4"/>
     <use xlink:href="#m4fcfaf6d6b" x="650.356364" y="436.916056" style="fill: #1f77b4"/>
     <use xlink:href="#m4fcfaf6d6b" x="671.301818" y="436.839804" style="fill: #1f77b4"/>
     <use xlink:href="#m4fcfaf6d6b" x="692.247273" y="436.0091" style="fill: #1f77b4"/>
     <use xlink:href="#m4fcfaf6d6b" x="713.192727" y="435.819308" style="fill: #1f77b4"/>
     <use xlink:href="#m4fcfaf6d6b" x="734.138182" y="435.341648" style="fill: #1f77b4"/>
     <use xlink:href="#m4fcfaf6d6b" x="755.083636" y="435.075396" style="fill: #1f77b4"/>
     <use xlink:href="#m4fcfaf6d6b" x="776.029091" y="434.933566" style="fill: #1f77b4"/>
     <use xlink:href="#m4fcfaf6d6b" x="796.974545" y="434.265427" style="fill: #1f77b4"/>
    </g>
   </g>
   <g id="line2d_66">
    <path d="M 115.2 290.723918 
L 829.44 290.723918 
" clip-path="url(#p8dd4f012cd)" style="fill: none; stroke-dasharray: 10.36,4.48; stroke-dashoffset: 0; stroke: #808080; stroke-width: 2.8"/>
   </g>
   <g id="line2d_67">
    <path d="M 147.665455 276.482471 
L 168.610909 250.992266 
L 189.556364 236.497138 
L 210.501818 228.704537 
L 231.447273 223.025477 
L 252.392727 219.890473 
L 273.338182 213.921551 
L 294.283636 211.368976 
L 315.229091 209.010353 
L 336.174545 207.667109 
L 357.12 205.239405 
L 378.065455 202.52644 
L 399.010909 199.757861 
L 419.956364 197.046813 
L 440.901818 195.425195 
L 461.847273 196.167831 
L 482.792727 194.097487 
L 503.738182 193.311596 
L 524.683636 189.985575 
L 545.629091 192.917343 
L 566.574545 190.869945 
L 587.52 187.931347 
L 608.465455 186.184606 
L 629.410909 183.733749 
L 650.356364 187.313883 
L 671.301818 186.696986 
L 692.247273 192.948653 
L 713.192727 183.107854 
L 734.138182 181.96525 
L 755.083636 177.940628 
L 776.029091 180.907486 
L 796.974545 183.306522 
" clip-path="url(#p8dd4f012cd)" style="fill: none; stroke: #000000; stroke-width: 0.1; stroke-linecap: square"/>
    <defs>
     <path id="mda3dfc634d" d="M -0 8.485281 
L 5.091169 0 
L 0 -8.485281 
L -5.091169 -0 
z
"/>
    </defs>
    <g clip-path="url(#p8dd4f012cd)">
     <use xlink:href="#mda3dfc634d" x="147.665455" y="276.482471" style="fill: #2ca02c"/>
     <use xlink:href="#mda3dfc634d" x="168.610909" y="250.992266" style="fill: #2ca02c"/>
     <use xlink:href="#mda3dfc634d" x="189.556364" y="236.497138" style="fill: #2ca02c"/>
     <use xlink:href="#mda3dfc634d" x="210.501818" y="228.704537" style="fill: #2ca02c"/>
     <use xlink:href="#mda3dfc634d" x="231.447273" y="223.025477" style="fill: #2ca02c"/>
     <use xlink:href="#mda3dfc634d" x="252.392727" y="219.890473" style="fill: #2ca02c"/>
     <use xlink:href="#mda3dfc634d" x="273.338182" y="213.921551" style="fill: #2ca02c"/>
     <use xlink:href="#mda3dfc634d" x="294.283636" y="211.368976" style="fill: #2ca02c"/>
     <use xlink:href="#mda3dfc634d" x="315.229091" y="209.010353" style="fill: #2ca02c"/>
     <use xlink:href="#mda3dfc634d" x="336.174545" y="207.667109" style="fill: #2ca02c"/>
     <use xlink:href="#mda3dfc634d" x="357.12" y="205.239405" style="fill: #2ca02c"/>
     <use xlink:href="#mda3dfc634d" x="378.065455" y="202.52644" style="fill: #2ca02c"/>
     <use xlink:href="#mda3dfc634d" x="399.010909" y="199.757861" style="fill: #2ca02c"/>
     <use xlink:href="#mda3dfc634d" x="419.956364" y="197.046813" style="fill: #2ca02c"/>
     <use xlink:href="#mda3dfc634d" x="440.901818" y="195.425195" style="fill: #2ca02c"/>
     <use xlink:href="#mda3dfc634d" x="461.847273" y="196.167831" style="fill: #2ca02c"/>
     <use xlink:href="#mda3dfc634d" x="482.792727" y="194.097487" style="fill: #2ca02c"/>
     <use xlink:href="#mda3dfc634d" x="503.738182" y="193.311596" style="fill: #2ca02c"/>
     <use xlink:href="#mda3dfc634d" x="524.683636" y="189.985575" style="fill: #2ca02c"/>
     <use xlink:href="#mda3dfc634d" x="545.629091" y="192.917343" style="fill: #2ca02c"/>
     <use xlink:href="#mda3dfc634d" x="566.574545" y="190.869945" style="fill: #2ca02c"/>
     <use xlink:href="#mda3dfc634d" x="587.52" y="187.931347" style="fill: #2ca02c"/>
     <use xlink:href="#mda3dfc634d" x="608.465455" y="186.184606" style="fill: #2ca02c"/>
     <use xlink:href="#mda3dfc634d" x="629.410909" y="183.733749" style="fill: #2ca02c"/>
     <use xlink:href="#mda3dfc634d" x="650.356364" y="187.313883" style="fill: #2ca02c"/>
     <use xlink:href="#mda3dfc634d" x="671.301818" y="186.696986" style="fill: #2ca02c"/>
     <use xlink:href="#mda3dfc634d" x="692.247273" y="192.948653" style="fill: #2ca02c"/>
     <use xlink:href="#mda3dfc634d" x="713.192727" y="183.107854" style="fill: #2ca02c"/>
     <use xlink:href="#mda3dfc634d" x="734.138182" y="181.96525" style="fill: #2ca02c"/>
     <use xlink:href="#mda3dfc634d" x="755.083636" y="177.940628" style="fill: #2ca02c"/>
     <use xlink:href="#mda3dfc634d" x="776.029091" y="180.907486" style="fill: #2ca02c"/>
     <use xlink:href="#mda3dfc634d" x="796.974545" y="183.306522" style="fill: #2ca02c"/>
    </g>
   </g>
   <g id="line2d_68">
    <path d="M 115.2 290.723918 
L 829.44 290.723918 
" clip-path="url(#p8dd4f012cd)" style="fill: none; stroke-dasharray: 10.36,4.48; stroke-dashoffset: 0; stroke: #808080; stroke-width: 2.8"/>
   </g>
   <g id="line2d_69">
    <path d="M 147.665455 208.906551 
L 168.610909 178.906299 
L 189.556364 161.612346 
L 210.501818 150.257555 
L 231.447273 141.665628 
L 252.392727 134.668527 
L 273.338182 128.9339 
L 294.283636 124.020295 
L 315.229091 119.602842 
L 336.174545 115.767257 
L 357.12 112.287001 
L 378.065455 109.156893 
L 399.010909 106.230416 
L 419.956364 103.555881 
L 440.901818 102.139869 
L 461.847273 101.702811 
L 482.792727 102.173443 
L 503.738182 101.944328 
L 524.683636 101.629129 
L 545.629091 101.399622 
L 566.574545 100.958188 
L 587.52 100.97088 
L 608.465455 100.662968 
L 629.410909 100.296348 
L 650.356364 100.572087 
L 671.301818 100.348455 
L 692.247273 100.069586 
L 713.192727 99.818499 
L 734.138182 99.914295 
L 755.083636 99.579399 
L 776.029091 99.271386 
L 796.974545 98.208 
" clip-path="url(#p8dd4f012cd)" style="fill: none; stroke: #000000; stroke-width: 0.1; stroke-linecap: square"/>
    <defs>
     <path id="m16690f241a" d="M 0 -6 
L -1.347084 -1.854102 
L -5.706339 -1.854102 
L -2.179628 0.708204 
L -3.526712 4.854102 
L -0 2.291796 
L 3.526712 4.854102 
L 2.179628 0.708204 
L 5.706339 -1.854102 
L 1.347084 -1.854102 
z
"/>
    </defs>
    <g clip-path="url(#p8dd4f012cd)">
     <use xlink:href="#m16690f241a" x="147.665455" y="208.906551" style="fill: #d62728"/>
     <use xlink:href="#m16690f241a" x="168.610909" y="178.906299" style="fill: #d62728"/>
     <use xlink:href="#m16690f241a" x="189.556364" y="161.612346" style="fill: #d62728"/>
     <use xlink:href="#m16690f241a" x="210.501818" y="150.257555" style="fill: #d62728"/>
     <use xlink:href="#m16690f241a" x="231.447273" y="141.665628" style="fill: #d62728"/>
     <use xlink:href="#m16690f241a" x="252.392727" y="134.668527" style="fill: #d62728"/>
     <use xlink:href="#m16690f241a" x="273.338182" y="128.9339" style="fill: #d62728"/>
     <use xlink:href="#m16690f241a" x="294.283636" y="124.020295" style="fill: #d62728"/>
     <use xlink:href="#m16690f241a" x="315.229091" y="119.602842" style="fill: #d62728"/>
     <use xlink:href="#m16690f241a" x="336.174545" y="115.767257" style="fill: #d62728"/>
     <use xlink:href="#m16690f241a" x="357.12" y="112.287001" style="fill: #d62728"/>
     <use xlink:href="#m16690f241a" x="378.065455" y="109.156893" style="fill: #d62728"/>
     <use xlink:href="#m16690f241a" x="399.010909" y="106.230416" style="fill: #d62728"/>
     <use xlink:href="#m16690f241a" x="419.956364" y="103.555881" style="fill: #d62728"/>
     <use xlink:href="#m16690f241a" x="440.901818" y="102.139869" style="fill: #d62728"/>
     <use xlink:href="#m16690f241a" x="461.847273" y="101.702811" style="fill: #d62728"/>
     <use xlink:href="#m16690f241a" x="482.792727" y="102.173443" style="fill: #d62728"/>
     <use xlink:href="#m16690f241a" x="503.738182" y="101.944328" style="fill: #d62728"/>
     <use xlink:href="#m16690f241a" x="524.683636" y="101.629129" style="fill: #d62728"/>
     <use xlink:href="#m16690f241a" x="545.629091" y="101.399622" style="fill: #d62728"/>
     <use xlink:href="#m16690f241a" x="566.574545" y="100.958188" style="fill: #d62728"/>
     <use xlink:href="#m16690f241a" x="587.52" y="100.97088" style="fill: #d62728"/>
     <use xlink:href="#m16690f241a" x="608.465455" y="100.662968" style="fill: #d62728"/>
     <use xlink:href="#m16690f241a" x="629.410909" y="100.296348" style="fill: #d62728"/>
     <use xlink:href="#m16690f241a" x="650.356364" y="100.572087" style="fill: #d62728"/>
     <use xlink:href="#m16690f241a" x="671.301818" y="100.348455" style="fill: #d62728"/>
     <use xlink:href="#m16690f241a" x="692.247273" y="100.069586" style="fill: #d62728"/>
     <use xlink:href="#m16690f241a" x="713.192727" y="99.818499" style="fill: #d62728"/>
     <use xlink:href="#m16690f241a" x="734.138182" y="99.914295" style="fill: #d62728"/>
     <use xlink:href="#m16690f241a" x="755.083636" y="99.579399" style="fill: #d62728"/>
     <use xlink:href="#m16690f241a" x="776.029091" y="99.271386" style="fill: #d62728"/>
     <use xlink:href="#m16690f241a" x="796.974545" y="98.208" style="fill: #d62728"/>
    </g>
   </g>
   <g id="line2d_70">
    <path d="M 115.2 290.723918 
L 829.44 290.723918 
" clip-path="url(#p8dd4f012cd)" style="fill: none; stroke-dasharray: 10.36,4.48; stroke-dashoffset: 0; stroke: #808080; stroke-width: 2.8"/>
   </g>
   <g id="patch_3">
    <path d="M 115.2 563.904 
L 115.2 76.032 
" style="fill: none; stroke: #000000; stroke-width: 0.8; stroke-linejoin: miter; stroke-linecap: square"/>
   </g>
   <g id="patch_4">
    <path d="M 829.44 563.904 
L 829.44 76.032 
" style="fill: none; stroke: #000000; stroke-width: 0.8; stroke-linejoin: miter; stroke-linecap: square"/>
   </g>
   <g id="patch_5">
    <path d="M 115.2 563.904 
L 829.44 563.904 
" style="fill: none; stroke: #000000; stroke-width: 0.8; stroke-linejoin: miter; stroke-linecap: square"/>
   </g>
   <g id="patch_6">
    <path d="M 115.2 76.032 
L 829.44 76.032 
" style="fill: none; stroke: #000000; stroke-width: 0.8; stroke-linejoin: miter; stroke-linecap: square"/>
   </g>
   <g id="text_15">
    <!-- $10^9$ for scale -->
    <g transform="translate(192.174545 315.171195)scale(0.11 -0.11)">
     <defs>
      <path id="DejaVuSans-66" d="M 2375 4863 
L 2375 4384 
L 1825 4384 
Q 1516 4384 1395 4259 
Q 1275 4134 1275 3809 
L 1275 3500 
L 2222 3500 
L 2222 3053 
L 1275 3053 
L 1275 0 
L 697 0 
L 697 3053 
L 147 3053 
L 147 3500 
L 697 3500 
L 697 3744 
Q 697 4328 969 4595 
Q 1241 4863 1831 4863 
L 2375 4863 
z
" transform="scale(0.015625)"/>
     </defs>
     <use xlink:href="#DejaVuSans-31" transform="translate(0 0.765625)"/>
     <use xlink:href="#DejaVuSans-30" transform="translate(63.623047 0.765625)"/>
     <use xlink:href="#DejaVuSans-39" transform="translate(128.203125 39.046875)scale(0.7)"/>
     <use xlink:href="#DejaVuSans-20" transform="translate(175.473633 0.765625)"/>
     <use xlink:href="#DejaVuSans-66" transform="translate(207.260742 0.765625)"/>
     <use xlink:href="#DejaVuSans-6f" transform="translate(242.46582 0.765625)"/>
     <use xlink:href="#DejaVuSans-72" transform="translate(303.647461 0.765625)"/>
     <use xlink:href="#DejaVuSans-20" transform="translate(344.760742 0.765625)"/>
     <use xlink:href="#DejaVuSans-73" transform="translate(376.547852 0.765625)"/>
     <use xlink:href="#DejaVuSans-63" transform="translate(428.647461 0.765625)"/>
     <use xlink:href="#DejaVuSans-61" transform="translate(483.62793 0.765625)"/>
     <use xlink:href="#DejaVuSans-6c" transform="translate(544.907227 0.765625)"/>
     <use xlink:href="#DejaVuSans-65" transform="translate(572.69043 0.765625)"/>
    </g>
   </g>
  </g>
 </g>
 <defs>
  <clipPath id="p8dd4f012cd">
   <rect x="115.2" y="76.032" width="714.24" height="487.872"/>
  </clipPath>
 </defs>
</svg>
