<?xml version="1.0" encoding="utf-8" standalone="no"?>
<!DOCTYPE svg PUBLIC "-//W3C//DTD SVG 1.1//EN"
  "http://www.w3.org/Graphics/SVG/1.1/DTD/svg11.dtd">
<svg xmlns:xlink="http://www.w3.org/1999/xlink" width="460.8pt" height="345.6pt" viewBox="0 0 460.8 345.6" xmlns="http://www.w3.org/2000/svg" version="1.1">
 <metadata>
  <rdf:RDF xmlns:dc="http://purl.org/dc/elements/1.1/" xmlns:cc="http://creativecommons.org/ns#" xmlns:rdf="http://www.w3.org/1999/02/22-rdf-syntax-ns#">
   <cc:Work>
    <dc:type rdf:resource="http://purl.org/dc/dcmitype/StillImage"/>
    <dc:date>2022-10-27T01:02:31.599236</dc:date>
    <dc:format>image/svg+xml</dc:format>
    <dc:creator>
     <cc:Agent>
      <dc:title>Matplotlib v3.5.3, https://matplotlib.org/</dc:title>
     </cc:Agent>
    </dc:creator>
   </cc:Work>
  </rdf:RDF>
 </metadata>
 <defs>
  <style type="text/css">*{stroke-linejoin: round; stroke-linecap: butt}</style>
 </defs>
 <g id="figure_1">
  <g id="patch_1">
   <path d="M 0 345.6 
L 460.8 345.6 
L 460.8 0 
L 0 0 
z
" style="fill: #ffffff"/>
  </g>
  <g id="axes_1">
   <g id="patch_2">
    <path d="M 57.6 307.584 
L 414.72 307.584 
L 414.72 41.472 
L 57.6 41.472 
z
" style="fill: #ffffff"/>
   </g>
   <g id="patch_3">
    <path d="M 73.832727 307.584 
L 75.881021 307.584 
L 75.881021 254.228211 
L 73.832727 254.228211 
z
" clip-path="url(#pc66f1ba3b3)" style="fill: #1f77b4"/>
   </g>
   <g id="patch_4">
    <path d="M 76.393094 307.584 
L 78.441388 307.584 
L 78.441388 223.104 
L 76.393094 223.104 
z
" clip-path="url(#pc66f1ba3b3)" style="fill: #1f77b4"/>
   </g>
   <g id="patch_5">
    <path d="M 78.953461 307.584 
L 81.001755 307.584 
L 81.001755 129.731368 
L 78.953461 129.731368 
z
" clip-path="url(#pc66f1ba3b3)" style="fill: #1f77b4"/>
   </g>
   <g id="patch_6">
    <path d="M 81.513829 307.584 
L 83.562122 307.584 
L 83.562122 54.144 
L 81.513829 54.144 
z
" clip-path="url(#pc66f1ba3b3)" style="fill: #1f77b4"/>
   </g>
   <g id="patch_7">
    <path d="M 84.074196 307.584 
L 86.122489 307.584 
L 86.122489 245.335579 
L 84.074196 245.335579 
z
" clip-path="url(#pc66f1ba3b3)" style="fill: #1f77b4"/>
   </g>
   <g id="patch_8">
    <path d="M 86.634563 307.584 
L 88.682856 307.584 
L 88.682856 120.838737 
L 86.634563 120.838737 
z
" clip-path="url(#pc66f1ba3b3)" style="fill: #1f77b4"/>
   </g>
   <g id="patch_9">
    <path d="M 89.19493 307.584 
L 91.243223 307.584 
L 91.243223 165.301895 
L 89.19493 165.301895 
z
" clip-path="url(#pc66f1ba3b3)" style="fill: #1f77b4"/>
   </g>
   <g id="patch_10">
    <path d="M 91.755297 307.584 
L 93.80359 307.584 
L 93.80359 129.731368 
L 91.755297 129.731368 
z
" clip-path="url(#pc66f1ba3b3)" style="fill: #1f77b4"/>
   </g>
   <g id="patch_11">
    <path d="M 94.315664 307.584 
L 96.363958 307.584 
L 96.363958 209.765053 
L 94.315664 209.765053 
z
" clip-path="url(#pc66f1ba3b3)" style="fill: #1f77b4"/>
   </g>
   <g id="patch_12">
    <path d="M 96.876031 307.584 
L 98.924325 307.584 
L 98.924325 183.087158 
L 96.876031 183.087158 
z
" clip-path="url(#pc66f1ba3b3)" style="fill: #1f77b4"/>
   </g>
   <g id="patch_13">
    <path d="M 99.436398 307.584 
L 101.484692 307.584 
L 101.484692 156.409263 
L 99.436398 156.409263 
z
" clip-path="url(#pc66f1ba3b3)" style="fill: #1f77b4"/>
   </g>
   <g id="patch_14">
    <path d="M 101.996765 307.584 
L 104.045059 307.584 
L 104.045059 111.946105 
L 101.996765 111.946105 
z
" clip-path="url(#pc66f1ba3b3)" style="fill: #1f77b4"/>
   </g>
   <g id="patch_15">
    <path d="M 104.557132 307.584 
L 106.605426 307.584 
L 106.605426 200.872421 
L 104.557132 200.872421 
z
" clip-path="url(#pc66f1ba3b3)" style="fill: #1f77b4"/>
   </g>
   <g id="patch_16">
    <path d="M 107.117499 307.584 
L 109.165793 307.584 
L 109.165793 160.855579 
L 107.117499 160.855579 
z
" clip-path="url(#pc66f1ba3b3)" style="fill: #1f77b4"/>
   </g>
   <g id="patch_17">
    <path d="M 109.677866 307.584 
L 111.72616 307.584 
L 111.72616 169.748211 
L 109.677866 169.748211 
z
" clip-path="url(#pc66f1ba3b3)" style="fill: #1f77b4"/>
   </g>
   <g id="patch_18">
    <path d="M 112.238233 307.584 
L 114.286527 307.584 
L 114.286527 129.731368 
L 112.238233 129.731368 
z
" clip-path="url(#pc66f1ba3b3)" style="fill: #1f77b4"/>
   </g>
   <g id="patch_19">
    <path d="M 114.798601 307.584 
L 116.846894 307.584 
L 116.846894 209.765053 
L 114.798601 209.765053 
z
" clip-path="url(#pc66f1ba3b3)" style="fill: #1f77b4"/>
   </g>
   <g id="patch_20">
    <path d="M 117.358968 307.584 
L 119.407261 307.584 
L 119.407261 160.855579 
L 117.358968 160.855579 
z
" clip-path="url(#pc66f1ba3b3)" style="fill: #1f77b4"/>
   </g>
   <g id="patch_21">
    <path d="M 119.919335 307.584 
L 121.967628 307.584 
L 121.967628 200.872421 
L 119.919335 200.872421 
z
" clip-path="url(#pc66f1ba3b3)" style="fill: #1f77b4"/>
   </g>
   <g id="patch_22">
    <path d="M 122.479702 307.584 
L 124.527995 307.584 
L 124.527995 89.714526 
L 122.479702 89.714526 
z
" clip-path="url(#pc66f1ba3b3)" style="fill: #1f77b4"/>
   </g>
   <g id="patch_23">
    <path d="M 125.040069 307.584 
L 127.088362 307.584 
L 127.088362 196.426105 
L 125.040069 196.426105 
z
" clip-path="url(#pc66f1ba3b3)" style="fill: #1f77b4"/>
   </g>
   <g id="patch_24">
    <path d="M 127.600436 307.584 
L 129.64873 307.584 
L 129.64873 178.640842 
L 127.600436 178.640842 
z
" clip-path="url(#pc66f1ba3b3)" style="fill: #1f77b4"/>
   </g>
   <g id="patch_25">
    <path d="M 130.160803 307.584 
L 132.209097 307.584 
L 132.209097 143.070316 
L 130.160803 143.070316 
z
" clip-path="url(#pc66f1ba3b3)" style="fill: #1f77b4"/>
   </g>
   <g id="patch_26">
    <path d="M 132.72117 307.584 
L 134.769464 307.584 
L 134.769464 143.070316 
L 132.72117 143.070316 
z
" clip-path="url(#pc66f1ba3b3)" style="fill: #1f77b4"/>
   </g>
   <g id="patch_27">
    <path d="M 135.281537 307.584 
L 137.329831 307.584 
L 137.329831 236.442947 
L 135.281537 236.442947 
z
" clip-path="url(#pc66f1ba3b3)" style="fill: #1f77b4"/>
   </g>
   <g id="patch_28">
    <path d="M 137.841904 307.584 
L 139.890198 307.584 
L 139.890198 191.979789 
L 137.841904 191.979789 
z
" clip-path="url(#pc66f1ba3b3)" style="fill: #1f77b4"/>
   </g>
   <g id="patch_29">
    <path d="M 140.402271 307.584 
L 142.450565 307.584 
L 142.450565 111.946105 
L 140.402271 111.946105 
z
" clip-path="url(#pc66f1ba3b3)" style="fill: #1f77b4"/>
   </g>
   <g id="patch_30">
    <path d="M 142.962638 307.584 
L 145.010932 307.584 
L 145.010932 120.838737 
L 142.962638 120.838737 
z
" clip-path="url(#pc66f1ba3b3)" style="fill: #1f77b4"/>
   </g>
   <g id="patch_31">
    <path d="M 145.523005 307.584 
L 147.571299 307.584 
L 147.571299 187.533474 
L 145.523005 187.533474 
z
" clip-path="url(#pc66f1ba3b3)" style="fill: #1f77b4"/>
   </g>
   <g id="patch_32">
    <path d="M 148.083373 307.584 
L 150.131666 307.584 
L 150.131666 160.855579 
L 148.083373 160.855579 
z
" clip-path="url(#pc66f1ba3b3)" style="fill: #1f77b4"/>
   </g>
   <g id="patch_33">
    <path d="M 150.64374 307.584 
L 152.692033 307.584 
L 152.692033 147.516632 
L 150.64374 147.516632 
z
" clip-path="url(#pc66f1ba3b3)" style="fill: #1f77b4"/>
   </g>
   <g id="patch_34">
    <path d="M 153.204107 307.584 
L 155.2524 307.584 
L 155.2524 165.301895 
L 153.204107 165.301895 
z
" clip-path="url(#pc66f1ba3b3)" style="fill: #1f77b4"/>
   </g>
   <g id="patch_35">
    <path d="M 155.764474 307.584 
L 157.812767 307.584 
L 157.812767 169.748211 
L 155.764474 169.748211 
z
" clip-path="url(#pc66f1ba3b3)" style="fill: #1f77b4"/>
   </g>
   <g id="patch_36">
    <path d="M 158.324841 307.584 
L 160.373134 307.584 
L 160.373134 160.855579 
L 158.324841 160.855579 
z
" clip-path="url(#pc66f1ba3b3)" style="fill: #1f77b4"/>
   </g>
   <g id="patch_37">
    <path d="M 160.885208 307.584 
L 162.933502 307.584 
L 162.933502 191.979789 
L 160.885208 191.979789 
z
" clip-path="url(#pc66f1ba3b3)" style="fill: #1f77b4"/>
   </g>
   <g id="patch_38">
    <path d="M 163.445575 307.584 
L 165.493869 307.584 
L 165.493869 138.624 
L 163.445575 138.624 
z
" clip-path="url(#pc66f1ba3b3)" style="fill: #1f77b4"/>
   </g>
   <g id="patch_39">
    <path d="M 166.005942 307.584 
L 168.054236 307.584 
L 168.054236 191.979789 
L 166.005942 191.979789 
z
" clip-path="url(#pc66f1ba3b3)" style="fill: #1f77b4"/>
   </g>
   <g id="patch_40">
    <path d="M 168.566309 307.584 
L 170.614603 307.584 
L 170.614603 134.177684 
L 168.566309 134.177684 
z
" clip-path="url(#pc66f1ba3b3)" style="fill: #1f77b4"/>
   </g>
   <g id="patch_41">
    <path d="M 171.126676 307.584 
L 173.17497 307.584 
L 173.17497 187.533474 
L 171.126676 187.533474 
z
" clip-path="url(#pc66f1ba3b3)" style="fill: #1f77b4"/>
   </g>
   <g id="patch_42">
    <path d="M 173.687043 307.584 
L 175.735337 307.584 
L 175.735337 147.516632 
L 173.687043 147.516632 
z
" clip-path="url(#pc66f1ba3b3)" style="fill: #1f77b4"/>
   </g>
   <g id="patch_43">
    <path d="M 176.24741 307.584 
L 178.295704 307.584 
L 178.295704 183.087158 
L 176.24741 183.087158 
z
" clip-path="url(#pc66f1ba3b3)" style="fill: #1f77b4"/>
   </g>
   <g id="patch_44">
    <path d="M 178.807777 307.584 
L 180.856071 307.584 
L 180.856071 156.409263 
L 178.807777 156.409263 
z
" clip-path="url(#pc66f1ba3b3)" style="fill: #1f77b4"/>
   </g>
   <g id="patch_45">
    <path d="M 181.368145 307.584 
L 183.416438 307.584 
L 183.416438 187.533474 
L 181.368145 187.533474 
z
" clip-path="url(#pc66f1ba3b3)" style="fill: #1f77b4"/>
   </g>
   <g id="patch_46">
    <path d="M 183.928512 307.584 
L 185.976805 307.584 
L 185.976805 134.177684 
L 183.928512 134.177684 
z
" clip-path="url(#pc66f1ba3b3)" style="fill: #1f77b4"/>
   </g>
   <g id="patch_47">
    <path d="M 186.488879 307.584 
L 188.537172 307.584 
L 188.537172 134.177684 
L 186.488879 134.177684 
z
" clip-path="url(#pc66f1ba3b3)" style="fill: #1f77b4"/>
   </g>
   <g id="patch_48">
    <path d="M 189.049246 307.584 
L 191.097539 307.584 
L 191.097539 169.748211 
L 189.049246 169.748211 
z
" clip-path="url(#pc66f1ba3b3)" style="fill: #1f77b4"/>
   </g>
   <g id="patch_49">
    <path d="M 191.609613 307.584 
L 193.657907 307.584 
L 193.657907 196.426105 
L 191.609613 196.426105 
z
" clip-path="url(#pc66f1ba3b3)" style="fill: #1f77b4"/>
   </g>
   <g id="patch_50">
    <path d="M 194.16998 307.584 
L 196.218274 307.584 
L 196.218274 160.855579 
L 194.16998 160.855579 
z
" clip-path="url(#pc66f1ba3b3)" style="fill: #1f77b4"/>
   </g>
   <g id="patch_51">
    <path d="M 196.730347 307.584 
L 198.778641 307.584 
L 198.778641 143.070316 
L 196.730347 143.070316 
z
" clip-path="url(#pc66f1ba3b3)" style="fill: #1f77b4"/>
   </g>
   <g id="patch_52">
    <path d="M 199.290714 307.584 
L 201.339008 307.584 
L 201.339008 183.087158 
L 199.290714 183.087158 
z
" clip-path="url(#pc66f1ba3b3)" style="fill: #1f77b4"/>
   </g>
   <g id="patch_53">
    <path d="M 201.851081 307.584 
L 203.899375 307.584 
L 203.899375 174.194526 
L 201.851081 174.194526 
z
" clip-path="url(#pc66f1ba3b3)" style="fill: #1f77b4"/>
   </g>
   <g id="patch_54">
    <path d="M 204.411448 307.584 
L 206.459742 307.584 
L 206.459742 160.855579 
L 204.411448 160.855579 
z
" clip-path="url(#pc66f1ba3b3)" style="fill: #1f77b4"/>
   </g>
   <g id="patch_55">
    <path d="M 206.971815 307.584 
L 209.020109 307.584 
L 209.020109 178.640842 
L 206.971815 178.640842 
z
" clip-path="url(#pc66f1ba3b3)" style="fill: #1f77b4"/>
   </g>
   <g id="patch_56">
    <path d="M 209.532182 307.584 
L 211.580476 307.584 
L 211.580476 129.731368 
L 209.532182 129.731368 
z
" clip-path="url(#pc66f1ba3b3)" style="fill: #1f77b4"/>
   </g>
   <g id="patch_57">
    <path d="M 212.092549 307.584 
L 214.140843 307.584 
L 214.140843 209.765053 
L 212.092549 209.765053 
z
" clip-path="url(#pc66f1ba3b3)" style="fill: #1f77b4"/>
   </g>
   <g id="patch_58">
    <path d="M 214.652917 307.584 
L 216.70121 307.584 
L 216.70121 143.070316 
L 214.652917 143.070316 
z
" clip-path="url(#pc66f1ba3b3)" style="fill: #1f77b4"/>
   </g>
   <g id="patch_59">
    <path d="M 217.213284 307.584 
L 219.261577 307.584 
L 219.261577 187.533474 
L 217.213284 187.533474 
z
" clip-path="url(#pc66f1ba3b3)" style="fill: #1f77b4"/>
   </g>
   <g id="patch_60">
    <path d="M 219.773651 307.584 
L 221.821944 307.584 
L 221.821944 183.087158 
L 219.773651 183.087158 
z
" clip-path="url(#pc66f1ba3b3)" style="fill: #1f77b4"/>
   </g>
   <g id="patch_61">
    <path d="M 222.334018 307.584 
L 224.382311 307.584 
L 224.382311 143.070316 
L 222.334018 143.070316 
z
" clip-path="url(#pc66f1ba3b3)" style="fill: #1f77b4"/>
   </g>
   <g id="patch_62">
    <path d="M 224.894385 307.584 
L 226.942679 307.584 
L 226.942679 147.516632 
L 224.894385 147.516632 
z
" clip-path="url(#pc66f1ba3b3)" style="fill: #1f77b4"/>
   </g>
   <g id="patch_63">
    <path d="M 227.454752 307.584 
L 229.503046 307.584 
L 229.503046 165.301895 
L 227.454752 165.301895 
z
" clip-path="url(#pc66f1ba3b3)" style="fill: #1f77b4"/>
   </g>
   <g id="patch_64">
    <path d="M 230.015119 307.584 
L 232.063413 307.584 
L 232.063413 147.516632 
L 230.015119 147.516632 
z
" clip-path="url(#pc66f1ba3b3)" style="fill: #1f77b4"/>
   </g>
   <g id="patch_65">
    <path d="M 232.575486 307.584 
L 234.62378 307.584 
L 234.62378 156.409263 
L 232.575486 156.409263 
z
" clip-path="url(#pc66f1ba3b3)" style="fill: #1f77b4"/>
   </g>
   <g id="patch_66">
    <path d="M 235.135853 307.584 
L 237.184147 307.584 
L 237.184147 191.979789 
L 235.135853 191.979789 
z
" clip-path="url(#pc66f1ba3b3)" style="fill: #1f77b4"/>
   </g>
   <g id="patch_67">
    <path d="M 237.69622 307.584 
L 239.744514 307.584 
L 239.744514 165.301895 
L 237.69622 165.301895 
z
" clip-path="url(#pc66f1ba3b3)" style="fill: #1f77b4"/>
   </g>
   <g id="patch_68">
    <path d="M 240.256587 307.584 
L 242.304881 307.584 
L 242.304881 178.640842 
L 240.256587 178.640842 
z
" clip-path="url(#pc66f1ba3b3)" style="fill: #1f77b4"/>
   </g>
   <g id="patch_69">
    <path d="M 242.816954 307.584 
L 244.865248 307.584 
L 244.865248 160.855579 
L 242.816954 160.855579 
z
" clip-path="url(#pc66f1ba3b3)" style="fill: #1f77b4"/>
   </g>
   <g id="patch_70">
    <path d="M 245.377321 307.584 
L 247.425615 307.584 
L 247.425615 156.409263 
L 245.377321 156.409263 
z
" clip-path="url(#pc66f1ba3b3)" style="fill: #1f77b4"/>
   </g>
   <g id="patch_71">
    <path d="M 247.937689 307.584 
L 249.985982 307.584 
L 249.985982 174.194526 
L 247.937689 174.194526 
z
" clip-path="url(#pc66f1ba3b3)" style="fill: #1f77b4"/>
   </g>
   <g id="patch_72">
    <path d="M 250.498056 307.584 
L 252.546349 307.584 
L 252.546349 178.640842 
L 250.498056 178.640842 
z
" clip-path="url(#pc66f1ba3b3)" style="fill: #1f77b4"/>
   </g>
   <g id="patch_73">
    <path d="M 253.058423 307.584 
L 255.106716 307.584 
L 255.106716 107.499789 
L 253.058423 107.499789 
z
" clip-path="url(#pc66f1ba3b3)" style="fill: #1f77b4"/>
   </g>
   <g id="patch_74">
    <path d="M 255.61879 307.584 
L 257.667083 307.584 
L 257.667083 200.872421 
L 255.61879 200.872421 
z
" clip-path="url(#pc66f1ba3b3)" style="fill: #1f77b4"/>
   </g>
   <g id="patch_75">
    <path d="M 258.179157 307.584 
L 260.227451 307.584 
L 260.227451 156.409263 
L 258.179157 156.409263 
z
" clip-path="url(#pc66f1ba3b3)" style="fill: #1f77b4"/>
   </g>
   <g id="patch_76">
    <path d="M 260.739524 307.584 
L 262.787818 307.584 
L 262.787818 205.318737 
L 260.739524 205.318737 
z
" clip-path="url(#pc66f1ba3b3)" style="fill: #1f77b4"/>
   </g>
   <g id="patch_77">
    <path d="M 263.299891 307.584 
L 265.348185 307.584 
L 265.348185 147.516632 
L 263.299891 147.516632 
z
" clip-path="url(#pc66f1ba3b3)" style="fill: #1f77b4"/>
   </g>
   <g id="patch_78">
    <path d="M 265.860258 307.584 
L 267.908552 307.584 
L 267.908552 151.962947 
L 265.860258 151.962947 
z
" clip-path="url(#pc66f1ba3b3)" style="fill: #1f77b4"/>
   </g>
   <g id="patch_79">
    <path d="M 268.420625 307.584 
L 270.468919 307.584 
L 270.468919 178.640842 
L 268.420625 178.640842 
z
" clip-path="url(#pc66f1ba3b3)" style="fill: #1f77b4"/>
   </g>
   <g id="patch_80">
    <path d="M 270.980992 307.584 
L 273.029286 307.584 
L 273.029286 187.533474 
L 270.980992 187.533474 
z
" clip-path="url(#pc66f1ba3b3)" style="fill: #1f77b4"/>
   </g>
   <g id="patch_81">
    <path d="M 273.541359 307.584 
L 275.589653 307.584 
L 275.589653 151.962947 
L 273.541359 151.962947 
z
" clip-path="url(#pc66f1ba3b3)" style="fill: #1f77b4"/>
   </g>
   <g id="patch_82">
    <path d="M 276.101726 307.584 
L 278.15002 307.584 
L 278.15002 143.070316 
L 276.101726 143.070316 
z
" clip-path="url(#pc66f1ba3b3)" style="fill: #1f77b4"/>
   </g>
   <g id="patch_83">
    <path d="M 278.662093 307.584 
L 280.710387 307.584 
L 280.710387 125.285053 
L 278.662093 125.285053 
z
" clip-path="url(#pc66f1ba3b3)" style="fill: #1f77b4"/>
   </g>
   <g id="patch_84">
    <path d="M 281.222461 307.584 
L 283.270754 307.584 
L 283.270754 183.087158 
L 281.222461 183.087158 
z
" clip-path="url(#pc66f1ba3b3)" style="fill: #1f77b4"/>
   </g>
   <g id="patch_85">
    <path d="M 283.782828 307.584 
L 285.831121 307.584 
L 285.831121 187.533474 
L 283.782828 187.533474 
z
" clip-path="url(#pc66f1ba3b3)" style="fill: #1f77b4"/>
   </g>
   <g id="patch_86">
    <path d="M 286.343195 307.584 
L 288.391488 307.584 
L 288.391488 165.301895 
L 286.343195 165.301895 
z
" clip-path="url(#pc66f1ba3b3)" style="fill: #1f77b4"/>
   </g>
   <g id="patch_87">
    <path d="M 288.903562 307.584 
L 290.951855 307.584 
L 290.951855 169.748211 
L 288.903562 169.748211 
z
" clip-path="url(#pc66f1ba3b3)" style="fill: #1f77b4"/>
   </g>
   <g id="patch_88">
    <path d="M 291.463929 307.584 
L 293.512223 307.584 
L 293.512223 156.409263 
L 291.463929 156.409263 
z
" clip-path="url(#pc66f1ba3b3)" style="fill: #1f77b4"/>
   </g>
   <g id="patch_89">
    <path d="M 294.024296 307.584 
L 296.07259 307.584 
L 296.07259 156.409263 
L 294.024296 156.409263 
z
" clip-path="url(#pc66f1ba3b3)" style="fill: #1f77b4"/>
   </g>
   <g id="patch_90">
    <path d="M 296.584663 307.584 
L 298.632957 307.584 
L 298.632957 178.640842 
L 296.584663 178.640842 
z
" clip-path="url(#pc66f1ba3b3)" style="fill: #1f77b4"/>
   </g>
   <g id="patch_91">
    <path d="M 299.14503 307.584 
L 301.193324 307.584 
L 301.193324 183.087158 
L 299.14503 183.087158 
z
" clip-path="url(#pc66f1ba3b3)" style="fill: #1f77b4"/>
   </g>
   <g id="patch_92">
    <path d="M 301.705397 307.584 
L 303.753691 307.584 
L 303.753691 147.516632 
L 301.705397 147.516632 
z
" clip-path="url(#pc66f1ba3b3)" style="fill: #1f77b4"/>
   </g>
   <g id="patch_93">
    <path d="M 304.265764 307.584 
L 306.314058 307.584 
L 306.314058 174.194526 
L 304.265764 174.194526 
z
" clip-path="url(#pc66f1ba3b3)" style="fill: #1f77b4"/>
   </g>
   <g id="patch_94">
    <path d="M 306.826131 307.584 
L 308.874425 307.584 
L 308.874425 156.409263 
L 306.826131 156.409263 
z
" clip-path="url(#pc66f1ba3b3)" style="fill: #1f77b4"/>
   </g>
   <g id="patch_95">
    <path d="M 309.386498 307.584 
L 311.434792 307.584 
L 311.434792 151.962947 
L 309.386498 151.962947 
z
" clip-path="url(#pc66f1ba3b3)" style="fill: #1f77b4"/>
   </g>
   <g id="patch_96">
    <path d="M 311.946866 307.584 
L 313.995159 307.584 
L 313.995159 191.979789 
L 311.946866 191.979789 
z
" clip-path="url(#pc66f1ba3b3)" style="fill: #1f77b4"/>
   </g>
   <g id="patch_97">
    <path d="M 314.507233 307.584 
L 316.555526 307.584 
L 316.555526 165.301895 
L 314.507233 165.301895 
z
" clip-path="url(#pc66f1ba3b3)" style="fill: #1f77b4"/>
   </g>
   <g id="patch_98">
    <path d="M 317.0676 307.584 
L 319.115893 307.584 
L 319.115893 151.962947 
L 317.0676 151.962947 
z
" clip-path="url(#pc66f1ba3b3)" style="fill: #1f77b4"/>
   </g>
   <g id="patch_99">
    <path d="M 319.627967 307.584 
L 321.67626 307.584 
L 321.67626 178.640842 
L 319.627967 178.640842 
z
" clip-path="url(#pc66f1ba3b3)" style="fill: #1f77b4"/>
   </g>
   <g id="patch_100">
    <path d="M 322.188334 307.584 
L 324.236627 307.584 
L 324.236627 156.409263 
L 322.188334 156.409263 
z
" clip-path="url(#pc66f1ba3b3)" style="fill: #1f77b4"/>
   </g>
   <g id="patch_101">
    <path d="M 324.748701 307.584 
L 326.796995 307.584 
L 326.796995 174.194526 
L 324.748701 174.194526 
z
" clip-path="url(#pc66f1ba3b3)" style="fill: #1f77b4"/>
   </g>
   <g id="patch_102">
    <path d="M 327.309068 307.584 
L 329.357362 307.584 
L 329.357362 151.962947 
L 327.309068 151.962947 
z
" clip-path="url(#pc66f1ba3b3)" style="fill: #1f77b4"/>
   </g>
   <g id="patch_103">
    <path d="M 329.869435 307.584 
L 331.917729 307.584 
L 331.917729 191.979789 
L 329.869435 191.979789 
z
" clip-path="url(#pc66f1ba3b3)" style="fill: #1f77b4"/>
   </g>
   <g id="patch_104">
    <path d="M 332.429802 307.584 
L 334.478096 307.584 
L 334.478096 191.979789 
L 332.429802 191.979789 
z
" clip-path="url(#pc66f1ba3b3)" style="fill: #1f77b4"/>
   </g>
   <g id="patch_105">
    <path d="M 334.990169 307.584 
L 337.038463 307.584 
L 337.038463 183.087158 
L 334.990169 183.087158 
z
" clip-path="url(#pc66f1ba3b3)" style="fill: #1f77b4"/>
   </g>
   <g id="patch_106">
    <path d="M 337.550536 307.584 
L 339.59883 307.584 
L 339.59883 94.160842 
L 337.550536 94.160842 
z
" clip-path="url(#pc66f1ba3b3)" style="fill: #1f77b4"/>
   </g>
   <g id="patch_107">
    <path d="M 340.110903 307.584 
L 342.159197 307.584 
L 342.159197 134.177684 
L 340.110903 134.177684 
z
" clip-path="url(#pc66f1ba3b3)" style="fill: #1f77b4"/>
   </g>
   <g id="patch_108">
    <path d="M 342.67127 307.584 
L 344.719564 307.584 
L 344.719564 169.748211 
L 342.67127 169.748211 
z
" clip-path="url(#pc66f1ba3b3)" style="fill: #1f77b4"/>
   </g>
   <g id="patch_109">
    <path d="M 345.231638 307.584 
L 347.279931 307.584 
L 347.279931 178.640842 
L 345.231638 178.640842 
z
" clip-path="url(#pc66f1ba3b3)" style="fill: #1f77b4"/>
   </g>
   <g id="patch_110">
    <path d="M 347.792005 307.584 
L 349.840298 307.584 
L 349.840298 178.640842 
L 347.792005 178.640842 
z
" clip-path="url(#pc66f1ba3b3)" style="fill: #1f77b4"/>
   </g>
   <g id="patch_111">
    <path d="M 350.352372 307.584 
L 352.400665 307.584 
L 352.400665 156.409263 
L 350.352372 156.409263 
z
" clip-path="url(#pc66f1ba3b3)" style="fill: #1f77b4"/>
   </g>
   <g id="patch_112">
    <path d="M 352.912739 307.584 
L 354.961032 307.584 
L 354.961032 200.872421 
L 352.912739 200.872421 
z
" clip-path="url(#pc66f1ba3b3)" style="fill: #1f77b4"/>
   </g>
   <g id="patch_113">
    <path d="M 355.473106 307.584 
L 357.521399 307.584 
L 357.521399 156.409263 
L 355.473106 156.409263 
z
" clip-path="url(#pc66f1ba3b3)" style="fill: #1f77b4"/>
   </g>
   <g id="patch_114">
    <path d="M 358.033473 307.584 
L 360.081767 307.584 
L 360.081767 147.516632 
L 358.033473 147.516632 
z
" clip-path="url(#pc66f1ba3b3)" style="fill: #1f77b4"/>
   </g>
   <g id="patch_115">
    <path d="M 360.59384 307.584 
L 362.642134 307.584 
L 362.642134 169.748211 
L 360.59384 169.748211 
z
" clip-path="url(#pc66f1ba3b3)" style="fill: #1f77b4"/>
   </g>
   <g id="patch_116">
    <path d="M 363.154207 307.584 
L 365.202501 307.584 
L 365.202501 174.194526 
L 363.154207 174.194526 
z
" clip-path="url(#pc66f1ba3b3)" style="fill: #1f77b4"/>
   </g>
   <g id="patch_117">
    <path d="M 365.714574 307.584 
L 367.762868 307.584 
L 367.762868 169.748211 
L 365.714574 169.748211 
z
" clip-path="url(#pc66f1ba3b3)" style="fill: #1f77b4"/>
   </g>
   <g id="patch_118">
    <path d="M 368.274941 307.584 
L 370.323235 307.584 
L 370.323235 147.516632 
L 368.274941 147.516632 
z
" clip-path="url(#pc66f1ba3b3)" style="fill: #1f77b4"/>
   </g>
   <g id="patch_119">
    <path d="M 370.835308 307.584 
L 372.883602 307.584 
L 372.883602 200.872421 
L 370.835308 200.872421 
z
" clip-path="url(#pc66f1ba3b3)" style="fill: #1f77b4"/>
   </g>
   <g id="patch_120">
    <path d="M 373.395675 307.584 
L 375.443969 307.584 
L 375.443969 138.624 
L 373.395675 138.624 
z
" clip-path="url(#pc66f1ba3b3)" style="fill: #1f77b4"/>
   </g>
   <g id="patch_121">
    <path d="M 375.956042 307.584 
L 378.004336 307.584 
L 378.004336 169.748211 
L 375.956042 169.748211 
z
" clip-path="url(#pc66f1ba3b3)" style="fill: #1f77b4"/>
   </g>
   <g id="patch_122">
    <path d="M 378.51641 307.584 
L 380.564703 307.584 
L 380.564703 151.962947 
L 378.51641 151.962947 
z
" clip-path="url(#pc66f1ba3b3)" style="fill: #1f77b4"/>
   </g>
   <g id="patch_123">
    <path d="M 381.076777 307.584 
L 383.12507 307.584 
L 383.12507 147.516632 
L 381.076777 147.516632 
z
" clip-path="url(#pc66f1ba3b3)" style="fill: #1f77b4"/>
   </g>
   <g id="patch_124">
    <path d="M 383.637144 307.584 
L 385.685437 307.584 
L 385.685437 169.748211 
L 383.637144 169.748211 
z
" clip-path="url(#pc66f1ba3b3)" style="fill: #1f77b4"/>
   </g>
   <g id="patch_125">
    <path d="M 386.197511 307.584 
L 388.245804 307.584 
L 388.245804 169.748211 
L 386.197511 169.748211 
z
" clip-path="url(#pc66f1ba3b3)" style="fill: #1f77b4"/>
   </g>
   <g id="patch_126">
    <path d="M 388.757878 307.584 
L 390.806171 307.584 
L 390.806171 174.194526 
L 388.757878 174.194526 
z
" clip-path="url(#pc66f1ba3b3)" style="fill: #1f77b4"/>
   </g>
   <g id="patch_127">
    <path d="M 391.318245 307.584 
L 393.366539 307.584 
L 393.366539 138.624 
L 391.318245 138.624 
z
" clip-path="url(#pc66f1ba3b3)" style="fill: #1f77b4"/>
   </g>
   <g id="patch_128">
    <path d="M 393.878612 307.584 
L 395.926906 307.584 
L 395.926906 129.731368 
L 393.878612 129.731368 
z
" clip-path="url(#pc66f1ba3b3)" style="fill: #1f77b4"/>
   </g>
   <g id="patch_129">
    <path d="M 396.438979 307.584 
L 398.487273 307.584 
L 398.487273 85.268211 
L 396.438979 85.268211 
z
" clip-path="url(#pc66f1ba3b3)" style="fill: #1f77b4"/>
   </g>
   <g id="matplotlib.axis_1">
    <g id="xtick_1">
     <g id="line2d_1">
      <defs>
       <path id="m05350da517" d="M 0 0 
L 0 3.5 
" style="stroke: #000000; stroke-width: 0.8"/>
      </defs>
      <g>
       <use xlink:href="#m05350da517" x="72.296507" y="307.584" style="stroke: #000000; stroke-width: 0.8"/>
      </g>
     </g>
     <g id="text_1">
      <!-- 0 -->
      <g transform="translate(69.115257 322.182437)scale(0.1 -0.1)">
       <defs>
        <path id="DejaVuSans-30" d="M 2034 4250 
Q 1547 4250 1301 3770 
Q 1056 3291 1056 2328 
Q 1056 1369 1301 889 
Q 1547 409 2034 409 
Q 2525 409 2770 889 
Q 3016 1369 3016 2328 
Q 3016 3291 2770 3770 
Q 2525 4250 2034 4250 
z
M 2034 4750 
Q 2819 4750 3233 4129 
Q 3647 3509 3647 2328 
Q 3647 1150 3233 529 
Q 2819 -91 2034 -91 
Q 1250 -91 836 529 
Q 422 1150 422 2328 
Q 422 3509 836 4129 
Q 1250 4750 2034 4750 
z
" transform="scale(0.015625)"/>
       </defs>
       <use xlink:href="#DejaVuSans-30"/>
      </g>
     </g>
    </g>
    <g id="xtick_2">
     <g id="line2d_2">
      <g>
       <use xlink:href="#m05350da517" x="123.503849" y="307.584" style="stroke: #000000; stroke-width: 0.8"/>
      </g>
     </g>
     <g id="text_2">
      <!-- 20 -->
      <g transform="translate(117.141349 322.182437)scale(0.1 -0.1)">
       <defs>
        <path id="DejaVuSans-32" d="M 1228 531 
L 3431 531 
L 3431 0 
L 469 0 
L 469 531 
Q 828 903 1448 1529 
Q 2069 2156 2228 2338 
Q 2531 2678 2651 2914 
Q 2772 3150 2772 3378 
Q 2772 3750 2511 3984 
Q 2250 4219 1831 4219 
Q 1534 4219 1204 4116 
Q 875 4013 500 3803 
L 500 4441 
Q 881 4594 1212 4672 
Q 1544 4750 1819 4750 
Q 2544 4750 2975 4387 
Q 3406 4025 3406 3419 
Q 3406 3131 3298 2873 
Q 3191 2616 2906 2266 
Q 2828 2175 2409 1742 
Q 1991 1309 1228 531 
z
" transform="scale(0.015625)"/>
       </defs>
       <use xlink:href="#DejaVuSans-32"/>
       <use xlink:href="#DejaVuSans-30" x="63.623047"/>
      </g>
     </g>
    </g>
    <g id="xtick_3">
     <g id="line2d_3">
      <g>
       <use xlink:href="#m05350da517" x="174.71119" y="307.584" style="stroke: #000000; stroke-width: 0.8"/>
      </g>
     </g>
     <g id="text_3">
      <!-- 40 -->
      <g transform="translate(168.34869 322.182437)scale(0.1 -0.1)">
       <defs>
        <path id="DejaVuSans-34" d="M 2419 4116 
L 825 1625 
L 2419 1625 
L 2419 4116 
z
M 2253 4666 
L 3047 4666 
L 3047 1625 
L 3713 1625 
L 3713 1100 
L 3047 1100 
L 3047 0 
L 2419 0 
L 2419 1100 
L 313 1100 
L 313 1709 
L 2253 4666 
z
" transform="scale(0.015625)"/>
       </defs>
       <use xlink:href="#DejaVuSans-34"/>
       <use xlink:href="#DejaVuSans-30" x="63.623047"/>
      </g>
     </g>
    </g>
    <g id="xtick_4">
     <g id="line2d_4">
      <g>
       <use xlink:href="#m05350da517" x="225.918532" y="307.584" style="stroke: #000000; stroke-width: 0.8"/>
      </g>
     </g>
     <g id="text_4">
      <!-- 60 -->
      <g transform="translate(219.556032 322.182437)scale(0.1 -0.1)">
       <defs>
        <path id="DejaVuSans-36" d="M 2113 2584 
Q 1688 2584 1439 2293 
Q 1191 2003 1191 1497 
Q 1191 994 1439 701 
Q 1688 409 2113 409 
Q 2538 409 2786 701 
Q 3034 994 3034 1497 
Q 3034 2003 2786 2293 
Q 2538 2584 2113 2584 
z
M 3366 4563 
L 3366 3988 
Q 3128 4100 2886 4159 
Q 2644 4219 2406 4219 
Q 1781 4219 1451 3797 
Q 1122 3375 1075 2522 
Q 1259 2794 1537 2939 
Q 1816 3084 2150 3084 
Q 2853 3084 3261 2657 
Q 3669 2231 3669 1497 
Q 3669 778 3244 343 
Q 2819 -91 2113 -91 
Q 1303 -91 875 529 
Q 447 1150 447 2328 
Q 447 3434 972 4092 
Q 1497 4750 2381 4750 
Q 2619 4750 2861 4703 
Q 3103 4656 3366 4563 
z
" transform="scale(0.015625)"/>
       </defs>
       <use xlink:href="#DejaVuSans-36"/>
       <use xlink:href="#DejaVuSans-30" x="63.623047"/>
      </g>
     </g>
    </g>
    <g id="xtick_5">
     <g id="line2d_5">
      <g>
       <use xlink:href="#m05350da517" x="277.125873" y="307.584" style="stroke: #000000; stroke-width: 0.8"/>
      </g>
     </g>
     <g id="text_5">
      <!-- 80 -->
      <g transform="translate(270.763373 322.182437)scale(0.1 -0.1)">
       <defs>
        <path id="DejaVuSans-38" d="M 2034 2216 
Q 1584 2216 1326 1975 
Q 1069 1734 1069 1313 
Q 1069 891 1326 650 
Q 1584 409 2034 409 
Q 2484 409 2743 651 
Q 3003 894 3003 1313 
Q 3003 1734 2745 1975 
Q 2488 2216 2034 2216 
z
M 1403 2484 
Q 997 2584 770 2862 
Q 544 3141 544 3541 
Q 544 4100 942 4425 
Q 1341 4750 2034 4750 
Q 2731 4750 3128 4425 
Q 3525 4100 3525 3541 
Q 3525 3141 3298 2862 
Q 3072 2584 2669 2484 
Q 3125 2378 3379 2068 
Q 3634 1759 3634 1313 
Q 3634 634 3220 271 
Q 2806 -91 2034 -91 
Q 1263 -91 848 271 
Q 434 634 434 1313 
Q 434 1759 690 2068 
Q 947 2378 1403 2484 
z
M 1172 3481 
Q 1172 3119 1398 2916 
Q 1625 2713 2034 2713 
Q 2441 2713 2670 2916 
Q 2900 3119 2900 3481 
Q 2900 3844 2670 4047 
Q 2441 4250 2034 4250 
Q 1625 4250 1398 4047 
Q 1172 3844 1172 3481 
z
" transform="scale(0.015625)"/>
       </defs>
       <use xlink:href="#DejaVuSans-38"/>
       <use xlink:href="#DejaVuSans-30" x="63.623047"/>
      </g>
     </g>
    </g>
    <g id="xtick_6">
     <g id="line2d_6">
      <g>
       <use xlink:href="#m05350da517" x="328.333215" y="307.584" style="stroke: #000000; stroke-width: 0.8"/>
      </g>
     </g>
     <g id="text_6">
      <!-- 100 -->
      <g transform="translate(318.789465 322.182437)scale(0.1 -0.1)">
       <defs>
        <path id="DejaVuSans-31" d="M 794 531 
L 1825 531 
L 1825 4091 
L 703 3866 
L 703 4441 
L 1819 4666 
L 2450 4666 
L 2450 531 
L 3481 531 
L 3481 0 
L 794 0 
L 794 531 
z
" transform="scale(0.015625)"/>
       </defs>
       <use xlink:href="#DejaVuSans-31"/>
       <use xlink:href="#DejaVuSans-30" x="63.623047"/>
       <use xlink:href="#DejaVuSans-30" x="127.246094"/>
      </g>
     </g>
    </g>
    <g id="xtick_7">
     <g id="line2d_7">
      <g>
       <use xlink:href="#m05350da517" x="379.540556" y="307.584" style="stroke: #000000; stroke-width: 0.8"/>
      </g>
     </g>
     <g id="text_7">
      <!-- 120 -->
      <g transform="translate(369.996806 322.182437)scale(0.1 -0.1)">
       <use xlink:href="#DejaVuSans-31"/>
       <use xlink:href="#DejaVuSans-32" x="63.623047"/>
       <use xlink:href="#DejaVuSans-30" x="127.246094"/>
      </g>
     </g>
    </g>
    <g id="text_8">
     <!-- Size -->
     <g transform="translate(225.895938 335.860562)scale(0.1 -0.1)">
      <defs>
       <path id="DejaVuSans-53" d="M 3425 4513 
L 3425 3897 
Q 3066 4069 2747 4153 
Q 2428 4238 2131 4238 
Q 1616 4238 1336 4038 
Q 1056 3838 1056 3469 
Q 1056 3159 1242 3001 
Q 1428 2844 1947 2747 
L 2328 2669 
Q 3034 2534 3370 2195 
Q 3706 1856 3706 1288 
Q 3706 609 3251 259 
Q 2797 -91 1919 -91 
Q 1588 -91 1214 -16 
Q 841 59 441 206 
L 441 856 
Q 825 641 1194 531 
Q 1563 422 1919 422 
Q 2459 422 2753 634 
Q 3047 847 3047 1241 
Q 3047 1584 2836 1778 
Q 2625 1972 2144 2069 
L 1759 2144 
Q 1053 2284 737 2584 
Q 422 2884 422 3419 
Q 422 4038 858 4394 
Q 1294 4750 2059 4750 
Q 2388 4750 2728 4690 
Q 3069 4631 3425 4513 
z
" transform="scale(0.015625)"/>
       <path id="DejaVuSans-69" d="M 603 3500 
L 1178 3500 
L 1178 0 
L 603 0 
L 603 3500 
z
M 603 4863 
L 1178 4863 
L 1178 4134 
L 603 4134 
L 603 4863 
z
" transform="scale(0.015625)"/>
       <path id="DejaVuSans-7a" d="M 353 3500 
L 3084 3500 
L 3084 2975 
L 922 459 
L 3084 459 
L 3084 0 
L 275 0 
L 275 525 
L 2438 3041 
L 353 3041 
L 353 3500 
z
" transform="scale(0.015625)"/>
       <path id="DejaVuSans-65" d="M 3597 1894 
L 3597 1613 
L 953 1613 
Q 991 1019 1311 708 
Q 1631 397 2203 397 
Q 2534 397 2845 478 
Q 3156 559 3463 722 
L 3463 178 
Q 3153 47 2828 -22 
Q 2503 -91 2169 -91 
Q 1331 -91 842 396 
Q 353 884 353 1716 
Q 353 2575 817 3079 
Q 1281 3584 2069 3584 
Q 2775 3584 3186 3129 
Q 3597 2675 3597 1894 
z
M 3022 2063 
Q 3016 2534 2758 2815 
Q 2500 3097 2075 3097 
Q 1594 3097 1305 2825 
Q 1016 2553 972 2059 
L 3022 2063 
z
" transform="scale(0.015625)"/>
      </defs>
      <use xlink:href="#DejaVuSans-53"/>
      <use xlink:href="#DejaVuSans-69" x="63.476562"/>
      <use xlink:href="#DejaVuSans-7a" x="91.259766"/>
      <use xlink:href="#DejaVuSans-65" x="143.75"/>
     </g>
    </g>
   </g>
   <g id="matplotlib.axis_2">
    <g id="ytick_1">
     <g id="line2d_8">
      <defs>
       <path id="m0b187049ad" d="M 0 0 
L -3.5 0 
" style="stroke: #000000; stroke-width: 0.8"/>
      </defs>
      <g>
       <use xlink:href="#m0b187049ad" x="57.6" y="307.584" style="stroke: #000000; stroke-width: 0.8"/>
      </g>
     </g>
     <g id="text_9">
      <!-- 0 -->
      <g transform="translate(44.2375 311.383219)scale(0.1 -0.1)">
       <use xlink:href="#DejaVuSans-30"/>
      </g>
     </g>
    </g>
    <g id="ytick_2">
     <g id="line2d_9">
      <g>
       <use xlink:href="#m0b187049ad" x="57.6" y="263.120842" style="stroke: #000000; stroke-width: 0.8"/>
      </g>
     </g>
     <g id="text_10">
      <!-- 10 -->
      <g transform="translate(37.875 266.920061)scale(0.1 -0.1)">
       <use xlink:href="#DejaVuSans-31"/>
       <use xlink:href="#DejaVuSans-30" x="63.623047"/>
      </g>
     </g>
    </g>
    <g id="ytick_3">
     <g id="line2d_10">
      <g>
       <use xlink:href="#m0b187049ad" x="57.6" y="218.657684" style="stroke: #000000; stroke-width: 0.8"/>
      </g>
     </g>
     <g id="text_11">
      <!-- 20 -->
      <g transform="translate(37.875 222.456903)scale(0.1 -0.1)">
       <use xlink:href="#DejaVuSans-32"/>
       <use xlink:href="#DejaVuSans-30" x="63.623047"/>
      </g>
     </g>
    </g>
    <g id="ytick_4">
     <g id="line2d_11">
      <g>
       <use xlink:href="#m0b187049ad" x="57.6" y="174.194526" style="stroke: #000000; stroke-width: 0.8"/>
      </g>
     </g>
     <g id="text_12">
      <!-- 30 -->
      <g transform="translate(37.875 177.993745)scale(0.1 -0.1)">
       <defs>
        <path id="DejaVuSans-33" d="M 2597 2516 
Q 3050 2419 3304 2112 
Q 3559 1806 3559 1356 
Q 3559 666 3084 287 
Q 2609 -91 1734 -91 
Q 1441 -91 1130 -33 
Q 819 25 488 141 
L 488 750 
Q 750 597 1062 519 
Q 1375 441 1716 441 
Q 2309 441 2620 675 
Q 2931 909 2931 1356 
Q 2931 1769 2642 2001 
Q 2353 2234 1838 2234 
L 1294 2234 
L 1294 2753 
L 1863 2753 
Q 2328 2753 2575 2939 
Q 2822 3125 2822 3475 
Q 2822 3834 2567 4026 
Q 2313 4219 1838 4219 
Q 1578 4219 1281 4162 
Q 984 4106 628 3988 
L 628 4550 
Q 988 4650 1302 4700 
Q 1616 4750 1894 4750 
Q 2613 4750 3031 4423 
Q 3450 4097 3450 3541 
Q 3450 3153 3228 2886 
Q 3006 2619 2597 2516 
z
" transform="scale(0.015625)"/>
       </defs>
       <use xlink:href="#DejaVuSans-33"/>
       <use xlink:href="#DejaVuSans-30" x="63.623047"/>
      </g>
     </g>
    </g>
    <g id="ytick_5">
     <g id="line2d_12">
      <g>
       <use xlink:href="#m0b187049ad" x="57.6" y="129.731368" style="stroke: #000000; stroke-width: 0.8"/>
      </g>
     </g>
     <g id="text_13">
      <!-- 40 -->
      <g transform="translate(37.875 133.530587)scale(0.1 -0.1)">
       <use xlink:href="#DejaVuSans-34"/>
       <use xlink:href="#DejaVuSans-30" x="63.623047"/>
      </g>
     </g>
    </g>
    <g id="ytick_6">
     <g id="line2d_13">
      <g>
       <use xlink:href="#m0b187049ad" x="57.6" y="85.268211" style="stroke: #000000; stroke-width: 0.8"/>
      </g>
     </g>
     <g id="text_14">
      <!-- 50 -->
      <g transform="translate(37.875 89.067429)scale(0.1 -0.1)">
       <defs>
        <path id="DejaVuSans-35" d="M 691 4666 
L 3169 4666 
L 3169 4134 
L 1269 4134 
L 1269 2991 
Q 1406 3038 1543 3061 
Q 1681 3084 1819 3084 
Q 2600 3084 3056 2656 
Q 3513 2228 3513 1497 
Q 3513 744 3044 326 
Q 2575 -91 1722 -91 
Q 1428 -91 1123 -41 
Q 819 9 494 109 
L 494 744 
Q 775 591 1075 516 
Q 1375 441 1709 441 
Q 2250 441 2565 725 
Q 2881 1009 2881 1497 
Q 2881 1984 2565 2268 
Q 2250 2553 1709 2553 
Q 1456 2553 1204 2497 
Q 953 2441 691 2322 
L 691 4666 
z
" transform="scale(0.015625)"/>
       </defs>
       <use xlink:href="#DejaVuSans-35"/>
       <use xlink:href="#DejaVuSans-30" x="63.623047"/>
      </g>
     </g>
    </g>
    <g id="text_15">
     <!-- Size counts -->
     <g transform="translate(31.795312 203.092062)rotate(-90)scale(0.1 -0.1)">
      <defs>
       <path id="DejaVuSans-20" transform="scale(0.015625)"/>
       <path id="DejaVuSans-63" d="M 3122 3366 
L 3122 2828 
Q 2878 2963 2633 3030 
Q 2388 3097 2138 3097 
Q 1578 3097 1268 2742 
Q 959 2388 959 1747 
Q 959 1106 1268 751 
Q 1578 397 2138 397 
Q 2388 397 2633 464 
Q 2878 531 3122 666 
L 3122 134 
Q 2881 22 2623 -34 
Q 2366 -91 2075 -91 
Q 1284 -91 818 406 
Q 353 903 353 1747 
Q 353 2603 823 3093 
Q 1294 3584 2113 3584 
Q 2378 3584 2631 3529 
Q 2884 3475 3122 3366 
z
" transform="scale(0.015625)"/>
       <path id="DejaVuSans-6f" d="M 1959 3097 
Q 1497 3097 1228 2736 
Q 959 2375 959 1747 
Q 959 1119 1226 758 
Q 1494 397 1959 397 
Q 2419 397 2687 759 
Q 2956 1122 2956 1747 
Q 2956 2369 2687 2733 
Q 2419 3097 1959 3097 
z
M 1959 3584 
Q 2709 3584 3137 3096 
Q 3566 2609 3566 1747 
Q 3566 888 3137 398 
Q 2709 -91 1959 -91 
Q 1206 -91 779 398 
Q 353 888 353 1747 
Q 353 2609 779 3096 
Q 1206 3584 1959 3584 
z
" transform="scale(0.015625)"/>
       <path id="DejaVuSans-75" d="M 544 1381 
L 544 3500 
L 1119 3500 
L 1119 1403 
Q 1119 906 1312 657 
Q 1506 409 1894 409 
Q 2359 409 2629 706 
Q 2900 1003 2900 1516 
L 2900 3500 
L 3475 3500 
L 3475 0 
L 2900 0 
L 2900 538 
Q 2691 219 2414 64 
Q 2138 -91 1772 -91 
Q 1169 -91 856 284 
Q 544 659 544 1381 
z
M 1991 3584 
L 1991 3584 
z
" transform="scale(0.015625)"/>
       <path id="DejaVuSans-6e" d="M 3513 2113 
L 3513 0 
L 2938 0 
L 2938 2094 
Q 2938 2591 2744 2837 
Q 2550 3084 2163 3084 
Q 1697 3084 1428 2787 
Q 1159 2491 1159 1978 
L 1159 0 
L 581 0 
L 581 3500 
L 1159 3500 
L 1159 2956 
Q 1366 3272 1645 3428 
Q 1925 3584 2291 3584 
Q 2894 3584 3203 3211 
Q 3513 2838 3513 2113 
z
" transform="scale(0.015625)"/>
       <path id="DejaVuSans-74" d="M 1172 4494 
L 1172 3500 
L 2356 3500 
L 2356 3053 
L 1172 3053 
L 1172 1153 
Q 1172 725 1289 603 
Q 1406 481 1766 481 
L 2356 481 
L 2356 0 
L 1766 0 
Q 1100 0 847 248 
Q 594 497 594 1153 
L 594 3053 
L 172 3053 
L 172 3500 
L 594 3500 
L 594 4494 
L 1172 4494 
z
" transform="scale(0.015625)"/>
       <path id="DejaVuSans-73" d="M 2834 3397 
L 2834 2853 
Q 2591 2978 2328 3040 
Q 2066 3103 1784 3103 
Q 1356 3103 1142 2972 
Q 928 2841 928 2578 
Q 928 2378 1081 2264 
Q 1234 2150 1697 2047 
L 1894 2003 
Q 2506 1872 2764 1633 
Q 3022 1394 3022 966 
Q 3022 478 2636 193 
Q 2250 -91 1575 -91 
Q 1294 -91 989 -36 
Q 684 19 347 128 
L 347 722 
Q 666 556 975 473 
Q 1284 391 1588 391 
Q 1994 391 2212 530 
Q 2431 669 2431 922 
Q 2431 1156 2273 1281 
Q 2116 1406 1581 1522 
L 1381 1569 
Q 847 1681 609 1914 
Q 372 2147 372 2553 
Q 372 3047 722 3315 
Q 1072 3584 1716 3584 
Q 2034 3584 2315 3537 
Q 2597 3491 2834 3397 
z
" transform="scale(0.015625)"/>
      </defs>
      <use xlink:href="#DejaVuSans-53"/>
      <use xlink:href="#DejaVuSans-69" x="63.476562"/>
      <use xlink:href="#DejaVuSans-7a" x="91.259766"/>
      <use xlink:href="#DejaVuSans-65" x="143.75"/>
      <use xlink:href="#DejaVuSans-20" x="205.273438"/>
      <use xlink:href="#DejaVuSans-63" x="237.060547"/>
      <use xlink:href="#DejaVuSans-6f" x="292.041016"/>
      <use xlink:href="#DejaVuSans-75" x="353.222656"/>
      <use xlink:href="#DejaVuSans-6e" x="416.601562"/>
      <use xlink:href="#DejaVuSans-74" x="479.980469"/>
      <use xlink:href="#DejaVuSans-73" x="519.189453"/>
     </g>
    </g>
   </g>
   <g id="patch_130">
    <path d="M 57.6 307.584 
L 57.6 41.472 
" style="fill: none; stroke: #000000; stroke-width: 0.8; stroke-linejoin: miter; stroke-linecap: square"/>
   </g>
   <g id="patch_131">
    <path d="M 414.72 307.584 
L 414.72 41.472 
" style="fill: none; stroke: #000000; stroke-width: 0.8; stroke-linejoin: miter; stroke-linecap: square"/>
   </g>
   <g id="patch_132">
    <path d="M 57.6 307.584 
L 414.72 307.584 
" style="fill: none; stroke: #000000; stroke-width: 0.8; stroke-linejoin: miter; stroke-linecap: square"/>
   </g>
   <g id="patch_133">
    <path d="M 57.6 41.472 
L 414.72 41.472 
" style="fill: none; stroke: #000000; stroke-width: 0.8; stroke-linejoin: miter; stroke-linecap: square"/>
   </g>
   <g id="text_16">
    <!-- Number of instances of each size (nicolau_c) -->
    <g transform="translate(101.835 35.472)scale(0.12 -0.12)">
     <defs>
      <path id="DejaVuSans-4e" d="M 628 4666 
L 1478 4666 
L 3547 763 
L 3547 4666 
L 4159 4666 
L 4159 0 
L 3309 0 
L 1241 3903 
L 1241 0 
L 628 0 
L 628 4666 
z
" transform="scale(0.015625)"/>
      <path id="DejaVuSans-6d" d="M 3328 2828 
Q 3544 3216 3844 3400 
Q 4144 3584 4550 3584 
Q 5097 3584 5394 3201 
Q 5691 2819 5691 2113 
L 5691 0 
L 5113 0 
L 5113 2094 
Q 5113 2597 4934 2840 
Q 4756 3084 4391 3084 
Q 3944 3084 3684 2787 
Q 3425 2491 3425 1978 
L 3425 0 
L 2847 0 
L 2847 2094 
Q 2847 2600 2669 2842 
Q 2491 3084 2119 3084 
Q 1678 3084 1418 2786 
Q 1159 2488 1159 1978 
L 1159 0 
L 581 0 
L 581 3500 
L 1159 3500 
L 1159 2956 
Q 1356 3278 1631 3431 
Q 1906 3584 2284 3584 
Q 2666 3584 2933 3390 
Q 3200 3197 3328 2828 
z
" transform="scale(0.015625)"/>
      <path id="DejaVuSans-62" d="M 3116 1747 
Q 3116 2381 2855 2742 
Q 2594 3103 2138 3103 
Q 1681 3103 1420 2742 
Q 1159 2381 1159 1747 
Q 1159 1113 1420 752 
Q 1681 391 2138 391 
Q 2594 391 2855 752 
Q 3116 1113 3116 1747 
z
M 1159 2969 
Q 1341 3281 1617 3432 
Q 1894 3584 2278 3584 
Q 2916 3584 3314 3078 
Q 3713 2572 3713 1747 
Q 3713 922 3314 415 
Q 2916 -91 2278 -91 
Q 1894 -91 1617 61 
Q 1341 213 1159 525 
L 1159 0 
L 581 0 
L 581 4863 
L 1159 4863 
L 1159 2969 
z
" transform="scale(0.015625)"/>
      <path id="DejaVuSans-72" d="M 2631 2963 
Q 2534 3019 2420 3045 
Q 2306 3072 2169 3072 
Q 1681 3072 1420 2755 
Q 1159 2438 1159 1844 
L 1159 0 
L 581 0 
L 581 3500 
L 1159 3500 
L 1159 2956 
Q 1341 3275 1631 3429 
Q 1922 3584 2338 3584 
Q 2397 3584 2469 3576 
Q 2541 3569 2628 3553 
L 2631 2963 
z
" transform="scale(0.015625)"/>
      <path id="DejaVuSans-66" d="M 2375 4863 
L 2375 4384 
L 1825 4384 
Q 1516 4384 1395 4259 
Q 1275 4134 1275 3809 
L 1275 3500 
L 2222 3500 
L 2222 3053 
L 1275 3053 
L 1275 0 
L 697 0 
L 697 3053 
L 147 3053 
L 147 3500 
L 697 3500 
L 697 3744 
Q 697 4328 969 4595 
Q 1241 4863 1831 4863 
L 2375 4863 
z
" transform="scale(0.015625)"/>
      <path id="DejaVuSans-61" d="M 2194 1759 
Q 1497 1759 1228 1600 
Q 959 1441 959 1056 
Q 959 750 1161 570 
Q 1363 391 1709 391 
Q 2188 391 2477 730 
Q 2766 1069 2766 1631 
L 2766 1759 
L 2194 1759 
z
M 3341 1997 
L 3341 0 
L 2766 0 
L 2766 531 
Q 2569 213 2275 61 
Q 1981 -91 1556 -91 
Q 1019 -91 701 211 
Q 384 513 384 1019 
Q 384 1609 779 1909 
Q 1175 2209 1959 2209 
L 2766 2209 
L 2766 2266 
Q 2766 2663 2505 2880 
Q 2244 3097 1772 3097 
Q 1472 3097 1187 3025 
Q 903 2953 641 2809 
L 641 3341 
Q 956 3463 1253 3523 
Q 1550 3584 1831 3584 
Q 2591 3584 2966 3190 
Q 3341 2797 3341 1997 
z
" transform="scale(0.015625)"/>
      <path id="DejaVuSans-68" d="M 3513 2113 
L 3513 0 
L 2938 0 
L 2938 2094 
Q 2938 2591 2744 2837 
Q 2550 3084 2163 3084 
Q 1697 3084 1428 2787 
Q 1159 2491 1159 1978 
L 1159 0 
L 581 0 
L 581 4863 
L 1159 4863 
L 1159 2956 
Q 1366 3272 1645 3428 
Q 1925 3584 2291 3584 
Q 2894 3584 3203 3211 
Q 3513 2838 3513 2113 
z
" transform="scale(0.015625)"/>
      <path id="DejaVuSans-28" d="M 1984 4856 
Q 1566 4138 1362 3434 
Q 1159 2731 1159 2009 
Q 1159 1288 1364 580 
Q 1569 -128 1984 -844 
L 1484 -844 
Q 1016 -109 783 600 
Q 550 1309 550 2009 
Q 550 2706 781 3412 
Q 1013 4119 1484 4856 
L 1984 4856 
z
" transform="scale(0.015625)"/>
      <path id="DejaVuSans-6c" d="M 603 4863 
L 1178 4863 
L 1178 0 
L 603 0 
L 603 4863 
z
" transform="scale(0.015625)"/>
      <path id="DejaVuSans-5f" d="M 3263 -1063 
L 3263 -1509 
L -63 -1509 
L -63 -1063 
L 3263 -1063 
z
" transform="scale(0.015625)"/>
      <path id="DejaVuSans-29" d="M 513 4856 
L 1013 4856 
Q 1481 4119 1714 3412 
Q 1947 2706 1947 2009 
Q 1947 1309 1714 600 
Q 1481 -109 1013 -844 
L 513 -844 
Q 928 -128 1133 580 
Q 1338 1288 1338 2009 
Q 1338 2731 1133 3434 
Q 928 4138 513 4856 
z
" transform="scale(0.015625)"/>
     </defs>
     <use xlink:href="#DejaVuSans-4e"/>
     <use xlink:href="#DejaVuSans-75" x="74.804688"/>
     <use xlink:href="#DejaVuSans-6d" x="138.183594"/>
     <use xlink:href="#DejaVuSans-62" x="235.595703"/>
     <use xlink:href="#DejaVuSans-65" x="299.072266"/>
     <use xlink:href="#DejaVuSans-72" x="360.595703"/>
     <use xlink:href="#DejaVuSans-20" x="401.708984"/>
     <use xlink:href="#DejaVuSans-6f" x="433.496094"/>
     <use xlink:href="#DejaVuSans-66" x="494.677734"/>
     <use xlink:href="#DejaVuSans-20" x="529.882812"/>
     <use xlink:href="#DejaVuSans-69" x="561.669922"/>
     <use xlink:href="#DejaVuSans-6e" x="589.453125"/>
     <use xlink:href="#DejaVuSans-73" x="652.832031"/>
     <use xlink:href="#DejaVuSans-74" x="704.931641"/>
     <use xlink:href="#DejaVuSans-61" x="744.140625"/>
     <use xlink:href="#DejaVuSans-6e" x="805.419922"/>
     <use xlink:href="#DejaVuSans-63" x="868.798828"/>
     <use xlink:href="#DejaVuSans-65" x="923.779297"/>
     <use xlink:href="#DejaVuSans-73" x="985.302734"/>
     <use xlink:href="#DejaVuSans-20" x="1037.402344"/>
     <use xlink:href="#DejaVuSans-6f" x="1069.189453"/>
     <use xlink:href="#DejaVuSans-66" x="1130.371094"/>
     <use xlink:href="#DejaVuSans-20" x="1165.576172"/>
     <use xlink:href="#DejaVuSans-65" x="1197.363281"/>
     <use xlink:href="#DejaVuSans-61" x="1258.886719"/>
     <use xlink:href="#DejaVuSans-63" x="1320.166016"/>
     <use xlink:href="#DejaVuSans-68" x="1375.146484"/>
     <use xlink:href="#DejaVuSans-20" x="1438.525391"/>
     <use xlink:href="#DejaVuSans-73" x="1470.3125"/>
     <use xlink:href="#DejaVuSans-69" x="1522.412109"/>
     <use xlink:href="#DejaVuSans-7a" x="1550.195312"/>
     <use xlink:href="#DejaVuSans-65" x="1602.685547"/>
     <use xlink:href="#DejaVuSans-20" x="1664.208984"/>
     <use xlink:href="#DejaVuSans-28" x="1695.996094"/>
     <use xlink:href="#DejaVuSans-6e" x="1735.009766"/>
     <use xlink:href="#DejaVuSans-69" x="1798.388672"/>
     <use xlink:href="#DejaVuSans-63" x="1826.171875"/>
     <use xlink:href="#DejaVuSans-6f" x="1881.152344"/>
     <use xlink:href="#DejaVuSans-6c" x="1942.333984"/>
     <use xlink:href="#DejaVuSans-61" x="1970.117188"/>
     <use xlink:href="#DejaVuSans-75" x="2031.396484"/>
     <use xlink:href="#DejaVuSans-5f" x="2094.775391"/>
     <use xlink:href="#DejaVuSans-63" x="2144.775391"/>
     <use xlink:href="#DejaVuSans-29" x="2199.755859"/>
    </g>
   </g>
  </g>
 </g>
 <defs>
  <clipPath id="pc66f1ba3b3">
   <rect x="57.6" y="41.472" width="357.12" height="266.112"/>
  </clipPath>
 </defs>
</svg>
